<svg xmlns="http://www.w3.org/2000/svg" xmlns:xlink="http://www.w3.org/1999/xlink" width="600" height="600" viewBox="0 0 600 600"><defs><style>.cls-1{fill:none;clip-rule:evenodd;}.cls-2{isolation:isolate;}.cls-3{fill:#d6c295;}.cls-10,.cls-11,.cls-12,.cls-3,.cls-5,.cls-6,.cls-9{fill-rule:evenodd;}.cls-4,.cls-5{fill:#e98fca;}.cls-7{clip-path:url(#clip-path);}.cls-8{opacity:0.5;mix-blend-mode:multiply;}.cls-9{fill:#fa64f5;}.cls-10{fill:#ffd7fe;}.cls-11{fill:#ededed;}.cls-12{fill:#fff;}</style><clipPath id="clip-path"><path class="cls-1" d="M179,494.93s-22.52-44.27-18.28-82.25C174,293.84,139,270.51,152.71,198c4.75-25.16,13.72-53.84,29-74.69,33.61-45.8,98.2-69.58,154.37-58.82,22.5,4.3,42.81,14,62.92,24.7,69.94,37.17,84.46,115.59,75.37,181.68-4,29.24-29.18,74.83-25.48,104.17,7.65,61.16,5.5,94.26-13.59,133.72-16.26,33.61-79.59,59-148.84,51.75C274.67,559.28,204.07,546.92,179,494.93Z"/></clipPath></defs><title>1</title><g class="cls-2"><g id="Слой_1" data-name="Слой 1"><path class="cls-3" d="M120.12,382.45s43.92-7.17,54.55-31.82-8-38.51-22.58-24.14-29.58,26.59-46,25.49S92.45,387.23,120.12,382.45Z"/><path d="M115.38,387.35c-8.14,0-15-3.34-19.45-9.57-5-7.11-5.91-16.75-2.15-23.44a13.05,13.05,0,0,1,12.6-6.84c14.78,1.09,29.19-11,42.56-24.2,7.77-7.64,17.59-9.28,25-4.19,6.84,4.69,12.21,16.22,4.83,33.3-11.44,26.5-55.75,34.1-57.93,34.46A32.58,32.58,0,0,1,115.38,387.35Zm-10-30.91a4,4,0,0,0-3.76,2.28c-1.77,3.17-1.64,9.23,1.66,13.89,2.35,3.34,7.07,7,16.11,5.42h0c.41-.07,41.63-7.08,51.16-29.17,4.88-11.31,2.68-19.37-1.67-22.35-3.79-2.61-9-1.38-13.66,3.18-14.87,14.63-31.12,28-49.45,26.76Z"/><path class="cls-4" d="M297.81,81.1a4.48,4.48,0,0,1-4.42-3.83C289.56,51.32,283,46.54,280.3,45.69c-3.82-1.23-7.86,2.74-7.9,2.78a4.48,4.48,0,0,1-6.46-6.21c2.89-3,9.73-7.46,17.09-5.11C292.57,40.2,298.86,52.9,302.25,76a4.48,4.48,0,0,1-3.78,5.09A4.89,4.89,0,0,1,297.81,81.1Z"/><path class="cls-4" d="M314.32,78.5a5.46,5.46,0,0,1-.57,0,4.47,4.47,0,0,1-3.88-5c3.11-24.47,9.23-37.88,18.7-41,6.89-2.26,13.23,1.84,15.9,4.63A4.48,4.48,0,0,1,338,43.29c-.11-.12-3.47-3.42-6.66-2.32-2,.69-9,5.15-12.59,33.61A4.48,4.48,0,0,1,314.32,78.5Z"/><path class="cls-4" d="M306,72.55h-.33a4.48,4.48,0,0,1-4.14-4.79C303.82,35,297.75,27.69,295,26.07s-5.77.29-5.8.31a4.49,4.49,0,0,1-4.83-7.56c2.87-1.82,9.29-4,15.21-.44,9.28,5.52,12.81,21.88,10.79,50A4.47,4.47,0,0,1,306,72.55Z"/><path class="cls-3" d="M216.56,558.21s2.45-44.43,25.81-57.63,39.14,3.79,26.41,19.87-23.27,32.26-20.43,48.45S214.77,586.23,216.56,558.21Z"/><path d="M235.69,584.85a24.67,24.67,0,0,1-11.89-3.07c-8.12-4.52-12.39-13.21-11.72-23.84.12-2.16,2.95-47.06,28.09-61.26,16.19-9.17,28.23-5.08,33.61,1.21,5.87,6.84,5.28,16.79-1.49,25.33-11.65,14.72-22.08,30.35-19.53,44.91a13,13,0,0,1-5.44,13.28A20.07,20.07,0,0,1,235.69,584.85Zm22.51-84.53c-3.78,0-8.41,1.2-13.62,4.16-20.94,11.84-23.52,53.56-23.55,54v0c-.59,9.17,3.55,13.47,7.13,15.46,5,2.76,11,2.25,14,.16a4.09,4.09,0,0,0,1.81-4.43c-3.16-18,8.39-35.66,21.34-52,4-5.1,4.7-10.45,1.71-13.94C265.22,501.66,262.18,500.32,258.2,500.32Zm-41.64,57.89h0Z"/><path class="cls-3" d="M417.56,563.38s-23.51-37.77-12-62,34.24-19.35,33,1.11-.54,39.79,11.12,51.42S432.17,587.37,417.56,563.38Z"/><path d="M434.64,578.65c-8.31,0-15.83-4.61-20.9-12.93-1.17-1.89-24.6-40.22-12.21-66.26,8-16.81,20.22-20.37,28.24-18.3,8.73,2.24,14,10.72,13.33,21.59-1.1,18.75-.67,37.54,9.8,48a13,13,0,0,1,3.15,14c-2.57,7.23-10.4,12.91-19.06,13.8A23.26,23.26,0,0,1,434.64,578.65Zm-9.16-89.06c-4.93,0-11.24,4-15.85,13.72C399.29,525,421.14,560.65,421.37,561l0,0c4.77,7.85,10.62,9,14.68,8.57,5.68-.58,10.32-4.47,11.54-7.88a4.1,4.1,0,0,0-1-4.66c-13-12.93-13.64-34-12.42-54.84.38-6.5-2.15-11.25-6.6-12.39A8.27,8.27,0,0,0,425.48,489.59Z"/><path class="cls-5" d="M451.38,179.15c.81-4.93,10.84-12.43,15-14.13,50.81-20.68,33,37.55,3.43,35.25"/><path class="cls-6" d="M457.23,180.25Zm28.06-25.66h.48l.21,0h.44l.21,0h.24l.21,0h.21l.24,0h.21l.21,0,.21,0,.21,0,.2,0,.21,0,.21,0,.21,0,.21,0,.21,0,.21,0,.21,0,.21.06.21,0,.18.06.2,0,.21.06.21.06.18,0,.21.06.21.06.18.06.21.06.18.06.21.06.18.05.21.06.18.06.17.09.18.06.21.09.18.06.18.09.18.06.18.09.18.09.21.09.15.09.18.06.18.09.18.09.17.12.18.09.15.09.18.09.18.12.15.09.18.12.15.09.15.12.18.12.15.09.18.11.15.12.15.12.18.12.14.12.12.12.15.12.15.12.15.12.15.12.15.15.12.12.15.12.15.15.12.12.12.15.15.15.12.12.12.15.15.14.12.12.11.15.12.15.12.15.12.15.09.15.12.15.12.15.12.15.09.15.12.18.09.15.09.15.12.15.09.15.09.17.09.15.09.15.09.18.09.15.09.18.09.15.09.18.06.15.09.15.06.18.08.18.06.15.06.18.09.15.06.17.06.18.06.18.06.15.06.15.06.18.06.18.06.18.06.18,0,.15.06.18.06.18,0,.15,0,.17.06.18,0,.18.06.18,0,.15,0,.18,0,.18,0,.18,0,.18,0,.18,0,.15,0,.18,0,.18V170l0,.17,0,.18v.18l0,.15,0,.18v.36l0,.18v.33l0,.21v1.73l0,.18v.36l0,.18v.18l0,.18v.15l0,.17v.18l0,.18v.18l0,.15,0,.18,0,.21v.15l0,.18,0,.18,0,.18,0,.15,0,.18,0,.18,0,.17,0,.18,0,.15-.06.21,0,.15,0,.18,0,.18-.06.18,0,.15,0,.18-.06.18,0,.18-.06.18,0,.17-.06.15,0,.18-.06.18-.06.15,0,.18-.06.18-.06.18,0,.15-.06.18-.06.18-.06.18-.06.15-.05.18-.06.17-.06.15-.06.18-.06.18-.06.15-.06.18-.06.18-.09.15-.06.18-.06.18-.06.15-.09.18-.06.18-.09.18-.06.14-.06.15-.09.18-.06.18-.09.15-.06.18-.09.15-.09.18-.06.18-.09.15-.09.18-.06.15-.09.18-.09.15-.09.15-.09.17-.09.18-.09.15-.08.18-.06.15-.09.15-.12.18-.09.15-.09.18-.09.15-.09.18-.09.15-.09.15-.12.18-.09.15-.09.14-.09.18-.12.15-.09.15-.12.18-.09.15-.09.15-.12.15-.09.15-.12.18-.09.15-.12.15-.11.15-.12.18-.09.15-.12.14-.09.15-.12.15-.12.15-.12.15-.12.15-.09.15-.12.15-.12.18-.12.12-.12.15-.12.15-.12.15-.12.15-.12.15-.12.15-.12.14-.15.15-.11.15-.12.15-.12.12-.15.15-.12.15-.12.15-.15.15-.12.12-.12.15-.15.15-.12.12-.15.15-.12.12-.15.15-.12.15-.15.11-.12.15-.15.15-.14.12-.12.15-.15.12-.15.12-.15.15-.12.12-.15.15-.15.12-.15.12-.15.15-.15.12-.12.12-.15.12-.15.15-.18.12L491,199l-.15.12-.14.12-.15.15-.15.12-.15.12-.15.12-.18.12-.15.12-.15.12-.15.12-.18.09-.15.12-.15.12-.15.12-.18.12-.18.12-.14.09-.15.12-.18.09-.18.12-.15.11-.15.09-.21.12-.15.09-.15.12-.18.09-.18.12-.18.09-.15.09-.18.12-.17.09-.18.09-.18.09-.18.12-.18.09-.15.09-.18.09-.21.09-.15.09-.18.09-.21.09-.18.09-.18.09-.18.09-.17.06-.18.08-.18.09-.18.09-.21.06-.18.09-.18.09-.21.06-.18.09-.18.06-.18.06-.21.09-.17.06-.21.09-.18.06-.21.06-.18.06-.21.06-.18.06-.21.06-.18.06-.21.06-.21.06-.18.06-.21.06-.2.06-.18,0-.21.06-.21.06-.18,0-.21.06-.21,0-.21.06-.21,0-.21,0-.21.06-.2,0-.18,0-.21,0-.21,0-.24.06-.21,0h-.18l-.21,0-.24,0-.21,0-.21,0h-.21l-.2,0-.21,0h-.21l-.21,0h-.42l-.24,0h-2.15l-.24,0h-.42l-.24,0h-.18l-.32,0-.33-.06-.33-.08-.33-.06-.3-.12-.33-.12-.3-.15-.3-.15-.26-.18-.3-.18-.24-.21-.27-.24-.24-.24-.24-.24-.21-.27-.18-.26-.18-.27-.18-.3-.14-.3-.12-.3-.12-.33-.09-.3-.09-.33-.06-.32,0-.33,0-.36v-.66l0-.33.06-.33.06-.32.09-.33.12-.33.12-.3.14-.3.15-.3.18-.3.18-.27.21-.26.21-.24.24-.24.27-.24.24-.21.27-.21.3-.18L467,195l.33-.15.3-.15.3-.12.33-.09.33-.06.33-.06.33-.06.32,0h.36l.33,0h.3l.12,0h1.73l.12,0h.24l.12,0h.24l.15,0h.12l.09,0h.12l.15,0h.12l.12,0h.11l.12,0,.12,0,.12,0h.12l.12,0,.12,0,.12,0,.09,0h.12l.15,0,.12,0,.09,0,.15,0,.09,0,.12,0,.12-.06.12,0,.12,0,.12,0,.12,0,.11-.06.12,0,.09,0,.12,0,.12-.06.12,0,.12,0,.12-.06.12,0,.12-.06.12,0,.09-.06L478,193l.12,0,.12-.06.21-.09.12-.06.12-.06.12,0,.2-.12.12-.06.12-.06.12-.06.09,0,.12-.06.12-.06.12-.06.09-.06.12-.06.12-.09.09-.06.24-.12.12-.06.09-.05.09-.06.12-.09.12-.06.09-.06.23-.15.09-.06.12-.09.12-.06.12-.09.09-.06.09-.06.12-.09.09-.06.12-.09.12-.09.09-.06.09-.09.12-.06.09-.09.12-.09.09-.06.12-.09.09-.09.12-.09.09-.06.09-.09.11-.09.09-.09.09-.09.12-.08.09-.09.09-.06.12-.09.09-.12.09-.09.12-.09.09-.06.09-.09.09-.12.09-.09.12-.09.09-.09.18-.18.09-.09.09-.09.09-.12.12-.09.09-.09.09-.09.09-.12.09-.09.08-.09.09-.12.09-.09.09-.08.09-.12.09-.09.06-.09.09-.09.09-.12.09-.12.09-.09.09-.09.09-.12.06-.09.09-.12.09-.09.09-.12.06-.09.18-.24.06-.09.09-.09.09-.12.06-.12.18-.21.06-.09.06-.11.14-.21.09-.12.06-.12.09-.09.06-.12.15-.24.06-.09.09-.12.06-.09.06-.12.06-.12.09-.09.06-.12.06-.12.06-.12.06-.09.09-.12.06-.12.06-.11.06-.09.06-.12.06-.12.06-.12.06-.12.06-.09.06-.12.06-.12.06-.12.06-.12,0-.09.06-.12.06-.12.06-.09.06-.12,0-.12.06-.12.06-.12,0-.09.11-.23,0-.12.06-.09,0-.12.06-.12,0-.12.06-.12,0-.09.06-.12,0-.12.06-.09,0-.12,0-.12.06-.12,0-.09,0-.12,0-.12.06-.12,0-.09,0-.12,0-.09,0-.11,0-.12,0-.09,0-.12,0-.09,0-.12,0-.12,0-.09,0-.12,0-.09,0-.12,0-.09,0-.12V176l0-.09,0-.09,0-.12v-.09l.06-.21,0-.21v-.09l0-.12,0-.08v-.21l0-.09v-.09l0-.09v-.12l0-.09v-.3l0-.09v-.27l0-.09v-1.19l0-.09v-.33l0-.06v-.24l0-.06v-.15l0-.09v-.06l0-.06V171l0-.09v-.06l0-.06v-.09l0-.06v-.06l0-.06,0-.06v-.06l0-.06v-.06l0-.06v-.05l0-.06,0-.06,0-.06v0l0-.06v-.06l0,0,0-.06,0-.06v0l0-.06,0-.06,0-.06,0,0v-.06l0,0,0-.06,0,0,0-.06v0l0,0,0-.06,0,0,0-.06,0,0,0,0v-.06l0,0,0,0,0,0,0-.06-.06,0v0l0-.06,0,0,0,0,0,0-.06,0,0-.06-.06,0,0-.06,0,0,0,0-.06,0,0,0,0,0,0,0,0,0-.06-.06,0,0-.06,0,0,0,0,0,0,0-.06,0-.06,0,0,0,0,0-.06,0-.06,0-.06,0,0,0-.06,0-.06,0,0,0-.06,0-.06,0-.06,0-.06,0-.06,0-.06,0-.06,0-.06,0-.09,0-.06,0-.06,0-.09,0-.06,0h-.06l-.09,0-.06,0-.09,0-.06,0-.09,0-.09,0h-.09l-.06,0-.08,0-.09,0h-.09l-.09,0-.09,0H488l-.09,0-.09,0h-.09l-.12,0-.09,0h-.09l-.12,0h-.12l-.12,0h-.09l-.12,0h-.24l-.12,0h-.12l-.12,0h-.5l-.12,0H484.3l-.15,0h-.45l-.17,0h-.3l-.18,0h-.15l-.18,0h-.15l-.18,0-.18,0h-.15l-.18,0-.18,0-.18,0h-.18l-.17,0-.21,0-.18,0-.18,0-.18,0-.21.06-.18,0-.21,0-.18,0-.21.06-.21,0-.21,0-.18.06-.2,0-.21.06-.21.06-.21,0-.21.06-.24.06-.21,0-.21.06-.21,0-.24.06-.2.06-.24.06L476,168l-.21.09-.24.06-.24.06-.21.06-.24.09-.24.06-.24.09-.24.06-.23.09-.27.09-.24.06-.24.09-.27.09-.24.09-.24.09-.27.09-.27.09-.24.09-.26.09-.27.09-.24.12-.27.09-.27.12-.27.09-.3.12-.27.08-.26.12-.27.09-.27.12-.06,0h0l-.06,0-.06,0-.06,0-.06,0-.06,0-.09,0-.06.06-.09,0-.09,0-.09.06-.09,0-.06.06-.12.06-.09.06-.09,0-.12.06-.09.09-.09,0-.12.06-.12.09-.08.06-.12.06-.12.09-.12.06-.12.06-.12.09-.12.09-.12.06-.12.09-.12.06-.15.09-.12.09-.12.09-.12.08-.12.09-.15.09-.12.09-.12.09-.15.09-.11.09-.15.12-.12.09-.12.09-.15.09-.12.12-.15.09-.12.09-.15.12-.12.09-.15.12-.12.09-.12.09-.15.12-.12.12-.15.09-.12.12-.15.09L462,175l-.11.12-.15.09-.12.12-.12.12-.12.09-.15.12-.12.12-.12.09-.12.12-.12.12-.12.09-.12.12-.12.12-.12.12-.12.09-.12.12-.12.12-.09.09-.12.12-.11.12-.09.09-.12.11-.09.09-.12.12-.09.12-.09.09-.09.09-.09.12-.12.12-.09.09-.09.09-.06.12-.09.09-.09.09-.06.09-.09.09-.06.12L458,179l-.06.06-.06.09-.06.09-.06.09-.06.09-.06.09,0,.06-.06.06,0,.06-.06.08,0,.06,0,.06,0,.06,0,.06,0,0v0l0,0v0l0,0v.06h0l-.05.27-.06.33-.12.33-.12.3-.15.3-.15.3-.18.29-.18.27-.21.27-.21.27-.24.24-.24.21-.24.24-.26.18-.3.21-.27.15-.3.14-.33.15-.3.12-.33.09-.33.09-.32.06-.33.06h-.33l-.33,0-.36,0-.33,0-.33,0-.33-.09-.32-.06-.3-.12-.33-.12-.3-.15-.3-.14-.3-.18-.27-.18-.26-.21-.24-.21-.24-.24-.24-.24-.21-.24-.21-.27-.18-.3-.18-.26-.15-.3-.12-.33-.12-.3-.12-.33-.09-.33-.06-.33,0-.33,0-.32v-.69l0-.33.06-.33V178l0-.15,0-.15,0-.12,0-.15,0-.11,0-.12,0-.15,0-.12,0-.12.06-.12,0-.12,0-.12.06-.12,0-.12.06-.12,0-.12,0-.09.06-.15.06-.12,0-.09.06-.12,0-.09.06-.12.06-.12,0-.09.06-.11.06-.12,0-.09.06-.12.12-.18.12-.21L447,174l.12-.21.12-.18.12-.18.12-.21.12-.18.11-.21.15-.18.09-.14.15-.21.12-.18.15-.18.12-.18.15-.18.12-.15.15-.18.15-.18.12-.15.15-.18.15-.18.15-.18.15-.15.12-.14.14-.18.15-.18.15-.15.15-.15.18-.18.15-.15.15-.15.15-.18.3-.3.18-.18.15-.15.15-.15.18-.15.15-.14.15-.15.17-.15.18-.15.15-.15.15-.15.18-.15.15-.15.18-.12.18-.15.15-.15.18-.15.18-.15.15-.12.18-.15.15-.15.17-.12.18-.14.15-.12.18-.15.18-.15.33-.24.18-.15.15-.12.18-.12.18-.15.18-.12.15-.12.18-.12.17-.12.15-.12.18-.12.15-.12.18-.12.18-.12.15-.11.18-.12.15-.12.18-.12.18-.09.15-.12.18-.12.15-.09.18-.12.14-.09.15-.12.18-.09.15-.12.18-.09.15-.09.18-.09.15-.09.15-.12.18-.09.12-.09.15-.09.18-.09.15-.09.15-.05.17-.09.15-.09.15-.09.15-.06.15-.09.15-.06.15-.09.18-.06.15-.09.15-.06.15-.06.15-.09.18-.06.12-.06.33-.12.32-.15.3-.12.33-.12.3-.12.3-.12.33-.12.3-.12.29-.12.3-.09.3-.12.33-.11.27-.09.3-.12.3-.09.3-.12.29-.09.3-.09.3-.09.27-.12.3-.09.3-.09.27-.09.3-.09.26-.09.3-.06.27-.09.27-.09.3-.09.27-.06.27-.09.3-.06.27-.09.26-.06.27-.06.27-.09.27-.06.27-.06.27-.06.27-.05.27-.06.27-.06.26-.06.24-.06.27-.06.27,0,.24-.06.27-.06.27,0,.24-.06.24,0,.26,0,.27-.06.24,0,.24,0,.27-.06.24,0,.24,0,.24,0,.27,0,.24,0,.23,0h.24l.24,0,.24,0h.24l.24,0,.24,0h.45l.24,0h.47l.24,0h1.11Z"/><path class="cls-5" d="M176.14,140.88c-4.66,1.73-9.68-1.2-13.24-4-43.32-33.64,15.87-47.11,28.68-20.34"/><polygon class="cls-6" points="166.43 96.36 166.61 96.36 166.81 96.36 166.99 96.39 167.17 96.39 167.38 96.39 167.56 96.39 167.74 96.39 167.92 96.42 168.13 96.42 168.31 96.42 168.49 96.45 168.67 96.45 168.85 96.45 169.06 96.48 169.24 96.48 169.41 96.51 169.59 96.51 169.8 96.54 169.98 96.57 170.19 96.57 170.37 96.6 170.55 96.6 170.73 96.63 170.94 96.66 171.12 96.69 171.3 96.72 171.48 96.72 171.69 96.75 171.86 96.78 172.04 96.81 172.22 96.84 172.43 96.87 172.61 96.9 172.79 96.93 173 96.96 173.18 96.99 173.36 97.02 173.57 97.08 173.75 97.11 173.93 97.14 174.1 97.17 174.31 97.23 174.49 97.26 174.67 97.29 174.85 97.35 175.06 97.38 175.24 97.44 175.45 97.47 175.63 97.53 175.81 97.56 175.99 97.62 176.17 97.65 176.34 97.71 176.56 97.77 176.73 97.83 176.91 97.86 177.09 97.92 177.3 97.98 177.48 98.03 177.66 98.09 177.87 98.16 178.05 98.22 178.23 98.27 178.41 98.33 178.59 98.39 178.76 98.45 178.94 98.51 179.15 98.57 179.33 98.63 179.51 98.69 179.69 98.78 179.87 98.84 180.05 98.9 180.23 98.99 180.41 99.05 180.62 99.11 180.8 99.2 180.98 99.26 181.16 99.35 181.34 99.41 181.51 99.5 181.69 99.59 181.87 99.65 182.05 99.74 182.23 99.83 182.41 99.92 182.59 99.98 182.77 100.07 182.95 100.16 183.13 100.25 183.28 100.34 183.46 100.43 183.63 100.52 183.81 100.61 183.99 100.69 184.17 100.78 184.35 100.9 184.5 100.99 184.68 101.08 184.86 101.17 185.04 101.29 185.19 101.38 185.4 101.47 185.55 101.59 185.73 101.68 185.88 101.8 186.06 101.89 186.23 102.01 186.41 102.13 186.56 102.22 186.74 102.34 186.89 102.46 187.07 102.55 187.25 102.67 187.4 102.78 187.55 102.91 187.73 103.03 187.88 103.14 188.06 103.26 188.21 103.38 188.38 103.5 188.53 103.62 188.68 103.74 188.86 103.86 189.01 104.01 189.16 104.13 189.34 104.25 189.49 104.4 189.64 104.52 189.79 104.64 189.94 104.79 190.12 104.94 190.27 105.06 190.42 105.21 190.57 105.33 190.72 105.47 190.87 105.62 191.01 105.74 191.16 105.89 191.31 106.04 191.46 106.19 191.58 106.34 191.73 106.49 191.88 106.64 192.03 106.79 192.18 106.94 192.3 107.09 192.45 107.24 192.6 107.39 192.72 107.56 192.87 107.72 192.99 107.86 193.13 108.01 193.28 108.19 193.4 108.34 193.52 108.52 193.67 108.67 193.79 108.85 193.91 109 194.06 109.18 194.18 109.36 194.3 109.54 194.42 109.69 194.54 109.87 194.69 110.05 194.81 110.22 194.93 110.4 195.05 110.58 195.17 110.76 195.26 110.94 195.38 111.12 195.5 111.3 195.62 111.48 195.73 111.66 195.82 111.84 195.94 112.05 196.06 112.23 196.15 112.41 196.27 112.61 196.36 112.79 196.45 112.97 196.57 113.18 196.66 113.39 196.78 113.57 196.87 113.78 196.93 113.93 197.08 114.23 197.2 114.53 197.29 114.83 197.38 115.15 197.44 115.48 197.5 115.78 197.53 116.11 197.53 116.44 197.53 116.77 197.53 117.07 197.47 117.39 197.44 117.72 197.35 118.02 197.26 118.35 197.17 118.65 197.05 118.95 196.9 119.25 196.75 119.52 196.57 119.81 196.39 120.08 196.18 120.32 195.97 120.56 195.76 120.8 195.53 121.04 195.29 121.25 195.02 121.43 194.75 121.61 194.48 121.76 194.18 121.91 193.88 122.06 193.58 122.17 193.28 122.26 192.96 122.35 192.66 122.41 192.33 122.47 192 122.5 191.67 122.53 191.34 122.5 191.04 122.5 190.72 122.47 190.39 122.41 190.09 122.32 189.76 122.23 189.46 122.14 189.16 122.03 188.86 121.88 188.59 121.73 188.29 121.55 188.06 121.37 187.79 121.16 187.55 120.95 187.31 120.74 187.1 120.5 186.89 120.26 186.68 119.99 186.5 119.72 186.35 119.46 186.2 119.16 186.12 119.01 186.06 118.89 186 118.77 185.94 118.68 185.91 118.56 185.85 118.44 185.79 118.35 185.73 118.23 185.64 118.11 185.61 118.02 185.52 117.9 185.46 117.78 185.4 117.69 185.34 117.57 185.28 117.48 185.22 117.36 185.13 117.28 185.07 117.19 185.01 117.07 184.95 116.98 184.86 116.86 184.8 116.77 184.71 116.68 184.65 116.56 184.59 116.47 184.5 116.38 184.44 116.29 184.35 116.17 184.29 116.08 184.2 115.99 184.14 115.9 184.05 115.78 183.96 115.69 183.9 115.63 183.81 115.51 183.72 115.42 183.66 115.33 183.57 115.24 183.49 115.15 183.43 115.06 183.34 114.97 183.25 114.89 183.16 114.8 183.07 114.71 182.98 114.62 182.92 114.56 182.83 114.47 182.74 114.38 182.65 114.29 182.56 114.2 182.47 114.11 182.38 114.02 182.29 113.96 182.2 113.87 182.11 113.81 181.99 113.72 181.9 113.63 181.81 113.54 181.72 113.48 181.63 113.39 181.51 113.3 181.42 113.24 181.34 113.15 181.25 113.09 181.16 113 181.04 112.94 180.95 112.85 180.83 112.79 180.74 112.7 180.65 112.64 180.53 112.56 180.44 112.5 180.32 112.44 180.23 112.35 180.11 112.29 180.02 112.23 179.9 112.14 179.81 112.08 179.69 112.02 179.6 111.96 179.48 111.9 179.36 111.81 179.27 111.75 179.15 111.69 179.06 111.63 178.91 111.54 178.82 111.48 178.71 111.45 178.62 111.36 178.5 111.3 178.38 111.24 178.26 111.18 178.14 111.12 178.05 111.06 177.93 111 177.81 110.94 177.69 110.91 177.57 110.85 177.45 110.79 177.33 110.73 177.21 110.67 177.09 110.61 176.97 110.58 176.85 110.52 176.73 110.46 176.64 110.4 176.5 110.37 176.38 110.31 176.26 110.25 176.14 110.22 176.02 110.17 175.9 110.11 175.78 110.08 175.66 110.02 175.54 109.99 175.42 109.93 175.27 109.9 175.18 109.84 175.03 109.81 174.91 109.75 174.79 109.72 174.67 109.66 174.52 109.63 174.4 109.6 174.28 109.54 174.16 109.51 174.04 109.48 173.9 109.45 173.78 109.39 173.66 109.36 173.51 109.33 173.39 109.3 173.27 109.27 173.15 109.21 173 109.18 172.88 109.15 172.76 109.12 172.61 109.09 172.49 109.06 172.37 109.03 172.25 109 172.1 108.97 171.98 108.94 171.83 108.91 171.72 108.88 171.59 108.85 171.45 108.82 171.33 108.82 171.21 108.79 171.06 108.76 170.94 108.73 170.79 108.7 170.67 108.7 170.55 108.67 170.4 108.64 170.28 108.64 170.13 108.61 170.01 108.58 169.89 108.58 169.74 108.55 169.62 108.55 169.47 108.52 169.35 108.52 169.24 108.49 169.09 108.49 168.97 108.46 168.82 108.46 168.7 108.43 168.58 108.43 168.46 108.4 168.31 108.4 168.19 108.4 168.04 108.37 167.92 108.37 167.77 108.37 167.65 108.37 167.5 108.34 167.38 108.34 167.26 108.34 167.14 108.34 166.99 108.34 166.88 108.34 166.75 108.34 166.61 108.31 166.49 108.31 166.37 108.31 166.22 108.31 166.1 108.31 165.98 108.31 165.83 108.31 165.71 108.31 165.59 108.34 165.47 108.34 165.32 108.34 165.2 108.34 165.08 108.34 164.96 108.34 164.84 108.34 164.69 108.37 164.57 108.37 164.46 108.37 164.34 108.4 164.22 108.4 164.1 108.4 163.95 108.4 163.83 108.43 163.71 108.43 163.59 108.46 163.47 108.46 163.35 108.49 163.23 108.49 163.11 108.49 162.99 108.52 162.87 108.52 162.72 108.55 162.6 108.58 162.51 108.58 162.39 108.61 162.27 108.61 162.15 108.64 162.03 108.67 161.91 108.67 161.8 108.7 161.68 108.73 161.59 108.73 161.47 108.76 161.35 108.79 161.23 108.82 161.14 108.82 161.02 108.85 160.9 108.88 160.78 108.91 160.69 108.94 160.57 108.97 160.45 109 160.36 109 160.24 109.03 160.15 109.06 160.03 109.09 159.91 109.12 159.82 109.15 159.74 109.18 159.62 109.21 159.53 109.24 159.41 109.27 159.32 109.3 159.23 109.33 159.11 109.39 159.02 109.42 158.93 109.45 158.81 109.48 158.72 109.51 158.63 109.54 158.54 109.57 158.42 109.63 158.36 109.66 158.24 109.69 158.15 109.72 158.06 109.75 157.97 109.81 157.88 109.84 157.79 109.87 157.7 109.9 157.61 109.96 157.52 109.99 157.43 110.02 157.34 110.08 157.28 110.11 157.19 110.14 157.11 110.19 157.02 110.22 156.96 110.25 156.87 110.31 156.81 110.34 156.72 110.4 156.63 110.43 156.57 110.46 156.48 110.52 156.42 110.55 156.36 110.61 156.27 110.64 156.21 110.7 156.15 110.73 156.06 110.76 156 110.82 155.94 110.85 155.88 110.91 155.79 110.94 155.73 111 155.67 111.03 155.61 111.09 155.55 111.12 155.49 111.18 155.43 111.21 155.37 111.24 155.31 111.3 155.25 111.36 155.19 111.39 155.13 111.45 155.1 111.48 155.04 111.54 154.98 111.57 154.95 111.6 154.9 111.66 154.84 111.72 154.81 111.75 154.75 111.81 154.69 111.84 154.66 111.87 154.6 111.93 154.57 111.99 154.54 112.02 154.51 112.05 154.45 112.11 154.39 112.17 154.36 112.2 154.33 112.23 154.3 112.29 154.24 112.35 154.21 112.35 154.18 112.41 154.15 112.47 154.12 112.5 154.09 112.53 154.06 112.58 154.03 112.61 154 112.67 153.97 112.7 153.94 112.76 153.91 112.79 153.88 112.82 153.85 112.88 153.82 112.91 153.82 112.94 153.79 113 153.76 113.06 153.73 113.09 153.7 113.12 153.67 113.18 153.67 113.21 153.64 113.27 153.61 113.3 153.61 113.36 153.58 113.39 153.58 113.42 153.55 113.45 153.55 113.51 153.52 113.57 153.49 113.6 153.49 113.66 153.46 113.69 153.46 113.72 153.43 113.78 153.43 113.84 153.43 113.87 153.4 113.9 153.4 113.96 153.37 114.02 153.37 114.05 153.37 114.08 153.34 114.14 153.34 114.2 153.34 114.23 153.31 114.29 153.31 114.35 153.31 114.38 153.31 114.44 153.28 114.5 153.28 114.56 153.28 114.59 153.28 114.65 153.28 114.71 153.28 114.77 153.25 114.8 153.25 114.86 153.25 114.92 153.25 114.97 153.25 115.03 153.25 115.09 153.25 115.15 153.25 115.21 153.25 115.27 153.25 115.33 153.28 115.39 153.28 115.48 153.28 115.54 153.28 115.6 153.28 115.66 153.28 115.72 153.31 115.81 153.31 115.87 153.31 115.96 153.34 116.02 153.34 116.11 153.37 116.17 153.37 116.26 153.4 116.32 153.4 116.41 153.43 116.5 153.43 116.56 153.46 116.65 153.49 116.74 153.52 116.83 153.52 116.92 153.55 117.01 153.58 117.1 153.61 117.19 153.64 117.28 153.67 117.33 153.7 117.45 153.73 117.54 153.76 117.63 153.79 117.72 153.82 117.84 153.88 117.93 153.91 118.02 153.97 118.14 154 118.23 154.03 118.35 154.09 118.44 154.12 118.53 154.18 118.65 154.24 118.77 154.27 118.89 154.33 118.98 154.39 119.1 154.45 119.22 154.51 119.34 154.57 119.43 154.63 119.55 154.69 119.67 154.75 119.78 154.84 119.9 154.9 120.02 154.95 120.14 155.04 120.26 155.1 120.38 155.19 120.53 155.25 120.65 155.34 120.77 155.43 120.89 155.52 121.04 155.58 121.16 155.67 121.28 155.76 121.43 155.85 121.55 155.94 121.7 156.06 121.82 156.15 121.97 156.24 122.08 156.33 122.23 156.45 122.38 156.54 122.5 156.66 122.65 156.78 122.8 156.87 122.95 156.99 123.07 157.11 123.22 157.22 123.37 157.34 123.52 157.46 123.67 157.58 123.82 157.7 123.97 157.85 124.12 157.97 124.27 158.09 124.42 158.24 124.56 158.36 124.71 158.51 124.86 158.63 125.01 158.78 125.19 158.93 125.34 159.08 125.49 159.23 125.64 159.38 125.82 159.53 125.97 159.68 126.12 159.85 126.3 160 126.45 160.15 126.63 160.33 126.78 160.48 126.95 160.66 127.1 160.84 127.28 161.02 127.43 161.17 127.61 161.35 127.76 161.53 127.94 161.71 128.12 161.91 128.27 162.09 128.45 162.27 128.63 162.48 128.81 162.66 128.96 162.87 129.14 163.08 129.31 163.26 129.49 163.47 129.67 163.68 129.85 163.89 130.03 164.1 130.21 164.31 130.39 164.51 130.54 164.72 130.72 164.96 130.9 165.17 131.08 165.41 131.29 165.62 131.47 165.86 131.65 166.1 131.82 166.34 132 166.55 132.18 166.69 132.3 166.84 132.42 166.99 132.51 167.14 132.63 167.29 132.72 167.44 132.84 167.59 132.96 167.74 133.05 167.89 133.17 168.01 133.26 168.16 133.35 168.31 133.47 168.46 133.56 168.64 133.65 168.79 133.74 168.94 133.83 169.09 133.95 169.15 133.98 169.21 134.01 169.29 134.06 169.38 134.09 169.44 134.16 169.5 134.19 169.59 134.22 169.68 134.27 169.74 134.3 169.8 134.33 169.89 134.39 169.98 134.42 170.04 134.45 170.1 134.48 170.19 134.54 170.25 134.57 170.31 134.6 170.4 134.63 170.46 134.66 170.52 134.69 170.61 134.75 170.67 134.75 170.73 134.78 170.82 134.81 170.88 134.84 170.94 134.87 171.03 134.9 171.09 134.93 171.15 134.96 171.21 134.99 171.3 135.02 171.36 135.05 171.42 135.05 171.48 135.08 171.53 135.11 171.59 135.11 171.66 135.14 171.72 135.17 171.77 135.17 171.86 135.2 171.89 135.23 171.95 135.23 172.01 135.26 172.07 135.26 172.13 135.29 172.19 135.29 172.25 135.29 172.31 135.32 172.34 135.32 172.4 135.32 172.46 135.35 172.52 135.35 172.55 135.35 172.61 135.38 172.67 135.38 172.7 135.38 172.76 135.38 172.79 135.41 172.85 135.41 172.88 135.41 172.94 135.41 172.97 135.41 173.03 135.41 173.06 135.41 173.09 135.41 173.15 135.41 173.18 135.41 173.21 135.41 173.3 135.41 173.39 135.41 173.45 135.41 173.48 135.41 173.57 135.38 173.63 135.38 173.69 135.38 173.75 135.35 173.81 135.35 173.87 135.32 173.93 135.32 173.99 135.29 174.01 135.29 174.07 135.26 174.37 135.17 174.7 135.08 175 134.99 175.33 134.93 175.66 134.9 175.99 134.9 176.28 134.9 176.61 134.9 176.94 134.93 177.27 134.99 177.57 135.05 177.9 135.14 178.2 135.26 178.5 135.38 178.79 135.5 179.06 135.65 179.36 135.83 179.63 136.01 179.87 136.22 180.14 136.43 180.35 136.63 180.59 136.87 180.8 137.11 181.01 137.38 181.19 137.65 181.34 137.92 181.48 138.22 181.63 138.49 181.75 138.79 181.84 139.11 181.93 139.41 182.02 139.74 182.05 140.04 182.11 140.37 182.11 140.7 182.11 141.03 182.11 141.35 182.05 141.65 182.02 141.98 181.93 142.31 181.84 142.61 181.75 142.91 181.63 143.21 181.51 143.51 181.34 143.81 181.19 144.07 181.01 144.34 180.8 144.61 180.59 144.85 180.38 145.09 180.14 145.3 179.9 145.51 179.63 145.72 179.36 145.9 179.09 146.07 178.79 146.22 178.5 146.34 178.2 146.46 178.05 146.52 177.87 146.61 177.66 146.67 177.48 146.73 177.3 146.79 177.09 146.82 176.91 146.88 176.73 146.94 176.53 146.97 176.34 147.03 176.14 147.06 175.96 147.09 175.75 147.15 175.57 147.18 175.39 147.21 175.18 147.24 175 147.24 174.82 147.27 174.64 147.3 174.43 147.3 174.25 147.33 174.04 147.33 173.9 147.36 173.72 147.36 173.51 147.36 173.33 147.36 173.15 147.36 172.97 147.36 172.79 147.36 172.61 147.36 172.43 147.36 172.22 147.33 172.07 147.33 171.89 147.3 171.72 147.3 171.53 147.27 171.36 147.27 171.18 147.24 171 147.21 170.82 147.18 170.67 147.15 170.49 147.12 170.34 147.09 170.16 147.06 169.98 147.03 169.83 147 169.65 146.97 169.5 146.94 169.32 146.88 169.18 146.85 169 146.82 168.85 146.76 168.7 146.73 168.52 146.67 168.37 146.64 168.22 146.58 168.07 146.55 167.92 146.49 167.74 146.43 167.59 146.37 167.44 146.34 167.29 146.28 167.14 146.22 166.99 146.16 166.84 146.1 166.69 146.04 166.55 145.99 166.43 145.93 166.28 145.9 166.13 145.81 165.98 145.75 165.83 145.69 165.68 145.63 165.56 145.57 165.41 145.51 165.29 145.45 165.14 145.39 165.02 145.3 164.87 145.24 164.75 145.18 164.6 145.12 164.46 145.03 164.37 144.97 164.22 144.91 164.07 144.82 163.95 144.76 163.83 144.7 163.71 144.61 163.56 144.55 163.44 144.46 163.32 144.4 163.2 144.34 163.08 144.25 162.93 144.19 162.69 144.04 162.45 143.89 162.21 143.75 162 143.6 161.77 143.45 161.53 143.3 161.32 143.15 161.08 143 160.87 142.85 160.66 142.7 160.45 142.52 160.24 142.37 160.03 142.22 159.82 142.07 159.62 141.92 159.44 141.77 159.23 141.62 158.96 141.41 158.69 141.21 158.42 141 158.18 140.79 157.91 140.58 157.64 140.37 157.4 140.16 157.13 139.95 156.9 139.77 156.66 139.53 156.39 139.35 156.15 139.14 155.91 138.94 155.67 138.73 155.43 138.52 155.19 138.31 154.95 138.1 154.75 137.92 154.51 137.71 154.27 137.5 154.06 137.29 153.82 137.08 153.61 136.9 153.4 136.69 153.16 136.49 152.95 136.28 152.74 136.07 152.53 135.89 152.33 135.68 152.12 135.47 151.91 135.26 151.73 135.08 151.52 134.87 151.31 134.66 151.13 134.48 150.92 134.27 150.74 134.06 150.53 133.86 150.35 133.68 150.17 133.47 150 133.26 149.82 133.08 149.61 132.87 149.46 132.66 149.28 132.48 149.1 132.27 148.92 132.06 148.74 131.88 148.59 131.68 148.41 131.5 148.26 131.29 148.08 131.08 147.93 130.9 147.78 130.69 147.6 130.51 147.46 130.3 147.31 130.09 147.16 129.91 147.01 129.7 146.86 129.52 146.71 129.31 146.56 129.11 146.44 128.93 146.29 128.72 146.14 128.54 146.02 128.33 145.87 128.15 145.75 127.94 145.6 127.76 145.48 127.55 145.36 127.34 145.25 127.16 145.13 126.95 145.01 126.78 144.89 126.57 144.77 126.39 144.65 126.18 144.53 126 144.41 125.79 144.32 125.58 144.2 125.4 144.08 125.19 143.99 125.01 143.9 124.8 143.78 124.63 143.69 124.42 143.6 124.24 143.51 124.03 143.39 123.82 143.3 123.64 143.24 123.43 143.12 123.22 143.06 123.04 142.97 122.86 142.88 122.65 142.82 122.44 142.74 122.26 142.65 122.06 142.59 121.88 142.5 121.67 142.44 121.46 142.38 121.28 142.32 121.07 142.26 120.86 142.2 120.68 142.14 120.47 142.08 120.29 142.02 120.08 141.96 119.9 141.9 119.69 141.87 119.49 141.81 119.31 141.78 119.1 141.72 118.89 141.69 118.71 141.63 118.5 141.6 118.29 141.57 118.11 141.54 117.93 141.51 117.72 141.48 117.51 141.45 117.33 141.42 117.13 141.39 116.92 141.39 116.74 141.36 116.53 141.36 116.32 141.33 116.14 141.33 115.93 141.33 115.75 141.3 115.54 141.3 115.36 141.3 115.15 141.3 114.94 141.3 114.77 141.3 114.56 141.33 114.38 141.33 114.17 141.33 113.99 141.36 113.78 141.36 113.6 141.39 113.39 141.42 113.21 141.42 113.03 141.45 112.82 141.48 112.64 141.51 112.44 141.54 112.26 141.57 112.08 141.6 111.87 141.66 111.69 141.69 111.51 141.75 111.3 141.78 111.12 141.84 110.94 141.87 110.76 141.93 110.58 141.99 110.37 142.05 110.22 142.08 110.05 142.14 109.87 142.23 109.69 142.29 109.48 142.35 109.33 142.41 109.15 142.47 109 142.56 108.82 142.62 108.61 142.71 108.46 142.79 108.28 142.85 108.13 142.94 107.95 143.03 107.78 143.09 107.63 143.18 107.48 143.27 107.3 143.36 107.12 143.45 107 143.54 106.82 143.66 106.64 143.75 106.52 143.84 106.34 143.93 106.19 144.05 106.04 144.14 105.89 144.26 105.74 144.35 105.59 144.47 105.44 144.59 105.3 144.68 105.15 144.8 105.03 144.89 104.88 145.04 104.73 145.13 104.61 145.25 104.46 145.36 104.31 145.48 104.19 145.6 104.07 145.72 103.95 145.84 103.8 145.99 103.65 146.11 103.53 146.23 103.41 146.35 103.29 146.47 103.17 146.59 103.06 146.74 102.94 146.86 102.81 147.01 102.7 147.13 102.58 147.28 102.46 147.4 102.34 147.54 102.22 147.66 102.1 147.81 102.01 147.93 101.89 148.08 101.8 148.2 101.68 148.38 101.56 148.5 101.47 148.65 101.35 148.8 101.26 148.95 101.17 149.1 101.05 149.22 100.96 149.37 100.87 149.52 100.78 149.67 100.69 149.82 100.61 149.97 100.48 150.11 100.4 150.26 100.31 150.41 100.25 150.56 100.13 150.71 100.07 150.86 99.98 151.01 99.89 151.16 99.8 151.34 99.71 151.49 99.65 151.64 99.56 151.82 99.47 151.94 99.41 152.12 99.32 152.27 99.26 152.41 99.17 152.59 99.11 152.74 99.05 152.89 98.96 153.07 98.9 153.22 98.81 153.4 98.75 153.55 98.69 153.73 98.63 153.88 98.57 154.03 98.51 154.21 98.42 154.39 98.36 154.54 98.3 154.72 98.24 154.87 98.19 155.04 98.13 155.19 98.06 155.37 98.03 155.52 97.98 155.7 97.92 155.88 97.86 156.06 97.8 156.21 97.77 156.39 97.71 156.54 97.65 156.75 97.62 156.9 97.56 157.08 97.53 157.25 97.47 157.43 97.44 157.58 97.38 157.76 97.35 157.94 97.29 158.12 97.26 158.3 97.23 158.45 97.17 158.63 97.14 158.81 97.11 158.99 97.08 159.17 97.05 159.35 96.99 159.53 96.96 159.71 96.93 159.85 96.9 160.03 96.87 160.24 96.84 160.42 96.81 160.75 96.75 160.96 96.72 161.14 96.72 161.47 96.66 161.83 96.63 162.03 96.6 162.39 96.57 162.57 96.54 162.75 96.51 162.93 96.51 163.11 96.48 163.29 96.48 163.5 96.48 163.65 96.45 163.86 96.45 164.22 96.42 164.57 96.39 164.78 96.39 165.14 96.39 165.32 96.39 165.68 96.36 166.07 96.36 166.25 96.36 166.43 96.36"/><path class="cls-5" d="M179,494.93s-22.52-44.27-18.28-82.25C174,293.84,139,270.51,152.71,198c4.75-25.16,13.72-53.84,29-74.69,33.61-45.8,98.2-69.58,154.37-58.82,22.5,4.3,42.81,14,62.92,24.7,69.94,37.17,84.46,115.59,75.37,181.68-4,29.24-29.18,74.83-25.48,104.17,7.65,61.16,5.5,94.26-13.59,133.72-16.26,33.61-79.59,59-148.84,51.75C274.67,559.28,204.07,546.92,179,494.93Z"/><g class="cls-7"><g class="cls-8"><path class="cls-9" d="M428.94,118s23.81,30.62,17.36,78.19c-9.68,71.46-39.7,56.13-37.67,184.75,1,64.08,4.87,102.77-23.37,141.34-27.42,37.49-105.84,37.43-125.65,31.79s78.15,20.37,134.2-2.28,64-117.79,56.64-177.25,40.22-76.45,24.35-178.95C449.32,135.56,448.75,138.93,428.94,118Z"/></g><g class="cls-8"><path class="cls-9" d="M335.4,205.89s7,34.8,48.43,32.77,44.37-44.37,44.37-44.37Z"/></g><g class="cls-8"><path class="cls-9" d="M158.06,188.2S165,223,206.49,221s44.36-44.36,44.36-44.36Z"/></g></g><path class="cls-6" d="M308.31,67.89H307l-.33,0h-1.31L305,68h-1l-.33,0h-.32l-.33,0h-.66l-.33,0h-.33l-.33,0h-.32l-.33,0-.33,0h-.33l-.33,0h-.33l-.3,0-.33,0-.32,0h-.33l-.33,0-.33,0-.33,0h-.33l-.33,0-.32,0-.33,0-.33,0-.33,0-.33,0-.33,0-.33,0-.32,0-.33,0-.3,0-.33,0-.33.06-.33,0-.33,0-.33,0-.32,0-.33.06-.33,0-.33,0L290,69l-.33.06-.33,0-.32.06-.33,0-.3,0-.33.06-.33,0-.33,0-.33,0-.32.06-.33.06-.33,0-.33.06-.33,0-.33.06-.3.06-.33.06-.32,0-.33.06-.33.06-.33.06-.33,0-.33.06-.33.06-.29.06-.33.06-.33.06-.33.06-.33.06-.33.06-.33.06-.29.06-.36.06-.3.06-.33.06-.33.06L278,71l-.33.06-.3.06-.32.06-.33.06-.33.09-.33.06-.33.06-.3.09-.33.06-.32.06-.33.08-.33.06-.3.09-.33.06-.33.09-.33.06-.3.09-.32.06-.33.09-.33.09-.3.06-.33.09-.33.09-.33.06-.29.09-.33.09-.33.06-.3.09-.33.09-.33.09-.33.09-.3.09-.32.09-.33.06-.3.09-.33.09-.33.09-.3.09-.33.09-.32.09-.3.08-.33.12-.33.09-.3.09-.33.09-.3.09-.33.09-.32.12-.3.09-.33.09-.3.09-.33.12-.33.09-.3.09-.32.12-.3.09-.33.09-.3.12-.33.09-.3.12-.33.09-.3.12-.32.09-.3.12-.33.11-.3.09-.33.12-.3.09L256,77l-.3.12-.32.09-.3.12-.33.12-.3.12-.3.09-.33.12-.3.12-.3.12-.32.12-.3.12-.33.12-.3.12-.3.12-.3.12-.33.12-.29.11-.3.12-.33.12-.3.12-.3.12-.3.12-.33.12-.3.12-.29.15-.3.12-.3.12-.33.12-.3.15-.3.12-.3.12-.33.12-.29.15-.3.12-.3.15-.3.11-.3.12-.3.15-.33.12-.3.15-.29.12-.3.15-.3.12-.3.15-.3.15-.3.12-.3.15-.3.15-.29.12-.3.15-.3.15-.3.12-.3.14-.3.15-.3.15-.27.12-.32.15-.27.15-.3.15-.3.15-.3.15-.3.15-.3.15-.3.15-.26.15-.3.15-.3.15-.3.15-.27.15-.3.14-.3.15-.3.15-.26.15-.3.18-.3.15-.3.15-.27.15-.3.15-.3.18-.27.15-.3.15-.26.18-.3.15-.3.15-.27.17-.3.15-.27.18-.3.15-.27.15-.29.18-.27.15-.3.18-.27.18-.3.15-.27.18-.3.15-.27.18-.26.15-.3.18-.27.17-.27.15-.3.18-.27.18-.3.18-.27.18-.27.15-.26.18-.3.18-.27.18-.27.18-.27.15-.3.18-.27.18-.27.17-.27.18-.26.18-.27.18-.27.18-.3.18-.27.18-.27.18-.27.18-.27.21-.27.18-.26.18-.27.18-.27.17-.27.18-.27.21-.27.18-.27.18-.27.18-.26.21-.24.18-.27.18-.27.21-.27.18-.27.18-.27.21-.24.17-.27.21-.27.18-.23.21-.27.18-.27.21-.27.18-.24.21-.27.18-.27.21-.24.18-.27.21-.23.2-.27.18-.27.21-.24.21-.27.18-.24.21-.27.21-.24.21-.24.18-.26.21-.24.21-.27.21-.24.2-.24.18-.27.21-.24.21-.24.21-.27.21-.24.21-.23.21-.27.21-.24.21-.24.21-.24.2-.24.21-.24.21-.27.21-.24.21-.24.24-.23.21-.24.21-.24.21-.24.21-.24.21-.24.24-.24.2-.24.21-.24.24-.24.21-.2.21-.24.21-.24.24-.24.21-.24.24-.24.21-.21.21-.24.23-.24.21-.24.24-.2.21-.24.24-.24.21-.21.24-.24.21-.24.24-.21.24-.24.2-.21.24-.24.21-.21.24-.23.24-.21.21-.24.24-.21.24-.21.24-.24.21-.21.24-.21.23-.24.24-.21.24-.21.21-.23.24-.21.24-.21.24-.21.24-.21.24-.24.24-.21.23-.21.24-.21.24-.21.24-.21.24-.2.24-.21.24-.21.24-.21.24-.21.24-.21.23-.21.24-.21.24-.18.27-.21.24-.21.24-.21.24-.2.24-.18.27-.21.24-.21.23-.18.24-.21.27-.21.24-.18.24-.21.27-.21.24-.18.24-.21.27-.17.23-.21.27-.18.24-.18.27-.21.24-.18.27-.21.24-.18.27-.18.24-.21.27-.15.2-.18.24-.18.24-.14.24-.18.21-.15.24-.18.24-.15.24L185,129l-.15.24-.18.23-.15.24-.18.24-.15.24-.18.24-.15.24-.15.24-.17.24-.15.24-.15.24-.18.26-.15.24-.15.24-.18.27-.15.24-.15.24-.15.24-.15.27-.18.24-.15.24-.15.26-.15.24-.15.27-.14.24-.15.27-.15.24-.18.27-.15.24-.15.27-.15.26-.15.24-.12.27-.18.27-.15.24-.12.27-.15.27-.15.24-.15.27-.15.26-.14.27-.15.24-.12.27-.15.27-.15.27-.15.27-.15.27-.12.27-.15.26-.15.27-.12.27-.15.27-.15.27-.12.27-.15.27-.15.27-.12.27-.14.26-.12.27-.15.27-.12.27-.15.27-.12.3-.15.27-.12.27-.15.27-.12.29-.15.27-.12.27-.12.27-.15.3-.12.27-.12.27-.15.27-.12.3-.11.26-.15.3-.12.27-.12.27-.12.3-.15.27-.12.3-.12.27-.12.29-.12.27-.12.3-.12.27-.15.3-.12.27-.12.3-.12.27-.12.3-.12.26-.12.3-.11.3-.12.27-.12.3-.12.27-.12.3-.12.3-.09.26-.12.3-.12.3-.12.27-.12.3-.12.3-.12.3-.09.27-.12.29-.12.3-.12.3-.21.57-.21.6-.23.57-.21.59-.21.6-.21.57-.21.6-.21.59-.21.6-.21.6-.21.57-.21.59-.21.6-.17.6-.21.6-.18.59-.21.6-.18.6-.21.6-.18.59-.18.6-.18.6-.21.6-.18.59-.18.6-.18.6-.14.6-.18.59-.18.6-.18.6-.18.63-.15.59-.18.6-.15.6-.18.6-.15.59-.15.6-.18.6-.15.6-.15.59-.15.6-.14.6-.15.6-.15.59-.15.6-.15.6-.15.6-.12.59-.15.6-.15.6-.12.6-.15.59-.12.6-.12.57-.15.6-.12.59-.12.6-.15.57-.11.6-.12.59-.12.57-.12.6-.12.57-.12.59-.09.57-.12.6-.12.57-.12.59-.06.39-.09.42-.06.42-.09.39-.06.42-.09.41-.06.39-.06.42-.09.39-.06.42-.06.39-.06.41-.06.39-.09.39-.06.39-.06.42-.06.39-.06.38-.06.39-.06.39,0,.39-.05.39-.06.39-.06.38-.06.39,0,.39-.06.39-.06.39,0,.39-.06.38-.06.36,0,.39-.06.39,0,.36,0,.39-.06.36,0,.38-.06.39,0,.36,0,.39,0,.36-.06.36,0,.38,0,.36,0,.36,0,.39,0,.36,0,.36,0,.36,0,.38,0,.36,0,.36,0,.36,0,.36,0,.36,0,.35V221l0,.36,0,.36v.36l0,.36,0,.36v.35l0,.33,0,.36v.36l0,.36v.36l0,.33v.71l0,.33V227l0,.36v1l0,.33v5.08l0,.36v1.31l0,.33v.69l0,.33v.33l0,.32v.66l0,.33v.33l0,.33v.33l0,.33,0,.32v.33l0,.33v.33l0,.33,0,.33V242l0,.29,0,.33,0,.33v.33l0,.33,0,.33,0,.33,0,.32,0,.3v.33l0,.33,0,.33,0,.33,0,.3,0,.33,0,.32,0,.33,0,.33,0,.3.06.66.09.62.06.66.06.63.09.66.06.62.09.66.06.63.09.63.06.65.09.63.08.66.09.63.09.62.09.66.09.63.09.65.09.63.09.66.09.63.12.65.09.63.09.66.12.63.09.65.12.63.09.66.12.66.09.62.12.66.12.66.09.65.12.66.12.63.12.66.11.65.12.66.09.66.12.66.24,1.34.24,1.31.24,1.35.27,1.34.48,2.72.51,2.75.23,1.37.27,1.41.24,1.4.27,1.41.12.71.12.72.15.72.12.71.12.72.12.75.12.72.15.74.12.72.12.75.12.74.11.75.12.75.12.74.12.75.12.75.15.77.12.75.09.78.12.77.12.78.12.78.12.78.12.77.12.81.12.78.09.8.12.81.12.81.09.8.12.81.12.81.08.83.12.84.09.81.09.83.12.87.09.83.09.84.09.87.12.83.09.87.09.87.09.86.09.9,0,.42,0,.45.06.44,0,.45.06.45,0,.45,0,.42.06.44,0,.48,0,.45.06.45,0,.45,0,.44,0,.45.06.48,0,.45,0,.45,0,.48,0,.44,0,.48.06.45,0,.48,0,.48,0,.44,0,.48,0,.48,0,.48,0,.45,0,.47,0,.48,0,.48,0,.48,0,.51,0,.47v.48l0,.48,0,.48,0,.51,0,.47v.51l0,.48,0,.51,0,.48v.5l0,.48,0,.51v.51l0,.51v.5l0,.48,0,.51v.51l0,.53v1l0,.51v.51l0,.53v1l0,.54v1.58l0,.51v3.23l0,.53v1.62l0,.56v3.29l0,.57v1.13l0,.57V369l0,.56v1.17l0,.57v.56l0,.57,0,.6v.57l0,.59v.57l0,.6,0,.57,0,.59v.6l0,.6,0,.6,0,.6,0,.59,0,.6,0,.6v.59l0,.63,0,.6,0,.6,0,.62,0,.6,0,.63,0,.63,0,.59-.06.63,0,.63,0,.63-.06.62,0,.63,0,.63-.06.63,0,.62-.06.66,0,.63-.06.66,0,.62-.06.66-.06.63,0,.65-.06.66-.06.66-.06.63-.06.65,0,.66-.06.69-.06.66-.06.65-.06.66-.06.69-.06.65-.09.69-.06.66-.06.69-.06.68-.06.66-.09.69-.06.68-.06.69-.09.69-.06.72-.09.68-.06.69-.08.69-.06.71-.09.69,0,.21v.21l0,.21,0,.21,0,.21v.21l0,.21v.2l0,.21,0,.21v.21l0,.21v.21l0,.18v.21l0,.24v.21l0,.21v.21l0,.2v.42l0,.21v.21l0,.21v.63l0,.21V420l0,.21v1.5l0,.41V423l0,.42v1.28l0,.42V426l0,.42,0,.45v.41l0,.42,0,.45v.42l0,.45,0,.41,0,.42,0,.45,0,.42.06.45,0,.42,0,.44,0,.42.06.42,0,.45.06.42,0,.44.06.42.05.42,0,.45.06.42.06.45.06.41.06.42,0,.45.06.42.06.42.09.45.06.41.06.42.06.45.06.42.09.42.06.41.06.45.09.42.06.42.09.42.06.42.09.44.06.42.09.42.09.42.09.42.06.42.09.41.09.42.09.42.09.42.09.42.09.41.08.42.09.42.09.39.09.42.09.42.09.41.09.39.12.42.09.42.09.39.12.42.09.38.09.42.12.42.09.39.09.39.12.42.09.38.12.39.09.42.12.39.12.39.09.39.12.38.08.39.12.39.12.39.09.39.12.39.12.38.09.39.12.36.12.39.12.39.09.36.12.39.12.35.12.39.12.36.12.39.09.36.12.36.12.35.12.36.12.39.11.36.12.33.12.39.12.33.09.35.12.36.12.33.12.36.12.36.12.33.12.36.12.32.12.33.12.36.12.33.12.33.09.33.12.33.12.32.12.33.12.33.11.3.12.33.12.3.21.63.24.62.24.6.21.6.24.59.24.6.21.57.21.57.24.54.2.53.21.54.21.54.21.51.21.5.21.48.21.48.18.48.21.45.18.44.21.45.18.42.17.42.18.42.18.39.15.35.18.39.15.36.15.33.15.33.15.33.15.3.12.26.12.3.15.27.12.24.09.24.21.42.17.39.15.33.15.24.09.2.06.15.09.15.15.33.15.27.15.3.12.27.15.3.15.27.15.26.12.27.15.3.15.27.15.27.14.27.15.3.15.27.15.27.15.26.15.27.15.27.15.27.18.27.15.27.15.27.15.27.18.24.15.26.15.27.18.27.14.24.18.27.15.27.18.24.15.27.18.27.18.26.15.24.18.24.15.27.18.24.18.27.18.24.15.27.17.24.18.24.18.26.18.24.18.24.18.27.18.24.18.24.18.24.18.24.18.27.18.23.18.24.17.24.21.24.18.24.18.24.18.24.21.24.18.24.18.21.21.23.18.24.21.24.18.24.18.24.2.21.18.24.21.24.18.21.21.24.21.21.18.23.21.24.21.21.18.24.21.21.21.24.2.21.18.24.21.21.21.21.21.24.21.2.18.21.24.21.21.24.18.21.21.21.21.21.23.24.21.21.18.21.24.21.21.2.21.21.21.21.21.21.21.21.24.21.21.21.2.21.21.18.24.21.21.21.21.2.24.21.21.18.21.21.24.21.21.21.24.18.2.21.21.21.24.18.21.21.24.18.21.2.24.18.21.21.24.18.24.21.21.18.23.18.24.21.21.18.24.18.24.21.21.18.24.18.24.2.24.18.21.18.23.18.24.18.24.18.24.21.21.18.24.18.24.18.24.18.24.18.24.18.23.17.24.18.21.15.24.18.27.18.24.18.21.18.24.18.27.15.24.18.23.18.24.18.24.15.24.18.24.17.24.15.24.18.24.18.24.15.24.15.26.18.24.15.24.18.24.18.24.15.27.15.24.18.24.15.24.15.27.17.23.15.24.15.24.15.27.18.24.15.24.15.24.15.27.18.24.15.24.15.26.15.24.15.24.15.27.15.24.14.24.15.27.15.24.15.24.15.26.15.24.15.27.15.24.12.24.15.27.15.24.15.27.15.24.12.24.15.26.15.24.12.27.14.24.15.27.12.24.15.27.15.24.12.24.15.27.12.26.15.24.12.24.15.27.12.24.12.27.15.24.12.27.15.24.12.26.12.24.14.27.12.24.12.27.12.24.15.27.12.24.12.51.24.5.27.51.24.51.24.51.24.5.24.51.23.51.24.51.21.51.24.47.21.51.24.51.21.51.24.51.21.5.21.48.21.51.2.51.21.5.21.48.21.51.21.51.21.48.18.5.21.48.18.51.21.51.18.48.17.47.18.51.18.48.21.48.18.51.15.47.18.48.18.48.18.48.18.48.15.47.18.48.15.48.15.48.18.48.14.44.15.48.15.45.15.48.18.45.12.47.15.45.15.48.15.45.15.45.12.45.15.44.12.45.15.45.12.42.12.45.14.44.12.42.12.45.12.42.12.42.12.45.12.41.12.42.12.42.09.42.12.42.12.39.09.41.12.39.09.42.12.39.09.42.09.38.12.39.09.36.09.39.09.39.09.39.08.36.09.38.09.36.06.36.09.36.09.36.09.36.06.35.09.33.06.36.09.33.06.36.06.33.09.33.06.32.06.3.06.33.09.33.06.3.06.3.06.3,0,.3.06.29.06.3.06.27.06.3,0,.27.06.27.06.27,0,.27.06.27,0,.23.06.27,0,.24.06.48.06.48.06.45.09.41.05.39.06.39.06.36,0,.36.06.3,0,.3,0,.26,0,.27,0,.39.06.39,0,.39,0,.42,0,.39.06.38,0,.39,0,.39,0,.42.06.39,0,.39,0,.38,0,.39,0,.39,0,.42,0,.39,0,.39,0,.38,0,.39,0,.39,0,.42,0,.36,0h.42l.38,0,.39,0,.39,0,.39,0h.39l.39,0,.38,0h.39l.39,0,.39,0h.42l.39,0h.39l.38,0H302l.39,0h.39l.36,0h.8l.39,0h.78l.36,0h1.16l.39,0h6.16l.38,0h1.14l.39,0h1.13l.39,0,.75,0h.77l.36,0,.78,0h.36l.39,0,.36,0h.38l.39,0,.75,0,.36,0,.77,0,.75-.06h.36l.39,0,.36,0,.38,0,.36,0,.39,0,.36,0,.39,0,.72,0,.74-.06.39,0L329,555l.36,0,.74-.06.75-.06.72-.06.39-.06.36,0,.35,0,.36,0,.75-.09.36,0,.74-.09.36,0,.36-.06.72-.09.36,0,.39-.06.35,0,.36-.06.36,0,.36-.06.72-.09.36-.06.35,0,.72-.12.36,0,.36-.06.36-.06.35-.06.36,0,.36-.06.36-.06.36-.06.36-.06.33-.06.35,0,.36-.06.36-.06.36-.06.36-.06.33-.06.36-.06.35-.06.33-.06.36-.06.36-.06.36-.06.33-.09.36-.06.35-.06.33-.06.36-.06.33-.06.36-.09.69-.12.35-.06.33-.08.36-.06.33-.06.36-.09.33-.06.33-.09.35-.06.33-.06.36-.09.33-.06.33-.09.36-.06.33-.09.35-.06.33-.09.33-.06.33-.09.33-.09.36-.06.33-.09.32-.06.36-.09.33-.09L360,550l.33-.09.33-.09.33-.09.32-.06.33-.09.33-.09.33-.09.33-.08.33-.09.33-.06.33-.09L364,549l.33-.09.33-.09.33-.09.33-.09.33-.09.33-.09.29-.09.33-.09.33-.09.33-.09.3-.09.33-.09.33-.09.32-.12.3-.09.33-.09.3-.09.33-.09.33-.09.3-.12.33-.09.32-.08.3-.09.33-.12.3-.09.3-.09.33-.12.3-.09.33-.09.29-.12.33-.09.3-.12.3-.09.33-.12.3-.09.3-.09.29-.12.3-.09.33-.12.3-.12.3-.09.3-.12.3-.09.33-.12.29-.09.3-.11.3-.12.6-.21.3-.12.3-.09.3-.12.29-.12.27-.12.3-.09.3-.12.3-.12.3-.12.3-.09.27-.12.29-.12.3-.12.3-.12.27-.12.3-.12.3-.09.27-.11.3-.12.27-.12.29-.12.3-.12.27-.12.3-.12.27-.12.27-.12.3-.12.27-.12.26-.12.3-.15.27-.12.3-.12.27-.12.27-.12.27-.12.3-.12.27-.15.26-.11.27-.12.27-.12.27-.12.27-.15.27-.12.27-.12.27-.12.27-.15.26-.12.27-.12.27-.15.27-.12.27-.12.27-.15.24-.12.27-.15.27-.12.26-.11.27-.15.24-.12.27-.15.27-.12.24-.15.27-.12.24-.15.27-.12.23-.15.27-.12.24-.15.27-.12.24-.15.27-.12.24-.15.24-.15.27-.12.24-.14.23-.15.24-.12.27-.15.24-.15.24-.12L401,534l.24-.15.24-.12.24-.15.24-.15.23-.15.24-.12.24-.15.24-.15.24-.15.24-.12.24-.14.24-.15.21-.15.24-.15.23-.15.24-.15.21-.12.24-.15.21-.15.24-.15L406,531l.21-.15.24-.15.21-.15.23-.15.21-.15.21-.14.24-.15.21-.15.24-.15.21-.15.21-.15.21-.15.24-.15.21-.15.21-.15.2-.15.21-.15.21-.15.21-.15.21-.15.21-.15.21-.15.21-.17.21-.15.21-.15.21-.15.2-.15.18-.15.21-.15.21-.18.21-.15.18-.15L413,526l.18-.18.21-.15.18-.15.21-.15.18-.14.2-.18.18-.15.21-.15.18-.18.18-.15.21-.15.18-.15.18-.18.18-.15.21-.15.18-.18.18-.15.18-.15.17-.18.18-.14.18-.15.18-.18.18-.15.18-.15.18-.18.18-.15.18-.18.15-.15.18-.15.18-.18.18-.15.15-.18.17-.15.15-.18.36-.32.15-.15.15-.15.18-.18.15-.15.18-.18.15-.15.15-.18.18-.15.15-.18.15-.15.17-.18.15-.18.15-.14.15-.15.15-.18.15-.18.15-.15.15-.18.15-.15.15-.18.12-.15.3-.36.15-.15.15-.18.12-.15.15-.18.14-.17.12-.15.15-.18.15-.15.12-.18.15-.18.12-.15.12-.18.15-.15.12-.18.15-.18.12-.15.12-.18.12-.18.12-.14.15-.18.12-.15.12-.18.11-.18.12-.15.12-.18.12-.18.12-.15.12-.18.09-.18.12-.15.12-.18.12-.18.12-.17.09-.15.12-.18.12-.18.09-.15.12-.18.09-.18.12-.15.09-.18.12-.18.09-.18.09-.15.11-.18.09-.18.09-.14.09-.18.12-.18L429,508l.09-.15.09-.18.09-.18.09-.15.09-.18.09-.18.09-.15.09-.18.09-.18.09-.18.06-.15.24-.44.21-.45.21-.45.21-.45.2-.45.21-.44.21-.45.21-.45.21-.45.21-.45.18-.44.21-.45.21-.42.18-.45.21-.45.17-.45.21-.44.18-.42.21-.45.18-.45.18-.45.18-.41.18-.45.21-.45.18-.42.18-.45.18-.42.15-.44.18-.45.17-.42.18-.45.18-.42.15-.44.18-.42.15-.45.18-.42.15-.45.18-.45.15-.41.15-.45.18-.42.15-.45.15-.42.14-.44.15-.42.15-.42.15-.45.15-.42.15-.45.15-.41.15-.45.12-.42.15-.45.15-.42.12-.44.15-.42.15-.45.12-.42.12-.45.15-.42.11-.44.12-.42.15-.45.12-.42.12-.42.12-.44.12-.45.12-.42.12-.45.12-.42.12-.45.12-.41.12-.45.09-.42.12-.45.12-.45.09-.41.12-.45.09-.42.12-.45.09-.45.12-.45.08-.41.12-.45.09-.45.09-.42.09-.45.09-.44.09-.45.12-.42.09-.45.09-.45.06-.45L444,465l.09-.45.09-.45.09-.42.09-.45.06-.44.09-.45.06-.45.09-.45.09-.48.06-.45.06-.44.09-.45.06-.45.06-.45.09-.45.06-.47.05-.45.06-.45.06-.48.09-.45.06-.44.06-.48,0-.45.06-.48.06-.45.06-.47.06-.45.06-.48,0-.48.06-.45.06-.47,0-.48.06-.45,0-.48.06-.48,0-.48.06-.47,0-.48,0-.48.06-.48,0-.47,0-.48,0-.48,0-.48,0-.48,0-.51,0-.47,0-.48,0-.51,0-.48,0-.5,0-.48,0-.51v-.48l0-.51,0-.5v-.51l0-.48v-.51l0-.51v-.5l0-.51v-.51l0-.51v-1.55l0-.51v-5.77l0-.53v-1.08l0-.54v-1.07l0-.57v-.54l0-.53v-.57l0-.54,0-.57v-.54l0-.56,0-.57,0-.54v-.57l0-.56,0-.57,0-.57,0-.57,0-.56,0-.6,0-.57,0-.57,0-.59,0-.57,0-.6-.06-.57,0-.59,0-.6-.06-.57,0-.6,0-.59-.06-.6,0-.6-.06-.63,0-.6-.06-.59,0-.6-.06-.63-.06-.59,0-.63-.06-.63-.06-.6-.06-.62-.06-.63,0-.63-.06-.63-.06-.62-.06-.63-.06-.63-.06-.66-.05-.62-.06-.66-.09-.63-.06-.66-.06-.65-.06-.63-.06-.66-.09-.65-.06-.66-.06-.66-.09-.69-.06-.65-.09-.66-.06-.69-.09-.66-.06-.68-.09-.66-.06-.69-.09-.68-.09-.69-.06-.69-.09-.69-.09-.68-.09-.69-.06-.72-.09-.68-.09-.72-.09-.69-.09-.71-.09-.72,0-.18,0-.21v-.18l0-.21,0-.21v-.18l0-.21,0-.18V374l0-.21v-.18l0-.21v-.21l0-.18v-.21l0-.21v-.18l0-.21v-.39l0-.2V371l0-.21V370l0-.21V368.2l0-.42v-1l0-.21V366l0-.21v-.42l0-.42,0-.41,0-.39,0-.42,0-.42,0-.42,0-.42,0-.41.05-.42,0-.42.06-.42,0-.42.06-.42.06-.41,0-.42.06-.42.06-.42.06-.42.06-.45.06-.41.06-.42.06-.42.09-.42.06-.45.06-.41.09-.42L444,354l.09-.42.06-.42.09-.45.09-.41.09-.42.06-.45.09-.42.09-.45.09-.41.09-.45.09-.42.12-.45.09-.42.09-.45.08-.41.12-.45.09-.42.09-.45.12-.45.09-.41.12-.45.12-.45.09-.42.12-.45.12-.42.09-.44.12-.45.12-.45.12-.42.12-.45.12-.44.12-.45.12-.42.12-.45.12-.45.12-.45.11-.41.15-.45L448,337l.12-.45.12-.45.15-.41.12-.45.15-.45.12-.45.12-.45.15-.45.12-.41.15-.45.12-.45.15-.45.15-.45.12-.44.14-.42.15-.45.12-.45.15-.45.15-.44.15-.45.12-.45.15-.45.3-.87.3-.89.27-.9.3-.89.29-.87.3-.9.3-.89.3-.87.3-.9.3-.86.3-.9.33-.87.29-.89.3-.87.3-.89.63-1.74.6-1.76.59-1.73.6-1.74.6-1.73.3-.83.3-.87.3-.87.29-.83.3-.84.27-.87.3-.83.27-.84.3-.84.27-.83.27-.81.27-.84.26-.83.27-.81.15-.39.12-.42.12-.41.15-.39.12-.42.12-.39.12-.42.15-.39.12-.38.12-.42.12-.39.12-.39.12-.42.12-.39.12-.38.11-.39.12-.39.12-.39.09-.39.12-.39.12-.38.12-.39.09-.36.12-.39.09-.39.12-.39.09-.35.12-.39.09-.36.09-.39.12-.36.09-.39.09-.36.09-.35.09-.39.09-.36.09-.36.09-.36.08-.36.09-.35.09-.36.09-.36.06-.36.09-.36.09-.33.06-.36.09-.35.06-.33.06-.36.09-.33.06-.33.06-.36.06-.33.06-.32L468,273l.06-.33.06-.33.06-.33.06-.33.06-.33,0-.33.06-.29,0-.33.06-.33.06-.36,0-.39.06-.36.06-.39,0-.38.06-.39.06-.36,0-.39.06-.39,0-.39.06-.35,0-.39.06-.39,0-.39.06-.39,0-.36,0-.38,0-.39.06-.39,0-.39,0-.36.06-.39,0-.38,0-.39.06-.39,0-.39,0-.39.06-.39,0-.36,0-.38,0-.39,0-.39,0-.39.06-.39,0-.39,0-.38,0-.39,0-.39,0-.39,0-.39,0-.39,0-.38,0-.39,0-.39,0-.39,0-.39,0-.77,0-.39,0-.39,0-.39V250l0-.39,0-.38,0-.39v-.39l0-.39,0-.39v-.39l0-.39v-.38l0-.39,0-.39v-.39l0-.42v-.39l0-.38v-.78l0-.39v-.39l0-.39v-1.19l0-.39V239.5l0-.39v-6.69l0-.39v-1.17l0-.42v-.77l0-.39v-.78l0-.42v-.38l0-.39v-.39l0-.39v-.39l0-.42,0-.39V225l0-.39v-.39l0-.42,0-.39,0-.39v-.38l0-.39,0-.39,0-.42,0-.39v-.39l0-.38,0-.39,0-.39,0-.39,0-.42,0-.39,0-.38,0-.39,0-.39,0-.39,0-.39-.06-.42,0-.38,0-.39,0-.39,0-.39-.06-.39,0-.39,0-.41-.06-.39,0-.39,0-.39-.06-.39,0-.39-.06-.38,0-.39-.06-.39,0-.39-.06-.39,0-.42-.06-.38-.06-.39,0-.39-.06-.39-.06-.39,0-.39-.06-.38-.06-.39-.06-.39-.06-.39,0-.39-.06-.39-.06-.39-.06-.38-.06-.39-.06-.39-.06-.39-.06-.39-.06-.39-.06-.38-.06-.39-.09-.39-.06-.39-.06-.39-.06-.39-.06-.38-.09-.39-.06-.39-.06-.39-.09-.39-.06-.39-.06-.38-.09-.39-.06-.36-.09-.39-.06-.39-.09-.39-.06-.38-.08-.39-.09-.39-.06-.39-.09-.36-.09-.39-.06-.39-.09-.38-.09-.39-.09-.39-.06-.36-.09-.39-.09-.39-.09-.38-.09-.36-.09-.39-.09-.39-.09-.39-.09-.36-.09-.38-.09-.39-.09-.39-.09-.36-.12-.39-.09-.39-.09-.36-.09-.38-.12-.39-.08-.36-.09-.39-.09-.39-.12-.36-.09-.38-.12-.36-.09-.39-.12-.39-.09-.36-.12-.39-.09-.35-.12-.39-.12-.36-.09-.39-.12-.39-.12-.36-.12-.36-.09-.38-.12-.36-.12-.39-.12-.36-.12-.39-.11-.36-.12-.38-.12-.36-.12-.36-.12-.39-.12-.36-.12-.39-.12-.36-.12-.35-.12-.39-.12-.36-.15-.36-.12-.39-.12-.36-.15-.35-.12-.36-.12-.39-.15-.36-.12-.36-.14-.36-.12-.36-.15-.38-.12-.36-.15-.36-.12-.36-.15-.36-.15-.36-.12-.35-.15-.39-.15-.36-.15-.36-.15-.36-.12-.36-.15-.36-.15-.35-.15-.36-.15-.36-.14-.36-.15-.36-.15-.36-.15-.36-.15-.35-.18-.36-.15-.33-.15-.36-.15-.36-.15-.36-.18-.36-.15-.35-.15-.33-.18-.36-.15-.36-.17-.36-.15-.36-.18-.32-.15-.36-.18-.36-.15-.33-.18-.36-.18-.36-.15-.33-.18-.35-.18-.36-.18-.33-.18-.36-.15-.33-.17-.36-.18-.33-.18-.35-.18-.33-.18-.36-.18-.33-.18-.36-.18-.33-.21-.36-.18-.32-.18-.33-.18-.36-.18-.33-.2-.36-.18-.33-.18-.33-.21-.32-.18-.36-.21-.33-.18-.33-.21-.33-.18-.36-.21-.33-.18-.32-.21-.33-.2-.33-.18-.33-.21-.33-.21-.36-.21-.33-.18-.33-.21-.32-.21-.33-.21-.33-.21-.33-.21-.33-.21-.33-.2-.3-.21-.32-.21-.33-.24-.33-.21-.33-.21-.33-.21-.33-.24-.3-.21-.32-.21-.33-.24-.33-.2-.3-.24-.33-.21-.33-.24-.3-.21-.33-.24-.32-.21-.3-.24-.33L441,133l-.21-.33-.24-.3-.23-.33-.24-.3-.24-.32-.24-.3-.24-.33-.24-.3-.24-.33-.24-.3-.24-.3-.24-.29-.23-.33-.24-.3-.24-.3-.27-.33-.24-.3-.24-.3-.24-.3-.27-.29-.24-.3-.27-.3-.23-.33-.27-.3-.24-.3-.27-.3-.24-.3-.27-.29-.27-.3-.27-.3-.24-.3-.26-.3-.27-.27-.27-.3-.27-.3-.27-.29-.27-.3-.27-.27-.27-.3-.27-.3-.26-.3-.27-.27-.27-.3-.27-.29-.3-.27-.27-.3-.27-.27-.3-.3-.27-.27-.26-.3-.3-.27-.27-.3-.3-.26-.3-.3-.27-.27-.3-.27-.3-.3-.26-.27-.3-.27-.3-.3L425,115l-.3-.27-.3-.27-.27-.27-.3-.3-.29-.27-.33-.27-.3-.27-.3-.27-.3-.26-.3-.27-.3-.27-.33-.27-.29-.27-.3-.27-.33-.27-.3-.24-.33-.27-.3-.26-.33-.27-.3-.27-.32-.24-.33-.27-.3-.27-.33-.24-.33-.27L417,108l-.33-.24-.29-.26-.33-.24-.33-.27-.33-.24-.33-.27-.36-.24-.33-.27-.32-.24-.33-.24-.33-.26L413,105l-.36-.24-.33-.24-.36-.27-.33-.24-.35-.24-.33-.24-.36-.24-.33-.24-.36-.23-.33-.24-.35-.24-.36-.24-.36-.24-.36-.24-.36-.24-.33-.24-.36-.24-.35-.24-.36-.2-.39-.24-.36-.24-.36-.24-.36-.21-.36-.24-.38-.24-.36-.21-.36-.24-.39-.21-.36-.24-.39-.2-.35-.24-.39-.21-.36-.21-.39-.24-.39-.21-.36-.21-.39-.24-.38-.21-.39-.21-.39-.21-.39-.23-.39-.21-.39-.21L397,94.9l-.39-.21-.39-.21-.93-.51-.95-.48-.93-.5-.93-.48-.95-.48-.93-.51-.92-.48-.48-.23-.45-.24-.48-.24-.48-.24-.44-.24-.48-.24-.48-.24-.45-.24-.48-.24-.47-.24-.45-.2-.48-.24-.48-.24-.45-.24-.47-.21-.48-.24-.45-.24-.48-.24-.48-.21-.44-.24-.48-.21-.48-.23-.45-.24-.48-.21-.47-.24L377.5,85,377,84.8l-.48-.24-.48-.21-.44-.21-.48-.24-.48-.21-.48-.2-.45-.21-.48-.24-.47-.21-.48-.21-.45-.21-.48-.21-.48-.21-.47-.21-.48-.21-.45-.18-.48-.2-.48-.21-.47-.21-.48-.21-.48-.18-.48-.21-.48-.21-.44-.18-.48-.21-.48-.18-.48-.18-.48-.21-.47-.17-.48-.21-.48-.18-.48-.18-.48-.18-.47-.18-.48-.18-.48-.18-.48-.18-.48-.18-.47-.18-.48-.18-.48-.18-.48-.17-.48-.18-.47-.15-.48-.18-.51-.15-.48-.18-.48-.15-.47-.18-.48-.15-.51-.18-.48-.15-.48-.15-.47-.15-.51-.15-.48-.15-.48-.14-.48-.15-.5-.15-.48-.15-.51-.15-.48-.15-.48-.12-.5-.15-.48-.15-.48-.12-.51-.15-.51-.12L344,72.4l-.48-.15-.51-.12-.51-.12-.47-.12-.51-.12-.48-.11-.51-.12-.51-.12-.47-.12-.51-.12-.51-.12L338,71l-.48-.12-.5-.09-.51-.12-.51-.09-.51-.09-.51-.12-.29-.06-.3-.06-.33-.06-.33-.06-.3,0-.33-.06-.3-.06-.33-.06-.32-.06-.3-.06-.33,0-.3-.06-.33-.06-.33,0-.3-.06-.32-.06-.33,0-.3-.06-.33,0-.33,0-.3-.06-.33,0-.3,0-.32-.06-.33,0-.33-.06-.3,0-.33,0-.33-.06-.3,0-.32,0-.33,0-.33-.06-.3,0-.33,0-.33,0-.33,0-.33,0-.29,0-.33,0-.33,0-.3,0-.33,0-.33,0-.33,0-.29,0-.36,0-.3,0-.33,0H319l-.33,0-.33,0-.29,0h-.33l-.33,0-.33,0h-.33l-.33,0h-.3l-.33,0h-.32l-.33,0h-.33l-.33,0h-.33l-.3,0h-.65l-.33,0h-.66l-.3,0h-1.31l-.33,0h-1.94Zm1-12H310l.33,0h1.76l.36,0h.72l.32,0h.36l.36,0H315l.33,0h.35l.36,0,.33,0h.36l.36,0h.36l.33,0,.35,0h.36l.36,0,.33,0,.36,0,.36,0h.33l.35,0,.36,0,.36,0,.33,0,.36,0,.36,0,.33,0,.35,0,.36,0,.36,0,.33.06.36,0,.33,0,.36,0,.35.06.36,0,.33,0,.36,0,.36.06.33,0,.36.06.35,0,.33.06.36,0,.36.06.33,0,.33,0,.36,0,.35.06.36.06.33,0,.36.06.33.06.36.06.33,0,.35.06.33.06.36.06.33.06.36.06.36.06.33.06.35.06.33.06.36.06.33.06.36.06.33.06.35.06.54.12.57.12.54.09.54.12.53.12.57.12.54.12.54.12.53.12.57.11.51.12.57.15.54.12.53.12.54.15.54.12.51.15.53.15.54.12.54.15.54.15.54.15.53.15.51.15.54.15.54.15.5.14.54.15.51.18.54.15.51.15.53.18.54.15.51.18.51.18.53.15.51.18.51.18.54.18.51.15.53.18.51.17.51.18.51.18.51.18.53.21.51.18.51.18.51.18.51.21.5.18.51.21.51.18.51.2.5.18.51.21.51.18.51.21.51.21.47.18.51.21.51.21.51.21.51.21.47.21.51.2.51.21.48.21.51.21.5.21.48.21.51.24.51.21.47.21.51.21.48.24.51.2.48.24.5.21.48.24.51.21.48.24.51.21.47.24.48.21.51.24.48.24.48.2.5.24.48.24.48.24.51.21.48.24.47.24.48.24.51.24.48.24.48.24.47.23.48.24.51.24.48.24.48.24.47.24.48.24.48.24.48.24.48.26.47.24.48.24.48.24.48.24.51.27.47.24,1,.48.93.5.95.51,1,.48.95.51,1,.51,1,.5.41.21.42.24.42.24.42.21.45.24.42.24.38.24.42.24.42.21.42.23.42.24.41.24.39.24.42.24.42.24.39.24.42.24.41.27.39.24.39.23.42.24.39.24.39.27.41.24.39.27.39.24.39.24.39.27.39.24.39.26.38.24.39.27.39.27.39.24.39.27.36.27.38.24.39.27.39.26.36.27.39.27.36.27.38.24.36.27.39.3.36.24.36.3.36.26.39.27.35.27.36.27.36.27.36.27.36.3.36.27.35.27.36.29.36.27.36.27.33.3.36.27.36.3.32.27.36.3.36.26.33.3.36.3.33.27.33.3.35.3.33.27.33.3.36.29.33.3.33.27.33.3.32.3.33.3.33.3.33.3.33.29.33.3.33.3.33.3.29.3.33.3.33.3.3.33.33.29.33.3.3.3.32.33.3.3.3.3.33.33.3.3.3.29.33.33.3.3.29.33.3.3.3.33.3.3.3.33.3.32.3.3.3.33.29.33.3.3.27.33.3.33.3.32.3.3.27.33.3.33.27.33.29.33.27.33.3.33.27.29.27.36.3.33.27.3.27.36.26.33.3.33.27.32.27.33.27.33.27.33.27.36.27.33.24.33.26.32.27.36.27.33.27.33.24.36.27.33.27.33.24.35.27.33.23.36.27.33.24.36.27.33.24.36.24.32.24.36.27.33.24.36.24.36.23.33.24.36.24.35.24.33.24.36.24.36.24.36.24.33.24.36.24.35.23.36.21.36.24.36.24.33.21.36.24.36.21.35.24.36.21.36.24.36.2.36.24.36.21.36.21.38.21.36.24.36.21.36.21.36.21.36.21.35.21.39.21.36.2.36.21.36.21.39.21.36.21.35.18.36.21.39.21.36.21.39.18.36.21.35.18.39.2.36.21.39.18.36.18.39.21.36.18.38.21.36.18.39.18.36.18.39.21.36.18.38.17.39.18.36.18.39.18.36.18.39.18.38.18.39.18.36.18.39.18.39.15.36.18.39.18.38.15.39.17.39.18.36.15.39.18.39.15.38.18.39.15.39.18.39.15.36.18.39.15.38.15.39.15.39.18.39.15.39.14.39.15.39.15.38.15.39.15.39.15.39.15.39.15.39.15.41.15.39.15.39.15.39.12.39.15.39.15.38.15.39.11.42.15.39.12.39.15.39.12.41.15.39.12.39.15.39.12.39.15.42.12.38.12.39.12.42.15.39.12.39.12.42.12.38.12.39.12.42.11.39.12.39.12.42.12.38.12.39.12.42.12.39.12.42.12.39.09.41.12.39.12.42.12.39.09.42.12.39.09.38.12.42.12.42.09.39.12.39.09.42.09.41.11.39.09.42.12.39.09.42.09.39.09.41.12.42.09.39.09.42.09.39.09.42.09.41.09.39.09.42.09.39.09.42.09.42.09.38.09.42.09.42.06.39.09.42.09.41.09.39.06.42.08.42.09.39.06.42.09.41.06.42.09.39.06.42.09.42.06.39.09.41.06.42.06.42.09.42.06.39.06.42.09.41.06.42.06.39.06.42.06.42.06.42.06.38.06.42.06.42.06.42.06.42.06.42.06.38.06.42.06.42.06.42.06.42,0,.38.06.42.06.42.06.42,0,.42.06.42.06.38,0,.42.06.42,0,.42.06.42,0,.42.06.38,0,.42.06.42,0,.42,0,.42.06.42,0,.41,0,.39.06.42,0,.42,0,.42,0,.42,0,.41.06.42,0,.42,0,.39,0,.42,0,.41,0,.42,0,.42,0,.42,0,.42,0,.42,0,.38v.42l0,.42,0,.42,0,.42,0,.42v.41l0,.39,0,.42v.42l0,.42,0,.42v.41l0,.42v.42l0,.39v.42l0,.42v.41l0,.42V229l0,.39v.83l0,.42v1.23l0,.42v7l0,.42v1.22l0,.42v.83l0,.39v.84l0,.42v.39l0,.41V245l0,.42v.39l0,.42v.42l0,.38,0,.42v.42l0,.42,0,.39v.42l0,.41,0,.39v.42l0,.39,0,.42,0,.42,0,.38,0,.42v.42l0,.39,0,.42,0,.42,0,.38,0,.42,0,.39,0,.42,0,.42,0,.39-.06.41,0,.39,0,.42,0,.39,0,.42,0,.39-.06.41,0,.39,0,.42,0,.39-.06.42,0,.39,0,.41-.06.39,0,.42,0,.39-.06.42,0,.39,0,.41,0,.39-.06.39,0,.42-.06.39,0,.42-.06.38,0,.39-.06.42-.06.39,0,.39-.06.42-.06.38,0,.39-.06.42-.06.39,0,.39-.06.39-.06.41-.06.39-.06.36,0,.39-.06.39-.06.36-.06.38-.06.36-.06.39-.09.39-.06.36-.06.39-.09.38-.06.39-.09.36-.06.39-.09.39-.06.39-.09.39-.09.38-.09.39-.06.39-.09.39-.08.39-.09.39-.09.41-.12.39-.09.39-.09.39-.09.39-.12.42-.09.38-.09.39-.12.42-.09.39-.12.42-.09.39-.12.41-.12.39-.09.39-.12.42-.12.42-.12.39-.12.41-.12.42-.11.39-.12.42-.12.42-.12.39-.12.41-.12.42-.12.42-.12.42-.12.39-.15.41-.12.42-.12.42-.12.42-.15.42-.12.42-.15.41-.12.42-.15.42-.12.42-.14.42-.12.42-.27.86-.3.84-.27.84-.3.86-.27.84-.3.86-.27.87-.29.84-.3.86-.3.87-.3.87-.3.83-.3.87-.3.87-.59,1.73-.6,1.73-.6,1.76-.63,1.74-.59,1.73-.3.9-.3.86-.3.87-.3.86-.3.87-.3.87-.3.86-.29.9-.3.87-.3.86-.27.87-.3.87-.27.86-.3.87-.27.86-.15.42-.15.45-.11.42-.15.42-.12.45-.15.41-.12.42-.15.45-.12.42-.15.42-.12.45-.15.41-.12.42-.12.42-.15.45-.12.42-.12.41-.12.42-.12.42-.15.42-.11.45-.12.42-.12.41-.12.42-.12.42L459,342l-.12.42-.09.42-.12.41-.12.42-.12.39-.09.42-.12.42-.12.42-.09.41-.12.39-.09.42-.12.42-.09.42-.09.38-.12.42-.09.39-.09.42-.08.39-.12.42-.09.38-.09.42-.09.39-.09.39-.09.42-.06.39-.09.38-.09.42-.09.39-.06.39-.09.39-.06.39-.09.39-.06.38-.06.39-.09.39-.06.39-.06.39-.06.36-.06.38-.06.39-.06.36-.06.39-.06.36-.06.39-.06.35,0,.39-.06.36,0,.39-.06.36,0,.36-.06.36,0,.35,0,.36,0,.36,0,.36,0,.36,0,.36,0,.35,0,.36,0,.33,0,.36V366l0,.33v.51l0,.17v.84l0,.18v1.64l0,.18v1l0,.15v.48l0,.18v.29l0,.15v.33l0,.15v.15l0,.15V373l0,.15v.15l0,.15v.15l0,.18v.12l0,.18v.15l0,.14.08.72.09.72.09.69.09.71.09.72.09.72.06.68.09.72.09.69.09.71.06.69.09.69.09.69.06.68.09.69.09.69.06.68.09.69.06.69.06.66.09.68.06.66.09.69.06.66.06.65.06.66.09.66.06.65.06.66.06.66.06.66.05.65.06.63.06.66.06.62.06.66.06.63.06.63,0,.65.06.63.06.63.06.63,0,.62.06.63.06.63,0,.63.06.59,0,.63.06.63,0,.6.06.62,0,.6,0,.6.06.63,0,.59,0,.6,0,.6,0,.6,0,.59.06.6,0,.6,0,.6,0,.56,0,.6v.6l0,.57,0,.59,0,.57,0,.6v.57l0,.56,0,.6v.57l0,.57,0,.56v1.14l0,.57v.57l0,.56v1.68l0,.56v5.5l0,.54V435l0,.54v.54l0,.53v.54l0,.51v.54l0,.54,0,.53v.51l0,.54,0,.51,0,.54,0,.5v.54l0,.51,0,.54,0,.5,0,.51-.06.51,0,.54,0,.51,0,.5,0,.51-.06.51,0,.51,0,.5-.06.51,0,.51-.06.51,0,.51-.06.5-.06.51,0,.51-.06.51-.06.48-.06.5-.06.51-.06.48-.06.51-.06.51-.06.47-.06.51-.06.48-.06.51-.06.48-.05.5-.09.48-.06.51-.09.48-.06.48-.06.5-.09.48-.09.48-.06.51-.09.48-.09.47-.06.48-.09.48-.09.51-.09.47-.09.48-.09.48-.09.48-.09.48-.09.47-.09.48-.09.48-.12.48-.09.48-.09.48-.12.47-.09.48-.11.48-.09.48-.12.47-.09.45-.12.48-.12.48-.12.48-.09.48-.12.44-.12.48-.12.48-.12.48-.12.45-.12.47-.12.48-.15.48-.12.45-.12.48-.12.47-.15.45-.12.48-.14.48-.12.45-.15.47-.12.48-.15.45-.15.48-.15.45-.12.47-.15.45-.15.48-.15.48-.15.45-.15.47-.15.45-.18.48-.15.48-.14.45-.15.47-.18.45-.15.48-.18.45-.15.48-.18.45-.15.47-.18.48-.18.45-.15.48-.18.45-.18.47-.18.45-.17.48-.18.45-.18.48-.18.47-.18.45-.18.48-.18.45-.21.48-.18.44-.18.48-.21.48-.18.45-.21.48-.2.44L445,502l-.21.48-.21.45-.18.48-.21.47-.21.45-.21.48-.21.48-.21.45-.21.47-.21.48-.23.48-.21.45-.21.48-.21.48-.24.47-.21.48-.24.45-.21.48-.24.48-.24.47-.09.21-.12.24-.11.21-.09.24-.12.21-.12.21-.12.24-.12.21-.12.21-.12.23-.12.21-.12.24-.12.21-.12.21-.12.24-.12.21-.15.21-.12.21-.12.21-.12.23-.15.21-.12.21-.14.21-.12.24-.15.21-.12.21-.15.21-.12.21-.15.21-.15.21-.15.21-.12.23-.15.21-.15.21-.15.21-.15.21-.15.21-.15.21-.14.21-.15.21-.15.21-.15.21-.15.2-.15.18-.15.21-.18.21-.15.21-.15.21-.18.21-.15.21-.15.21-.18.18-.15.21-.18.21-.14.2-.18.21-.18.18-.15.21-.18.21-.18.18-.18.21-.15.21-.18.18-.18.21-.18.21-.18.21-.18.17-.17.21-.18.18-.15.21-.21.21-.18.18-.18.21-.18.18-.18.21-.18.18-.21.21-.18.18-.18.2-.21.18-.18.21-.17.18-.21.18-.18.21-.21.18-.18.21-.21.18-.18.18-.21.21-.21.18-.18.18-.21.2-.21.18-.2.18-.18.18-.21.21-.21.18-.21.18-.21.21-.21.18-.21.18-.21.18-.21.18-.21.18-.2.2-.21.18-.21.18-.21.18-.24.18-.21.18-.21.18-.24.18-.21.18-.21.18-.21.18-.24.18-.2.18-.24.17-.21.18-.24.18-.21.18-.24.18-.24.18-.21.18-.24.18-.21.15-.23.18-.24.18-.24.18-.24.18-.21.15-.24.17-.24.18-.24.18-.24.15-.24.18-.23.18-.24.18-.24.15-.24.18-.24.18-.24.15-.24.18-.24.15-.27.18-.24.17L414,540l-.24.18-.27.15-.24.18-.24.15-.27.18-.24.15-.27.18-.24.15-.24.18-.26.15-.27.18L411,542l-.27.15-.24.17-.27.15-.27.15-.24.18-.27.15-.26.15-.27.18-.24.15-.27.15-.27.15-.27.18-.27.15-.27.15-.27.15-.26.14-.27.18-.27.15L406,545l-.3.15-.27.15-.27.15-.27.15-.27.15-.26.15-.3.15-.27.15-.27.15-.27.15-.27.15-.3.15-.27.15-.27.14-.29.15-.27.15-.3.15-.27.15-.3.15-.27.12-.3.15-.27.15-.29.15-.3.15-.27.12-.3.15-.3.15-.27.15-.3.12-.3.14-.26.15-.3.12-.3.15-.3.12-.27.15-.3.15-.33.12-.27.15-.3.12-.29.15-.3.12-.3.15-.3.12-.3.15-.3.12-.3.15-.3.12-.32.14-.3.12-.3.12-.3.15-.33.12-.3.12-.3.15-.3.12-.29.12-.33.15-.3.12-.33.12-.3.12-.33.12-.3.15-.29.12-.33.12-.3.12-.33.12-.3.11-.33.12-.33.12-.3.12-.32.15-.3.12-.33.12-.33.12-.3.09-.33.12-.33.12-.32.12-.3.12-.33.12-.33.12-.33.12-.33.12-.33.12-.33.09-.29.12-.33.11-.33.12-.33.09-.33.12-.33.12-.33.09-.32.12-.36.12-.3.09-.36.12-.33.12-.33.09-.33.12-.32.09-.36.12-.33.09-.33.12-.33.09-.33.12-.36.09-.32.12-.33.09-.36.09-.33.11-.36.09-.33.12-.33.09-.36.09-.32.09-.36.12-.33.09-.36.09-.33.09-.36.12-.32.09-.36.09-.33.09-.36.09-.36.09-.33.09-.36.12-.35.09-.33.09-.36.09-.36.09-.36.09-.33.09-.36.06-.35.08-.36.09-.36.09-.36.09-.36.09-.33.09-.36.09-.35.06-.36.09-.36.09-.36.09-.36.06-.36.09-.36.09-.35.06-.36.09-.36.09-.36.06-.36.09-.36.06-.35.09-.39.09-.36.06-.36.09-.36.06-.36.06-.39.09-.35.06-.36.09-.36.06-.39.06-.36.08-.36.06-.38.06-.36.09-.36.06-.36.06-.39.06-.36.09-.39.06-.35.06-.36.06-.39.06-.39.06-.36.06-.36.06-.38.09-.36,0-.39.06-.39.09-.36,0-.36.06-.39.06-.38.06-.36.06-.39.06-.39.06-.36.06-.39,0-.38.06-.36.06-.39.06-.39,0-.39.06-.36.06-.39,0-.38.06-.39.06-.36,0-.39.06-.39,0-.39.06-.38,0-.36.06-.39,0-.39.06-.39,0-.39.06-.38,0-.39,0-.39.06-.39,0-.39,0-.39.06-.38,0-.39,0-.39,0-.39.06-.39,0-.39,0-.38,0-.39,0-.39,0-.39,0-.39,0-.39,0-.39,0-.41,0-.39,0-.39,0-.39,0-.39,0-.39,0-.41,0-.39,0h-.39l-.39,0-.39,0-.42,0h-.38l-.39,0-.39,0h-.42l-.39,0-.39,0h-.41l-.39,0h-.39l-.42,0h-.39l-.39,0h-.41l-.39,0h-.81l-.42,0h-.77l-.42,0h-1.2l-.42,0h-6.06l-.39,0h-1.22l-.42,0H304l-.42,0h-.38l-.42,0h-.42l-.39,0h-.42l-.41,0h-.42l-.39,0h-.42l-.42,0-.39,0h-.41l-.42,0-.42,0h-.42l-.39,0-.42,0-.41,0-.42,0h-.39l-.42,0-.42,0-.42,0-.41,0-.39,0-.42,0-.42,0-.42,0-.42,0-.41,0-.42,0-.42-.06-.42,0-.39,0-.41,0-.42,0-.42-.06-.42,0-.42,0-.42-.06-.41,0-.42-.06-.42,0-.3,0-.36,0-.36-.06-.38,0-.39-.06-.42-.06-.45,0-.45-.06-.48-.09-.47-.06-.51-.09-.54-.09-.27,0-.27-.06-.3,0-.26-.06-.3-.06-.3,0-.3-.06-.3-.06-.3-.06-.3-.06-.33,0-.29-.06-.33-.06-.33-.09-.33-.06-.33-.06-.36-.06-.33-.06-.36-.09-.32-.06-.36-.06-.36-.09-.36-.06-.36-.09-.36-.09-.38-.06-.36-.09-.39-.09-.39-.09-.39-.09-.39,0-.39-.09-.38-.12-.39-.09-.42-.09-.39-.09-.42-.09-.41-.12-.42-.09-.42-.09-.42-.12-.42-.09-.42-.12-.44-.12-.42-.12-.42-.09-.45-.12-.45-.12-.45-.12-.44-.12-.45-.12-.45-.12-.45-.12-.45-.14-.47-.12-.45-.15-.48-.12-.45-.15-.48-.12-.47-.15-.48-.12-.48-.15-.48-.15-.48-.15-.47-.15-.48-.15-.48-.15-.51-.15-.48-.18-.5-.14-.48-.15-.51-.18-.51-.15-.51-.18-.47-.18-.51-.15-.51-.18-.51-.18-.51-.18-.5-.18-.51-.18-.54-.18-.51-.21-.5-.17-.54-.18-.51-.21-.54-.18-.51-.21-.53-.21-.51-.18-.54-.21-.51-.21-.53-.21-.54-.21-.54-.21-.51-.23-.54-.21-.53-.21-.54-.24-.54-.21-.54-.24-.54-.24-.53-.21-.54-.24-.54-.24-.54-.24-.56-.23-.54-.27-.54-.24-.54-.24-.53-.27-.54-.24-.57-.27-.54-.24-.54-.27-.53-.26-.57-.27-.27-.15-.27-.12-.27-.15-.27-.12-.27-.15-.29-.15-.27-.12-.27-.15-.27-.15-.27-.12-.3-.15-.27-.15-.27-.12-.27-.15-.26-.14-.27-.15-.27-.15-.27-.15-.3-.15-.27-.15-.27-.15-.27-.15-.26-.15-.27-.15-.3-.15-.27-.15-.27-.15-.27-.15-.27-.15-.27-.15-.27-.17-.26-.15-.27-.15L219,544l-.27-.18-.27-.15-.27-.15-.27-.18-.27-.15-.27-.15-.26-.18-.3-.15-.27-.18-.27-.15-.27-.18-.27-.14-.27-.18-.27-.15-.27-.18-.26-.18-.27-.15-.27-.18-.27-.18-.27-.15-.27-.18-.27-.18-.27-.18-.27-.18-.26-.18-.27-.14-.27-.18-.27-.18-.27-.18-.27-.18-.27-.18-.27-.18-.27-.18-.26-.21-.27-.18-.27-.18-.24-.18-.27-.18-.27-.2-.27-.18-.27-.18-.27-.18-.26-.21-.24-.18-.27-.18-.27-.21-.27-.18-.27-.21-.24-.18-.27-.21-.27-.18-.26-.2-.27-.18-.24-.21-.27-.21L204,534l-.24-.21-.27-.21-.27-.18-.24-.21-.26-.21-.27-.21-.24-.21-.27-.2-.24-.21-.27-.18-.27-.24-.24-.18-.24-.21-.26-.24-.27-.21-.24-.21-.24-.21-.27-.21-.24-.2-.27-.21-.24-.24-.24-.21-.27-.21-.23-.24-.27-.21-.24-.21-.24-.24-.27-.21-.24-.24-.24-.2-.24-.24-.27-.21-.23-.24-.24-.21-.24-.24-.24-.24-.24-.21-.27-.24-.24-.24-.24-.23-.24-.21-.24-.24-.24-.24-.23-.24-.24-.24-.24-.24-.24-.24-.24-.24-.21-.24-.24-.24-.24-.23-.24-.24-.24-.24-.23-.24-.21-.27-.24-.24-.24-.24-.24-.27-.21-.24-.24-.23-.24-.27-.21-.24-.24-.27-.2-.24-.24-.27-.21-.24-.24-.27-.21-.24-.24-.27L187,518l-.24-.24-.21-.27-.21-.27-.24-.27-.2-.27-.21-.24-.24-.27-.21-.27-.21-.26-.21-.27-.21-.27-.21-.27-.24-.27-.21-.27-.21-.27-.2-.3-.21-.27-.21-.26-.21-.27-.18-.27-.21-.3-.21-.27-.21-.3-.21-.27-.21-.27-.18-.29-.21-.27-.2-.3-.18-.3-.21-.27-.21-.3-.18-.27-.21-.3-.18-.3-.21-.29-.18-.3-.21-.27-.18-.3-.18-.3-.2-.3-.18-.3-.18-.3-.18-.29-.21-.3-.18-.3-.18-.3-.18-.3-.18-.3-.18-.33-.18-.3-.18-.29-.18-.3-.17-.33-.18-.3-.15-.33-.18-.3-.18-.3-.18-.33-.15-.29-.18-.33-.18-.33-.15-.3-.18-.33-.15-.33-.18-.3-.15-.32-.18-.33-.14-.33-.15-.33-.15-.27,0-.09-.09-.18-.12-.24-.15-.3-.18-.35-.21-.42-.21-.48-.12-.27-.15-.27-.12-.27-.15-.3-.15-.32-.15-.33-.14-.33-.15-.36-.18-.36-.15-.39-.18-.39-.18-.41-.18-.39-.21-.45-.18-.45-.21-.45-.18-.44-.21-.48-.21-.48-.21-.51-.2-.51-.21-.5-.24-.54-.21-.54-.24-.57-.21-.57-.24-.56-.24-.57-.21-.6-.24-.6-.23-.62-.24-.63-.24-.63-.24-.65-.27-.63-.24-.66-.12-.36-.12-.33-.12-.33-.12-.35-.12-.33-.12-.36-.12-.33-.15-.36-.11-.36-.12-.33-.12-.35-.12-.36-.12-.36-.12-.36-.15-.39-.12-.36-.12-.35-.12-.36-.12-.39-.12-.36-.12-.39-.15-.36-.12-.39-.12-.38-.12-.36-.12-.39-.12-.39-.12-.39L162,468l-.12-.38-.12-.39-.12-.42-.12-.39-.15-.39-.12-.42-.12-.38-.12-.39-.09-.42-.12-.42-.12-.39-.12-.42-.12-.41-.12-.39-.12-.42-.12-.42-.12-.42-.09-.42-.12-.41-.11-.42-.12-.42-.12-.42-.09-.45-.12-.41-.12-.42-.09-.45-.12-.42-.09-.42-.12-.45-.12-.41-.09-.45-.12-.45-.09-.42-.09-.45-.12-.44-.09-.42-.12-.45-.09-.45-.09-.45-.09-.45-.12-.44-.09-.45-.09-.45-.08-.45-.09-.45-.09-.44-.09-.45-.09-.45-.09-.48-.09-.45-.09-.45-.06-.44-.09-.48-.09-.45-.06-.45-.09-.48-.09-.44-.06-.48-.09-.45-.06-.48-.09-.45-.06-.47-.06-.45-.09-.48-.06-.48-.06-.45-.06-.47-.06-.48-.06-.45-.06-.48-.06-.48-.06-.47L155,436l0-.48-.06-.48-.05-.48,0-.47-.06-.48,0-.48-.06-.45,0-.48,0-.47-.06-.48,0-.48,0-.48,0-.48,0-.47,0-.48,0-.48v-.48l0-.48,0-.47v-.48l0-.48v-.48l0-.48v-1.46l0-.48v-.95l0-.48v-1.44l0-.24v-.71l0-.24v-.48l0-.27v-.48l0-.24v-.23l0-.24v-.48l0-.24,0-.24v-.24l0-.24v-.24l0-.24v-.23l0-.24,0-.24v-.24l0-.24,0-.24,0-.24v-.24l0-.24,0-.24,0-.23,0-.24,0-.24.05-.69.09-.69L155,410l.09-.69.06-.69.06-.66.09-.68.06-.66.06-.69.09-.65.06-.66.06-.69.06-.66.06-.65.06-.66.06-.66.06-.66L156,400l.06-.63.06-.66.06-.65.06-.63.06-.66,0-.63.06-.62.06-.66,0-.63.06-.63.06-.62,0-.63.06-.63,0-.63.06-.62,0-.6.06-.63,0-.63,0-.59.06-.6,0-.63,0-.6,0-.59.06-.63,0-.6,0-.59,0-.6,0-.6,0-.6,0-.57,0-.59,0-.6,0-.6,0-.57,0-.59v-.57l0-.57,0-.6,0-.56v-.57l0-.57,0-.57v-.56l0-.57,0-.57v-.57l0-.56V371l0-.57v-1.11l0-.56v-.54l0-.57v-1.61l0-.54v-3.23l0-.53v-1.59l0-.5v-3.11l0-.51v-1.52l0-.51v-1l0-.5v-1l0-.51v-.48l0-.5v-.48l0-.51v-.48l0-.48v-.5l0-.48,0-.48v-.48l0-.48,0-.47v-.48l0-.48,0-.48,0-.48v-.47l0-.45,0-.48,0-.48,0-.45,0-.47V340l0-.48,0-.45,0-.48,0-.45,0-.44,0-.48,0-.45,0-.45,0-.45,0-.44,0-.45-.06-.45,0-.45,0-.45,0-.44,0-.45,0-.42-.06-.45,0-.45,0-.42,0-.44,0-.45-.06-.42,0-.45,0-.42-.06-.44,0-.42,0-.42-.06-.45,0-.42-.06-.42-.06-.86-.09-.84-.09-.83-.09-.84-.09-.81-.09-.83-.09-.81-.12-.84-.09-.8-.09-.81-.09-.81-.12-.8-.09-.78-.11-.81-.09-.77-.12-.81-.09-.78-.12-.77-.09-.78-.12-.75-.12-.78-.12-.77-.09-.75-.12-.78-.12-.74-.12-.75-.12-.75-.12-.74-.12-.75-.12-.75-.09-.71-.12-.75-.15-.72-.12-.74-.12-.72-.11-.72-.12-.72-.12-.71-.12-.72-.12-.72-.12-.71-.12-.72-.15-.72-.12-.69-.12-.71-.24-1.38-.27-1.4-.24-1.37-.24-1.41-.5-2.72-.51-2.72-.24-1.34-.24-1.37-.24-1.32-.24-1.34-.12-.69-.12-.66-.12-.66-.12-.68-.12-.66-.11-.66-.12-.68-.12-.66-.09-.66-.12-.69-.12-.65-.09-.66-.12-.66-.12-.68-.09-.66-.12-.66-.09-.66-.12-.68-.09-.66-.09-.66-.12-.69-.09-.65-.09-.66-.09-.69-.09-.65-.12-.66-.09-.69-.06-.66-.08-.68-.09-.66-.09-.69-.09-.65-.06-.69-.09-.66-.06-.69-.09-.68-.06-.66-.09-.69-.06-.68,0-.33,0-.36,0-.33,0-.33,0-.36,0-.33,0-.36,0-.32,0-.36,0-.33,0-.36,0-.36,0-.33,0-.35,0-.33v-.36l0-.33,0-.36,0-.36v-.33l0-.35,0-.36,0-.33v-.36l0-.36v-.33l0-.36,0-.35v-.36l0-.33v-.36l0-.36v-.36l0-.36v-.71l0-.36v-.69l0-.36v-1.07l0-.36V228.5l0-.39V227l0-.36v-.75l0-.39v-.35l0-.39v-.36l0-.39v-.39l0-.36v-.38l0-.39,0-.36v-.39l0-.39,0-.39,0-.36v-.38l0-.39,0-.39,0-.39,0-.39,0-.39,0-.38,0-.39,0-.39,0-.39,0-.39,0-.39.06-.41,0-.39,0-.39,0-.39.06-.42,0-.39,0-.38.06-.42,0-.39.06-.39,0-.42.06-.39,0-.41.06-.39,0-.42.06-.42.06-.39.06-.42,0-.41.06-.39.06-.42.06-.42.05-.42.06-.39.06-.41.06-.42.06-.42.06-.42.06-.42.06-.42.06-.41.06-.42.09-.45.06-.42.06-.42.09-.41.06-.45.09-.42.06-.42.09-.45.06-.42.09-.41.06-.45.09-.45.09-.42.06-.45.12-.59.12-.6.12-.6.12-.63.12-.59.12-.6.11-.63.15-.6.12-.62.12-.6.15-.63.12-.63.12-.59.15-.63.15-.63.12-.6.15-.62.15-.63.15-.63.12-.63.15-.59.15-.63.15-.63.17-.62.15-.63.15-.63.15-.63.18-.62.15-.63.15-.63.18-.63.18-.62.15-.63.18-.63.18-.63.15-.62.18-.66.18-.63.17-.63.18-.62.21-.63.18-.63.18-.63.18-.62.21-.63.18-.66.21-.62.18-.63.21-.63.21-.63.17-.62.21-.63.21-.63.21-.63.21-.62.21-.63.21-.63.24-.63.21-.62.21-.63.24-.63.2-.63.24-.62.24-.63.21-.63.24-.62.24-.63.24-.6.12-.33.12-.3.24-.62.12-.3.12-.33.12-.3.12-.3.11-.33.12-.3.15-.3.12-.32.12-.3.12-.3.12-.3.15-.33.12-.3.12-.3.15-.3.12-.32.12-.3.12-.3.15-.3.12-.3.15-.33.27-.6.26-.59.12-.33.15-.3.12-.3.15-.3.27-.6.12-.29.15-.3.15-.3.12-.3.15-.3.15-.3.12-.3.15-.3.15-.29.14-.3.15-.3.12-.3.15-.3.15-.3.15-.3.15-.3.15-.29.15-.3.15-.27.15-.3.15-.3.15-.3.15-.3.15-.27.15-.29.15-.3.14-.3.15-.27.15-.3.18-.3.15-.27.15-.3.15-.29.15-.27.18-.3.15-.3.15-.27.18-.3.15-.27.15-.3.17-.29.15-.27.18-.27.15-.3.18-.27.15-.3.18-.27.15-.3.18-.27.15-.26.18-.3.15-.27.18-.27.18-.3.15-.27.17-.27.18-.27.18-.3.15-.26.18-.27.18-.27.18-.27.18-.27.18-.27.15-.27.18-.3.18-.27.18-.26L174,124l.17-.27.18-.27.18-.27.18-.27.18-.24.21-.27.18-.27.18-.26.18-.27.18-.27.18-.24.21-.27.18-.27.17-.27.21-.24.18-.27.21-.26.21-.3.21-.27.21-.27.21-.3.21-.27.21-.27.21-.3.21-.26.2-.27.21-.27.21-.27.24-.3.21-.27.21-.27.21-.27.24-.27.21-.26.21-.27.24-.27.2-.27.21-.27.24-.27.21-.27.24-.27.21-.27.24-.26.21-.27.24-.27.24-.27.21-.27.23-.24.24-.27.21-.27.24-.27.24-.26.21-.24.24-.27.24-.27.24-.24.24-.27.2-.27.24-.24.24-.27.24-.23.24-.27.24-.27.24-.24.24-.24.24-.27.24-.27.23-.24.24-.24.24-.27.27-.23.24-.27.24-.24.24-.24.24-.24.27-.27.24-.24.23-.24.24-.24.27-.27.24-.23.24-.24.27-.24.24-.24.27-.24.24-.27.26-.24.24-.24.27-.24.24-.24.24-.23.27-.24.27-.24.24-.24.27-.24.27-.21.23-.24.27-.24.27-.24.24-.24.27-.23.27-.24.24-.21.27-.24.27-.24.26-.21.27-.24.27-.24.27-.21.24-.24.27-.23.27-.21.27-.24.27-.21.26-.24.27-.21.27-.24.27-.21.27-.24.3-.21.27-.24.27-.2.27-.21.26-.24.27-.21.27-.21.3-.24.27-.21.27-.21.27-.21.3-.21.26-.24.27-.2.3-.21.27-.21.27-.21.3-.21.27-.21.3-.24.27-.18.26-.21.3-.24.27-.18.3-.2.57-.42.27-.21.3-.21.29-.21.27-.21.3-.18.27-.21.3-.21.3-.21.27-.18.3-.2.3-.21.26-.18.3-.21.3-.21.3-.18.27-.21.3-.18.3-.21.3-.18.29-.21.3-.18.27-.2.3-.18.3-.21.3-.18.3-.18.3-.21.29-.18.3-.18.3-.21.3-.18.3-.18.3-.18.3-.21.59-.35.3-.18.3-.18.3-.18.33-.18.3-.18.3-.18.3-.18.29-.21.33-.15.3-.18.3-.18.3-.17.3-.18.33-.18.3-.18.62-.33.3-.18.3-.18.3-.18.33-.15.3-.18.62-.33.33-.18.6-.32.33-.18.3-.15.33-.18.62-.33.3-.15.33-.18.3-.15.33-.18.3-.15.33-.15.62-.33.33-.14.3-.18.33-.15.33-.15.3-.15.33-.15.32-.18.3-.15.33-.15.33-.15.3-.15.33-.15.33-.15.32-.15.63-.3.33-.14.33-.15.33-.15.3-.15.33-.12.32-.15.33-.15.33-.15.33-.15.33-.12.3-.15.33-.15.32-.12.33-.15.33-.15.33-.12.66-.26.33-.15.32-.15.33-.12.66-.27.33-.12.33-.15.33-.12L246,68l.32-.12.33-.12.33-.12.66-.27.36-.12.65-.27.33-.11.33-.12.66-.24.36-.12.33-.12.65-.24.66-.24.36-.12.33-.12.33-.12.32-.12.36-.12.33-.12.33-.09.33-.12.36-.12.33-.12.32-.08.36-.12.33-.12.33-.09.36-.12.33-.09.33-.12.68-.21.33-.12.69-.21.33-.09.36-.09.68-.21.33-.09.33-.12.36-.09.69-.21.33-.09.35-.09.33-.09.36-.08.33-.09.33-.12.36-.09.32-.09.69-.18.36-.09.33-.09.36-.09.33-.09.36-.09.68-.15.36-.09.33-.09.69-.15.35-.09.33-.09.36-.09.36-.06.33-.09.69-.15.35-.09.36-.06.69-.14.33-.09.36-.06.68-.15.36-.06.33-.09.36-.06.36-.06.36-.09L277,59l.35-.06.33-.06.36-.06.36-.09.33-.06.36-.06.36-.06.32-.06.36-.06.36-.06.33-.06.36-.06.72-.12.32-.06.36-.06.36,0,.33-.06.36-.06.36-.06.36-.06.32,0,.36-.06.72-.09.33-.06.36,0,.35-.06.36-.06.69-.08.36,0,.36-.06.68-.06.36-.06.69-.06.36-.06.72-.06.68-.09.72-.06.69-.06.36,0,.71-.06.36,0,.69-.06.36,0,.36,0,.35,0,.33,0,.36,0,.36,0h.36l.33,0,.36,0,.35,0h.36l.69,0,.36,0,.72,0,.68,0,.72,0,.36,0h.68l.36,0h.72l.36,0h1.4l.69,0h2.12Z"/><path class="cls-10" d="M346.28,532.34c-118.25,27.51-138.95-41.47-143-56.47-7.64-28.23-11.35-83-4.48-112.12,2.39-10.1,6.9-21.63,14.61-30,16.88-18.37,92.47-20,120.73-15.65,11.32,1.73,21.54,5.62,31.64,9.92C401,342.92,413.35,516.74,346.28,532.34Z"/><path class="cls-10" d="M172.34,225.42a4.93,4.93,0,1,1-4.93,4.93A4.94,4.94,0,0,1,172.34,225.42Z"/><path class="cls-10" d="M417.32,234.39a4.93,4.93,0,1,1-4.93,4.93A4.93,4.93,0,0,1,417.32,234.39Z"/><path class="cls-3" d="M498.7,387.59S454.43,392,437.79,371s-2.21-39.29,15.62-29.16,35.43,18.07,51,12.76S526.7,385.08,498.7,387.59Z"/><path d="M488.84,392.48c-14.82,0-41.67-2.43-54.57-18.76-11.53-14.61-9.31-27.14-3.91-33.43,5.88-6.84,15.79-7.78,25.26-2.4C474.5,348.6,489.78,354.8,503,350.31a13,13,0,0,1,14,3.37c5.35,5.49,7,15,3.95,23.17-3.22,8.71-11.16,14.24-21.77,15.2C498.51,392.11,494.57,392.48,488.84,392.48Zm-45.32-49.09a8.12,8.12,0,0,0-6.36,2.74c-3.43,4-3.49,12.37,4.14,22,14.92,18.87,56.54,15,57,15h0c9.16-.81,12.77-5.55,14.19-9.38,2-5.34.55-11.22-2-13.82a4.1,4.1,0,0,0-4.66-1.13c-18.17,6.2-37.74-3.51-54.65-13.1A15.79,15.79,0,0,0,443.52,343.39Z"/><path class="cls-6" d="M341.53,252.34s-32.84.75-63,0-60-12.07-60-12.07S222.65,342.54,276.61,341,338.51,266.29,341.53,252.34Z"/><path class="cls-11" d="M260.71,259.78c1.26,7.32.78,20.91,4.57,27.13,1.83,3,6.34,3.43,9.27,3.73,16.82,1.62,17.68-15.68,21.15-30.53"/><polygon class="cls-6" points="261.07 255.33 261.31 255.36 261.55 255.39 261.79 255.45 262.03 255.51 262.27 255.6 262.51 255.69 262.71 255.78 262.95 255.9 263.16 256.05 263.34 256.17 263.55 256.32 263.73 256.5 263.91 256.67 264.09 256.85 264.24 257.03 264.39 257.24 264.54 257.45 264.66 257.66 264.75 257.87 264.87 258.11 264.96 258.32 265.02 258.56 265.08 258.8 265.13 259.04 265.17 259.24 265.19 259.42 265.23 259.63 265.25 259.84 265.29 260.02 265.31 260.23 265.35 260.44 265.37 260.65 265.4 260.86 265.43 261.07 265.46 261.27 265.46 261.48 265.49 261.69 265.52 261.9 265.55 262.11 265.58 262.32 265.61 262.77 265.67 263.19 265.7 263.64 265.73 264.08 265.79 264.53 265.82 264.98 265.85 265.43 265.88 265.88 265.94 266.35 265.97 266.8 266.03 267.73 266.12 268.65 266.18 269.61 266.21 270.06 266.27 270.54 266.3 271.01 266.33 271.46 266.39 271.94 266.42 272.39 266.45 272.87 266.51 273.31 266.57 273.79 266.57 274 266.6 274.24 266.63 274.45 266.66 274.69 266.69 274.9 266.72 275.14 266.72 275.35 266.75 275.59 266.78 275.8 266.81 276 266.84 276.24 266.87 276.45 266.9 276.66 266.93 276.87 266.96 277.11 266.99 277.32 267.05 277.53 267.08 277.74 267.11 277.95 267.14 278.15 267.17 278.33 267.2 278.54 267.26 278.75 267.29 278.96 267.32 279.14 267.35 279.35 267.41 279.53 267.44 279.74 267.47 279.92 267.52 280.1 267.56 280.28 267.62 280.46 267.64 280.63 267.7 280.81 267.73 280.99 267.79 281.17 267.82 281.35 267.88 281.5 267.91 281.68 267.97 281.83 268 282.01 268.06 282.16 268.12 282.31 268.15 282.46 268.21 282.61 268.27 282.76 268.3 282.88 268.36 283.02 268.42 283.14 268.48 283.29 268.54 283.41 268.57 283.5 268.57 283.53 268.6 283.59 268.63 283.65 268.66 283.71 268.69 283.77 268.72 283.83 268.75 283.89 268.75 283.92 268.78 283.98 268.81 284.04 268.84 284.1 268.87 284.16 268.9 284.22 268.93 284.25 268.96 284.28 268.99 284.34 269.02 284.4 269.02 284.43 269.05 284.49 269.08 284.52 269.11 284.58 269.14 284.61 269.14 284.64 269.17 284.64 269.17 284.67 269.2 284.7 269.23 284.7 269.23 284.73 269.26 284.73 269.26 284.76 269.29 284.79 269.32 284.82 269.35 284.82 269.38 284.85 269.41 284.88 269.44 284.91 269.47 284.91 269.5 284.94 269.53 284.97 269.56 284.97 269.56 285 269.59 285 269.65 285.03 269.68 285.06 269.71 285.06 269.74 285.09 269.8 285.12 269.83 285.12 269.86 285.15 269.89 285.15 269.92 285.18 269.94 285.18 270 285.21 270.06 285.24 270.13 285.26 270.18 285.3 270.21 285.3 270.27 285.32 270.3 285.32 270.33 285.36 270.42 285.38 270.45 285.38 270.48 285.42 270.54 285.42 270.57 285.44 270.63 285.44 270.69 285.47 270.75 285.47 270.78 285.5 270.9 285.53 271.02 285.56 271.14 285.59 271.26 285.62 271.38 285.65 271.5 285.68 271.59 285.71 271.74 285.74 271.86 285.77 271.98 285.77 272.13 285.8 272.25 285.83 272.37 285.86 272.51 285.89 272.66 285.89 272.75 285.92 272.9 285.95 273.05 285.95 273.17 285.98 273.32 285.98 273.47 286.01 273.59 286.01 273.74 286.04 273.86 286.07 274.16 286.1 274.43 286.13 274.7 286.13 274.96 286.16 275.11 286.19 275.29 286.19 275.44 286.22 275.59 286.22 275.77 286.22 275.92 286.25 276.07 286.25 276.22 286.25 276.34 286.25 276.49 286.25 276.64 286.25 276.79 286.25 276.91 286.25 277.06 286.25 277.18 286.25 277.32 286.25 277.44 286.22 277.56 286.22 277.71 286.22 277.83 286.22 277.95 286.19 278.07 286.19 278.19 286.16 278.31 286.16 278.43 286.13 278.55 286.13 278.67 286.1 278.79 286.1 278.88 286.07 279 286.04 279.12 286.04 279.21 286.01 279.33 285.98 279.42 285.95 279.54 285.95 279.63 285.92 279.71 285.89 279.83 285.86 279.92 285.83 280.01 285.8 280.1 285.77 280.22 285.74 280.31 285.71 280.37 285.68 280.49 285.65 280.58 285.62 280.67 285.59 280.76 285.53 280.82 285.5 280.91 285.47 281 285.44 281.09 285.38 281.15 285.36 281.24 285.32 281.33 285.3 281.39 285.24 281.48 285.21 281.57 285.15 281.66 285.12 281.72 285.06 281.78 285.03 281.87 284.97 281.95 284.94 282.01 284.88 282.11 284.82 282.16 284.79 282.22 284.73 282.31 284.67 282.37 284.64 282.43 284.58 282.52 284.52 282.58 284.46 282.67 284.43 282.73 284.37 282.79 284.31 282.88 284.25 282.94 284.19 283 284.13 283.06 284.07 283.15 283.98 283.21 283.92 283.27 283.86 283.33 283.8 283.42 283.74 283.48 283.68 283.54 283.59 283.6 283.53 283.66 283.44 283.75 283.38 283.81 283.32 283.87 283.23 283.93 283.17 283.99 283.08 284.05 283 284.11 282.94 284.17 282.85 284.26 282.76 284.31 282.7 284.38 282.61 284.44 282.52 284.5 282.43 284.55 282.34 284.61 282.25 284.67 282.16 284.73 282.07 284.79 281.98 284.85 281.89 284.91 281.8 284.97 281.71 285.03 281.62 285.09 281.5 285.15 281.41 285.21 281.32 285.27 281.2 285.33 281.11 285.39 280.99 285.45 280.9 285.51 280.78 285.57 280.69 285.6 280.57 285.66 280.49 285.72 280.37 285.78 280.25 285.84 280.13 285.9 280.04 285.96 279.92 285.99 279.8 286.05 279.68 286.11 279.56 286.17 279.44 286.23 279.32 286.26 279.2 286.32 279.08 286.38 278.96 286.44 278.84 286.47 278.72 286.53 278.57 286.59 278.45 286.68 278.19 286.74 278.06 286.76 277.95 286.82 277.83 286.92 277.53 286.97 277.41 287.03 277.29 287.06 277.14 287.12 276.99 287.15 276.87 287.21 276.72 287.24 276.57 287.3 276.45 287.36 276.3 287.39 276.15 287.45 276.03 287.48 275.88 287.54 275.74 287.57 275.59 287.63 275.44 287.72 275.14 287.78 274.84 287.87 274.54 287.96 274.24 288.05 273.94 288.14 273.61 288.2 273.31 288.29 272.99 288.38 272.69 288.47 272.36 288.53 272.03 288.62 271.7 288.68 271.37 288.77 271.05 288.83 270.72 288.92 270.39 289.01 270.06 289.07 269.73 289.13 269.37 289.21 269.04 289.27 268.71 289.37 268.36 289.51 267.67 289.66 266.98 289.78 266.26 290.08 264.86 290.23 264.14 290.38 263.43 290.53 262.71 290.62 262.35 290.68 261.99 290.77 261.63 290.83 261.27 290.92 260.92 291.01 260.56 291.07 260.17 291.16 259.81 291.25 259.45 291.34 259.09 291.4 258.86 291.46 258.62 291.55 258.41 291.67 258.17 291.75 257.96 291.9 257.75 292.02 257.54 292.17 257.33 292.32 257.15 292.5 256.97 292.68 256.79 292.86 256.64 293.07 256.5 293.28 256.35 293.49 256.23 293.7 256.11 293.94 255.99 294.14 255.9 294.38 255.84 294.62 255.78 294.86 255.72 295.1 255.66 295.37 255.66 295.61 255.63 295.85 255.63 296.09 255.66 296.36 255.69 296.59 255.72 296.83 255.78 297.07 255.84 297.28 255.93 297.52 256.02 297.76 256.14 297.97 256.26 298.18 256.38 298.39 256.52 298.57 256.67 298.75 256.85 298.93 257 299.1 257.21 299.25 257.39 299.4 257.6 299.52 257.81 299.64 258.02 299.76 258.23 299.85 258.47 299.94 258.71 300 258.94 300.06 259.18 300.12 259.42 300.15 259.66 300.18 259.9 300.18 260.14 300.15 260.41 300.15 260.65 300.12 260.89 300.06 261.13 299.97 261.48 299.91 261.81 299.82 262.14 299.76 262.5 299.67 262.83 299.61 263.16 299.52 263.52 299.46 263.87 299.37 264.2 299.31 264.56 299.16 265.25 299.01 265.97 298.87 266.65 298.57 268.09 298.42 268.8 298.27 269.52 298.12 270.21 298.06 270.57 297.97 270.93 297.91 271.28 297.82 271.64 297.73 272 297.67 272.36 297.58 272.72 297.49 273.08 297.4 273.43 297.34 273.79 297.25 274.15 297.16 274.51 297.07 274.87 296.98 275.23 296.89 275.56 296.8 275.91 296.71 276.27 296.59 276.63 296.5 276.99 296.42 277.32 296.3 277.68 296.21 278.01 296.15 278.19 296.09 278.36 296.06 278.54 296 278.72 295.94 278.9 295.88 279.05 295.82 279.23 295.76 279.41 295.7 279.59 295.64 279.74 295.58 279.92 295.52 280.1 295.46 280.25 295.4 280.43 295.34 280.61 295.28 280.75 295.22 280.93 295.16 281.11 295.1 281.26 295.04 281.44 294.98 281.62 294.89 281.77 294.83 281.95 294.77 282.1 294.71 282.28 294.62 282.46 294.56 282.61 294.47 282.79 294.41 282.94 294.35 283.08 294.26 283.26 294.2 283.44 294.12 283.59 294.06 283.74 293.96 283.92 293.88 284.07 293.82 284.25 293.73 284.4 293.64 284.55 293.58 284.73 293.49 284.88 293.4 285.03 293.31 285.21 293.22 285.36 293.13 285.5 293.04 285.65 292.95 285.83 292.86 285.98 292.77 286.13 292.68 286.28 292.59 286.43 292.5 286.58 292.38 286.76 292.29 286.88 292.2 287.03 292.08 287.21 291.99 287.33 291.9 287.48 291.78 287.63 291.69 287.77 291.57 287.92 291.46 288.07 291.37 288.22 291.25 288.37 291.13 288.52 291.01 288.67 290.89 288.79 290.8 288.94 290.68 289.06 290.56 289.21 290.41 289.36 290.29 289.48 290.17 289.63 290.05 289.75 289.93 289.9 289.78 290.02 289.66 290.17 289.54 290.28 289.39 290.4 289.27 290.55 289.13 290.67 289.01 290.79 288.86 290.91 288.71 291.03 288.59 291.15 288.44 291.27 288.29 291.39 288.14 291.51 287.99 291.63 287.84 291.75 287.69 291.87 287.51 291.96 287.36 292.08 287.21 292.2 287.06 292.29 286.88 292.41 286.74 292.5 286.59 292.58 286.41 292.7 286.23 292.79 286.08 292.91 285.9 293 285.75 293.09 285.57 293.18 285.39 293.27 285.21 293.36 285.03 293.45 284.85 293.51 284.67 293.6 284.52 293.69 284.35 293.75 284.14 293.84 283.96 293.9 283.78 293.99 283.6 294.05 283.42 294.11 283.21 294.2 283.03 294.26 282.85 294.32 282.64 294.38 282.43 294.44 282.25 294.5 282.05 294.56 281.87 294.59 281.66 294.65 281.48 294.71 281.27 294.74 281.06 294.8 280.88 294.82 280.67 294.86 280.46 294.88 280.25 294.94 280.04 294.98 279.83 295 279.63 295.03 279.42 295.06 279.21 295.09 279 295.09 278.79 295.12 278.58 295.15 278.37 295.15 278.13 295.18 277.92 295.18 277.71 295.18 277.5 295.21 277.26 295.21 277.06 295.21 276.85 295.21 276.61 295.21 276.4 295.21 276.16 295.21 275.95 295.21 275.71 295.21 275.5 295.18 275.26 295.18 275.02 295.15 274.81 295.15 274.58 295.12 274.34 295.12 274.13 295.09 273.83 295.06 273.53 295.03 273.2 295 272.87 294.98 272.72 294.94 272.55 294.94 272.37 294.92 272.19 294.88 272.04 294.86 271.83 294.82 271.65 294.82 271.47 294.8 271.26 294.77 271.08 294.74 270.9 294.71 270.69 294.68 270.48 294.62 270.3 294.59 270.1 294.56 269.89 294.5 269.71 294.47 269.47 294.41 269.26 294.38 269.05 294.32 268.84 294.26 268.63 294.2 268.42 294.14 268.21 294.08 268.09 294.05 268 294.02 267.88 293.99 267.79 293.96 267.64 293.9 267.56 293.87 267.44 293.84 267.32 293.78 267.23 293.75 267.11 293.72 266.99 293.66 266.9 293.63 266.78 293.57 266.69 293.54 266.57 293.48 266.42 293.42 266.33 293.39 266.24 293.33 266.12 293.3 266 293.24 265.91 293.18 265.76 293.12 265.67 293.06 265.58 293 265.43 292.94 265.31 292.88 265.19 292.82 265.11 292.76 265.02 292.7 264.9 292.62 264.78 292.56 264.66 292.46 264.54 292.41 264.45 292.35 264.33 292.26 264.21 292.17 264.12 292.11 264 292.02 263.88 291.93 263.79 291.87 263.67 291.78 263.58 291.69 263.46 291.6 263.37 291.51 263.25 291.42 263.13 291.3 263.04 291.21 262.92 291.12 262.83 291 262.75 290.91 262.63 290.79 262.54 290.7 262.45 290.58 262.33 290.46 262.24 290.34 262.15 290.23 262.06 290.13 261.97 290.02 261.88 289.87 261.79 289.75 261.7 289.63 261.61 289.51 261.55 289.36 261.46 289.24 261.4 289.15 261.34 289.03 261.28 288.94 261.22 288.82 261.16 288.7 261.1 288.61 261.04 288.52 260.98 288.4 260.92 288.31 260.86 288.19 260.8 288.07 260.77 287.98 260.71 287.87 260.65 287.75 260.59 287.65 260.56 287.54 260.5 287.45 260.44 287.33 260.42 287.24 260.36 287.12 260.3 287 260.26 286.88 260.18 286.67 260.09 286.46 260 286.22 259.91 286.01 259.82 285.77 259.76 285.53 259.67 285.32 259.61 285.09 259.52 284.88 259.46 284.64 259.37 284.4 259.31 284.19 259.25 283.95 259.19 283.71 259.13 283.47 259.07 283.23 259.01 283 258.95 282.79 258.89 282.55 258.83 282.31 258.77 282.07 258.71 281.83 258.68 281.59 258.62 281.35 258.56 281.11 258.53 280.87 258.47 280.61 258.44 280.37 258.38 280.13 258.35 279.89 258.29 279.65 258.26 279.41 258.23 279.17 258.17 278.9 258.14 278.66 258.12 278.42 258.06 278.19 258.02 277.95 258 277.68 257.96 277.44 257.94 277.2 257.91 276.93 257.88 276.69 257.85 276.45 257.82 276.18 257.79 275.94 257.76 275.7 257.73 275.47 257.7 275.2 257.67 274.96 257.64 274.72 257.58 274.21 257.55 273.73 257.49 273.23 257.46 272.75 257.4 272.24 257.37 271.76 257.34 271.28 257.28 270.78 257.25 270.3 257.16 269.34 257.1 268.42 257.04 267.49 256.98 267.04 256.95 266.59 256.92 266.18 256.89 265.73 256.86 265.31 256.8 264.89 256.77 264.47 256.74 264.05 256.71 263.67 256.65 263.28 256.65 263.1 256.62 262.89 256.59 262.71 256.56 262.53 256.56 262.35 256.53 262.17 256.5 261.99 256.5 261.81 256.47 261.66 256.44 261.48 256.41 261.33 256.38 261.16 256.38 261.01 256.35 260.86 256.32 260.71 256.29 260.53 256.26 260.29 256.23 260.05 256.23 259.81 256.23 259.57 256.26 259.3 256.29 259.06 256.32 258.82 256.38 258.59 256.47 258.35 256.56 258.11 256.65 257.9 256.77 257.66 256.89 257.45 257.01 257.24 257.16 257.06 257.34 256.85 257.49 256.67 257.67 256.5 257.85 256.35 258.06 256.2 258.26 256.05 258.47 255.93 258.68 255.81 258.89 255.69 259.13 255.6 259.37 255.51 259.61 255.45 259.85 255.39 260.09 255.36 260.32 255.33 260.56 255.33 260.83 255.3 261.07 255.33"/><path class="cls-6" d="M283.12,206.69c13.65.84,24.32,8.58,23.78,17.27s-12.07,15.09-25.72,14.22-24.35-8.57-23.81-17.27S269.44,205.86,283.12,206.69Z"/><polygon class="cls-6" points="280.88 228.98 281.09 228.98 281.27 229.01 281.48 229.04 281.66 229.07 281.87 229.13 282.05 229.19 282.22 229.25 282.4 229.31 282.61 229.4 282.79 229.49 282.94 229.58 283.12 229.7 283.27 229.79 283.45 229.91 283.6 230.06 283.75 230.18 283.9 230.32 284.02 230.44 284.17 230.59 284.29 230.77 284.4 230.92 284.5 231.1 284.61 231.25 284.7 231.43 284.79 231.61 284.85 231.79 284.91 232 284.97 232.18 285.03 232.36 285.09 232.56 285.12 232.74 285.15 232.95 285.15 233.13 285.18 233.34 285.18 233.55 285.18 233.91 285.15 234.27 285.15 234.66 285.12 235.01 285.12 235.4 285.09 235.76 285.09 236.12 285.06 236.51 285.06 236.87 285.03 237.22 285 237.58 284.97 237.94 284.97 238.3 284.94 238.66 284.91 239.05 284.88 239.41 284.85 239.76 284.82 240.12 284.79 240.48 284.76 240.84 284.73 241.17 284.7 241.53 284.64 241.89 284.61 242.25 284.58 242.6 284.55 242.96 284.52 243.29 284.5 243.65 284.4 244.37 284.31 245.05 284.26 245.74 284.17 246.46 284.02 247.83 283.93 248.52 283.87 249.21 283.78 249.86 283.72 250.55 283.63 251.24 283.57 251.92 283.54 252.25 283.51 252.58 283.45 252.94 283.42 253.27 283.39 253.6 283.36 253.93 283.33 254.28 283.3 254.61 283.27 254.94 283.24 255.27 283.21 255.63 283.21 255.96 283.18 256.17 283.15 256.35 283.12 256.56 283.06 256.73 283 256.94 282.94 257.12 282.88 257.3 282.79 257.48 282.7 257.66 282.61 257.84 282.52 258.02 282.4 258.17 282.28 258.35 282.16 258.5 282.05 258.65 281.9 258.8 281.75 258.92 281.6 259.06 281.45 259.18 281.3 259.3 281.12 259.39 280.97 259.51 280.79 259.6 280.61 259.69 280.43 259.75 280.25 259.84 280.04 259.9 279.86 259.96 279.69 259.99 279.48 260.05 279.27 260.05 279.09 260.08 278.88 260.11 278.7 260.11 278.49 260.08 278.28 260.08 278.1 260.05 277.89 260.02 277.71 259.99 277.5 259.93 277.32 259.87 277.14 259.81 276.97 259.72 276.76 259.66 276.61 259.57 276.43 259.45 276.25 259.36 276.1 259.24 275.92 259.12 275.77 259 275.62 258.86 275.5 258.71 275.35 258.59 275.23 258.41 275.11 258.26 274.99 258.11 274.9 257.93 274.79 257.75 274.7 257.6 274.61 257.39 274.55 257.21 274.49 257.03 274.43 256.85 274.37 256.64 274.34 256.46 274.31 256.26 274.28 256.08 274.25 255.87 274.25 255.66 274.25 255.48 274.25 255.27 274.28 254.91 274.31 254.55 274.34 254.19 274.37 253.84 274.4 253.48 274.46 253.12 274.49 252.76 274.52 252.4 274.55 252.04 274.58 251.69 274.61 251.36 274.67 251 274.73 250.28 274.81 249.59 274.88 248.88 274.96 248.19 275.02 247.5 275.11 246.82 275.26 245.44 275.35 244.75 275.41 244.07 275.5 243.38 275.56 242.72 275.59 242.39 275.62 242.03 275.68 241.71 275.71 241.38 275.74 241.02 275.77 240.69 275.8 240.36 275.83 240.03 275.86 239.71 275.89 239.35 275.92 239.02 275.95 238.69 275.98 238.36 276.01 238.03 276.01 237.7 276.04 237.34 276.07 237.02 276.07 236.69 276.1 236.36 276.13 236.03 276.13 235.7 276.16 235.37 276.16 235.04 276.19 234.72 276.19 234.39 276.19 234.03 276.22 233.7 276.22 233.37 276.22 233.16 276.25 232.98 276.25 232.77 276.31 232.59 276.34 232.39 276.4 232.21 276.46 232 276.52 231.82 276.61 231.64 276.67 231.46 276.79 231.28 276.88 231.1 276.97 230.95 277.08 230.77 277.2 230.62 277.36 230.47 277.47 230.32 277.62 230.21 277.77 230.06 277.92 229.94 278.07 229.82 278.25 229.7 278.4 229.61 278.58 229.52 278.76 229.43 278.94 229.34 279.12 229.25 279.33 229.19 279.51 229.13 279.69 229.1 279.89 229.04 280.07 229.01 280.28 228.98 280.49 228.98 280.67 228.98 280.88 228.98"/><path class="cls-10" d="M236,90.27c4.75-2.63,9.74-2.78,11.08-.3s-1.37,6.6-6.15,9.23-9.74,2.75-11.09.3S231.2,92.9,236,90.27Z"/><path class="cls-10" d="M396.62,103.71c3.49,4.18,4.6,9,2.42,10.85s-6.75-.09-10.25-4.28-4.57-9-2.42-10.81S393.12,99.56,396.62,103.71Z"/><path class="cls-12" d="M196.45,109a50.76,50.76,0,1,1-43.11,57.39A50.75,50.75,0,0,1,196.45,109Z"/><path d="M203.58,214.52a55.24,55.24,0,0,1-7.76-109.93h0A55.24,55.24,0,0,1,211.39,214,55.85,55.85,0,0,1,203.58,214.52ZM203.72,113a47.9,47.9,0,0,0-6.63.47h0a45.91,45.91,0,1,0,6.64-.48Zm-7.27-4h0Z"/><path class="cls-6" d="M215.66,121.16a18,18,0,1,1-15.29,20.37A18,18,0,0,1,215.66,121.16Z"/><path class="cls-12" d="M214.17,128.66a5,5,0,0,1,5.73,4.3,5.07,5.07,0,1,1-5.73-4.3Z"/><path class="cls-12" d="M375.35,123.88a50.76,50.76,0,1,1-43.08,57.42A50.78,50.78,0,0,1,375.35,123.88Z"/><path d="M382.37,229.38a55.25,55.25,0,0,1-7.65-109.94h0a55.24,55.24,0,1,1,7.65,109.94ZM376,128.32a46.26,46.26,0,1,0,52.35,39.3A46,46,0,0,0,376,128.32Z"/><path class="cls-6" d="M369.64,136.54A18,18,0,1,1,354.34,157,18.05,18.05,0,0,1,369.64,136.54Z"/><path class="cls-12" d="M368.15,144.07a5.06,5.06,0,1,1-4.31,5.71A5.07,5.07,0,0,1,368.15,144.07Z"/></g></g></svg>