<svg xmlns="http://www.w3.org/2000/svg" xmlns:xlink="http://www.w3.org/1999/xlink" width="600" height="600" viewBox="0 0 600 600"><defs><style>.cls-1{fill:none;clip-rule:evenodd;}.cls-2{isolation:isolate;}.cls-3,.cls-6{fill:#61e0ee;}.cls-10,.cls-11,.cls-12,.cls-3,.cls-4,.cls-5,.cls-9{fill-rule:evenodd;}.cls-5{fill:#d6c295;}.cls-7{clip-path:url(#clip-path);}.cls-8{opacity:0.5;mix-blend-mode:multiply;}.cls-9{fill:#4fcbe0;}.cls-10{fill:#b7f8ff;}.cls-11{fill:#fff;}.cls-12{fill:#ededed;}</style><clipPath id="clip-path"><path class="cls-1" d="M438.07,496.77s22.85-44.91,18.52-83.43c-13.52-120.55,22-144.22,8.12-217.74-4.82-25.55-13.94-54.64-29.46-75.76-34.06-46.49-99.58-70.61-156.58-59.7-22.82,4.36-43.4,14.24-63.79,25.09-70.95,37.67-85.71,117.22-76.46,184.25,4.06,29.67,29.58,75.95,25.85,105.71-7.79,62-5.61,95.61,13.76,135.61,16.51,34.09,80.76,59.79,151,52.49C341,562,412.58,549.5,438.07,496.77Z"/></clipPath></defs><title>1</title><g class="cls-2"><g id="Слой_1" data-name="Слой 1"><path class="cls-3" d="M161.75,176.45c-.82-5-11-12.61-15.27-14.34C95,141.14,113,200.24,143,197.87"/><path class="cls-4" d="M155.78,177.51h0v0Zm-27.76-26h.25l.21,0h.73l.21,0h.24l.24,0h.24l.25,0h.24l.24,0,.24,0,.25,0,.24,0h.24l.24,0,.25,0,.27.06.24,0,.24,0,.28,0,.24,0,.24.06.27,0,.25.06.27,0,.27.07.24,0,.28.06.24.06.27,0,.28.06.27.06.27.06.27.06.25.06.27.06.27.06.27.09.28.06.27.06.3.09.28.07.27.09.27.06.3.09.28.06.27.09.3.09.28.09.3.09.27.06.3.12.31.09.27.1.3.09.31.09.27.09.3.12.3.09.31.09.3.12.3.12.31.09.3.13.3.12.34.09.3.12.3.12.34.12.3.12.3.12.34.16.3.12.33.12.15.06.16.06.15.09.18.06.15.09.15.06.15.06.18.09.13.06.18.1.12.06.18.09.15.09.15.09.16.09.18.09.15.06.15.09.18.12.15.09.16.09.15.1.18.09.15.09.15.12.18.09.16.12.18.09.15.09.18.12.15.13.15.09.18.12.19.12.15.09.18.12.15.12.18.12.19.12.15.13.18.12.15.12.18.12.18.12.16.12.18.12.18.16.15.12.18.12.18.12.19.15.15.12.18.15.15.12.18.16.18.12.19.15.15.15.18.12.15.15.18.12.19.16.15.15.18.15.15.15.18.12.18.15.15.15.19.16.15.15.18.15.15.15.15.15.18.15.16.15.18.19.15.15.15.15.15.15.18.15.16.18.15.16.15.15.15.18.15.15.15.15.16.18.15.19.15.15.15.18.15.15.15.18.12.18.16.16.15.18.12.18.15.18.12.18.15.15.12.19.13.18.15.18.12.21.12.18.12.19.15.18.12.21.12.18.13.21.09.19.12.21.12.21.09.18.06.12.06.12,0,.1.06.12.06.12,0,.06.06.12.06.15,0,.09.06.12.07.12,0,.1,0,.12.06.12.06.12,0,.12,0,.09,0,.15.06.12,0,.16,0,.12,0,.12,0,.09.06.15,0,.15,0,.12,0,.15,0,.13v.12l0,.12.06.33,0,.33v.67l0,.36-.06.34-.06.33-.09.34-.09.3-.12.33-.15.3-.15.31-.16.3-.21.27-.18.28-.21.27-.24.24-.25.24-.27.22-.27.21-.27.18-.31.18-.3.15-.3.12-.31.13-.33.12-.33.09-.34.06-.33.06-.33,0h-.7l-.33,0-.34-.06-.33-.06-.33-.09-.31-.09-.33-.13-.3-.15-.31-.15-.3-.15-.27-.21-.28-.18-.27-.25-.24-.21-.24-.24-.22-.27-.21-.28-.18-.27-.18-.3-.15-.3-.15-.31-.12-.3-.1-.33-.09-.34-.06-.24v-.06l0-.06,0-.06,0-.06,0-.06,0-.06-.06-.06,0-.06,0-.07-.06-.09,0-.06-.06-.09-.06-.06,0-.09-.06-.06-.06-.09-.09-.09-.07-.09-.06-.09-.06-.09-.09-.1-.09-.12-.06-.09-.09-.09-.09-.12-.09-.09-.09-.09-.09-.12-.09-.09-.1-.13-.12-.09-.09-.12-.09-.09-.12-.12-.09-.09-.12-.12-.09-.12-.12-.09-.13-.13-.12-.12-.09-.12-.12-.09-.12-.12-.12-.12-.12-.09-.12-.12-.12-.12-.13-.09-.15-.13-.12-.12-.12-.12-.12-.09-.15-.12-.12-.12-.13-.09-.12-.12-.15-.1-.12-.12-.15-.12-.12-.09-.12-.12-.15-.09-.13-.12-.15-.09-.12-.12-.15-.1-.12-.09-.15-.12-.12-.09-.13-.12-.15-.09-.12-.09-.15-.09-.12-.12-.12-.06-.15-.12-.12-.1L148,170l-.12-.09-.12-.09-.12-.09-.15-.09-.12-.06-.12-.09-.13-.09-.12-.09-.12-.06-.15-.1-.12-.06-.09-.09-.12-.06-.12-.09-.12-.06-.13-.06-.09-.06-.12-.06-.09-.09-.12,0-.09-.06-.12-.06-.06-.06-.12-.06-.1-.07-.09,0-.06,0-.09-.06-.09,0-.09-.06-.06,0-.06,0-.09,0-.06,0h0l-.06,0-.06,0-.06,0-.25-.09-.3-.12-.27-.12-.28-.09-.27-.12-.27-.1-.27-.12-.28-.09-.27-.09-.24-.12-.27-.09-.28-.09-.24-.09-.27-.09-.24-.09-.28-.1-.24-.09-.24-.06-.27-.09-.25-.09-.24-.06-.24-.09-.24-.06-.25-.09-.24-.06-.24-.09-.24-.06-.22-.06-.24-.07-.24-.06-.21-.09-.25-.06-.21-.06-.21,0-.24-.06-.21-.06-.22-.06-.21-.06-.21,0-.24-.06-.19,0-.21-.06-.21,0-.21-.06-.18,0-.22-.06-.21,0-.18,0-.21,0-.18,0-.19,0-.21,0-.18,0-.18,0-.18,0-.19,0-.18,0-.18,0h-.18l-.18,0-.18,0h-.16l-.18,0h-.15l-.18,0h-.15l-.18,0H129l-.15,0h-.48l-.16,0h-1l-.16,0h-.51l-.12,0h-.28l-.09,0h-.12l-.12,0h-.24l-.12,0h-.09l-.12,0-.1,0H125l-.09,0h-.09l-.12,0-.09,0h-.09l-.09,0-.09,0-.09,0h-.1l-.09,0-.09,0-.09,0h-.06l-.09,0-.09,0-.06,0-.09,0-.06,0-.09,0-.06,0h-.06l-.1.06h-.06l-.06,0-.06,0-.06,0-.06,0-.06,0-.06,0-.06,0-.06,0-.06,0-.06,0-.06,0,0,0-.06,0,0,0-.07,0-.06,0,0,0-.06,0,0,0-.06,0,0,.06-.06,0,0,0-.06,0h0l0,.06,0,0-.06,0,0,0,0,0,0,0,0,0,0,0,0,0-.06.06,0,0,0,0,0,0,0,0,0,0,0,.06,0,0,0,0,0,0,0,0,0,.06,0,0,0,.06,0,0,0,0,0,.06v0l0,0,0,.06,0,0,0,.06,0,0v0l0,.06,0,0,0,.06,0,.06v0l0,.06,0,0,0,.06v.06l0,0,0,.06,0,.06v.06l0,.07,0,.06v0l0,.06v.06l0,.09,0,0v.06l0,.06v.06l0,.06,0,.06v.09l0,.06v.12l0,.06v.1l0,.06v.06l0,.09v.12l0,.09v.15l0,.09v.21l0,.1v.57l0,.09v.24l0,.1v.63l0,.12v.28l0,.09v.18l0,.12v.09l0,.09v.12l0,.09v.09l0,.1v.12l0,.09v.12l0,.09,0,.12v.09l0,.09,0,.12v.1l0,.12,0,.09,0,.12,0,.12v.09l0,.09,0,.12,0,.12,0,.09,0,.13,0,.09,0,.12,0,.12,0,.09.06.12,0,.12,0,.12,0,.09,0,.1.06.12,0,.12,0,.12,0,.09.06.12,0,.12,0,.09.05.12,0,.13.06.12,0,.12.06.09,0,.12.06.12,0,.09.06.12.06.12,0,.13.06.12.06.09,0,.12.06.12.06.09.06.12,0,.12.06.13.06.12.07.09.06.12.06.12.06.12.06.12.06.09.06.12.06.13.06.12.06.09.06.12.06.12.06.12.06.12.09.09.06.13.07.09.06.12.06.12.09.12.06.09.06.12.09.12.06.12.09.09.06.13.06.09.09.12.06.12.1.12.06.09.09.12.06.09.09.13.06.09.09.12.09.12.06.09.09.12.09.09.06.12.09.12.1.1.06.09.09.12.09.09.09.12.09.09.06.12.09.09.09.12.09.09.09.13.09.09.1.09.09.09.09.12.09.09.09.09.09.09.09.12.09.09.09.1.09.12.09.09.1.09.12.09.09.09.09.09.09.12.09.09.09.09.12.1.09.09.09.09.1.09.12.09.09.09.09.06.09.12.12.09.09.06.09.09.12.09.09.1.13.09.09.06.09.09.12.09.09.09.12.09.09.06.12.09.09.06.13.09.09.09.09.07.12.09.12.06.09.09.12.06.09.09.12.06.09.09.13.06.12.06.09.09.12.06.09.06.12.07.12.09.12.06.09.06.13.06.09.06.12.09.12.06.12.06.09.06.12.06.12.06.09.06.13.06.12.06.12.06.09,0,.12.07.12.06.12.06.12.06.09,0,.13.06.12.06.12,0,.12.06.09.06.12,0,.12.06.12,0,.13.06.12,0,.12.06.09,0,.12,0,.12.06.12,0,.12,0,.13.07.12,0,.12,0,.09,0,.12,0,.12.06.12,0,.12,0,.12,0,.13,0,.12,0,.12,0,.12,0,.12,0h.12l.12,0,.12,0,.13,0,.12,0h.12l.12,0,.12,0h.12l.12,0,.12,0h.13l.12,0h.12l.12,0h.24l.15,0h.22l.12,0h.63l.12,0h.52l.12,0h.64l.12,0h.15l.33,0,.37,0h.33l.33.06.34.06.33.07.33.09.31.12.3.15.3.15.31.15.3.18.27.22.24.21.28.21.24.24.21.28.21.27.18.27.19.27.18.31.12.3.15.33.09.31.09.33.09.33,0,.34,0,.33,0,.36v.34l0,.33,0,.33-.06.34-.09.33-.09.33-.12.31-.12.33-.15.3-.18.31-.19.27-.18.27-.21.27-.24.25-.24.24-.25.21-.27.21-.27.21-.31.19-.3.15-.3.15-.3.12-.34.12-.33.09-.33.06-.34.06-.33,0h-.21l-.22,0h-.21l-.24,0h-.67l-.21,0h-.88l-.21,0H140l-.21,0h-.21l-.21,0h-.25l-.21,0h-.21l-.21,0-.21,0-.22,0h-.21l-.21,0-.21,0-.22,0-.21,0-.21,0-.21-.06-.21,0-.22,0-.21,0-.21-.06-.18,0-.21,0-.22-.06-.21,0-.21-.06-.18-.06-.21,0-.22-.06-.21-.06-.18-.07-.21-.06-.18,0-.22-.06-.21-.06-.18-.06-.21-.09-.18-.06-.22-.06-.18-.06-.18-.06-.21-.09-.21-.06-.19-.06-.18-.09-.21-.06-.18-.1-.18-.06-.22-.09-.18-.06-.18-.09-.18-.09-.18-.06-.18-.09-.22-.09-.18-.09-.18-.09-.18-.09-.18-.1-.19-.09-.18-.09-.18-.09-.18-.09-.18-.09-.19-.09-.18-.09-.18-.09-.15-.12-.18-.1-.18-.09-.19-.12-.18-.09-.15-.12-.18-.09-.15-.09-.18-.12-.19-.12-.18-.09-.15-.13-.15-.09-.18-.12-.15-.12-.19-.09-.15-.12-.18-.12-.15-.12-.18-.12-.15-.1-.16-.12-.18-.12-.15-.12-.15-.12-.15-.12-.18-.12-.16-.12-.15-.13-.15-.12-.15-.12-.15-.15-.15-.12-.15-.12-.16-.12-.15-.12-.15-.16-.15-.12-.12-.12-.15-.15-.16-.12-.15-.15-.15-.12-.15-.12-.12-.16-.15-.12-.15-.15-.13-.12-.15-.15-.15-.12-.12-.15-.15-.13-.12-.15-.15-.15-.13-.12-.15-.15-.12-.15-.12-.12-.15-.16-.12-.15-.15-.15-.12-.12-.13-.15-.15-.15-.12-.15-.09-.16-.15-.15-.12-.15-.12-.15-.12-.12-.13-.15-.12-.19-.12-.15-.12-.12-.12-.15-.12-.18-.12-.12-.12-.18-.13-.16-.09-.15-.12-.15-.12-.15-.12-.15-.12-.15-.09-.16-.12-.15-.09-.18-.13-.15-.09-.15-.12-.15-.09-.15-.12-.19-.12-.15-.09-.15-.09-.18-.12-.15-.1-.15-.09-.16-.12-.18-.09-.15-.09-.15-.09-.18-.12-.18-.09-.16-.09-.15-.09-.15-.1-.18-.09-.15-.09-.18L112,185l-.09-.18-.09-.15-.09-.18-.06-.15-.09-.18-.09-.16-.09-.18-.09-.15-.06-.18-.1-.15-.09-.18L111,183l-.09-.18-.06-.15-.09-.18-.09-.18-.06-.15-.09-.19-.06-.18-.06-.15-.09-.18-.07-.15-.06-.19-.09-.18-.06-.15-.06-.18-.06-.18-.06-.15-.06-.18-.06-.19-.09-.15-.06-.18-.06-.18,0-.18-.06-.16-.06-.18-.06-.18-.07-.18-.06-.15,0-.18-.06-.19-.06-.15-.06-.18,0-.18-.06-.15,0-.21-.06-.16,0-.18-.06-.18,0-.18-.06-.15,0-.19,0-.18-.06-.18,0-.15,0-.18,0-.18,0-.19,0-.18,0-.18,0-.15,0-.18,0-.19,0-.18,0-.18,0-.18,0-.18,0-.15v-.19l0-.18,0-.18v-.18l0-.15v-.18l0-.22v-.15l0-.18v-.36l0-.16v-.72l0-.18v-.34l0-.21v-.88l0-.18v-.18l0-.18v-.16l0-.18v-.18l0-.18v-.18l0-.18,0-.16,0-.18,0-.18,0-.18v-.18l0-.19.06-.18,0-.15,0-.18,0-.18,0-.18.06-.19,0-.15,0-.18.06-.18.06-.18,0-.15.06-.19.06-.18,0-.18.06-.15.06-.18.06-.19.06-.18.06-.15.09-.18.06-.15.07-.18.06-.19.09-.15.06-.15.09-.18.06-.18.09-.18.09-.16.06-.15.09-.18.09-.15.09-.18.1-.15.09-.16.12-.18.09-.12.09-.18.12-.18.09-.12.09-.15.12-.19.12-.15.1-.15.12-.15.12-.15.12-.15.12-.16.12-.15.12-.12.12-.15.12-.15.13-.15.15-.12.12-.16.12-.12.15-.15.15-.12.12-.15.16-.12.15-.12.15-.16.12-.12.15-.12.15-.12.16-.12.15-.12.18-.12.15-.12.15-.13.15-.12.15-.09.19-.12.15-.12.18-.09.15-.12.18-.09.15-.09.19-.12.18-.1.15-.09.18-.09.18-.09.19-.09.18-.09.18-.09.18-.09.18-.09.18-.06.22-.09.18-.1.18-.06.18-.09.21-.06.19-.06.18-.09.18-.06.21-.06.21-.06.19-.06.18-.06.21-.06.18-.06.21-.06.22,0,.21-.07.18,0,.21-.06.21,0,.22-.06.21,0,.21-.06.18,0,.21,0,.22,0,.21,0,.24,0,.21,0,.19,0,.24,0,.21,0h.21l.21,0,.25,0h.21l.21,0H126l.25,0h.66l.21,0H128Z"/><path class="cls-5" d="M446.4,340.28s34.43,29.18,30.79,56.18-27.06,29.3-32.24,9.18S433.13,367,418.28,359.4,424.86,321.67,446.4,340.28Z"/><path d="M459.06,423.52c-8.67,0-15.86-6.46-18.51-16.74-4.75-18.45-11-36.46-24.35-43.34a13.17,13.17,0,0,1-7.39-12.51c.23-7.77,6-15.68,14.11-19.24,8.63-3.79,18.27-1.92,26.44,5.13,1.72,1.46,36.25,31.22,32.34,60.25-2.5,18.7-13.2,25.92-21.59,26.42Zm-27-84.68a13.55,13.55,0,0,0-5.47,1.17c-5.29,2.33-8.57,7.52-8.68,11.18a4.11,4.11,0,0,0,2.45,4.16c16.57,8.52,23.73,28.66,29,49.16,1.65,6.39,5.57,10.14,10.22,9.91,5.34-.32,11.46-6.18,13.12-18.56,3.26-24.21-28.9-51.84-29.23-52.12l0,0C439.17,340,435.29,338.84,432.05,338.84Z"/><path class="cls-6" d="M317.49,77a5.16,5.16,0,0,1-.67,0A4.55,4.55,0,0,1,313,71.78c3.46-23.41,9.85-36.28,19.52-39.37C340,30,346.9,34.55,349.83,37.6a4.54,4.54,0,0,1-6.54,6.31c-.12-.12-4.17-4.09-8.05-2.83-2.69.88-9.37,5.76-13.26,32A4.54,4.54,0,0,1,317.49,77Z"/><path class="cls-6" d="M300.75,74.35a4.55,4.55,0,0,1-4.5-4C292.59,41.53,285.56,37,283.49,36.3c-3.3-1.12-6.74,2.31-6.78,2.34a4.54,4.54,0,0,1-6.53-6.32c2.7-2.82,9.15-7,16.13-4.67,9.61,3.18,15.82,16.78,19,41.58a4.56,4.56,0,0,1-3.94,5.09A5.49,5.49,0,0,1,300.75,74.35Z"/><path class="cls-6" d="M309.27,68.32a4.55,4.55,0,0,1-4.53-4.22c-2-28.52,1.54-45.11,10.95-50.72,6-3.58,12.52-1.41,15.42.44a4.54,4.54,0,0,1-4.84,7.69c-.22-.13-3.32-1.93-6-.29s-8.85,9.15-6.48,42.23a4.55,4.55,0,0,1-4.21,4.86Z"/><path class="cls-5" d="M399.92,561s-2.46-45.06-26.16-58.45-39.7,3.88-26.82,20.15,23.64,32.73,20.76,49.18S401.76,589.38,399.92,561Z"/><path d="M380.52,588a20.2,20.2,0,0,1-11.78-3.49A13.13,13.13,0,0,1,363.23,571c2.44-13.94-6.17-28.3-19.85-45.57-6.85-8.65-7.43-18.73-1.49-25.67,5.46-6.39,17.67-10.55,34.11-1.26,25.47,14.4,28.33,59.88,28.45,62.14.7,10.78-3.62,19.59-11.85,24.18A24.94,24.94,0,0,1,380.52,588Zm-22.79-85.73c-4.06,0-7.15,1.37-8.94,3.46-3,3.54-2.37,8.95,1.72,14.12,12.24,15.46,25,33.58,21.67,52.79a4.12,4.12,0,0,0,1.83,4.47c3,2.12,9.11,2.64,14.16-.17,3.62-2,7.82-6.38,7.21-15.67v0c0-.42-2.62-42.74-23.85-54.75C366.25,503.47,361.56,502.25,357.73,502.25Z"/><path class="cls-5" d="M196.06,566.2s23.85-38.31,12.12-62.89-34.73-19.63-33.52,1.13.55,40.36-11.24,52.15S181.24,590.53,196.06,566.2Z"/><path d="M178.73,581.69q-1.2,0-2.4-.12c-8.79-.92-16.74-6.68-19.34-14a13.19,13.19,0,0,1,3.22-14.19c10.59-10.59,11-29.65,9.91-48.67-.64-11,4.66-19.63,13.52-21.9,8.15-2.09,20.53,1.51,28.64,18.56,12.61,26.42-11.17,65.32-12.35,67.22C194.79,577,187.16,581.69,178.73,581.69ZM188,491.35a8.37,8.37,0,0,0-2.09.25c-4.52,1.16-7.08,6-6.7,12.57,1.23,21.13.57,42.5-12.57,55.63a4.14,4.14,0,0,0-1.07,4.72c1.23,3.47,5.94,7.4,11.7,8,4.13.43,10.07-.73,14.91-8.69l0,0c.22-.37,22.39-36.5,11.88-58.53C199.39,495.43,193,491.35,188,491.35Z"/><path class="cls-3" d="M440.92,137.63c4.73,1.76,9.85-1.21,13.45-4,43.95-34.13-16.12-47.79-29.09-20.64"/><polygon class="cls-4" points="451.34 92.5 451.52 92.5 451.71 92.5 451.89 92.5 452.1 92.5 452.28 92.5 452.46 92.5 452.68 92.53 452.83 92.53 453.04 92.53 453.22 92.56 453.4 92.56 453.59 92.56 453.77 92.6 453.95 92.6 454.16 92.63 454.31 92.63 454.53 92.66 454.71 92.66 454.89 92.69 455.07 92.72 455.25 92.72 455.43 92.75 455.62 92.78 455.8 92.78 455.98 92.81 456.16 92.84 456.34 92.87 456.52 92.9 456.71 92.93 456.89 92.93 457.07 92.96 457.25 92.99 457.44 93.02 457.62 93.05 457.8 93.11 457.98 93.14 458.16 93.17 458.31 93.2 458.52 93.23 458.71 93.26 458.86 93.32 459.04 93.35 459.22 93.38 459.4 93.44 459.59 93.47 459.74 93.5 459.92 93.57 460.1 93.6 460.28 93.66 460.44 93.69 460.62 93.75 460.8 93.81 460.98 93.84 461.13 93.9 461.31 93.96 461.5 93.99 461.65 94.05 461.83 94.11 462.01 94.17 462.16 94.23 462.34 94.29 462.5 94.32 462.68 94.38 462.86 94.47 463.01 94.5 463.16 94.56 463.34 94.66 463.53 94.72 463.68 94.78 463.86 94.84 464.01 94.9 464.16 94.99 464.34 95.05 464.5 95.11 464.65 95.2 464.83 95.26 464.98 95.35 465.13 95.41 465.31 95.5 465.46 95.56 465.62 95.66 465.8 95.72 465.95 95.81 466.1 95.9 466.25 95.96 466.4 96.05 466.59 96.14 466.74 96.23 466.86 96.32 467.04 96.41 467.19 96.5 467.34 96.6 467.5 96.69 467.65 96.78 467.8 96.87 467.95 96.96 468.1 97.05 468.22 97.14 468.37 97.26 468.53 97.35 468.68 97.44 468.83 97.56 468.95 97.66 469.1 97.78 469.25 97.87 469.4 97.99 469.53 98.08 469.68 98.2 469.8 98.32 469.95 98.44 470.1 98.53 470.22 98.66 470.38 98.78 470.5 98.9 470.62 99.02 470.77 99.14 470.89 99.26 471.01 99.38 471.16 99.5 471.28 99.63 471.4 99.75 471.53 99.9 471.68 100.02 471.8 100.17 471.92 100.29 472.04 100.41 472.13 100.57 472.25 100.69 472.38 100.84 472.5 100.99 472.62 101.11 472.74 101.26 472.86 101.41 472.95 101.57 473.07 101.69 473.16 101.84 473.28 101.99 473.38 102.14 473.5 102.32 473.59 102.47 473.68 102.6 473.8 102.75 473.89 102.93 473.98 103.08 474.07 103.26 474.16 103.42 474.25 103.57 474.34 103.72 474.44 103.9 474.53 104.08 474.62 104.23 474.71 104.41 474.77 104.6 474.86 104.75 474.92 104.93 475.01 105.08 475.07 105.26 475.13 105.44 475.22 105.63 475.28 105.81 475.35 105.99 475.4 106.17 475.47 106.35 475.53 106.54 475.59 106.72 475.65 106.9 475.68 107.08 475.74 107.26 475.8 107.47 475.83 107.66 475.86 107.84 475.92 108.02 475.95 108.23 475.98 108.42 476.01 108.6 476.04 108.78 476.07 108.99 476.1 109.17 476.13 109.38 476.16 109.57 476.19 109.78 476.19 109.96 476.22 110.17 476.22 110.35 476.25 110.54 476.25 110.75 476.25 110.93 476.25 111.14 476.25 111.35 476.25 111.54 476.25 111.75 476.25 111.93 476.25 112.14 476.25 112.32 476.22 112.54 476.22 112.75 476.19 112.93 476.19 113.14 476.16 113.36 476.13 113.54 476.13 113.72 476.1 113.93 476.07 114.14 476.04 114.35 476.01 114.54 475.95 114.75 475.92 114.96 475.89 115.14 475.86 115.35 475.8 115.54 475.77 115.75 475.71 115.93 475.65 116.14 475.62 116.36 475.56 116.54 475.5 116.75 475.44 116.93 475.38 117.14 475.31 117.35 475.25 117.54 475.19 117.75 475.1 117.96 475.04 118.14 474.98 118.36 474.89 118.54 474.83 118.75 474.74 118.96 474.65 119.14 474.59 119.32 474.5 119.54 474.4 119.75 474.31 119.93 474.22 120.14 474.13 120.35 474.04 120.54 473.95 120.75 473.86 120.93 473.74 121.14 473.65 121.32 473.56 121.54 473.44 121.75 473.35 121.93 473.22 122.14 473.1 122.33 473.01 122.54 472.89 122.72 472.77 122.93 472.65 123.11 472.53 123.32 472.4 123.51 472.28 123.72 472.16 123.93 472.01 124.11 471.89 124.32 471.77 124.51 471.62 124.72 471.5 124.9 471.34 125.11 471.22 125.33 471.07 125.51 470.92 125.72 470.8 125.9 470.65 126.11 470.5 126.33 470.35 126.51 470.19 126.72 470.01 126.9 469.86 127.11 469.71 127.29 469.56 127.51 469.38 127.72 469.22 127.9 469.04 128.11 468.89 128.29 468.71 128.51 468.53 128.72 468.37 128.9 468.19 129.11 468.01 129.32 467.83 129.51 467.65 129.72 467.47 129.93 467.28 130.11 467.07 130.32 466.89 130.54 466.71 130.72 466.5 130.93 466.31 131.14 466.1 131.32 465.92 131.54 465.71 131.75 465.5 131.96 465.28 132.14 465.1 132.36 464.86 132.57 464.65 132.78 464.44 132.96 464.22 133.17 464.01 133.39 463.8 133.6 463.56 133.78 463.34 133.99 463.1 134.2 462.86 134.42 462.65 134.63 462.4 134.84 462.16 135.02 461.92 135.23 461.68 135.45 461.46 135.66 461.19 135.87 460.95 136.08 460.71 136.29 460.46 136.51 460.19 136.72 459.95 136.93 459.68 137.14 459.44 137.32 459.16 137.54 458.89 137.75 458.62 137.96 458.34 138.17 458.07 138.39 457.89 138.54 457.68 138.69 457.5 138.84 457.28 139.02 457.07 139.17 456.86 139.32 456.65 139.48 456.43 139.63 456.19 139.78 455.98 139.93 455.74 140.08 455.52 140.23 455.28 140.39 455.04 140.54 454.8 140.69 454.56 140.84 454.34 140.99 454.19 141.08 454.07 141.14 453.95 141.2 453.83 141.29 453.68 141.36 453.56 141.45 453.43 141.51 453.31 141.57 453.16 141.66 453.04 141.72 452.89 141.78 452.77 141.87 452.65 141.93 452.5 141.99 452.34 142.05 452.22 142.14 452.07 142.21 451.95 142.26 451.8 142.32 451.65 142.39 451.52 142.45 451.37 142.54 451.22 142.6 451.1 142.66 450.95 142.72 450.8 142.78 450.65 142.84 450.5 142.9 450.34 142.96 450.19 142.99 450.04 143.05 449.92 143.11 449.77 143.17 449.62 143.24 449.43 143.26 449.28 143.33 449.13 143.39 448.98 143.42 448.8 143.48 448.65 143.51 448.5 143.57 448.31 143.63 448.16 143.66 448.01 143.69 447.83 143.75 447.68 143.78 447.52 143.81 447.34 143.84 447.16 143.9 447.01 143.93 446.83 143.96 446.65 143.99 446.49 144.02 446.31 144.02 446.13 144.05 445.95 144.08 445.8 144.11 445.62 144.11 445.43 144.14 445.25 144.17 445.07 144.17 444.89 144.17 444.71 144.2 444.52 144.2 444.34 144.2 444.16 144.2 443.98 144.2 443.77 144.2 443.62 144.2 443.4 144.2 443.22 144.2 443.04 144.2 442.83 144.17 442.65 144.17 442.46 144.14 442.25 144.11 442.07 144.11 441.89 144.08 441.68 144.05 441.49 144.02 441.31 143.99 441.13 143.96 440.92 143.9 440.71 143.87 440.52 143.84 440.34 143.78 440.16 143.72 439.98 143.69 439.77 143.63 439.56 143.57 439.37 143.51 439.19 143.45 438.98 143.36 438.83 143.29 438.52 143.17 438.22 143.05 437.92 142.9 437.65 142.72 437.37 142.54 437.13 142.32 436.86 142.11 436.64 141.9 436.4 141.66 436.19 141.42 436.01 141.14 435.83 140.87 435.65 140.6 435.49 140.29 435.34 139.99 435.22 139.69 435.13 139.39 435.04 139.08 434.98 138.75 434.92 138.42 434.89 138.11 434.86 137.78 434.86 137.45 434.89 137.11 434.92 136.78 434.98 136.48 435.04 136.14 435.13 135.84 435.25 135.51 435.37 135.2 435.49 134.9 435.68 134.63 435.83 134.35 436.01 134.08 436.22 133.81 436.43 133.57 436.64 133.32 436.89 133.11 437.13 132.9 437.4 132.69 437.68 132.51 437.95 132.32 438.25 132.17 438.56 132.05 438.86 131.93 439.16 131.81 439.49 131.75 439.8 131.66 440.13 131.63 440.46 131.57 440.77 131.57 441.1 131.57 441.43 131.6 441.77 131.63 442.1 131.69 442.4 131.75 442.74 131.84 443.04 131.93 443.1 131.96 443.16 131.99 443.19 131.99 443.22 131.99 443.28 132.02 443.31 132.02 443.37 132.05 443.4 132.05 443.43 132.05 443.49 132.05 443.52 132.05 443.56 132.08 443.58 132.08 443.62 132.08 443.65 132.08 443.68 132.08 443.71 132.08 443.74 132.08 443.8 132.08 443.83 132.08 443.86 132.08 443.89 132.08 443.95 132.08 444.01 132.08 444.1 132.08 444.19 132.08 444.22 132.08 444.28 132.08 444.31 132.08 444.43 132.05 444.46 132.05 444.52 132.05 444.56 132.05 444.62 132.02 444.68 132.02 444.71 132.02 444.77 131.99 444.83 131.99 444.89 131.99 444.95 131.96 445.07 131.93 445.19 131.9 445.22 131.9 445.28 131.87 445.34 131.87 445.4 131.84 445.46 131.81 445.62 131.78 445.65 131.75 445.74 131.75 445.8 131.72 445.86 131.69 445.92 131.66 445.98 131.63 446.07 131.63 446.13 131.6 446.19 131.57 446.28 131.54 446.34 131.51 446.4 131.48 446.46 131.45 446.62 131.39 446.68 131.35 446.83 131.26 446.89 131.23 446.98 131.2 447.07 131.17 447.13 131.14 447.28 131.05 447.34 131.02 447.43 130.96 447.5 130.93 447.65 130.84 447.71 130.81 447.8 130.78 447.89 130.72 448.04 130.63 448.1 130.6 448.25 130.51 448.4 130.42 448.56 130.29 448.71 130.2 448.86 130.11 449.01 130.02 449.16 129.9 449.31 129.81 449.46 129.69 449.62 129.6 449.77 129.48 449.92 129.38 450.07 129.26 450.22 129.17 450.37 129.05 450.5 128.93 450.65 128.81 450.89 128.63 451.13 128.45 451.34 128.26 451.58 128.08 451.83 127.9 452.04 127.72 452.28 127.54 452.5 127.36 452.71 127.17 452.95 126.99 453.16 126.81 453.37 126.63 453.59 126.45 453.8 126.26 454.01 126.08 454.19 125.9 454.4 125.72 454.59 125.57 454.8 125.39 454.98 125.2 455.19 125.02 455.37 124.87 455.56 124.69 455.74 124.51 455.92 124.36 456.1 124.17 456.28 123.99 456.46 123.84 456.62 123.66 456.8 123.51 456.98 123.32 457.13 123.17 457.31 122.99 457.46 122.84 457.62 122.69 457.77 122.51 457.95 122.36 458.1 122.2 458.25 122.02 458.4 121.87 458.52 121.72 458.68 121.54 458.83 121.39 458.95 121.23 459.1 121.08 459.22 120.93 459.37 120.78 459.5 120.63 459.62 120.48 459.77 120.32 459.89 120.17 460.01 120.02 460.13 119.87 460.25 119.72 460.37 119.6 460.46 119.45 460.59 119.29 460.71 119.14 460.8 119.02 460.92 118.87 461.01 118.72 461.1 118.6 461.22 118.45 461.31 118.29 461.4 118.17 461.5 118.05 461.59 117.9 461.68 117.78 461.77 117.63 461.86 117.51 461.95 117.39 462.04 117.23 462.1 117.11 462.19 116.99 462.25 116.87 462.34 116.75 462.4 116.6 462.5 116.48 462.56 116.39 462.62 116.23 462.68 116.11 462.77 115.99 462.83 115.9 462.89 115.78 462.95 115.66 462.98 115.54 463.04 115.44 463.1 115.32 463.16 115.2 463.19 115.11 463.25 114.99 463.31 114.87 463.34 114.78 463.4 114.69 463.44 114.57 463.46 114.44 463.53 114.35 463.56 114.26 463.59 114.17 463.65 114.05 463.68 113.96 463.71 113.87 463.74 113.78 463.77 113.69 463.8 113.6 463.83 113.5 463.83 113.42 463.86 113.32 463.89 113.23 463.92 113.14 463.92 113.05 463.95 112.99 463.98 112.9 463.98 112.81 464.01 112.75 464.01 112.66 464.04 112.57 464.04 112.51 464.07 112.42 464.07 112.35 464.07 112.29 464.1 112.2 464.1 112.14 464.1 112.05 464.13 111.99 464.13 111.93 464.13 111.84 464.13 111.81 464.13 111.75 464.13 111.66 464.13 111.6 464.13 111.54 464.13 111.47 464.13 111.42 464.13 111.35 464.13 111.32 464.13 111.26 464.13 111.2 464.13 111.11 464.13 111.08 464.13 111.02 464.13 110.96 464.1 110.9 464.1 110.87 464.1 110.81 464.1 110.78 464.1 110.72 464.07 110.66 464.07 110.63 464.07 110.57 464.04 110.54 464.04 110.47 464.04 110.42 464.01 110.39 464.01 110.32 463.98 110.29 463.98 110.23 463.98 110.2 463.95 110.14 463.95 110.11 463.92 110.05 463.92 110.02 463.89 109.96 463.89 109.93 463.86 109.87 463.86 109.84 463.83 109.81 463.8 109.75 463.8 109.72 463.77 109.66 463.74 109.63 463.74 109.57 463.71 109.54 463.68 109.51 463.68 109.47 463.65 109.42 463.62 109.35 463.59 109.32 463.56 109.29 463.53 109.23 463.53 109.2 463.5 109.17 463.46 109.11 463.44 109.05 463.4 109.02 463.37 108.99 463.34 108.93 463.31 108.9 463.28 108.84 463.22 108.81 463.22 108.75 463.16 108.72 463.13 108.66 463.1 108.63 463.07 108.6 463.04 108.54 462.98 108.51 462.95 108.44 462.89 108.42 462.86 108.35 462.83 108.32 462.77 108.26 462.74 108.23 462.68 108.17 462.65 108.14 462.59 108.08 462.53 108.05 462.5 107.99 462.44 107.96 462.37 107.9 462.34 107.87 462.28 107.81 462.22 107.78 462.16 107.72 462.13 107.69 462.07 107.63 462.01 107.6 461.95 107.54 461.89 107.5 461.83 107.44 461.77 107.41 461.71 107.39 461.62 107.32 461.56 107.26 461.5 107.23 461.43 107.2 461.37 107.14 461.28 107.11 461.22 107.05 461.16 107.02 461.07 106.96 461.01 106.93 460.95 106.87 460.86 106.84 460.8 106.81 460.71 106.75 460.62 106.72 460.56 106.69 460.5 106.63 460.4 106.6 460.31 106.54 460.22 106.51 460.13 106.44 460.07 106.42 459.98 106.38 459.89 106.35 459.8 106.29 459.71 106.26 459.62 106.23 459.53 106.17 459.46 106.14 459.37 106.11 459.25 106.08 459.16 106.02 459.07 105.99 458.98 105.96 458.89 105.93 458.8 105.9 458.71 105.84 458.62 105.81 458.52 105.78 458.4 105.75 458.31 105.72 458.19 105.69 458.1 105.66 458.01 105.63 457.92 105.6 457.8 105.54 457.71 105.5 457.59 105.47 457.46 105.44 457.37 105.41 457.28 105.38 457.16 105.35 457.04 105.35 456.95 105.32 456.83 105.29 456.71 105.26 456.62 105.23 456.5 105.2 456.4 105.17 456.28 105.14 456.16 105.14 456.04 105.11 455.95 105.08 455.83 105.05 455.71 105.05 455.59 105.02 455.46 104.99 455.34 104.96 455.22 104.96 455.13 104.93 455.01 104.93 454.89 104.9 454.77 104.87 454.65 104.87 454.53 104.84 454.4 104.84 454.28 104.81 454.16 104.81 454.04 104.78 453.92 104.78 453.8 104.75 453.65 104.75 453.52 104.72 453.4 104.72 453.28 104.72 453.16 104.69 453.04 104.69 452.92 104.69 452.8 104.66 452.68 104.66 452.52 104.66 452.4 104.66 452.28 104.63 452.13 104.63 452.04 104.63 451.89 104.63 451.77 104.63 451.65 104.63 451.5 104.63 451.37 104.63 451.25 104.63 451.1 104.63 450.98 104.63 450.86 104.63 450.74 104.63 450.62 104.63 450.46 104.63 450.31 104.63 450.22 104.63 450.07 104.63 449.92 104.63 449.8 104.63 449.68 104.66 449.56 104.66 449.4 104.66 449.28 104.66 449.13 104.69 449.01 104.69 448.89 104.69 448.74 104.72 448.62 104.72 448.5 104.72 448.34 104.75 448.22 104.75 448.07 104.78 447.95 104.78 447.8 104.81 447.68 104.81 447.56 104.84 447.43 104.84 447.28 104.87 447.13 104.9 447.01 104.9 446.89 104.93 446.74 104.96 446.62 104.96 446.49 104.99 446.34 105.02 446.22 105.02 446.1 105.05 445.95 105.08 445.83 105.11 445.71 105.14 445.56 105.17 445.43 105.17 445.28 105.2 445.16 105.23 445.04 105.26 444.89 105.29 444.77 105.32 444.65 105.35 444.5 105.38 444.37 105.41 444.25 105.44 444.1 105.47 443.98 105.54 443.83 105.57 443.71 105.6 443.58 105.63 443.46 105.66 443.31 105.72 443.19 105.75 443.07 105.78 442.95 105.81 442.83 105.87 442.68 105.9 442.56 105.93 442.43 105.99 442.31 106.02 442.19 106.05 442.04 106.11 441.92 106.14 441.8 106.2 441.68 106.23 441.56 106.29 441.43 106.32 441.28 106.38 441.16 106.44 441.04 106.47 440.92 106.54 440.8 106.57 440.68 106.63 440.56 106.69 440.43 106.75 440.31 106.78 440.19 106.84 440.07 106.9 439.95 106.96 439.86 106.99 439.71 107.05 439.58 107.11 439.49 107.17 439.37 107.23 439.25 107.29 439.13 107.35 439.01 107.41 438.89 107.47 438.8 107.5 438.65 107.6 438.56 107.66 438.43 107.72 438.31 107.78 438.22 107.84 438.1 107.9 437.98 107.96 437.86 108.02 437.77 108.08 437.65 108.14 437.52 108.23 437.43 108.29 437.31 108.35 437.22 108.42 437.1 108.51 437.01 108.57 436.89 108.63 436.8 108.72 436.68 108.78 436.58 108.84 436.46 108.93 436.37 108.99 436.28 109.08 436.16 109.14 436.07 109.23 435.95 109.29 435.86 109.35 435.77 109.44 435.65 109.54 435.56 109.6 435.46 109.69 435.37 109.75 435.28 109.84 435.16 109.93 435.07 109.99 434.98 110.08 434.89 110.17 434.8 110.23 434.71 110.32 434.62 110.42 434.52 110.5 434.43 110.57 434.34 110.66 434.25 110.75 434.16 110.84 434.07 110.93 433.98 111.02 433.89 111.11 433.8 111.17 433.74 111.26 433.64 111.35 433.55 111.44 433.46 111.54 433.37 111.66 433.31 111.72 433.22 111.81 433.13 111.9 433.07 112.02 432.98 112.11 432.92 112.2 432.83 112.29 432.74 112.39 432.68 112.48 432.58 112.6 432.52 112.69 432.43 112.78 432.37 112.87 432.31 112.99 432.22 113.08 432.16 113.17 432.07 113.26 432.01 113.39 431.95 113.47 431.89 113.6 431.8 113.69 431.74 113.81 431.68 113.9 431.62 114.02 431.52 114.11 431.46 114.23 431.4 114.32 431.34 114.44 431.28 114.54 431.22 114.66 431.16 114.78 431.1 114.9 431.04 114.99 430.98 115.11 430.92 115.23 430.86 115.35 430.8 115.44 430.74 115.6 430.58 115.87 430.43 116.17 430.25 116.45 430.04 116.69 429.83 116.96 429.62 117.2 429.37 117.42 429.13 117.63 428.89 117.84 428.62 118.02 428.31 118.2 428.04 118.36 427.74 118.51 427.43 118.63 427.13 118.72 426.8 118.81 426.49 118.9 426.16 118.96 425.86 118.99 425.52 119.02 425.19 119.02 424.86 118.99 424.52 118.96 424.22 118.93 423.89 118.84 423.55 118.78 423.25 118.66 422.95 118.54 422.64 118.42 422.37 118.26 422.07 118.11 421.8 117.93 421.52 117.72 421.28 117.51 421.04 117.29 420.83 117.05 420.61 116.81 420.4 116.54 420.22 116.26 420.04 115.99 419.89 115.72 419.74 115.42 419.62 115.11 419.52 114.81 419.43 114.47 419.34 114.17 419.28 113.84 419.25 113.5 419.22 113.17 419.22 112.87 419.25 112.54 419.28 112.2 419.31 111.87 419.37 111.57 419.46 111.23 419.58 110.93 419.68 110.63 419.83 110.32 419.92 110.14 420.01 109.93 420.1 109.75 420.22 109.57 420.31 109.35 420.43 109.14 420.52 108.96 420.61 108.78 420.74 108.57 420.86 108.38 420.95 108.17 421.07 107.99 421.19 107.81 421.31 107.63 421.4 107.44 421.52 107.26 421.64 107.08 421.77 106.9 421.89 106.72 422.01 106.54 422.13 106.35 422.25 106.17 422.37 105.99 422.49 105.84 422.64 105.66 422.77 105.47 422.89 105.32 423.01 105.14 423.16 104.99 423.28 104.81 423.43 104.66 423.55 104.47 423.7 104.29 423.83 104.14 423.98 103.99 424.1 103.84 424.25 103.69 424.4 103.51 424.52 103.35 424.68 103.2 424.83 103.05 424.95 102.9 425.1 102.75 425.25 102.6 425.4 102.44 425.55 102.29 425.71 102.17 425.86 102.02 426.01 101.87 426.16 101.72 426.31 101.57 426.46 101.44 426.61 101.29 426.77 101.17 426.92 101.02 427.07 100.9 427.25 100.75 427.4 100.63 427.55 100.5 427.71 100.35 427.86 100.23 428.04 100.11 428.19 99.96 428.34 99.84 428.52 99.72 428.68 99.6 428.86 99.47 429.01 99.35 429.19 99.23 429.34 99.11 429.52 98.99 429.68 98.9 429.86 98.78 430.01 98.66 430.19 98.53 430.34 98.41 430.52 98.32 430.71 98.2 430.86 98.11 431.04 97.99 431.22 97.87 431.37 97.78 431.55 97.69 431.74 97.56 431.92 97.47 432.07 97.38 432.25 97.26 432.43 97.17 432.62 97.08 432.8 96.99 432.98 96.87 433.13 96.81 433.31 96.69 433.49 96.6 433.68 96.5 433.86 96.41 434.04 96.32 434.22 96.26 434.4 96.17 434.74 95.99 434.95 95.9 435.13 95.84 435.31 95.75 435.49 95.66 435.68 95.6 435.86 95.5 436.04 95.44 436.22 95.35 436.4 95.29 436.58 95.2 436.77 95.14 436.95 95.05 437.13 94.99 437.34 94.93 437.52 94.87 437.71 94.78 437.89 94.72 438.07 94.66 438.25 94.59 438.43 94.53 438.65 94.47 438.83 94.41 439.01 94.35 439.19 94.29 439.37 94.23 439.58 94.17 439.77 94.11 439.95 94.05 440.13 94.02 440.31 93.96 440.52 93.9 440.71 93.84 440.89 93.81 441.07 93.75 441.28 93.72 441.46 93.66 441.65 93.63 441.83 93.57 442.04 93.5 442.22 93.47 442.4 93.44 442.58 93.38 442.8 93.35 442.98 93.32 443.16 93.26 443.34 93.23 443.56 93.2 443.74 93.17 444.13 93.08 444.5 93.02 444.71 92.99 444.89 92.96 445.07 92.93 445.25 92.9 445.46 92.87 445.83 92.84 446.04 92.81 446.22 92.78 446.4 92.75 446.62 92.75 446.98 92.69 447.34 92.66 447.56 92.66 447.77 92.63 447.95 92.63 448.13 92.6 448.31 92.6 448.5 92.56 448.71 92.56 448.89 92.53 449.07 92.53 449.25 92.53 449.46 92.53 449.83 92.5 450.04 92.5 450.4 92.5 450.59 92.5 450.8 92.5 450.98 92.5 451.16 92.5 451.34 92.5"/><path class="cls-3" d="M438.07,496.77s22.85-44.91,18.52-83.43c-13.52-120.55,22-144.22,8.12-217.74-4.82-25.55-13.94-54.64-29.46-75.76-34.06-46.49-99.58-70.61-156.58-59.7-22.82,4.36-43.4,14.24-63.79,25.09-70.95,37.67-85.71,117.22-76.46,184.25,4.06,29.67,29.58,75.95,25.85,105.71-7.79,62-5.61,95.61,13.76,135.61,16.51,34.09,80.76,59.79,151,52.49C341,562,412.58,549.5,438.07,496.77Z"/><g class="cls-7"><g class="cls-8"><path class="cls-9" d="M184.51,114.41s-23.55,57.46-9.18,104S215,329.82,210.94,394.73,213.82,501.59,228.18,520c29,37.13,108,42.49,128.1,36.76s-79.28,20.67-136.16-2.3S155.21,435,162.69,374.64,121.9,297.09,138,193.12C163.84,132.23,164.39,135.69,184.51,114.41Z"/></g><g class="cls-8"><path class="cls-9" d="M279.36,203.57s-7,35.31-49.09,33.25-45-45-45-45Z"/></g><g class="cls-8"><path class="cls-9" d="M459.25,185.63s-7,35.31-49.09,33.24-45-45-45-45Z"/></g></g><path class="cls-4" d="M306.21,63.59h-.33l-.33,0h-2l-.34,0h-1l-.34,0h-.33l-.34,0h-.66l-.34,0h-.33l-.3,0h-.34l-.33,0h-.33l-.33,0-.34,0h-.33l-.3,0-.34,0h-.33l-.34,0L296,64l-.3,0h-.33l-.34,0-.33,0-.33,0-.31,0-.33,0-.33,0-.34,0-.3,0-.33,0-.34,0-.33,0-.33,0-.31,0-.33,0-.33.06-.34,0-.3,0-.33,0-.34.06-.3,0-.33,0-.34.06-.3,0-.33,0-.34.06-.33,0-.3.06-.34,0-.3.06-.33,0-.34.06-.33,0-.3.06-.34.06-.3,0-.33.06-.34.06-.3.06-.33,0-.3.06-.34.07-.33.06-.3.06-.34.06-.3.06-.33.06-.31.06-.33.06-.52.09-.51.09-.52.12-.48.09-.52.12-.51.1-.52.12-.48.09-.52.12-.51.12-.49.12-.51.12-.52.12-.48.12-.52.13-.48.12-.52.12-.48.15-.52.12-.48.15-.52.12-.48.16-.52.12-.48.15-.52.12-.48.15-.49.15-.51.15-.49.16-.48.15-.52.15-.48.15-.49.15-.48.15-.52.15-.48.19-.49.15-.48.15-.49.18-.51.15-.49.19-.48.15-.49.18-.48.18-.49.15-.48.18-.49.18-.48.19-.49.18-.51.18-.49.18-.48.18-.49.19-.48.18-.49.18-.48.18-.46.21-.51.19-.45.18-.49.21-.48.18-.49.21-.48.19-.49.21-.48.18-.49.21-.48.21-.46.19-.48.21-.49.21-.48.21-.49.21-.48.22-.46.18-.48.21-.49.21-.48.21-.46.25L241,79l-.49.21-.48.21-.49.22-.45.24-.48.21-.49.21-.48.21-.46.25-.48.21-.49.24-.45.21-.49.25-.48.21-.46.24-.48.21-.49.24-.45.25-.49.21-.48.24-.46.24-.48.22-.49.24-.48.24-.46.24-.48.25-.46.24-.48.21-.49.24-.48.25-.45.24-.49.24-.48.24-.46.25-.48.24-.46.24-1,.52-.94.48-.94.48-1,.52-.94.49-.94.51-.94.49-.42.21-.39.21-.4.24-.39.21-.4.22-.39.21-.39.21-.37.21-.39.21-.39.25-.4.21-.39.21-.37.24-.39.22-.36.24-.4.21-.36.24-.4.21-.36.25L210,95l-.37.24-.36.21-.36.25-.4.24-.36.21-.37.24-.36.25-.36.24-.37.21-.36.24-.36.25-.37.24-.36.24-.33.24-.37.25-.36.24-.36.24-.34.24-.36.25-.34.24-.36.24-.33.24-.37.28-.33.24L201,101l-.34.24-.33.27-.33.25-.37.24-.33.27-.33.25-.34.24-.33.27-.33.27-.34.25-.33.24-.33.27-.34.27-.3.25-.33.27-.34.27-.33.24-.3.28-.34.27-.33.24-.3.27-.34.28-.3.27-.33.27-.31.28-.3.24-.33.27-.31.27-.3.28-.3.27-.33.27-.31.27-.3.28-.3.3-.31.27-.3.28-.3.27-.31.27-.3.27-.27.31-.3.27-.31.27-.3.31-.3.27-.28.27-.3.3-.27.28-.31.27-.3.3-.27.28-.27.3-.31.27-.27.3-.27.28-.31.3-.27.3-.27.28-.27.3-.31.3-.27.27-.27.31-.28.3-.27.3-.27.28-.27.3-.28.3-.27.31-.24.3-.27.3-.28.3-.27.28-.24.3-.27.3-.28.31-.24.3-.27.33-.24.31-.28.3-.24.3-.27.3-.25.31-.24.3-.27.3-.24.34-.25.3-.24.3-.24.31-.27.33-.25.3-.24.31-.24.33-.24.3-.25.31-.24.33-.24.3-.24.34-.21.3-.25.33-.24.31-.24.33-.21.3-.25.33-.24.34-.21.3-.24.33-.22.31-.24.33-.21.33-.24.34-.21.3-.22.33-.24.34-.21.33-.21.3-.25.34-.21.33-.21.33-.21.34-.21.33-.22.33-.21.34-.21.33-.21.3-.22.34-.21.36-.21.3-.21.34-.21.36-.19.33-.21.34-.21.33-.18.33-.21.34-.22.33-.18.36-.21.34-.18.33-.21.33-.19.34-.21.36-.18.33-.18.34-.21.36-.19.34-.18.33-.21.36-.18.34-.18.33L162,146l-.19.34-.18.36-.18.33-.18.37-.18.33-.19.36-.18.34-.18.36-.18.36-.18.34-.15.36-.19.33-.18.37-.18.36-.15.34-.18.36L159,152l-.15.34-.18.36-.15.36-.18.37-.15.33-.19.36-.15.37-.15.33-.18.36-.15.37-.15.36-.16.37-.18.36-.15.36-.15.37-.15.36-.15.33-.15.37-.16.36-.15.36-.15.37-.15.36-.15.37-.15.36-.15.39-.16.37-.12.36-.15.36-.15.37-.15.36-.12.36-.16.37-.15.36-.12.37-.15.39-.12.36-.15.37-.12.36-.16.36-.12.4-.12.36-.15.37-.12.39-.12.36-.15.37-.12.36-.13.39-.12.37-.15.36-.12.4-.12.36-.12.36-.12.4-.12.36-.13.39-.12.37-.12.36-.12.4-.09.36-.12.39-.12.37-.12.39-.12.36-.1.4-.12.36-.12.4-.09.36-.12.39-.12.37-.09.39-.12.4-.09.36-.13.39-.09.37-.12.39-.09.4-.09.36-.12.39-.09.4-.09.36-.09.39-.12.37-.1.39-.09.4-.09.39-.09.36-.09.4-.09.39-.12.4-.09.36-.06.39-.09.4-.1.39L147,187l-.09.4-.09.39-.09.4-.09.39-.06.36-.18.79-.09.4-.06.39-.09.39-.06.37-.1.39-.09.4-.06.39-.09.39-.06.4-.09.39-.06.39-.06.4-.09.36-.06.4-.06.39-.09.39-.06.4-.07.39-.06.4-.09.39-.06.39-.06.4-.06.39-.06.4-.06.39-.06.39-.06.4-.06.39-.06.4-.06.39-.06.39-.06.4-.06.39-.07.4,0,.39-.06.39-.06.4-.06.39,0,.4-.06.39-.06.42,0,.37-.06.42-.06.4,0,.39-.06.39,0,.4-.06.39,0,.4-.06.39,0,.39,0,.43-.06.39,0,.4,0,.39-.07.39,0,.4,0,.39,0,.4-.06.42,0,.39,0,.4,0,.39,0,.4,0,.39,0,.39,0,.4,0,.42,0,.4,0,.39,0,.39,0,.4,0,.39,0,.43,0,.39,0,.39v.4l0,.39,0,.4,0,.39v.42l0,.4,0,.39v.4l0,.39v.39l0,.43,0,.39v.4l0,.39v.82l0,.39v.4l0,.39v.82l0,.39v.79l0,.39v2l0,.4v3.57l0,.43v2l0,.39v1.21l0,.4v.79l0,.39v.39l0,.4v.39l0,.43v.39l0,.39v.4l0,.39v.4l0,.39v.39l0,.4,0,.39v.4l0,.39,0,.42v.4l0,.36,0,.43,0,.39,0,.36V250l0,.39,0,.4,0,.39,0,.39,0,.4,0,.39,0,.37,0,.42,0,.39,0,.4,0,.36,0,.39,0,.4,0,.39,0,.4,0,.39,0,.39.06.4,0,.39,0,.4,0,.39.06.36,0,.4,0,.39,0,.4.06.39,0,.39,0,.4.06.36,0,.4.06.39,0,.39.06.4,0,.39.06.36,0,.4.06.39,0,.4.06.36,0,.39.06.4.06.39,0,.37.06.39.06.39,0,.37.06.39.06.4,0,.3.06.33,0,.3.06.34.06.33,0,.33.06.34.06.33.06.34.06.33.06.33.06.37.1.33.06.33.06.37.09.33.06.36.06.34.09.36.09.36.06.37.09.33.09.36.06.37.09.36.1.37.09.36.09.36.09.37.09.39.09.36.12.4.09.36.09.36.09.4.12.36.1.4.12.39.09.36.12.4.09.39.12.4.12.36.09.39.12.4.13.39.12.4.12.39.12.39.09.43.12.39.12.4.15.39.13.39.12.43.12.39.12.43.12.39.15.39.12.43.12.39.16.43.12.42.12.39.27.85.27.82.28.85.3.85.27.82.28.85.3.84.27.88.3.85.31.85.27.88.3.85.31.88.3.87.61,1.73.6,1.76.64,1.76.6,1.79.61,1.75.33.91.31.88.3.91.3.88.31.91.3.88.3.91.3.9.31.88.3.91.3.91.31.88.3.91.3.91.28.91.15.42.15.46.15.45.15.46.12.45.15.46.16.45.12.42.15.46.15.45.12.46.15.45.12.46.16.45.12.46.15.42.12.46.12.45.15.45.12.46.13.45.15.43.12.45.12.46.12.45.12.43.15.45.12.45.12.46.13.42.12.46.12.45.12.46.09.42.12.46.12.45.12.43.1.45.12.45.12.43.09.45.12.43.09.45.12.46.09.42.09.46.13.45.09.42.09.46.09.42.09.43.09.45.09.43.09.45.09.43.09.45.09.42.06.46.1.42.09.43.06.45.09.43.06.42.09.42.06.46.06.42.06.43.06.42.09.43.06.45.06.43,0,.42.07.42.06.43.06.42,0,.43.06.42,0,.42.06.43,0,.42,0,.43.06.42,0,.43,0,.42,0,.42,0,.43v.42l0,.4,0,.42v.43l0,.21v.6l0,.22v3.48l0,.21v.61l0,.21v.43l0,.18v.21l0,.18v.43l0,.18v.21l0,.21,0,.18v.22l0,.18v.21l0,.21,0,.18v.22l0,.21,0,.18,0,.21v.18l-.09.73-.09.73-.09.73-.1.69-.09.7-.09.73-.09.69-.06.7-.09.7-.09.7-.09.69-.06.7-.09.7-.06.69-.09.67-.06.7-.1.66-.06.67-.09.7-.06.66-.06.67-.09.67-.06.66-.06.67-.09.67-.06.63-.06.67-.06.67-.06.63-.06.64-.07.67-.06.63-.06.64-.06.64-.06.63-.06.64-.06.63-.06.64,0,.64-.06.6-.06.64,0,.61-.06.63-.06.61,0,.61-.06.63,0,.61-.06.6,0,.61,0,.61-.06.6,0,.61,0,.57-.06.61,0,.61,0,.57,0,.61,0,.57,0,.58-.06.61,0,.57,0,.58v.57l0,.58,0,.57,0,.58,0,.58,0,.57V420l0,.57,0,.58v.54l0,.58,0,.55v.54l0,.58v1.09l0,.54v1.09l0,.55V430l0,.54v1.06l0,.52v2.63l0,.52v1l0,.52v.51l0,.52v.51l0,.52v.51l0,.49,0,.51v.52l0,.48,0,.52,0,.48v.52l0,.48,0,.52,0,.48,0,.49,0,.51,0,.49,0,.48.06.49,0,.48,0,.49,0,.48.06.49,0,.48,0,.49.06.48,0,.48.07.49,0,.48.06.46.06.48,0,.49.06.45.06.49,0,.45.06.49.06.48.06.46.06.45.06.49.06.45.06.49.06.45.06.46.1.48.06.46.06.45.06.45.09.46.06.45.09.49.06.45.09.46.06.45.09.46.06.45.09.46.09.45.1.45.06.46.09.42.09.46.09.45.09.46.09.45.09.46.09.42.09.45.13.46.09.45.09.43.09.45.12.46.09.42.12.46.09.45.12.43.09.45.13.45.12.43.09.45.12.43.12.45.12.43.12.45.09.46.12.42.13.45.12.43.15.45.12.43.12.45.12.43.12.45.15.43.13.45.15.42.12.46.15.42.12.46.15.42.12.43.16.45.15.42.15.46.15.42.12.46.15.42.16.46.15.42.15.46.18.42.15.45.15.43.15.45.16.43.18.45.15.43.18.45.15.43.18.45.16.42.18.46.18.45.15.43.18.45.18.43.19.45.18.43.18.45.18.45.18.43.19.45.18.46.21.42.18.46.18.45.22.46.18.42.21.45.18.46.21.45.19.43.21.45.21.46.21.45.21.46.22.45.18.46.21.45.21.45.24.46.22.45.21.46.21.45.09.15.09.19.09.18.09.18.1.15.09.18.06.19.09.18.12.15.09.18.09.18.09.18.09.16.09.18.13.18.09.15.09.18.12.18.09.16.12.18.09.18.09.18.12.15.09.18.12.19.13.18.09.15.12.18.12.18.12.16.09.18.12.18.12.15.13.18.12.18.12.16.12.18.12.15.12.18.12.18.12.15.13.19.12.18.15.15.12.18.12.18.15.15.12.19.12.18.16.15.12.18.15.15.12.18.15.19.12.15.15.18.13.15.15.18.15.18.15.16.12.18.15.15.15.18.16.15.15.19.15.15.15.18.15.18.15.15.15.18.16.15.15.19.15.15.15.18.15.15.18.18.16.16.18.18.15.15.15.18.18.15.15.18.19.16.15.18.18.15.15.18.18.15.15.15.19.19.18.15.18.18.15.15.18.18.18.15.19.15.18.19.15.15.18.15.18.18.19.15.18.19.21.15.18.15.18.18.18.15.19.15.18.19.21.15.18.15.18.18.19.15.21.15.18.15.21.19.18.15.22.15.18.15.21.18.18.15.21.16.22.15.18.15.21.18.21.15.18.15.22.16.21.15.21.15.21.18.18.15.22.15.21.15.21.16.21.15.25.15.21.15.18.15.24.15.21.19.22.15.21.15.21.15.24.15.21.15.22.15.24.16.21.15.24.15.22.15.21.12.24.15.21.15.25.16.21.15.24.15.24.15.21.15.25.15.24.16.24.15.21.12.25.15.24.15.24.15.21.15.25.13.24.15.24.15.24.15.25.12.24.15.24.15.24.16.25.12.24.15.27.15.24.12.25.15.27.15.24.13.24.15.25.15.27.12.24.15.27.12.25.15.24.13.27.15.24.15.28.12.24.15.27.12.24.15.28.13.27.15.24.12.27.12.28.15.24.12.27.15.28.12.27.13.27.15.27.12.25.12.27.15.27.12.27.12.28.16.27.12.27.12.28.15.27.12.27.12.27.12.31.15.27.13.27.12.27.12.28.12.3.12.27.12.28.12.3.15.27.13.27.12.31.12.27.12.27.12.31.12.3.12.27.12.27.13.31.12.3.12.27.12.31.12.3.12.27.09.3.12.31.13.27.12.3.12.31.12.3.12.3.09.28.12.3.12.3.12.3.1.31.12.3.12.3.12.31.09.3.12.3.12.31.09.3.12.3.1.31.12.3.12.3.09.33.12.31.09.3.12.3.09.31.12.33.1.3.12.31.09.33.12.3.09.31.09.33.12.3.09.34.09.3.12.3.1.33.09.34.12.3.09.33.09.31.12.33.09.3.09.34.09.33.09.3.1.34.12.33.09.3.09.34.09.33.09.3.09.34.09.33.09.33.09.34.09.33.1.3.09.37.09.3.09.33.09.34.09.33.09.33.09.34.09.33.06.33.09.34.09.33.1.33.09.34.06.36.09.33.09.34.06.33.09.33.09.34.06.36.09.33.09.34.06.33.1.36.06.34.09.33.06.36.09.34.09.33.06.37.06.33.09.36.06.34.09.36.06.33.06.37.1.33.06.36.06.34.09.33.06.36.06.37.09.33.06.36.06.34.06.36.06.36.06.34.09.36.06.37.07.33.06.36.06.37.06.36.06.33.06.37.06.36.06.36.06.37.06.33.06.37.06.36.06.36,0,.37.06.36.06.36.06.37.07.33,0,.39.06.37.06.36.06.33,0,.37.06.36.06.4,0,.36.06.36,0,.37.06.36,0,.36.06.37.06.36,0,.37.06.36,0,.36,0,.4.06.36,0,.36.07.37,0,.39,0,.37.06.36,0,.36,0,.4,0,.36.06.36,0,.4,0,.36,0,.37,0,.36,0,.39.06.37,0,.39,0,.36,0,.37,0,.39,0,.37,0,.39,0,.36,0,.37,0,.39,0h.36l.4,0,.36,0,.4,0,.36,0,.39,0h.4l.36,0,.4,0h.36l.39,0,.37,0h.39l.39,0,.37,0H295l.37,0h.39l.39,0h.37l.39,0h.39l.37,0h.79l.36,0h.79l.39,0h1.15l.4,0h6.6l.79,0h.79l.79,0h.79l.39,0,.79,0,.79,0,.78,0,.79,0,.79,0,.79,0,.79-.06h.39l.82-.07.39,0,.79,0,.39,0,.4,0,.42,0,.4,0,.39,0,.39,0,.4,0,.39,0,.4,0,.39,0,.42,0,.4,0,.39,0,.39,0,.4-.06.42,0,.4,0,.39,0,.4-.06.81-.06.4-.06.24,0,.27,0,.31,0,.33,0,.33-.07.4,0,.36-.06.42-.06.43-.06.45-.06.46-.09.48-.06.52-.09.27,0,.24-.06.28,0,.27-.06.27-.06.3,0,.28-.06.3-.06.27-.07.31,0,.3-.06.3-.06.34-.06.3-.06.33-.06.3-.06.67-.15.33-.06.34-.06.33-.09.37-.06.33-.09.36-.06.34-.1.36-.06.36-.09.37-.09.39-.06.36-.09.37-.09.39-.09.4-.09.36-.09.39-.09.4-.1.39-.09.4-.09.39-.12.42-.09.4-.12.42-.09.4-.09.42-.12.42-.12.43-.1.42-.12.43-.12.42-.12.43-.12.42-.12.45-.12.43-.12.45-.12.43-.13.45-.12.46-.15.45-.12.46-.12.45-.15.45-.15.46-.13.45-.15.46-.15.48-.12.46-.15.48-.15.46-.15.48-.16.46-.15.48-.18.49-.15.48-.15.46-.18.48-.16.49-.18.48-.15.49-.18.51-.18.49-.15.48-.19.48-.18.49-.18.52-.18.48-.18.52-.22.48-.18.52-.18.48-.21.52-.18.48-.22.52-.18.48-.21.52-.21.51-.21.52-.19.48-.21.52-.24.51-.21.52-.21.51-.22.49-.21.51-.24.52-.21.51-.25.52-.24.51-.21.52-.24.51-.24.52-.25.51-.24.52-.24.51-.24.52-.25.48-.27.28-.12.27-.12.24-.12L384,540l.24-.12.27-.12.24-.15.28-.12.24-.15.51-.25.52-.27.27-.15.24-.12.28-.15.24-.12.24-.16.28-.12.24-.15.27-.12.24-.15.28-.15.24-.12.51-.31.25-.12.27-.15.24-.15.52-.3.24-.12.27-.16.24-.15.28-.15.51-.3.24-.15.52-.31.24-.15.24-.15.28-.15.24-.15.24-.16.27-.15.25-.15.24-.15.24-.18.27-.15.25-.15.24-.16.27-.15.24-.18.25-.15.51-.33.24-.16.49-.33.24-.15.27-.18.25-.15.24-.19.24-.15.24-.18.25-.15.24-.18.27-.15.24-.19L401,530l.24-.15.48-.36.25-.18.48-.34.24-.18.25-.18.24-.18.24-.19.24-.15.25-.18.24-.18.24-.18.24-.18.25-.19L405,527l.24-.18.24-.18.25-.18.24-.18.24-.19.24-.21.21-.18.25-.18.24-.18.45-.4.25-.18.24-.18.21-.21.24-.19.25-.18.21-.21.24-.18.21-.18.25-.22L410,523l.21-.18.24-.21.21-.18.46-.4.24-.21.21-.18.22-.21.24-.22.21-.21.24-.18.21-.21.46-.43.21-.18.21-.21.25-.21.21-.21.21-.22.21-.21.21-.21.46-.43.42-.42.22-.21.21-.21.21-.22.21-.21.43-.45.21-.21.21-.22.21-.24.21-.21.22-.21.21-.25.18-.21.21-.21.22-.24.21-.22.18-.24.21-.21.21-.24.22-.21.18-.25.21-.21.21-.24.18-.24.22-.22.39-.48.18-.21.21-.25.19-.24.21-.24.18-.21.18-.24.21-.25.19-.24.18-.24.18-.24.21-.25.18-.24.18-.24.19-.24.21-.25.18-.24.18-.24.18-.24.19-.28.18-.24.18-.24.18-.24.18-.28.18-.24.16-.24.18-.27.18-.25.18-.24.18-.27.19-.24.15-.28L427,504l.15-.27.18-.24.18-.28.16-.27.18-.24.15-.28.18-.27.15-.24.18-.27.16-.28.18-.27.15-.24.15-.27.15-.28.18-.27.15-.27.16-.27.15-.28.15-.27.18-.27.15-.28.15-.27.16-.27.15-.27.15-.31.15-.27.12-.27.15-.28.16-.3.15-.27.15-.27.12-.31.15-.27.15-.27.12-.31.19-.33.06-.15.09-.12.09-.21.12-.28.15-.33.18-.36.21-.46.13-.24.12-.24.12-.28.12-.27.15-.3.15-.3.12-.34.16-.33.18-.33.15-.37.15-.36.18-.4.18-.39.19-.42.18-.43.18-.42.18-.43.21-.45.18-.49.22-.48.18-.49.21-.48.21-.52.22-.51.21-.55.24-.51.21-.58.21-.54.25-.58.21-.57.24-.61.21-.58.25-.6.21-.64.24-.64.24-.6.12-.33.13-.34.12-.3.09-.33.24-.67.12-.33.12-.34.12-.33.12-.33.13-.34.12-.36.12-.33.12-.37.12-.33.09-.37.12-.33.12-.36.25-.7.12-.36.12-.37.12-.36.12-.36.12-.37.09-.36.12-.4.13-.36.12-.36.12-.4L444,465l.09-.36.12-.4.12-.36.12-.4.13-.39.09-.36.12-.4.12-.39.12-.4.09-.39.12-.39.12-.37.09-.39.13-.42.09-.4.12-.39.12-.4L446,458l.12-.39.09-.43.12-.39.09-.4.13-.42.09-.4.09-.42.12-.39.09-.43L447,454l.12-.43.09-.42.09-.39.09-.43.13-.42.09-.43.09-.39.09-.43.09-.42.09-.42.09-.43.09-.42.09-.43.09-.42.06-.43.1-.42.09-.42.09-.43.06-.42.09-.43.09-.42.06-.43.09-.42.06-.45.09-.43.06-.42.09-.43.06-.45.06-.43.1-.42.06-.42.06-.46.06-.42.06-.43.06-.45.06-.43.06-.45.06-.42.06-.43.06-.45,0-.43.06-.42.06-.46,0-.42.06-.46,0-.42.07-.42,0-.46,0-.42.06-.46,0-.42,0-.43,0-.45,0-.42,0-.46,0-.42,0-.46,0-.42,0-.43v-.45l0-.43,0-.42v-.45l0-.43v-.88l0-.42v-3.46l0-.45v-.64l0-.21v-.64l0-.21v-.42l0-.21v-.43l0-.21V418l0-.21v-.22l0-.21v-.21l0-.21v-.22l0-.21v-.21l0-.21v-.21l0-.22,0-.21v-.21l0-.21,0-.21v-.22l0-.18,0-.24,0-.21-.07-.7-.09-.7-.06-.72-.09-.7-.06-.7-.09-.7-.06-.69-.06-.7-.09-.7-.06-.69-.06-.7-.09-.7-.06-.66-.06-.7-.07-.7-.06-.67-.06-.66-.06-.7-.06-.67-.06-.66-.06-.67-.06-.67-.06-.66,0-.67-.06-.67-.06-.66-.06-.64,0-.67-.06-.66-.06-.64,0-.67-.07-.63,0-.64-.07-.67,0-.63-.06-.64,0-.63,0-.64-.06-.64,0-.63,0-.61,0-.64,0-.63-.06-.61,0-.64,0-.6,0-.64,0-.6,0-.64,0-.61,0-.6,0-.61,0-.6,0-.61v-.61l0-.6,0-.61,0-.57v-.61l0-.61,0-.57v-.61l0-.57v-.58l0-.61v-.57l0-.58v-.57l0-.58v-.58l0-.57v-1.15l0-.58v-2.27l0-.55v-6.06l0-.54v-1.61l0-1.06v-1.06l0-.55v-1l0-.54V351l0-.51V350l0-1,0-.51v-.52l0-.51v-.52l0-.51,0-.49v-.51l0-.52,0-.48v-.52l0-.48,0-.52,0-.48v-.49l0-.51,0-.49,0-.48,0-.49,0-.48,0-.49,0-.48,0-.49,0-.48,0-.49,0-.48,0-.49,0-.45,0-.49,0-.48,0-.46,0-.48,0-.49,0-.45.07-.45,0-.49,0-.45,0-.46,0-.48.06-.46,0-.45,0-.46.06-.45,0-.46,0-.45.06-.46,0-.45,0-.45.06-.46,0-.45.06-.46,0-.42.09-.88.09-.91.09-.88.09-.85.1-.88.09-.88.12-.84.09-.85.09-.85.12-.85.09-.85.12-.85.09-.82.13-.84.09-.82.12-.82.12-.82.09-.82.12-.78.12-.82.12-.79.09-.82.13-.79.12-.79.12-.78.12-.79.12-.76.12-.79.12-.78.12-.76.13-.76.12-.76.12-.75.15-.76L453,296l.12-.76.12-.72.12-.76.13-.73.15-.73.12-.76.12-.72.12-.73.12-.73.15-.69.25-1.46.27-1.42.24-1.43.27-1.39.49-2.79.51-2.76.25-1.36.24-1.36.24-1.34.24-1.33.12-.67.13-.69.12-.67.12-.64.12-.66L458,268l.12-.67.12-.66.12-.67.09-.64.13-.66.09-.67.12-.64.09-.66.12-.64.09-.67.12-.66.09-.64.09-.67.1-.63.12-.67.09-.64.09-.63.09-.67.09-.64.09-.66.09-.64.06-.67.09-.63.09-.64.1-.67.06-.63.09-.67.06-.63.06-.64.09-.67.06-.63.06-.67.06-.64.06-.66,0-.34.06-.63,0-.34,0-.33.06-.67,0-.3,0-.33.06-.67,0-.67,0-.3,0-.33,0-.67,0-.67,0-.33,0-.33v-.34l0-.33,0-.33v-.31l0-.69,0-.34v-.33l0-.67v-.33l0-.33v-.34l0-.66v-.7l0-.33v-1.37l0-.33v-3.79l0-.33v-1.4l0-.36v-.7l0-.36v-.7l0-.36v-.34l0-.36v-.36l0-.34v-.36l0-.36,0-.37v-.36l0-.36,0-.37v-.36l0-.37,0-.33,0-.39,0-.37v-.36l0-.36,0-.37,0-.36,0-.36,0-.37,0-.39,0-.37,0-.36,0-.39-.06-.37,0-.36,0-.39,0-.37-.06-.39,0-.37,0-.39-.06-.36,0-.4,0-.36-.06-.39,0-.4-.06-.39,0-.37-.06-.39-.06-.39,0-.4-.07-.39-.06-.37-.06-.39,0-.39-.06-.4-.06-.42-.06-.37-.06-.42-.06-.39-.06-.4-.06-.39-.06-.4-.06-.42-.06-.39-.06-.4-.06-.42-.1-.4-.06-.39-.06-.42-.09-.43-.06-.39-.06-.43-.09-.39L459,198l-.09-.42-.06-.39-.09-.43-.12-.6-.09-.58-.13-.58-.12-.6-.12-.58-.12-.6-.12-.61-.12-.58-.12-.6-.12-.58-.13-.6-.12-.61-.15-.61-.12-.6-.12-.58-.15-.6-.12-.61-.15-.61-.13-.6-.15-.61-.15-.6-.15-.58-.15-.64-.12-.6-.16-.61-.15-.6-.15-.61-.15-.61-.18-.6-.15-.61-.15-.6-.16-.61-.18-.61-.15-.6-.18-.61-.15-.61-.18-.6-.19-.61-.15-.6-.18-.64-.18-.61-.18-.6-.19-.61-.18-.6-.18-.61L452,169l-.18-.6-.18-.61-.22-.6-.18-.61L451,166l-.21-.6-.21-.61-.19-.6-.21-.61L450,163l-.21-.6-.21-.61-.22-.6-.21-.61-.21-.61-.21-.57-.21-.61-.22-.61-.24-.57-.21-.61-.21-.6-.25-.58-.12-.3-.09-.31-.12-.27-.12-.3-.12-.3-.09-.31-.12-.27-.13-.3-.12-.31-.12-.27-.12-.3-.12-.31-.12-.27-.12-.3-.12-.3-.13-.28-.12-.3-.09-.27-.15-.31-.12-.3-.12-.27-.12-.3-.12-.28-.12-.3-.13-.27-.12-.31-.12-.27-.12-.3-.15-.27-.12-.31-.12-.27-.13-.3-.15-.28-.12-.27-.12-.3-.12-.27-.15-.28-.12-.3-.12-.27-.16-.28-.12-.3-.12-.27-.15-.27-.12-.28-.15-.3-.12-.27-.15-.28-.13-.27-.15-.27-.12-.3-.15-.28-.12-.27-.15-.27-.12-.27-.16-.28-.12-.27-.15-.27-.15-.28-.12-.27-.15-.27-.28-.55-.15-.27-.15-.27-.15-.28-.12-.27-.15-.27-.15-.24-.16-.28-.15-.27-.12-.27-.15-.27-.15-.28-.15-.24-.15-.27-.16-.27-.15-.25-.15-.27-.15-.27-.15-.25-.15-.27-.16-.24-.15-.27-.15-.25-.15-.27-.15-.24-.15-.27-.15-.25-.19-.27-.15-.24-.15-.27-.15-.25-.15-.24-.18-.27-.16-.24-.15-.25-.15-.24-.18-.27-.15-.24-.15-.25-.16-.24-.18-.24-.15-.27-.18-.25-.15-.24-.15-.24-.19-.24-.15-.25-.18-.24-.15-.24-.18-.24-.15-.25-.19-.24-.15-.21-.18-.24-.15-.25-.18-.24-.18-.24-.16-.21-.18-.24-.18-.28-.18-.24-.21-.27-.19-.24-.21-.28-.18-.24-.18-.27-.21-.25-.18-.24-.22-.27-.18-.24-.21-.28-.21-.24-.18-.24-.22-.27-.18-.25-.21-.24-.21-.27-.19-.24-.21-.25-.21-.24-.21-.27-.18-.24-.22-.25-.21-.24-.21-.24-.21-.24-.21-.28-.19-.24-.21-.24-.24-.24-.18-.25-.21-.24-.22-.24-.21-.24-.21-.25-.24-.24-.21-.24-.22-.24-.21-.24-.21-.25-.21-.24-.25-.24-.21-.24-.21-.22-.21-.24-.25-.24-.21-.24-.21-.25-.24-.21-.21-.24-.22-.24-.24-.25-.21-.21-.24-.24-.21-.24-.25-.22-.21-.24-.24-.24-.21-.21-.25-.24-.21-.22-.24-.24-.24-.24-.22-.21-.24-.22-.24-.24-.21-.21-.25-.24-.24-.21-.24-.25L415,106l-.21-.21-.25-.24-.24-.22-.24-.24-.24-.21-.25-.21-.21-.22-.24-.24-.27-.21-.25-.21-.24-.24-.24-.22-.21-.21-.28-.21-.24-.21-.24-.22-.24-.21-.25-.24-.24-.21-.24-.21-.27-.22-.25-.21-.24-.21-.24-.21-.27-.21-.25-.22-.24-.21-.24-.18-.27-.21-.25-.21-.24-.22-.27-.21-.24-.21-.28-.21-.24-.19-.24-.21-.27-.21-.25-.21-.27-.18-.27-.22-.24-.21-.25-.18-.27-.21-.27-.21-.24-.19-.28-.21-.24-.21-.27-.18-.28-.21-.24-.19-.27-.21-.27-.18-.25-.21-.27-.18-.27-.22-.27-.18-.28-.18-.27-.21-.24-.18-.27-.22-.28-.18-.27-.18-.27-.18-.28-.21-.27-.19-.27-.18-.27-.18-.28-.21-.24-.18-.27-.18-.27-.19-.28-.18-.3-.18-.27-.18-.28-.18-.27-.22-.27-.18-.27-.18-.28-.18-.27-.18-.27-.15-.31-.19-.27-.18-.27-.18-.27-.18-.28-.18-.3-.19-.27-.18-.28-.15-.27-.18-.3-.18-.27-.18-.28-.16-.3-.18-.27-.18-.31-.18-.27-.15-.27-.18-.3-.19-.28-.15-.3-.18-.27-.15-.3-.18-.28-.15-.3-.19-.27-.15-.28-.18-.3-.15-.3-.18-.28-.15-.3-.16-.27-.18-.3-.15-.31-.15-.27-.18-.3-.15-.28-.16-.3-.18-.3-.15-.27-.15-.31-.15-.3-.15-.3-.19-.28-.15-.3-.15-.3-.15-.31-.15-.27-.15-.3-.15-.3-.16-.31-.15-.3-.15L379,81l-.31-.15-.27-.15-.3-.16-.31-.15-.3-.12-.3-.15L377,80l-.31-.15-.3-.15-.3-.13-.28-.15-.33-.15-.3-.15-.31-.12-.27-.15-.33-.15-.3-.13-.28-.15-.33-.12-.3-.15L372.7,78l-.3-.15-.3-.12-.31-.16-.3-.12-.3-.15-.31-.12-.33-.15-.3-.12-.31-.12-.3-.16-.3-.12-.3-.12-.34-.15-.3-.12-.3-.12-.31-.12-.3-.12-.33-.16-.31-.12-.3-.12-.33-.12-.31-.12-.3-.12-.3-.12-.33-.12-.31-.12-.3-.13-.33-.12-.31-.12-.3-.12L363.1,74l-.31-.12-.3-.12-.33-.09-.31-.13-.33-.12-.3-.12-.34-.12-.3-.09-.3-.12-.34-.12-.3-.09-.33-.13-.3-.12-.34-.09-.3-.12-.33-.09-.31-.12L357.4,72l-.3-.12-.34-.09-.3-.12-.33-.1-.31-.12-.33-.09-.3-.09-.34-.12-.3-.09-.33-.09-.34-.12-.3-.09-.33-.09-.31-.1-.33-.12-.33-.09-.31-.09-.33-.09-.3-.09L351,70l-.33-.09-.3-.09-.33-.09-.34-.1-.3-.09-.33-.09-.34-.09-.3-.09-.33-.09-.34-.09-.3-.09-.33-.09-.34-.09-.33-.06-.3-.09-.34-.1-.33-.09-.3-.06-.34-.09-.33-.09-.33-.06-.31-.09-.33-.06-.33-.09-.34-.09-.33-.06-.3-.09-.34-.07-.33-.06-.33-.09-.34-.06-.3-.09-.33-.06-.34-.06-.33-.09-.33-.06L339,67l-.33-.09-.33-.06-.34-.06-.33-.06-.33-.07-.31-.06-.33-.09-.33-.06-.34-.06-.33-.06-.33-.06-.31-.06-.33-.06-.33-.06-.34-.06L333.7,66l-.33-.06-.34,0-.3-.06-.33-.06-.34-.06-.33-.06-.33-.07-.34,0-.33-.06-.33-.06-.34,0-.33-.06-.33-.06-.31,0-.33-.06-.33,0-.34-.06-.33,0-.33-.06-.34,0-.33-.06-.33,0-.34-.06-.33,0-.3,0-.37-.06-.33,0-.3,0-.34,0-.33-.06-.33,0-.34,0-.33,0-.33,0-.34-.06-.33,0-.33,0-.34,0-.33,0-.3,0-.37,0-.33,0-.3,0-.34,0h-.33l-.33,0-.34,0-.33,0-.33,0-.34,0h-.33l-.33,0-.34,0h-.33l-.33,0-.34,0h-.33l-.33,0h-.34l-.33,0h-.3l-.34,0h-.33l-.33,0h-.34l-.33,0h-.67l-.33,0h-1l-.33,0h-1.64l-.33,0h-1.34Zm.7-12.12h.7l.36,0h1.79l.36,0h.73l.33,0h.73l.37,0h.36l.33,0h.73l.36,0,.37,0h.33l.36,0h.37l.36,0,.36,0h.34l.36,0,.37,0,.36,0H318l.34,0,.36,0,.36,0,.37,0,.36,0,.33,0,.37,0,.36,0,.37,0,.33,0,.36,0,.37,0,.36,0,.36,0,.34,0,.36.06.36,0,.37,0,.33,0,.36.06.37,0,.36,0,.37.06.33,0,.36.07.37,0,.36.06.33,0,.37.06.36,0,.36.06.34,0,.36.06.36.06.34,0,.36.06.37.06.36,0,.33.06.37.06.36.06.36.06.34.06.36,0,.36.06.34.07.36.06.36.06.37.06.33.06.37.06.36.06.33.09.37.06.36.06.33.06.37.06.36.06.33.09.37.06.36.07.33.09.37.06.36.06.33.09.37.06.33.09.37.06.36.09.33.06.37.09.33.06.36.09.34.07.36.09.36.09.34.06.36.09.33.09.37.09.33.06.36.09.37.09.33.09.34.09.36.1.36.09.34.06.36.09.33.09.37.09.33.09.36.12.34.09.36.09.33.09.37.1.33.09L353,58l.33.12.33.09.36.09.34.09.36.12.34.09.36.12.33.1.34.09.36.12.33.09.34.12.36.09.33.12.34.09.36.12.33.09.34.13.36.12.33.09.34.12.36.12.33.09.34.12.33.12.36.13.34.12.33.09.33.12.37.12.33.12.34.12.33.12.33.13.37.12.33.12.33.12.34.12.33.12.33.12.37.12.33.16.33.12.34.12.33.12.33.12.34.15.33.12.33.12.34.16.33.12.36.15.34.12.33.12.33.15.31.12.36.15.33.13.34.15.33.12.3.15.34.12.33.15.33.15.34.13.33.15.33.15.34.15.33.12.33.15.31.15.33.16.33.15.34.15.33.12.3.15.34.15.33.15.33.16L380,68l.3.15.33.15.34.15.3.15.33.19.34.15.33.15.3.15.34.15.33.15.3.19.34.15.33.15.3.18.3.15.34.15.33.19.3.15.34.15.3.18.33.15.31.18.33.16.3.18L388,72l.3.18.3.15.34.18.33.18.3.16.31.18.33.18.3.15.31.18.33.19.3.18.3.18.34.15.3.18.3.18.31.19.33.18.3.18.31.18.3.18.33.19.31.18.3.18.3.18.3.18.31.18.3.19.3.18.31.18.33.21.3.18.31.19.3.18.3.21.31.18.3.18.3.18.27.22.34.18.27.21.3.18.31.18.3.22.3.18.31.21.3.18.27.22.3.18L403,81l.3.18.27.21.31.22.3.18.3.21.28.21.3.21.3.18.27.22L406,83l.27.21.3.18.31.22.27.21.3.21.27.21.31.21.27.22.3.21.28.21.3.21.27.21.31.22L410,86l.27.21.3.21.28.22.27.21.3.21.27.24.28.21.3.22.27.21.28.24.27.21.27.21.31.25L414,89l.27.21.27.24.28.22.27.24.27.21.27.21.28.25.27.21.27.24.28.24.27.21.27.25.27.21.28.24.27.21.27.25.27.24.25.21.27.24.27.25.27.24.25.21.27.24.27.24.28.25L421,95l.27.24.27.24.25.25L422,96l.24.21.27.27.28.25.24.21.27.27.24.21.28.28.24.24.24.24.27.24.25.25.27.24.24.27.24.24.25.25.27.24.24.27.24.24.28.25.24.24.24.27.24.24.25.25.24.27.24.24.27.27.22.25.24.27.27.24.21.28.25.24.24.27.24.24.24.28.25.27.24.24.24.27.24.28.25.24.21.27.24.24.24.28.22.27.24.27.24.27.21.28.24.24.25.27.21.28.24.27.21.27.25.27.21.28.24.27.21.27.22.27.24.28.21.27.24.27.21.28.22.27.21.27.24.27.21.31.22.27.21.27.24.28.21.27.21.3.22.27.21.28.21.3.21.27.21.27.22.28.21.3.21.27.18.28.18.27.22.24.18.27.18.28.18.27.21.24.19.27.18.28.18.27.18.27.18.28.19.24.18.3.18.27.18.28.18.27.18.24.19.27.18.31.18.27.18.27.18.28.19.27.15.27.18.3.18.28.18.27.15.27.19.28.18.3.18.27.15.27.18.28.15.3.19.27.15.3.18.28.18.27.15.3.18.28.16.3.15.27.18.31.15.27.18.3.15.3.16.28.18.27.15.3.15.31.15.27.18.3.16.3.15.28.15.3.15.3.18.31.31.57.15.31.15.3.15.27.15.3.15.31.15.3.16.3.15.28.15.3.15.3.12.3.15.31.15.3.16.3.15.31.12.3.15.3.15.31.15.3.12.3.16.31.15.3.15.3.12.3.15.31.12.3.15.3.16.34.12.27.15.33.12.31.15.3.12.3.12.31.16.33.12.3.15.31.12.3.12.3.15.33.12.31.12.3.16.3.12.34.12.3.12.3.15.31.12.33.12.3.13.31.12.33.12.3.15.3.12.34.12.3.12.3.12.34.12.3.13.33.12.31.24.63.24.64.21.61.25.63.24.64.21.64.24.63.22.64.24.63.21.64.21.64.21.63.22.64.21.64.21.63.21.64.22.64.21.63.21.64.18.64.21.66.19.64.21.63.18.64.21.64.18.63.19.64.18.64.18.63.18.67.18.64.18.63.19.64.18.64.15.63.18.64.18.63.16.64.18.64.15.63.15.64.18.64.15.63.16.64.15.64.15.63.15.64.15.63.15.61.15.64.16.63.12.64.15.64.15.6.12.64.15.63.12.61.12.64.16.6.12.64.12.61.12.63.12.61.15.6.12.64.1.61.12.6.12.61.09.45.09.46.06.42.09.46.09.42.06.46.09.42.06.42.09.46.07.42.06.43.09.42.06.46.06.42.06.43.09.42.06.42.06.43.06.42.06.43.06.42.06.43.06.42.06.39.07.43.06.42,0,.43.06.39.06.42.06.43,0,.39.06.43,0,.39.06.42.06.4,0,.42,0,.4.06.42,0,.4.06.39,0,.42,0,.4.06.39,0,.43,0,.39,0,.39,0,.4,0,.39.06.4,0,.39,0,.39,0,.4,0,.39v.4l0,.39,0,.39,0,.4,0,.39,0,.36v.4l0,.39,0,.4v.39l0,.36,0,.4v.39l0,.37v.39l0,.36v.4l0,.39v.73l0,.39v.76l0,.36v1.13l0,.39v4.06l0,.36v1.46l0,.36v.73l0,.36v.73l0,.33V236l0,.36v.36l0,.37v.36l0,.34v.36l0,.36,0,.37v.33l0,.36,0,.37v.33l0,.36,0,.37,0,.33v.36l0,.34,0,.36,0,.37,0,.33v.36l0,.34,0,.36,0,.33,0,.37,0,.33,0,.36,0,.34,0,.36,0,.33,0,.37,0,.33-.06.33-.06.7-.06.7-.06.7-.09.66-.06.7-.09.7-.09.66-.06.7-.09.67-.1.69-.09.67-.09.67-.09.69-.09.67-.09.7-.09.66-.09.67-.12.7-.09.66-.1.67-.12.67-.09.7-.12.66L471,264l-.12.7-.09.66-.12.67-.12.67-.09.69-.13.67-.12.67-.12.66-.09.7-.12.67-.12.66-.12.7-.12.67-.13.66-.12.7-.24,1.36-.24,1.37-.24,1.36-.28,1.37-.48,2.75-.52,2.79-.24,1.39-.27,1.4-.24,1.42-.25,1.43-.15.69-.12.73-.12.7-.12.73-.12.72-.12.73-.16.73-.12.73-.12.72L465,298l-.12.73-.12.76-.12.72-.12.76-.13.76-.12.72-.12.76-.12.76-.12.76-.09.76-.12.78-.12.76-.12.76-.13.79-.09.78-.12.79-.12.79-.09.76-.12.82-.09.78-.12.79-.09.82-.13.82-.09.79-.09.81-.12.82L462,319l-.09.82-.09.82-.09.85-.09.84-.09.85-.1.85-.09.85-.09.85,0,.42-.06.46,0,.42,0,.43-.06.45,0,.43,0,.42-.06.45,0,.46,0,.42,0,.46-.06.42,0,.46,0,.45,0,.46,0,.42-.06.45,0,.46,0,.45,0,.46,0,.45,0,.46,0,.45,0,.46,0,.48,0,.46,0,.45,0,.49,0,.45,0,.45,0,.49,0,.45,0,.49,0,.45v.49l0,.48,0,.49,0,.45,0,.49v.48l0,.49,0,.48v.49l0,.48,0,.49v.48l0,.52,0,.48v.49l0,.51v.49l0,.48v.52l0,.51v1l0,.52v.48l0,.52v1.54l0,.52v2.09l0,.51v5.88l0,.55v2.18l0,.55v1.12l0,.54v.58l0,.57v1.12l0,.55v.58l0,.57,0,.58v.57l0,.58v.58l0,.57,0,.58,0,.57v.61l0,.57,0,.61,0,.58,0,.6,0,.58,0,.6,0,.61,0,.61,0,.57,0,.61,0,.6,0,.64,0,.61,0,.6,0,.61.06.61,0,.63,0,.61.07.63,0,.61,0,.64.06.63,0,.61.06.64,0,.63.06.64,0,.63.06.64.06.67,0,.63.06.64.06.67.06.63.06.67,0,.64.06.66.06.67.06.64.07.66.06.67.06.67.06.66.09.7.06.67.06.66.06.67.06.7.09.66.06.7.09.7.06.66.06.7.1.7.06.7.09.69,0,.25,0,.24,0,.24v.24l0,.25,0,.24,0,.24v.24l0,.25,0,.24,0,.24v.24l0,.24v.25l0,.24,0,.24v.27l0,.22v.24l0,.27V418l0,.27v.24l0,.24v.49l0,.24V420l0,.24V421l0,.48v3.91l0,.49v.48l0,.49v.48l0,.49v.48l0,.48,0,.49,0,.48,0,.49,0,.48,0,.49,0,.48,0,.49,0,.48,0,.49-.06.48,0,.49-.06.48,0,.46-.06.48,0,.49-.06.48-.07.49-.06.48,0,.46-.06.48-.06.49-.06.48-.06.46-.09.48-.06.49-.06.45-.06.48-.06.46-.09.48-.06.49-.09.45-.07.46-.09.48-.06.46-.09.48-.09.46-.06.48-.09.46-.09.45-.09.46-.09.48-.06.46-.09.45-.1.45-.09.46-.09.45-.12.46-.09.48-.09.46-.09.42-.09.46-.12.45-.09.46-.1.45-.12.45-.09.43-.09.45L459,456l-.09.42-.12.46-.09.42-.12.46-.13.42-.09.45-.12.43-.09.42-.12.43-.12.45-.12.43-.09.42-.12.42-.12.43-.13.42-.12.43-.09.42-.12.43-.12.42-.12.39-.12.43-.12.42-.13.4-.12.42-.12.39-.12.43-.12.39-.12.4-.12.42-.12.4-.13.39-.12.39-.12.4-.12.39-.12.4-.15.39-.12.39-.12.37-.13.39-.12.36-.12.4-.12.36-.12.4-.15.36-.12.36-.12.4-.13.36-.12.36-.12.37-.12.36-.15.37-.12.36-.12.33-.12.37-.13.36-.12.33-.12.37-.12.33-.15.33-.12.34-.12.36-.25.67-.24.66L451,482l-.24.64-.25.63-.24.64-.24.61-.24.6-.25.58-.21.57-.24.58-.21.58-.24.54-.22.55-.21.51-.21.52-.21.51-.21.49-.22.48-.21.49L447,492l-.21.42-.18.46-.19.42-.18.4-.18.39-.18.4-.15.36-.19.36-.15.34-.15.33-.15.33-.12.31-.15.27-.12.27-.13.27-.24.49-.18.42-.18.37-.15.3-.12.24-.1.18-.06.1-.12.3-.15.3-.18.33-.15.34-.18.33-.16.33-.18.31-.15.33-.18.33-.15.31-.18.33-.19.3-.15.34-.18.3-.18.33-.18.31-.18.33-.19.3-.15.31-.21.33-.15.3-.18.31-.22.3-.18.3-.18.31-.18.3-.18.3-.18.3-.22.31-.18.3-.18.3-.21.31-.18.3-.19.3-.21.31-.18.27-.21.3-.18.3-.22.31-.18.27-.21.3-.21.28-.18.3-.22.27-.21.3-.21.28-.18.3-.21.27-.22.28-.21.3L434,515l-.21.27-.22.31-.21.27-.21.27-.21.28-.21.27-.22.27-.21.27-.21.28-.21.27-.24.27-.22.27-.21.28-.21.27-.24.24-.22.28-.21.27-.24.27-.21.27-.24.25-.22.27-.24.24-.21.27-.24.28-.22.24-.24.27-.21.24-.24.28-.25.24-.21.24-.24.27-.24.25-.21.24-.25.24-.24.27-.24.25-.21.24-.25.24-.24.24-.24.25-.24.24-.25.24-.24.24-.24.25-.24.24-.25.24-.24.24-.24.25-.24.24-.25.21-.24.24-.24.25-.24.24-.25.21-.27.24-.24.22-.24.24-.25.24-.24.21-.27.24-.24.22-.25.24-.24.21-.27.21-.24.25-.25.21-.27.21-.24.24-.27.21-.25.22-.24.21-.27.21-.24.24-.28.22-.24.21-.27.21-.24.21-.28.21-.27.22-.24.21-.27.21-.25.18-.27.21-.27.22-.25.21-.27.21-.24.21-.27.19-.28.21-.24.21-.27.18-.27.21-.28.18-.24.22-.27.21-.27.18-.28.21-.24.18-.27.19-.27.21-.28.18-.27.21-.24.18-.28.19-.27.21-.27.18-.27.18-.28.18-.27.19-.27.21-.27.18-.28.18-.24.18-.27.19-.28.18-.27.18-.27.18-.27.18-.28.18-.27.19-.27.18-.27.15-.28.18-.27.18-.27.18-.28.19-.27.15-.27.18-.27.18-.28.15-.27.19-.27.15-.3.18-.28.18-.27.15L400,545l-.28.19-.27.18-.27.15-.27.15-.28.18-.27.15-.3.16-.27.18-.28.15-.27.15-.27.18-.28.15-.27.16-.27.15-.3.15-.28.15-.27.15-.27.15-.28.18-.27.16-.27.15-.3.15-.28.15-.27.12-.27.15-.28.15-.27.16-.3.15-.27.15-.28.15-.27.12-.27.15-.27.16-.31.15-.24.12-.3.15-.28.15-.27.12-.27.15-.27.13-.28.15-.3.15-.27.12-.55.27-.54.28-.58.27-.55.24-.54.27-.55.28-.54.24-.58.24-.54.27-.55.25-.54.24-.55.24-.54.24-.55.25-.55.24-.54.21-.55.24-.54.24-.55.22-.54.21-.55.24L376,557l-.52.22-.54.21-.55.21-.55.21-.51.21-.55.22-.51.18-.55.21-.51.21-.55.18-.51.19-.55.21-.51.18-.52.18-.51.18-.52.19-.51.18-.52.18-.51.18-.52.18L365,561l-.52.19-.48.15-.52.18-.52.15-.48.18-.52.15-.48.16-.49.15-.48.15-.52.15-.48.15-.48.15-.49.15-.48.13-.46.15-.48.15-.49.12-.45.15-.49.12-.45.12-.46.16-.48.12-.46.12-.45.12-.46.12-.45.12-.42.12-.46.12-.42.13-.46.09-.42.12-.46.12-.42.09-.43.12-.42.09-.42.12-.4.09-.42.1-.43.09-.39.12-.39.09-.43.09-.39.09-.4.09-.39.09-.36.06-.4.09-.39.09-.37.1-.36.06-.36.09-.37.06-.36.09-.36.06-.37.09-.33.06-.36.06-.34.06-.33.09-.33.06-.34.06-.33.06-.34.06-.3.07-.33.06-.3,0-.31.06-.3.06-.27.06-.31,0-.3.06-.27.06-.28,0-.27.06-.54.06-.52.09-.48.09-.49.06-.48.06-.43.06-.42.07-.43.06-.36,0-.36.06-.37,0-.33,0-.42.06-.43,0-.42,0-.43.06-.39,0-.43,0-.42.06-.42,0-.43,0-.42,0-.43.06-.42,0-.42,0-.4,0-.42,0-.43,0-.42,0-.43,0-.42,0-.39,0-.43,0-.42,0-.43,0-.42,0-.43,0h-.39l-.42,0-.43,0-.42,0h-.4l-.42,0-.43,0h-.42l-.39,0-.43,0h-.42l-.43,0h-.39l-.42,0h-.43l-.39,0h-.85l-.39,0h-.85l-.4,0h-1.24l-.42,0h-7l-.43,0h-1.21l-.43,0h-.78l-.43,0h-.39l-.43,0h-.39l-.39,0h-.43l-.39,0h-.4l-.42,0h-.39l-.4,0h-.42l-.4,0-.39,0h-.39l-.43,0-.39,0-.4,0h-.39l-.42,0-.4,0-.39,0-.4,0-.39,0-.42,0H288l-.39,0-.4,0-.39,0-.39,0-.4-.06-.39,0-.4,0-.42,0-.39,0-.4,0-.39,0-.4,0-.39-.06-.39,0-.4,0-.39,0-.4-.06-.39,0-.36,0-.4-.06-.39,0-.4,0-.39-.06-.39,0-.4-.06-.39,0-.4-.06-.39,0-.36-.06-.4,0-.39-.06-.39-.06-.37,0-.39-.06-.4-.06-.39,0-.36-.06-.4-.06-.39-.06-.4,0-.36-.06-.39-.06-.37-.06-.39-.06-.39-.07-.37,0-.39-.06-.37-.06-.39-.06-.36-.06-.4-.06-.39-.06-.37-.06-.39-.06-.36-.06-.37-.09-.39-.06-.36-.06-.4-.06-.36-.06-.4-.06L264,567l-.36-.06-.4-.06-.36-.06-.36-.09-.4-.06-.36-.06-.37-.09-.36-.06-.39-.06-.37-.09-.36-.06-.36-.09-.4-.06-.36-.1-.37-.06-.36-.09-.36-.06-.37-.09-.36-.06-.36-.09-.37-.09-.36-.06-.37-.09-.36-.09-.39-.06-.34-.1-.36-.09-.36-.09-.37-.06-.36-.09-.36-.09-.37-.09-.36-.09-.36-.09-.37-.06-.33-.09-.37-.09-.36-.1-.36-.09-.34-.09-.36-.09-.36-.09-.37-.09-.33-.09-.36-.09-.34-.09-.36-.12-.37-.1-.33-.09-.36-.09-.37-.09-.33-.09-.36-.12-.34-.09-.36-.09-.33-.09-.37-.12-.33-.1-.33-.09-.37-.12-.33-.09-.36-.09-.34-.12-.33-.09-.36-.12-.34-.09-.33-.09-.36-.12-.34-.1-.33-.12-.33-.09-.34-.12-.33-.12-.37-.09-.33-.12-.33-.09-.34-.12-.33-.13-.33-.09-.33-.12-.34-.12-.33-.09-.34-.12-.33-.12-.33-.12-.34-.1-.33-.12-.33-.12-.34-.12-.3-.12-.33-.12-.34-.12-.33-.09-.33-.12-.31-.13-.33-.12-.33-.12-.34-.12-.3-.12-.3-.12-.33-.12-.34-.12-.3-.13-.33-.15-.34-.12-.3-.12-.33-.12-.31-.12-.33-.12-.3-.12-.31-.16-.33-.12-.3-.12-.34-.12-.3-.15-.3-.12-.31-.12-.33-.12L223,555l-.3-.12-.31-.12-.33-.15-.3-.12-.31-.15-.3-.12-.3-.13-.31-.15-.3-.12-.3-.15-.31-.12-.3-.15-.3-.12-.3-.16-.31-.12-.3-.15-.3-.15-.31-.12-.3-.15-.27-.12-.31-.16-.3-.15-.3-.15-.27-.12-.31-.15-.3-.15-.27-.12-.31-.15-.3-.16-.27-.15-.31-.15-.27-.12-.3-.15-.27-.15-.31-.16-.27-.15-.3-.15-.28-.15-.27-.15-.27-.12-.3-.15-.28-.16-.27-.15-.3-.15-.27-.18-.28-.12-.27-.15-.27-.18-.31-.16-.27-.15-.27-.15-.27-.15-.28-.15-.27-.15-.27-.16-.28-.15-.27-.18-.27-.15-.27-.15-.28-.15-.24-.19-.27-.15-.27-.15-.28-.15-.24-.18-.27-.15-.27-.15-.25-.19-.27-.15-.27-.18-.25-.15-.27-.15-.24-.18L202,544l-.25-.18-.27-.15-.24-.15-.27-.18-.25-.15-.24-.19-.27-.15-.24-.18-.25-.18-.27-.15-.24-.18-.24-.16-.25-.18-.24-.18-.24-.15-.27-.18-.25-.19-.24-.15-.21-.18-.27-.18-.25-.15-.21-.18-.24-.19L196,540l-.25-.15-.24-.18-.24-.18-.24-.18-.22-.19-.24-.15-.24-.18-.21-.18-.24-.18-.22-.19-.24-.18-.24-.18-.21-.18-.25-.18-.21-.18-.24-.19-.21-.18-.22-.18-.24-.18-.21-.18-.21-.18L191,536l-.22-.18-.21-.18-.21-.18-.21-.18-.24-.19-.19-.18-.24-.18-.21-.21-.21-.18-.22-.19-.21-.18-.18-.18-.21-.21-.21-.18-.22-.19-.21-.18-.21-.21-.18-.18-.21-.18-.22-.21-.18-.19-.21-.18-.21-.21-.18-.18-.22-.18-.18-.22-.21-.18-.18-.21-.18-.18-.22-.18-.18-.22-.21-.21-.18-.18-.18-.21-.19-.18-.18-.19-.21-.21-.18-.21-.18-.18-.19-.21-.18-.19-.18-.21-.18-.18-.18-.21-.18-.21-.19-.19-.15-.21-.18-.21-.18-.21-.18-.18-.15-.22-.19-.21-.18-.18-.15-.21-.18-.21-.18-.22-.15-.21-.19-.21-.15-.18-.15-.22-.18-.21-.15-.21-.15-.21-.19-.21-.15-.19-.15-.24-.15-.18-.15-.21-.18-.21-.16-.22-.15-.21-.15-.21-.15-.21-.15-.21-.15-.22-.12-.21-.16-.21-.15-.21-.15-.21-.15-.25-.12-.21-.15-.21-.16-.21-.12-.22-.15-.21-.12-.21-.15-.21-.12-.25-.15-.21-.12-.21-.13-.21-.15-.21-.12-.25-.12-.21-.12-.21-.12-.24-.15-.21-.12-.22-.13-.21-.12-.24-.12-.21-.12-.22-.12-.24-.09-.21-.12-.24-.12-.22-.13-.24-.09-.21-.12-.21-.12-.24-.21-.49-.24-.48-.25-.46-.21-.48-.24-.49-.21-.48-.21-.49-.25-.45-.21-.49-.21-.48-.21-.49-.22-.45-.21-.49-.21-.48-.21-.46-.21-.48-.22-.49-.21-.45-.21-.48-.18-.49-.21-.45-.19-.49-.21-.48-.21-.46-.18-.48-.18-.46-.22-.48-.18-.49-.18-.45-.18-.49-.21-.45-.19-.49-.18-.45-.18-.49-.18-.48-.18-.46-.15-.48-.19-.46-.18-.48-.18-.45-.15-.49-.18-.45L164,493l-.18-.45-.15-.49-.18-.48-.15-.46-.15-.48-.19-.46-.15-.48-.15-.46-.15-.48-.15-.46-.15-.48-.15-.49-.16-.45-.15-.49-.15-.45-.12-.49-.15-.48-.15-.45-.15-.49-.13-.48-.15-.46-.12-.48-.15-.46-.12-.48-.12-.49-.15-.45-.13-.49-.12-.48-.12-.49-.12-.45-.12-.49-.12-.48-.12-.46-.12-.48-.12-.49-.13-.48-.12-.49-.09-.48-.12-.45-.12-.49-.09-.48-.12-.49-.09-.48-.13-.49-.09-.48-.09-.49-.12-.48-.09-.49-.09-.48-.09-.49-.12-.48-.09-.49-.09-.48-.1-.49-.09-.48-.06-.49-.09-.48-.09-.52-.09-.48-.09-.49-.06-.48-.09-.49-.06-.51-.09-.49-.06-.48-.09-.52-.06-.48-.1-.52-.06-.48-.06-.52-.06-.48-.09-.49-.06-.51-.06-.52-.06-.48-.06-.52-.06-.48-.06-.52-.06-.51,0-.49-.06-.51-.06-.52-.07-.51,0-.52-.06-.48,0-.52-.06-.51,0-.52-.06-.51,0-.52-.06-.51,0-.55,0-.52-.06-.51,0-.52,0-.51,0-.55,0-.51,0-.52,0-.54,0-.52,0-.51,0-.55,0-.51v-.55l0-.54,0-.52v-.54l0-.55,0-.52v-.54l0-.55v-.54l0-.55v-1.09l0-.54v-2.76l0-.55v-1.12l0-.54v-2.28l0-1.12v-1.15l0-.57v-.58l0-.58v-.57l0-.58v-.57l0-.58v-.58l0-.6,0-.58,0-.6v-.58l0-.57,0-.61,0-.61,0-.57,0-.61,0-.61,0-.6,0-.61,0-.6,0-.61.06-.61,0-.6,0-.61,0-.63.06-.61,0-.61,0-.63.06-.61,0-.64.06-.63,0-.61.07-.63.06-.64,0-.64.06-.63.06-.64,0-.64.06-.63.06-.64.06-.67.06-.63.06-.67.06-.64.06-.66.06-.64.06-.66.06-.67.06-.67.07-.67.06-.63.06-.7.06-.67.09-.66.06-.67.06-.7.09-.66.06-.7.09-.67.06-.69.09-.7.06-.67.09-.69.06-.7.1-.7.06-.69.09-.73.09-.7.09-.7.06-.72.09-.7.09-.73.09-.73.09-.72.09-.7.1-.73.09-.72.09-.73,0-.3,0-.31,0-.33,0-.12V373l0-.15,0-.3v-.15l0-.33,0-.31v-.48l0-.15v-.49l0-.15v-3.18l0-.18v-.7l0-.15v-.37l0-.36,0-.33v-.37l0-.36,0-.36,0-.34,0-.36,0-.37,0-.36-.06-.36,0-.4,0-.36-.06-.36,0-.37-.07-.39,0-.37-.06-.36-.06-.39,0-.37-.06-.39-.06-.36-.06-.4-.06-.39-.06-.4-.06-.36-.06-.39-.09-.4-.06-.39-.06-.4-.09-.39-.07-.39-.09-.4-.06-.39-.09-.4-.09-.39-.06-.39-.09-.43-.09-.39-.09-.4-.09-.42-.09-.39-.09-.4-.1-.42-.09-.4-.09-.42-.09-.39-.12-.43-.09-.42-.09-.4-.12-.42-.09-.43-.12-.39-.1-.42-.12-.43-.09-.42-.12-.43-.12-.39-.09-.42-.12-.43-.12-.42-.12-.43-.13-.42-.12-.43-.12-.42-.12-.42-.12-.43-.12-.42-.12-.43-.12-.42-.13-.46-.12-.42-.15-.42-.12-.43-.12-.42-.12-.43-.15-.45-.12-.43-.16-.42-.12-.45-.12-.43-.15-.42-.15-.46-.12-.42-.15-.43-.13-.45-.15-.43-.12-.45-.15-.42-.3-.88-.28-.88-.3-.88-.27-.88-.3-.88-.31-.88-.27-.88-.3-.87-.31-.88-.3-.91-.3-.88-.31-.88-.3-.88-.3-.88-.33-.88-.61-1.78-.61-1.76-.6-1.76-.64-1.76-.61-1.76-.3-.87-.3-.88-.31-.88-.3-.88-.27-.88-.3-.88-.31-.85-.3-.88-.27-.84-.31-.88-.27-.85-.3-.88-.27-.85-.28-.85-.15-.45-.12-.43-.15-.42-.12-.42-.15-.43-.13-.42-.15-.43-.12-.42-.12-.43-.15-.39-.12-.42-.12-.43-.12-.42-.16-.43-.12-.42-.12-.43-.12-.39-.12-.42-.12-.43-.12-.42-.12-.4-.13-.42-.12-.43-.09-.39-.12-.42-.12-.4-.12-.42-.09-.4-.12-.42-.12-.39-.1-.43-.12-.39-.09-.4-.09-.42-.12-.39-.09-.4-.09-.42-.12-.4-.09-.39-.1-.39-.09-.4-.09-.39-.09-.43-.09-.39-.09-.39-.09-.4-.06-.39-.09-.4-.09-.36-.06-.39-.09-.4-.06-.39-.1-.4-.06-.39-.06-.36-.09-.4-.06-.39-.06-.37-.06-.39-.06-.39-.06-.37-.06-.39-.06-.36-.06-.4,0-.39-.06-.4-.06-.39-.07-.42,0-.4-.06-.39-.06-.43-.06-.39,0-.39-.06-.43,0-.39-.06-.43-.06-.39,0-.39-.06-.43,0-.39-.06-.4,0-.42-.06-.39,0-.43-.06-.39,0-.43,0-.39-.06-.4,0-.42-.06-.39,0-.43,0-.39,0-.43-.06-.39,0-.42,0-.4,0-.42-.06-.43,0-.39,0-.43,0-.39,0-.42,0-.4,0-.42,0-.4,0-.42,0-.42,0-.4,0-.42,0-.4,0-.42,0-.43,0-.39,0-.42v-.43l0-.39,0-.43,0-.42v-.39l0-.43,0-.42,0-.4v-.42l0-.42v-.4l0-.42,0-.43v-.42l0-.4v-.42l0-.42v-.4l0-.42v-.85l0-.4v-.84l0-.43v-.82l0-.42v-2.09l0-.43V232l0-.43v-1.66l0-.43v-1.27l0-.43v-.39l0-.85v-.42l0-.85,0-.43,0-.81v-.43l.06-.85,0-.81,0-.43v-.42l.06-.85,0-.43v-.42l.06-.82,0-.42,0-.43,0-.42,0-.43,0-.42,0-.42,0-.43,0-.39,0-.43,0-.42,0-.42,0-.43.09-.85.06-.82,0-.42L131,211l0-.43.06-.42,0-.43,0-.39.06-.42,0-.43.07-.42,0-.43.06-.42,0-.43.06-.39.06-.43,0-.42.12-.85,0-.42.06-.4.06-.42.06-.42.06-.43.09-.82.06-.42.06-.43.07-.42.06-.42.06-.4.06-.42.06-.43.06-.42.15-.82.06-.42.06-.43.06-.42.09-.4.06-.42.06-.42.09-.43.07-.39.06-.43.09-.42.06-.42.09-.4.06-.42.09-.43.06-.42.09-.4.09-.42.06-.42.09-.4.09-.42.07-.43.09-.39.09-.43.09-.42.09-.39.15-.85.09-.4.09-.42.18-.82.13-.42.09-.4.09-.42.09-.42.09-.4.09-.42.12-.4.09-.42.09-.4.09-.42.13-.42.09-.4.12-.42.09-.4.12-.42.09-.39.12-.43.09-.39.12-.43.09-.39.13-.43.12-.39.09-.42.12-.4.12-.42.12-.4.12-.39.09-.42.12-.4.13-.42.12-.4.12-.39.12-.42.12-.4.12-.42.12-.4.16-.39.12-.39.12-.43.12-.39.12-.4.15-.42.12-.39.12-.4.16-.42.27-.79.12-.39.15-.43L141,164l.12-.39.16-.39.15-.4.12-.42.3-.79.15-.39.16-.4.12-.39.15-.4.15-.39.15-.39.15-.43.15-.39.16-.4.15-.39.18-.39.15-.4.15-.39.15-.37.15-.39.19-.39.15-.4.15-.39.18-.4.15-.39.19-.39.15-.4.18-.39.15-.4.18-.36.15-.39.19-.4.18-.39.15-.37.18-.39.18-.39.37-.76.18-.39.18-.4.15-.39.18-.37.21-.39.19-.39.18-.37.18-.39.36-.76.19-.39.21-.37.18-.39.18-.36.21-.4.19-.36.21-.4.18-.36.21-.39.18-.37.22-.39.39-.73.21-.39.18-.37.22-.36.21-.39.21-.37.21-.36.21-.37.19-.39.21-.36.21-.37.21-.36.24-.39.22-.37.21-.36.21-.36.21-.37.22-.36.24-.37.21-.36.21-.36.25-.37.21-.36.24-.39.45-.7.22-.37.24-.36.24-.36.21-.37.25-.36.24-.36.24-.37.21-.33.25-.36.24-.37.24-.36.24-.34L160,126l.25-.36.24-.37.27-.33.24-.36.25-.34.24-.36.24-.36.27-.34.25-.36.24-.33.27-.37.24-.33.28-.36.24-.34.27-.36.28-.33.24-.34.27-.36.27-.33.25-.34.27-.36.27-.34.27-.33.28-.33.27-.34.27-.36.27-.33.28-.34.27-.33.27-.33.28-.34.3-.33.27-.33.27-.34.31-.33.27-.33.27-.34.31-.33.27-.33.3-.34.27-.33.31-.3.3-.34.27-.33.31-.33.3-.31.3-.33.31-.33.27-.31.3-.33.3-.33.31-.31.3-.33.3-.3.34-.34.3-.3.3-.33.31-.3.33-.34.3-.3.31-.3.33-.34.3-.3.31-.3.33-.34.3-.3.33-.3.34-.31.3-.3.33-.3.34-.34.33-.3.33-.3.31-.3.33-.31.33-.3.34-.3.33-.31.33-.3.37-.27.33-.31.33-.3.34-.3.33-.3.36-.28.34-.3.36-.3.34-.28.33-.3.36-.27.34-.3.36-.31.36-.27.37-.3.33-.28.36-.27.37-.3.36-.28.36-.3.34-.27.36-.27.4-.28.33-.3.39-.27.37-.27.36-.28.36-.27.37-.27.39-.28.37-.27.36-.27.39-.27.37-.28.39-.27.36-.27.4-.27.39-.28.37-.24.39-.27.39-.28.4-.24.36-.27.4-.27.39-.25.39-.27L200,87l.39-.27.39-.25.4-.27.42-.24.4-.27.39-.25.43-.24.39-.27.39-.24.43-.25.39-.24.43-.24.39-.24.42-.28.4-.24.42-.24.43-.24.42-.25.39-.21.43-.24.42-.24.43-.25.42-.24.43-.24.42-.21.42-.25.46-.24.42-.21.43-.24,1-.52.94-.51,1-.49,1-.51,1-.52,1-.48,1-.52.48-.24.49-.24,1.45-.76.48-.24,1-.52.49-.24.51-.24.49-.25.48-.24.49-.24.48-.24.49-.25.48-.24.52-.24.48-.24.49-.24.48-.25,1-.45.49-.24.48-.25.52-.24,1-.45.51-.25.49-.21.51-.24.49-.24.48-.22.52-.24.48-.21.52-.24.48-.21.52-.25.48-.21.52-.21.48-.24.52-.22,1-.42.51-.24.49-.21.51-.22.52-.21.51-.21.49-.21.51-.22.52-.21.52-.21.48-.21.51-.18.52-.22.52-.21.51-.18.52-.21.51-.21.52-.19.51-.21.52-.18.51-.21.52-.18.51-.19.52-.21.51-.18.52-.18.51-.18.52-.18.54-.19.52-.21.51-.15.52-.18.54-.18.52-.19.51-.18.55-.18.52-.15.54-.18.52-.15.54-.19.52-.15.54-.18.52-.15.54-.15.52-.18.54-.16.55-.15.51-.15.55-.15.54-.15.55-.15.52-.16.54-.12.55-.15.54-.15.55-.12.54-.15.55-.12.54-.15.55-.13.54-.12.55-.15.55-.12.54-.12.58-.12.54-.12.55-.12.54-.13.58-.09.55-.12.54-.12.58-.09.33-.09.36-.06.34-.06.36-.06.33-.06.37-.06.33-.07.36-.06.34-.06.36-.06.36-.06.34-.06.36-.06.34,0,.36-.06.7-.12.36,0,.33-.06.37-.06.33,0,.36-.06.7-.09.36-.06.37,0,.33-.07.36,0,.34-.06.36,0,.37,0,.33-.06.7-.06.36-.06.36,0,.37,0,.33,0,.36,0,.37,0,.33,0,.36-.06.73-.06.34,0,.36,0h.36l.34,0,.36,0,.36,0,.34,0,.36,0,.36,0h.37l.33,0,.36,0h.37l.36,0,.34,0h.36l.36,0h.37l.33,0h.36l.37,0h.36l.33,0h.73l.37,0H303l.37,0h2.15l.33,0h1.09Z"/><path class="cls-10" d="M320.73,538.44c71.55-12.46,88.55-45.79,92.67-61C421.19,448.8,425,393.25,418,363.7c-2.4-10.24-7-21.91-14.79-30.43C386,314.64,309.34,313,280.67,317.4c-11.46,1.75-21.82,5.72-32.1,10.06-35.66,15.15-47.94,190.19,19.76,207.25C286.43,539.29,309.37,540.44,320.73,538.44Z"/><path class="cls-10" d="M444.77,223.39a5,5,0,1,0,5,5A5,5,0,0,0,444.77,223.39Z"/><path class="cls-10" d="M196.27,232.48a5,5,0,1,0,5,5A5,5,0,0,0,196.27,232.48Z"/><path class="cls-5" d="M259.36,406s-14.63-42.7-41.09-49.13-37.15,14.52-20.3,26.7,31.63,25.06,33.33,41.64S268.85,432.83,259.36,406Z"/><path d="M241.92,438.12a18.29,18.29,0,0,1-6.15-1,13.18,13.18,0,0,1-9-11.45c-1.53-14.91-16-27.28-31.47-38.41-9-6.48-12.28-16-8.44-24.33,3.52-7.63,14.15-15,32.48-10.47,28.45,6.91,43.58,49.94,44.31,52,3.59,10.18,1.82,19.84-4.84,26.48A24.51,24.51,0,0,1,241.92,438.12Zm-33.06-77.93c-7.35,0-12.07,2.91-13.74,6.53-2,4.24.15,9.27,5.51,13.15,17.16,12.37,33.3,26.37,35.19,44.86a4.15,4.15,0,0,0,3,3.81c3.46,1.24,9.48.07,13.58-4,2.93-2.93,5.78-8.26,2.68-17a.06.06,0,0,1,0,0c-.14-.4-14.16-40.42-37.87-46.18A35.22,35.22,0,0,0,208.86,360.19Z"/><path class="cls-4" d="M331.7,202.57c-13.85.85-24.67,8.7-24.12,17.52s12.24,15.27,26.09,14.42,24.7-8.7,24.15-17.51S345.58,201.69,331.7,202.57Z"/><polygon class="cls-4" points="334.37 225.15 334.58 225.18 334.79 225.21 334.97 225.24 335.19 225.27 335.37 225.33 335.58 225.36 335.76 225.45 335.94 225.51 336.13 225.6 336.31 225.69 336.49 225.78 336.64 225.91 336.82 226 336.97 226.12 337.13 226.27 337.28 226.39 337.43 226.54 337.55 226.66 337.7 226.84 337.82 227 337.94 227.15 338.03 227.33 338.15 227.51 338.25 227.66 338.31 227.85 338.4 228.06 338.46 228.24 338.52 228.42 338.58 228.6 338.61 228.81 338.67 229.03 338.67 229.21 338.7 229.42 338.7 229.6 338.73 229.97 338.73 230.3 338.73 230.63 338.73 230.97 338.76 231.3 338.76 231.63 338.79 231.97 338.79 232.3 338.82 232.63 338.85 232.97 338.85 233.33 338.88 233.66 338.91 234 338.94 234.33 338.94 234.66 338.97 235 339 235.33 339.03 235.69 339.06 236.03 339.1 236.36 339.13 236.69 339.16 237.03 339.19 237.39 339.22 237.72 339.25 238.06 339.31 238.39 339.34 238.75 339.37 239.09 339.43 239.78 339.52 240.45 339.58 241.15 339.67 241.85 339.82 243.24 339.91 243.94 339.97 244.63 340.06 245.36 340.16 246.06 340.22 246.79 340.31 247.48 340.34 247.85 340.37 248.21 340.4 248.57 340.43 248.91 340.46 249.27 340.52 249.63 340.55 250 340.58 250.36 340.61 250.72 340.64 251.09 340.67 251.45 340.7 251.82 340.7 252.03 340.7 252.24 340.7 252.42 340.67 252.63 340.67 252.82 340.61 253.03 340.58 253.21 340.52 253.42 340.46 253.6 340.4 253.79 340.34 254 340.25 254.18 340.16 254.36 340.06 254.51 339.94 254.69 339.82 254.85 339.7 255.03 339.58 255.18 339.43 255.33 339.31 255.45 339.16 255.6 339 255.73 338.85 255.85 338.67 255.97 338.49 256.06 338.34 256.18 338.15 256.27 337.97 256.36 337.79 256.42 337.58 256.48 337.4 256.54 337.22 256.61 337 256.63 336.82 256.67 336.61 256.69 336.4 256.73 336.22 256.73 336 256.73 335.79 256.69 335.61 256.69 335.4 256.67 335.22 256.63 335 256.57 334.82 256.51 334.64 256.45 334.43 256.39 334.25 256.3 334.06 256.21 333.91 256.12 333.73 256.03 333.55 255.91 333.4 255.79 333.25 255.66 333.1 255.54 332.94 255.39 332.79 255.24 332.67 255.09 332.55 254.94 332.43 254.79 332.31 254.6 332.22 254.42 332.13 254.27 332.03 254.09 331.94 253.91 331.88 253.69 331.82 253.51 331.76 253.33 331.7 253.12 331.67 252.94 331.64 252.73 331.64 252.54 331.61 252.18 331.58 251.85 331.55 251.48 331.52 251.15 331.49 250.82 331.46 250.48 331.43 250.15 331.4 249.79 331.37 249.45 331.31 249.12 331.28 248.75 331.25 248.42 331.19 247.72 331.1 247.06 331.03 246.36 330.94 245.66 330.88 244.97 330.79 244.27 330.64 242.88 330.55 242.18 330.49 241.45 330.4 240.75 330.34 240.06 330.28 239.69 330.25 239.33 330.22 238.97 330.19 238.6 330.15 238.24 330.1 237.91 330.06 237.54 330.03 237.18 330 236.82 329.97 236.45 329.94 236.09 329.91 235.72 329.88 235.36 329.85 235 329.85 234.63 329.82 234.27 329.79 233.88 329.76 233.51 329.73 233.15 329.73 232.78 329.7 232.39 329.7 232.03 329.67 231.66 329.67 231.3 329.64 230.91 329.64 230.54 329.64 230.15 329.61 229.78 329.61 229.57 329.64 229.39 329.64 229.18 329.67 229 329.7 228.78 329.76 228.6 329.82 228.39 329.88 228.21 329.94 228.03 330.03 227.85 330.1 227.66 330.22 227.48 330.31 227.3 330.43 227.12 330.52 226.97 330.67 226.81 330.79 226.66 330.91 226.51 331.06 226.36 331.22 226.24 331.37 226.12 331.55 226 331.7 225.88 331.88 225.78 332.06 225.66 332.25 225.57 332.43 225.51 332.61 225.42 332.79 225.36 332.97 225.3 333.19 225.27 333.37 225.21 333.58 225.18 333.79 225.18 333.97 225.15 334.19 225.15 334.37 225.15"/><path class="cls-10" d="M383.89,85.14c-5.28-1.61-10.25-.67-11.07,2.06s2.79,6.24,8.07,7.85,10.24.7,11.06-2.06S389.19,86.75,383.89,85.14Z"/><path class="cls-10" d="M191.24,108.54c-3.55,4.21-4.67,9.15-2.46,11s6.85-.09,10.4-4.31,4.64-9.15,2.45-11S194.78,104.29,191.24,108.54Z"/><path class="cls-11" d="M419.64,103.48a51.49,51.49,0,1,0,43.7,58.24A51.5,51.5,0,0,0,419.64,103.48Z"/><path d="M412.39,210.48A56,56,0,1,1,420.28,99h0a56,56,0,0,1-7.89,111.5Zm0-103A47,47,0,1,0,419,108h0A46.77,46.77,0,0,0,412.36,107.5Z"/><path class="cls-11" d="M238.15,118.54a51.5,51.5,0,1,0,43.7,58.24A51.54,51.54,0,0,0,238.15,118.54Z"/><path d="M231,225.58a57,57,0,0,1-8-.57,56,56,0,1,1,15.8-111h0A56.05,56.05,0,0,1,231,225.58Zm-.12-103a47,47,0,1,0,46.48,53.57,46.94,46.94,0,0,0-46.48-53.57Z"/><path class="cls-4" d="M395.37,116.48a18.29,18.29,0,1,0,25.7,3A18.29,18.29,0,0,0,395.37,116.48Z"/><path class="cls-4" d="M229.48,127a18.3,18.3,0,1,0,22.82,12.15A18.3,18.3,0,0,0,229.48,127Z"/><path class="cls-11" d="M402,120.63a5.12,5.12,0,1,0,7.21.82A5.11,5.11,0,0,0,402,120.63Z"/><path class="cls-11" d="M234.09,133.29a5.13,5.13,0,1,0,6.42,3.4A5.16,5.16,0,0,0,234.09,133.29Z"/><path class="cls-4" d="M236.18,324.46s22.58-73.1,100.31-74.55c74.52-1.37,103.46,58.3,105.7,73.64C444,336,388.46,308.18,335.58,307.76,282.24,307.3,229.85,344.79,236.18,324.46Z"/><path class="cls-12" d="M356.34,257.82c-1.4,7.39-1.12,21.18-5.09,27.39-1.91,3-6.46,3.4-9.46,3.64-17.06,1.36-17.67-16.18-20.94-31.31"/><polygon class="cls-4" points="356.79 253.27 357.06 253.3 357.31 253.36 357.55 253.42 357.79 253.48 358 253.57 358.25 253.66 358.46 253.79 358.7 253.91 358.91 254.03 359.1 254.18 359.31 254.33 359.49 254.51 359.67 254.69 359.82 254.88 359.98 255.09 360.13 255.27 360.25 255.48 360.37 255.73 360.49 255.94 360.58 256.18 360.67 256.39 360.73 256.63 360.79 256.88 360.85 257.15 360.88 257.39 360.88 257.63 360.88 257.88 360.88 258.12 360.85 258.39 360.82 258.63 360.79 258.79 360.76 258.94 360.73 259.12 360.7 259.27 360.67 259.42 360.64 259.61 360.61 259.76 360.61 259.94 360.58 260.12 360.55 260.3 360.52 260.45 360.49 260.67 360.46 260.85 360.46 261.03 360.43 261.21 360.4 261.39 360.34 261.79 360.31 262.21 360.25 262.61 360.22 263.03 360.16 263.45 360.13 263.88 360.1 264.33 360.04 264.76 360 265.21 359.94 265.67 359.85 266.61 359.79 267.54 359.7 268.51 359.64 269 359.58 269.48 359.55 270 359.49 270.48 359.43 270.97 359.4 271.48 359.34 271.97 359.28 272.48 359.22 272.97 359.19 273.24 359.16 273.48 359.13 273.73 359.1 273.97 359.07 274.24 359.04 274.48 358.98 274.73 358.94 275 358.91 275.24 358.88 275.48 358.85 275.73 358.79 276 358.76 276.24 358.73 276.48 358.67 276.73 358.64 277 358.61 277.24 358.55 277.48 358.52 277.73 358.46 277.97 358.43 278.21 358.37 278.48 358.31 278.73 358.28 278.97 358.22 279.21 358.16 279.45 358.13 279.7 358.07 279.94 358 280.18 357.94 280.42 357.88 280.67 357.82 280.91 357.76 281.15 357.7 281.36 357.64 281.61 357.58 281.85 357.49 282.09 357.43 282.33 357.37 282.55 357.28 282.79 357.22 283.03 357.13 283.24 357.06 283.48 356.97 283.7 356.88 283.94 356.82 284.18 356.73 284.39 356.64 284.61 356.55 284.85 356.46 285.06 356.37 285.27 356.31 285.39 356.25 285.51 356.22 285.61 356.16 285.73 356.1 285.85 356.04 285.94 356 286.06 355.94 286.15 355.88 286.27 355.82 286.39 355.76 286.49 355.7 286.61 355.67 286.7 355.61 286.82 355.55 286.91 355.49 287.03 355.4 287.15 355.37 287.24 355.31 287.33 355.25 287.45 355.16 287.55 355.1 287.67 355 287.79 354.94 287.91 354.85 288.06 354.76 288.18 354.67 288.3 354.58 288.42 354.46 288.55 354.37 288.67 354.28 288.76 354.19 288.88 354.1 289 353.97 289.12 353.88 289.21 353.76 289.33 353.67 289.42 353.58 289.51 353.46 289.64 353.34 289.73 353.25 289.82 353.16 289.91 353.04 290 352.91 290.09 352.82 290.18 352.7 290.27 352.58 290.36 352.46 290.42 352.37 290.51 352.25 290.61 352.13 290.67 352.04 290.76 351.91 290.82 351.79 290.88 351.67 290.97 351.58 291.03 351.46 291.09 351.34 291.15 351.22 291.21 351.1 291.3 351 291.36 350.88 291.39 350.76 291.45 350.64 291.51 350.55 291.58 350.43 291.64 350.31 291.67 350.19 291.73 350.06 291.79 349.98 291.82 349.85 291.88 349.73 291.94 349.64 291.97 349.52 292 349.4 292.06 349.28 292.09 349.19 292.12 349.06 292.18 348.94 292.21 348.82 292.24 348.73 292.27 348.61 292.33 348.52 292.36 348.4 292.39 348.28 292.42 348.19 292.45 347.94 292.51 347.73 292.58 347.52 292.64 347.31 292.67 347.1 292.73 346.88 292.79 346.67 292.82 346.46 292.85 346.25 292.91 346.06 292.94 345.85 292.97 345.64 293 345.46 293.03 345.25 293.06 345.06 293.09 344.85 293.12 344.67 293.15 344.49 293.15 344.31 293.18 344.13 293.21 343.94 293.21 343.76 293.24 343.58 293.27 343.4 293.27 343.1 293.3 342.76 293.33 342.46 293.36 342.16 293.39 341.94 293.39 341.7 293.42 341.46 293.42 341.22 293.45 341 293.45 340.76 293.45 340.55 293.45 340.31 293.45 340.1 293.45 339.85 293.45 339.64 293.45 339.4 293.45 339.19 293.45 338.97 293.45 338.73 293.42 338.52 293.42 338.31 293.42 338.06 293.39 337.85 293.36 337.64 293.36 337.43 293.33 337.22 293.3 337 293.27 336.79 293.24 336.58 293.21 336.37 293.18 336.16 293.15 335.94 293.12 335.73 293.09 335.55 293.03 335.34 293 335.13 292.94 334.91 292.91 334.73 292.85 334.52 292.79 334.31 292.76 334.13 292.7 333.91 292.64 333.73 292.58 333.55 292.51 333.34 292.45 333.13 292.39 332.94 292.3 332.76 292.24 332.58 292.18 332.4 292.09 332.19 292.03 332 291.94 331.82 291.85 331.64 291.79 331.46 291.7 331.28 291.61 331.13 291.51 330.94 291.43 330.76 291.33 330.58 291.24 330.4 291.15 330.25 291.06 330.06 290.97 329.91 290.85 329.73 290.76 329.58 290.64 329.4 290.55 329.25 290.42 329.09 290.33 328.91 290.21 328.76 290.09 328.61 290 328.46 289.88 328.31 289.76 328.15 289.64 328 289.51 327.85 289.39 327.73 289.27 327.58 289.15 327.43 289.03 327.28 288.91 327.15 288.76 327 288.64 326.88 288.51 326.73 288.39 326.61 288.24 326.49 288.12 326.34 287.97 326.22 287.85 326.09 287.7 325.97 287.58 325.85 287.42 325.73 287.3 325.61 287.15 325.49 287 325.37 286.85 325.25 286.7 325.12 286.58 325 286.42 324.91 286.27 324.79 286.12 324.7 285.97 324.58 285.82 324.46 285.67 324.37 285.51 324.28 285.36 324.15 285.21 324.06 285.06 323.97 284.91 323.85 284.76 323.76 284.61 323.67 284.45 323.58 284.3 323.49 284.12 323.4 283.97 323.31 283.82 323.21 283.67 323.12 283.51 323.03 283.33 322.94 283.18 322.85 283.03 322.79 282.88 322.7 282.7 322.61 282.55 322.55 282.36 322.46 282.21 322.37 282.06 322.31 281.88 322.21 281.73 322.15 281.55 322.06 281.39 322 281.21 321.91 281.06 321.85 280.88 321.79 280.73 321.7 280.55 321.64 280.39 321.58 280.21 321.52 280.03 321.43 279.88 321.37 279.7 321.31 279.55 321.25 279.36 321.19 279.18 321.13 279 321.06 278.85 321 278.67 320.94 278.48 320.88 278.33 320.82 278.15 320.76 278 320.7 277.82 320.64 277.64 320.58 277.45 320.52 277.27 320.46 277.12 320.43 276.94 320.37 276.76 320.31 276.57 320.25 276.42 320.21 276.24 320.15 276.06 320.09 275.88 320.06 275.7 319.94 275.33 319.85 275 319.76 274.64 319.67 274.27 319.58 273.91 319.49 273.54 319.4 273.21 319.31 272.85 319.21 272.48 319.15 272.12 319.06 271.76 318.97 271.39 318.88 271.03 318.82 270.67 318.73 270.3 318.67 269.94 318.58 269.57 318.52 269.21 318.43 268.85 318.37 268.48 318.31 268.12 318.21 267.76 318.09 267.03 317.94 266.3 317.82 265.57 317.55 264.12 317.4 263.42 317.28 262.7 317.12 262 317.06 261.63 317 261.27 316.91 260.94 316.85 260.57 316.79 260.24 316.7 259.88 316.64 259.54 316.58 259.21 316.49 258.85 316.43 258.51 316.37 258.27 316.34 258 316.34 257.76 316.31 257.51 316.34 257.27 316.34 257 316.4 256.76 316.43 256.51 316.49 256.27 316.58 256.03 316.67 255.82 316.76 255.57 316.88 255.36 317 255.15 317.15 254.94 317.31 254.72 317.46 254.54 317.64 254.36 317.82 254.18 318 254.03 318.21 253.88 318.4 253.72 318.64 253.6 318.85 253.48 319.06 253.36 319.31 253.27 319.55 253.21 319.79 253.12 320.03 253.09 320.28 253.03 320.52 253.03 320.79 253 321.03 253 321.28 253.03 321.52 253.06 321.76 253.09 322 253.15 322.25 253.21 322.49 253.3 322.73 253.39 322.94 253.51 323.19 253.63 323.4 253.75 323.58 253.91 323.79 254.06 323.97 254.24 324.15 254.42 324.31 254.6 324.49 254.79 324.61 255 324.76 255.21 324.88 255.42 325 255.63 325.09 255.88 325.19 256.12 325.25 256.36 325.31 256.61 325.4 256.97 325.46 257.33 325.55 257.69 325.61 258.06 325.7 258.42 325.76 258.79 325.85 259.15 325.91 259.54 325.97 259.91 326.06 260.27 326.19 261 326.34 261.73 326.46 262.45 326.73 263.88 326.88 264.61 327 265.3 327.15 266.03 327.22 266.36 327.28 266.73 327.37 267.06 327.43 267.39 327.49 267.76 327.58 268.09 327.64 268.42 327.7 268.76 327.79 269.09 327.85 269.42 327.91 269.76 328 270.09 328.06 270.42 328.15 270.73 328.21 271.06 328.31 271.36 328.4 271.7 328.46 272 328.55 272.3 328.64 272.61 328.7 272.91 328.79 273.21 328.85 273.36 328.88 273.51 328.91 273.67 328.97 273.82 329 273.97 329.06 274.12 329.09 274.24 329.15 274.39 329.19 274.55 329.25 274.67 329.28 274.82 329.34 274.94 329.37 275.09 329.43 275.24 329.46 275.36 329.52 275.51 329.55 275.63 329.61 275.79 329.67 275.91 329.7 276.03 329.76 276.18 329.79 276.3 329.85 276.42 329.91 276.57 329.94 276.7 330 276.82 330.06 276.94 330.1 277.06 330.15 277.18 330.22 277.3 330.28 277.42 330.31 277.55 330.37 277.67 330.43 277.79 330.49 277.91 330.52 278.03 330.58 278.12 330.64 278.24 330.7 278.36 330.76 278.48 330.79 278.57 330.85 278.7 330.91 278.82 330.97 278.91 331.03 279 331.1 279.12 331.15 279.21 331.22 279.33 331.25 279.42 331.31 279.51 331.37 279.64 331.43 279.73 331.49 279.82 331.55 279.91 331.61 280 331.67 280.09 331.73 280.18 331.79 280.27 331.85 280.36 331.91 280.45 331.97 280.55 332.03 280.64 332.09 280.73 332.15 280.79 332.22 280.88 332.28 280.97 332.34 281.03 332.43 281.12 332.49 281.21 332.55 281.27 332.61 281.33 332.67 281.42 332.73 281.49 332.79 281.58 332.88 281.64 332.94 281.73 333 281.79 333.06 281.85 333.13 281.91 333.19 281.97 333.28 282.03 333.34 282.12 333.4 282.18 333.46 282.24 333.55 282.3 333.61 282.36 333.67 282.39 333.76 282.45 333.82 282.51 333.88 282.57 333.97 282.64 334.03 282.7 334.1 282.73 334.19 282.79 334.25 282.85 334.34 282.88 334.4 282.94 334.46 283 334.55 283.03 334.61 283.09 334.7 283.12 334.79 283.18 334.85 283.21 334.94 283.27 335 283.3 335.1 283.36 335.19 283.39 335.28 283.42 335.34 283.48 335.43 283.51 335.52 283.55 335.61 283.57 335.7 283.64 335.79 283.67 335.88 283.7 335.97 283.73 336.06 283.76 336.16 283.79 336.25 283.82 336.34 283.85 336.43 283.91 336.52 283.94 336.64 283.94 336.73 283.97 336.82 284 336.94 284.03 337.04 284.06 337.16 284.09 337.25 284.12 337.37 284.12 337.46 284.15 337.58 284.18 337.7 284.21 337.82 284.21 337.94 284.24 338.06 284.24 338.19 284.27 338.31 284.27 338.43 284.3 338.55 284.3 338.67 284.33 338.79 284.33 338.94 284.33 339.06 284.36 339.22 284.36 339.34 284.36 339.46 284.36 339.61 284.36 339.76 284.36 339.91 284.36 340.04 284.36 340.19 284.36 340.34 284.36 340.49 284.36 340.64 284.36 340.79 284.36 340.97 284.36 341.13 284.33 341.28 284.33 341.46 284.3 341.73 284.3 342 284.27 342.28 284.24 342.58 284.21 342.7 284.21 342.85 284.18 342.97 284.18 343.13 284.15 343.28 284.15 343.4 284.12 343.55 284.12 343.67 284.09 343.82 284.09 343.94 284.06 344.1 284.03 344.22 284.03 344.37 284 344.49 283.97 344.61 283.97 344.73 283.94 344.85 283.91 345 283.88 345.13 283.85 345.25 283.82 345.34 283.79 345.46 283.76 345.58 283.73 345.7 283.7 345.79 283.67 345.88 283.64 346 283.61 346.06 283.61 346.13 283.57 346.25 283.51 346.28 283.51 346.37 283.48 346.46 283.45 346.55 283.39 346.61 283.36 346.7 283.33 346.76 283.3 346.82 283.27 346.88 283.24 346.94 283.21 346.98 283.18 347.03 283.15 347.1 283.12 347.13 283.09 347.16 283.06 347.22 283.03 347.28 282.97 347.31 282.94 347.34 282.88 347.37 282.85 347.4 282.82 347.43 282.79 347.46 282.7 347.49 282.67 347.55 282.55 347.58 282.51 347.64 282.42 347.7 282.3 347.76 282.21 347.79 282.15 347.79 282.12 347.82 282.06 347.88 281.94 347.91 281.88 347.94 281.82 348 281.7 348.04 281.64 348.1 281.49 348.13 281.36 348.19 281.24 348.25 281.09 348.31 280.94 348.37 280.82 348.4 280.67 348.46 280.51 348.52 280.36 348.58 280.18 348.61 280.03 348.67 279.88 348.73 279.7 348.76 279.55 348.82 279.36 348.88 279.18 348.91 279.03 348.97 278.82 349 278.67 349.06 278.45 349.1 278.27 349.16 278.09 349.19 277.91 349.25 277.7 349.28 277.51 349.34 277.33 349.37 277.12 349.4 276.91 349.46 276.73 349.49 276.51 349.52 276.3 349.58 276.09 349.61 275.88 349.64 275.67 349.67 275.45 349.7 275.24 349.76 275.03 349.79 274.82 349.82 274.61 349.85 274.36 349.88 274.15 349.91 273.94 349.94 273.7 349.98 273.48 350 273.27 350.04 273.03 350.06 272.82 350.1 272.57 350.13 272.36 350.19 271.88 350.25 271.42 350.31 270.97 350.34 270.48 350.4 270.03 350.46 269.54 350.49 269.09 350.55 268.61 350.58 268.12 350.64 267.67 350.73 266.7 350.82 265.76 350.91 264.82 350.94 264.36 351 263.91 351.04 263.42 351.1 262.97 351.13 262.51 351.19 262.06 351.22 261.63 351.28 261.18 351.31 260.73 351.37 260.3 351.4 260.09 351.43 259.88 351.46 259.63 351.49 259.42 351.52 259.21 351.55 259 351.58 258.79 351.61 258.57 351.64 258.39 351.67 258.18 351.7 257.97 351.73 257.76 351.76 257.54 351.79 257.36 351.85 257.15 351.88 256.97 351.94 256.73 352 256.48 352.06 256.24 352.16 256.03 352.28 255.79 352.4 255.57 352.52 255.36 352.67 255.15 352.82 254.94 352.98 254.76 353.16 254.57 353.34 254.39 353.52 254.24 353.73 254.09 353.91 253.97 354.16 253.82 354.37 253.72 354.58 253.6 354.82 253.51 355.07 253.45 355.31 253.39 355.55 253.33 355.79 253.3 356.07 253.27 356.31 253.27 356.55 253.27 356.79 253.27"/></g></g></svg>