<svg xmlns="http://www.w3.org/2000/svg" xmlns:xlink="http://www.w3.org/1999/xlink" width="600" height="600" viewBox="0 0 600 600"><defs><style>.cls-1{fill:none;clip-rule:evenodd;}.cls-2{isolation:isolate;}.cls-3,.cls-5{fill:#61e0ee;}.cls-4{fill:#d6c295;}.cls-10,.cls-11,.cls-12,.cls-4,.cls-5,.cls-6,.cls-9{fill-rule:evenodd;}.cls-7{clip-path:url(#clip-path);}.cls-8{opacity:0.5;mix-blend-mode:multiply;}.cls-9{fill:#4fcbe0;}.cls-10{fill:#b7f8ff;}.cls-11{fill:#ededed;}.cls-12{fill:#fff;}</style><clipPath id="clip-path"><path class="cls-1" d="M165,500.6s-22.75-44.77-18.46-83.17c13.48-120.19-21.9-143.79-8.06-217.12,4.8-25.44,13.86-54.44,29.33-75.53,34-46.32,99.31-70.37,156.12-59.49,22.75,4.35,43.29,14.2,63.63,25C458.3,127.86,473,207.17,463.79,274c-4.08,29.58-29.51,75.69-25.8,105.36,7.77,61.84,5.59,95.32-13.72,135.23-16.46,34-80.48,59.61-150.52,52.33C261.82,565.68,190.42,553.17,165,500.6Z"/></clipPath></defs><title>1</title><g class="cls-2"><g id="Слой_1" data-name="Слой 1"><path class="cls-3" d="M285.23,82.09a4.53,4.53,0,0,1-4.48-3.87C276.88,52,270.21,47.14,267.52,46.28c-3.87-1.24-8,2.77-8,2.81A4.53,4.53,0,1,1,253,42.81c2.92-3,9.85-7.55,17.29-5.16,9.64,3.08,16,15.92,19.44,39.24A4.54,4.54,0,0,1,285.89,82,4.89,4.89,0,0,1,285.23,82.09Z"/><path class="cls-3" d="M301.92,79.46a3.77,3.77,0,0,1-.58,0,4.53,4.53,0,0,1-3.93-5.07c3.15-24.74,9.34-38.31,18.92-41.47,7-2.29,13.38,1.86,16.08,4.68a4.53,4.53,0,0,1-6.53,6.29c-.12-.12-3.51-3.45-6.74-2.35-2.06.7-9.07,5.22-12.73,34A4.54,4.54,0,0,1,301.92,79.46Z"/><path class="cls-3" d="M293.45,73.44h-.33a4.53,4.53,0,0,1-4.19-4.84c2.36-33-3.73-40.45-6.46-42.12s-5.83.22-6,.31a4.56,4.56,0,0,1-6.22-1.48,4.5,4.5,0,0,1,1.39-6.19c2.89-1.85,9.38-4,15.37-.46,9.39,5.59,13,22.14,10.92,50.59A4.53,4.53,0,0,1,293.45,73.44Z"/><path class="cls-4" d="M203.05,564.6s2.48-44.93,26.08-58.29,39.61,3.87,26.73,20.1-23.56,32.63-20.66,49S201.24,592.94,203.05,564.6Z"/><path d="M222.39,591.54a24.88,24.88,0,0,1-12-3.11c-8.2-4.57-12.51-13.36-11.83-24.1.12-2.2,3-47.59,28.36-62,16.39-9.28,28.57-5.13,34,1.25,5.93,6.93,5.34,17-1.5,25.6-13.64,17.22-22.22,31.53-19.76,45.4a13.16,13.16,0,0,1-5.52,13.44A20.26,20.26,0,0,1,222.39,591.54Zm22.73-85.49c-3.81,0-8.49,1.22-13.76,4.21-21.2,12-23.76,54.16-23.78,54.59v0c-.59,9.26,3.59,13.61,7.2,15.62,5,2.8,11.13,2.29,14.12.17a4.18,4.18,0,0,0,1.85-4.49c-3.39-19.11,9.36-37.17,21.57-52.6,4.09-5.15,4.75-10.55,1.72-14.08C252.25,507.42,249.17,506.05,245.12,506.05ZM203.05,564.6h0Z"/><path class="cls-4" d="M406.33,569.82s-23.78-38.19-12.12-62.69,34.63-19.58,33.42,1.12-.55,40.24,11.21,52S421.1,594.08,406.33,569.82Z"/><path d="M423.6,585.27c-8.4,0-16-4.66-21.13-13.07-1.18-1.89-24.89-40.67-12.35-67,8.09-17,20.44-20.6,28.56-18.5,8.83,2.26,14.12,10.83,13.47,21.83-1.11,19-.67,38,9.89,48.53a13.1,13.1,0,0,1,3.2,14.14c-2.59,7.32-10.5,13.06-19.25,14A21.4,21.4,0,0,1,423.6,585.27Zm-9.26-90.07c-5,0-11.36,4.07-16,13.88-10.46,22,11.64,58,11.87,58.35,0,0,0,0,0,0,4.83,7.94,10.74,9.09,14.85,8.67,5.74-.6,10.43-4.52,11.65-8a4.14,4.14,0,0,0-1.06-4.71c-13.1-13.09-13.77-34.4-12.54-55.47.39-6.57-2.17-11.37-6.67-12.53A8.86,8.86,0,0,0,414.34,495.2Z"/><path class="cls-5" d="M440.53,181.25c.82-5,11-12.57,15.2-14.29,51.36-20.91,33.35,38,3.44,35.65"/><path class="cls-6" d="M446.45,182.36Zm28.37-26h.46l.24,0H476l.21,0h.21l.24,0h.22l.21,0h.21l.24,0,.21,0,.21,0,.22,0,.21,0,.21,0,.21,0,.21,0,.21,0,.21,0,.22.07.21,0,.21,0,.18.06.21,0,.21.06.21.06.19,0,.21.06.21.06.18.06.18.06.21.06.18.06.22.06.18.06.21.06.18.09.18.06.18.09.21.06.18.09.19.06.18.09.18.1.21.09.15.09.18.06.18.09.19.12.18.09.18.09.15.09.18.09.18.12.15.09.18.12.16.09.18.13.15.09.15.12.18.12.15.12.15.09.15.15.15.12.16.12.15.12.15.12.15.12.15.16.15.12.12.12.15.15.15.12.12.12.13.15.15.15.12.12.12.15.12.16.15.12.12.15.12.15.12.15.12.15.09.15.12.15.13.15.09.15.12.16.12.18.09.15.09.15.12.15.09.15.09.18.09.15.09.15.09.19.09.15.09.18.09.15.07.18.09.15.09.18.06.15.09.18.06.16.06.18.09.15.06.18.06.18.06.15.06.18.06.18.06.16.06.18.06.18,0,.18.06.15.06.18,0,.18.06.18,0,.16.06.18,0,.18,0,.15.06.21,0,.18,0,.15,0,.18,0,.19,0,.18,0,.18,0,.15,0,.18V172l0,.18,0,.18v.19l0,.15v.21l0,.15v.18l0,.18V174l0,.15v1.42l0,.18v.54l0,.18v.15l0,.22V177l0,.18v.18l0,.18,0,.18v.18l0,.15,0,.19,0,.18v.18l0,.18,0,.15,0,.21,0,.15,0,.18,0,.19,0,.18,0,.18-.07.15,0,.18,0,.18,0,.18-.06.18,0,.19,0,.15-.06.18,0,.18-.06.15,0,.18-.06.18-.06.18,0,.19-.06.15,0,.18-.06.18-.06.18-.06.15-.06.18,0,.18-.06.15-.06.22-.06.15-.06.18-.06.15-.06.18-.06.18-.07.18-.06.15-.09.19-.06.18-.06.15-.06.18-.09.15-.06.18-.06.18-.09.15-.06.19-.09.15-.06.18-.09.18-.06.15-.09.18-.06.18-.09.15-.06.16-.09.18-.1.18-.09.15-.06.18-.09.15-.09.18-.09.15-.09.15-.09.19-.09.18-.09.15-.09.18-.09.15-.09.15-.09.18-.09.15-.09.16-.1.18-.12.15-.09.18-.09.15-.09.15-.12.18-.09.15-.09.15-.12.19-.09.15-.09.15-.12.15-.12.18-.09.15-.13.15-.09.15-.12.15-.12.19-.09.15-.12.15-.12.15-.09.15-.12.15-.12.15-.12.15-.12.15-.13.19-.09.12-.12.15-.12.15-.12.18-.15.15-.09.12-.15.15-.12.15-.12.15-.12.16-.12.15-.13.15-.15.12-.12.15-.12.15-.12.15-.15.12-.12.15-.15.15-.12.16-.12.12-.16.15-.12.15-.15.12-.12.15-.15.15-.15.12-.12.15-.15.12-.12.13-.15.15-.15.15-.16.12-.12.12-.15.15-.15.12-.15.12-.15.15-.15.12-.15.12-.15.13-.16.15-.15.12-.15.12-.15.12-.15.15-.15.12-.15.09-.15.15-.18.12-.16.12-.15.13-.15.09-.18.15-.15.12-.15.09-.15.12-.18.12-.15.12-.19.12-.15.09-.15.12-.18.12-.18.1-.15.12-.18.09-.15.12-.18.09-.19.12-.15.09-.18.12-.18.09-.15.09-.21.12-.15.09-.18.09-.19.12-.18.1-.18.09-.18.09-.15.09-.21.09-.18.09-.15.09-.22.09-.18.09-.18.09-.18.09-.18.09-.18.06-.18.09-.19.09-.21.06-.18.1-.21.09-.18.06-.18.09-.18.06-.21.09-.19.06-.18.06-.21.09-.18.06-.21.06-.18.06-.21.06-.22.06-.18.06-.18.06-.21.06-.21.06-.18.06-.21.06-.22.06-.21,0-.18.07-.21.06-.21,0-.18.06-.24,0-.22.06-.18,0-.21.06-.21,0-.21,0-.21,0-.21,0-.22.06-.21,0-.21,0h-.18l-.21,0-.24,0-.21,0-.22,0h-.21l-.21,0-.21,0h-.21l-.21,0h-.46l-.21,0h-2.17l-.25,0h-.45l-.21,0h-.18l-.33,0-.34-.06-.33-.06-.33-.09-.33-.12-.31-.12-.3-.15-.3-.15-.3-.19-.27-.18-.28-.21-.24-.24-.24-.24-.24-.24-.21-.25-.18-.3-.22-.27-.15-.3-.15-.3-.15-.31-.09-.33-.12-.3-.06-.33-.06-.34-.06-.33v-.36l0-.33,0-.33,0-.34.06-.33.06-.33.09-.33.12-.34.12-.3.15-.3.15-.3.19-.31.18-.27.21-.27.21-.24.24-.24.24-.24.28-.22.27-.21.3-.18.27-.15.3-.15L457,197l.3-.12.33-.09.33-.06.33-.06.34-.06.33,0h.33l.36,0h.31l.12,0h1.75l.12,0h.36l.12,0h.13l.12,0h.12l.12,0H463l.15,0h.12l.09,0h.12l.15,0,.12,0,.12,0H464l.09,0,.15,0,.12,0,.09,0h.12l.15,0,.09,0,.12,0,.12,0,.12,0,.12,0,.13-.06.12,0,.12,0,.12,0,.12,0,.12,0,.09-.06.12,0,.12,0,.12-.06.12,0,.12,0,.13-.06.12,0,.09-.06.12,0,.12-.06.12-.06.12,0,.09-.06.12,0,.12-.07.12-.06.12-.06.1,0,.24-.12.12-.06.12-.06.12-.06.09,0,.12-.06.12-.06.09-.06.12-.06.12-.06.12-.09.1-.06.12-.06.12-.06L470,194l.12-.06.12-.06.09-.09.12-.06.09-.07.12-.09.12-.06.09-.06.12-.06.13-.09.09-.06.12-.09.09-.06.12-.09.21-.15.09-.09.12-.06.21-.18.09-.06.13-.09.09-.06.21-.19.09-.06.12-.09.09-.09.09-.09.21-.18.12-.09.09-.09.09-.06.12-.09.1-.09.09-.09L474,191l.12-.09.09-.13.09-.06.09-.12.12-.09.09-.09.09-.09.09-.09.09-.09.09-.09.18-.21.22-.18.06-.12.09-.1.09-.09.12-.12.09-.09.06-.09L476,189l.06-.09.09-.09.09-.09.18-.24.09-.09.09-.12.07-.09.09-.09.09-.13.18-.21.06-.09.09-.12.06-.09.09-.12.09-.12.06-.09.09-.12.09-.09.06-.12.09-.09.15-.25.16-.21.06-.12.06-.09.15-.24.09-.09.06-.12.09-.12.06-.09.06-.12.06-.13.09-.12.06-.09.06-.12.06-.12.06-.12.06-.09.06-.12.09-.12.06-.12.06-.09.07-.12.06-.13.06-.12.06-.09.06-.12.06-.12.06-.12,0-.12.06-.09.06-.12.06-.12.06-.12.06-.09,0-.13.12-.24,0-.09.06-.12.06-.12,0-.12.06-.09,0-.12.06-.12,0-.12.06-.09,0-.12.06-.13,0-.12,0-.12.06-.09,0-.12,0-.09.06-.12,0-.12,0-.09,0-.12.06-.12,0-.12,0-.09,0-.13,0-.09,0-.12,0-.12,0-.12,0-.09,0-.09,0-.12,0-.12,0-.09.06-.24v-.1l0-.09,0-.12,0-.12v-.09l0-.09,0-.12,0-.09v-.12l0-.09v-.09l0-.09v-.12l0-.12v-.1l0-.09v-.09l0-.12v-.18l0-.09V176l0-.21v-.36l0-.09V174.3l0-.09v-.37l0-.09v-.15l0-.09v-.12l0-.09v-.15l0-.06V173l0-.09v-.12l0-.06,0-.09v-.06l0-.06v-.06l0-.07v-.06l0-.06,0-.06v-.06l0-.06v-.06l0-.06,0,0v-.06l0-.06,0-.06v-.06l0,0,0-.06,0-.06v0l0-.06,0,0,0-.06v-.06l0,0,0-.06,0,0,0-.06v0l0,0,0-.07,0,0,0-.06,0,0,0,0,0-.06,0,0v0l-.06,0,0-.06v0l0,0,0,0,0-.06,0,0-.06,0,0,0,0,0,0,0,0,0,0-.06,0,0,0,0-.06,0,0,0,0,0,0,0,0,0-.06,0,0-.06-.06,0,0,0,0,0-.06,0,0,0-.06,0,0,0-.06,0,0,0-.06,0-.06,0,0,0-.06,0-.06,0-.06,0-.06,0,0,0-.06,0-.06,0-.09,0,0,0-.06,0-.06,0-.09,0-.06,0-.06,0-.09,0h-.06l-.06,0-.09,0-.09,0-.06,0-.06,0-.09,0h-.09l-.09,0-.1,0-.06,0-.12,0h-.09l-.09,0-.09,0h-.09l-.09,0-.09,0h-.12l-.09,0-.12,0h-.09l-.09,0h-.12l-.13,0h-.09l-.12,0h-.24l-.12,0h-.24l-.15,0h-.36l-.16,0h-1.26l-.16,0h-.45l-.18,0h-.3l-.18,0h-.15l-.19,0h-.15l-.18,0-.18,0h-.15l-.18,0-.18,0-.19,0-.18,0h-.21l-.18,0-.18,0-.18,0-.18,0-.21.06-.19,0-.21,0-.18,0-.21.06-.21,0-.21,0-.18.06-.22,0-.21.06-.21.06-.21,0-.21.06-.24.06-.21.06-.22,0-.21.06-.24.06-.21.06-.24.06-.24.09-.22.06-.24.06-.24.06-.21.09-.24.06-.24.06-.25.09-.27.06-.24.09-.24.09-.24.06-.24.09-.28.09L462,171l-.27.1-.24.09-.27.09-.28.09-.24.09-.27.09-.27.12-.27.09-.28.12-.27.09-.27.12-.27.09-.27.12-.27.12-.28.1-.06,0h0l-.06,0-.06,0-.06,0-.06,0-.06,0-.09,0-.06.06-.09,0-.09,0-.09.06-.09.06-.09,0-.09.06-.1.06-.09,0-.12.06-.09.06-.12.06-.12.09-.09.06-.12.06-.12.06-.09.09-.12.06-.12.1-.12.06-.13.09-.12.06-.12.09-.12.09-.15.06-.12.09-.12.09-.12.09-.15.09-.12.09-.12.09L454,175l-.12.09-.12.09-.15.12-.12.1-.15.09-.12.09-.15.12-.12.09-.12.09-.15.12-.13.09-.15.09-.12.12-.15.12-.12.09-.15.12-.12.09-.12.13-.15.09-.12.12-.12.12-.16.09-.12.12-.12.12-.12.09-.15.12-.12.12-.12.09-.12.12-.12.12-.12.13-.13.09-.12.12-.12.12-.12.09-.12.12-.12.12-.09.09-.12.12-.12.12-.09.09-.12.12-.09.13-.12.09-.1.12-.09.09-.09.12-.12.09-.09.12-.09.09-.06.09-.09.12-.09.09-.09.09-.09.12-.06.06-.06.1-.09.12-.06.09-.06.06-.06.09-.06.09-.07.09-.06.06,0,.09-.06.06-.06.09,0,.06,0,.06,0,.06,0,.06,0,.06,0,.06,0,0v0h0v.06l0,0v0l-.06.25-.09.33-.09.33-.12.3-.15.31-.15.3-.18.3-.19.27-.21.27-.21.28-.24.24-.24.24-.27.21-.28.18-.27.21-.3.15-.3.16-.3.15-.31.12-.33.09-.33.09-.33.06-.34.06h-.33l-.36,0-.33,0-.34,0-.33,0-.33-.09-.33-.06-.34-.12-.3-.12-.3-.15-.3-.16-.3-.15-.28-.21-.27-.21-.27-.21-.24-.24-.21-.24-.24-.25-.19-.27-.18-.3-.18-.27-.15-.3-.15-.34-.12-.3-.09-.33-.09-.33-.06-.34,0-.33,0-.33v-.7l0-.33.06-.33v-.06l0-.15,0-.18,0-.09,0-.12,0-.16,0-.12,0-.15,0-.12,0-.12.06-.12,0-.12,0-.12,0-.12.06-.12.06-.15,0-.1,0-.09.06-.12,0-.12.06-.12,0-.12.06-.12.09-.21.06-.09.06-.15.07-.09,0-.09.06-.13.12-.18.09-.21.12-.21.12-.21.12-.18.12-.21.12-.19.12-.18.12-.21.12-.18.16-.18.12-.18.12-.18.15-.18.12-.19.12-.15.15-.18.15-.18.15-.18.12-.18.15-.15.13-.18.15-.16.15-.18.15-.18.15-.15.15-.18.15-.15.15-.15.15-.18.16-.15.18-.16.15-.18.15-.15.15-.15.18-.15.15-.18.15-.15.18-.15.16-.15.15-.16.18-.15.15-.15.18-.15.15-.15.18-.15.15-.15.19-.12.18-.15.15-.16.18-.15.15-.15.18-.12.18-.15.15-.15.18-.12.19-.15.15-.12.18-.15.18-.13.15-.15.18-.12.18-.15.15-.12.19-.12.18-.15.15-.12.18-.12.18-.12.15-.12.18-.13.18-.12.16-.12.18-.12.18-.12.15-.12.18-.12.15-.12.18-.12.15-.09.18-.12.16-.12.18-.1.15-.12.18-.09.15-.12.18-.09.15-.09.15-.12.19-.09.15-.09.18-.09.15-.09.15-.12.15-.09.15-.09.18-.09.15-.1.16-.06.18-.09.15-.09.15-.09.15-.06L452,162l.15-.06.15-.09.18-.06.16-.09.15-.06.15-.06.15-.09.15-.06.15-.06.33-.12.34-.16.3-.12.33-.12.3-.12.3-.12.34-.12.3-.12.3-.09.3-.12.31-.12.3-.12.3-.09.3-.13.3-.09.31-.12.3-.09.3-.09.27-.09.3-.12.31-.09.27-.09.3-.09.3-.09.27-.06.31-.09.27-.09.3-.09.27-.06.27-.1.28-.09.3-.06.27-.09.27-.06.27-.06.28-.09.27-.06.27-.06.27-.06.27-.06.28-.06.27-.06.27-.06.24-.06.27,0,.28-.06.24-.06.27-.06.27,0,.24-.06.24,0,.28,0,.24-.06.27,0,.24,0,.24,0,.27-.06.25,0,.24,0,.24,0,.24,0h.24l.28,0,.21,0,.27,0h.24l.24,0,.24,0h.46l.24,0h.48l.21,0h1.15Z"/><path class="cls-5" d="M162.17,142.54c-4.71,1.76-9.79-1.21-13.38-4-43.81-34,16-47.65,29-20.58"/><polygon class="cls-6" points="152.35 97.53 152.53 97.53 152.72 97.56 152.93 97.56 153.11 97.56 153.29 97.56 153.47 97.56 153.68 97.56 153.86 97.59 154.04 97.59 154.23 97.59 154.44 97.62 154.62 97.62 154.8 97.62 155.01 97.65 155.19 97.65 155.38 97.68 155.56 97.68 155.77 97.71 155.95 97.74 156.13 97.74 156.31 97.77 156.52 97.8 156.7 97.8 156.88 97.83 157.1 97.86 157.28 97.89 157.49 97.89 157.67 97.92 157.85 97.95 158.03 97.98 158.22 98.01 158.43 98.04 158.61 98.07 158.82 98.1 159 98.13 159.18 98.16 159.36 98.22 159.57 98.25 159.75 98.28 159.94 98.31 160.12 98.34 160.33 98.4 160.51 98.43 160.69 98.49 160.9 98.52 161.09 98.55 161.27 98.61 161.45 98.64 161.63 98.7 161.84 98.73 162.02 98.8 162.2 98.86 162.38 98.89 162.6 98.95 162.78 99.01 162.96 99.04 163.14 99.1 163.35 99.16 163.53 99.22 163.71 99.28 163.9 99.34 164.08 99.4 164.29 99.46 164.47 99.52 164.65 99.58 164.83 99.64 165.01 99.7 165.19 99.76 165.41 99.82 165.59 99.91 165.77 99.97 165.95 100.03 166.13 100.09 166.31 100.18 166.49 100.25 166.67 100.34 166.86 100.4 167.04 100.46 167.25 100.55 167.43 100.64 167.61 100.7 167.79 100.79 167.97 100.88 168.16 100.94 168.34 101.03 168.52 101.12 168.7 101.21 168.88 101.27 169.03 101.36 169.21 101.45 169.39 101.54 169.6 101.64 169.76 101.72 169.94 101.82 170.12 101.91 170.3 102 170.48 102.12 170.63 102.21 170.81 102.3 171 102.39 171.18 102.51 171.33 102.6 171.51 102.69 171.69 102.81 171.87 102.9 172.02 103.02 172.2 103.11 172.38 103.24 172.54 103.36 172.72 103.45 172.9 103.57 173.05 103.69 173.23 103.81 173.38 103.9 173.56 104.02 173.71 104.14 173.9 104.26 174.05 104.38 174.23 104.5 174.38 104.63 174.56 104.75 174.71 104.87 174.86 104.99 175.04 105.11 175.19 105.26 175.35 105.38 175.53 105.5 175.68 105.65 175.83 105.77 175.98 105.89 176.13 106.05 176.28 106.2 176.46 106.32 176.62 106.47 176.77 106.59 176.92 106.74 177.07 106.89 177.22 107.04 177.34 107.16 177.52 107.31 177.67 107.47 177.79 107.62 177.94 107.77 178.09 107.92 178.25 108.07 178.37 108.22 178.52 108.37 178.67 108.52 178.82 108.67 178.94 108.86 179.09 109.01 179.21 109.16 179.36 109.34 179.49 109.49 179.64 109.64 179.76 109.82 179.91 109.97 180.03 110.16 180.15 110.34 180.27 110.49 180.42 110.67 180.54 110.85 180.66 111 180.78 111.18 180.91 111.36 181.06 111.55 181.15 111.73 181.27 111.91 181.39 112.06 181.51 112.27 181.63 112.45 181.75 112.63 181.87 112.81 181.96 113 182.08 113.21 182.21 113.39 182.29 113.57 182.42 113.75 182.51 113.96 182.63 114.14 182.72 114.35 182.84 114.54 182.93 114.72 183.02 114.93 183.14 115.14 183.2 115.32 183.35 115.62 183.47 115.92 183.56 116.23 183.66 116.56 183.72 116.86 183.78 117.19 183.81 117.53 183.81 117.83 183.81 118.16 183.78 118.49 183.75 118.83 183.69 119.16 183.63 119.46 183.53 119.76 183.41 120.09 183.29 120.4 183.17 120.67 182.99 120.97 182.84 121.24 182.63 121.52 182.45 121.79 182.24 122.03 181.99 122.27 181.75 122.48 181.51 122.69 181.24 122.88 180.97 123.06 180.69 123.24 180.39 123.39 180.09 123.51 179.79 123.63 179.49 123.72 179.15 123.81 178.85 123.87 178.52 123.93 178.19 123.96 177.88 123.99 177.55 123.99 177.22 123.96 176.89 123.93 176.55 123.87 176.25 123.78 175.95 123.69 175.62 123.6 175.32 123.45 175.04 123.33 174.74 123.18 174.47 123 174.2 122.81 173.93 122.6 173.68 122.39 173.44 122.18 173.23 121.94 173.02 121.67 172.84 121.42 172.66 121.15 172.48 120.85 172.32 120.58 172.26 120.43 172.2 120.31 172.14 120.22 172.08 120.09 172.02 119.97 171.96 119.85 171.9 119.76 171.84 119.64 171.78 119.52 171.72 119.4 171.66 119.31 171.6 119.19 171.54 119.1 171.48 119.01 171.42 118.89 171.33 118.77 171.27 118.67 171.21 118.58 171.15 118.46 171.06 118.37 171 118.25 170.94 118.16 170.84 118.07 170.78 117.95 170.69 117.86 170.63 117.77 170.54 117.65 170.48 117.56 170.42 117.47 170.33 117.38 170.27 117.28 170.18 117.19 170.09 117.07 170.03 116.98 169.94 116.89 169.85 116.8 169.79 116.71 169.7 116.62 169.6 116.53 169.51 116.44 169.42 116.35 169.36 116.26 169.27 116.17 169.18 116.11 169.09 115.99 169 115.92 168.94 115.83 168.82 115.74 168.73 115.65 168.67 115.56 168.58 115.5 168.49 115.41 168.37 115.32 168.28 115.23 168.19 115.14 168.09 115.08 168 114.99 167.91 114.9 167.82 114.84 167.73 114.75 167.61 114.69 167.52 114.6 167.43 114.54 167.31 114.44 167.22 114.35 167.13 114.29 167.04 114.2 166.92 114.14 166.83 114.05 166.71 113.99 166.61 113.93 166.52 113.84 166.4 113.78 166.31 113.69 166.19 113.63 166.1 113.57 165.98 113.51 165.89 113.42 165.77 113.36 165.68 113.3 165.56 113.24 165.44 113.15 165.34 113.09 165.22 113.03 165.1 112.97 164.98 112.9 164.89 112.81 164.77 112.78 164.65 112.69 164.56 112.63 164.44 112.57 164.32 112.51 164.2 112.45 164.08 112.39 163.99 112.33 163.87 112.3 163.74 112.24 163.62 112.18 163.5 112.12 163.38 112.06 163.26 112 163.14 111.94 163.02 111.91 162.9 111.85 162.78 111.79 162.66 111.73 162.54 111.7 162.41 111.64 162.29 111.58 162.17 111.55 162.05 111.48 161.93 111.42 161.81 111.39 161.69 111.33 161.57 111.3 161.42 111.24 161.3 111.21 161.18 111.15 161.06 111.12 160.93 111.06 160.81 111.03 160.66 111 160.54 110.94 160.42 110.91 160.3 110.85 160.18 110.82 160.03 110.79 159.91 110.76 159.79 110.7 159.66 110.67 159.51 110.64 159.39 110.61 159.27 110.58 159.15 110.52 159 110.49 158.88 110.46 158.76 110.43 158.61 110.4 158.49 110.37 158.37 110.34 158.22 110.31 158.09 110.28 157.97 110.25 157.82 110.22 157.7 110.19 157.58 110.16 157.43 110.16 157.31 110.13 157.16 110.09 157.04 110.06 156.92 110.03 156.76 110 156.64 110 156.52 109.97 156.37 109.94 156.25 109.94 156.1 109.91 155.98 109.88 155.83 109.88 155.71 109.85 155.59 109.85 155.44 109.82 155.31 109.82 155.19 109.79 155.04 109.79 154.92 109.76 154.77 109.76 154.65 109.73 154.53 109.73 154.38 109.73 154.26 109.7 154.11 109.7 153.99 109.7 153.83 109.67 153.71 109.67 153.59 109.67 153.47 109.64 153.32 109.64 153.2 109.64 153.05 109.64 152.93 109.64 152.81 109.64 152.66 109.64 152.53 109.61 152.41 109.61 152.26 109.61 152.14 109.61 152.02 109.61 151.9 109.61 151.75 109.61 151.63 109.64 151.51 109.64 151.39 109.64 151.24 109.64 151.12 109.64 150.99 109.64 150.87 109.64 150.72 109.67 150.6 109.67 150.48 109.67 150.36 109.67 150.21 109.7 150.09 109.7 149.97 109.7 149.85 109.73 149.72 109.73 149.6 109.73 149.48 109.76 149.36 109.76 149.24 109.79 149.12 109.79 149 109.82 148.88 109.82 148.73 109.85 148.64 109.85 148.52 109.88 148.4 109.88 148.25 109.91 148.15 109.91 148.03 109.94 147.91 109.97 147.79 109.97 147.67 110 147.55 110.03 147.43 110.03 147.34 110.06 147.22 110.09 147.1 110.13 147 110.13 146.88 110.16 146.76 110.19 146.64 110.22 146.55 110.25 146.43 110.28 146.31 110.31 146.19 110.34 146.1 110.34 146.01 110.37 145.89 110.4 145.77 110.43 145.68 110.46 145.56 110.49 145.47 110.52 145.37 110.55 145.25 110.58 145.16 110.61 145.04 110.67 144.95 110.7 144.86 110.73 144.74 110.76 144.65 110.79 144.56 110.82 144.47 110.85 144.38 110.88 144.26 110.94 144.17 110.97 144.07 111 143.98 111.03 143.89 111.06 143.8 111.12 143.71 111.15 143.62 111.18 143.53 111.21 143.44 111.27 143.35 111.3 143.26 111.33 143.2 111.39 143.11 111.42 143.02 111.45 142.93 111.51 142.84 111.55 142.78 111.58 142.69 111.64 142.63 111.67 142.53 111.73 142.44 111.76 142.38 111.79 142.29 111.85 142.23 111.88 142.14 111.94 142.08 111.97 142.02 112.03 141.93 112.06 141.87 112.09 141.81 112.15 141.75 112.18 141.66 112.24 141.6 112.27 141.54 112.33 141.48 112.36 141.42 112.42 141.36 112.45 141.29 112.51 141.24 112.54 141.17 112.6 141.11 112.63 141.05 112.69 140.99 112.72 140.93 112.78 140.87 112.81 140.81 112.87 140.78 112.9 140.72 112.97 140.69 113 140.63 113.03 140.57 113.09 140.54 113.15 140.48 113.18 140.45 113.24 140.39 113.27 140.36 113.3 140.33 113.36 140.27 113.42 140.24 113.45 140.18 113.48 140.15 113.54 140.12 113.6 140.09 113.63 140.03 113.66 140 113.72 139.97 113.75 139.94 113.81 139.91 113.84 139.88 113.9 139.84 113.93 139.81 113.99 139.75 114.02 139.75 114.05 139.72 114.11 139.69 114.14 139.66 114.2 139.63 114.23 139.6 114.26 139.57 114.32 139.54 114.35 139.51 114.42 139.51 114.44 139.48 114.51 139.48 114.54 139.45 114.57 139.42 114.63 139.39 114.66 139.39 114.72 139.36 114.75 139.36 114.78 139.33 114.84 139.3 114.87 139.3 114.93 139.27 114.96 139.27 115.02 139.24 115.05 139.24 115.08 139.21 115.14 139.21 115.17 139.18 115.23 139.18 115.29 139.18 115.32 139.15 115.35 139.15 115.41 139.12 115.47 139.12 115.5 139.12 115.56 139.09 115.59 139.09 115.65 139.09 115.71 139.09 115.77 139.06 115.8 139.06 115.86 139.06 115.89 139.06 115.96 139.06 116.02 139.03 116.08 139.03 116.14 139.03 116.17 139.03 116.23 139.03 116.29 139.03 116.35 139.03 116.41 139.03 116.47 139.03 116.53 139.03 116.59 139.03 116.65 139.03 116.74 139.03 116.77 139.03 116.83 139.06 116.92 139.06 116.98 139.06 117.04 139.06 117.13 139.09 117.19 139.09 117.25 139.09 117.34 139.12 117.41 139.12 117.5 139.15 117.56 139.15 117.65 139.18 117.71 139.18 117.8 139.21 117.89 139.21 117.98 139.24 118.04 139.27 118.13 139.27 118.22 139.3 118.31 139.33 118.37 139.36 118.49 139.39 118.55 139.42 118.64 139.45 118.77 139.48 118.86 139.51 118.95 139.54 119.04 139.57 119.13 139.6 119.25 139.66 119.34 139.69 119.43 139.72 119.55 139.78 119.64 139.81 119.76 139.88 119.85 139.91 119.97 139.97 120.06 140.03 120.19 140.06 120.31 140.12 120.4 140.18 120.52 140.24 120.64 140.3 120.76 140.36 120.88 140.42 120.97 140.48 121.09 140.54 121.21 140.63 121.33 140.69 121.45 140.75 121.58 140.84 121.73 140.9 121.85 140.99 121.97 141.05 122.09 141.14 122.21 141.21 122.33 141.29 122.48 141.39 122.6 141.48 122.72 141.57 122.88 141.66 123 141.75 123.15 141.84 123.27 141.93 123.42 142.05 123.57 142.14 123.69 142.26 123.84 142.35 123.96 142.47 124.11 142.56 124.26 142.69 124.42 142.81 124.54 142.93 124.69 143.05 124.84 143.17 124.99 143.29 125.14 143.41 125.29 143.53 125.44 143.65 125.59 143.8 125.75 143.92 125.9 144.04 126.05 144.2 126.2 144.32 126.35 144.47 126.5 144.62 126.68 144.77 126.83 144.92 126.98 145.07 127.14 145.22 127.32 145.37 127.47 145.53 127.62 145.68 127.8 145.86 127.95 146.01 128.13 146.19 128.28 146.34 128.46 146.52 128.62 146.7 128.8 146.85 128.95 147.04 129.13 147.22 129.28 147.4 129.46 147.58 129.64 147.76 129.79 147.97 129.97 148.15 130.16 148.34 130.34 148.55 130.49 148.76 130.67 148.94 130.85 149.15 131.03 149.36 131.21 149.57 131.4 149.79 131.58 150 131.73 150.21 131.94 150.42 132.12 150.63 132.3 150.87 132.48 151.09 132.66 151.3 132.84 151.54 133.03 151.78 133.21 152.02 133.39 152.23 133.57 152.47 133.75 152.63 133.87 152.78 133.99 152.93 134.08 153.08 134.21 153.2 134.29 153.35 134.42 153.5 134.54 153.65 134.63 153.8 134.75 153.96 134.84 154.11 134.93 154.26 135.05 154.41 135.14 154.56 135.23 154.71 135.32 154.86 135.44 155.04 135.53 155.1 135.56 155.16 135.59 155.25 135.66 155.31 135.69 155.41 135.75 155.47 135.78 155.56 135.81 155.65 135.87 155.71 135.9 155.77 135.93 155.86 135.99 155.92 136.02 156.01 136.05 156.07 136.11 156.13 136.14 156.22 136.17 156.28 136.2 156.34 136.23 156.43 136.26 156.49 136.29 156.58 136.35 156.64 136.35 156.7 136.38 156.79 136.44 156.85 136.47 156.92 136.5 156.98 136.5 157.04 136.53 157.13 136.56 157.19 136.59 157.25 136.62 157.34 136.65 157.4 136.65 157.46 136.68 157.52 136.71 157.58 136.74 157.64 136.74 157.7 136.77 157.76 136.77 157.82 136.8 157.88 136.83 157.94 136.83 158 136.86 158.06 136.86 158.13 136.89 158.19 136.89 158.25 136.89 158.28 136.92 158.34 136.92 158.4 136.95 158.46 136.95 158.49 136.95 158.55 136.95 158.61 136.98 158.67 136.98 158.7 136.98 158.76 136.98 158.79 137.01 158.82 137.01 158.88 137.01 158.91 137.01 158.97 137.01 159.03 137.01 159.06 137.01 159.09 137.01 159.15 137.01 159.18 137.01 159.21 137.01 159.27 137.01 159.33 137.01 159.39 137.01 159.48 137.01 159.54 137.01 159.57 136.98 159.63 136.98 159.7 136.98 159.75 136.95 159.82 136.95 159.88 136.92 159.94 136.92 160 136.89 160.03 136.89 160.09 136.86 160.39 136.77 160.69 136.68 161.03 136.59 161.36 136.56 161.66 136.5 161.99 136.5 162.32 136.5 162.66 136.5 162.99 136.53 163.29 136.59 163.62 136.65 163.93 136.74 164.26 136.86 164.56 136.98 164.83 137.1 165.13 137.26 165.41 137.44 165.68 137.62 165.95 137.8 166.19 138.01 166.43 138.25 166.67 138.5 166.89 138.74 167.07 139.01 167.25 139.25 167.43 139.55 167.58 139.82 167.73 140.13 167.85 140.43 167.94 140.73 168.03 141.06 168.09 141.37 168.16 141.7 168.19 142.03 168.22 142.36 168.22 142.69 168.19 143 168.16 143.33 168.13 143.66 168.03 143.96 167.94 144.3 167.85 144.6 167.73 144.9 167.58 145.2 167.43 145.5 167.28 145.78 167.1 146.05 166.89 146.32 166.67 146.56 166.46 146.8 166.22 147.01 165.98 147.23 165.71 147.44 165.44 147.62 165.16 147.8 164.86 147.95 164.59 148.07 164.29 148.19 164.11 148.25 163.9 148.34 163.71 148.41 163.53 148.47 163.32 148.53 163.14 148.56 162.96 148.62 162.75 148.68 162.57 148.71 162.35 148.77 162.17 148.8 161.99 148.86 161.81 148.89 161.6 148.92 161.39 148.95 161.21 148.98 161.03 149.01 160.84 149.01 160.63 149.04 160.45 149.07 160.27 149.07 160.09 149.07 159.91 149.1 159.7 149.1 159.51 149.1 159.33 149.1 159.15 149.1 158.97 149.1 158.79 149.1 158.61 149.1 158.4 149.1 158.22 149.07 158.06 149.07 157.85 149.04 157.7 149.04 157.52 149.01 157.34 149.01 157.16 148.98 156.98 148.95 156.79 148.92 156.64 148.89 156.46 148.86 156.28 148.83 156.13 148.8 155.95 148.77 155.77 148.74 155.62 148.71 155.44 148.68 155.28 148.62 155.13 148.59 154.95 148.56 154.8 148.5 154.62 148.47 154.47 148.41 154.32 148.38 154.17 148.31 153.99 148.28 153.83 148.22 153.68 148.16 153.53 148.1 153.38 148.07 153.23 148.01 153.08 147.95 152.93 147.89 152.78 147.83 152.63 147.8 152.5 147.74 152.32 147.65 152.17 147.59 152.05 147.53 151.9 147.5 151.75 147.41 151.6 147.35 151.48 147.29 151.33 147.23 151.21 147.17 151.05 147.11 150.9 147.01 150.78 146.96 150.63 146.89 150.51 146.83 150.36 146.74 150.24 146.68 150.12 146.62 149.97 146.53 149.85 146.47 149.72 146.41 149.57 146.32 149.45 146.26 149.33 146.2 149.21 146.11 149.09 146.05 148.94 145.96 148.82 145.9 148.58 145.75 148.34 145.59 148.09 145.44 147.85 145.29 147.61 145.14 147.4 144.99 147.19 144.84 146.94 144.69 146.73 144.54 146.49 144.39 146.31 144.24 146.1 144.09 145.89 143.9 145.68 143.75 145.47 143.6 145.25 143.45 145.07 143.3 144.8 143.09 144.53 142.88 144.26 142.66 143.98 142.45 143.74 142.24 143.47 142.03 143.23 141.82 142.96 141.61 142.72 141.43 142.44 141.21 142.2 141 141.96 140.79 141.72 140.58 141.48 140.37 141.24 140.16 140.99 139.94 140.75 139.73 140.54 139.55 140.3 139.34 140.06 139.13 139.84 138.92 139.6 138.71 139.39 138.5 139.18 138.31 138.94 138.1 138.73 137.89 138.52 137.68 138.3 137.5 138.09 137.29 137.88 137.07 137.67 136.86 137.46 136.68 137.28 136.47 137.06 136.26 136.88 136.08 136.67 135.87 136.49 135.66 136.28 135.44 136.1 135.26 135.92 135.05 135.74 134.84 135.55 134.66 135.37 134.45 135.16 134.24 135.01 134.05 134.83 133.84 134.65 133.63 134.47 133.45 134.32 133.24 134.13 133.06 133.98 132.84 133.8 132.63 133.65 132.45 133.47 132.24 133.32 132.06 133.17 131.85 133.02 131.64 132.87 131.46 132.72 131.24 132.56 131.06 132.41 130.85 132.26 130.64 132.14 130.46 131.99 130.25 131.84 130.06 131.72 129.85 131.57 129.67 131.45 129.46 131.29 129.28 131.17 129.07 131.05 128.86 130.93 128.68 130.78 128.46 130.66 128.28 130.57 128.07 130.42 127.89 130.33 127.68 130.21 127.5 130.09 127.29 129.97 127.07 129.88 126.89 129.75 126.68 129.66 126.5 129.54 126.29 129.45 126.11 129.36 125.9 129.24 125.68 129.15 125.5 129.06 125.29 128.97 125.11 128.88 124.9 128.79 124.72 128.73 124.51 128.64 124.3 128.54 124.11 128.46 123.93 128.39 123.72 128.3 123.51 128.24 123.33 128.15 123.12 128.09 122.91 128.03 122.72 127.97 122.51 127.91 122.33 127.82 122.12 127.76 121.91 127.73 121.73 127.67 121.52 127.61 121.3 127.55 121.12 127.52 120.94 127.46 120.73 127.4 120.52 127.37 120.34 127.31 120.13 127.28 119.91 127.25 119.73 127.22 119.52 127.19 119.34 127.16 119.13 127.13 118.92 127.09 118.7 127.06 118.52 127.03 118.31 127.03 118.13 127 117.92 127 117.74 126.97 117.53 126.97 117.31 126.94 117.13 126.94 116.92 126.94 116.74 126.94 116.53 126.94 116.32 126.94 116.14 126.94 115.92 126.94 115.74 126.97 115.53 126.97 115.35 127 115.14 127 114.93 127.03 114.75 127.03 114.57 127.06 114.39 127.09 114.17 127.13 113.96 127.16 113.78 127.19 113.6 127.22 113.42 127.25 113.21 127.31 113.03 127.34 112.84 127.37 112.66 127.43 112.48 127.46 112.27 127.52 112.09 127.58 111.91 127.64 111.73 127.67 111.55 127.73 111.36 127.79 111.15 127.85 111 127.94 110.82 128 110.64 128.06 110.46 128.12 110.28 128.21 110.13 128.27 109.94 128.36 109.76 128.42 109.58 128.51 109.43 128.61 109.25 128.67 109.1 128.76 108.92 128.85 108.77 128.94 108.58 129.03 108.43 129.12 108.25 129.21 108.1 129.3 107.95 129.42 107.77 129.51 107.65 129.6 107.47 129.72 107.31 129.81 107.16 129.94 107.01 130.03 106.86 130.15 106.71 130.24 106.59 130.36 106.44 130.48 106.29 130.57 106.14 130.69 105.98 130.81 105.86 130.93 105.71 131.05 105.56 131.17 105.44 131.29 105.32 131.42 105.17 131.54 105.05 131.66 104.93 131.78 104.78 131.9 104.66 132.05 104.53 132.17 104.41 132.29 104.29 132.41 104.17 132.56 104.05 132.68 103.93 132.84 103.81 132.99 103.69 133.11 103.57 133.23 103.45 133.38 103.36 133.53 103.24 133.65 103.11 133.8 103.02 133.92 102.9 134.07 102.81 134.22 102.69 134.38 102.6 134.53 102.48 134.65 102.39 134.8 102.3 134.95 102.18 135.1 102.09 135.25 102 135.4 101.91 135.55 101.82 135.71 101.69 135.86 101.6 136.01 101.51 136.16 101.42 136.31 101.36 136.46 101.27 136.61 101.18 136.76 101.09 136.91 101 137.09 100.91 137.25 100.85 137.4 100.76 137.55 100.67 137.73 100.61 137.88 100.52 138.03 100.46 138.18 100.37 138.37 100.31 138.52 100.25 138.67 100.15 138.85 100.09 139 100 139.18 99.94 139.33 99.88 139.48 99.82 139.66 99.76 139.81 99.67 140 99.61 140.15 99.55 140.33 99.49 140.48 99.43 140.66 99.37 140.99 99.28 141.17 99.22 141.36 99.16 141.51 99.1 141.69 99.04 141.84 99.01 142.02 98.95 142.2 98.89 142.53 98.8 142.72 98.73 142.9 98.7 143.05 98.64 143.23 98.61 143.41 98.55 143.59 98.52 143.77 98.49 143.95 98.43 144.13 98.4 144.29 98.37 144.47 98.31 144.65 98.28 144.83 98.25 145.01 98.22 145.19 98.16 145.37 98.13 145.53 98.1 145.71 98.07 146.07 98.01 146.25 97.98 146.46 97.95 146.61 97.92 146.79 97.92 146.97 97.89 147.16 97.86 147.34 97.83 147.52 97.8 147.88 97.77 148.09 97.74 148.25 97.74 148.46 97.71 148.82 97.68 149 97.68 149.18 97.65 149.36 97.65 149.54 97.62 149.75 97.62 149.94 97.59 150.12 97.59 150.3 97.59 150.48 97.56 150.69 97.56 151.02 97.56 151.24 97.56 151.42 97.56 151.6 97.53 151.78 97.53 151.99 97.53 152.17 97.53 152.35 97.53"/><path class="cls-5" d="M165,500.6s-22.75-44.77-18.46-83.17c13.48-120.19-21.9-143.79-8.06-217.12,4.8-25.44,13.86-54.44,29.33-75.53,34-46.32,99.31-70.37,156.12-59.49,22.75,4.35,43.29,14.2,63.63,25C458.3,127.86,473,207.17,463.79,274c-4.08,29.58-29.51,75.69-25.8,105.36,7.77,61.84,5.59,95.32-13.72,135.23-16.46,34-80.48,59.61-150.52,52.33C261.82,565.68,190.42,553.17,165,500.6Z"/><g class="cls-7"><g class="cls-8"><path class="cls-9" d="M417.81,119.4s24.11,31,17.58,79.07c-9.79,72.27-40.15,56.77-38.1,186.84,1,64.81,4.9,103.93-23.65,142.94-27.71,37.92-107,37.86-127,32.15s79,20.6,135.72-2.3S447,439,439.59,378.84s40.67-77.31,24.63-181C438.44,137.17,437.87,140.58,417.81,119.4Z"/></g><g class="cls-8"><path class="cls-9" d="M323.24,208.29s7,35.2,49,33.14,44.86-44.86,44.86-44.86Z"/></g><g class="cls-8"><path class="cls-9" d="M143.89,190.4s7,35.2,49,33.15,44.87-44.87,44.87-44.87Z"/></g></g><path class="cls-6" d="M295.81,68.73h-1l-.33,0h-1.66l-.34,0h-.66l-.33,0h-.64l-.33,0h-.66l-.34,0h-.33l-.33,0h-.33l-.34,0-.33,0h-.33l-.33,0h-.34l-.33,0-.33,0-.33,0h-.34l-.3,0-.33,0-.33,0-.33,0h-.34l-.33,0-.33,0-.33,0-.34,0-.33,0-.33,0-.33,0-.34,0-.33,0-.33,0-.33,0-.34.06-.3,0-.33,0-.33,0-.33,0-.34.06-.33,0-.33,0-.33.06-.34,0-.33,0-.33.06-.33,0-.34.06-.33,0-.3,0-.33.06-.33,0-.34.06-.33.06-.33,0-.33.06-.34.06-.33,0-.33.06-.33.06-.31,0-.33.06-.33.06-.33.06-.34,0-.33.06-.33.06-.33.06-.33.06-.34.06-.3.06-.33.06-.33.06-.34.06-.33.06-.33.06-.3.06-.33.06-.34.06-.33.09-.33.06-.33.06-.31.07-.33.09-.33.06-.33.06-.34.06-.3.09-.33.06-.33.09-.33.06-.34.06-.33.09-.3.06-.33.09-.34.06-.33.09-.3.06-.33.09-.34.09-.33.06-.33.1-.3.09-.34.06-.33.09-.3.09-.33.09L256,74l-.34.09-.3.09-.33.09-.33.09-.31.09-.33.06-.33.09-.3.09-.33.09-.34.09-.3.1-.33.09-.33.12-.31.09-.33.09-.3.09-.33.09-.33.09-.31.09-.33.12-.3.09L249,76l-.34.09-.3.13-.33.09-.3.09-.34.12-.33.09-.3.12-.3.09-.33.09-.31.12-.33.09-.3.12-.33.09-.34.12-.3.12-.33.1-.3.12-.3.09-.34.12-.3.12-.33.12-.3.09-.31.12-.33.12-.3.12-.33.09-.3.12-.31.12-.33.13-.3.12-.3.12-.34.12-.3.12-.33.12-.3.12-.3.12-.31.12-.33.12-.3.12-.3.12-.34.13-.3.12-.3.12-.3.15-.33.12-.31.12-.3.12-.3.15-.33.12-.31.12-.3.12-.3.16-.3.12-.3.15-.31.12-.3.12-.33.15-.3.12-.3.15-.31.12-.3.15-.3.13-.3.15-.3.15-.31.12-.3.15-.3.15-.3.12-.31.15-.3.15-.3.12-.3.15-.3.16-.31.15-.3.15-.3.12-.3.15-.28.15-.3.15-.3.15-.3.15-.3.16-.31.15-.3.15-.27.15-.3.15-.3.15-.31.15-.27.15-.3.15-.3.16-.3.15-.28.18-.3.15-.3.15-.27.15-.3.18-.31.15-.27.15-.3.16-.3.18-.27.15-.31.15-.27.18-.3.15-.27.18-.3.15-.31.18-.27.16-.3.18-.27.15-.27.18-.31.15-.27.18-.3.15-.27.18-.31.19-.27.15-.27.18-.3.18-.27.15-.28.18-.3.18-.27.18-.27.15-.3.19-.28.18-.27.18-.27.18-.3.18-.27.18-.27.15-.28.18-.27.19-.27.18-.3.18-.27.18-.28.18-.27.18-.27.18-.27.22-.27.18-.28.18-.27.18-.27.18-.27.18-.27.18-.28.21-.27.19-.27.18L204,98l-.27.18-.28.18-.24.18-.27.21-.27.19-.27.21-.28.18-.24.18-.27.21-.27.18-.27.21-.24.19-.28.21-.27.18-.27.21-.24.18-.27.21-.25.18-.27.21-.27.22-.24.18-.27.21-.24.21-.28.18-.24.21-.27.21-.24.22-.27.18-.25.21-.27.21-.24.21-.24.21-.27.21-.24.22-.25.18-.24.21-.27.21-.24.21-.24.21-.27.22-.25.21-.24.21-.24.21-.27.21-.24.21-.25.21-.24.25-.24.21-.24.21-.24.21-.24.21-.25.21-.24.24-.24.22-.24.21-.24.21-.24.24-.25.21-.24.21-.24.25-.21.21-.24.21-.24.24-.25.21-.24.24-.21.22-.24.21-.24.24-.24.21-.22.24-.24.21L186,113l-.24.21-.24.24-.21.24-.25.21-.21.24-.24.21-.21.25-.24.24-.21.24-.24.21-.22.24-.24.24L183,116l-.21.24-.24.24-.21.24-.22.24-.24.21-.21.25-.21.24-.21.24-.21.24-.25.24-.21.24-.21.25-.21.24-.21.24-.21.24-.21.24-.22.25-.21.24-.21.24-.21.24-.21.24-.21.24-.22.25-.21.24-.21.27-.18.24-.21.24-.21.24-.21.25-.22.27-.18.24-.21.24-.21.27-.18.24-.21.25-.18.24-.21.27-.22.24-.18.27-.21.25-.18.24-.21.27-.18.24-.21.27-.19.24-.18.28-.21.24-.18.27-.21.24-.18.27-.15.21-.19.25-.18.24-.15.24-.18.24-.15.21-.18.24-.15.25-.18.24-.15.24-.19.24-.15.24-.18.24-.15.25-.18.24-.15.24-.15.24-.18.24-.16.25-.15.27-.18.24-.15.24-.15.24-.18.27-.15.25-.15.24-.15.24-.19.27-.15.24-.15.28-.15.24-.15.24-.15.27-.15.24L167,137l-.15.25-.16.27-.15.24-.15.27-.15.27-.15.24-.15.28-.15.27-.15.24-.15.27-.12.27-.16.25-.15.27-.15.27-.15.27-.15.24-.15.28-.12.27-.15.27-.15.27-.15.27-.13.28-.15.27-.15.27-.15.27-.12.27-.15.27-.15.28-.12.27-.15.27-.12.27-.16.27-.15.28-.12.27-.15.27-.12.27-.15.3-.12.28-.12.27-.15.27-.12.3-.16.27-.12.28-.15.27-.12.3-.12.27-.15.27-.12.31-.12.27-.15.27-.12.3-.12.27-.13.28-.15.3-.12.27-.12.3-.12.27-.12.31-.12.27-.15.3-.12.27-.12.3-.12.28-.12.3-.13.27-.12.3-.12.27-.12.31-.12.3-.12.27-.12.3-.12.27-.12.31-.12.3-.12.27-.1.3-.12.3-.12.31-.12.27-.12.3-.12.27-.09.31-.12.3-.12.3-.12.3-.21.58-.25.6-.21.57-.21.61-.21.6-.24.58-.21.6-.22.6-.21.61-.18.6-.21.58-.21.6-.21.61-.18.6-.22.6-.21.61-.18.6-.21.61-.18.6-.18.61-.18.6-.21.6-.19.61-.18.6-.18.61-.18.6-.18.61-.15.6-.18.6-.18.61-.19.63-.15.61-.18.6-.15.61-.18.6-.15.6-.15.61-.18.6-.16.61-.15.6-.15.61-.15.6-.15.6-.15.61-.15.6-.15.61-.15.6-.13.61-.15.6-.15.6-.12.61-.15.6-.12.61-.15.57-.12.61-.12.6-.12.6-.15.58-.13.6-.12.61-.12.57-.12.6-.12.58-.12.6-.12.58-.09.6-.12.58-.12.6-.06.39-.09.43-.06.42-.09.42-.07.39-.09.43-.06.39-.06.42-.09.4-.06.42-.06.39-.06.42-.09.4-.06.39-.06.39-.06.43-.06.39-.06.39-.06.39-.06.4L143,210l0,.42-.06.37-.06.39-.06.42-.06.36,0,.4-.07.39-.06.39,0,.39-.06.37,0,.39-.06.39,0,.37-.06.39,0,.39,0,.36-.06.4,0,.36,0,.36-.06.39,0,.37,0,.39,0,.36,0,.36,0,.4,0,.36,0,.36,0,.37,0,.39,0,.36,0,.36,0,.37,0,.36,0,.36,0,.36v.37l0,.36,0,.36,0,.36V225l0,.36,0,.36v.36l0,.34v.36l0,.36v.36l0,.34v.36l0,.36v.7l0,.33v1.06l0,.36v5.83l0,.33v1l0,.33v.7l0,.33v.66l0,.34v.33l0,.33v.33l0,.34v.33l0,.33v.33l0,.33,0,.34v.33l0,.33,0,.33v.34l0,.33,0,.33,0,.3v.34l0,.33,0,.33,0,.33,0,.34v.3l0,.33,0,.33,0,.33,0,.34,0,.3,0,.33,0,.33,0,.34,0,.33,0,.3.06.67.06.63.09.66.06.64.06.66.09.64.06.66.1.64.09.63.06.67.09.63.09.67.09.63.09.66.09.64.09.63.09.67.09.63.09.67.09.63.12.67.09.63.09.67.13.63.09.66.12.64.09.66.12.67.09.63.12.67.12.66.09.67.12.66.12.67.12.63.09.67.13.66.12.67.12.66.24,1.36.24,1.33.24,1.36.27,1.36.49,2.75.51,2.78.24,1.39.28,1.42.24,1.42.27,1.42.12.72.12.73.12.72.15.73.12.72.12.76.13.72.12.76.15.72.12.76.12.75.12.76.12.76.12.75.12.76.12.75.12.79.12.75.13.79.12.78.12.79.12.78.12.79.12.79.12.81.09.79.12.81.12.82.12.81.09.82.13.82.09.84.12.82.09.84.12.85.09.81.12.88.09.85.09.84.09.88.09.85.09.87.09.88.09.87.09.91.07.42,0,.46.06.45,0,.45,0,.46.06.45,0,.42.06.46,0,.48,0,.45,0,.46.06.45,0,.45,0,.45,0,.49.06.45,0,.45,0,.49,0,.45,0,.48,0,.46.06.48,0,.48,0,.46,0,.48,0,.48,0,.49,0,.48,0,.45,0,.49,0,.48,0,.48,0,.52v.48l0,.49,0,.48,0,.48,0,.52,0,.48v.51l0,.49,0,.51v.48l0,.52,0,.48v.51l0,.52,0,.51v.51l0,.52v.51l0,.52v.51l0,.51v.52l0,.51v1.06l0,.51v1.06l0,.51V360l0,.51v8.8l0,.57v1.69l0,.55v1.14l0,.58v.6l0,.58v.57l0,.57v.58l0,.6v.58l0,.6,0,.58v.6l0,.6,0,.58v.6l0,.61,0,.6,0,.6,0,.61,0,.6,0,.61,0,.6,0,.64,0,.6,0,.6,0,.64,0,.6,0,.64,0,.63,0,.61-.06.63,0,.64,0,.63-.06.63,0,.64,0,.63-.06.64,0,.66-.06.64,0,.63-.06.64-.06.66,0,.67-.06.63-.06.66,0,.67-.06.66-.06.67-.06.66-.07.64-.06.69,0,.67-.06.66-.06.67-.06.69-.09.67-.06.69-.06.67-.06.69-.06.7-.06.69-.09.67-.06.69-.06.7-.09.69-.06.73-.09.69-.06.7-.09.72-.06.7-.09.69,0,.21,0,.21v.21l0,.22,0,.21v.21l0,.21,0,.21V420l0,.22v.21l0,.21,0,.21v.21l0,.18v.24l0,.22v.42l0,.21v.21l0,.21v.43l0,.21v.42l0,.21v.85l0,.21v1.09l0,.42v1.72l0,.43V430l0,.46v.42l0,.42v.46l0,.42,0,.45,0,.43v.42l0,.45,0,.43,0,.42,0,.45,0,.42,0,.46.06.42,0,.45,0,.43.07.42,0,.45.06.43,0,.45.06.42,0,.43.06.45.06.42.06.45,0,.43.06.42.06.45.06.43.06.42.06.45.06.43.09.42.06.45.06.43.06.42.09.42.06.45.09.43.06.42.1.42.06.43.09.45.06.42.09.43.09.42.06.42.09.42.09.43.09.42.09.42.09.43.09.42.09.42.09.43.09.42.09.42.1.39.09.43.09.42.09.42.09.4.12.42.09.39.09.42.12.43.09.39.09.42.12.4.09.39.12.42.1.39.12.4.09.42.12.39.09.4.12.39.12.39.09.39.12.4.09.39.12.39.12.4.12.39.1.39.12.36.12.4.12.39.09.36.12.39.12.37.12.39.12.36.09.4.12.36.12.36.13.36.12.37.12.36.12.39.12.36.09.37.12.33.12.36.12.36.12.37.12.33.12.36.13.33.12.37.12.33.12.33.12.36.09.34.12.33.12.33.12.33.12.33.12.34.12.33.13.3.12.33.12.31.21.63.24.64.24.6.21.63.25.58.21.6.24.58.21.57.24.54.21.55.21.54.22.55.21.51.21.51.21.49.21.48.18.48.21.46.19.45.21.45.18.43.18.42.18.42.15.39.18.37.15.39.19.36.15.33.15.34.15.33.12.3.15.3.12.28.12.27.12.24.13.24.21.42.18.4.15.33.12.24.12.21.06.15.09.15.15.34.15.27.12.3.16.27.15.31.15.27.12.27.15.3.15.27.15.27.15.28.15.3.15.27.16.27.15.27.15.28.15.27.15.27.15.27.15.27.18.28.15.27.16.27.18.24.15.27.15.28.18.27.15.24.18.27.15.27.19.27.15.25.18.27.15.24.18.27.18.27.15.25.18.27.18.24.16.24.18.27.18.24.18.28.18.24.18.24.18.24.18.27.19.25.18.24.18.24.18.27.18.24.18.24.18.25.18.24.19.24.21.24.18.24.18.24.18.25.21.24.18.21.22.24.18.24.18.24.21.25.18.21.21.24.18.24.22.24.18.21.21.25.21.24.18.21.21.24.21.21.19.24.21.22.21.24.18.21.21.21.21.24.21.21.22.25.21.21.18.21.21.21.21.24.21.21.21.21.22.22.21.24.21.21.21.21.21.21.24.21.21.22.22.21.21.21.21.21.21.21.24.21.21.21.22.22.21.18.24.21.21.21.21.21.24.18.21.21.25.22.21.21.21.18.24.21.21.18.24.21.22.21.24.19.21.21.24.18.21.21.24.18.25.21.21.18.24.19.24.21.21.18.24.21.22.18.24.18.24.18.24.21.21.19.24.18.25.18.24.18.21.18.24.21.24.18.24.18.25.19.24.18.24.18.24.18.24.18.24.18.25.18.21.15.24.19.24.18.24.18.24.18.25.15.24.18.27.18.21.19.27.15.24.18.25.18.24.15.24.18.24.15.24.18.25.18.27.16.24.18.24.15.24.15.24.18.25.15.27.18.24.15.24.15.24.19.27.15.25.15.24.18.24.15.24.15.27.15.24.15.28.19.24.15.24.15.27.15.24.15.25.15.24.15.27.15.24.15.27.15.24.16.25.15.27.15.24.15.24.15.27.12.24.15.28.15.24.15.24.16.27.12.27.15.25.15.24.12.27.15.24.15.27.12.25.15.24.15.27.13.24.15.27.12.24.15.28.12.24.15.27.12.24.15.27.12.24.12.28.15.24.13.27.12.24.15.27.12.25.12.24.12.27.15.24.12.27.12.52.24.51.28.51.24.52.24.51.24.51.24.52.24.51.25.49.21.51.24.51.24.52.21.51.21.51.25.52.21.51.21.48.21.52.21.51.21.52.22.48.21.51.21.52.21.48.18.51.21.49.18.51.22.48.18.52.18.48.18.51.21.49.18.48.18.48.18.52.16.48.18.48.18.49.18.48.15.49.18.48.15.48.18.49.16.45.15.48.15.49.15.45.18.48.15.45.15.49.12.45.15.45.15.46.16.48.12.45.15.46.12.45.15.45.12.43.15.45.12.45.12.43.12.45.13.42.12.43.12.45.12.42.12.43.12.42.09.42.12.39.12.43.09.42.12.39.09.43.12.39.1.39.09.39.12.43.09.36.09.39.09.39.09.4.09.36.09.39.09.37.09.36.06.36.09.36.09.37.06.36.09.33.06.36.1.34.06.33.09.36.06.33.06.31.06.33.06.33.09.3.06.33.06.31.06.3.06.3,0,.3.06.3.06.28.06.3.06.27,0,.27.06.27,0,.28.06.27,0,.24.06.27,0,.24.06.49.06.45.09.45.06.43.06.42.06.39.06.37,0,.33.06.33,0,.3,0,.27,0,.28,0,.39.06.39,0,.39,0,.4.06.42,0,.39,0,.4,0,.39,0,.42.06.39,0,.4,0,.39,0,.39,0,.39,0,.4,0,.42,0,.39,0,.4,0,.39,0,.39,0,.39,0,.4,0h.39l.42,0,.4,0,.39,0,.39,0h.39l.4,0,.39,0h.39l.4,0,.39,0h.39l.39,0h.4l.39,0h.39l.39,0h.4l.39,0h.79l.39,0h.78l.4,0h1.18l.39,0h6.22l.39,0h1.55l.75,0h.39l.76,0,.79,0,.75,0h.39l.37,0,.78,0,.36,0h.4l.75,0,.39,0,.37,0h.39l.76-.06.36,0,.78,0,.37,0,.36,0,.39,0,.39,0,.37,0,.75,0,.36,0,.4,0,.36,0,.76-.06.36-.06.39,0,.36,0,.76-.06.36,0,.36,0,.4-.06.36,0,.72-.06.37-.06.39,0,.36,0,.36-.06.4,0,.36,0,.36-.06.36,0,.37-.06.36,0,.36-.06.39,0,.37-.06.36,0,.36-.06.37,0,.36-.07.36-.06.36,0,.37-.06.36-.06.36,0,.36-.06.73-.12.36,0,.36-.06.7-.12.72-.09.37-.06.36-.06.36-.06.33-.06.37-.06.36-.06.36-.06L335,559l.73-.13.36-.06.33-.06.37-.09.36-.06.69-.12.37-.06.33-.06.36-.09.33-.06.37-.06.33-.06.36-.09.36-.06.34-.06.33-.09.36-.06.7-.15.69-.16.33-.06.34-.09.36-.06.66-.15.37-.09.66-.15.33-.06.36-.09.34-.09.33-.06.33-.09.33-.09.37-.06.33-.09.66-.19.34-.06.33-.09.66-.18.34-.09.33-.09.33-.06.33-.09.34-.09.33-.09.33-.09.33-.09.33-.09.34-.09.3-.09.33-.09.33-.1.67-.18.63-.18.34-.09.3-.12.33-.09.33-.09.33-.09.31-.09.63-.21.33-.09.31-.1.33-.09.3-.12.33-.09.3-.09.34-.12.3-.09.63-.21.31-.09.33-.12.3-.09.3-.09.33-.12.61-.22.3-.09.33-.12.31-.09.3-.12.3-.12.3-.09.3-.12.31-.09.33-.12.3-.12.3-.09.3-.13.31-.12.3-.09.3-.12.27-.12.31-.09.3-.12.3-.12.3-.12.3-.12.58-.21.3-.12.3-.13.3-.12.28-.12.3-.12.3-.09.27-.12.58-.24.3-.12.27-.12.3-.12.27-.12.31-.13.27-.12.3-.12.27-.12.58-.27.27-.12.27-.12.3-.12.27-.12.28-.12.27-.13.3-.15.27-.12.27-.12.28-.12.27-.12.27-.15.54-.24.28-.15.27-.12.27-.13.27-.12.27-.15.28-.12.27-.12.27-.15.24-.12.27-.12.28-.15.27-.12.24-.15.27-.13.27-.15.24-.12.55-.27.24-.15.27-.12.24-.15.28-.12.24-.15.27-.13.24-.15.51-.27.25-.15.24-.12.27-.15.24-.15.24-.12.24-.15.28-.16.24-.12.24-.15.24-.15.24-.12.24-.15.25-.15.24-.12.24-.15.24-.15.24-.16.25-.15.24-.12.45-.3.24-.15.49-.3.21-.12.48-.31.21-.15.24-.15.22-.15.24-.15.24-.15.21-.15.21-.15.45-.31.25-.12.21-.18.21-.12.24-.18.21-.15.21-.15.22-.15.21-.15.24-.15.21-.16.21-.15.21-.15.21-.15.22-.15.42-.3.21-.15.21-.18.21-.16.22-.15.18-.15.21-.15.21-.15.21-.18.18-.15.21-.15.21-.15.19-.16.21-.18.18-.15.21-.15.18-.15.21-.18.18-.15.22-.15.18-.15.18-.19.21-.15.36-.33.18-.15.19-.15.39-.33.18-.15.18-.19.18-.15.18-.15.18-.18.19-.15.18-.15.18-.18.18-.15.15-.18.18-.16.18-.15.18-.18.16-.15.36-.33.33-.33.15-.16.18-.18.15-.15.19-.18.15-.15.18-.18.15-.15.33-.33.15-.19.15-.15.15-.18.16-.15.15-.18.18-.18.15-.15.15-.18.15-.16.3-.33.27-.33.16-.18.15-.15.15-.18.15-.18.12-.16.15-.18.15-.18.12-.15.15-.18.12-.15.16-.18.12-.15.27-.37.15-.15.12-.18.12-.15.15-.18.12-.18.12-.15.12-.19.28-.36.12-.15.12-.18.12-.15.12-.18.12-.18.12-.15.09-.19.12-.18.12-.15.13-.18L416,517l.09-.18.12-.15.12-.18.09-.16.12-.18.12-.18.09-.18.12-.15.09-.18.09-.18.12-.15.1-.19.09-.18.21-.33.09-.18.09-.18.12-.15.09-.18.09-.19.09-.18.09-.15.09-.18.09-.18.09-.15.09-.18.1-.18.06-.19.09-.15.21-.45.24-.45.21-.46.21-.45.21-.45.22-.46.21-.45.21-.45.21-.46.21-.45.18-.45.21-.45.22-.43.18-.45.21-.45.18-.46.21-.45.18-.42.18-.46L423,503l.18-.42.18-.46.18-.45.18-.42.18-.46.18-.45.18-.42.19-.45.18-.46.18-.42.18-.45.15-.43.18-.45.18-.42.15-.46.19-.42.15-.45.18-.43.15-.45.15-.45.18-.43.15-.42.15-.45.15-.42.16-.46.15-.42.15-.45.15-.43.15-.45.15-.42.15-.46.12-.42.15-.45.16-.43.12-.45.15-.42.12-.45.15-.43.12-.45.15-.42.12-.43.12-.45.12-.42.15-.46.13-.45.12-.42.12-.43.12-.45.12-.45.12-.42.12-.46.12-.42.09-.45.12-.43.12-.45.12-.45.1-.43.12-.45.09-.42.12-.46.09-.45.12-.42.09-.46.09-.45.12-.42.09-.45.09-.46.09-.45.09-.45.09-.43.09-.45.1-.45.09-.46.09-.45.09-.45.09-.43.09-.48.06-.42.09-.46.09-.45.06-.45.09-.46.06-.45.09-.48.06-.46.09-.45.06-.45.06-.46.09-.48.07-.45.06-.45.06-.46.06-.45.06-.48.06-.46.06-.48.06-.45.06-.49.06-.45.06-.48.06-.46,0-.48L435,457l.06-.49,0-.48.06-.48.06-.46,0-.48.06-.48,0-.49,0-.48.06-.48,0-.49,0-.48.06-.49,0-.48,0-.48,0-.49,0-.48,0-.51,0-.49,0-.51,0-.48,0-.49,0-.51,0-.48v-.52l0-.48,0-.51,0-.52v-.48l0-.51v-.52l0-.51v-.52l0-.51v-1l0-.51v-1.57l0-.51v-4.78l0-.54v-1.63l0-.55v-.54l0-.55V428l0-.54v-.55l0-.57v-.54l0-.58v-.54l0-.58,0-.54,0-.57v-.58l0-.57,0-.58,0-.57,0-.58,0-.57,0-.57,0-.61,0-.57,0-.58,0-.6-.06-.6,0-.58,0-.6,0-.61-.06-.57,0-.61,0-.6-.06-.6,0-.61-.06-.6,0-.64-.06-.6-.06-.61,0-.63-.06-.6-.06-.64,0-.63-.06-.61-.06-.63-.06-.64-.06-.63,0-.64-.06-.63-.06-.63-.06-.64-.06-.66-.06-.64-.1-.66-.06-.64L434,398l-.06-.64-.06-.66-.06-.67-.09-.66-.06-.66-.06-.67-.09-.69-.06-.67-.09-.66-.06-.67-.09-.69-.06-.7-.09-.66-.06-.7-.09-.69-.09-.7-.06-.69-.1-.7-.09-.69-.09-.7-.09-.72-.06-.7-.09-.72-.09-.7-.09-.72-.09-.73,0-.18,0-.21v-.18l0-.21,0-.21,0-.19v-.21l0-.21v-.18l0-.21,0-.18v-.21l0-.22v-.18l0-.21v-.39l0-.21v-.21l0-.19v-.6l0-.21v-.82l0-.21V372l0-.21v-1l0-.4v-.21l0-.21v-.42l0-.43,0-.39,0-.42,0-.42,0-.43,0-.42,0-.42,0-.43.06-.42,0-.42.06-.43,0-.42.06-.42,0-.42.06-.43.06-.42.06-.42.06-.43.06-.45.06-.42.06-.43.06-.42.09-.42.07-.45.06-.43.09-.42.06-.45.09-.43.06-.42.09-.45.09-.43.09-.45.06-.42.09-.43.09-.45.09-.42.09-.45.09-.43.09-.45.12-.42.1-.46.09-.42.09-.45.12-.43.09-.45.12-.45.09-.43.12-.45.09-.42.12-.45.12-.46.09-.42.12-.45.13-.46.12-.45.12-.42.12-.46.12-.45.12-.42.12-.46.12-.45.12-.45.12-.43.12-.45.12-.45.16-.46.12-.45.12-.42.15-.45.12-.46.12-.45.15-.45.12-.46.15-.45.12-.42.28-.91.15-.45.15-.46.27-.87.12-.46.15-.45.15-.45.15-.46.13-.45.15-.45.15-.45.3-.88.27-.91.3-.9.31-.88.3-.91.3-.9.3-.91.3-.88.31-.9.6-1.78.3-.88.33-.91.61-1.78.6-1.75.64-1.78.6-1.76.61-1.75.6-1.75.3-.85.3-.87.31-.85.3-.88.27-.84.3-.88.31-.84.27-.85.3-.85.27-.84.27-.82.28-.84.27-.82.27-.85.12-.39.15-.42.12-.42.15-.4.12-.42.12-.39.13-.43.15-.39.12-.39.12-.42.12-.4.12-.39.12-.39.12-.43.12-.39.12-.39.12-.39.13-.4.09-.39.12-.39.12-.4.09-.39.12-.36.12-.39.09-.4.12-.39.09-.36.12-.39.09-.37.09-.39.12-.36.1-.4.09-.36.09-.36.09-.39.09-.37.09-.36.09-.36.09-.36.09-.37.09-.36.09-.36.06-.36.09-.37.06-.33.09-.36.06-.33.1-.37.06-.36.09-.33.06-.33.06-.37.06-.33.06-.33.06-.33.06-.33.06-.34.06-.33.06-.33,0-.33.06-.34.06-.3,0-.33.06-.33,0-.37.06-.39L458,272l.06-.36,0-.4.06-.39,0-.36.12-.79.1-.75,0-.4.06-.39,0-.39.06-.36,0-.4.06-.39,0-.39.09-.76,0-.39.06-.39,0-.4,0-.39.09-.78,0-.4,0-.36.06-.39,0-.4.06-.78,0-.39,0-.4,0-.39.09-.78,0-.4.06-.78,0-.4,0-.36.06-.81v-.37l0-.42,0-.39.06-.79,0-.36,0-.82,0-.39,0-.39v-.39l0-.4,0-.39v-.39l.06-.79v-.39l0-.79,0-.39v-.39l0-.43,0-.78,0-.79v-.78l0-.39v-.4l0-.81v-1.57l0-.79v-5.59l0-.39v-1.18l0-.39v-.82l0-.39v-.79l0-.39v-.42l0-.4v-.78l0-.39,0-.43v-.39l0-.39v-.4l0-.39,0-.39v-.42l0-.4,0-.39v-.39l0-.4,0-.39,0-.39,0-.42,0-.4v-.39l0-.39,0-.4,0-.39,0-.42,0-.39,0-.4,0-.39,0-.39,0-.39-.06-.4,0-.42,0-.39,0-.4,0-.39-.06-.39,0-.39,0-.4,0-.39-.06-.42,0-.4-.06-.39,0-.39,0-.39-.06-.4,0-.39-.06-.39,0-.4-.06-.39-.06-.42,0-.39-.06-.4,0-.39-.06-.39-.06-.39-.07-.4,0-.39-.06-.39-.06-.4-.06-.39L458,207l-.06-.39,0-.4-.06-.39-.06-.39-.06-.4-.06-.39-.06-.39-.06-.39-.09-.4-.06-.39-.06-.39-.06-.39-.06-.4-.06-.39-.09-.39-.06-.4-.06-.39-.06-.39-.1-.39-.06-.4-.09-.39-.06-.36-.06-.39-.09-.4-.06-.39-.09-.39-.09-.4-.06-.39-.09-.39-.06-.39-.09-.37-.09-.39-.06-.39-.09-.4-.09-.39-.09-.36-.1-.39-.06-.4-.09-.39-.09-.39L455,191l-.09-.4-.09-.39-.09-.39-.09-.37-.09-.39-.09-.39-.09-.39-.09-.37-.12-.39-.09-.39-.1-.36-.09-.4-.12-.39-.09-.36-.09-.39-.12-.4-.09-.36-.09-.39-.12-.4-.09-.36-.12-.39-.09-.36-.12-.4-.12-.36-.1-.39-.12-.36-.09-.4-.12-.36-.12-.39-.12-.37-.09-.39-.12-.36-.12-.39-.12-.37-.12-.39-.12-.36-.12-.36-.13-.4-.12-.36-.12-.39-.12-.36-.12-.37-.12-.39-.12-.36-.12-.39-.15-.37-.12-.36-.13-.39-.12-.37-.15-.36-.12-.36-.12-.39-.15-.37-.12-.36-.15-.36-.12-.36-.15-.4-.12-.36-.16-.36-.15-.36-.12-.37-.15-.36-.15-.36-.12-.39-.15-.34-.15-.39-.15-.36-.15-.36-.13-.37-.15-.36-.15-.36-.15-.37-.15-.36-.15-.36-.15-.36-.15-.37-.18-.36-.16-.33-.15-.36-.15-.37-.15-.36-.18-.36-.15-.36-.15-.37-.18-.33-.15-.36-.16-.36-.18-.37-.15-.33-.18-.36-.15-.36-.18-.37-.18-.33-.15-.36-.18-.36-.19-.34-.15-.36-.18-.36-.18-.33-.18-.37-.18-.33-.18-.36-.15-.33-.19-.37-.18-.33-.18-.36-.18-.33-.18-.37-.21-.33-.18-.36-.18-.33-.19-.33-.18-.37-.21-.33-.18-.36-.18-.33-.18-.34-.21-.36-.19-.33-.21-.33-.18-.34-.21-.33-.18-.36-.21-.33-.18-.34-.22-.33-.21-.33-.18-.33-.21-.34-.21-.36-.21-.33-.21-.33-.22-.33-.18-.34-.21-.33-.21-.33-.21-.33-.21-.34-.21-.3-.25-.33-.21-.33-.21-.34-.21-.33-.21-.33-.24-.33-.22-.31-.21-.33-.21-.33-.24-.33-.21-.3-.24-.34-.21-.33-.25-.3-.21-.33-.24-.34-.24-.3-.21-.33-.24-.3-.25-.33-.21-.31-.24-.33-.24-.3-.24-.33-.24-.31-.25-.33-.24-.3-.24-.3-.24-.33-.24-.31-.25-.3-.24-.33-.24-.3-.24-.31-.27-.33-.24-.3-.25-.3-.27-.3-.24-.31-.24-.3-.27-.33-.24-.3-.28-.31-.24-.3-.27-.3-.27-.3-.24-.3-.28-.31-.27-.3-.24-.3-.27-.27-.27-.3-.27-.31-.28-.3-.27-.3-.27-.3-.27-.27-.27-.31-.28-.3-.27-.3-.27-.27-.27-.31-.3-.3-.28-.27-.27-.3-.27-.27-.3-.31-.27-.27-.31-.3-.27-.27-.3-.3-.27-.28-.3-.3-.28-.27-.3-.27-.3-.3-.27-.28-.3-.27-.31-.3-.3-.27-.3-.27-.3-.28-.31-.27-.3-.3-.3-.27-.3-.27-.3-.28-.31-.27-.3-.27-.3-.27-.33-.27-.3-.27-.31-.28-.33-.27-.3-.27L409,112l-.34-.27-.3-.28-.33-.27-.3-.27-.33-.24-.34-.27-.3-.28-.33-.24-.33-.27-.34-.27-.33-.24-.33-.28-.33-.24-.34-.27-.33-.24-.33-.27-.33-.24-.34-.25-.33-.27-.33-.24-.33-.24-.36-.27-.34-.24-.33-.25-.36-.27-.33-.24L400,105l-.33-.24-.36-.25-.33-.24-.37-.24-.36-.24-.33-.24-.36-.24-.37-.25-.36-.24-.36-.24-.36-.24-.37-.24-.36-.24-.36-.22-.36-.24-.37-.24-.36-.24-.36-.21-.37-.24-.39-.21-.36-.25-.36-.24-.4-.21-.36-.24-.39-.21-.36-.24-.4-.22-.36-.21-.39-.24L389,98l-.37-.21-.39-.24-.39-.22-.4-.21-.39-.21-.39-.21-.39-.24-.4-.21-.39-.22-.39-.21-.39-.21-.94-.48-1-.52-.93-.48-.94-.51-1-.49-.93-.51-.94-.48-.48-.24-.46-.25-.48-.24-.48-.24-.46-.24-.48-.24-.48-.24-.49-.25-.45-.24-.48-.21-.46-.24-.48-.24L372,89l-.46-.25-.48-.21-.49-.24-.45-.24-.48-.24-.49-.21-.45-.25-.48-.21-.49-.24-.48-.24-.45-.21-.49-.21-.48-.25-.45-.21-.49-.24-.48-.21-.48-.21-.46-.24-.48-.22-.48-.21-.45-.21-.49-.21-.48-.24-.49-.21-.48-.21-.45-.22-.49-.21-.48-.21-.48-.21-.49-.18-.45-.21-.48-.21-.49-.22-.48-.21-.48-.18-.49-.21-.48-.18-.45-.21-.49-.21-.48-.19-.48-.18-.49-.21-.48-.18-.48-.18-.49-.21-.48-.18-.48-.19-.49-.18-.48-.18-.48-.18-.49-.18-.48-.18-.48-.18-.49-.18-.48-.19-.48-.18-.49-.15-.51-.18-.48-.18-.49-.15-.48-.18-.48-.15-.49-.18-.51-.16-.49-.18-.48-.15-.48-.15-.49-.15-.51-.15-.48-.15-.49-.15-.51-.16-.48-.15-.49-.15-.51-.15-.48-.15-.49-.12-.51-.15-.48-.15-.52-.12-.48-.15-.51-.13-.49-.12-.51-.15-.48-.12-.52-.12-.48-.12-.52-.12-.51-.12-.48-.12-.52-.12-.51-.12-.48-.12-.52-.1-.51-.12-.51-.12-.49-.09-.51-.12-.52-.09-.51-.09-.51-.12-.3-.06-.34-.06-.3-.06-.33,0-.3-.06-.34-.06-.3-.06-.33-.06-.33-.06-.3-.06-.34,0-.33-.07-.3-.06-.33,0-.31-.06-.33-.06-.33,0-.3-.06-.33,0-.34-.06-.3,0-.33-.06-.33,0-.31-.06-.33,0-.33-.06-.3,0-.34,0-.33-.06-.33,0-.3,0-.34,0-.33-.06-.33,0-.3,0-.33,0-.34,0-.3,0-.33,0-.33,0-.34,0-.33,0-.33,0-.3,0-.33,0-.34,0-.3,0-.33,0-.33,0h-.34l-.33,0-.33,0-.33,0h-.31L305,69l-.33,0h-.33l-.3,0h-.37l-.3,0h-.33l-.33,0h-.34l-.33,0h-.3l-.33,0h-.67l-.33,0h-.67l-.33,0H297.8l-.33,0h-1.66Zm.69-12.08h1.09l.33,0h1.45l.33,0h1.06l.36,0h.37l.36,0h.69l.37,0h.36l.36,0,.34,0h.36l.36,0h.36l.34,0,.36,0,.36,0h.36l.33,0,.37,0,.36,0,.36,0h.33l.37,0,.36,0,.33,0,.36,0,.37,0,.33,0,.36,0,.36,0,.34.06.36,0,.36,0,.33,0,.37,0,.36.06.36,0,.33,0,.37,0,.33.06.36,0,.37.07.33,0,.36.06.36,0,.33.06.37,0,.33.06.36,0,.36.06.34.06.36,0,.33.06.36.06.37.06.33,0,.36.06.33.06.37.06.36.06.33.06.33.06.37.06L323,59l.33.06.36.06.34.06.36.06.33.07.36.09.55.09.54.12.58.09.54.12.54.12.58.12.54.12.55.12.54.12.54.12.55.12.54.16.54.12.55.12.54.15.55.12.54.15.54.15.55.12.54.15.54.15.52.16.54.15.55.15.54.15.51.15.55.15.54.15.52.18.54.15.51.19.55.15.51.15.54.18.52.18.54.15.51.18.52.18.54.19.52.15.51.18.54.18.52.18.51.18.51.21.52.18.54.19.52.18.51.18.51.21.52.18.51.21.51.18.52.22.51.18.51.21.52.18.48.21.52.21.51.21.51.19.52.21.51.21.48.21.52.21.51.21.51.21.49.22.51.21.52.21.48.21.51.24.49.21.51.21.51.25.49.21.51.21.48.24.52.21.48.24.51.22.49.24.48.21.51.24.49.21.51.24.48.25.49.21.51.24.49.24.48.24.48.21.52.25.48.24.48.24.49.24.51.24.48.24.49.25.48.24.48.24.52.24.48.24.48.24.49.25.48.24.48.24.49.27.48.24.48.24.49.25.48.24.48.27.49.24,1,.49,1,.51,1,.51,1,.49,1,.51,1,.51,1,.52.42.24.42.21.42.24.43.24.42.22.42.24.43.24.42.24.42.21.43.24.42.25.42.24.39.24.43.24.42.24.39.24.43.28.39.24.42.24.39.24.43.24.39.27.39.25.43.24.39.27.39.24.39.24.4.27.39.25.39.27.4.24.39.27.39.27.39.25.4.27.39.27.36.24.39.27.37.27.39.28.36.27.4.27.39.27.36.27.36.25.4.3.36.27.36.27.39.27.37.28.36.27.36.27.36.27.37.3.36.28.36.27.36.3.37.27.36.27.33.31.36.27.37.3.33.27.36.3.33.28.37.3.36.3.33.27.33.3.37.31.33.27.33.3.33.3.37.3.33.28.33.3.33.3.34.3.33.31.33.3.33.3.33.3.34.3.3.31.33.3.33.3.34.33.3.31.33.3.3.3.34.3.3.33.33.31.3.3.33.33.31.3.3.33.3.31.33.3.3.33.31.3.3.34.3.33.3.3.31.33.3.3.3.34.3.33.3.3.28.33.3.34.3.33.27.3.3.33.31.34.27.33.3.33.27.33.27.33.31.34.27.33.27.33.3.33.27.34.28.33.27.33.27.33.3.34.27.33.28.33.27.36.24.34.27.33.27.33.28.36.27.34.24.33.27.36.27.33.24.33.28.37.27.33.24.36.27.33.24.37.25.33.27.36.24.33.24.37.27.33.25.36.24.36.24.34.24.36.24.36.24.33.25.37.24.36.24.36.24.33.24.37.24.36.22.36.24.36.24.37.21.36.24.33.24.36.22.37.24.36.21.36.24.36.21.37.21.36.24.36.22.4.21.36.21.36.24.36.21.37.21.36.22.36.21.39.21.37.21.36.21.36.21.39.21.37.22.36.18.39.21.36.21.37.18.39.21.36.21.36.19.4.21.36.18.39.21.37.18.39.21.36.18.39.19.37.21.39.18.36.18.39.18.37.21.39.18.39.18.36.19.4.18.39.18.36.18.4.18.36.18.39.18.39.15.4.19.39.18.36.18.39.15.4.18.39.18.36.15.4.18.39.16.39.18.39.15.4.18.39.15.36.15.39.18.4.15.39.15.39.19.4.15.39.15.39.15.39.15.4.15.39.15.39.15.4.15.39.16.42.15.39.15.4.15.39.12.39.15.39.15.4.15.39.12.42.16.4.15.39.12.39.15.39.12.43.15.39.12.39.15.4.12.42.12.39.15.39.13.4.12.42.15.39.12.4.12.42.12.39.12.39.12.43.12.39.12.39.12.43.13.39.12.42.12.39.12.43.12.39.12.39.09.43.12.39.12.42.09.39.12.4.12.42.09.42.13.4.09.39.12.42.09.42.12.4.09.42.12.39.09.43.09.39.12.42.09.39.09.43.09.42.12.39.1.43.09.39.09.42.09.43.09.39.09.42.09.39.09.43.09.42.09.39.09.43.06.42.09.39.09.42.09.43.06.39.1.42.09.43.06.42.09.39.09.42.06.43.09.39.06.42.09.43.06.42.06.39.09.43.06.42.09.42.06.39.06.43.06.42.09.42.06.4.06.42.07.42.06.42.06.43.06.39.06.42.06.43.06.42.06.42.06.4.06.42.06.42.06.42.06.43,0,.39.06.42.06.43.06.42,0,.42.06.42,0,.4.06.42.06.42,0,.43.06.42,0,.42.06.43,0,.39.06.42,0,.42,0,.43.06.42,0,.42,0,.43,0,.39.06.42,0,.42,0,.43,0,.42,0,.42.06.43,0,.39,0,.42,0,.43,0,.42,0,.42,0,.42,0,.43v.39l0,.42,0,.43,0,.42,0,.42,0,.43v.42l0,.42,0,.39,0,.43V227l0,.42,0,.43v.42l0,.42v.43l0,.39v.42l0,.42v.43l0,.42V232l0,.39v.84l0,.43v1.24l0,.42v6.28l0,.4v1.66l0,.42V245l0,.42v.39l0,.43V247l0,.42v.43l0,.42v.39l0,.43,0,.42v.39l0,.43v.42l0,.39,0,.42V252l0,.42,0,.39,0,.43v.42l0,.39,0,.42,0,.43,0,.39,0,.42,0,.4v.42l0,.42,0,.39,0,.43,0,.42,0,.39-.06.4,0,.42,0,.42,0,.4,0,.42,0,.39,0,.42,0,.43-.06.39,0,.39,0,.43,0,.39-.06.42,0,.42,0,.4-.06.39,0,.42-.06.4,0,.42,0,.39-.06.42,0,.4-.06.42,0,.39-.06.4,0,.42-.06.39-.06.39,0,.43-.06.39,0,.39-.06.43-.06.39,0,.39-.06.42-.06.4-.06.39,0,.42-.06.4-.06.39-.06.39-.06.36,0,.4-.07.36-.06.39-.06.36-.09.4-.06.39-.06.36-.06.39-.09.4-.06.39-.09.39-.06.37-.09.39-.06.39-.09.39-.09.4-.09.39-.09.39-.09.4-.1.39-.09.39-.09.42-.09.4-.09.39-.09.39-.09.4-.12.42-.09.39-.12.39-.09.43-.09.39-.12.42-.12.4-.09.42-.13.39-.12.42-.09.4-.12.42-.12.39-.12.43-.12.42-.12.39-.12.42-.12.43-.12.39-.12.42-.13.43-.12.42-.12.42-.12.42-.15.4-.12.42-.12.42-.15.43-.12.42-.12.42-.15.43-.13.42-.15.42-.12.42-.15.43-.12.42-.3.88-.27.84-.28.85-.3.87-.27.85-.3.88-.3.87-.28.85-.3.88-.3.87-.3.88-.3.87-.31.85-.3.88-.6,1.75-.61,1.78-.63,1.75-.61,1.76-.6,1.75-.3.9-.3.88-.31.88-.3.87-.3.88-.3.88-.31.9-.3.88-.3.87-.3.88-.27.88-.31.87-.3.88-.27.88-.27.87-.15.42-.15.43-.12.45-.16.42-.12.46-.15.42-.15.42-.12.46-.15.42-.12.42-.12.46-.15.42-.12.42-.13.42-.15.46-.12.42-.12.42-.12.43-.15.42-.12.42-.12.46-.12.42-.12.42-.12.42-.13.43-.12.42-.12.42-.12.43-.09.42-.12.42-.12.43-.12.39-.09.42-.12.42-.09.43-.12.39-.09.42-.13.43-.09.42-.12.39-.09.42-.09.4-.09.42-.12.42-.09.4-.09.42-.09.39L446,355l-.09.43-.09.39-.09.39-.06.4-.09.42-.1.39-.06.39-.09.4-.06.39-.09.39-.06.4-.09.39-.06.39-.06.39-.06.4-.06.36-.09.39-.06.39-.06.37,0,.39-.06.39-.06.37-.06.39,0,.36-.06.36-.06.4,0,.36,0,.36-.07.36,0,.37,0,.36,0,.36-.06.36,0,.37,0,.36v.36l0,.36,0,.37,0,.33v.36l0,.33v.37l0,.15v.87l0,.19v2.14l0,.18V375l0,.18v.45l0,.15v.33l0,.16v.33l0,.15v.15l0,.15v.33l0,.15v.13l0,.18V378l0,.15,0,.12v.15l0,.18.09.73.1.72.09.73.09.69.09.73.06.72.09.7.09.72.09.7.09.72.06.7.09.69.09.7.06.72.09.7.06.66.09.7.06.69.1.7.06.66.09.7.06.66.06.7.09.66.06.66.06.67.06.66.09.67.06.66.06.67.06.66.06.67.06.63.06.67.06.63.06.67.06.63,0,.67.06.63.06.63.06.64,0,.63.06.64.06.63,0,.64.06.63.06.61,0,.63.06.63,0,.61,0,.63.06.61,0,.6,0,.64.06.6,0,.6,0,.61,0,.6,0,.61,0,.6,0,.61,0,.6,0,.57,0,.61,0,.6,0,.58,0,.6,0,.58,0,.6v.57l0,.61,0,.57V426l0,.57v.57l0,.58v.57l0,.58v.57l0,.57v1.7l0,.57v5l0,.54v1.63l0,.55v1.08l0,.55v.54l0,.51,0,.55v.54l0,.55v.51l0,.54,0,.52,0,.54,0,.51,0,.55,0,.51,0,.55,0,.51,0,.51,0,.55,0,.51,0,.51,0,.52-.06.51,0,.51,0,.52-.06.51,0,.55-.06.51,0,.48-.06.52,0,.51-.06.51-.06.52,0,.51-.06.48-.06.52-.07.51-.06.52-.06.48-.06.51-.06.49-.06.51-.06.48-.06.52-.06.48-.09.51-.06.49-.06.51-.09.48-.06.49-.09.51-.06.48-.09.49-.06.51-.09.49-.09.48-.1.48-.06.49-.09.51-.09.48-.09.49-.09.48-.09.48-.09.49-.09.48-.09.48-.12.49-.09.48-.09.48-.09.49-.12.48-.09.48L444,477l-.09.48-.12.48-.12.46-.09.48-.12.48-.12.49-.12.48-.09.45-.12.49-.12.48-.12.48-.13.49-.12.45-.15.48-.12.49-.12.45-.12.48-.15.49-.12.45-.12.48-.15.49-.12.45-.16.48-.15.49-.12.45-.15.48-.15.46-.15.48-.15.48-.12.46-.15.48-.15.45-.16.49-.18.45-.15.48-.15.49-.15.45-.18.48-.15.46-.15.48-.19.45-.15.49-.18.45-.15.48-.18.49-.18.45-.15.48-.18.46-.18.48-.19.45-.18.49-.18.48-.18.45-.18.49L436,503l-.18.48-.22.46-.18.48-.18.45-.21.49-.18.48-.21.45-.18.49-.21.48-.19.45-.21.49-.21.45-.21.48-.18.49-.21.45-.21.48-.22.49-.21.45-.21.48-.24.49-.21.48-.21.45-.22.49-.24.48-.21.48-.24.49-.21.45-.24.48-.21.49-.25.48-.09.21-.12.24-.12.22-.09.24-.12.21-.12.24-.12.21-.12.21-.12.25-.12.21-.13.21-.12.24-.12.21-.12.21-.12.24-.12.22-.15.21-.12.21-.12.24-.15.21-.13.21-.12.22-.15.24-.12.21-.15.21-.12.21-.15.21-.15.21-.12.22-.15.21-.15.21-.13.21-.15.24-.15.21-.15.22-.15.21-.15.21-.15.21-.15.21-.15.21-.16.21-.15.19-.15.24-.18.21-.15.18-.15.21-.15.21-.15.21-.18.22-.16.21-.18.21-.15.18-.15.21-.18.21-.18.21-.15.22-.18.18-.15.21-.19.21-.18.21-.18.18-.15.21-.18.22-.18.18-.18.21-.18.21-.19.18-.18.21-.18.21-.18.19-.18.21-.18.18-.18.21-.18.18-.19.21-.21.18-.18.22-.18.18-.18.21-.21.18-.18.21-.22.18-.18.21-.18.19-.21.18-.18.21-.21.18-.21.21-.19.18-.21.18-.21.21-.18.19-.21.18-.21.21-.21.18-.19.18-.21.18-.21.18-.21.22-.21.18-.21.18-.21.18-.22.18-.21.18-.21.21-.21.18-.24.19-.21.18-.21.18-.22.18-.21.18-.24.18-.21.18-.21.19-.24.18-.22.18-.24.18-.21.18-.21.18-.24.18-.24.18-.22.19-.24.18-.21.18-.24.18-.24.15-.21.18-.24.18-.25.18-.24.19-.24.18-.21.15-.24.18-.24.18-.25.18-.24.15-.24.18-.24.19-.24.15-.25.18-.24.18-.24.15-.24.18-.27.15-.24.18-.25.18-.24.16-.27.18-.24.15-.24.18-.28.15-.24.18-.24.15-.27.18-.24.16-.27.18-.25.15-.27.15-.24.18-.27.15-.24.18-.27.15-.28.15-.24.19-.27.15-.27.15-.27.18-.28.15-.24.15-.27.15-.27.18-.27.15-.28.16-.27.15-.27.18-.27.15-.24.15-.3.15-.28.15-.27.15-.27.15-.27.16-.27.15-.31.15-.24.15-.3.15-.27.15-.27.15-.31.15-.27.15-.27.16-.3.15-.27.15-.28.15-.3.15-.27.15-.3.15-.27.12-.31.15-.27.15-.3.16-.3.15-.27.12-.31.15-.3.15-.27.15-.3.12-.31.15-.3.15-.27.12-.3.16-.3.12-.31.15-.3.15-.27.12-.33.15-.3.12-.28.15-.3.12-.33.15-.27.13-.3.15-.31.12-.33.15-.3.12-.3.15-.31.12-.3.12-.33.15-.3.12-.3.12-.31.16-.3.12-.33.12-.3.15-.31.12-.33.12-.3.12-.33.12-.3.15-.34.12-.3.12-.33.13-.3.12-.34.12-.3.12-.33.12-.3.15-.33.12-.34.12-.3.12-.33.12-.33.12-.31.1-.33.12-.33.12-.33.12-.31.12-.33.12-.33.12-.33.12-.33.12-.34.09-.33.12-.33.12-.33.12-.31.1-.33.12-.36.12-.33.12-.34.09-.33.12-.33.09-.33.12-.33.12-.34.09-.33.12-.33.09-.36.12-.34.1-.33.12-.33.09-.36.12-.34.09-.33.12-.36.09-.33.12-.34.09-.36.09-.33.12-.36.09-.34.09-.33.13-.36.09-.33.09-.37.09-.33.09-.36.12-.33.09-.37.09-.36.09-.33.09-.36.09-.37.09-.33.12-.36.09-.36.09-.34.1-.36.09-.36.09-.36.09-.34.09-.36.06-.36.09L351,568l-.37.09-.36.09-.33.09-.36.09-.37.06-.36.09-.36.09-.36.09-.37.06-.36.1-.36.09-.36.06-.37.09-.36.09-.36.06-.36.09-.4.09-.36.06-.36.09-.36.06-.37.09-.36.06-.36.06-.39.09-.37.06-.36.09-.36.06-.4.07-.36.09-.36.06-.39.06-.37.09-.36.06-.39.06-.36.06-.4.09-.36.06-.36.06-.39.06-.37.06-.36.06-.39.06-.4.06-.36.09-.39.06-.36.06-.4.06-.36.06-.39,0-.36.07-.4.06-.39.06-.36.06-.39.06-.4.06-.36,0-.39.06-.4.06-.36.06-.39,0-.39.06-.37.06-.39,0-.39.06-.39.06-.37,0-.39.06-.39,0-.4.06-.39.06-.39,0-.39,0-.37.06-.39,0-.39.06-.39,0-.4.06-.39,0-.39,0-.4,0-.39.06-.39,0-.39,0-.4,0-.39.06-.39,0-.39,0-.4,0-.39,0-.39,0-.4,0-.39,0-.39,0-.42,0-.4,0-.39,0-.39,0-.4,0-.39,0-.42,0-.39,0-.4,0h-.39l-.39,0-.43,0-.39,0h-.39l-.39,0-.43,0H309l-.39,0-.43,0h-.39l-.39,0H307l-.4,0h-.39l-.42,0h-.39l-.4,0h-.81l-.43,0H303l-.43,0h-1.2l-.43,0h-6.55l-.4,0h-1.23l-.43,0h-.81l-.43,0h-.39l-.42,0h-.43l-.42,0H289l-.42,0h-.43l-.39,0h-.42l-.43,0h-.42l-.39,0-.42,0-.43,0h-.42l-.39,0-.43,0-.42,0h-.42l-.42,0-.43,0-.39,0-.42,0-.43,0-.42,0-.42,0-.4,0-.42,0-.42,0-.42,0-.43,0-.42-.06-.42,0-.43,0-.42,0-.39,0-.43-.06-.42,0-.42,0-.42-.06-.43,0-.42-.07-.42,0-.34,0-.33,0-.36-.06-.39,0-.4-.06-.42-.06-.45-.06-.46-.06-.48-.09-.48-.06-.55-.09-.51-.09-.27,0-.3-.06-.28,0-.27-.06-.3-.06-.3,0-.3-.06-.31-.06-.3-.06-.3,0-.33-.06-.34-.06-.3-.07-.33-.06-.33-.09-.33-.06-.37-.06-.33-.06-.36-.09-.33-.06-.37-.06-.36-.09-.36-.06-.36-.09-.4-.09-.36-.06-.36-.09-.4-.09-.39-.09-.39-.06-.39-.09-.4-.1-.39-.09-.42-.12-.39-.09-.4-.09-.42-.09-.42-.12-.43-.09-.42-.09-.42-.12-.43-.09-.42-.12-.45-.12-.42-.09-.46-.13-.42-.12-.45-.12-.46-.12-.45-.12L249,568l-.46-.12-.45-.12-.48-.15-.46-.12-.45-.12-.48-.16-.49-.12-.45-.15-.48-.15-.49-.12-.48-.15-.48-.15-.49-.15-.48-.15-.48-.15-.52-.16-.48-.15-.48-.18-.52-.15-.48-.15-.51-.18-.52-.15-.51-.18-.49-.19-.51-.15-.51-.18-.52-.18-.51-.18-.51-.18-.55-.18-.51-.18-.51-.19-.52-.21-.54-.18-.52-.21-.54-.18-.51-.21-.55-.21-.51-.18-.54-.22-.55-.21L228,561l-.55-.21-.54-.21-.54-.24-.55-.22-.51-.21-.55-.24-.54-.21-.54-.24-.55-.24-.54-.22-.54-.24-.55-.24-.57-.24-.55-.24-.54-.24-.54-.28-.55-.24-.54-.27-.58-.24-.54-.27-.54-.24-.55-.28-.57-.27-.55-.27-.27-.15-.27-.12-.27-.15-.27-.12-.3-.16-.28-.15-.27-.12-.27-.15-.27-.12-.27-.15-.28-.15-.3-.15-.27-.15-.27-.12-.27-.16-.28-.15-.3-.15-.27-.15-.27-.15-.27-.15-.28-.15-.27-.15-.27-.15-.3-.16-.27-.15-.28-.15-.27-.15-.27-.15-.27-.15-.27-.15-.28-.15-.3-.18-.27-.15-.27-.16-.27-.15-.27-.18-.28-.15-.27-.18-.27-.15-.3-.15-.28-.18-.27-.15-.27-.19-.27-.15-.27-.18-.27-.15-.28-.18-.27-.15-.27-.18-.27-.18-.27-.16-.28-.18-.27-.18-.27-.18-.3-.15-.24-.18-.28-.18-.27-.18-.27-.19-.27-.15-.27-.18-.28-.18-.27-.18-.27-.18-.27-.18-.27-.18-.27-.19-.28-.21-.27-.18-.27-.18-.27-.18-.27-.18-.25-.18-.27-.22-.27-.18-.27-.18-.27-.21-.28-.18-.27-.18-.24-.21-.27-.18-.27-.22-.27-.18-.28-.21-.24-.18-.27-.21-.27-.18-.24-.21-.28-.22-.27-.18-.24-.21-.27-.21-.27-.18-.28-.21-.24-.21-.27-.22-.24-.21-.27-.21-.24-.18-.28-.21-.27-.21-.24-.21-.27-.22-.24-.24-.28-.18-.24-.24-.27-.21-.24-.21-.27-.22-.24-.21-.25-.24-.27-.21-.24-.21-.24-.21-.27-.24-.25-.22-.24-.24-.27-.21-.24-.24-.24-.21-.24-.21-.28-.25-.24-.24-.24-.21-.24-.24-.27-.24-.25-.21-.24-.25-.24-.24-.24-.21-.24-.24-.24-.24-.25-.24-.24-.25-.24-.24-.24-.24-.24-.24-.24-.24-.25-.24-.24-.25-.21-.24-.24-.24-.24-.24-.24-.27-.25-.24-.21-.25-.24-.24-.24-.27-.21-.24-.24-.24-.25-.28L175,526l-.24-.27-.24-.24-.21-.27-.24-.24-.21-.28-.25-.24-.21-.27-.21-.27-.24-.24-.21-.28-.24-.27-.22-.27-.21-.24-.21-.27-.24-.27-.21-.28-.21-.27-.21-.27-.25-.27-.21-.27-.21-.28-.21-.27-.21-.27-.21-.27-.22-.3-.21-.28-.21-.27-.21-.27-.21-.3-.18-.27-.21-.28-.22-.3-.21-.27-.21-.3-.18-.27-.21-.31-.21-.27-.18-.3-.22-.3-.18-.27-.21-.31-.18-.3-.21-.3-.18-.27-.21-.3-.19-.31L165,513l-.21-.3-.18-.3-.18-.31-.21-.3-.18-.3-.18-.3-.19-.3-.18-.31-.18-.3-.18-.33-.18-.3-.18-.31-.18-.3-.19-.33-.18-.3-.18-.3-.15-.34-.18-.33-.18-.3-.15-.3-.18-.34-.18-.33-.16-.3-.18-.33-.15-.33-.18-.31-.15-.33-.18-.33-.15-.33-.15-.31-.16-.3-.06-.09-.09-.18-.09-.24-.15-.3-.18-.37-.21-.42-.24-.48-.09-.24-.15-.31-.13-.3-.15-.3-.15-.3-.15-.33-.15-.34-.15-.36-.18-.36-.18-.4-.15-.39-.19-.39-.21-.42-.18-.46-.18-.42-.21-.48-.18-.46-.21-.48-.22-.48-.21-.52-.21-.51-.24-.51-.21-.55-.21-.54-.24-.58-.22-.57-.24-.57-.24-.58-.24-.6-.21-.64-.24-.6-.25-.64-.24-.63-.27-.67-.24-.63-.24-.66-.12-.37-.12-.33-.13-.33-.12-.36-.12-.34-.15-.33-.12-.36-.12-.36-.12-.34-.12-.36-.12-.36-.12-.36-.15-.37-.13-.36-.12-.36-.12-.39-.12-.37-.12-.36-.12-.39-.12-.36-.15-.4-.12-.36-.12-.39-.12-.4-.12-.36-.13-.39-.12-.39-.12-.4-.12-.39-.15-.39-.12-.39-.12-.43-.12-.39-.12-.39-.12-.43-.13-.39-.12-.39-.12-.43-.12-.42-.12-.39-.09-.42-.12-.43-.12-.39-.12-.42-.12-.43-.12-.42-.12-.42-.09-.42-.13-.43-.12-.42-.12-.42-.09-.46-.12-.42-.12-.42-.09-.46-.12-.42-.12-.42-.09-.45-.12-.43-.09-.45-.12-.45-.1-.43-.12-.45-.09-.45-.09-.43-.12-.45-.09-.45-.09-.46-.09-.45-.12-.45-.09-.46L143,455l-.09-.45-.09-.46-.09-.45-.1-.45-.09-.46-.09-.45-.09-.48-.09-.45-.09-.46-.06-.48-.09-.45-.09-.46-.06-.48-.09-.45-.06-.49-.09-.45-.06-.48-.09-.46-.06-.48-.06-.45-.09-.49-.07-.48-.06-.45-.06-.49-.06-.48-.06-.45-.06-.49-.06-.48-.06-.48-.06-.46,0-.48-.06-.48-.06-.49,0-.48-.06-.45,0-.49-.06-.48,0-.48,0-.49-.06-.48,0-.49,0-.48,0-.48,0-.49,0-.48,0-.48,0-.49v-.48l0-.48v-.49l0-.48v-.48l0-.49v-1l0-.52v-1.93l0-.48v-1.21l0-.49v-.48l0-.24v-.48l0-.49,0-.51,0-.48v-.25l0-.24v-.24l0-.48,0-.24,0-.25v-.24l0-.24,0-.48,0-.25,0-.24v-.24l0-.24.06-.48.06-.49v-.24l.09-.69.09-.7.06-.69.06-.7.09-.66.06-.7.09-.69.06-.67.06-.69.07-.67.09-.66.06-.7.06-.66.06-.67.06-.66.06-.67.06-.66.06-.67.06-.63.06-.66.06-.67L142,402l0-.67.06-.63.06-.64.06-.66,0-.64.06-.63.06-.64,0-.63.06-.63,0-.64.06-.63,0-.61,0-.63.07-.61,0-.63,0-.6.06-.64,0-.6,0-.61,0-.63.06-.61,0-.6,0-.61,0-.6,0-.6,0-.58,0-.6,0-.61,0-.57,0-.6v-.61l0-.57,0-.58,0-.6,0-.58v-.57l0-.57,0-.58v-.57l0-.58V377l0-.57,0-.58v-1.12l0-.57v-.54l0-.58V372l0-.57v-1.63l0-.55v-8.52l0-.51v-1.54l0-.51v-1l0-.51v-.49l0-.51v-1l0-.51v-.49l0-.51v-.48l0-.49,0-.51v-.48l0-.49,0-.48v-.48l0-.49,0-.48v-.48l0-.49,0-.48,0-.45v-.49l0-.48,0-.48,0-.46,0-.48,0-.45,0-.49V343l0-.48,0-.46,0-.45,0-.45,0-.49,0-.45,0-.45-.06-.46,0-.45,0-.45,0-.46,0-.45,0-.45,0-.46,0-.42-.06-.45,0-.45,0-.46,0-.42-.06-.45,0-.43,0-.45-.06-.42,0-.43,0-.45-.06-.42,0-.46,0-.42-.06-.42-.06-.85-.09-.87-.09-.85-.09-.85-.09-.81-.09-.85-.12-.81-.1-.85-.09-.81-.09-.82-.12-.82-.09-.81-.09-.79-.12-.81-.09-.79-.12-.81-.09-.79-.12-.79-.12-.78-.09-.76-.12-.78-.13-.79-.12-.75-.09-.79-.12-.75-.12-.76-.12-.75-.12-.76-.12-.76-.12-.75-.12-.73-.12-.75-.12-.73-.13-.75-.12-.73-.12-.72-.12-.73-.12-.72-.12-.73-.12-.72-.12-.73-.15-.72-.12-.7-.12-.72-.13-.73-.24-1.39-.27-1.42-.24-1.39-.27-1.39-.49-2.78-.51-2.75-.24-1.36-.24-1.36-.28-1.36-.24-1.36-.12-.69-.12-.66-.09-.67-.12-.69-.12-.67-.12-.66-.12-.7-.12-.66-.12-.67-.09-.69-.13-.67-.12-.66-.09-.67-.12-.69-.09-.67-.12-.66-.09-.67-.12-.69-.09-.67-.12-.66-.09-.69-.09-.67-.09-.66-.13-.7-.09-.66-.09-.67-.09-.69-.09-.67-.09-.69-.06-.67-.09-.69-.09-.67-.06-.69-.09-.67-.09-.69-.06-.7-.06-.66-.09-.7-.06-.69,0-.33,0-.34,0-.36,0-.36,0-.33,0-.34,0-.36,0-.33,0-.36,0-.34,0-.36,0-.33,0-.36,0-.37,0-.33,0-.36v-.33l0-.37,0-.36,0-.33v-.36l0-.34,0-.36v-.36l0-.36,0-.34v-.36l0-.36v-.33l0-.4v-.33l0-.36v-.36l0-.37v-.72l0-.33v-.37l0-.36v-1.09l0-.36v-6.28l0-.37v-.75l0-.36v-.4l0-.75v-.36l0-.4V227l0-.39v-.4l0-.36v-.39l0-.39,0-.37v-.39l.06-.75,0-.43v-.36l0-.39,0-.4,0-.39,0-.39,0-.39,0-.4,0-.39,0-.39,0-.39,0-.4,0-.39,0-.42.07-.4.06-.78,0-.42.06-.4,0-.39.06-.42,0-.4,0-.39.06-.42,0-.39.06-.43.06-.39,0-.42.06-.4.06-.42,0-.42.06-.39.06-.43.06-.42.06-.42.06-.43,0-.39.06-.42.06-.43.06-.42.09-.42.06-.42.07-.43.06-.42.06-.42.09-.46.06-.42.06-.42.06-.43.09-.45.06-.42.09-.42.06-.46.09-.42.09-.45.06-.43.09-.42.06-.45.09-.46.12-.6.13-.6.12-.61.12-.63.12-.61.12-.6.12-.64.12-.6.15-.64.12-.6.12-.63.15-.64.12-.6.16-.64.12-.63.15-.61.15-.63.15-.63.12-.64.15-.63.15-.61.15-.63.15-.64.16-.63.18-.64.15-.63.15-.64.15-.63.18-.63.15-.64.18-.63.16-.64.18-.63.18-.64.15-.63.18-.67.18-.63.18-.63.18-.64.19-.63.18-.64.21-.63.18-.64.18-.63.21-.67.18-.63.22-.64L140,169l.21-.63.21-.64.18-.63.21-.64.21-.63.22-.64.21-.63.21-.64.21-.63.24-.63.21-.64.21-.63.25-.64.21-.63.24-.64.21-.63.24-.64.24-.63.25-.6.24-.64.12-.33.24-.61.24-.63.24-.63.25-.61.12-.33.12-.3.15-.31.12-.33.12-.3.12-.3.12-.33.15-.31.12-.3.27-.63.13-.31.12-.3.27-.6.27-.64.27-.6.27-.6.28-.64.12-.3.15-.3.15-.31.12-.3.27-.6.15-.3.15-.31.16-.3.12-.3.15-.3.15-.3.15-.31.12-.3.15-.3.15-.3.15-.31.15-.3.16-.3.15-.3.27-.58.18-.3.15-.3.15-.3.15-.3.15-.28.16-.3.15-.3.15-.3.15-.27.15-.31.15-.3.18-.3.15-.27.15-.31.16-.27.18-.3.3-.57.15-.31.18-.27.33-.57.15-.3.16-.28.18-.3.15-.27.18-.3.15-.27.18-.31.33-.54.18-.3.16-.27.18-.28.18-.27.15-.3.18-.27.18-.27.15-.31.19-.27.18-.27.18-.27.18-.27.33-.55.18-.3.18-.27.18-.27.19-.28.18-.27.18-.27.18-.27.18-.27.18-.27.18-.25.4-.54.18-.27.18-.27.18-.28.18-.24.21-.27.18-.27.19-.27.39-.52.21-.27.21-.3.39-.54.25-.31.21-.27.21-.27.21-.3.21-.28.21-.27.21-.27.22-.3.45-.55.21-.27.21-.27.24-.27.22-.27.21-.27.24-.28.21-.27.21-.27.24-.27.21-.27.25-.28.21-.27.24-.27.21-.27.24-.27.22-.28.24-.24.24-.27.21-.27.24-.27.45-.52.49-.54.24-.27.45-.52.24-.27.25-.24.24-.27.24-.24.24-.27.24-.25.24-.27L174,108l.24-.24.24-.24.24-.28L175,107l.25-.27.24-.24.51-.52.24-.24.24-.24.25-.27.27-.24.24-.24.24-.25.24-.27.27-.24.25-.24.27-.24.24-.24L179,103l.27-.27.24-.24.28-.24L180,102l.51-.49L181,101l.27-.24.27-.24.24-.24.27-.22.28-.24.24-.24.27-.24.27-.24.27-.21.24-.25.28-.24.27-.24.27-.21.51-.49.28-.21.27-.24.27-.24.27-.21.27-.24.28-.21.27-.25.27-.21.27-.24.27-.21.55-.45.27-.25.3-.21.27-.21.27-.24.28-.21.27-.21.27-.25.3-.21.27-.21.28-.21.3-.24.27-.21.27-.21.27-.22.31-.21.27-.21L193,91l.3-.21.27-.21.31-.21.27-.22.3-.21.27-.21.31-.21.27-.21.57-.43.3-.21.28-.21.3-.21.3-.18.27-.21.3-.21.28-.22.3-.18.3-.21.57-.39.31-.21.3-.21.27-.19.3-.21.3-.18.31-.21.3-.18.3-.21.27-.18.3-.22.31-.18.6-.39.6-.39.31-.18.3-.18.3-.22.3-.18.31-.18.3-.18.3-.21.3-.18.3-.18.31-.19.6-.36.3-.18.34-.18.3-.18.3-.18.3-.18.3-.19.34-.18.6-.36.3-.18.33-.18.61-.36.33-.16.3-.18.31-.18.33-.18.3-.15.3-.18.64-.33.3-.19.33-.18.3-.15.34-.18.63-.33.3-.15.34-.18.63-.34.3-.15.33-.18.64-.3.63-.33.64-.31.33-.18.33-.15.3-.15.34-.15L221,74l.33-.18.67-.3.3-.16.33-.15.33-.15.33-.15.31-.15.66-.3.67-.3.63-.28.33-.15.34-.15.33-.15.63-.27.37-.15.63-.27.33-.15.67-.28.33-.15.33-.12.33-.15.67-.27.33-.12.67-.27.33-.16.66-.24.33-.15.34-.12.33-.12.33-.15.33-.12.34-.12.36-.12.33-.15.33-.13.34-.12.33-.12.33-.12.33-.12.37-.12.33-.12.33-.12.33-.12.34-.12.69-.24.33-.13.33-.12.37-.12.66-.21.33-.12.34-.12.36-.09.33-.12.36-.12.34-.12.33-.09.33-.13.36-.09.34-.12.36-.12.33-.09.67-.21.69-.21.36-.09.34-.12.69-.18.33-.13.7-.18.33-.12.36-.09.33-.09.37-.09.33-.09.36-.09.33-.12.37-.09.33-.09.36-.09.33-.09.7-.19L254,62l.33-.09.37-.06.33-.09.36-.09.33-.09.7-.18.36-.06.33-.09.37-.09.69-.15.36-.09.34-.06.36-.09.69-.16.37-.09.36-.06.33-.09.36-.06.34-.06.36-.09.36-.06.33-.09.37-.06.36-.06.33-.06.36-.09.37-.06.33-.06.36-.06.33-.06.37-.09.36-.06.36-.06.33-.07.37-.06.36-.06L268,59l.36-.06.37-.06.33-.06.36-.06.36,0,.37-.06.33-.06.36-.06.7-.09.36-.06.36-.06.36-.06.34,0,.36-.06.36,0,.36-.06.34-.06.36,0,.36-.06.7-.06.36-.06.36,0,.36-.07.34,0,.36,0,.36-.06.36,0,.37,0,.33,0,.36-.06.36,0,.37,0,.33,0,.72-.06.37,0,.69-.06.36,0,.37,0,.36,0,.69-.06.37,0,.36,0,.36,0h.33l.37,0,.36,0,.72,0,.34,0h.36l.72-.06h.37l.69,0,.36,0,.73,0h.69l.73,0h.36l.33,0h1.79l.36,0h1.78Z"/><path class="cls-10" d="M334.24,538.43c-119.59,27.83-140.52-41.94-144.63-57.1-7.74-28.55-11.48-83.94-4.54-113.39,2.42-10.22,7-21.88,14.75-30.34,17.1-18.58,93.54-20.21,122.12-15.83,11.45,1.75,21.79,5.68,32,10C389.53,346.88,402.07,522.66,334.24,538.43Z"/><path class="cls-10" d="M158.34,228.05a5,5,0,1,1-5,5A5,5,0,0,1,158.34,228.05Z"/><path class="cls-10" d="M406.09,237.11a5,5,0,1,1-5,5A5,5,0,0,1,406.09,237.11Z"/><path class="cls-4" d="M289.79,316.51s40.28,20.09,43.15,47.11-19.25,34.77-29.07,16.52-20.57-34.56-36.77-38.43S264.51,303.58,289.79,316.51Z"/><path d="M317.81,394.6c-7,0-13.71-4.47-17.93-12.31-9-16.74-19.29-32.7-33.83-36.17a13.14,13.14,0,0,1-10.13-10.37c-1.63-7.59,2.12-16.63,9.1-22,7.45-5.72,17.23-6.19,26.82-1.29,2,1,42.52,21.63,45.61,50.67,2,18.69-6.62,28.21-14.63,30.69A16.81,16.81,0,0,1,317.81,394.6Zm-39-76.46a13.32,13.32,0,0,0-8.26,2.81c-4.58,3.51-6.53,9.32-5.76,12.9a4.12,4.12,0,0,0,3.37,3.45c18,4.31,29.74,22.1,39.72,40.7,3.12,5.8,7.83,8.56,12.27,7.17,5.09-1.57,9.62-8.7,8.29-21.07-2.57-24.21-40.28-43.34-40.66-43.53l0,0A19.59,19.59,0,0,0,278.8,318.14Z"/><path class="cls-4" d="M235.8,316.3s-40.27,20.09-43.14,47.1,19.24,34.78,29,16.53,20.61-34.56,36.8-38.43S261.09,303.37,235.8,316.3Z"/><path d="M207.79,394.39a16.81,16.81,0,0,1-5-.77c-8-2.47-16.64-12-14.63-30.7,3.09-29,43.6-49.66,45.61-50.66,9.59-4.9,19.35-4.43,26.8,1.28,7,5.36,10.73,14.41,9.11,22a13.13,13.13,0,0,1-10.13,10.37c-13.71,3.27-23.45,16.83-33.86,36.17C221.48,389.92,214.79,394.39,207.79,394.39Zm39-76.46a19.52,19.52,0,0,0-8.92,2.41l0,0c-.38.19-38.09,19.32-40.66,43.52-1.33,12.39,3.2,19.51,8.29,21.08,4.44,1.39,9.13-1.38,12.24-7.17,9.32-17.33,20.85-36.19,39.74-40.7a4.11,4.11,0,0,0,3.36-3.44c.77-3.59-1.18-9.4-5.76-12.92A13.34,13.34,0,0,0,246.79,317.93Zm-11-1.63h0Z"/><path class="cls-11" d="M246.71,263.7c2.27,7.16,3.63,20.85,8.25,26.56,2.26,2.78,6.83,2.6,9.79,2.47,17.1-.66,15.59-18.09,17.07-33.44"/><polygon class="cls-6" points="282.12 254.76 282.36 254.79 282.6 254.82 282.85 254.88 283.09 254.94 283.33 255 283.57 255.09 283.78 255.21 284.02 255.33 284.24 255.45 284.45 255.57 284.63 255.72 284.84 255.9 285.02 256.06 285.17 256.24 285.35 256.45 285.5 256.63 285.63 256.84 285.75 257.05 285.87 257.29 285.99 257.51 286.08 257.75 286.14 257.99 286.2 258.23 286.26 258.47 286.29 258.71 286.32 258.96 286.35 259.2 286.35 259.47 286.32 259.71 286.29 260.04 286.26 260.41 286.23 260.74 286.2 261.1 286.17 261.46 286.14 261.8 286.11 262.16 286.08 262.52 286.05 262.88 286.02 263.25 285.99 263.97 285.93 264.7 285.87 265.42 285.78 266.87 285.72 267.6 285.69 268.35 285.63 269.08 285.6 269.44 285.56 269.8 285.54 270.17 285.5 270.56 285.47 270.92 285.44 271.28 285.41 271.68 285.38 272.04 285.35 272.4 285.29 272.76 285.26 273.13 285.23 273.49 285.2 273.85 285.14 274.24 285.11 274.61 285.05 274.97 285.02 275.33 284.96 275.69 284.9 276.06 284.87 276.42 284.81 276.78 284.75 277.14 284.72 277.33 284.69 277.51 284.66 277.69 284.63 277.9 284.6 278.05 284.57 278.23 284.54 278.41 284.51 278.6 284.48 278.78 284.42 278.96 284.39 279.14 284.36 279.32 284.33 279.5 284.3 279.68 284.24 279.86 284.2 280.05 284.18 280.23 284.12 280.38 284.08 280.56 284.05 280.74 283.99 280.92 283.96 281.1 283.9 281.28 283.87 281.46 283.81 281.62 283.78 281.8 283.72 281.98 283.66 282.16 283.63 282.31 283.57 282.49 283.51 282.67 283.48 282.82 283.42 283.04 283.36 283.19 283.3 283.37 283.24 283.52 283.21 283.7 283.15 283.88 283.09 284.06 283.03 284.21 282.97 284.4 282.88 284.58 282.82 284.73 282.75 284.91 282.69 285.06 282.63 285.24 282.54 285.42 282.48 285.57 282.42 285.75 282.33 285.91 282.27 286.09 282.18 286.24 282.12 286.42 282.03 286.57 281.97 286.75 281.88 286.9 281.79 287.06 281.7 287.24 281.64 287.39 281.55 287.54 281.45 287.72 281.37 287.87 281.27 288.02 281.18 288.2 281.09 288.35 281 288.5 280.91 288.69 280.79 288.84 280.7 288.99 280.61 289.14 280.49 289.29 280.4 289.44 280.28 289.59 280.19 289.74 280.07 289.89 279.94 290.05 279.85 290.2 279.73 290.35 279.61 290.5 279.49 290.65 279.37 290.8 279.25 290.92 279.13 291.07 279.01 291.22 278.89 291.35 278.74 291.5 278.62 291.62 278.5 291.77 278.37 291.89 278.22 292.04 278.1 292.16 277.95 292.31 277.8 292.43 277.68 292.55 277.53 292.7 277.38 292.83 277.23 292.95 277.07 293.07 276.92 293.19 276.77 293.31 276.62 293.43 276.47 293.55 276.32 293.67 276.14 293.79 275.99 293.91 275.81 294 275.65 294.13 275.5 294.21 275.32 294.34 275.17 294.43 274.99 294.55 274.81 294.64 274.63 294.73 274.48 294.85 274.3 294.94 274.11 295.03 273.93 295.12 273.75 295.21 273.57 295.3 273.39 295.39 273.21 295.45 273 295.54 272.81 295.63 272.63 295.7 272.45 295.79 272.24 295.85 272.06 295.94 271.85 296 271.67 296.09 271.45 296.15 271.27 296.21 271.06 296.27 270.85 296.33 270.67 296.39 270.46 296.45 270.25 296.51 270.04 296.57 269.82 296.6 269.61 296.66 269.4 296.69 269.19 296.75 268.98 296.78 268.77 296.84 268.55 296.87 268.34 296.9 268.13 296.96 267.89 297 267.68 297.02 267.47 297.06 267.23 297.08 267.01 297.12 266.77 297.12 266.56 297.15 266.32 297.18 266.11 297.21 265.87 297.21 265.62 297.24 265.41 297.24 265.17 297.24 264.93 297.27 264.66 297.27 264.32 297.3 264.02 297.3 263.69 297.3 263.51 297.3 263.33 297.3 263.18 297.33 263 297.33 262.81 297.33 262.6 297.33 262.42 297.33 262.24 297.33 262.03 297.3 261.85 297.3 261.64 297.3 261.45 297.3 261.24 297.3 261.03 297.27 260.82 297.27 260.61 297.24 260.4 297.24 260.19 297.21 259.97 297.21 259.76 297.18 259.55 297.15 259.31 297.12 259.1 297.08 258.89 297.06 258.76 297.02 258.64 297.02 258.52 297 258.43 296.96 258.31 296.94 258.19 296.94 258.07 296.9 257.95 296.87 257.83 296.84 257.74 296.81 257.62 296.81 257.5 296.78 257.38 296.75 257.25 296.69 257.13 296.66 257.01 296.63 256.92 296.6 256.8 296.57 256.68 296.54 256.56 296.51 256.41 296.45 256.32 296.42 256.2 296.39 256.08 296.33 255.96 296.3 255.83 296.24 255.71 296.21 255.59 296.15 255.47 296.09 255.35 296.03 255.23 296 255.11 295.94 254.99 295.88 254.87 295.82 254.75 295.76 254.63 295.7 254.5 295.61 254.38 295.54 254.26 295.48 254.14 295.42 254.02 295.33 253.9 295.27 253.78 295.18 253.66 295.12 253.54 295.03 253.42 294.94 253.33 294.88 253.21 294.79 253.09 294.7 252.96 294.61 252.84 294.52 252.72 294.4 252.63 294.34 252.51 294.25 252.39 294.13 252.3 294 252.18 293.91 252.06 293.79 251.97 293.67 251.88 293.58 251.76 293.46 251.66 293.34 251.54 293.25 251.45 293.13 251.39 293.04 251.3 292.95 251.24 292.83 251.15 292.74 251.06 292.61 251 292.52 250.94 292.46 250.88 292.34 250.79 292.25 250.73 292.13 250.64 292.04 250.58 291.95 250.52 291.86 250.46 291.74 250.4 291.65 250.34 291.56 250.25 291.44 250.19 291.31 250.12 291.22 250.06 291.13 250 291.04 249.94 290.92 249.82 290.71 249.7 290.5 249.58 290.29 249.46 290.08 249.37 289.87 249.25 289.65 249.13 289.44 249.04 289.2 248.91 288.99 248.82 288.78 248.7 288.54 248.61 288.32 248.52 288.11 248.43 287.87 248.34 287.66 248.22 287.42 248.13 287.21 248.04 286.96 247.95 286.75 247.89 286.51 247.8 286.27 247.71 286.06 247.62 285.82 247.53 285.57 247.47 285.36 247.38 285.12 247.28 284.88 247.22 284.64 247.13 284.43 247.07 284.15 246.98 283.91 246.92 283.7 246.83 283.46 246.77 283.22 246.71 282.98 246.62 282.73 246.56 282.49 246.5 282.25 246.41 282.01 246.35 281.77 246.29 281.53 246.23 281.28 246.17 281.04 246.08 280.8 246.01 280.53 245.96 280.29 245.89 280.05 245.83 279.8 245.77 279.56 245.71 279.32 245.65 279.08 245.53 278.6 245.41 278.08 245.32 277.6 245.2 277.11 245.08 276.63 244.99 276.15 244.87 275.66 244.78 275.18 244.66 274.7 244.44 273.76 244.26 272.85 244.05 271.92 243.96 271.5 243.87 271.04 243.78 270.59 243.69 270.17 243.6 269.74 243.51 269.32 243.39 268.93 243.3 268.53 243.21 268.14 243.12 267.75 243.08 267.57 243.02 267.39 242.99 267.2 242.93 266.99 242.9 266.84 242.84 266.66 242.78 266.48 242.75 266.33 242.69 266.15 242.66 266 242.6 265.81 242.57 265.66 242.51 265.51 242.48 265.36 242.42 265.21 242.39 265.06 242.3 264.82 242.27 264.58 242.21 264.33 242.18 264.06 242.18 263.82 242.18 263.58 242.18 263.34 242.21 263.06 242.27 262.82 242.33 262.58 242.39 262.34 242.48 262.13 242.57 261.89 242.66 261.64 242.78 261.43 242.9 261.22 243.05 261.01 243.21 260.83 243.39 260.65 243.54 260.47 243.75 260.29 243.93 260.13 244.14 259.98 244.35 259.83 244.56 259.71 244.78 259.62 245.02 259.5 245.23 259.41 245.47 259.35 245.71 259.29 245.96 259.23 246.23 259.2 246.47 259.17 246.71 259.17 246.95 259.17 247.22 259.2 247.47 259.23 247.71 259.29 247.95 259.35 248.19 259.41 248.43 259.5 248.64 259.62 248.85 259.71 249.1 259.86 249.31 259.98 249.49 260.13 249.7 260.29 249.88 260.47 250.03 260.65 250.22 260.83 250.37 261.04 250.52 261.22 250.64 261.43 250.76 261.68 250.85 261.89 250.94 262.13 251.03 262.37 251.09 262.55 251.15 262.73 251.21 262.91 251.27 263.13 251.33 263.34 251.39 263.52 251.42 263.73 251.48 263.91 251.54 264.12 251.6 264.33 251.66 264.55 251.73 264.76 251.76 264.97 251.82 265.18 251.88 265.39 251.94 265.6 252.03 266.03 252.12 266.45 252.24 266.87 252.33 267.32 252.42 267.78 252.54 268.2 252.63 268.65 252.72 269.11 252.81 269.56 252.93 270.01 253.12 270.95 253.33 271.86 253.51 272.79 253.63 273.25 253.72 273.73 253.81 274.18 253.93 274.64 254.02 275.09 254.14 275.57 254.23 276.03 254.35 276.48 254.47 276.93 254.5 277.14 254.57 277.39 254.63 277.6 254.69 277.81 254.75 278.05 254.81 278.26 254.87 278.47 254.9 278.69 254.96 278.93 255.02 279.14 255.08 279.35 255.14 279.56 255.2 279.77 255.26 279.99 255.32 280.2 255.38 280.41 255.44 280.62 255.5 280.8 255.56 281.01 255.65 281.22 255.71 281.44 255.77 281.62 255.83 281.83 255.9 282.01 255.96 282.19 256.02 282.4 256.08 282.58 256.14 282.76 256.23 282.95 256.29 283.13 256.35 283.31 256.41 283.49 256.5 283.67 256.56 283.82 256.62 284 256.68 284.15 256.77 284.33 256.83 284.49 256.89 284.64 256.98 284.82 257.04 284.97 257.1 285.12 257.19 285.27 257.25 285.39 257.31 285.54 257.41 285.67 257.47 285.82 257.53 285.94 257.62 286.06 257.68 286.21 257.74 286.33 257.77 286.36 257.83 286.42 257.86 286.51 257.89 286.54 257.92 286.6 257.95 286.66 257.98 286.72 258.01 286.75 258.04 286.81 258.1 286.87 258.13 286.93 258.16 286.96 258.19 287.02 258.22 287.06 258.25 287.08 258.28 287.14 258.34 287.21 258.37 287.24 258.37 287.27 258.4 287.3 258.46 287.36 258.49 287.39 258.49 287.42 258.52 287.42 258.52 287.45 258.55 287.48 258.58 287.48 258.58 287.51 258.62 287.51 258.62 287.54 258.64 287.54 258.67 287.57 258.7 287.6 258.74 287.6 258.76 287.63 258.8 287.63 258.8 287.66 258.83 287.66 258.86 287.66 258.89 287.69 258.92 287.72 258.95 287.72 258.98 287.75 259.01 287.75 259.04 287.75 259.07 287.78 259.1 287.78 259.13 287.81 259.16 287.81 259.19 287.84 259.25 287.84 259.28 287.84 259.31 287.87 259.37 287.87 259.4 287.9 259.43 287.9 259.46 287.9 259.52 287.93 259.55 287.93 259.61 287.96 259.64 287.96 259.7 287.96 259.73 287.99 259.79 287.99 259.85 288.02 259.88 288.02 259.94 288.02 260 288.05 260.04 288.05 260.1 288.05 260.16 288.08 260.19 288.08 260.25 288.08 260.31 288.11 260.43 288.11 260.55 288.14 260.67 288.14 260.79 288.17 260.88 288.17 261.03 288.17 261.15 288.2 261.27 288.2 261.39 288.2 261.55 288.23 261.67 288.23 261.79 288.23 261.94 288.23 262.06 288.23 262.21 288.26 262.33 288.26 262.48 288.26 262.63 288.26 262.75 288.26 262.9 288.26 263.03 288.26 263.18 288.23 263.33 288.23 263.45 288.23 263.75 288.23 264.02 288.23 264.29 288.2 264.57 288.2 264.75 288.2 264.9 288.2 265.08 288.17 265.23 288.17 265.38 288.14 265.53 288.14 265.68 288.14 265.83 288.11 265.99 288.11 266.11 288.08 266.26 288.05 266.41 288.05 266.53 288.02 266.68 287.99 266.8 287.99 266.95 287.96 267.07 287.93 267.19 287.9 267.32 287.87 267.47 287.84 267.56 287.84 267.71 287.81 267.83 287.78 267.92 287.75 268.04 287.72 268.16 287.69 268.28 287.63 268.37 287.6 268.49 287.57 268.62 287.54 268.7 287.51 268.8 287.48 268.92 287.42 269.01 287.39 269.1 287.36 269.22 287.33 269.31 287.27 269.4 287.24 269.49 287.21 269.58 287.14 269.67 287.12 269.76 287.06 269.85 287.02 269.94 286.96 270.04 286.93 270.1 286.9 270.19 286.84 270.28 286.78 270.37 286.75 270.43 286.69 270.52 286.66 270.58 286.6 270.67 286.54 270.76 286.51 270.82 286.45 270.91 286.39 270.97 286.33 271.03 286.3 271.12 286.24 271.18 286.18 271.24 286.12 271.33 286.06 271.39 286 271.49 285.94 271.55 285.88 271.58 285.85 271.67 285.79 271.73 285.69 271.79 285.67 271.85 285.6 271.91 285.54 272 285.45 272.03 285.39 272.12 285.33 272.18 285.27 272.24 285.21 272.3 285.12 272.36 285.06 272.42 284.97 272.48 284.91 272.54 284.85 272.57 284.76 272.63 284.7 272.69 284.61 272.75 284.55 272.81 284.49 272.88 284.4 272.94 284.31 273 284.21 273.03 284.12 273.09 284.06 273.21 283.88 273.24 283.82 273.3 283.73 273.36 283.64 273.42 283.55 273.45 283.43 273.51 283.34 273.57 283.25 273.6 283.16 273.66 283.07 273.72 282.98 273.75 282.88 273.81 282.76 273.87 282.67 273.9 282.58 273.99 282.37 274.05 282.25 274.08 282.16 274.14 282.07 274.17 281.95 274.24 281.83 274.26 281.74 274.32 281.62 274.36 281.5 274.39 281.38 274.45 281.28 274.54 281.04 274.6 280.8 274.69 280.56 274.72 280.44 274.78 280.32 274.81 280.2 274.84 280.07 274.87 279.95 274.93 279.8 274.96 279.68 274.99 279.56 275.05 279.29 275.14 279.02 275.2 278.78 275.26 278.5 275.32 278.2 275.35 278.05 275.38 277.93 275.41 277.81 275.47 277.51 275.5 277.36 275.56 277.08 275.62 276.78 275.65 276.63 275.69 276.33 275.71 276.18 275.78 275.88 275.81 275.73 275.84 275.42 275.9 275.12 275.93 274.79 275.99 274.49 276.02 274.15 276.08 273.85 276.11 273.52 276.14 273.19 276.17 272.85 276.23 272.52 276.26 272.19 276.29 271.86 276.32 271.52 276.35 271.19 276.38 270.83 276.41 270.5 276.44 270.17 276.47 269.8 276.5 269.47 276.53 269.11 276.56 268.75 276.59 268.41 276.62 267.69 276.68 266.96 276.74 266.24 276.83 264.79 276.89 264.06 276.92 263.31 276.98 262.58 277.04 261.83 277.11 261.1 277.13 260.71 277.2 259.98 277.23 259.59 277.26 259.23 277.29 258.87 277.32 258.59 277.38 258.35 277.44 258.11 277.5 257.87 277.59 257.63 277.68 257.42 277.8 257.17 277.92 256.96 278.04 256.75 278.19 256.54 278.34 256.36 278.52 256.18 278.68 256 278.86 255.81 279.07 255.66 279.28 255.51 279.49 255.39 279.7 255.27 279.92 255.15 280.16 255.06 280.4 254.97 280.64 254.91 280.88 254.85 281.12 254.79 281.37 254.76 281.61 254.76 281.85 254.76 282.12 254.76"/><path class="cls-6" d="M265.17,210.49c13.81.88,24.59,8.71,24.05,17.47s-12.21,15.25-26,14.41-24.63-8.7-24.08-17.49S251.33,209.65,265.17,210.49Z"/><polygon class="cls-6" points="262.9 233.03 263.12 233.06 263.3 233.06 263.51 233.09 263.69 233.15 263.9 233.18 264.08 233.24 264.26 233.31 264.48 233.4 264.66 233.46 264.84 233.55 264.99 233.64 265.17 233.76 265.35 233.88 265.5 234 265.65 234.12 265.81 234.24 265.96 234.39 266.08 234.54 266.23 234.69 266.35 234.85 266.47 235 266.56 235.18 266.68 235.33 266.77 235.51 266.86 235.69 266.92 235.87 266.98 236.09 267.07 236.27 267.1 236.45 267.17 236.66 267.19 236.84 267.23 237.05 267.23 237.26 267.25 237.44 267.25 237.66 267.25 238.02 267.23 238.38 267.23 238.77 267.19 239.14 267.19 239.53 267.19 239.89 267.17 240.25 267.13 240.65 267.13 241.01 267.1 241.37 267.07 241.73 267.04 242.1 267.04 242.49 267.01 242.85 266.98 243.22 266.95 243.58 266.92 243.94 266.89 244.3 266.86 244.66 266.83 245.03 266.8 245.39 266.77 245.72 266.74 246.09 266.68 246.45 266.65 246.81 266.62 247.17 266.59 247.54 266.56 247.87 266.47 248.59 266.41 249.29 266.32 249.98 266.23 250.71 266.08 252.1 265.99 252.79 265.93 253.49 265.83 254.18 265.77 254.85 265.68 255.54 265.62 256.24 265.59 256.57 265.56 256.9 265.53 257.26 265.47 257.6 265.44 257.93 265.41 258.29 265.38 258.62 265.35 258.96 265.32 259.29 265.29 259.65 265.29 259.98 265.26 260.32 265.23 260.53 265.2 260.74 265.17 260.92 265.11 261.13 265.05 261.31 264.99 261.49 264.93 261.68 264.84 261.86 264.75 262.04 264.66 262.22 264.57 262.4 264.45 262.55 264.32 262.73 264.2 262.88 264.08 263.04 263.93 263.19 263.78 263.31 263.63 263.46 263.48 263.58 263.33 263.7 263.15 263.82 263 263.91 262.81 264 262.63 264.09 262.45 264.18 262.24 264.24 262.06 264.3 261.88 264.36 261.67 264.39 261.49 264.45 261.27 264.49 261.09 264.49 260.88 264.52 260.67 264.52 260.49 264.49 260.28 264.49 260.1 264.45 259.88 264.43 259.67 264.39 259.49 264.33 259.31 264.27 259.1 264.21 258.92 264.12 258.74 264.06 258.55 263.94 258.4 263.85 258.22 263.76 258.07 263.64 257.89 263.52 257.74 263.4 257.59 263.25 257.47 263.1 257.31 262.94 257.19 262.79 257.07 262.64 256.95 262.49 256.86 262.31 256.74 262.13 256.65 261.95 256.56 261.77 256.5 261.58 256.44 261.4 256.38 261.22 256.32 261.01 256.29 260.83 256.26 260.62 256.23 260.44 256.2 260.23 256.2 260.01 256.2 259.83 256.23 259.62 256.23 259.26 256.26 258.9 256.29 258.53 256.32 258.17 256.41 257.44 256.47 256.72 256.5 256.36 256.53 256.02 256.56 255.66 256.62 255.3 256.68 254.57 256.77 253.88 256.83 253.16 256.92 252.46 256.98 251.76 257.07 251.07 257.22 249.68 257.38 248.29 257.47 247.63 257.53 246.93 257.62 246.24 257.65 245.9 257.68 245.57 257.71 245.24 257.77 244.54 257.8 244.21 257.83 243.85 257.86 243.52 257.89 243.19 257.92 242.85 257.95 242.52 257.98 242.19 257.98 241.85 258.01 241.52 258.04 241.16 258.07 240.83 258.07 240.5 258.1 240.16 258.1 239.83 258.13 239.5 258.13 239.17 258.16 238.83 258.16 238.5 258.16 238.17 258.19 237.84 258.19 237.47 258.19 237.29 258.22 237.08 258.25 236.87 258.28 236.69 258.31 236.48 258.37 236.3 258.43 236.12 258.49 235.9 258.58 235.72 258.64 235.54 258.76 235.36 258.86 235.21 258.98 235.03 259.07 234.88 259.19 234.69 259.34 234.54 259.46 234.39 259.61 234.27 259.76 234.12 259.91 234 260.06 233.88 260.25 233.76 260.4 233.67 260.58 233.58 260.76 233.49 260.94 233.4 261.12 233.31 261.33 233.24 261.51 233.18 261.7 233.15 261.91 233.09 262.09 233.06 262.3 233.06 262.51 233.03 262.69 233.03 262.9 233.03"/><polygon class="cls-6" points="223.9 239.83 224.26 239.86 224.62 239.95 224.96 240.04 225.29 240.13 225.62 240.28 225.92 240.47 226.22 240.65 226.53 240.86 226.77 241.1 227.04 241.34 227.28 241.58 227.53 241.82 227.77 242.04 228.01 242.28 228.25 242.52 228.52 242.73 228.76 242.97 229 243.19 229.25 243.4 229.49 243.64 229.73 243.85 229.97 244.06 230.24 244.27 230.49 244.48 230.73 244.69 230.97 244.91 231.21 245.12 231.48 245.33 231.72 245.54 231.97 245.72 232.21 245.93 232.45 246.15 232.69 246.33 232.96 246.54 233.21 246.72 233.45 246.9 233.69 247.11 233.96 247.29 234.2 247.47 234.44 247.69 234.69 247.87 234.93 248.05 235.2 248.23 235.44 248.41 235.68 248.56 235.92 248.74 236.2 248.93 236.44 249.11 236.68 249.26 236.92 249.44 237.19 249.62 237.44 249.77 237.68 249.92 237.95 250.1 238.19 250.25 238.43 250.41 238.67 250.59 238.95 250.74 239.19 250.89 239.43 251.04 239.67 251.19 239.94 251.34 240.18 251.49 240.43 251.65 240.7 251.76 240.94 251.92 241.18 252.07 241.45 252.19 241.69 252.34 241.94 252.46 242.18 252.61 242.45 252.73 242.69 252.88 242.93 253 243.21 253.13 243.45 253.25 243.69 253.37 243.96 253.52 244.2 253.64 244.44 253.73 244.72 253.85 244.96 253.97 245.2 254.09 245.47 254.21 245.71 254.33 245.96 254.42 246.23 254.54 246.47 254.64 246.74 254.76 246.98 254.85 247.22 254.97 247.5 255.06 247.74 255.15 247.98 255.24 248.25 255.36 248.49 255.45 248.74 255.54 249.01 255.63 249.25 255.72 249.52 255.81 249.76 255.88 250 255.97 250.28 256.06 250.52 256.15 250.79 256.21 251.03 256.3 251.27 256.36 251.54 256.45 251.79 256.51 252.06 256.6 252.3 256.66 252.57 256.72 252.81 256.78 253.09 256.87 253.33 256.93 253.57 256.99 253.84 257.05 254.08 257.11 254.35 257.17 254.6 257.23 254.87 257.26 255.11 257.32 255.38 257.38 255.62 257.42 255.9 257.48 256.14 257.54 256.41 257.57 256.65 257.6 256.92 257.66 257.16 257.69 257.44 257.75 257.68 257.78 257.95 257.81 258.19 257.84 258.46 257.87 258.74 257.9 258.98 257.93 259.25 257.96 259.49 257.99 259.76 258.02 260 258.05 260.28 258.05 260.55 258.08 260.79 258.11 261.06 258.11 261.3 258.14 261.57 258.14 261.85 258.17 262.09 258.17 262.36 258.17 262.63 258.17 262.87 258.2 263.15 258.2 263.42 258.2 263.66 258.2 263.93 258.2 264.2 258.2 264.45 258.2 264.72 258.2 264.99 258.2 265.23 258.17 265.5 258.17 265.77 258.17 266.05 258.14 266.29 258.14 266.56 258.11 266.83 258.11 267.1 258.08 267.35 258.05 267.62 258.05 267.89 258.02 268.16 257.99 268.43 257.96 268.68 257.93 268.95 257.9 269.22 257.87 269.49 257.84 269.76 257.81 270.04 257.78 270.31 257.75 270.55 257.69 270.82 257.66 271.09 257.63 271.37 257.57 271.64 257.54 271.91 257.48 272.18 257.42 272.45 257.38 272.72 257.32 273 257.26 273.27 257.2 273.54 257.17 273.81 257.11 274.08 257.05 274.36 256.99 274.63 256.93 274.9 256.84 275.17 256.78 275.44 256.72 275.71 256.66 275.99 256.57 276.26 256.51 276.53 256.42 276.8 256.36 277.11 256.27 277.35 256.21 277.65 256.12 277.92 256.02 278.19 255.97 278.46 255.88 278.74 255.78 279.04 255.69 279.31 255.6 279.58 255.51 279.85 255.42 280.13 255.33 280.43 255.21 280.7 255.12 280.97 255.03 281.24 254.91 281.52 254.82 281.82 254.7 282.09 254.6 282.36 254.48 282.66 254.39 282.94 254.27 283.21 254.15 283.51 254.03 283.78 253.91 284.05 253.79 284.36 253.67 284.63 253.55 284.9 253.43 285.2 253.31 285.47 253.19 285.78 253.06 286.05 252.91 286.32 252.79 286.62 252.67 286.89 252.52 287.2 252.4 287.47 252.25 287.77 252.1 288.04 251.98 288.34 251.83 288.62 251.68 288.92 251.52 289.19 251.37 289.49 251.22 289.76 251.07 290.07 250.92 290.34 250.77 290.64 250.62 290.94 250.44 291.21 250.28 291.52 250.13 291.79 249.95 292.09 249.8 292.39 249.62 292.67 249.44 292.97 249.29 293.24 249.11 293.54 248.93 293.84 248.74 294.15 248.56 294.45 248.41 294.78 248.26 295.11 248.14 295.44 248.05 295.81 247.96 296.14 247.93 296.5 247.9 296.87 247.93 297.23 247.96 297.56 248.05 297.89 248.14 298.25 248.26 298.56 248.41 298.86 248.59 299.16 248.77 299.43 249.02 299.7 249.26 299.95 249.5 300.16 249.8 300.37 250.07 300.55 250.41 300.7 250.71 300.82 251.04 300.91 251.4 300.97 251.74 301 252.1 301.03 252.46 301 252.82 300.97 253.16 300.91 253.52 300.79 253.85 300.67 254.18 300.52 254.51 300.37 254.82 300.16 255.12 299.95 255.39 299.7 255.66 299.43 255.9 299.16 256.12 298.86 256.33 298.53 256.51 298.22 256.69 297.89 256.9 297.59 257.08 297.26 257.26 296.93 257.48 296.62 257.66 296.29 257.84 295.96 258.02 295.63 258.2 295.32 258.38 294.99 258.56 294.69 258.71 294.36 258.9 294.02 259.08 293.72 259.26 293.39 259.41 293.06 259.59 292.75 259.74 292.42 259.92 292.09 260.07 291.79 260.23 291.46 260.38 291.12 260.56 290.82 260.71 290.49 260.86 290.16 261.01 289.86 261.16 289.52 261.31 289.22 261.43 288.89 261.58 288.56 261.74 288.25 261.89 287.92 262.01 287.59 262.16 287.29 262.28 286.95 262.43 286.62 262.55 286.32 262.67 285.99 262.79 285.69 262.94 285.35 263.06 285.02 263.19 284.72 263.31 284.39 263.43 284.05 263.55 283.75 263.67 283.42 263.76 283.09 263.88 282.79 264 282.45 264.09 282.15 264.21 281.82 264.3 281.49 264.43 281.18 264.52 280.85 264.61 280.52 264.73 280.22 264.82 279.88 264.91 279.58 265 279.25 265.09 278.95 265.18 278.62 265.27 278.28 265.36 277.98 265.42 277.65 265.51 277.32 265.6 277.01 265.66 276.68 265.75 276.38 265.81 276.05 265.9 275.71 265.97 275.41 266.03 275.08 266.09 274.78 266.15 274.45 266.24 274.11 266.3 273.81 266.36 273.48 266.39 273.18 266.45 272.85 266.51 272.54 266.57 272.21 266.6 271.91 266.66 271.58 266.72 271.24 266.75 270.94 266.78 270.61 266.84 270.31 266.87 269.98 266.9 269.67 266.96 269.34 266.99 269.04 267.02 268.7 267.05 268.4 267.08 268.07 267.08 267.77 267.11 267.44 267.14 267.1 267.17 266.8 267.17 266.5 267.2 266.17 267.2 265.83 267.23 265.53 267.23 265.23 267.23 264.9 267.26 264.6 267.26 264.26 267.26 263.96 267.26 263.63 267.26 263.33 267.26 263 267.26 262.69 267.26 262.36 267.23 262.06 267.23 261.76 267.23 261.42 267.2 261.12 267.2 260.79 267.17 260.49 267.17 260.16 267.14 259.85 267.11 259.55 267.08 259.22 267.05 258.92 267.02 258.62 267.02 258.28 266.96 257.98 266.93 257.65 266.9 257.35 266.87 257.04 266.84 256.74 266.78 256.41 266.75 256.11 266.69 255.8 266.66 255.47 266.6 255.17 266.54 254.87 266.51 254.57 266.45 254.23 266.39 253.93 266.33 253.63 266.27 253.33 266.21 253 266.15 252.69 266.09 252.39 266.03 252.09 265.94 251.76 265.88 251.45 265.78 251.15 265.72 250.85 265.63 250.55 265.57 250.25 265.48 249.91 265.39 249.61 265.33 249.31 265.24 249.01 265.15 248.7 265.06 248.4 264.97 248.1 264.88 247.8 264.79 247.5 264.67 247.19 264.58 246.89 264.49 246.59 264.36 246.26 264.27 245.99 264.15 245.68 264.06 245.38 263.94 245.08 263.82 244.78 263.73 244.47 263.61 244.17 263.49 243.87 263.37 243.57 263.25 243.27 263.13 242.96 263 242.66 262.88 242.36 262.76 242.06 262.61 241.78 262.49 241.48 262.34 241.18 262.22 240.88 262.07 240.58 261.95 240.31 261.8 240 261.64 239.7 261.52 239.4 261.37 239.1 261.22 238.82 261.07 238.52 260.92 238.22 260.77 237.95 260.62 237.65 260.47 237.34 260.29 237.07 260.13 236.77 259.98 236.47 259.8 236.2 259.65 235.89 259.47 235.59 259.32 235.32 259.14 235.02 258.96 234.75 258.81 234.44 258.62 234.17 258.44 233.87 258.26 233.57 258.08 233.29 257.9 232.99 257.72 232.72 257.54 232.45 257.32 232.15 257.14 231.88 256.96 231.57 256.75 231.3 256.57 231 256.36 230.73 256.18 230.43 255.97 230.15 255.75 229.88 255.57 229.58 255.36 229.31 255.15 229.03 254.94 228.73 254.73 228.46 254.51 228.19 254.3 227.92 254.09 227.62 253.88 227.34 253.64 227.07 253.43 226.8 253.22 226.5 252.97 226.22 252.76 225.95 252.52 225.68 252.31 225.41 252.07 225.11 251.83 224.84 251.61 224.56 251.37 224.29 251.13 224.02 250.89 223.75 250.65 223.48 250.41 223.2 250.16 222.93 249.89 222.66 249.65 222.39 249.41 222.09 249.17 221.84 248.9 221.57 248.65 221.27 248.38 221.03 248.14 220.76 247.87 220.49 247.63 220.24 247.35 220 247.08 219.82 246.78 219.64 246.48 219.46 246.18 219.34 245.84 219.25 245.48 219.16 245.15 219.13 244.79 219.09 244.42 219.09 244.09 219.16 243.73 219.22 243.37 219.31 243.03 219.43 242.7 219.55 242.37 219.73 242.07 219.91 241.76 220.15 241.46 220.36 241.22 220.64 240.95 220.91 240.74 221.21 240.53 221.51 240.34 221.81 240.19 222.15 240.07 222.51 239.98 222.84 239.89 223.2 239.86 223.57 239.83 223.9 239.83"/><path class="cls-10" d="M226.26,96.89c5.25-1.6,10.21-.66,11,2.06s-2.78,6.25-8,7.85-10.22.67-11-2S221,98.49,226.26,96.89Z"/><path class="cls-10" d="M405.21,116.77c3.54,4.2,4.65,9.1,2.48,10.94s-6.86-.09-10.4-4.29-4.62-9.13-2.44-11S401.67,112.54,405.21,116.77Z"/><path class="cls-12" d="M177.52,111.73a51.33,51.33,0,1,1-43.6,58A51.32,51.32,0,0,1,177.52,111.73Z"/><path d="M184.73,218.41a55.86,55.86,0,0,1-7.85-111.17h0a55.86,55.86,0,1,1,7.85,111.17Zm.14-102.68a47.64,47.64,0,0,0-6.71.48h0a46.51,46.51,0,1,0,6.71-.48Zm-7.35-4h0Z"/><path class="cls-12" d="M358.44,126.74a51.35,51.35,0,1,1-43.57,58.07A51.36,51.36,0,0,1,358.44,126.74Z"/><path d="M365.58,233.46a55.88,55.88,0,0,1-7.78-111.2h0a55.87,55.87,0,1,1,7.78,111.2Zm-6.5-102.23A46.81,46.81,0,1,0,412,171a46.46,46.46,0,0,0-52.94-39.75Z"/><path class="cls-6" d="M174.89,131a32.17,32.17,0,1,1-27.31,36.38A32.15,32.15,0,0,1,174.89,131Z"/><path class="cls-6" d="M356.51,146a32.93,32.93,0,1,1-28,37.25A33,33,0,0,1,356.51,146Z"/><path class="cls-12" d="M171.57,146.5a9,9,0,1,1-7.64,10.21A9.06,9.06,0,0,1,171.57,146.5Z"/><path class="cls-12" d="M353.73,161.22a9.24,9.24,0,1,1-7.83,10.45A9.24,9.24,0,0,1,353.73,161.22Z"/><path class="cls-12" d="M187.55,164c6.23-3.33,12.63-1.79,14.32,3.47s-2,12.21-8.21,15.56-12.63,1.78-14.33-3.47S181.33,167.38,187.55,164Z"/><path class="cls-12" d="M369.47,179.8c6.22-3.36,12.63-1.82,14.32,3.44s-2,12.21-8.22,15.56-12.63,1.78-14.32-3.44S363.24,183.12,369.47,179.8Z"/></g></g></svg>