<svg xmlns="http://www.w3.org/2000/svg" xmlns:xlink="http://www.w3.org/1999/xlink" width="600" height="600" viewBox="0 0 600 600"><defs><style>.cls-1{fill:none;clip-rule:evenodd;}.cls-2{isolation:isolate;}.cls-3{fill:#d6c295;}.cls-10,.cls-11,.cls-3,.cls-5,.cls-6,.cls-9{fill-rule:evenodd;}.cls-4,.cls-5{fill:#61e0ee;}.cls-7{clip-path:url(#clip-path);}.cls-8{opacity:0.5;mix-blend-mode:multiply;}.cls-9{fill:#4fcbe0;}.cls-10{fill:#b7f8ff;}.cls-11{fill:#ededed;}</style><clipPath id="clip-path"><path class="cls-1" d="M179.76,497.56s-22.91-45-18.6-83.62c13.55-120.9-22-144.6-8.11-218.34,4.83-25.61,13.94-54.75,29.5-76,34.18-46.58,99.87-70.79,157-59.86,22.88,4.41,43.54,14.31,64,25.16,71.13,37.8,85.89,117.53,76.66,184.74-4.11,29.78-29.69,76.14-25.92,106,7.78,62.2,5.62,95.86-13.83,136-16.53,34.21-80.94,60-151.37,52.65C277.08,563,205.28,550.46,179.76,497.56Z"/></clipPath></defs><title>1</title><g class="cls-2"><g id="Слой_1" data-name="Слой 1"><path class="cls-3" d="M124.21,332.3S168.06,321,188,339.62s8.33,39.11-11.15,31.72-38.44-12.7-53.26-4.95S96.5,339.14,124.21,332.3Z"/><path d="M184.73,377.44a27,27,0,0,1-9.48-1.83c-17.86-6.8-36.22-12.14-49.53-5.18a13.24,13.24,0,0,1-14.57-1.23c-6.23-4.71-9.34-14-7.56-22.7,1.9-9.24,9-16,19.51-18.62,2.18-.56,46.56-11.59,68,8.41,13.85,12.88,13.58,25.81,9.13,33C197,374.59,191.29,377.44,184.73,377.44Zm-44.38-19.39c12.16,0,25.31,4.15,38.14,9,6.18,2.33,11.56,1.33,14-2.64,2.83-4.55,1.57-13-7.6-21.49-17.9-16.66-59.16-6.35-59.57-6.24h0c-9.06,2.24-12,7.55-12.79,11.62-1.16,5.67,1.18,11.37,4.12,13.59a4.18,4.18,0,0,0,4.86.42A40.1,40.1,0,0,1,140.35,358.05ZM124.21,332.3h0Z"/><path class="cls-4" d="M300.62,76.71a4.56,4.56,0,0,1-4.5-3.9c-3.88-26.33-10.58-31.23-13.27-32.12-3.94-1.28-8.06,2.82-8.1,2.86a4.56,4.56,0,0,1-6.55-6.34c2.94-3.06,9.9-7.61,17.39-5.21,9.7,3.1,16.09,16,19.54,39.48a4.56,4.56,0,0,1-3.84,5.18A5.16,5.16,0,0,1,300.62,76.71Z"/><path class="cls-4" d="M317.4,74.06l-.58,0a4.55,4.55,0,0,1-3.94-5.1c3.16-24.89,9.39-38.54,19-41.72,7-2.31,13.44,1.86,16.15,4.69a4.56,4.56,0,0,1-6.56,6.33c-.11-.12-3.53-3.47-6.77-2.35-2.08.7-9.13,5.25-12.81,34.2A4.57,4.57,0,0,1,317.4,74.06Z"/><path class="cls-4" d="M308.89,68h-.33a4.56,4.56,0,0,1-4.22-4.87c2.38-33.19-3.75-40.69-6.5-42.38s-5.86.22-6,.3a4.6,4.6,0,0,1-6.26-1.49A4.53,4.53,0,0,1,287,13.34c2.9-1.85,9.43-4,15.45-.44,9.44,5.63,13,22.27,11,50.89A4.55,4.55,0,0,1,308.89,68Z"/><path class="cls-3" d="M218,562s2.49-45.19,26.25-58.65,39.8,3.89,26.86,20.24-23.67,32.81-20.78,49.28S216.16,590.45,218,562Z"/><path d="M237.43,589a25.12,25.12,0,0,1-12.09-3.12c-8.26-4.6-12.59-13.43-11.91-24.23.12-2.21,3-47.87,28.56-62.34,16.47-9.32,28.72-5.14,34.19,1.26,6,7,5.37,17.08-1.52,25.77-11.85,14.94-22.47,30.82-19.86,45.67a13.19,13.19,0,0,1-5.53,13.48A20.38,20.38,0,0,1,237.43,589Zm22.88-86c-3.84,0-8.54,1.22-13.84,4.21-21.34,12.09-23.92,54.5-23.94,54.93v0c-.6,9.31,3.61,13.68,7.24,15.7,5.07,2.83,11.21,2.29,14.21.16a4.13,4.13,0,0,0,1.84-4.48c-3.22-18.4,8.52-36.31,21.7-52.91,4.11-5.2,4.78-10.63,1.74-14.19C267.46,504.43,264.37,503.06,260.31,503.06ZM218,562h0Z"/><path class="cls-3" d="M422.41,567.2s-23.92-38.43-12.19-63.08,34.82-19.65,33.61,1.13-.55,40.47,11.3,52.29S437.26,591.57,422.41,567.2Z"/><path d="M439.77,582.72c-8.45,0-16.09-4.68-21.25-13.13-1.17-1.9-25-40.93-12.41-67.43,8.15-17.08,20.57-20.69,28.73-18.59,8.87,2.28,14.18,10.89,13.54,21.94-1.12,19.07-.68,38.18,10,48.8a13.25,13.25,0,0,1,3.2,14.26c-2.62,7.35-10.59,13.12-19.39,14C441.36,582.68,440.56,582.72,439.77,582.72Zm-9.31-90.58c-5,0-11.42,4.08-16.13,13.94-10.53,22.14,11.72,58.35,11.95,58.71,0,0,0,0,0,0,4.85,8,10.81,9.15,14.93,8.7,5.77-.59,10.49-4.54,11.73-8a4.15,4.15,0,0,0-1.06-4.75C438.71,547.6,438,526.18,439.28,505c.38-6.6-2.19-11.42-6.71-12.59A8.53,8.53,0,0,0,430.46,492.14Z"/><path class="cls-5" d="M456.8,176.4c.82-5,11-12.61,15.28-14.34,51.69-21.06,33.58,38.19,3.5,35.85"/><path class="cls-6" d="M462.79,177.49v0Zm28.53-26h.88l.24,0h.21l.25,0h.21l.21,0h.21l.25,0,.21,0h.21l.22,0,.21,0,.21,0,.21,0,.22,0,.21,0,.21.06.21,0,.22,0,.21,0,.21.06.22,0,.18.06.21.06.21,0,.19.06.21.06.21,0,.18.07.22.06.18.06.21.06.18.09.22.06.18.06.18.06.21.09.19.06.18.09.18.06.18.1.18.09.19.06.18.09.21.09.18.09.16.09.18.09.18.09.15.1.22.12.15.09.15.09.18.12.18.09.16.12.18.1.15.12.18.12.15.09.16.12.15.12.15.12.15.13.18.12.16.12.12.12.15.15.15.12.15.13.12.15.16.12.15.12.12.15.12.12.15.16.12.15.16.15.12.12.12.15.12.15.12.16.12.15.13.15.12.15.09.12.12.19.12.15.09.15.12.15.1.15.09.16.12.18.09.15.09.15.09.15.09.19.09.15.1.18.09.15.09.18.09.16.06.15.09.18.06.18.09.15.06.19.09.18.07.15.06.18.06.16.06.18.06.18.06.15.06.18.06.19.06.15.06.18,0,.18.06.19.06.18,0,.15,0,.18.07.18,0,.16.06.18,0,.18,0,.18,0,.19,0,.15,0,.18,0,.18,0,.18,0,.19,0,.18,0,.18v.18l0,.16,0,.18v.18l0,.18v.37l0,.18v.33l0,.19v1.79l0,.18v.34l0,.21v.33l0,.18,0,.19v.15l0,.21v.15l0,.19,0,.18,0,.18v.18l0,.15,0,.22,0,.15,0,.18,0,.18,0,.19,0,.18,0,.15,0,.18,0,.18-.07.19,0,.15,0,.21-.06.15,0,.19,0,.18-.06.18,0,.18-.06.15,0,.19-.06.18,0,.15-.06.21,0,.16-.06.18-.06.15-.06.18,0,.18-.07.16-.06.21-.06.15-.06.18-.06.16-.06.18-.06.18-.06.18-.06.15-.06.19-.06.18-.06.15-.06.18-.1.19-.06.18-.06.15-.09.18-.06.15-.06.19-.09.15-.06.18-.09.15-.06.18-.1.19-.06.18-.09.15-.09.18-.06.16-.09.18-.09.15-.06.15-.09.18-.09.19-.1.15-.09.18-.09.15-.06.18-.09.16-.12.18-.06.15-.09.15-.09.19-.13.15-.09.18-.09.15-.09.18-.09.16-.09.15-.12.15-.09.18-.1.15-.12.16-.09.18-.09.15-.12.15-.09.18-.12.16-.09.15-.13.15-.12.18-.09.15-.12.16-.09.15-.12.15-.12.15-.13.18-.09.13-.12.18-.12.15-.09.15-.15.15-.09.16-.13.15-.12.15-.12.15-.12.15-.12.16-.12.15-.12.15-.13.15-.15.15-.12.12-.12.16-.12.15-.12.15-.16.15-.12.15-.12.13-.12.15-.15.15-.12.15-.16.12-.12.15-.12.13-.15.15-.15.15-.12.12-.16.15-.12.13-.15.15-.15.15-.12.12-.16.15-.15.12-.12.13-.15.15-.15.12-.16.15-.15.12-.15.12-.12.16-.15.12-.18.12-.13.12-.15.12-.15.15-.18.13-.15.12-.16.12-.15.12-.15.12-.15.12-.18.12-.16.13-.15.12-.15.12-.18.12-.15.12-.16.12-.18.09-.15.13-.15.12-.18.12-.19.12-.15.09-.15.12-.18.09-.19.13-.15.12-.18.09-.15.09-.18.12-.19.09-.18.12-.18.1-.15.09-.19.12-.18.09-.18.09-.18.09-.15.09-.22.12-.15.1-.18.09-.18.09-.22.09-.15.09-.18.09-.21.09-.19.06-.18.09-.18.1-.18.09-.18.06-.19.09-.21.09-.18.06-.18.09-.22.06-.18.09-.18.06-.21.07-.19.09-.21.06-.18.06-.21.09-.19.06-.18.06-.21.06-.21.06-.19.06-.21.06-.21.06L485,203l-.22,0-.21.06-.18.06-.21.06-.22,0-.18.06-.24,0-.18.06-.22,0-.21.06-.21,0-.22,0-.21.06-.18,0-.21,0-.25,0-.21,0-.18,0-.21,0-.22,0-.21,0-.21,0h-.21l-.22,0-.24,0h-.21l-.22,0h-.21l-.21,0h-.46l-.21,0h-1.76l-.21,0h-.46l-.21,0h-.25l-.18,0-.33,0-.37-.06-.3-.06-.34-.1-.33-.12-.3-.12-.31-.15-.3-.15-.31-.19-.27-.18-.27-.21-.25-.24-.24-.22-.24-.27-.21-.24-.22-.31-.18-.27-.15-.3-.15-.31-.15-.3-.1-.34-.12-.3-.06-.33-.06-.34,0-.36,0-.34v-.67l0-.33.06-.33.09-.34.09-.33.09-.34.13-.3.15-.3.15-.31.18-.3.22-.27.21-.28.21-.24.24-.24.25-.25.27-.21.27-.18.28-.22.3-.15.31-.15.33-.12.3-.12.34-.09.33-.09.34-.07.33,0,.33,0h.7l.16,0h.36l.12,0H478l.12,0h.36l.13,0h.24l.12,0h.15l.12,0h.12l.1,0h.15l.12,0h.12l.12,0,.12,0h.13l.12,0,.12,0h.12l.12,0,.12,0,.12,0,.1,0,.15,0,.12,0,.09,0,.12,0,.12,0,.13,0,.12,0,.12,0,.12,0,.12,0,.12-.07.12,0,.13,0,.12-.06.09,0,.15,0,.09-.06.12,0,.12,0,.13-.06.12,0,.12-.06.09,0,.12-.06.12,0,.13-.06.12-.06.09-.07.12,0,.12-.06.12-.06.12-.06.09,0L485,190l.12-.06.09-.06.15-.06.09-.06.12-.06.13-.06.09-.06.12-.07.12-.06.09-.06.12-.06.12-.06.09-.06.13-.09.12-.06.09-.06.12-.06.12-.09.09-.06.12-.07.13-.09.09-.06.12-.06.09-.09.21-.15.25-.15.09-.06.09-.09.12-.1.12-.06.09-.09.09-.06.13-.09.21-.18.09-.06.12-.09.09-.1.09-.09.12-.09.1-.06.09-.09.12-.09.09-.09.09-.09.12-.09.09-.1.09-.09.1-.09.12-.09.09-.09.09-.09.12-.09.09-.09.09-.09.09-.1.1-.12.09-.09.09-.09.09-.09.21-.21.09-.09.09-.1.1-.09.09-.12.09-.09.09-.09.09-.12.09-.09.06-.09.21-.22.07-.09.09-.12.09-.09.09-.12.06-.09.09-.12.09-.1.09-.12.15-.21.1-.09.15-.21.09-.13.15-.21.09-.09.06-.12.09-.12.06-.09.1-.13.09-.12.06-.09.06-.12.09-.12.06-.09.09-.12.06-.13.06-.09.09-.12.07-.12.06-.09.09-.12.06-.12.06-.13.06-.12.06-.09.06-.12.09-.12.06-.09.06-.12.06-.13.07-.12L496,179l.06-.12.06-.12.06-.12.06-.12.06-.1.06-.12.06-.12,0-.12.12-.21.12-.25,0-.12.06-.09.06-.12.06-.12,0-.09L497,177l0-.13.06-.12,0-.12.06-.12.06-.09,0-.12,0-.12.06-.13,0-.09.06-.12,0-.12,0-.09.06-.12,0-.12,0-.1,0-.12.06-.12,0-.09.06-.24.06-.22.09-.24v-.09l0-.09,0-.12,0-.09,0-.13,0-.12,0-.09,0-.12,0-.12,0-.09v-.09l0-.12,0-.1v-.12l0-.09,0-.12v-.09l0-.09,0-.12v-.1l0-.12v-.09l0-.09v-.21l0-.09v-.09l0-.13v-.18l0-.09v-.36l0-.09v-1.34l0-.06v-.34l0-.06v-.15l0-.09v-.12l0-.09v-.12l0-.1v-.06l0-.06v-.09l0-.06v-.06l0-.06v-.06l0-.06v-.06l0-.06,0-.06v-.07l0-.06,0-.09v0l0-.06v-.06l0,0,0-.09,0,0v-.06l0-.06,0,0v-.06l0-.06,0,0,0-.07,0-.06v0l0-.06,0,0,0-.06v0l0,0,0-.06,0,0,0,0,0-.06,0-.06,0,0v0l-.06-.06,0-.06,0,0,0,0,0-.06,0,0,0,0,0,0-.06-.06,0,0,0,0v0l-.06,0,0,0,0,0,0,0,0,0-.06-.06,0,0,0,0,0,0-.06,0,0,0,0,0-.07,0,0,0,0,0-.06,0,0,0-.06-.06h0l-.06,0-.06-.06h0l-.06-.06-.06,0h0l-.06-.06h-.06l-.06,0-.07-.06-.06,0h-.06l-.06,0-.06,0-.06,0-.09,0,0,0-.09,0-.09,0-.06,0-.06,0-.1,0-.06,0H495l-.06,0-.09,0-.09,0-.09,0-.09,0h-.06l-.09,0-.1,0h-.09l-.09,0-.12,0-.09,0h-.09l-.09,0h-.12l-.1,0-.12,0h-.09l-.12,0h-.09l-.15,0h-.09l-.13,0h-.24l-.12,0H492l-.12,0H490l-.15,0h-.34l-.15,0H489l-.18,0h-.19l-.15,0-.18,0h-.15l-.22,0-.15,0h-.18l-.18,0-.18,0-.19,0-.21,0-.18,0-.18,0-.19,0-.21,0-.18,0-.21.06-.19,0-.21,0-.21.07-.18,0-.22,0-.21.06-.21,0-.21.06-.22.06-.21,0-.21.06-.25.06-.21.06-.21.06-.24.06-.22.06-.24.06-.21.07-.25.06-.24.06-.21.09-.24.06-.25.06-.24.09-.24.06-.25.09-.24.09-.27.06-.25.1L479,166l-.27.09-.25.09-.27.09-.24.06-.25.09-.27.12-.27.1-.28.09-.27.09-.24.12-.28.09-.27.12-.3.09-.28.12-.27.1-.27.12-.28.12h-.06l-.06,0,0,0-.06,0h-.06l-.06.06-.06,0-.06,0-.09,0-.1.06-.09,0-.09,0-.06.06-.12.06-.09,0-.09.07-.09.06-.13.06-.09.06-.12.06-.09.06-.12.06-.12.09-.09.06-.13.06-.12.09L472,169l-.12.1-.12.06-.12.09-.12.06-.13.09-.12.09-.15.09-.12.09-.12.09-.12.07-.16.12-.12.06-.12.12-.15.09-.12.09-.15.09-.13.09-.15.13-.12.09-.12.09-.15.09-.12.12-.16.09-.12.12-.15.09-.12.1-.15.12-.12.12-.13.09-.15.12-.12.09-.15.12-.12.09-.12.13-.16.12-.12.12-.12.09-.12.12-.12.09-.15.12-.13.13-.12.12-.12.09-.12.12-.12.12-.12.09-.13.12-.12.13-.12.12-.12.09-.09.12-.12.09-.12.12-.09.12-.13.1-.09.12-.12.12-.09.09-.09.12-.09.09-.09.09-.13.13-.09.12-.06.09-.09.09-.09.12-.09.09-.06.09-.09.09-.06.1-.06.09-.1.09-.06.09-.06.09-.06.09-.06.06,0,.09-.06.06-.06.09,0,.07L463,177l0,.06,0,.06,0,.06,0,.06,0,.06v0h0v0l0,0v.06l0,0,0,.25-.1.33-.12.33-.12.31-.12.33-.18.31-.15.27-.22.3-.18.28-.24.24-.22.24-.27.25-.24.21-.28.21-.27.18-.3.19-.31.15-.3.12-.34.12-.33.12-.3.06-.34.09-.36,0-.34,0h-.66l-.34,0-.33-.07-.34-.06-.33-.09-.34-.09-.3-.12-.33-.15-.31-.15-.27-.19-.31-.18-.27-.21-.24-.21-.24-.25-.25-.24-.21-.27-.21-.28-.19-.27-.18-.3-.15-.31-.12-.3-.12-.31-.12-.33-.07-.33-.09-.34,0-.33,0-.34V176l0-.33.06-.33v-.13l0-.12,0-.12,0-.15,0-.12,0-.12,0-.13,0-.15,0-.12.06-.12,0-.12,0-.15.06-.13,0-.12,0-.09.06-.12,0-.15.06-.09,0-.12.06-.13,0-.09.06-.15.07-.09,0-.12.06-.12,0-.09.06-.1.06-.12.06-.12.06-.12.09-.18.12-.22.09-.18.13-.21.12-.18.12-.22.12-.18.12-.18.12-.21.12-.18.16-.19.12-.18.12-.18.15-.18.12-.19.15-.18.16-.18.12-.18.15-.16.12-.18.15-.18.16-.15.15-.18.15-.19.12-.15.15-.18.15-.15.16-.15.15-.19.15-.15.18-.18.15-.15.16-.15.15-.16.15-.18.18-.15.15-.15.16-.15.18-.16.15-.15.18-.15.16-.15.18-.15.15-.16.18-.15.34-.3.15-.15.18-.16.15-.15.18-.12.19-.15.15-.15.18-.16.15-.12.19-.15.18-.12.15-.15.18-.12.18-.16.19-.12.15-.15.18-.12.15-.12.19-.15.18-.13.18-.12.15-.15.18-.12.16-.12.18-.12.18-.13.15-.12.18-.12.19-.12.15-.12.18-.12.15-.09.19-.13.18-.12.15-.09.18-.12L465,159l.19-.09.3-.22.18-.12.15-.09.19-.09.15-.12.15-.09.18-.09.15-.09.16-.1.18-.09.15-.09.15-.09.15-.09.31-.15.18-.09.15-.09.15-.09.16-.07.15-.09.15-.06.18-.09.12-.06.19-.06.15-.09.18-.06.12-.06.15-.06.34-.16.33-.12.31-.12.33-.12.3-.12.31-.12.33-.12.31-.13.3-.12.3-.12.31-.09.3-.12.31-.12.33-.09.27-.13.31-.09.3-.09.3-.12.31-.09.27-.09.31-.09.3-.09.27-.1.31-.09.3-.09.27-.09.28-.09.3-.06.28-.09.27-.09.3-.06.28-.1.27-.06L480,153l.28-.09.27-.06.27-.06.28-.06.27-.06.27-.06.28-.09.27,0,.27-.06.25-.07.27-.06.27-.06.28,0,.24-.06.24-.06.28,0,.27,0,.24-.06.28,0,.24-.06.24,0,.25,0,.27,0,.24,0,.25,0,.24,0,.27,0,.25,0,.24,0h.24l.24,0,.25,0h.24l.24,0H489l.21,0h.24l.25,0h1.64Z"/><path class="cls-5" d="M176.87,137.48c-4.74,1.79-9.85-1.22-13.46-4-44.06-34.22,16.13-47.95,29.17-20.73"/><polygon class="cls-6" points="166.99 92.23 167.21 92.23 167.39 92.23 167.57 92.23 167.75 92.23 167.94 92.26 168.15 92.26 168.33 92.26 168.51 92.26 168.7 92.3 168.91 92.3 169.09 92.3 169.27 92.33 169.46 92.33 169.67 92.33 169.85 92.36 170.03 92.36 170.25 92.39 170.43 92.42 170.61 92.42 170.82 92.45 171 92.45 171.19 92.48 171.4 92.51 171.58 92.54 171.76 92.54 171.95 92.57 172.16 92.6 172.34 92.63 172.52 92.66 172.71 92.69 172.92 92.72 173.1 92.75 173.28 92.78 173.5 92.81 173.68 92.84 173.86 92.87 174.07 92.9 174.26 92.93 174.44 92.96 174.65 93.02 174.83 93.05 175.02 93.08 175.2 93.15 175.38 93.18 175.59 93.21 175.78 93.27 175.96 93.3 176.14 93.36 176.35 93.39 176.53 93.45 176.72 93.51 176.93 93.54 177.11 93.6 177.29 93.63 177.48 93.69 177.69 93.75 177.87 93.81 178.05 93.88 178.24 93.91 178.42 93.97 178.6 94.03 178.81 94.09 179 94.15 179.18 94.21 179.36 94.27 179.57 94.33 179.72 94.39 179.94 94.48 180.12 94.54 180.3 94.6 180.49 94.67 180.67 94.76 180.85 94.82 181.03 94.88 181.24 94.97 181.43 95.03 181.61 95.12 181.79 95.18 181.97 95.27 182.16 95.33 182.34 95.42 182.52 95.48 182.7 95.58 182.88 95.67 183.07 95.73 183.25 95.82 183.43 95.91 183.61 96 183.8 96.09 183.98 96.18 184.16 96.28 184.31 96.37 184.5 96.46 184.68 96.55 184.86 96.64 185.04 96.73 185.22 96.82 185.41 96.91 185.56 97.03 185.74 97.13 185.92 97.22 186.08 97.31 186.29 97.43 186.44 97.55 186.62 97.64 186.81 97.73 186.96 97.86 187.14 97.98 187.32 98.07 187.47 98.19 187.66 98.28 187.81 98.4 187.99 98.52 188.14 98.64 188.32 98.77 188.51 98.89 188.66 99.01 188.84 99.1 188.99 99.22 189.15 99.38 189.33 99.47 189.48 99.62 189.66 99.74 189.81 99.86 189.97 99.98 190.12 100.13 190.3 100.25 190.45 100.38 190.6 100.53 190.75 100.65 190.91 100.8 191.09 100.92 191.24 101.08 191.39 101.2 191.54 101.35 191.7 101.47 191.85 101.62 192 101.78 192.15 101.93 192.3 102.08 192.46 102.2 192.61 102.35 192.73 102.5 192.88 102.66 193.03 102.81 193.19 102.96 193.31 103.14 193.46 103.29 193.61 103.45 193.73 103.6 193.88 103.75 194.04 103.93 194.16 104.08 194.28 104.24 194.43 104.42 194.58 104.6 194.71 104.75 194.83 104.9 194.95 105.09 195.1 105.27 195.22 105.45 195.34 105.6 195.46 105.79 195.62 105.97 195.74 106.15 195.86 106.3 195.98 106.48 196.1 106.67 196.22 106.85 196.31 107.03 196.44 107.21 196.56 107.4 196.68 107.61 196.8 107.79 196.89 107.97 197.01 108.16 197.14 108.37 197.23 108.55 197.35 108.73 197.44 108.94 197.56 109.13 197.65 109.34 197.74 109.52 197.87 109.73 197.96 109.92 198.02 110.1 198.17 110.4 198.29 110.71 198.38 111.01 198.47 111.35 198.53 111.65 198.59 111.98 198.62 112.32 198.66 112.62 198.62 112.96 198.62 113.29 198.59 113.63 198.53 113.93 198.44 114.26 198.35 114.57 198.26 114.9 198.14 115.2 197.99 115.51 197.83 115.78 197.65 116.06 197.47 116.33 197.26 116.6 197.04 116.85 196.83 117.09 196.59 117.3 196.35 117.51 196.07 117.73 195.8 117.91 195.53 118.06 195.22 118.21 194.92 118.36 194.61 118.46 194.31 118.58 193.98 118.67 193.67 118.73 193.34 118.79 193 118.82 192.67 118.82 192.37 118.82 192.03 118.79 191.7 118.76 191.36 118.7 191.06 118.64 190.72 118.55 190.42 118.42 190.12 118.3 189.81 118.18 189.54 118 189.24 117.85 188.99 117.67 188.72 117.45 188.48 117.24 188.23 117 188.02 116.78 187.81 116.51 187.59 116.27 187.41 116 187.26 115.69 187.11 115.42 187.02 115.27 186.96 115.14 186.9 115.02 186.87 114.9 186.81 114.81 186.74 114.69 186.68 114.57 186.62 114.47 186.56 114.35 186.47 114.23 186.41 114.14 186.35 114.02 186.29 113.93 186.23 113.81 186.17 113.72 186.11 113.59 186.01 113.47 185.95 113.38 185.89 113.29 185.83 113.17 185.74 113.08 185.68 112.99 185.62 112.86 185.53 112.77 185.47 112.68 185.38 112.56 185.32 112.47 185.22 112.38 185.16 112.29 185.07 112.17 185.01 112.08 184.92 111.98 184.83 111.89 184.77 111.8 184.68 111.71 184.59 111.62 184.53 111.53 184.44 111.44 184.34 111.35 184.28 111.25 184.19 111.16 184.1 111.07 184.01 110.98 183.92 110.89 183.83 110.8 183.77 110.71 183.68 110.62 183.58 110.53 183.49 110.43 183.4 110.37 183.31 110.28 183.22 110.19 183.13 110.13 183.04 110.04 182.95 109.95 182.82 109.86 182.73 109.8 182.64 109.7 182.55 109.61 182.46 109.55 182.34 109.46 182.25 109.4 182.16 109.31 182.06 109.25 181.97 109.16 181.85 109.07 181.76 109.01 181.64 108.92 181.55 108.85 181.46 108.79 181.34 108.7 181.24 108.64 181.12 108.55 181.03 108.49 180.91 108.43 180.82 108.34 180.7 108.28 180.61 108.22 180.51 108.16 180.39 108.06 180.27 108 180.15 107.94 180.06 107.88 179.94 107.82 179.85 107.73 179.72 107.67 179.6 107.61 179.48 107.55 179.36 107.49 179.27 107.43 179.15 107.37 179.03 107.31 178.94 107.24 178.81 107.18 178.69 107.12 178.57 107.06 178.45 107 178.33 106.94 178.21 106.88 178.09 106.85 177.96 106.79 177.84 106.73 177.72 106.67 177.63 106.61 177.51 106.58 177.35 106.52 177.26 106.45 177.11 106.39 176.99 106.36 176.87 106.3 176.75 106.24 176.63 106.21 176.5 106.15 176.38 106.12 176.26 106.06 176.14 106.03 175.99 105.97 175.9 105.94 175.75 105.88 175.62 105.85 175.5 105.79 175.38 105.75 175.23 105.72 175.11 105.66 174.99 105.63 174.86 105.6 174.71 105.54 174.59 105.51 174.47 105.48 174.35 105.45 174.23 105.39 174.07 105.36 173.95 105.33 173.83 105.3 173.68 105.27 173.56 105.24 173.44 105.21 173.28 105.18 173.16 105.15 173.04 105.12 172.89 105.09 172.77 105.06 172.65 105.03 172.49 105 172.37 104.97 172.22 104.94 172.1 104.9 171.98 104.87 171.82 104.84 171.7 104.84 171.58 104.81 171.43 104.78 171.31 104.75 171.16 104.75 171.03 104.72 170.91 104.69 170.76 104.69 170.64 104.66 170.49 104.63 170.37 104.63 170.25 104.6 170.09 104.6 169.97 104.57 169.85 104.57 169.7 104.54 169.58 104.54 169.46 104.51 169.3 104.51 169.18 104.48 169.03 104.48 168.91 104.48 168.79 104.45 168.63 104.45 168.51 104.45 168.36 104.42 168.24 104.42 168.12 104.42 168 104.42 167.84 104.42 167.72 104.39 167.57 104.39 167.45 104.39 167.33 104.39 167.18 104.39 167.06 104.39 166.93 104.39 166.78 104.39 166.66 104.39 166.54 104.39 166.39 104.39 166.26 104.39 166.14 104.39 166.02 104.39 165.87 104.39 165.75 104.42 165.63 104.42 165.5 104.42 165.38 104.42 165.23 104.42 165.11 104.45 164.99 104.45 164.87 104.45 164.75 104.45 164.59 104.48 164.5 104.48 164.38 104.48 164.23 104.51 164.11 104.51 163.99 104.54 163.87 104.54 163.74 104.57 163.62 104.57 163.5 104.6 163.38 104.6 163.26 104.63 163.13 104.63 163.01 104.66 162.89 104.66 162.77 104.69 162.65 104.72 162.53 104.72 162.41 104.75 162.28 104.78 162.19 104.78 162.07 104.81 161.95 104.84 161.83 104.84 161.71 104.87 161.59 104.9 161.5 104.94 161.37 104.97 161.28 104.97 161.16 105 161.04 105.03 160.92 105.06 160.83 105.09 160.74 105.12 160.61 105.15 160.49 105.18 160.4 105.21 160.28 105.24 160.19 105.27 160.07 105.3 159.94 105.33 159.85 105.36 159.76 105.39 159.64 105.42 159.55 105.45 159.46 105.48 159.37 105.51 159.25 105.57 159.16 105.6 159.06 105.63 158.97 105.66 158.88 105.69 158.76 105.72 158.67 105.79 158.58 105.82 158.49 105.85 158.4 105.88 158.3 105.94 158.21 105.97 158.12 106 158.03 106.03 157.94 106.09 157.88 106.12 157.79 106.15 157.7 106.21 157.61 106.24 157.51 106.27 157.42 106.33 157.36 106.36 157.27 106.39 157.21 106.45 157.12 106.48 157.03 106.55 156.97 106.58 156.91 106.61 156.82 106.67 156.72 106.7 156.66 106.76 156.6 106.79 156.54 106.85 156.45 106.88 156.39 106.94 156.33 106.97 156.27 107 156.18 107.06 156.12 107.09 156.06 107.15 156 107.18 155.93 107.24 155.87 107.27 155.81 107.33 155.75 107.37 155.69 107.43 155.63 107.46 155.57 107.52 155.51 107.55 155.48 107.61 155.42 107.64 155.36 107.7 155.33 107.73 155.27 107.79 155.21 107.82 155.18 107.85 155.11 107.91 155.05 107.97 155.02 108 154.96 108.06 154.93 108.09 154.9 108.13 154.84 108.19 154.81 108.22 154.75 108.28 154.72 108.34 154.69 108.37 154.66 108.4 154.6 108.46 154.57 108.49 154.54 108.55 154.51 108.58 154.48 108.64 154.45 108.67 154.41 108.7 154.38 108.76 154.35 108.82 154.32 108.85 154.29 108.89 154.26 108.94 154.23 108.98 154.2 109.04 154.17 109.07 154.14 109.1 154.14 109.16 154.11 109.19 154.08 109.25 154.05 109.28 154.05 109.31 154.02 109.37 153.99 109.4 153.99 109.46 153.96 109.49 153.93 109.55 153.93 109.58 153.9 109.61 153.87 109.67 153.87 109.7 153.87 109.77 153.84 109.8 153.81 109.86 153.81 109.89 153.78 109.95 153.78 109.98 153.78 110.01 153.75 110.07 153.75 110.13 153.72 110.16 153.72 110.22 153.72 110.25 153.69 110.31 153.69 110.37 153.69 110.4 153.66 110.43 153.66 110.5 153.66 110.56 153.66 110.59 153.63 110.65 153.63 110.71 153.63 110.77 153.63 110.8 153.63 110.86 153.63 110.92 153.59 110.98 153.59 111.04 153.59 111.07 153.59 111.16 153.59 111.22 153.59 111.28 153.59 111.35 153.59 111.41 153.59 111.44 153.59 111.53 153.63 111.59 153.63 111.65 153.63 111.74 153.63 111.8 153.63 111.86 153.66 111.92 153.66 111.98 153.66 112.08 153.69 112.14 153.69 112.23 153.69 112.29 153.72 112.38 153.72 112.47 153.75 112.53 153.75 112.62 153.78 112.68 153.78 112.77 153.81 112.86 153.84 112.96 153.87 113.02 153.87 113.14 153.9 113.2 153.93 113.29 153.96 113.38 153.99 113.47 154.02 113.56 154.05 113.66 154.08 113.78 154.11 113.87 154.14 113.96 154.2 114.05 154.23 114.17 154.26 114.26 154.32 114.35 154.35 114.47 154.38 114.57 154.45 114.69 154.48 114.78 154.54 114.9 154.6 115.02 154.66 115.11 154.69 115.23 154.75 115.36 154.81 115.45 154.87 115.57 154.93 115.69 154.99 115.81 155.05 115.93 155.11 116.06 155.21 116.18 155.27 116.3 155.33 116.42 155.42 116.54 155.48 116.66 155.57 116.78 155.63 116.91 155.72 117.06 155.81 117.18 155.9 117.3 155.97 117.45 156.06 117.58 156.15 117.7 156.24 117.85 156.33 117.97 156.45 118.12 156.54 118.27 156.63 118.39 156.72 118.55 156.85 118.67 156.94 118.82 157.06 118.97 157.18 119.12 157.27 119.25 157.39 119.4 157.51 119.55 157.64 119.7 157.76 119.85 157.88 119.97 158 120.13 158.12 120.28 158.24 120.43 158.4 120.58 158.52 120.73 158.67 120.92 158.79 121.07 158.94 121.22 159.09 121.37 159.22 121.52 159.37 121.68 159.52 121.86 159.67 122.01 159.82 122.16 159.97 122.34 160.13 122.5 160.31 122.65 160.46 122.83 160.61 122.98 160.8 123.17 160.98 123.32 161.13 123.5 161.31 123.65 161.5 123.83 161.65 123.99 161.86 124.17 162.04 124.35 162.19 124.5 162.41 124.69 162.59 124.87 162.77 125.02 162.98 125.2 163.17 125.38 163.38 125.57 163.56 125.75 163.77 125.93 163.99 126.08 164.2 126.27 164.41 126.45 164.62 126.63 164.84 126.81 165.05 126.99 165.26 127.18 165.5 127.36 165.72 127.54 165.96 127.72 166.17 127.91 166.42 128.09 166.66 128.3 166.9 128.48 167.12 128.66 167.27 128.79 167.42 128.88 167.57 129 167.72 129.12 167.88 129.21 168.03 129.33 168.18 129.42 168.3 129.55 168.48 129.64 168.63 129.76 168.79 129.85 168.94 129.94 169.09 130.06 169.24 130.15 169.4 130.25 169.55 130.34 169.7 130.43 169.76 130.46 169.85 130.52 169.91 130.55 170 130.61 170.06 130.64 170.15 130.7 170.22 130.73 170.31 130.79 170.37 130.82 170.43 130.85 170.52 130.88 170.61 130.94 170.67 130.97 170.73 131 170.82 131.03 170.88 131.06 170.97 131.13 171.03 131.16 171.1 131.19 171.16 131.22 171.25 131.25 171.31 131.28 171.4 131.31 171.46 131.34 171.52 131.37 171.61 131.4 171.64 131.43 171.73 131.46 171.79 131.49 171.86 131.52 171.95 131.52 171.98 131.55 172.07 131.58 172.13 131.61 172.19 131.61 172.25 131.64 172.31 131.67 172.37 131.67 172.43 131.7 172.52 131.73 172.55 131.73 172.62 131.76 172.68 131.76 172.77 131.79 172.8 131.79 172.86 131.82 172.92 131.82 172.98 131.82 173.01 131.85 173.1 131.85 173.13 131.89 173.19 131.89 173.22 131.89 173.28 131.89 173.31 131.89 173.41 131.92 173.44 131.92 173.47 131.92 173.53 131.92 173.56 131.92 173.62 131.95 173.65 131.95 173.71 131.95 173.74 131.95 173.77 131.95 173.83 131.95 173.86 131.95 173.92 131.95 174.01 131.95 174.07 131.95 174.16 131.92 174.23 131.92 174.29 131.92 174.35 131.92 174.41 131.89 174.47 131.89 174.53 131.85 174.59 131.85 174.65 131.82 174.74 131.79 174.8 131.76 175.11 131.67 175.44 131.58 175.75 131.52 176.08 131.46 176.41 131.43 176.75 131.4 177.05 131.4 177.39 131.43 177.72 131.46 178.05 131.52 178.36 131.58 178.69 131.67 179 131.79 179.3 131.92 179.6 132.04 179.88 132.19 180.18 132.37 180.45 132.55 180.7 132.77 180.94 132.98 181.18 133.19 181.43 133.44 181.64 133.68 181.82 133.95 182 134.22 182.19 134.5 182.34 134.8 182.46 135.11 182.58 135.41 182.7 135.71 182.79 136.05 182.85 136.35 182.92 136.69 182.95 137.02 182.95 137.32 182.95 137.66 182.95 137.99 182.88 138.33 182.85 138.66 182.76 138.97 182.67 139.3 182.58 139.6 182.46 139.91 182.31 140.21 182.16 140.48 181.97 140.79 181.79 141.03 181.61 141.31 181.4 141.55 181.15 141.79 180.91 142.03 180.67 142.25 180.39 142.43 180.12 142.61 179.85 142.79 179.57 142.95 179.27 143.07 178.97 143.19 178.81 143.25 178.63 143.31 178.45 143.37 178.24 143.43 178.02 143.49 177.87 143.55 177.66 143.61 177.48 143.64 177.26 143.71 177.08 143.74 176.9 143.8 176.69 143.83 176.5 143.86 176.29 143.89 176.11 143.92 175.93 143.95 175.72 143.98 175.53 144.01 175.35 144.01 175.14 144.04 174.96 144.07 174.77 144.07 174.59 144.07 174.38 144.1 174.19 144.1 174.01 144.1 173.83 144.1 173.65 144.1 173.47 144.1 173.28 144.07 173.1 144.07 172.89 144.07 172.71 144.04 172.55 144.04 172.37 144.01 172.19 144.01 172.01 143.98 171.82 143.95 171.67 143.95 171.49 143.92 171.31 143.89 171.13 143.86 170.94 143.83 170.79 143.8 170.61 143.77 170.46 143.74 170.28 143.71 170.12 143.64 169.97 143.61 169.76 143.58 169.61 143.52 169.46 143.49 169.3 143.43 169.12 143.4 168.97 143.34 168.82 143.31 168.67 143.25 168.51 143.19 168.36 143.16 168.18 143.1 168.03 143.04 167.88 143.01 167.72 142.95 167.57 142.88 167.42 142.82 167.27 142.76 167.15 142.7 166.96 142.64 166.84 142.58 166.69 142.52 166.54 142.46 166.39 142.4 166.26 142.34 166.11 142.28 165.99 142.22 165.84 142.13 165.69 142.06 165.57 142 165.41 141.94 165.29 141.88 165.14 141.79 164.99 141.73 164.87 141.67 164.75 141.61 164.62 141.52 164.47 141.46 164.35 141.37 164.23 141.31 164.08 141.24 163.96 141.15 163.83 141.09 163.71 141 163.59 140.94 163.44 140.85 163.2 140.73 162.95 140.57 162.71 140.42 162.5 140.27 162.25 140.12 162.01 139.97 161.8 139.78 161.56 139.63 161.34 139.48 161.13 139.33 160.89 139.18 160.71 139.03 160.49 138.87 160.28 138.72 160.07 138.57 159.88 138.42 159.67 138.27 159.4 138.05 159.13 137.84 158.88 137.63 158.61 137.41 158.34 137.2 158.06 136.99 157.82 136.78 157.54 136.56 157.3 136.35 157.06 136.14 156.78 135.93 156.54 135.71 156.3 135.53 156.06 135.32 155.81 135.11 155.57 134.89 155.33 134.68 155.11 134.47 154.87 134.26 154.63 134.04 154.41 133.86 154.2 133.65 153.96 133.44 153.75 133.22 153.5 133.01 153.29 132.83 153.08 132.62 152.87 132.4 152.65 132.19 152.44 132.01 152.23 131.79 152.04 131.58 151.83 131.4 151.62 131.19 151.44 130.97 151.22 130.76 151.04 130.58 150.86 130.37 150.65 130.15 150.47 129.97 150.28 129.76 150.1 129.55 149.92 129.36 149.74 129.15 149.55 128.94 149.37 128.76 149.19 128.54 149.04 128.36 148.85 128.15 148.67 127.94 148.52 127.75 148.34 127.54 148.19 127.33 148.03 127.14 147.88 126.93 147.7 126.75 147.55 126.54 147.4 126.33 147.24 126.14 147.09 125.93 146.94 125.75 146.79 125.53 146.67 125.32 146.51 125.14 146.36 124.93 146.24 124.75 146.09 124.53 145.97 124.35 145.85 124.14 145.69 123.95 145.57 123.74 145.45 123.53 145.33 123.35 145.21 123.14 145.09 122.95 144.97 122.74 144.84 122.56 144.72 122.34 144.6 122.13 144.51 121.95 144.39 121.77 144.27 121.56 144.18 121.34 144.08 121.16 143.96 120.95 143.87 120.77 143.78 120.55 143.69 120.34 143.57 120.16 143.51 119.97 143.42 119.76 143.32 119.55 143.23 119.34 143.14 119.16 143.05 118.94 142.99 118.76 142.9 118.55 142.81 118.36 142.75 118.15 142.69 117.94 142.6 117.76 142.53 117.58 142.47 117.36 142.41 117.15 142.35 116.94 142.29 116.75 142.23 116.57 142.17 116.36 142.11 116.15 142.05 115.93 142.02 115.75 141.96 115.54 141.93 115.36 141.87 115.14 141.84 114.93 141.78 114.75 141.75 114.54 141.71 114.32 141.68 114.14 141.65 113.93 141.62 113.75 141.59 113.53 141.56 113.35 141.56 113.14 141.53 112.93 141.5 112.71 141.5 112.53 141.47 112.32 141.47 112.14 141.47 111.95 141.44 111.74 141.44 111.53 141.44 111.31 141.44 111.13 141.44 110.95 141.44 110.74 141.47 110.53 141.47 110.34 141.47 110.13 141.5 109.95 141.5 109.73 141.53 109.55 141.56 109.34 141.56 109.16 141.59 108.98 141.62 108.76 141.65 108.58 141.68 108.4 141.71 108.19 141.78 108 141.81 107.82 141.84 107.64 141.9 107.43 141.93 107.24 141.99 107.06 142.02 106.88 142.08 106.7 142.14 106.48 142.2 106.3 142.26 106.12 142.32 105.94 142.38 105.75 142.44 105.6 142.5 105.42 142.56 105.21 142.66 105.06 142.72 104.87 142.78 104.69 142.87 104.54 142.96 104.36 143.02 104.17 143.11 104.02 143.2 103.84 143.26 103.69 143.35 103.51 143.45 103.36 143.54 103.17 143.63 103.02 143.72 102.87 143.84 102.69 143.93 102.53 144.02 102.38 144.15 102.23 144.24 102.05 144.33 101.93 144.45 101.78 144.54 101.62 144.66 101.47 144.78 101.32 144.87 101.17 145 101.05 145.12 100.89 145.24 100.74 145.33 100.59 145.45 100.47 145.57 100.32 145.69 100.19 145.82 100.04 145.94 99.92 146.06 99.8 146.18 99.65 146.33 99.53 146.45 99.41 146.58 99.25 146.7 99.13 146.82 99.01 146.97 98.89 147.09 98.77 147.24 98.64 147.37 98.52 147.52 98.4 147.64 98.31 147.79 98.19 147.91 98.07 148.06 97.95 148.19 97.86 148.34 97.73 148.49 97.61 148.61 97.52 148.76 97.43 148.92 97.31 149.04 97.22 149.22 97.1 149.37 97 149.49 96.91 149.65 96.82 149.8 96.7 149.95 96.61 150.1 96.52 150.25 96.43 150.41 96.34 150.56 96.25 150.71 96.15 150.86 96.06 151.01 95.97 151.16 95.88 151.32 95.82 151.47 95.73 151.65 95.64 151.8 95.55 151.95 95.48 152.11 95.39 152.29 95.3 152.44 95.24 152.59 95.18 152.74 95.09 152.93 95 153.08 94.94 153.23 94.88 153.41 94.79 153.59 94.73 153.75 94.67 153.9 94.6 154.08 94.51 154.23 94.45 154.41 94.39 154.57 94.33 154.75 94.27 154.9 94.21 155.08 94.15 155.24 94.09 155.42 94.03 155.57 93.97 155.75 93.91 155.93 93.84 156.09 93.81 156.27 93.75 156.45 93.69 156.6 93.63 156.78 93.6 156.97 93.54 157.12 93.48 157.3 93.45 157.48 93.39 157.64 93.36 157.85 93.3 158.03 93.27 158.18 93.21 158.37 93.18 158.52 93.15 158.7 93.08 158.88 93.05 159.06 93.02 159.25 92.99 159.43 92.93 159.61 92.9 159.79 92.87 159.97 92.84 160.16 92.81 160.34 92.78 160.52 92.75 160.71 92.72 160.86 92.69 161.04 92.66 161.25 92.63 161.4 92.6 161.59 92.57 161.8 92.54 161.95 92.54 162.16 92.51 162.34 92.48 162.53 92.48 162.71 92.45 162.89 92.42 163.07 92.42 163.26 92.39 163.44 92.39 163.62 92.36 163.99 92.33 164.17 92.33 164.38 92.3 164.56 92.3 164.75 92.3 164.93 92.26 165.11 92.26 165.29 92.26 165.5 92.26 165.69 92.23 165.87 92.23 166.05 92.23 166.24 92.23 166.42 92.23 166.63 92.23 166.81 92.23 166.99 92.23"/><path class="cls-5" d="M179.76,497.56s-22.91-45-18.6-83.62c13.55-120.9-22-144.6-8.11-218.34,4.83-25.61,13.94-54.75,29.5-76,34.18-46.58,99.87-70.79,157-59.86,22.88,4.41,43.54,14.31,64,25.16,71.13,37.8,85.89,117.53,76.66,184.74-4.11,29.78-29.69,76.14-25.92,106,7.78,62.2,5.62,95.86-13.83,136-16.53,34.21-80.94,60-151.37,52.65C277.08,563,205.28,550.46,179.76,497.56Z"/><g class="cls-7"><g class="cls-8"><path class="cls-9" d="M434,114.23s23.61,57.58,9.21,104.22-39.74,111.75-35.7,176.84S404.6,502.42,390.2,520.84c-29.08,37.22-108.29,42.62-128.44,36.85s79.49,20.75,136.49-2.31,65.08-119.77,57.61-180.27,40.9-77.75,24.76-182C454.7,132.07,454.13,135.53,434,114.23Z"/></g></g><path class="cls-6" d="M311.29,63.28h-2l-.33,0h-1.31l-.36,0h-.64l-.33,0H306l-.33,0H305l-.33,0h-.34l-.33,0-.34,0h-.33l-.34,0h-.3l-.36,0-.34,0h-.3l-.34,0-.33,0-.34,0h-.33l-.33,0-.34,0-.33,0-.34,0-.33,0-.33,0-.34,0-.33,0-.34,0L297,64l-.34,0-.3,0-.33,0-.34,0-.33,0-.34,0-.33,0-.33.06-.34,0-.33,0-.34,0-.33.06-.34,0-.33,0-.33.06-.31,0-.33.06-.34,0-.33.06-.34,0-.33,0-.33.06-.34.06-.33,0-.34.06-.33,0-.34.06-.33.06-.3,0-.34.06-.33.06-.34.06-.33,0-.33.07-.34.06-.33.06-.34.06-.3.06-.33.06-.34.06-.33,0-.34.06-.33.06-.34.06-.3.09-.33.06-.34.07-.33.06-.34.06-.33.06-.34.06-.3.09-.33.06-.34.06-.33.06-.34.09-.3.06-.33.06-.34.1-.33.06-.34.06-.33.09-.31.06-.33.09-.33.06-.34.09-.3.06-.34.09-.33.1-.33.06-.31.09-.33.06-.34.09-.33.09-.3.09-.34.06-.33.09-.34.09-.3.1-.34.06-.33.09-.3.09-.34.09-.33.09-.34.09-.3.09-.33.09-.31.1-.33.09-.34.09-.3.09-.33.09-.34.09-.3.09-.34.12-.3.09-.33.1-.34.09-.3.09-.34.12-.3.09-.34.09-.3.12-.33.09-.34.1-.3.12-.34.09-.3.12-.33.09-.31.09-.33.12-.31.1-.33.12-.3.12-.34.09-.3.12-.34.09-.3.12-.33.13-.31.09-.3.12-.34.12-.3.12-.33.09-.31.12-.33.13-.31.12-.3.12-.33.09-.31.12-.3.12-.34.12-.3.13-.3.12-.34.12-.3.12-.31.12-.3.12-.33.13-.31.15-.3.12-.34.12-.3.12-.3.12-.31.12-.33.16-.31.12-.3.12-.3.12-.31.15-.33.12-.3.13-.31.15-.3.12-.31.15-.3.12-.3.12-.31.16-.3.12-.34.15-.3.12-.3.15-.31.16-.3.12-.3.15-.31.12-.3.15-.31.15-.3.13-.3.15-.31.15-.3.15-.31.12-.3.16-.3.15-.28.15-.3.15-.3.15-.31.12-.3.16-.31.15-.3.15-.27.15-.31.15-.3.16-.31.15-.3.15-.27.15-.31.18-.3.16-.3.15-.28.15-.3.15-.3.15-.28.19-.3.15-.31.15-.27.15-.3.18-.31.16-.27.15-.3.18-.31.15-.27.15-.31.19-.27.15-.3.18L231,85l-.3.18-.27.16-.31.18-.27.15-.3.18-.28.15-.27.19-.31.18-.27.15-.3.18-.28.16-.3.18-.27.18-.28.18-.27.15-.3.19-.28.18-.27.18-.31.18-.27.16-.27.18-.28.18-.3.18-.27.19-.28.18-.27.18-.27.18-.31.18-.27.19-.24.18-.31.18-.27.18-.27.19-.28.18-.27.18-.27.18-.28.22-.27.18-.28.18-.27.18-.27.18-.28.22-.27.18-.24.18-.28.21-.27.19-.27.18-.28.21-.27.18L217,94l-.25.21-.27.18-.27.21-.25.19-.27.21-.27.18-.25.21-.27.19-.27.21-.25.18-.27.21-.27.22-.25.18-.27.21-.24.21-.28.19-.27.21-.24.21-.25.18-.27.22-.24.21-.28.21-.24.22-.27.18-.25.21-.24.21-.27.22-.24.21-.25.21-.27.21-.24.22-.25.21-.24.21-.27.21-.25.22-.24.21-.24.21-.25.22L207,102l-.24.21-.25.21-.24.22-.24.21-.24.24-.25.21-.24.22-.24.21-.25.24-.24.22-.24.21-.25.24-.21.21-.24.22-.25.24-.24.21-.24.22-.21.24-.25.21-.24.24-.24.22-.25.21-.21.24-.24.25-.25.21-.21.21-.24.24-.46.46-.24.24-.21.25-.25.21-.21.24-.24.21-.21.25-.25.24-.21.21-.21.25-.25.24-.21.24-.24.25-.21.21-.22.24-.21.24-.24.25-.22.24-.21.24-.21.22-.21.24-.25.24-.21.25-.21.24-.21.24-.22.24-.21.25-.21.24-.22.24-.21.25-.21.24-.21.27-.22.25-.21.24-.21.24-.18.25-.22.24-.21.24-.21.28-.21.24-.19.24-.21.28-.21.24-.18.24-.22.24-.21.28-.18.24-.21.24-.19.28-.21.24-.21.27-.18.25-.19.24-.21.27-.18.25-.21.27-.19.24-.21.28-.18.24-.18.27-.19.25-.18.24-.18.24-.15.21-.19.25-.18.24-.15.24-.18.25-.15.24-.19.24-.15.22-.18.27-.15.24-.18.22-.16.24-.15.27-.18.25-.15.24-.19.24-.15.24-.15.25-.18.24-.15.27-.16.25-.15.24-.18.24-.15.28-.15.24-.16.24-.18.28-.15.24-.15.24-.15.28-.16.27-.15.24-.15.25-.15.27-.15.24-.19.28-.12.27-.15.24-.15.28-.18.27-.12.24-.16.28-.15.24-.15.27-.15.28-.15.27-.16.27-.15.25-.15.27-.12.27-.15.28-.15.27-.16.24-.12.28-.15.3-.15.24-.15.28-.13.27-.15.27-.15.28-.12.27-.15.27-.12.28-.16.27-.15.27-.12.31-.15.27-.12.27-.16.28-.12.27-.15.27-.12.31-.15.27-.12.28-.16.27-.12.3-.12.28-.15.27-.12.27-.12.31-.16.27-.12.27-.12.31-.15.27-.12.31-.12.27-.13.27-.15.31-.12.27-.12.3-.12.28-.12.3-.13.27-.12.31-.15.27-.12.3-.12.28-.12.3-.12.28-.13.3-.12.3-.12.28-.12.3-.12.27-.12.31-.13.3-.09.28-.12.3-.12.3-.12.28-.12.3-.12.3-.13.28-.12.3-.09.31-.12.3-.12.3-.12.28-.22.6-.21.58-.24.61-.21.61-.22.57-.21.61-.21.61-.21.61-.22.57-.21.61-.21.61-.22.61-.21.61-.18.6-.21.61-.19.58-.21.61-.18.6-.21.61-.19.61-.18.61-.18.63-.21.61-.19.61-.18.61-.18.61-.15.6-.18.61-.19.61-.18.61-.15.6-.18.61-.19.61-.15.61-.18.6-.15.64-.15.61-.19.61-.15.61-.15.6-.15.61-.15.61-.16.61-.15.6L162,183l-.15.61-.12.61-.15.6-.16.61-.15.61-.12.58-.15.6-.12.61-.13.61-.15.61-.12.58-.12.6-.12.61-.15.58-.13.61-.12.6-.12.58-.12.61-.09.58-.12.6-.12.58-.13.61-.09.58-.09.42-.09.43-.06.39-.09.43-.06.42-.06.4-.09.42-.06.4-.06.42-.1.4-.06.42-.06.4-.06.39-.06.43-.09.39-.06.4-.06.39-.06.43-.06.39,0,.4-.06.39-.07.4-.06.39-.06.4-.06.39,0,.4-.06.39-.06.4,0,.36-.06.4,0,.39-.06.37,0,.39-.06.4,0,.36-.06.4,0,.39-.07.37,0,.39,0,.37,0,.39-.06.37,0,.36,0,.4,0,.36,0,.37,0,.39,0,.36,0,.37,0,.36,0,.37,0,.36,0,.4,0,.36,0,.37v.36l0,.37,0,.36,0,.37v.36l0,.34,0,.36v.36l0,.37v.36l0,.37,0,.33v.73l0,.37V224l0,.37V225l0,.37v1l0,.37V232l0,.34v1l0,.33v.67l0,.34v.66l0,.37V236l0,.34v.33l0,.34v.33l0,.33v.34l0,.33v.34l0,.33,0,.3v.34l0,.33,0,.34v.33l0,.34,0,.33,0,.33V242l0,.33,0,.31,0,.33,0,.34,0,.33V244l0,.34,0,.3,0,.34,0,.33,0,.33,0,.31,0,.33,0,.34.06.63.1.67.06.64.06.67.09.64.06.67.09.63.06.67.09.64.06.64.09.67.1.64.09.66.09.64.09.67.09.64.09.64.09.67.09.63.09.67.13.64.09.67.09.64.12.66.09.64.12.67.09.67.13.64.09.67.12.66.12.67.12.64.09.67.12.67.13.67.12.67.12.66.09.67.12.67.24,1.34.25,1.36.27,1.37.24,1.37.49,2.73.52,2.8.27,1.43L163,286l.25,1.46.27,1.43.12.73.12.73.15.73.13.73.12.73.12.73.12.76.15.73.12.76.13.72.12.76.12.76.12.76.12.76.15.79.13.76.12.76.12.79.12.79.12.76.09.79.12.79.13.82.12.79.12.79.12.82.09.82.12.79.12.82.1.85.12.82.12.82.09.86.12.82.09.85.09.85.13.85.09.85.09.88.09.85.12.88.09.88.09.88.09.89.1.88,0,.45,0,.46.06.42,0,.46.06.45,0,.46,0,.46.06.45,0,.46,0,.45.06.46,0,.49,0,.45,0,.46.06.45,0,.49,0,.45,0,.49,0,.46.07.45,0,.49,0,.48,0,.46,0,.49,0,.48,0,.46,0,.48,0,.49,0,.49,0,.48,0,.49,0,.49,0,.48,0,.49v.48l0,.52,0,.49,0,.48,0,.52,0,.49v.51l0,.49,0,.51v.49l0,.52,0,.51v.49l0,.52v.51l0,.52,0,.52v.51l0,.52v.52l0,.51v1.07l0,.51v1.07l0,.54v1.07l0,.51v3.25l0,.55v2.77l0,.57v2.8l0,.58v1.7l0,.57v.58l0,.58v1.15l0,.58v.61l0,.58,0,.57v.61l0,.58v.61l0,.57,0,.61v.61l0,.61,0,.57,0,.61,0,.61,0,.61,0,.6v.64l0,.61,0,.61,0,.61-.06.63,0,.61,0,.64,0,.64,0,.61,0,.63-.06.64,0,.64,0,.61,0,.64-.07.66,0,.64-.06.64,0,.64-.06.64,0,.66-.06.64,0,.67-.06.64-.06.67,0,.67-.06.63-.06.67-.06.67-.06.67,0,.67-.07.67-.06.66-.06.7-.06.67-.06.67-.06.7-.06.67-.09.7-.06.7-.06.66-.06.7-.09.7-.07.7-.06.7-.09.7-.06.7-.09.7-.06.72-.09.7-.06.7-.09.73,0,.21V415l0,.21,0,.21v.18l0,.22,0,.24v.21l0,.19,0,.21v.21l0,.21v.22l0,.21v.21l0,.21v.22l0,.21v.21l0,.21v.43l0,.21v.46l0,.18v.46l0,.21v.85l0,.21v1.74l0,.42,0,.43v1.76l0,.42v.88l0,.43,0,.43v.45l0,.43,0,.42,0,.46v.42l0,.46,0,.42,0,.43.07.46,0,.42,0,.46,0,.42.06.43,0,.45,0,.43.06.45,0,.43.06.46.06.42,0,.43.06.45.06.43.06.42.06.46.06.42,0,.46.09.42.06.43.06.46.06.42.06.43.06.45.09.43.06.42.06.43.09.42.06.46.1.43.06.42.09.43.06.42.09.46.09.42.09.4.06.45.09.43.1.42.09.43.09.42.09.43.09.4.09.42.09.43.09.42.09.43.1.39.09.43.09.42.12.43.09.39.09.43.12.42.09.4.1.42.12.4.09.39.12.43.09.39.09.43.12.39.09.4.13.39.12.43.09.39.12.4.09.39.12.4.12.39.1.4.12.4.12.39.12.36.09.4.12.39.12.37.13.39.09.4.12.36.12.37.12.39.12.37.09.36.13.4.12.36.12.37.12.36.12.37.12.36.13.37.12.36.09.36.12.34.12.36.12.37.12.33.13.37.12.33.12.37.12.33.12.33.12.34.13.33.09.34.12.36.12.34.12.3.12.33.12.34.13.3.12.34.24.63.21.64.25.61.24.61.21.61.24.57.22.58.24.58.21.57.22.55.21.55.21.51.21.52.22.52.21.51.21.49.21.49.19.45.21.46.18.45.18.43.19.42.18.4.18.39.15.4.19.36.15.37.15.36.15.34.15.3.15.31.13.3.12.27.15.28.12.27.09.21.22.46.18.39.15.31.15.27.09.21.06.12.09.19.16.33.15.27.15.31.12.27.15.28.16.3.15.27.12.28.15.27.15.3.15.28.16.27.15.27.15.28.15.27.15.27.16.31.15.24.15.27.18.28.15.3.16.25.15.27.18.27.15.28.18.27.16.24.15.28.18.27.15.27.19.25.15.27.18.24.15.28.18.24.19.27.18.28.15.24.18.27.18.25.19.24.15.27.18.24.18.25.19.27.18.24.18.25.18.27.19.24.18.25.18.24.18.24.18.25.19.24.18.24.21.25.18.24.19.24.18.24.21.25.18.24.19.24.21.25.18.24.21.24.19.22.18.24.21.24.18.21.22.25.21.24.18.24.21.22.19.24.21.21.21.25.18.21.22.24.21.21.21.25.18.21.22.21.21.25.21.21.21.24.22.21.21.22.18.21.25.24.18.21.21.22.24.21.22.21.21.22.21.21.21.21.22.21.21.22.21.21.22.21.24.21.21.22.21.21.22.21.24.22.21.21.21.18.22.21.24.22.21.21.25.21.21.18.21.22.24.21.25.18.21.21.21.19.25.21.21.18.24.21.25.19.21.21.24.18.21.21.25.19.21.18.24.21.25.18.24.19.21.21.24.18.25.18.24.19.21.21.25.18.24.18.24.18.25.19.21.18.24.18.24.18.25.19.24.18.24.18.25.18.24.19.24.18.25.18.24.18.21.18.28.16.24.18.24.18.21.18.28.19.24.15.24.18.25.18.24.15.24.19.25.15.24.18.24.18.28.16.24.18.24.15.24.18.25.15.27.19.24.15.25.15.24.18.24.15.25.16.27.18.24.15.25.15.27.15.24.19.25.15.24.15.27.15.25.15.27.16.24.18.24.15.25.15.27.15.24.16.25.15.27.12.24.18.28.12.24.15.24.16.28.15.24.15.27.15.25.15.24.13.27.15.25.15.27.15.24.12.25.16.27.15.24.12.28.15.24.15.27.12.25.16.27.12.24.15.25.12.27.15.27.12.25.16.24.12.27.12.24.15.28.12.24.16.27.12.25.12.27.15.24.12.28.12.24.12.27.13.25.15.51.24.52.24.52.25.51.24.52.27.52.22.51.24.52.24.52.25.51.21.52.24.49.24.51.22.52.21.52.24.51.22.52.21.48.21.52.21.52.22.51.21.49.18.52.21.48.22.52.18.52.21.48.18.52.19.48.21.49.18.52.18.48.19.49.18.52.18.48.18.49.19.48.15.49.18.49.18.48.15.49.19.49.15.48.15.49.18.45.15.49.16.49.15.45.15.46.15.48.15.46.16.45.12.49.15.46.15.45.12.46.15.45.13.46.15.46.12.42.12.46.15.42.12.46.13.42.12.46.12.42.12.43.09.43.12.42.13.43.12.42.09.4.12.42.09.43.12.39.09.4.12.39.1.43.09.39.09.4.09.36.09.4.12.39.06.37.09.39.09.37.1.36.09.37.09.36.06.36.09.37.06.33.09.37.06.33.09.37.06.33.07.34.09.33.06.3.06.34.06.33.06.31.06.3.06.3.06.31.06.3.06.31.06.27,0,.3.07.28.06.27,0,.27.06.28,0,.27.06.27,0,.25.06.24,0,.49.09.48.06.43.06.45.06.4.06.39.07.37.06.33,0,.34.06.3,0,.27,0,.28,0,.39,0,.4,0,.39.06.43,0,.39,0,.4.06.39,0,.43,0,.39,0,.4,0,.39,0,.4,0,.39.06.43,0,.39,0,.4,0,.39,0,.4,0,.39,0h.4l.39,0,.43,0,.39,0,.4,0,.39,0h.4l.39,0,.4,0,.39,0h.4l.39,0,.4,0h.42l.4,0h.39l.4,0h.39l.4,0h.39l.4,0h.39l.4,0h.79l.39,0h1.16l.39,0h1.58l.4,0h3.92l.36,0h1.95l.39,0h.4l.76,0h.39l.79,0h.76l.76,0,.4,0h.39l.76,0,.4,0,.75,0,.37,0h.39l.76-.06.76,0,.4,0,.76-.06h.36l.4,0,.36,0,.4,0,.36,0,.4,0,.36,0,.37,0,.39,0,.37,0,.39,0,.37,0,.39,0,.36,0,.37,0,.39,0,.37,0,.36-.06.37,0,.39,0,.37,0,.36-.06.4,0,.36,0,.37,0,.36-.06.4,0,.36,0,.37-.06.36,0,.36-.06.76-.09.37,0,.36-.06.37,0,.36-.06.37,0,.36-.06.73-.09.37-.06.36,0,.37-.06.36-.06.36,0,.37-.07.36-.06L346,557l.36-.06.73-.09.7-.12.37-.06.36-.06.37-.06.36-.06.33-.06.37-.07.36-.06.37-.06.36-.06.34-.06.36-.06.37-.06.33-.06.36-.06.37-.06.33-.06.37-.09.33-.06.37-.07.36-.06.34-.09.36-.06.33-.06.37-.09.33-.06.37-.06.33-.09.37-.06.33-.06.34-.1.36-.06.33-.09.37-.06.33-.09.7-.15.34-.06.33-.09.33-.06.37-.09.33-.1.34-.06.33-.09.34-.06.36-.09.33-.09.34-.09.67-.15.33-.1.37-.09.3-.06.33-.09.37-.09.67-.18.3-.09.33-.09.67-.16.34-.09.67-.18.66-.18.31-.09.67-.22.33-.09.31-.09.33-.09.33-.09.31-.09.33-.09.34-.09.3-.13.33-.09.34-.09.3-.09.64-.21.33-.09.31-.09.33-.13.31-.09.3-.09.64-.21.33-.12.31-.09.3-.09.33-.13.31-.09.3-.12.31-.09.63-.21.31-.12.3-.1.31-.12.33-.12.3-.09.31-.12.3-.09.61-.25.61-.21.3-.12.3-.09.31-.12L385,547l.31-.13.3-.09.3-.12.31-.12.3-.12.58-.24.3-.1.31-.12.27-.12.61-.24.27-.12.3-.12.28-.13.3-.12.31-.12.27-.12.3-.12.28-.12.27-.12.3-.13.28-.12.3-.12.27-.12.28-.12.3-.12.27-.13.28-.12.58-.27.54-.24.28-.13.54-.27.31-.12.27-.12.24-.15.28-.13.3-.12.27-.15.25-.12.27-.12.27-.12.28-.16.27-.12.27-.15.25-.12.27-.12.27-.15.28-.13.24-.15.27-.12.25-.15.54-.27.25-.13.51-.27.52-.27.27-.15.25-.13.27-.15.24-.12.25-.15.27-.15.24-.13.25-.15.24-.15.27-.12.25-.15.24-.15.24-.13.49-.3.24-.12.28-.15.21-.16.24-.15.24-.12.25-.15.24-.15.24-.15.25-.16.24-.12.24-.15.21-.15.25-.15.24-.16.21-.15.49-.3.21-.12.25-.15.21-.16.24-.15.21-.15.25-.15.21-.15.24-.16.22-.15.21-.15.21-.15.46-.31.24-.15.18-.15.25-.15L414,532l.21-.16.21-.15.22-.15.21-.15.21-.18.21-.16.43-.3.21-.15.21-.15.22-.15.21-.19.18-.15.22-.15.21-.15.18-.15.21-.16.22-.18.18-.15.21-.15.18-.15.22-.19.18-.15.21-.15.21-.15.19-.19.18-.15.21-.15.18-.18.19-.15.18-.16.21-.15.18-.18.18-.15.19-.15.18-.19.18-.15.18-.15.19-.18.18-.15.36-.34.19-.15.18-.18.15-.15.18-.16.18-.18.19-.15.15-.18.36-.34.34-.33.18-.15.15-.15.18-.19.16-.15.15-.18.18-.15.15-.19.18-.15.16-.18.15-.15.15-.18.15-.16.18-.18.16-.18.15-.15.3-.34.15-.15.31-.36.15-.16.15-.18.12-.15.15-.18.16-.18.15-.16.27-.33.15-.18.13-.15.15-.19.15-.18.12-.15.15-.18.12-.19.16-.15.12-.18.12-.15L430,517l.15-.19.12-.15.13-.18.12-.15.15-.18.12-.19.12-.15.12-.18.13-.18.12-.19.12-.15.12-.18.12-.18.12-.15.09-.19.13-.15.12-.18.12-.18.09-.19.12-.15.12-.18.09-.18.13-.15.09-.19.12-.18.09-.18.12-.15.09-.19.09-.18.13-.15.09-.18.09-.18.12-.16.09-.18.09-.18.09-.18.09-.15.1-.19.09-.18.09-.18.09-.15.09-.19.09-.15.09-.18.09-.18L435,509l.25-.46.21-.46.21-.45.22-.46.21-.45.21-.46.21-.45.22-.46.21-.43.21-.45.18-.46.22-.45.21-.46.18-.45.21-.46.19-.43.21-.45.18-.46.21-.42.19-.46.18-.45.18-.46.21-.43.19-.45.18-.43.18-.45.18-.46.19-.42.15-.46.18-.46.18-.42.18-.46.16-.42.18-.46.15-.42.18-.46.15-.45.19-.43.15-.43.15-.45.18-.43.15-.45.16-.43.15-.45.15-.43.15-.45.15-.43.16-.46.15-.42.15-.46.15-.42.15-.46.13-.42.15-.46.12-.42L445,484l.15-.43.12-.45.13-.43.15-.42.12-.46.12-.42L446,481l.12-.45.13-.43.12-.43.12-.45.12-.46.12-.42.12-.46.12-.42.13-.46.12-.42.09-.46.12-.43.12-.45.09-.46.12-.42.13-.46.09-.42L448,473l.12-.46.09-.45.12-.43.09-.45.1-.46.09-.42.09-.46.09-.46.12-.45.09-.46.09-.42.09-.46.06-.45.1-.46.09-.45.09-.46.09-.46.06-.45.09-.46.06-.45.09-.46.09-.46.06-.45.07-.46.09-.45.06-.49.09-.45.06-.46.06-.46.06-.45.06-.49.06-.45.09-.46.06-.49.07-.45.06-.49,0-.45.06-.49.06-.46.06-.48.06-.46,0-.48.06-.49.06-.46,0-.48.06-.49,0-.48.06-.46,0-.49.06-.48,0-.49,0-.48.06-.49,0-.49,0-.48,0-.52,0-.49,0-.48,0-.49,0-.48,0-.52,0-.49,0-.51,0-.49,0-.52,0-.48v-.52l0-.51,0-.49V440l0-.51V439l0-.49V438l0-.52v-.52l0-.51v-1.58l0-.52v-5.89l0-.52V426.8l0-.55v-1.13l0-.54V424l0-.58v-.54l0-.58,0-.55v-.58l0-.54,0-.58v-.58l0-.57,0-.55,0-.61,0-.58,0-.57,0-.58,0-.58,0-.57,0-.61,0-.58,0-.58,0-.6-.06-.61,0-.58,0-.61-.06-.61,0-.6,0-.61-.06-.61,0-.61-.06-.6,0-.61-.06-.61,0-.64-.06-.6-.06-.64,0-.61-.06-.64-.06-.64-.06-.63,0-.61-.07-.64-.06-.64-.06-.64-.06-.66-.06-.64-.06-.64-.06-.67-.06-.64-.06-.67-.09-.63-.06-.67-.06-.67-.07-.67-.09-.67-.06-.67-.06-.67-.09-.66-.06-.67-.09-.7-.06-.67-.06-.67-.09-.7-.09-.7-.07-.66-.09-.7-.09-.7-.06-.7-.09-.7-.09-.73-.06-.7-.09-.7-.09-.73-.1-.69-.09-.73-.09-.7-.09-.76,0-.18V376l0-.21,0-.21,0-.18v-.22l0-.18,0-.21v-.18l0-.22v-.21l0-.18v-.21l0-.22v-.18l0-.21V373l0-.22v-.39l0-.18v-.64l0-.22v-1l0-.21v-1.46l0-.61v-.82l0-.21v-.64l0-.21v-.4l0-.42,0-.43,0-.42,0-.43,0-.39,0-.43,0-.42.06-.43,0-.42,0-.43.06-.42,0-.43.06-.43.06-.42,0-.43.07-.45.06-.43.06-.42.06-.43.06-.42.06-.43.06-.45L449,356l.06-.43.06-.42.09-.46.06-.42.1-.43.09-.45.06-.43.09-.45.09-.43.09-.43.06-.45.09-.43.09-.45.1-.43.09-.42.12-.46.09-.45.09-.43.09-.46.12-.42.09-.46.13-.45.09-.43.09-.45.12-.43.12-.45.09-.46.12-.43.13-.45.09-.46.12-.42.12-.46.12-.45.12-.43.12-.46.13-.45.12-.46.12-.42.12-.46.12-.45.12-.46.16-.42.12-.46.12-.46.12-.45.15-.46.28-.88.12-.45.12-.46.15-.46.12-.45.15-.46.16-.45.12-.43.15-.45.12-.46.15-.46.15-.45.28-.88.15-.46.15-.45.12-.46.16-.46.3-.91.3-.88.28-.91.3-.91.3-.91.31-.88.3-.92.31-.91.3-.88.3-.91.34-.88.3-.91.31-.88.6-1.8.64-1.79.61-1.76.61-1.76.6-1.77.61-1.76.31-.88.3-.85.3-.88.31-.85.3-.88.27-.85.31-.86.27-.85.31-.85.27-.85.27-.85.28-.82.27-.85.27-.82.15-.43.13-.42.12-.4.27-.82.12-.42.15-.4.13-.39.12-.43.12-.39.12-.4.12-.42.12-.4.13-.39.12-.4.12-.39.12-.4.12-.39.12-.4.09-.39.13-.4.12-.39.09-.4.12-.39.09-.37.12-.39.09-.4.13-.36.09-.4.12-.36.09-.4.09-.36.09-.4.09-.36.09-.36.13-.37.09-.36.06-.37.09-.39.09-.34.09-.36.09-.37.06-.36.09-.37.1-.36.06-.34.09-.36.06-.36.06-.34.09-.33.06-.37.06-.33.06-.34.06-.33.06-.36.06-.34.07-.33.06-.34.06-.33.06-.31,0-.33.06-.33,0-.31.06-.33.06-.4,0-.36.06-.4.06-.39,0-.37.06-.39.09-.79.07-.37,0-.39.06-.4.06-.39,0-.37.06-.39,0-.4,0-.39.06-.36,0-.4.09-.79.06-.39,0-.4,0-.36.09-.79,0-.4,0-.39.06-.4,0-.39.06-.79.06-.76.06-.4,0-.39,0-.4,0-.39,0-.4,0-.39,0-.4,0-.39,0-.4,0-.39,0-.4,0-.39,0-.4v-.39l0-.4,0-.39.06-.79,0-.79,0-.4,0-.39V247l0-.39,0-.79.06-.82v-.4l0-.79,0-.39V243l0-.39v-.4l0-.82V241l0-.82v-.4l0-.39V238.2l0-.39V230.6l0-.39V229l0-.39v-.79l0-.4v-.82l0-.39v-.4l0-.39V225l0-.39v-.4l0-.39v-.4l0-.39,0-.4v-.42l0-.4,0-.39V221l0-.39,0-.43,0-.39,0-.4V219l0-.4,0-.42,0-.4,0-.39,0-.4,0-.39,0-.4,0-.39,0-.4,0-.42,0-.4,0-.39-.06-.4,0-.39,0-.4,0-.39,0-.43-.06-.39,0-.4,0-.39-.06-.4,0-.39,0-.4-.06-.39,0-.4-.06-.42,0-.4-.06-.39,0-.4L475,207l0-.4-.06-.39-.06-.4,0-.39-.06-.4-.06-.39,0-.4-.06-.39-.07-.4-.06-.42-.06-.37,0-.42-.06-.4-.06-.39-.06-.4-.06-.39-.06-.4-.06-.39-.06-.4-.06-.39-.06-.4-.07-.36-.09-.43-.06-.39-.06-.4-.06-.39-.06-.4-.09-.36-.06-.4-.06-.39-.09-.4-.06-.39L473,194l-.1-.39-.06-.4-.09-.39-.06-.4-.09-.39-.06-.37-.09-.39-.09-.4-.06-.39-.1-.4-.09-.39-.06-.4-.09-.36-.09-.4-.09-.39-.06-.4-.09-.39-.09-.37-.09-.39-.1-.4-.09-.39-.09-.37-.09-.39-.09-.4-.09-.36-.09-.4-.09-.39-.1-.4-.09-.36-.12-.4-.09-.39-.09-.4-.09-.36-.12-.4-.09-.36-.1-.4-.12-.39-.09-.37-.12-.39-.09-.4-.12-.36-.09-.39-.12-.37L469,177l-.12-.37-.12-.39-.09-.37-.12-.39-.12-.37-.09-.39-.13-.37-.12-.39-.12-.37-.12-.39-.12-.37-.12-.39-.13-.37-.12-.39-.12-.37-.12-.36-.12-.4-.12-.36-.12-.37-.13-.39-.12-.36-.12-.37-.15-.39-.12-.37-.12-.36-.13-.37-.15-.39-.12-.37-.15-.36-.12-.37-.15-.39-.13-.37-.15-.36-.12-.37-.15-.36-.12-.4-.15-.36-.16-.36-.12-.37-.15-.36-.15-.37-.15-.36-.16-.37-.12-.36-.15-.37-.15-.36-.15-.37-.15-.36-.16-.37-.15-.36-.15-.36-.15-.37-.15-.36-.16-.37-.18-.36-.15-.37-.15-.36-.15-.34-.19-.36-.15-.37-.15-.36-.18-.36-.15-.34-.19-.36-.15-.37-.18-.36-.15-.34-.19-.36-.15-.37-.18-.33-.18-.37-.15-.36-.19-.33-.18-.37-.18-.36-.18-.34-.16-.36-.18-.34-.18-.36-.18-.34-.18-.36-.19-.33-.18-.37-.18-.33-.18-.37-.19-.33-.21-.34-.18-.36-.18-.33-.19-.37-.21-.33-.18-.34-.18-.36-.22-.34-.18-.33-.18-.34-.21-.36-.22-.33-.18-.34-.21-.33-.18-.34-.22-.36-.21-.34-.18-.33-.21-.33-.22-.34-.21-.33L452,138l-.21-.33-.22-.34-.21-.33-.21-.33-.21-.34-.22-.33-.21-.34-.21-.33-.25-.33-.21-.34-.21-.3-.21-.34-.22-.33-.24-.34-.21-.33-.21-.3-.25-.34-.21-.33-.24-.31-.22-.33-.24-.33-.21-.31-.25-.33-.21-.34-.24-.3-.24-.33-.22-.31-.24-.33-.24-.31-.25-.33-.24-.3-.24-.34-.21-.3-.28-.34-.21-.3-.24-.3-.28-.34-.24-.3-.24-.31-.25-.33-.24-.3-.24-.31-.28-.3-.24-.34-.24-.3-.28-.3-.24-.31-.27-.3-.25-.31-.27-.3-.24-.3-.28-.31-.24-.3-.27-.31-.28-.3-.24-.3-.27-.31-.28-.3-.27-.3-.27-.31-.28-.3-.24-.28-.27-.3-.28-.3-.27-.31-.3-.27-.28-.3-.27-.31-.27-.27-.28-.31-.3-.3-.27-.27-.28-.31-.3-.27-.28-.3-.27-.28-.3-.3-.28-.27-.3-.31-.27-.27-.31-.28-.3-.3-.3-.27-.28-.31-.3-.27-.31-.27-.3-.28-.3-.3-.28-.27-.3-.28-.3-.27-.31-.27-.33-.28-.31-.27-.3-.28-.3-.27-.31-.27-.3-.28-.34-.27-.3-.27-.3-.28-.34-.27-.3-.27-.34-.28-.3-.24-.33-.27-.31-.28-.33-.27-.34-.24-.3-.28-.33-.27-.34-.24-.33-.28-.31-.27-.33-.24-.34-.28-.33-.24-.33-.27-.34-.25-.33-.27-.37-.24-.33-.25-.34-.27-.33-.24-.36-.24-.34-.28-.33-.24-.37-.24-.33-.25-.34-.24-.36-.24-.36-.28L415,99l-.36-.24-.37-.25-.33-.24-.37-.24-.36-.25-.37-.24-.33-.24-.37-.21-.36-.25-.36-.24-.37-.24-.39-.25-.37-.21-.36-.24-.37-.25-.36-.21-.37-.24-.39-.21-.37-.25-.39-.24-.37-.21-.36-.25-.4-.21-.39-.21-.37-.24-.39-.22-.4-.24-.36-.21-.39-.22-.4-.21-.39-.24-.4-.21-.39-.22-.4-.21-.39-.21-.4-.21-.39-.22-.4-.21-.94-.52-1-.48-.95-.52-.94-.49-.94-.51-1-.49-.94-.48-.49-.25-.46-.24-.48-.24-.49-.25-.45-.24-.49-.24-.49-.25-.45-.24-.49-.24-.48-.25-.46-.24-.49-.24-.48-.21-.46-.25-.48-.24-.46-.24-.49-.22-.48-.24-.46-.24-.48-.21-.49-.25-.49-.21-.45-.24-.49-.22-.48-.24-.46-.21-.49-.25-.48-.21L380.2,80l-.45-.21-.49-.22-.49-.21-.48-.24-.46-.21-.49-.22-.48-.21-.49-.21-.45-.22-.49-.21-.49-.21-.48-.21-.49-.22-.45-.21-.49-.21-.49-.21-.48-.19-.49-.21-.48-.21-.49-.18-.46-.22-.48-.18-.49-.21-.48-.18-.49-.22-.49-.18-.48-.21-.49-.18-.49-.19-.48-.18-.49-.21-.48-.18-.49-.19-.49-.18-.48-.18-.49-.18-.48-.19-.49-.18-.49-.15-.48-.18-.49-.18-.49-.19-.51-.15-.49-.18-.48-.15L358,71l-.49-.15-.48-.18-.49-.15-.52-.15-.48-.16L355,70l-.51-.15-.49-.15-.49-.15-.48-.15-.52-.16-.49-.15-.48-.12-.52-.15-.48-.15-.52-.13-.49-.15-.51-.15-.49-.12-.49-.12-.51-.15-.52-.13-.48-.12-.49-.15-.52-.12L345,67.2l-.49-.12L344,67l-.51-.12-.49-.09-.52-.12L342,66.5l-.52-.12-.49-.09-.51-.13-.52-.09-.51-.09-.49-.12-.52-.09-.33-.06-.34-.06-.3-.06-.33-.06-.31-.06-.33-.07-.31-.06-.33,0-.33-.06-.31-.06-.33-.06-.31,0-.33-.06-.3-.06-.34-.06-.33,0-.34-.06-.3,0-.34-.06-.3,0-.33-.06-.34,0-.33-.06-.31,0-.33-.06-.33,0-.31,0-.33-.06-.34,0-.3,0-.33-.06-.34,0-.33,0-.31,0-.33,0-.33-.06-.31,0-.33,0-.34,0-.33,0-.34,0-.33,0-.3,0-.34,0-.33,0-.34,0h-.3l-.33,0-.34,0-.33,0-.34,0h-.3l-.34,0-.33,0h-.33l-.34,0-.33,0h-.31l-.33,0h-.33l-.34,0h-.33l-.34,0h-.33l-.31,0h-.33l-.33,0h-1l-.3,0h-1l-.34,0h-2.64Zm.7-12.16h2.13l.36,0h1.06l.37,0h.7l.36,0h.37l.36,0h.37l.33,0h.36l.37,0h.36l.34,0h.36l.37,0,.36,0h.34l.36,0,.36,0,.34,0h.36l.37,0,.36,0,.34,0,.36,0,.37,0,.33,0,.37,0,.36,0,.36,0,.34,0,.36,0,.37,0,.33,0,.37,0L328,52l.34,0,.36,0,.36,0,.34.06.36,0,.37,0,.33.06.37,0,.33.06.37,0,.36.06.33,0,.37.06.36,0,.34.06.36.06.34,0,.36.06.37.07.33,0,.36.06.34.06.36.06.37.06.33.06.37,0,.33.06.37.06.33.06.36.06.34.06.36.06.37.1.33.06.34.06.36.06.55.12.58.09.54.12.55.12.58.13.54.09.55.12.55.12.54.15.55.12.58.12.55.13.54.15.55.12.55.12.54.15.55.16.52.12.54.15.55.15.55.15.54.12.52.16.55.15.54.15.55.18.52.15.54.16.52.15.55.18.55.15.51.18.55.16.52.18.51.15.55.18.52.19.54.15.52.18.52.18.51.18.55.19.52.18.51.18.52.18.55.19.51.18.52.21.52.18.51.19.52.21.51.18.52.21.52.19.51.21.52.18.52.21.51.22.52.18.49.21.51.21.52.22.52.21.51.18.49.21.52.25.51.21.49.21.51.21.52.22.49.21.51.21.52.22.49.24.51.21.49.21.52.25.48.21.52.24.48.22.52.24.49.21.51.24.49.22.49.24.51.24.49.22.52.24.48.24.49.21.48.25.52.24.49.24.48.25.49.24.51.21.49.25.49.24.48.24.49.24.52.25.48.24.49.27.48.25.49.24.49.24.48.25.49.24.49.24.48.25.52.27.45.24.52.25.49.24,1,.52,1,.51.94.49,1,.51,1,.52,1,.52,1,.48.43.25.42.24.43.21.42.25.46.24L409,81l.43.21.4.25.42.24.43.24.42.25.43.24.42.24.4.25.42.24.4.24.42.25.4.24.42.24.4.27.42.25.4.24.42.24.4.28.39.24.4.27.39.25.4.24.39.27.4.25.39.27.4.27.39.25.4.27.39.27.4.25.36.27.4.27.39.28.37.24.39.27.37.28.39.27.37.27.39.28.37.27.36.27.37.28.39.27.37.27.36.31.36.27.37.28.36.27.37.3.36.28.37.27.36.3.37.28.33.27.37.3.36.28.37.3.33.28.36.3.34.27.36.31.34.3.36.27.34.31.33.3.33.31.37.27.33.3.34.31.33.3.34.3.33.31.33.3.34.31.33.3.34.3.33.31.34.3.3.3.33.31.34.3.33.31.31.3.33.33.3.31.34.3.3.34.34.3.3.3.3.34.31.3.33.31.31.33.3.3.3.34.31.3.3.34.31.33.3.3.3.34.31.3.3.34.3.33.31.33.27.31.31.33.3.34.27.33.31.34.27.3.3.33.28.34.3.33.27.34.28.33.3.34.28.33.27.33.27.34.31.33.27.37.27.33.28.34.27.33.27.33.28.34.27.36.24.34.28.33.27.33.27.37.25.33.27.37.27.33.25.34.27.36.24.34.28.36.24.33.27.37.25.33.24.37.27.33.25.37.24.36.24.34.25.36.24.33.24.37.24.36.25.37.24.33.24.37.25.36.24.37.24.36.25.34.21.36.24.36.25.37.21.36.24.37.21.36.25.37.21.36.24.37.22.36.24.37.21.36.21.37.22.36.24.36.21.4.22.36.21.37.21.36.21.37.22.36.21.4.21.36.21.37.22.36.21.4.21.36.18.37.22.39.21.37.18.39.21.36.19.37.21.39.21.37.18.39.22.37.18.39.18.37.21.39.19.37.18.39.18.37.21.39.19.4.18.36.18.4.18.36.19.4.18.39.18.37.18.39.18.4.19.39.18.37.15.39.18.4.19.39.18.37.15.39.18.4.15.39.19.4.18.39.15.37.15.39.19.4.15.39.18.4.15.39.15.4.16.39.18.4.15.39.15.4.15.39.16.39.15.4.15.39.15.4.15.39.15.4.16.39.15.4.15.39.15.4.12.43.16.39.15.4.15.39.12.4.15.39.12.43.16.39.12.4.15.39.12.43.15.39.13.4.15.39.12.43.12.39.12.4.15.42.13.4.12.39.12.43.12.39.12.4.12.42.12.4.16.39.09.43.12.39.12.43.12.39.12.4.13.42.12.4.09.42.12.4.12.42.09.4.12.39.13.43.09.43.12.39.09.43.12.39.09.43.09.39.12.43.1.39.12.43.09.39.09.43.09.42.12.4.09.42.09.4.1.42.09.43.09.39.09.43.09.39.09.43.09.42.09.4.09.42.1.43.09.4.06.42.09.43.09.39.09.43.06.42.09.4.09.42.06.43.1.42.06.4.09.42.06.43.09.39.06.43.09.42.06.43.06.4.09.42.07.43.06.42.09.43.06.39.06.43.06.42.06.43.06.39.06.43.06.42.09.43.06.42,0,.4.07.42.06.43.06.43.06.42.06.4.06.42.06.43,0,.42.06.43.06.42,0,.4.06.42.06.43,0,.42.07.43,0,.42.06.4,0,.42.06.43,0,.43.06.42,0,.43.06.42,0,.4,0,.42,0,.43.06.42,0,.43,0,.42,0,.43,0,.39.06.43,0,.42,0,.43,0,.43,0,.42,0,.43,0,.42,0,.4,0,.42,0,.43,0,.42v.43l0,.42,0,.43,0,.39,0,.43v.42l0,.43,0,.43v.42l0,.43,0,.42v.4l0,.42v.43l0,.42v.43l0,.42v.43l0,.39v.43l0,.42v.86l0,.42V230l0,.42v7.14l0,.43v1.24l0,.43v.82l0,.42v.86l0,.39v.43l0,.42v.43l0,.39v.43l0,.39v.43l0,.42,0,.43v.39l0,.43v.42l0,.4,0,.42,0,.43v.42l0,.4,0,.43,0,.39,0,.43,0,.42v.4l0,.42,0,.43,0,.39,0,.43,0,.39,0,.43,0,.42,0,.4,0,.42,0,.4-.06.42,0,.4,0,.42,0,.4,0,.42,0,.4-.06.42,0,.43,0,.4-.06.42,0,.4,0,.39-.06.43,0,.39,0,.43-.07.39,0,.43-.06.39,0,.4-.06.42,0,.4-.06.42,0,.4-.06.42,0,.4-.06.39-.06.43,0,.39-.06.4-.06.42,0,.4-.06.39-.07.43,0,.39-.06.4-.06.39-.06.43-.06.36,0,.37-.06.39-.06.4-.06.36-.06.4-.06.39-.09.37-.07.39-.06.4-.09.39-.06.37-.06.39-.09.4-.09.39-.06.4-.09.39-.09.4-.1.39-.06.4-.09.39-.09.4-.09.39-.09.4-.12.39-.09.43-.09.39-.1.4-.12.39-.09.43-.09.39-.12.4-.09.42-.12.4-.09.42-.13.4-.12.42-.09.4-.12.42-.12.4-.12.42-.12.43-.13.4-.09.42-.12.43-.12.39-.15.43-.12.42-.13.43-.12.39-.12.43-.12.42-.15.43-.12.42-.13.43-.12.42-.15.43-.12.43-.15.42-.12.43-.16.42-.12.43-.15.42-.12.43-.27.85-.31.88-.27.85-.27.85-.31.88-.3.88-.28.85-.3.88-.3.89-.31.85-.3.88-.31.88-.3.88-.3.88-.61,1.76-.61,1.77-.61,1.76-.63,1.79-.61,1.76-.31.88-.3.89-.3.88-.31.91-.3.88-.31.88-.3.88-.3.88-.31.88-.27.89-.3.88-.31.88-.27.88-.31.88-.27.88-.15.46-.15.42-.12.43-.16.45-.12.43-.15.45-.12.43-.15.43-.12.45-.16.43-.12.42-.15.46-.12.42-.12.43-.15.42-.13.43-.12.45-.12.43-.12.43-.15.42-.12.43-.13.42-.12.43-.12.42-.12.43-.12.42-.12.43-.09.42-.13.43-.12.42-.12.43-.09.43-.12.42-.12.43-.09.39-.13.43-.09.42-.12.43-.09.39-.09.43-.12.39-.09.43-.09.42-.1.4-.12.42-.09.4-.09.39-.09.43-.09.39-.06.4-.09.42-.09.4-.1.39-.06.4-.09.39-.09.4-.06.42-.09.4-.06.39-.06.4-.09.36-.06.4-.07.39-.06.4-.06.39-.06.37-.06.39-.06.37-.06.39-.06.4-.06.36,0,.37-.06.39,0,.37-.06.36,0,.4-.07.36,0,.37,0,.36,0,.37,0,.36,0,.36,0,.37,0,.36,0,.34,0,.36v.37l0,.33,0,.37v.51l0,.19v1l0,.21v1.49l0,.15v.82l0,.18V372l0,.15v.31l0,.18v.3l0,.16v.18l0,.15v.15l0,.15v.16l0,.15v.15l0,.15v.15l0,.16v.15l0,.15.1.73.09.73.09.73.09.73.09.73.09.69.06.73.09.73.09.7.1.7.06.73.09.7.09.7.06.7.09.7.09.69.06.7.09.67.06.7.07.7.09.67.06.7.09.66.06.67.06.7.06.67.09.67.06.67.06.67.06.66.06.64.07.67.06.67.06.64.06.67.06.63.06.67.06.64,0,.64.06.67.06.63.06.64,0,.64.06.61.06.64,0,.63.06.64,0,.64.06.61,0,.64.06.6,0,.61,0,.64.06.61,0,.61,0,.6,0,.64,0,.61.06.61,0,.6,0,.58,0,.61,0,.61,0,.6v.58l0,.61,0,.61,0,.57,0,.58v.61l0,.58,0,.57v.58l0,.61,0,.58v.57l0,.58V426l0,.54v1.16l0,.57v6.14l0,.55v1.67l0,.55v.51l0,.55v.55l0,.54v.55l0,.52,0,.54v.55l0,.52,0,.55,0,.54v.52l0,.52,0,.54,0,.52,0,.52,0,.54,0,.52-.06.52,0,.54,0,.52,0,.52-.06.51,0,.52,0,.51-.06.52,0,.52-.06.51,0,.52-.06.52-.06.51,0,.49-.06.52-.06.51-.06.52-.06.49-.06.51-.06.52,0,.48-.09.52-.06.49-.06.51-.06.49-.06.52-.07.48-.09.52-.06.49-.06.51-.09.49-.06.48-.09.52-.09.49-.06.48-.09.49-.1.52-.06.48-.09.49-.09.48-.09.49-.09.49-.09.51-.09.49-.09.49-.1.48-.09.49-.09.48-.12.49-.09.49-.09.48-.12.49-.09.48-.13.46-.09.49-.12.48-.09.49-.12.49-.12.48-.09.46-.13.48-.12.49-.12.49-.12.48-.12.46-.12.48-.12.49-.13.49-.15.45-.12.49-.12.48-.12.46L458,483l-.13.48-.15.46-.12.48-.15.46-.12.49-.16.48-.15.46-.15.48-.12.49-.15.46-.15.48-.16.46-.15.48-.15.49-.15.46-.15.45-.19.49-.15.48-.15.46-.18.49-.15.45-.16.49-.18.45-.18.49-.15.49-.19.45-.15.49-.18.45-.18.49-.18.46-.19.48-.18.46-.18.48-.18.49-.19.46-.18.48-.18.46-.18.48-.22.46-.18.49-.18.48-.21.46-.18.48-.22.46-.18.49-.21.48-.22.46-.21.48-.18.49-.21.46-.22.48-.21.49-.21.45-.21.49-.22.49-.21.45L448,510l-.24.48-.22.49-.21.49-.24.45-.22.49-.24.48-.21.49-.24.49-.25.48-.09.22-.12.24-.12.21-.09.21-.13.25-.12.21-.12.21-.12.25-.12.21-.12.24-.12.21-.13.22-.12.24-.12.21-.12.21-.12.22-.12.24-.15.21-.13.22-.12.21-.15.24-.12.21-.15.22-.12.21-.16.21-.12.22-.15.24-.12.21-.15.21-.16.22-.12.21-.15.21-.15.21-.15.22-.15.21-.16.21-.15.22-.15.21-.15.21-.15.21-.16.22-.15.21-.15.21-.15.21-.15.22-.19.21-.15.21-.15.21-.18.22-.15.18-.16.21-.18.21-.15.22-.18.21-.15.18-.19.22-.18.21-.15.21-.18.18-.19.22-.15.21-.18.21-.18.18-.18.22-.19.21-.18.18-.15.21-.21.19-.16.21-.18.21-.21.18-.18.22-.19.18-.18.21-.18.18-.18.22-.22.18-.18.21-.18.18-.18.22-.22.18-.18.21-.21.18-.18.22-.22.18-.18.18-.21.21-.18.19-.22.18-.21.21-.18.18-.21.19-.22.21-.21.18-.18.18-.21.22-.22.18-.21.18-.21.18-.21.18-.22.22-.21.18-.21.18-.21.18-.22.19-.21.18-.21.18-.22.21-.24.19-.21.18-.21.18-.22.18-.24.19-.21.18-.22.18-.24.18-.21.18-.24.19-.22.18-.24.18-.21.18-.24.16-.22.18-.24.18-.24.18-.22.19-.24.18-.24.18-.25.18-.21.15-.24.19-.24.18-.25.18-.24.15-.24.19-.25.18-.24.18-.24.15-.25.18-.24.16-.24.18-.25.18-.24.15-.24.19-.28.18-.24.15-.24.18-.24.15-.28.19L418,544l-.24.18-.28.15-.24.18-.24.16-.28.18-.27.15-.24.18-.25.15-.27.19-.27.15-.25.15-.27.18-.24.15-.28.16-.27.18-.27.15-.25.15-.27.19-.27.15-.28.15-.27.15-.27.15-.28.19-.24.15-.27.15-.28.15-.3.15-.27.15-.28.19-.27.15-.28.15-.27.15-.27.15-.28.16-.3.15-.27.15-.28.15-.27.15-.27.16-.31.15-.27.15-.3.15-.28.15-.27.13-.3.15-.28.15-.3.15-.28.15-.3.16-.27.15-.31.12-.27.15-.3.15-.31.15-.27.13-.31.15-.3.15-.3.15-.28.12-.3.16-.3.12-.31.15-.3.15-.28.12-.3.15-.3.13-.31.15-.3.12-.3.15-.31.12-.3.15-.31.13-.3.15-.3.12-.34.15-.3.12-.31.15-.3.13-.3.12-.31.15-.33.12-.31.12-.3.15-.33.13-.31.12-.3.12-.34.15-.3.12-.3.12-.34.13-.3.12-.34.15-.3.12-.33.12-.31.12-.33.13-.34.12-.3.12-.33.12-.31.12-.33.12-.34.12-.33.13-.3.12-.34.12-.33.12-.31.12-.33.12-.33.13-.34.09-.33.12-.31.12-.33.12-.37.12-.3.09-.33.13-.34.12-.33.12-.34.09-.33.12-.34.12-.33.09-.36.13-.34.12-.33.09-.34.12-.33.09-.34.12-.33.09L379,562l-.34.09-.33.12-.37.09-.33.12-.34.09-.33.12-.36.09-.34.1-.33.12-.37.09-.33.09-.37.12-.33.09-.37.09-.33.12-.36.1-.34.09-.36.09-.34.09-.36.12-.37.09-.33.09-.37.09-.33.1-.36.09-.37.09-.36.09-.34.09-.36.09-.37.09-.36.09-.34.09-.36.1-.36.09-.37.09-.36.09-.34.06-.36.09-.37.09-.36.09-.37.09-.36.07-.37.09-.36.09-.36.09-.37.06-.36.09-.37.09-.36.06-.37.09-.36.06-.37.1-.39.09-.37.06-.36.09-.37.06-.36.09-.37.06-.36.06-.39.09-.37.06-.36.1-.37.06-.39.06-.37.09-.36.06-.4.06-.36.09-.37.06-.39.06-.37.06-.39.06-.37.1-.36.06-.4.06-.36.06-.4.06-.36.06-.4.06-.36.06-.4.06-.36.06-.39.06-.4.06-.36.06-.4.07-.36.06-.4.06-.39,0-.37.06-.39.06-.4.06-.36.06-.4,0-.39.06-.37.06-.39,0-.4.06-.39.06-.37,0-.39.07-.4,0-.39.06-.4.06-.36,0-.4.06-.39,0-.4,0-.39.06-.4,0-.39.06-.4,0-.39,0-.4.06-.39,0-.4,0-.39.06-.4,0-.39,0-.4,0-.39,0-.4.06-.39,0-.4,0-.39,0-.4,0-.39,0-.4,0-.39,0-.43,0-.39,0-.4,0-.39,0-.4,0h-.39l-.4,0-.42,0-.4,0-.39,0-.4,0h-.42l-.4,0-.39,0h-.43l-.39,0-.4,0h-.39l-.43,0h-.39l-.4,0h-.42l-.4,0h-.39l-.43,0h-.39l-.43,0h-.82l-.39,0h-1.22l-.43,0h-1.64l-.39,0h-4.13l-.4,0H309l-.39,0h-.86l-.39,0h-.85l-.4,0h-.42l-.4,0h-.85l-.42,0-.4,0h-.42l-.43,0h-.42l-.4,0-.42,0h-.43l-.43,0-.42,0h-.4l-.42,0-.43,0-.42,0-.43,0-.39,0-.43,0h-.42l-.43,0-.42,0-.4,0-.42,0-.43-.06-.42,0-.43,0-.43,0-.42,0-.4,0-.42,0-.43-.06-.42,0-.43,0-.42,0-.43-.06-.42,0-.43-.06-.42,0-.43,0-.3-.06-.37,0-.36,0-.4-.06-.39-.06-.43-.06-.45-.06-.46-.06-.49-.06-.48-.1-.52-.06-.55-.09-.27-.06-.27,0-.31-.06-.27,0-.3-.06-.31-.06-.3,0-.3-.06-.31-.06-.3-.06L280,569l-.3-.06-.33-.06-.34-.06-.33-.06-.34-.06-.33-.06-.37-.09-.33-.06-.37-.06-.36-.09-.36-.06-.37-.1-.36-.06-.37-.09-.39-.09-.37-.06-.39-.09-.4-.09-.39-.09-.4-.09-.39-.1-.4-.09-.39-.09-.43-.09-.39-.09-.43-.12-.42-.09-.43-.09-.39-.13-.46-.09-.43-.12-.42-.09-.43-.12-.45-.12-.46-.12-.42-.13-.46-.09-.45-.12-.46-.12-.46-.12-.45-.15-.46-.12-.45-.13-.49-.15-.46-.12-.48-.12-.46-.15-.48-.12-.49-.16-.49-.15-.48-.15-.49-.15-.48-.12-.49-.16-.49-.15-.48-.18-.52-.15-.49-.15-.51-.16-.49-.18-.51-.15-.52-.18L253,562l-.51-.19-.52-.18-.52-.18-.51-.15-.52-.19-.52-.18-.51-.21-.55-.18-.52-.18-.51-.19-.52-.21-.55-.18-.51-.21-.55-.19-.52-.21-.54-.21-.55-.22-.52-.18-.54-.21-.55-.24-.55-.22-.54-.21-.52-.21-.55-.24-.55-.22-.54-.24-.55-.21-.55-.25-.54-.24-.55-.24-.55-.25-.54-.24-.55-.24-.58-.24-.54-.25-.55-.27-.55-.24-.55-.28-.57-.24-.55-.27L231,553l-.54-.27-.58-.27-.27-.13-.28-.15-.27-.12-.27-.15-.28-.12-.3-.15-.28-.16-.27-.12-.27-.15-.28-.15-.27-.12-.27-.16-.31-.15-.27-.15-.27-.15-.28-.12-.27-.15-.27-.16-.31-.15-.27-.15-.27-.15-.28-.15-.27-.16-.27-.15-.28-.15-.3-.15-.28-.15-.27-.16-.27-.18-.28-.15-.27-.15-.27-.15-.31-.16-.24-.18-.3-.15-.28-.15-.27-.18-.27-.16-.28-.15-.27-.18-.27-.15-.28-.18L218,546l-.3-.18-.28-.15-.27-.18-.28-.16-.27-.18-.27-.15-.28-.18-.27-.18-.27-.16-.28-.18-.27-.18-.27-.18-.28-.15-.27-.19-.27-.18-.28-.18-.27-.18-.27-.19-.28-.18-.27-.18-.27-.18-.28-.19-.27-.18-.27-.18-.28-.18-.27-.18-.28-.19-.24-.18-.27-.21-.28-.18-.27-.19-.27-.18-.28-.21-.27-.18-.27-.19-.25-.21-.27-.18-.27-.21-.28-.19-.24-.21-.27-.18-.28-.21-.27-.19-.24-.21-.28-.18-.27-.21-.27-.22-.25-.18-.27-.21-.27-.21-.25-.22-.27-.21-.24-.18-.28-.21-.27-.22-.24-.21-.28-.21-.24-.22-.27-.21-.28-.21-.24-.21-.24-.22L201,534l-.24-.21-.27-.21-.25-.25-.27-.21-.24-.21-.24-.22-.28-.24-.24-.21-.27-.21-.25-.25-.24-.21-.24-.21-.28-.25-.24-.24-.24-.21-.25-.21-.27-.25-.24-.24-.25-.21-.24-.25-.24-.24-.25-.21-.27-.24-.24-.25-.24-.24-.25-.24-.24-.25-.24-.21-.25-.24-.24-.25-.24-.24-.25-.24-.21-.24-.24-.25-.25-.27-.24-.24-.24-.25-.24-.24-.22-.24-.24-.25-.24-.27-.25-.24-.21-.25-.24-.27-.21-.24-.25-.28-.24-.24-.21-.27-.25-.25-.21-.27-.24-.24-.22-.28-.24-.27-.21-.24-.24-.28-.22-.27-.21-.24L187,520l-.22-.27-.21-.27-.21-.28-.24-.24-.22-.27-.21-.31-.21-.27-.21-.24-.25-.31-.21-.27-.21-.27-.22-.28-.21-.27-.21-.27-.18-.31-.22-.27-.21-.27-.21-.31-.21-.27-.22-.28-.21-.3-.18-.27-.21-.31-.22-.27-.18-.3-.21-.28-.21-.3-.19-.31-.21-.3-.18-.27-.21-.31-.19-.3-.21-.3-.18-.28-.18-.3-.22-.31-.18-.3-.18-.3-.18-.31-.19-.3-.21-.3-.18-.31-.18-.33-.19-.31-.18-.3-.18-.3-.18-.31-.18-.33-.19-.31-.18-.33-.15-.3-.18-.31-.19-.33-.18-.31-.15-.33-.18-.3-.19-.34-.15-.33-.18-.31-.15-.33-.18-.33-.16-.34-.18-.3-.15-.34-.15-.33-.15-.28,0-.09-.1-.18-.12-.27-.15-.31-.18-.36-.21-.43-.22-.45-.12-.28-.15-.27-.12-.3-.15-.31-.16-.3-.15-.33-.15-.37-.15-.33-.18-.4-.16-.36-.18-.4-.18-.42-.18-.43-.21-.42-.19-.46-.21-.46-.18-.48-.21-.46-.22-.51-.21-.49-.21-.55-.22-.51-.24-.55-.21-.55-.24-.54-.22-.58-.24-.58-.24-.61-.22-.6-.24-.61-.24-.61-.24-.64-.25-.67-.24-.63-.24-.67-.28-.67-.12-.34-.12-.33-.12-.36-.12-.34-.13-.33-.12-.37-.12-.33-.15-.37-.12-.36-.12-.37-.12-.36-.13-.36-.12-.37-.12-.36-.15-.37-.12-.36-.12-.37-.13-.39-.12-.37-.12-.39-.12-.37-.15-.39-.12-.37-.13-.39-.12-.4-.12-.39-.12-.4-.12-.39-.12-.4-.13-.39-.12-.4-.12-.39-.12-.4-.12-.42-.12-.4-.12-.39-.13-.43-.12-.42-.12-.4-.12-.42-.12-.4-.12-.42-.13-.43-.12-.42-.12-.43-.12-.39-.09-.46-.12-.43-.12-.39-.13-.46-.09-.42-.12-.43-.12-.45-.12-.43-.09-.42-.12-.43-.09-.45L159,458l-.12-.46-.09-.42-.09-.46-.12-.45-.09-.43-.12-.45-.1-.46-.09-.46-.12-.42-.09-.46-.09-.45-.09-.46-.12-.45-.09-.46-.1-.46-.09-.45-.09-.46-.09-.45-.09-.49-.09-.45-.09-.46-.09-.46-.06-.48-.1-.46-.09-.45-.06-.49-.09-.46-.09-.48-.06-.46-.09-.48-.06-.46-.09-.49-.06-.45-.07-.49-.06-.45-.09-.49-.06-.49-.06-.45-.06-.49-.06-.48-.06-.46-.06-.49-.06-.48-.06-.49,0-.48-.06-.46-.07-.49,0-.48-.06-.49,0-.48-.06-.49,0-.49,0-.48,0-.49-.06-.49,0-.45,0-.52,0-.45,0-.49,0-.52v-.48l0-.46,0-.48v-.52l0-.49v-.48l0-.49v-1.94l0-.49,0-.49v-1.94l0-.27v-.73l0-.25v-.24l0-.49v-.48l0-.24,0-.49v-.24l0-.25v-.24l0-.24,0-.49v-.27l0-.22v-.24l0-.27,0-.46,0-.27.06-.7,0-.27.06-.46,0-.27,0-.25.07-.66.09-.73.06-.67.09-.7.06-.7.09-.7.06-.67.06-.7.06-.66.09-.7.06-.67L156,405l.06-.67.06-.67.06-.67.06-.66.06-.67.06-.67.06-.67.06-.64.06-.67.06-.66.06-.64,0-.64.06-.67.07-.64.06-.63,0-.64.06-.64,0-.64.06-.64,0-.64.06-.63,0-.64.06-.61,0-.64,0-.6.06-.64,0-.61,0-.64,0-.61.06-.6,0-.61,0-.61,0-.61,0-.6,0-.61,0-.61,0-.61,0-.58,0-.6,0-.58,0-.61v-.57l0-.61,0-.58,0-.58,0-.6v-.58l0-.58,0-.58v-.57l0-.58v-.58l0-.55v-.57l0-.58v-.55l0-.57v-1.13l0-1.09v-1.13l0-.54v-2.74l0-.51V360l0-.52v-3.16l0-.51v-1l0-.48v-1l0-.52v-1l0-.52v-.52l0-.48v-.52l0-.49v-.48l0-.52v-.48l0-.49,0-.49v-.51l0-.49,0-.46v-.51l0-.49,0-.45,0-.49v-.49l0-.48,0-.46,0-.48,0-.49,0-.46V340l0-.46,0-.48,0-.46,0-.46,0-.48,0-.46,0-.45,0-.46,0-.45,0-.46,0-.49-.06-.45,0-.46,0-.42,0-.46,0-.45,0-.46-.06-.46,0-.42,0-.46,0-.45,0-.43-.06-.45,0-.43,0-.46-.07-.42,0-.43,0-.45-.06-.43,0-.42,0-.46-.09-.85-.09-.85-.09-.85-.09-.85-.09-.85L156,321l-.1-.85-.12-.82-.09-.82-.09-.82-.09-.83-.12-.82-.09-.82-.13-.79-.09-.82-.12-.79-.09-.79-.12-.79-.09-.79-.12-.79-.12-.79-.13-.76-.09-.79-.12-.76-.12-.76-.12-.75-.12-.76-.13-.76-.12-.76-.09-.76-.12-.76-.12-.73-.12-.76-.15-.73-.13-.73-.12-.76-.12-.73-.12-.73-.12-.73-.12-.73-.13-.7-.12-.72-.15-.73-.12-.7-.12-.73-.24-1.43-.28-1.4-.24-1.43-.24-1.39-.52-2.8-.52-2.76-.24-1.37-.24-1.37-.25-1.37-.24-1.36-.12-.67-.12-.7-.12-.67-.13-.67-.12-.7-.12-.66-.12-.67-.12-.7-.09-.67-.12-.67-.13-.67-.09-.7-.12-.66-.12-.67-.09-.67-.12-.7-.09-.67-.13-.67-.09-.67-.09-.69-.12-.67-.09-.67-.09-.7-.09-.67-.09-.67-.1-.7-.09-.66-.09-.7-.09-.67-.09-.67-.09-.7-.09-.7-.06-.67-.09-.69-.07-.67-.09-.7-.06-.7-.09-.7-.06-.67,0-.36,0-.34,0-.33,0-.37,0-.33,0-.36,0-.34,0-.36,0-.34,0-.36,0-.34,0-.36,0-.34,0-.36v-.33l0-.37,0-.36,0-.37,0-.33v-.34l0-.36,0-.37v-.36l0-.33,0-.37v-.36l0-.37,0-.33v-.37l0-.36v-.37l0-.33v-.73l0-.36v-.37l0-.36V234l0-.37v-1.09l0-.37V227l0-.76V225.1l0-.39v-.36l0-.76v-.4l0-.36v-.4l0-.36v-.4l0-.39,0-.37v-.39l0-.4,0-.39v-.37l0-.39,0-.4,0-.39v-.4l0-.39,0-.37,0-.39,0-.4,0-.39,0-.43,0-.39,0-.37,0-.42,0-.4.06-.39,0-.4,0-.39,0-.43.06-.39,0-.4.09-.82,0-.39.06-.43,0-.39.06-.43,0-.39.07-.43,0-.39.06-.43.06-.43.06-.39,0-.43.06-.42.06-.4.06-.42.06-.43.06-.42.06-.43.06-.42.06-.43.07-.42.06-.43.06-.42.06-.43.06-.43.09-.42.06-.43.06-.42.09-.46.06-.42.09-.43.07-.45.09-.43.06-.42.09-.46.06-.43.09-.45.09-.46.06-.42.12-.61.13-.64.12-.61.12-.6.12-.61.12-.64.12-.61.15-.64.13-.6.12-.64.15-.61.12-.64.12-.64.15-.6.16-.64.12-.64.15-.61.15-.63.15-.64.13-.64.15-.64.15-.64.15-.63.18-.64.16-.64.15-.64.15-.61.18-.64.15-.63.16-.64.18-.67.18-.64.15-.64.18-.63.19-.64.18-.64.15-.64.18-.64.19-.63.21-.64.18-.64.18-.64.19-.67.18-.63L154,166l.18-.64.22-.64.18-.64.21-.64.21-.63.19-.64.21-.67.21-.64.21-.64.22-.63.21-.64.24-.64.21-.64.22-.64.21-.63.24-.64.22-.64.24-.61.24-.64.21-.63.25-.64.24-.64.24-.64.13-.3.24-.64.12-.3.12-.34.12-.3.12-.31.13-.33.12-.3.12-.31.15-.3.12-.34.12-.3.13-.33.12-.31.27-.61.27-.63.4-.92.24-.63.15-.31.13-.3.15-.3.12-.34.15-.3.12-.31.15-.3.13-.3.27-.61.15-.31.12-.33.31-.61.12-.3.15-.31.15-.3.15-.3.13-.31.15-.3.15-.3.15-.31.15-.3.12-.28.16-.3.15-.3.15-.31.15-.3.15-.31.16-.3.15-.3.15-.31.15-.27.15-.3.16-.31.15-.3.15-.28.15-.3.15-.3.34-.58.15-.3.15-.28.15-.3.16-.31.18-.3.3-.58.18-.27.16-.3.15-.28.18-.3.15-.27.18-.31.34-.58.15-.27.18-.3.15-.28.19-.27.15-.3.18-.28.18-.27.16-.3.18-.28.18-.27.15-.31.18-.27.19-.27.18-.28.15-.27.18-.27.19-.31.36-.54.15-.28.18-.27.19-.27.18-.28.18-.27.18-.27.19-.28.18-.27.21-.27.18-.28.19-.27.18-.27.18-.28.36-.51.22-.28.18-.24.18-.27.18-.28.22-.27.18-.24.21-.31.21-.27.22-.31.21-.27.21-.27.22-.28.21-.3.21-.27.21-.28.22-.3.21-.27.21-.28.24-.27.22-.27.21-.28.21-.27.25-.31.21-.27.21-.27.46-.55.45-.55.22-.27.24-.27.21-.28.24-.27.25-.27L184,108l.24-.27.22-.27.48-.55.21-.27.49-.52.46-.52.24-.27.24-.27.25-.25.24-.27.21-.27.24-.25.49-.51.24-.28.25-.27.48-.49.25-.27.24-.24.24-.28.52-.48.48-.52.49-.52.27-.24.49-.52.24-.24.28-.24.24-.24.24-.25.28-.27.24-.24.27-.25.49-.48.27-.25.28-.24.24-.24.52-.49.27-.24.24-.24.52-.49.27-.24.28-.25.27-.24.52-.46.27-.24.27-.24.25-.21.27-.25.27-.24.28-.21.27-.25.27-.24.28-.21.24-.25.27-.24.28-.21.27-.24.27-.22.28-.24.27-.21.27-.25.58-.45.55-.43.27-.24.28-.21.27-.22.27-.24.31-.21.27-.21.27-.22.28-.24.3-.21.27-.22.28-.21.57-.45.58-.43.28-.21.57-.43.28-.21.3-.21.27-.22.31-.21.27-.21.3-.21.28-.19.3-.21.31-.21.27-.21.3-.22.58-.39.3-.21.28-.22.3-.18.3-.21.31-.21.58-.4.3-.21.3-.18.28-.22.3-.18.31-.21.6-.4.58-.39.3-.18.31-.22.3-.18.31-.18.3-.21.3-.19.31-.18.6-.39.31-.19.3-.18.31-.18.3-.18.3-.22.31-.18.33-.18.61-.36.3-.19.31-.18L224,75l.3-.19.3-.18.31-.18.3-.15.33-.19.31-.18.3-.18.64-.36.3-.16.34-.18.3-.18.64-.34.3-.18.34-.15.3-.18.31-.18.33-.16.64-.33.64-.33.3-.19.33-.15.31-.18.33-.15.31-.16.33-.18.34-.15.3-.15.33-.18.31-.16.33-.15.34-.15.3-.18.33-.15.64-.31.34-.15.33-.15.33-.15.31-.15.33-.16.34-.15.33-.15.3-.15.34-.15.33-.16.34-.15.33-.15.31-.15.33-.15.33-.13.34-.15.33-.15.34-.15.33-.12.3-.15.34-.16.67-.27.33-.15.34-.12.33-.16.33-.12.34-.15.33-.12.34-.15.67-.28.33-.12.33-.15.34-.12.33-.12.34-.15.33-.13.37-.12.33-.12.67-.27.67-.25.33-.12.33-.12.37-.15.33-.12.34-.12.33-.13.34-.12.33-.12.37-.12.33-.12.33-.09.34-.12.33-.13.37-.12.67-.24.36-.09.33-.12.34-.12.33-.13.37-.09.33-.12.34-.12.36-.09.33-.12.34-.09.36-.13.34-.12.33-.09.37-.09.33-.12.33-.09.37-.12.33-.09.7-.22.37-.09.33-.09.34-.12.36-.09.33-.09.37-.09.7-.22.33-.09.34-.09.36-.09.37-.09.33-.09.33-.09.37-.1.33-.09.37-.09.7-.18.36-.09.34-.09.36-.06.33-.09.37-.1.33-.09.37-.09.33-.06.37-.09.36-.09.34-.06.36-.09.33-.06.7-.16.37-.09.36-.09.34-.06.36-.06.37-.09.33-.06.36-.09.37-.06.33-.06.37-.1.33-.06.37-.06.36-.06.34-.09.36-.06.36-.06.37-.06.33-.06.37-.06.33-.06.37-.06.36-.06.34-.07.36-.06.37-.06.36-.06.33-.06.37-.06.36-.06.37-.06.33,0,.37-.06.36-.06.34-.06.36,0,.36-.06.37-.07.36,0,.34-.06.36,0,.37-.06.33-.06.37,0,.73-.09.33,0,.36-.06.37,0,.36-.06.34,0,.36,0,.37,0,.36-.06.37,0,.33,0,.37,0,.72-.09.34,0,.36,0,.37,0,.7-.06.36,0,.37,0,.36,0,.36,0,.7,0,.37,0,.36,0,.37,0,.36,0,.7,0,.37,0h.36l.36,0,.7,0,.73,0,.7,0,.73,0h.37l.36,0h.33l.73,0h.73l.7,0H312Z"/><path class="cls-10" d="M297.4,539.37c-71.76-12.52-88.81-45.91-92.94-61.16-7.78-28.75-11.55-84.44-4.56-114,2.43-10.3,7-22,14.86-30.5,17.17-18.72,94-20.33,122.78-15.95,11.52,1.76,21.91,5.74,32.18,10.11,35.79,15.17,48.1,190.67-19.81,207.8C331.77,540.19,308.8,541.34,297.4,539.37Z"/><path class="cls-10" d="M173,223.49a5,5,0,1,1-5,5A5,5,0,0,1,173,223.49Z"/><path class="cls-10" d="M422.16,231.73a5,5,0,1,1-5,5A5,5,0,0,1,422.16,231.73Z"/><path class="cls-3" d="M388.16,309.21s40.5,20.2,43.42,47.34-19.38,35-29.23,16.65-20.72-34.79-37-38.65S362.73,296.2,388.16,309.21Z"/><path d="M416.33,387.73c-7.05,0-13.76-4.49-18-12.38-10.45-19.46-20.24-33.1-34-36.36a13.24,13.24,0,0,1-10.19-10.46c-1.62-7.64,2.15-16.73,9.17-22.11,7.48-5.73,17.3-6.2,27-1.28,2,1,42.76,21.75,45.89,50.92,2,18.83-6.7,28.41-14.75,30.9A16.93,16.93,0,0,1,416.33,387.73ZM377.1,310.84a13.41,13.41,0,0,0-8.29,2.82c-4.6,3.52-6.56,9.36-5.79,13a4.15,4.15,0,0,0,3.38,3.49c19,4.5,30.6,23.48,40,40.92,3.13,5.83,7.84,8.59,12.31,7.21,5.13-1.58,9.7-8.76,8.38-21.22-2.62-24.37-40.54-43.55-40.92-43.74l0,0A19.74,19.74,0,0,0,377.1,310.84Z"/><path class="cls-6" d="M241,258.1h80.34s2.49,100.21-55.06,88.39C234.51,340,241,258.1,241,258.1Z"/><path d="M275.39,352a50.7,50.7,0,0,1-10-1.06c-34.72-7.14-29.6-84.43-28.9-93.22a4.56,4.56,0,0,1,4.54-4.2h80.34A4.56,4.56,0,0,1,325.9,258c.07,2.54,1.23,62.39-26.08,85.24A37.05,37.05,0,0,1,275.39,352Zm-30.11-89.36c-1.29,24,.46,74.95,21.93,79.36,10.71,2.21,19.47.31,26.76-5.78,20-16.77,22.54-59.65,22.8-73.58Z"/><path class="cls-11" d="M262.46,260.62c.88,7.51-.33,21.27,3.16,27.78,1.7,3.16,6.23,3.85,9.21,4.31,17,2.55,18.81-14.95,23.15-29.84"/><polygon class="cls-6" points="262.83 256.07 263.07 256.1 263.31 256.16 263.56 256.19 263.8 256.28 264.04 256.34 264.29 256.43 264.5 256.55 264.74 256.67 264.95 256.8 265.17 256.95 265.35 257.1 265.53 257.25 265.71 257.43 265.89 257.62 266.05 257.8 266.2 258.01 266.35 258.22 266.47 258.44 266.59 258.65 266.69 258.89 266.78 259.13 266.84 259.35 266.93 259.59 266.96 259.86 266.99 260.11 267.02 260.29 267.05 260.5 267.08 260.71 267.08 260.9 267.11 261.11 267.11 261.32 267.14 261.54 267.17 261.75 267.17 261.96 267.2 262.17 267.2 262.39 267.23 262.6 267.23 262.81 267.23 263.02 267.26 263.27 267.26 263.48 267.29 263.9 267.32 264.36 267.32 264.82 267.35 265.24 267.35 265.7 267.38 266.18 267.38 266.64 267.42 267.1 267.42 267.55 267.42 268.04 267.44 268.98 267.48 269.92 267.48 270.89 267.5 271.35 267.5 271.84 267.54 272.32 267.54 272.78 267.57 273.26 267.57 273.75 267.6 274.21 267.63 274.69 267.63 275.15 267.66 275.39 267.66 275.6 267.69 275.85 267.69 276.06 267.69 276.3 267.72 276.55 267.72 276.76 267.75 276.97 267.78 277.21 267.78 277.43 267.81 277.67 267.81 277.88 267.84 278.1 267.87 278.31 267.87 278.55 267.9 278.76 267.93 278.98 267.93 279.19 267.96 279.4 267.99 279.61 268.02 279.83 268.05 280.01 268.05 280.22 268.08 280.44 268.11 280.65 268.14 280.83 268.17 281.04 268.2 281.23 268.24 281.44 268.26 281.62 268.3 281.8 268.33 281.98 268.36 282.17 268.42 282.35 268.45 282.53 268.48 282.71 268.51 282.89 268.54 283.08 268.6 283.23 268.63 283.41 268.66 283.56 268.72 283.75 268.75 283.9 268.78 284.05 268.84 284.2 268.87 284.35 268.93 284.48 268.96 284.63 269.02 284.78 269.06 284.9 269.12 285.05 269.15 285.11 269.15 285.17 269.18 285.24 269.21 285.3 269.24 285.36 269.27 285.42 269.27 285.48 269.3 285.54 269.33 285.57 269.36 285.63 269.39 285.72 269.39 285.75 269.42 285.81 269.45 285.87 269.48 285.9 269.48 285.96 269.51 286.02 269.54 286.06 269.57 286.09 269.57 286.15 269.6 286.21 269.63 286.24 269.63 286.27 269.66 286.27 269.66 286.3 269.69 286.33 269.69 286.36 269.72 286.36 269.75 286.39 269.75 286.42 269.78 286.45 269.81 286.48 269.85 286.48 269.88 286.51 269.88 286.54 269.91 286.57 269.94 286.57 269.97 286.6 270 286.63 270.03 286.66 270.06 286.66 270.09 286.69 270.12 286.72 270.15 286.72 270.18 286.75 270.24 286.79 270.27 286.81 270.3 286.81 270.33 286.85 270.39 286.88 270.42 286.91 270.48 286.94 270.51 286.94 270.54 286.97 270.61 287 270.63 287 270.7 287.03 270.73 287.06 270.76 287.06 270.82 287.09 270.88 287.12 270.91 287.12 270.94 287.15 271 287.18 271.03 287.18 271.09 287.21 271.15 287.21 271.21 287.24 271.24 287.27 271.3 287.27 271.43 287.33 271.52 287.36 271.64 287.39 271.76 287.42 271.85 287.45 272 287.51 272.12 287.54 272.25 287.57 272.37 287.61 272.49 287.64 272.64 287.67 272.76 287.7 272.88 287.73 273 287.76 273.16 287.79 273.28 287.82 273.43 287.85 273.55 287.88 273.7 287.91 273.86 287.94 273.98 287.94 274.1 287.97 274.25 288 274.37 288.03 274.68 288.06 274.95 288.12 275.22 288.15 275.5 288.18 275.68 288.21 275.83 288.24 275.98 288.27 276.13 288.27 276.32 288.3 276.47 288.3 276.59 288.33 276.74 288.33 276.89 288.37 277.05 288.37 277.2 288.37 277.35 288.37 277.47 288.39 277.62 288.39 277.75 288.39 277.9 288.39 278.02 288.39 278.14 288.39 278.29 288.39 278.41 288.39 278.54 288.39 278.66 288.39 278.78 288.37 278.9 288.37 279.02 288.37 279.14 288.33 279.23 288.33 279.39 288.33 279.51 288.3 279.6 288.3 279.72 288.27 279.81 288.27 279.93 288.24 280.05 288.24 280.14 288.21 280.24 288.18 280.36 288.18 280.45 288.15 280.54 288.12 280.66 288.09 280.75 288.06 280.84 288.06 280.94 288.03 281.03 288 281.12 287.97 281.21 287.94 281.3 287.91 281.42 287.88 281.48 287.85 281.57 287.82 281.67 287.79 281.76 287.76 281.85 287.7 281.91 287.67 282 287.64 282.09 287.61 282.15 287.57 282.24 287.51 282.33 287.48 282.39 287.45 282.49 287.39 282.58 287.36 282.67 287.3 282.73 287.27 282.79 287.24 282.88 287.18 282.94 287.15 283.03 287.09 283.12 287.03 283.18 287 283.27 286.94 283.34 286.88 283.4 286.85 283.49 286.79 283.55 286.72 283.64 286.66 283.7 286.6 283.79 286.54 283.85 286.48 283.91 286.42 284 286.36 284.06 286.3 284.13 286.24 284.19 286.18 284.28 286.12 284.34 286.06 284.43 286 284.49 285.9 284.55 285.84 284.61 285.78 284.7 285.69 284.76 285.63 284.82 285.57 284.89 285.48 284.98 285.42 285.04 285.33 285.1 285.24 285.16 285.17 285.25 285.08 285.31 284.99 285.37 284.93 285.43 284.84 285.52 284.75 285.58 284.66 285.64 284.57 285.71 284.48 285.77 284.38 285.86 284.29 285.92 284.2 285.98 284.11 286.04 284.02 286.1 283.93 286.16 283.81 286.22 283.72 286.28 283.63 286.37 283.5 286.44 283.41 286.5 283.32 286.62 283.11 286.68 282.99 286.74 282.89 286.8 282.77 286.86 282.68 286.92 282.56 286.98 282.44 287.04 282.32 287.1 282.23 287.16 282.11 287.23 281.98 287.35 281.74 287.41 281.62 287.47 281.5 287.53 281.38 287.59 281.25 287.65 281.13 287.71 281.01 287.77 280.86 287.83 280.74 287.89 280.62 287.95 280.5 288.01 280.34 288.05 280.22 288.11 280.1 288.17 279.95 288.23 279.83 288.29 279.68 288.35 279.55 288.41 279.4 288.44 279.28 288.5 279.13 288.56 279.01 288.68 278.7 288.71 278.58 288.77 278.43 288.83 278.28 288.9 278.13 288.93 277.97 289.05 277.7 289.14 277.4 289.26 277.09 289.35 276.79 289.44 276.48 289.56 276.18 289.66 275.85 289.75 275.54 289.87 275.24 289.96 274.9 290.05 274.6 290.14 274.27 290.23 273.93 290.36 273.6 290.45 273.26 290.54 272.93 290.63 272.6 290.72 272.26 290.81 271.93 290.9 271.59 290.99 271.23 291.08 270.89 291.3 270.19 291.48 269.5 291.66 268.8 292.03 267.37 292.21 266.67 292.39 265.94 292.6 265.21 292.69 264.88 292.79 264.51 292.88 264.15 293 263.78 293.09 263.42 293.18 263.06 293.3 262.69 293.39 262.33 293.48 261.96 293.61 261.6 293.67 261.35 293.76 261.14 293.88 260.9 293.97 260.69 294.12 260.47 294.24 260.26 294.4 260.05 294.55 259.86 294.73 259.68 294.91 259.5 295.1 259.35 295.31 259.2 295.52 259.04 295.73 258.92 295.94 258.8 296.19 258.68 296.4 258.59 296.64 258.53 296.89 258.44 297.13 258.41 297.37 258.35 297.62 258.31 297.89 258.31 298.13 258.31 298.38 258.35 298.62 258.38 298.89 258.41 299.14 258.47 299.38 258.53 299.59 258.62 299.83 258.71 300.05 258.83 300.29 258.95 300.5 259.07 300.69 259.23 300.9 259.38 301.08 259.53 301.26 259.71 301.44 259.89 301.6 260.11 301.75 260.29 301.87 260.5 301.99 260.71 302.11 260.96 302.2 261.17 302.3 261.41 302.39 261.66 302.42 261.9 302.48 262.14 302.51 262.39 302.54 262.66 302.54 262.9 302.54 263.15 302.51 263.39 302.48 263.66 302.42 263.9 302.36 264.15 302.26 264.48 302.17 264.82 302.05 265.15 301.96 265.52 301.87 265.85 301.78 266.18 301.69 266.55 301.6 266.88 301.51 267.22 301.41 267.58 301.2 268.28 301.02 268.98 300.84 269.71 300.47 271.11 300.29 271.84 300.08 272.56 299.89 273.26 299.8 273.63 299.71 273.99 299.59 274.36 299.5 274.69 299.41 275.06 299.32 275.42 299.2 275.79 299.11 276.15 298.98 276.48 298.89 276.85 298.77 277.21 298.68 277.58 298.56 277.91 298.47 278.28 298.35 278.64 298.22 278.98 298.1 279.34 298.01 279.68 297.89 280.04 297.77 280.37 297.65 280.74 297.52 281.07 297.43 281.25 297.37 281.44 297.31 281.62 297.25 281.77 297.19 281.95 297.13 282.11 297.07 282.29 296.98 282.47 296.92 282.62 296.86 282.81 296.8 282.99 296.7 283.14 296.64 283.32 296.58 283.5 296.49 283.65 296.43 283.81 296.37 283.99 296.28 284.17 296.22 284.32 296.13 284.51 296.07 284.66 295.98 284.81 295.92 284.99 295.82 285.17 295.76 285.33 295.67 285.48 295.58 285.66 295.52 285.81 295.43 285.96 295.34 286.15 295.25 286.3 295.19 286.45 295.1 286.63 295 286.79 294.91 286.94 294.82 287.12 294.73 287.27 294.64 287.42 294.55 287.57 294.46 287.76 294.37 287.88 294.27 288.06 294.18 288.21 294.09 288.37 294 288.52 293.88 288.67 293.79 288.82 293.7 288.97 293.57 289.12 293.48 289.28 293.39 289.43 293.27 289.58 293.18 289.73 293.06 289.88 292.94 290.04 292.85 290.16 292.73 290.31 292.6 290.46 292.51 290.61 292.39 290.76 292.27 290.89 292.15 291.04 292.03 291.19 291.9 291.31 291.78 291.46 291.66 291.59 291.54 291.74 291.42 291.86 291.3 292.01 291.14 292.13 291.02 292.25 290.9 292.41 290.75 292.53 290.63 292.68 290.48 292.8 290.36 292.92 290.2 293.04 290.08 293.17 289.93 293.29 289.78 293.41 289.63 293.53 289.47 293.65 289.35 293.77 289.2 293.89 289.05 294.02 288.9 294.11 288.74 294.23 288.56 294.35 288.41 294.44 288.26 294.56 288.11 294.65 287.92 294.78 287.77 294.87 287.62 294.96 287.44 295.08 287.29 295.17 287.1 295.26 286.92 295.35 286.77 295.44 286.59 295.54 286.4 295.63 286.22 295.72 286.07 295.81 285.89 295.9 285.71 295.96 285.52 296.05 285.34 296.11 285.13 296.2 284.95 296.26 284.79 296.36 284.58 296.42 284.4 296.48 284.22 296.54 284.04 296.6 283.82 296.66 283.61 296.72 283.43 296.78 283.25 296.84 283.03 296.9 282.85 296.93 282.64 296.99 282.45 297.06 282.24 297.08 282.06 297.12 281.85 297.18 281.63 297.21 281.42 297.24 281.21 297.27 281.03 297.3 280.81 297.33 280.6 297.36 280.39 297.39 280.18 297.42 279.96 297.42 279.75 297.45 279.54 297.45 279.32 297.48 279.08 297.48 278.9 297.48 278.66 297.51 278.44 297.51 278.23 297.51 278.02 297.51 277.81 297.51 277.56 297.51 277.35 297.51 277.11 297.48 276.89 297.48 276.68 297.48 276.44 297.45 276.23 297.45 276.01 297.42 275.77 297.42 275.53 297.39 275.31 297.36 275.07 297.33 274.86 297.3 274.62 297.27 274.37 297.24 274.13 297.21 273.86 297.18 273.55 297.12 273.25 297.06 272.91 297.02 272.73 296.99 272.55 296.96 272.4 296.93 272.19 296.9 272.03 296.84 271.85 296.81 271.67 296.78 271.46 296.75 271.27 296.72 271.09 296.66 270.88 296.63 270.7 296.57 270.48 296.54 270.3 296.48 270.09 296.45 269.88 296.39 269.69 296.32 269.48 296.26 269.27 296.2 269.06 296.14 268.84 296.08 268.63 295.99 268.42 295.93 268.2 295.87 268.08 295.81 267.99 295.78 267.87 295.75 267.78 295.69 267.66 295.66 267.54 295.6 267.44 295.57 267.32 295.5 267.2 295.48 267.11 295.41 267.02 295.38 266.9 295.32 266.78 295.26 266.65 295.2 266.56 295.17 266.47 295.11 266.35 295.05 266.23 294.99 266.14 294.93 266.02 294.87 265.89 294.81 265.77 294.75 265.68 294.69 265.56 294.62 265.47 294.56 265.35 294.5 265.23 294.41 265.11 294.32 265.01 294.26 264.89 294.2 264.8 294.11 264.68 294.05 264.59 293.95 264.47 293.87 264.35 293.77 264.25 293.71 264.16 293.62 264.04 293.53 263.95 293.44 263.83 293.35 263.71 293.26 263.62 293.17 263.52 293.07 263.4 292.95 263.31 292.86 263.22 292.77 263.1 292.65 263.01 292.56 262.92 292.44 262.83 292.31 262.74 292.22 262.64 292.1 262.55 291.98 262.46 291.86 262.37 291.74 262.25 291.62 262.19 291.49 262.1 291.37 262.01 291.22 261.92 291.1 261.85 290.98 261.76 290.86 261.7 290.7 261.61 290.58 261.55 290.46 261.49 290.37 261.43 290.25 261.37 290.13 261.34 290.01 261.28 289.91 261.22 289.79 261.15 289.7 261.13 289.58 261.06 289.46 261.03 289.34 260.97 289.25 260.94 289.12 260.88 289.03 260.82 288.91 260.79 288.79 260.73 288.7 260.7 288.58 260.64 288.46 260.61 288.33 260.58 288.24 260.52 288.12 260.46 287.88 260.37 287.64 260.3 287.42 260.21 287.18 260.15 286.97 260.09 286.72 260 286.48 259.94 286.27 259.88 286.02 259.82 285.78 259.76 285.54 259.73 285.3 259.67 285.05 259.61 284.81 259.55 284.6 259.51 284.35 259.45 284.11 259.42 283.87 259.36 283.63 259.33 283.38 259.27 283.14 259.24 282.89 259.21 282.62 259.15 282.38 259.12 282.14 259.09 281.89 259.06 281.65 259.03 281.41 259 281.16 258.97 280.89 258.94 280.65 258.91 280.4 258.88 280.16 258.85 279.89 258.82 279.64 258.82 279.4 258.79 279.16 258.75 278.88 258.72 278.64 258.72 278.4 258.69 278.13 258.66 277.88 258.66 277.64 258.63 277.37 258.63 277.12 258.6 276.88 258.6 276.61 258.57 276.36 258.57 276.12 258.54 275.85 258.54 275.6 258.51 275.09 258.48 274.6 258.48 274.08 258.45 273.6 258.42 273.08 258.42 272.6 258.39 272.08 258.39 271.59 258.39 271.11 258.36 270.13 258.33 269.19 258.3 268.25 258.3 267.8 258.3 267.34 258.27 266.88 258.27 266.43 258.24 266 258.24 265.58 258.21 265.15 258.21 264.73 258.18 264.33 258.18 263.94 258.15 263.75 258.15 263.54 258.15 263.36 258.12 263.18 258.12 262.99 258.09 262.81 258.09 262.63 258.06 262.45 258.06 262.3 258.06 262.11 258.03 261.93 258.03 261.78 258 261.63 258 261.48 257.96 261.32 257.93 261.14 257.93 260.9 257.9 260.65 257.93 260.38 257.93 260.14 257.96 259.89 258.03 259.65 258.09 259.41 258.15 259.17 258.24 258.92 258.33 258.71 258.45 258.47 258.57 258.25 258.72 258.04 258.88 257.83 259.03 257.65 259.18 257.46 259.36 257.28 259.55 257.13 259.76 256.98 259.97 256.83 260.18 256.67 260.4 256.55 260.61 256.46 260.85 256.37 261.09 256.28 261.34 256.22 261.58 256.16 261.82 256.13 262.07 256.1 262.34 256.07 262.58 256.07 262.83 256.07"/><path class="cls-6" d="M282.67,205.36c13.88.85,24.73,8.72,24.18,17.56s-12.24,15.31-26.16,14.46-24.76-8.72-24.21-17.56S268.75,204.5,282.67,205.36Z"/><polygon class="cls-6" points="280.39 228.02 280.6 228.02 280.81 228.05 281 228.08 281.21 228.11 281.39 228.17 281.57 228.23 281.79 228.29 281.97 228.36 282.15 228.45 282.33 228.54 282.52 228.63 282.67 228.75 282.85 228.84 283 228.96 283.15 229.09 283.31 229.24 283.46 229.39 283.61 229.51 283.73 229.66 283.85 229.84 283.97 230 284.06 230.18 284.19 230.33 284.28 230.51 284.37 230.69 284.43 230.88 284.52 231.09 284.58 231.27 284.61 231.46 284.67 231.67 284.7 231.85 284.73 232.06 284.76 232.25 284.76 232.46 284.76 232.67 284.76 233.03 284.73 233.4 284.73 233.79 284.73 234.16 284.7 234.52 284.7 234.92 284.67 235.28 284.64 235.65 284.64 236.01 284.61 236.41 284.58 236.77 284.58 237.14 284.55 237.5 284.52 237.87 284.49 238.23 284.46 238.59 284.43 238.96 284.4 239.32 284.37 239.69 284.34 240.05 284.31 240.42 284.28 240.78 284.25 241.15 284.19 241.51 284.16 241.88 284.13 242.21 284.1 242.58 284.06 242.94 283.97 243.64 283.91 244.37 283.82 245.07 283.73 245.77 283.58 247.16 283.52 247.86 283.43 248.56 283.34 249.26 283.27 249.96 283.18 250.66 283.12 251.33 283.09 251.69 283.06 252.03 283.03 252.36 283 252.72 282.94 253.06 282.91 253.39 282.88 253.73 282.85 254.09 282.82 254.43 282.82 254.76 282.79 255.09 282.76 255.46 282.73 255.67 282.7 255.85 282.67 256.07 282.61 256.25 282.58 256.46 282.49 256.64 282.42 256.83 282.33 257.01 282.27 257.19 282.15 257.37 282.06 257.56 281.94 257.71 281.82 257.86 281.69 258.04 281.57 258.19 281.42 258.31 281.27 258.47 281.12 258.59 280.97 258.74 280.81 258.83 280.63 258.95 280.48 259.07 280.3 259.17 280.12 259.26 279.93 259.32 279.75 259.41 279.54 259.47 279.36 259.53 279.14 259.56 278.96 259.59 278.75 259.62 278.56 259.65 278.35 259.65 278.14 259.65 277.96 259.65 277.75 259.65 277.56 259.62 277.35 259.59 277.17 259.53 276.95 259.5 276.77 259.44 276.59 259.35 276.38 259.29 276.19 259.2 276.04 259.11 275.86 259.01 275.68 258.89 275.53 258.77 275.35 258.65 275.19 258.53 275.04 258.41 274.92 258.25 274.77 258.1 274.65 257.95 274.52 257.8 274.4 257.62 274.31 257.46 274.19 257.28 274.1 257.1 274.04 256.92 273.95 256.74 273.89 256.55 273.83 256.34 273.76 256.16 273.73 255.94 273.7 255.76 273.67 255.55 273.64 255.37 273.64 255.16 273.64 254.94 273.67 254.76 273.7 254.4 273.73 254.03 273.76 253.67 273.8 253.3 273.83 252.94 273.86 252.57 273.89 252.21 273.92 251.84 273.95 251.48 273.98 251.11 274.01 250.75 274.07 250.38 274.13 249.69 274.22 248.96 274.28 248.26 274.37 247.56 274.43 246.86 274.52 246.16 274.68 244.76 274.77 244.06 274.83 243.37 274.92 242.67 274.98 241.97 275.04 241.63 275.07 241.3 275.1 240.97 275.13 240.6 275.16 240.27 275.19 239.93 275.22 239.6 275.25 239.23 275.28 238.9 275.31 238.56 275.35 238.23 275.38 237.9 275.4 237.53 275.44 237.2 275.44 236.86 275.47 236.53 275.5 236.19 275.53 235.86 275.53 235.53 275.56 235.19 275.56 234.86 275.59 234.49 275.59 234.16 275.62 233.82 275.62 233.49 275.62 233.16 275.65 232.82 275.65 232.49 275.65 232.28 275.68 232.06 275.71 231.88 275.74 231.67 275.77 231.49 275.83 231.27 275.89 231.09 275.95 230.91 276.04 230.73 276.13 230.54 276.23 230.36 276.32 230.18 276.44 230 276.56 229.84 276.68 229.69 276.8 229.54 276.95 229.39 277.08 229.24 277.23 229.12 277.38 228.99 277.56 228.87 277.71 228.75 277.9 228.63 278.08 228.54 278.23 228.45 278.44 228.36 278.63 228.29 278.81 228.23 278.99 228.17 279.2 228.11 279.39 228.08 279.6 228.05 279.78 228.02 279.99 228.02 280.21 228.02 280.39 228.02"/><path class="cls-10" d="M206.49,113.23c5.32-1.61,10.27-.67,11.12,2.07s-2.79,6.29-8.08,7.87-10.27.69-11.12-2.07S201.21,114.84,206.49,113.23Z"/><path class="cls-10" d="M429.7,129.61c3.55,4.25,4.65,9.17,2.46,11s-6.87-.09-10.42-4.35-4.68-9.17-2.46-11S426.14,125.38,429.7,129.61Z"/><path d="M183.59,182.46a4.84,4.84,0,0,1-2.35-.7,4.56,4.56,0,0,1,.46-8.21c.86-.78,2.64-2.67,4.24-4.37,5.44-5.76,13.65-14.46,22.34-20.48,14.78-10.24,23.63-7.11,28.48-2.62,11.48,9.59,6.45,30.48,5.84,32.83a4.56,4.56,0,0,1-8.83-2.29C235,171.75,237,158,230.86,153a2.25,2.25,0,0,1-.24-.21c-1.29-1.21-5.2-4.9-17.15,3.37-7.9,5.48-15.72,13.77-20.9,19.25C188.14,180.13,185.94,182.46,183.59,182.46Zm2-8.7Zm0,0h0Zm0,0Zm0,0Zm0,0Z"/><path d="M355.08,197.47a4.84,4.84,0,0,1-2.35-.7,4.56,4.56,0,0,1,.46-8.21c.86-.78,2.64-2.67,4.24-4.37,5.43-5.75,13.65-14.46,22.34-20.48,14.78-10.24,23.63-7.11,28.48-2.62,11.49,9.59,6.42,30.48,5.8,32.84a4.56,4.56,0,1,1-8.82-2.31c1.26-4.86,3.21-18.59-2.88-23.58a2.25,2.25,0,0,1-.24-.21c-1.29-1.21-5.2-4.9-17.15,3.37-7.91,5.48-15.73,13.77-20.9,19.25C359.63,195.14,357.43,197.47,355.08,197.47Zm2-8.7h0Zm0,0Zm0,0h0Z"/></g></g></svg>