<?xml version="1.0" encoding="UTF-8" standalone="no"?><!DOCTYPE svg PUBLIC "-//W3C//DTD SVG 1.1//EN" "http://www.w3.org/Graphics/SVG/1.1/DTD/svg11.dtd"><svg width="100%" height="100%" viewBox="0 0 144 144" version="1.1" xmlns="http://www.w3.org/2000/svg" xmlns:xlink="http://www.w3.org/1999/xlink" xml:space="preserve" xmlns:serif="http://www.serif.com/" style="fill-rule:evenodd;clip-rule:evenodd;stroke-linecap:round;stroke-linejoin:round;stroke-miterlimit:1.5;"><rect id="_10" serif:id="10" x="0" y="0" width="144" height="144" style="fill:none;"/><g><path d="M136.322,46.174c0,0 -7.64,-5.63 -12.985,-3.58c-5.344,2.051 -4.684,6.96 -0.314,7.046c4.369,0.087 8.469,0.547 10.747,3.215c2.279,2.668 7.407,-3.175 2.552,-6.681Z" style="fill:#d6c295;stroke:#000;stroke-width:1.91px;"/><path d="M86.617,26.039c0,0 -4.891,-4.532 -4.179,-8.49c0.712,-3.958 4.186,-4.148 4.821,-1.144c0.635,3.004 1.492,5.773 3.633,6.994c2.141,1.222 -1.217,5.53 -4.275,2.64Z" style="fill:#d6c295;stroke:#000;stroke-width:1.91px;"/><path d="M43.392,108.077c0,0 9.41,-1.241 11.838,-6.425c2.429,-5.184 -1.451,-8.263 -4.659,-5.295c-3.208,2.968 -6.482,5.479 -9.973,5.137c-3.492,-0.343 -3.135,7.424 2.794,6.583Z" style="fill:#d6c295;stroke:#000;stroke-width:1.91px;"/><path d="M52.889,57.62c0.021,-1.062 -1.79,-3.031 -2.599,-3.551c-9.836,-6.334 -8.392,6.578 -2.102,7.256" style="fill:#61e0ee;"/><path d="M45.819,51.051l0.044,0.001l0.045,0.001l0.046,0.002l0.045,0.002l0.045,0.002l0.046,0.003l0.045,0.003l0.046,0.003l0.046,0.004l0.046,0.005l0.046,0.004l0.046,0.005l0.047,0.006l0.046,0.006l0.047,0.006l0.047,0.007l0.046,0.006l0.047,0.008l0.048,0.008l0.047,0.008l0.048,0.008l0.047,0.009l0.047,0.009l0.048,0.01l0.048,0.01l0.048,0.01l0.049,0.011l0.048,0.011l0.048,0.012l0.049,0.012l0.049,0.012l0.049,0.013l0.048,0.013l0.05,0.013l0.049,0.014l0.05,0.014l0.049,0.015l0.05,0.015l0.05,0.015l0.05,0.016l0.05,0.016l0.05,0.016l0.051,0.017l0.051,0.017l0.051,0.018l0.051,0.018l0.051,0.018l0.051,0.019l0.052,0.019l0.051,0.019l0.052,0.02l0.052,0.02l0.052,0.021l0.053,0.021l0.052,0.021l0.052,0.022l0.053,0.022l0.054,0.023l0.052,0.022l0.054,0.024l0.054,0.024l0.053,0.024l0.054,0.024l0.054,0.025l0.055,0.025l0.054,0.026l0.054,0.026l0.055,0.026l0.055,0.027l0.055,0.027l0.056,0.028l0.056,0.028l0.055,0.028l0.056,0.029l0.056,0.029l0.057,0.03l0.056,0.03l0.057,0.03l0.057,0.031l0.057,0.032l0.058,0.031l0.057,0.032l0.058,0.033l0.058,0.033l0.058,0.033l0.059,0.034l0.058,0.034l0.059,0.034l0.059,0.035l0.059,0.036l0.059,0.036l0.06,0.036l0.06,0.036l0.06,0.037l0.06,0.038l0.061,0.038l0.06,0.038l0.061,0.039l0.063,0.04l0.029,0.019l0.031,0.021l0.029,0.02l0.029,0.02l0.03,0.021l0.03,0.021l0.029,0.022l0.029,0.022l0.029,0.022l0.029,0.022l0.029,0.023l0.03,0.023l0.029,0.023l0.03,0.024l0.057,0.047l0.059,0.05l0.058,0.05l0.059,0.052l0.06,0.054l0.06,0.054l0.06,0.056l0.06,0.057l0.06,0.058l0.061,0.059l0.061,0.061l0.061,0.061l0.061,0.063l0.061,0.063l0.061,0.065l0.062,0.066l0.061,0.066l0.061,0.068l0.061,0.068l0.06,0.069l0.06,0.07l0.061,0.071l0.059,0.072l0.06,0.072l0.058,0.072l0.029,0.037l0.03,0.038l0.029,0.037l0.029,0.037l0.028,0.038l0.029,0.037l0.029,0.038l0.028,0.038l0.027,0.037l0.028,0.039l0.028,0.038l0.027,0.039l0.028,0.039l0.026,0.038l0.027,0.039l0.027,0.039l0.026,0.039l0.026,0.039l0.026,0.04l0.026,0.04l0.025,0.039l0.025,0.04l0.025,0.041l0.025,0.04l0.024,0.04l0.024,0.041l0.023,0.04l0.024,0.041l0.023,0.041l0.022,0.041l0.023,0.041l0.022,0.042l0.022,0.042l0.021,0.043l0.021,0.042l0.021,0.043l0.02,0.043l0.02,0.042l0.019,0.043l0.019,0.044l0.019,0.044l0.018,0.045l0.018,0.044l0.017,0.045l0.017,0.045l0.016,0.046l0.016,0.047l0.015,0.047l0.014,0.048l0.014,0.047l0.013,0.048l0.012,0.049l0.012,0.05l0.011,0.051l0.011,0.052l0.009,0.051l0.008,0.053l0.007,0.053l0.007,0.055l0.005,0.055l0.004,0.056l0.002,0.058l0.001,0.058l0,0.042l-0.002,0.07l-0.007,0.07l-0.01,0.07l-0.014,0.069l-0.017,0.068l-0.022,0.067l-0.025,0.065l-0.029,0.064l-0.032,0.063l-0.035,0.06l-0.039,0.059l-0.042,0.056l-0.045,0.054l-0.048,0.051l-0.051,0.049l-0.053,0.046l-0.056,0.042l-0.058,0.04l-0.06,0.036l-0.062,0.033l-0.064,0.03l-0.065,0.026l-0.067,0.022l-0.067,0.019l-0.069,0.014l-0.069,0.012l-0.07,0.007l-0.07,0.003l-0.071,0l-0.07,-0.005l-0.069,-0.008l-0.07,-0.012l-0.068,-0.016l-0.068,-0.02l-0.066,-0.023l-0.065,-0.027l-0.063,-0.03l-0.061,-0.034l-0.06,-0.037l-0.057,-0.041l-0.056,-0.043l-0.052,-0.047l-0.05,-0.049l-0.047,-0.052l-0.045,-0.055l-0.041,-0.056l-0.038,-0.06l-0.034,-0.061l-0.032,-0.063l-0.027,-0.064l-0.025,-0.066l-0.02,-0.067l-0.017,-0.068l-0.013,-0.069l-0.009,-0.07l-0.005,-0.07l-0.001,-0.062l-0.001,0l0,-0.004l-0.001,-0.005l-0.002,-0.007l-0.002,-0.007l-0.002,-0.01l-0.003,-0.01l-0.004,-0.011l-0.004,-0.012l-0.004,-0.012l-0.005,-0.014l-0.005,-0.015l-0.006,-0.016l-0.007,-0.017l-0.006,-0.016l-0.008,-0.017l-0.008,-0.018l-0.008,-0.02l-0.01,-0.02l-0.009,-0.02l-0.01,-0.02l-0.011,-0.022l-0.011,-0.022l-0.011,-0.021l-0.012,-0.023l-0.012,-0.023l-0.014,-0.024l-0.013,-0.024l-0.013,-0.023l-0.015,-0.025l-0.015,-0.025l-0.015,-0.025l-0.015,-0.026l-0.016,-0.025l-0.016,-0.026l-0.017,-0.027l-0.017,-0.025l-0.017,-0.027l-0.018,-0.027l-0.018,-0.027l-0.019,-0.027l-0.019,-0.027l-0.019,-0.028l-0.019,-0.027l-0.02,-0.028l-0.02,-0.027l-0.02,-0.028l-0.021,-0.029l-0.021,-0.027l-0.02,-0.028l-0.021,-0.028l-0.022,-0.028l-0.022,-0.028l-0.021,-0.028l-0.022,-0.028l-0.022,-0.027l-0.046,-0.057l-0.046,-0.056l-0.046,-0.055l-0.047,-0.055l-0.047,-0.055l-0.047,-0.054l-0.048,-0.054l-0.048,-0.053l-0.048,-0.052l-0.047,-0.051l-0.048,-0.05l-0.048,-0.05l-0.047,-0.049l-0.047,-0.047l-0.046,-0.046l-0.046,-0.045l-0.046,-0.043l-0.044,-0.042l-0.044,-0.041l-0.042,-0.039l-0.042,-0.037l-0.04,-0.035l-0.039,-0.034l-0.038,-0.032l-0.037,-0.03l-0.016,-0.013l-0.017,-0.014l-0.016,-0.012l-0.015,-0.012l-0.016,-0.012l-0.014,-0.011l-0.014,-0.01l-0.013,-0.01l-0.011,-0.008l-0.012,-0.008l-0.011,-0.008l-0.01,-0.007l-0.009,-0.006l-0.009,-0.006l-0.052,-0.033l-0.054,-0.034l-0.053,-0.034l-0.053,-0.033l-0.053,-0.033l-0.052,-0.032l-0.052,-0.032l-0.052,-0.032l-0.052,-0.031l-0.051,-0.03l-0.051,-0.031l-0.05,-0.029l-0.051,-0.03l-0.049,-0.028l-0.05,-0.029l-0.05,-0.028l-0.049,-0.028l-0.048,-0.027l-0.049,-0.026l-0.048,-0.027l-0.048,-0.026l-0.048,-0.025l-0.047,-0.025l-0.047,-0.025l-0.046,-0.024l-0.047,-0.024l-0.046,-0.024l-0.045,-0.023l-0.046,-0.022l-0.045,-0.022l-0.045,-0.022l-0.044,-0.022l-0.044,-0.021l-0.044,-0.02l-0.044,-0.021l-0.043,-0.02l-0.043,-0.019l-0.042,-0.019l-0.042,-0.019l-0.042,-0.018l-0.042,-0.018l-0.042,-0.018l-0.04,-0.017l-0.041,-0.017l-0.041,-0.016l-0.04,-0.016l-0.039,-0.016l-0.04,-0.015l-0.039,-0.015l-0.039,-0.015l-0.038,-0.014l-0.038,-0.014l-0.038,-0.013l-0.037,-0.014l-0.038,-0.012l-0.036,-0.013l-0.037,-0.012l-0.036,-0.012l-0.036,-0.011l-0.035,-0.011l-0.035,-0.011l-0.036,-0.011l-0.034,-0.01l-0.034,-0.009l-0.034,-0.01l-0.033,-0.009l-0.034,-0.009l-0.032,-0.008l-0.033,-0.009l-0.032,-0.007l-0.032,-0.008l-0.031,-0.007l-0.031,-0.007l-0.032,-0.007l-0.03,-0.006l-0.03,-0.006l-0.03,-0.006l-0.029,-0.006l-0.029,-0.005l-0.029,-0.005l-0.028,-0.005l-0.029,-0.004l-0.028,-0.004l-0.027,-0.004l-0.027,-0.004l-0.026,-0.003l-0.027,-0.003l-0.026,-0.003l-0.026,-0.002l-0.025,-0.003l-0.025,-0.002l-0.025,-0.002l-0.024,-0.001l-0.024,-0.002l-0.024,-0.001l-0.023,-0.001l-0.023,-0.001l-0.022,0l-0.023,-0.001l-0.022,0l-0.021,0l-0.022,0l-0.021,0.001l-0.02,0l-0.021,0.001l-0.02,0.001l-0.019,0.001l-0.019,0.001l-0.019,0.002l-0.019,0.001l-0.019,0.002l-0.018,0.002l-0.017,0.002l-0.018,0.002l-0.017,0.003l-0.017,0.002l-0.016,0.003l-0.016,0.003l-0.016,0.002l-0.016,0.003l-0.016,0.004l-0.015,0.003l-0.014,0.003l-0.015,0.003l-0.014,0.004l-0.014,0.003l-0.014,0.004l-0.013,0.004l-0.013,0.004l-0.013,0.004l-0.013,0.004l-0.013,0.004l-0.012,0.004l-0.012,0.004l-0.012,0.005l-0.012,0.004l-0.011,0.005l-0.011,0.004l-0.011,0.005l-0.011,0.005l-0.01,0.004l-0.01,0.005l-0.011,0.005l-0.01,0.005l-0.01,0.005l-0.01,0.005l-0.009,0.005l-0.01,0.006l-0.009,0.005l-0.009,0.005l-0.009,0.006l-0.009,0.005l-0.008,0.006l-0.009,0.005l-0.009,0.006l-0.008,0.006l-0.008,0.006l-0.009,0.005l-0.008,0.006l-0.009,0.007l-0.007,0.006l-0.007,0.006l-0.008,0.006l-0.008,0.007l-0.008,0.007l-0.007,0.006l-0.008,0.006l-0.007,0.007l-0.007,0.007l-0.008,0.008l-0.007,0.007l-0.008,0.007l-0.007,0.008l-0.007,0.007l-0.007,0.007l-0.007,0.008l-0.007,0.008l-0.007,0.009l-0.007,0.008l-0.007,0.008l-0.006,0.008l-0.007,0.009l-0.007,0.009l-0.007,0.009l-0.007,0.009l-0.006,0.009l-0.007,0.01l-0.006,0.009l-0.007,0.009l-0.006,0.01l-0.006,0.01l-0.007,0.011l-0.007,0.011l-0.006,0.01l-0.006,0.009l-0.006,0.012l-0.007,0.012l-0.006,0.011l-0.006,0.011l-0.006,0.013l-0.006,0.011l-0.006,0.011l-0.006,0.013l-0.006,0.012l-0.006,0.014l-0.005,0.012l-0.006,0.013l-0.006,0.013l-0.005,0.013l-0.006,0.014l-0.005,0.013l-0.006,0.015l-0.005,0.015l-0.005,0.013l-0.005,0.014l-0.005,0.015l-0.006,0.016l-0.004,0.014l-0.005,0.015l-0.005,0.016l-0.005,0.016l-0.004,0.017l-0.005,0.015l-0.004,0.015l-0.004,0.017l-0.005,0.017l-0.004,0.018l-0.004,0.016l-0.003,0.016l-0.004,0.018l-0.004,0.018l-0.004,0.018l-0.004,0.018l-0.003,0.017l-0.003,0.019l-0.003,0.018l-0.003,0.018l-0.003,0.019l-0.003,0.018l-0.003,0.019l-0.003,0.021l-0.002,0.018l-0.003,0.02l-0.002,0.02l-0.002,0.019l-0.002,0.02l-0.002,0.02l-0.002,0.021l-0.001,0.021l-0.002,0.019l-0.001,0.021l-0.002,0.022l-0.001,0.02l-0.001,0.021l-0.001,0.022l0,0.02l-0.001,0.023l-0.001,0.022l0,0.02l0,0.024l0,0.022l0,0.021l0,0.022l0,0.024l0.001,0.022l0,0.02l0.002,0.048l0.002,0.046l0.003,0.046l0.003,0.048l0.004,0.047l0.004,0.047l0.005,0.049l0.006,0.048l0.006,0.048l0.006,0.05l0.008,0.049l0.007,0.049l0.009,0.05l0.009,0.051l0.01,0.05l0.01,0.05l0.01,0.051l0.012,0.051l0.012,0.051l0.012,0.051l0.013,0.052l0.014,0.051l0.014,0.051l0.015,0.052l0.015,0.052l0.016,0.052l0.016,0.052l0.017,0.052l0.018,0.052l0.018,0.051l0.019,0.053l0.019,0.052l0.02,0.051l0.02,0.052l0.021,0.052l0.021,0.051l0.023,0.052l0.022,0.052l0.023,0.051l0.024,0.051l0.023,0.051l0.025,0.051l0.025,0.051l0.026,0.05l0.026,0.051l0.027,0.05l0.027,0.05l0.028,0.049l0.028,0.049l0.028,0.05l0.029,0.048l0.03,0.049l0.03,0.048l0.03,0.048l0.032,0.048l0.031,0.047l0.032,0.047l0.032,0.046l0.033,0.046l0.034,0.048l0.016,0.021l0.017,0.023l0.017,0.022l0.017,0.023l0.017,0.022l0.017,0.022l0.018,0.023l0.017,0.021l0.018,0.022l0.018,0.023l0.017,0.02l0.018,0.022l0.019,0.022l0.017,0.021l0.018,0.021l0.019,0.021l0.019,0.022l0.018,0.02l0.019,0.021l0.018,0.02l0.019,0.021l0.019,0.02l0.019,0.021l0.019,0.02l0.019,0.02l0.019,0.019l0.019,0.02l0.02,0.02l0.02,0.019l0.02,0.02l0.019,0.019l0.019,0.018l0.02,0.019l0.02,0.019l0.02,0.019l0.021,0.019l0.02,0.018l0.02,0.018l0.02,0.018l0.021,0.018l0.02,0.018l0.021,0.017l0.021,0.018l0.02,0.017l0.022,0.018l0.02,0.016l0.021,0.017l0.021,0.017l0.021,0.016l0.022,0.017l0.021,0.016l0.021,0.016l0.022,0.016l0.021,0.016l0.022,0.016l0.021,0.015l0.022,0.015l0.022,0.016l0.022,0.014l0.022,0.015l0.022,0.015l0.022,0.015l0.022,0.014l0.022,0.014l0.023,0.014l0.022,0.014l0.022,0.013l0.023,0.014l0.022,0.013l0.023,0.014l0.023,0.013l0.023,0.013l0.022,0.012l0.023,0.013l0.023,0.012l0.023,0.012l0.024,0.012l0.022,0.012l0.024,0.012l0.023,0.011l0.023,0.011l0.024,0.012l0.023,0.011l0.024,0.01l0.024,0.011l0.023,0.01l0.024,0.011l0.024,0.01l0.024,0.01l0.024,0.01l0.024,0.009l0.024,0.009l0.024,0.01l0.025,0.009l0.024,0.009l0.024,0.008l0.025,0.009l0.024,0.008l0.025,0.008l0.025,0.008l0.024,0.008l0.025,0.007l0.025,0.008l0.025,0.007l0.025,0.007l0.025,0.007l0.026,0.007l0.025,0.006l0.025,0.007l0.025,0.006l0.026,0.006l0.026,0.005l0.025,0.006l0.026,0.005l0.026,0.005l0.026,0.005l0.026,0.005l0.026,0.005l0.027,0.004l0.026,0.004l0.026,0.004l0.027,0.004l0.026,0.004l0.027,0.003l0.027,0.003l0.032,0.004l0.07,0.01l0.068,0.013l0.069,0.018l0.067,0.021l0.065,0.024l0.065,0.029l0.062,0.031l0.061,0.036l0.059,0.038l0.056,0.042l0.054,0.045l0.052,0.047l0.049,0.051l0.046,0.053l0.043,0.055l0.04,0.058l0.037,0.06l0.033,0.062l0.03,0.063l0.026,0.065l0.023,0.067l0.019,0.067l0.015,0.069l0.012,0.069l0.007,0.07l0.004,0.07l0,0.07l-0.004,0.07l-0.008,0.07l-0.011,0.069l-0.016,0.069l-0.019,0.068l-0.023,0.066l-0.026,0.065l-0.031,0.063l-0.033,0.062l-0.037,0.06l-0.04,0.058l-0.043,0.055l-0.046,0.053l-0.049,0.05l-0.052,0.048l-0.054,0.044l-0.057,0.042l-0.059,0.038l-0.061,0.035l-0.062,0.032l-0.065,0.028l-0.066,0.024l-0.067,0.021l-0.068,0.017l-0.069,0.014l-0.069,0.009l-0.07,0.006l-0.071,0.002l-0.07,-0.002l-0.07,-0.006l-0.041,-0.005l-0.047,-0.005l-0.046,-0.006l-0.047,-0.006l-0.046,-0.007l-0.046,-0.007l-0.046,-0.007l-0.046,-0.008l-0.045,-0.008l-0.046,-0.008l-0.045,-0.009l-0.045,-0.009l-0.045,-0.01l-0.046,-0.009l-0.044,-0.01l-0.045,-0.011l-0.045,-0.01l-0.044,-0.011l-0.044,-0.012l-0.044,-0.011l-0.044,-0.012l-0.044,-0.013l-0.044,-0.012l-0.043,-0.013l-0.043,-0.013l-0.043,-0.014l-0.043,-0.014l-0.043,-0.014l-0.043,-0.014l-0.042,-0.015l-0.042,-0.015l-0.042,-0.016l-0.042,-0.015l-0.042,-0.016l-0.042,-0.016l-0.041,-0.017l-0.042,-0.017l-0.041,-0.017l-0.04,-0.017l-0.041,-0.018l-0.041,-0.017l-0.04,-0.018l-0.04,-0.019l-0.04,-0.019l-0.04,-0.018l-0.04,-0.02l-0.039,-0.019l-0.039,-0.02l-0.04,-0.02l-0.039,-0.02l-0.038,-0.021l-0.039,-0.02l-0.038,-0.021l-0.039,-0.022l-0.038,-0.021l-0.037,-0.022l-0.038,-0.021l-0.037,-0.023l-0.037,-0.022l-0.038,-0.023l-0.036,-0.023l-0.037,-0.023l-0.037,-0.023l-0.036,-0.023l-0.036,-0.024l-0.036,-0.024l-0.036,-0.024l-0.035,-0.025l-0.036,-0.024l-0.035,-0.025l-0.035,-0.025l-0.035,-0.025l-0.034,-0.026l-0.035,-0.025l-0.034,-0.026l-0.034,-0.026l-0.034,-0.026l-0.033,-0.026l-0.033,-0.026l-0.034,-0.027l-0.033,-0.028l-0.033,-0.026l-0.033,-0.028l-0.032,-0.027l-0.032,-0.028l-0.033,-0.028l-0.031,-0.027l-0.032,-0.029l-0.032,-0.028l-0.031,-0.028l-0.031,-0.029l-0.031,-0.029l-0.031,-0.028l-0.03,-0.029l-0.031,-0.03l-0.031,-0.03l-0.03,-0.029l-0.029,-0.03l-0.029,-0.029l-0.03,-0.03l-0.03,-0.031l-0.029,-0.03l-0.029,-0.031l-0.028,-0.03l-0.028,-0.031l-0.029,-0.031l-0.028,-0.031l-0.028,-0.031l-0.028,-0.032l-0.028,-0.031l-0.027,-0.031l-0.027,-0.032l-0.028,-0.032l-0.026,-0.032l-0.026,-0.031l-0.027,-0.034l-0.026,-0.031l-0.026,-0.033l-0.026,-0.033l-0.026,-0.032l-0.025,-0.033l-0.026,-0.033l-0.025,-0.033l-0.025,-0.033l-0.025,-0.033l-0.025,-0.035l-0.048,-0.065l-0.048,-0.068l-0.047,-0.068l-0.046,-0.068l-0.046,-0.068l-0.044,-0.069l-0.045,-0.07l-0.043,-0.069l-0.043,-0.07l-0.042,-0.07l-0.041,-0.071l-0.04,-0.071l-0.04,-0.071l-0.039,-0.071l-0.038,-0.072l-0.037,-0.072l-0.037,-0.073l-0.036,-0.072l-0.035,-0.073l-0.035,-0.073l-0.033,-0.074l-0.033,-0.073l-0.033,-0.074l-0.031,-0.073l-0.031,-0.074l-0.03,-0.075l-0.029,-0.074l-0.029,-0.075l-0.027,-0.074l-0.027,-0.075l-0.026,-0.075l-0.026,-0.076l-0.024,-0.074l-0.024,-0.076l-0.023,-0.075l-0.023,-0.076l-0.021,-0.075l-0.021,-0.076l-0.02,-0.077l-0.019,-0.075l-0.019,-0.076l-0.018,-0.076l-0.017,-0.076l-0.016,-0.076l-0.015,-0.076l-0.014,-0.076l-0.014,-0.076l-0.013,-0.076l-0.012,-0.077l-0.011,-0.076l-0.011,-0.075l-0.009,-0.077l-0.009,-0.076l-0.008,-0.075l-0.007,-0.077l-0.006,-0.076l-0.005,-0.075l-0.004,-0.076l-0.004,-0.076l-0.003,-0.073l-0.001,-0.041l0,-0.038l-0.001,-0.037l0,-0.037l0,-0.039l0,-0.038l0,-0.036l0.001,-0.039l0.001,-0.038l0.001,-0.036l0.001,-0.039l0.002,-0.037l0.002,-0.038l0.002,-0.038l0.002,-0.036l0.003,-0.038l0.003,-0.038l0.003,-0.037l0.003,-0.037l0.003,-0.037l0.004,-0.037l0.004,-0.039l0.005,-0.037l0.004,-0.037l0.005,-0.038l0.005,-0.035l0.005,-0.037l0.006,-0.038l0.006,-0.036l0.006,-0.038l0.007,-0.037l0.006,-0.036l0.007,-0.038l0.008,-0.036l0.007,-0.036l0.008,-0.036l0.008,-0.037l0.008,-0.037l0.009,-0.037l0.009,-0.036l0.009,-0.036l0.009,-0.036l0.01,-0.036l0.011,-0.037l0.01,-0.036l0.011,-0.035l0.01,-0.036l0.012,-0.036l0.012,-0.037l0.012,-0.035l0.012,-0.035l0.012,-0.036l0.014,-0.036l0.013,-0.034l0.013,-0.035l0.014,-0.036l0.014,-0.034l0.015,-0.036l0.015,-0.035l0.015,-0.034l0.016,-0.035l0.015,-0.034l0.017,-0.035l0.016,-0.033l0.017,-0.035l0.018,-0.034l0.017,-0.033l0.018,-0.035l0.019,-0.034l0.018,-0.032l0.018,-0.033l0.021,-0.034l0.02,-0.034l0.02,-0.032l0.019,-0.032l0.022,-0.033l0.021,-0.032l0.022,-0.032l0.022,-0.033l0.022,-0.031l0.023,-0.032l0.023,-0.031l0.024,-0.031l0.023,-0.031l0.024,-0.03l0.025,-0.031l0.025,-0.03l0.026,-0.031l0.025,-0.029l0.026,-0.029l0.026,-0.03l0.027,-0.029l0.028,-0.029l0.027,-0.028l0.028,-0.028l0.029,-0.029l0.028,-0.027l0.029,-0.027l0.029,-0.027l0.03,-0.027l0.031,-0.027l0.03,-0.025l0.031,-0.026l0.031,-0.025l0.032,-0.026l0.032,-0.025l0.031,-0.024l0.033,-0.024l0.033,-0.024l0.033,-0.023l0.034,-0.023l0.033,-0.022l0.034,-0.023l0.035,-0.021l0.035,-0.022l0.035,-0.021l0.035,-0.021l0.036,-0.02l0.036,-0.02l0.036,-0.02l0.037,-0.019l0.036,-0.018l0.038,-0.019l0.036,-0.017l0.038,-0.018l0.038,-0.017l0.038,-0.016l0.039,-0.017l0.038,-0.015l0.039,-0.016l0.039,-0.014l0.039,-0.015l0.04,-0.014l0.039,-0.014l0.04,-0.013l0.04,-0.012l0.04,-0.013l0.041,-0.012l0.041,-0.011l0.04,-0.011l0.041,-0.011l0.041,-0.01l0.041,-0.009l0.042,-0.01l0.042,-0.009l0.042,-0.008l0.042,-0.008l0.042,-0.008l0.042,-0.007l0.043,-0.006l0.042,-0.007l0.043,-0.006l0.043,-0.005l0.043,-0.005l0.044,-0.005l0.043,-0.004l0.043,-0.004l0.044,-0.003l0.044,-0.003l0.044,-0.002l0.044,-0.002l0.044,-0.002l0.044,-0.001l0.045,-0.001l0.044,-0.001l0.045,0l0.045,0Z"/><path d="M82.832,19.388c32.837,-5.775 45.634,11.729 46.3,38.529c0.666,26.799 -24.599,66.202 -68.951,50.429c-29.978,-10.663 -26.204,-46.414 0,-63.109c6.128,-3.903 10.448,-23.703 22.651,-25.849Z" style="fill:#61e0ee;"/><clipPath id="_clip1"><path d="M82.832,19.388c32.837,-5.775 45.634,11.729 46.3,38.529c0.666,26.799 -24.599,66.202 -68.951,50.429c-29.978,-10.663 -26.204,-46.414 0,-63.109c6.128,-3.903 10.448,-23.703 22.651,-25.849Z"/></clipPath><g clip-path="url(#_clip1)"><path d="M98.442,106.712c0,0 14.989,-7.661 20.319,-39.305c5.329,-31.644 1.665,-32.976 -1.666,-43.635c-3.331,-10.659 14.656,-24.982 21.984,-1.999c7.329,22.984 37.973,38.306 3.331,66.286c-34.641,27.98 -43.968,18.653 -43.968,18.653Z" style="fill:#40c9e0;"/></g><path d="M82.832,19.388c32.837,-5.775 45.634,11.729 46.3,38.529c0.666,26.799 -24.599,66.202 -68.951,50.429c-29.978,-10.663 -26.204,-46.414 0,-63.109c6.128,-3.903 10.448,-23.703 22.651,-25.849Z" style="fill:none;stroke:#000;stroke-width:2.55px;"/><path d="M39.195,87.508c0,0 1.807,7.402 12.097,6.86c10.29,-0.543 10.913,-9.579 10.913,-9.579l-23.01,2.719Z" style="fill:#4fcbe0;"/><path d="M73.182,84.394c0,0 1.563,7.405 10.402,6.877c8.838,-0.527 9.36,-9.562 9.36,-9.562l-19.762,2.685Z" style="fill:#4fcbe0;"/><path d="M90.409,92.978c-0.571,-0.107 -1.121,0.27 -1.228,0.841c-0.107,0.571 0.269,1.121 0.84,1.228c0.571,0.107 1.122,-0.27 1.229,-0.84c0.107,-0.571 -0.27,-1.122 -0.841,-1.229Z" style="fill:#b7f8ff;"/><path d="M52.823,98.153c-0.57,-0.107 -1.121,0.27 -1.228,0.841c-0.107,0.571 0.27,1.121 0.841,1.228c0.571,0.107 1.121,-0.269 1.228,-0.84c0.107,-0.571 -0.27,-1.122 -0.841,-1.229Z" style="fill:#b7f8ff;"/><g><path d="M63.458,98.274c0.486,1.508 0.787,4.391 1.773,5.589c0.479,0.581 1.44,0.538 2.067,0.511c3.602,-0.158 3.267,-3.834 3.557,-7.075" style="fill:#ededed;"/><path d="M70.913,96.345l0.053,0.004l0.052,0.008l0.051,0.01l0.051,0.013l0.05,0.016l0.05,0.019l0.048,0.022l0.047,0.024l0.045,0.026l0.044,0.029l0.042,0.032l0.041,0.033l0.038,0.036l0.037,0.038l0.034,0.04l0.032,0.042l0.03,0.043l0.028,0.045l0.024,0.047l0.023,0.047l0.019,0.049l0.017,0.05l0.014,0.051l0.011,0.052l0.009,0.052l0.005,0.052l0.003,0.052l0,0.053l-0.004,0.053l-0.006,0.074l-0.006,0.074l-0.006,0.074l-0.006,0.073l-0.012,0.15l-0.01,0.15l-0.011,0.151l-0.01,0.152l-0.01,0.152l-0.009,0.153l-0.019,0.309l-0.01,0.155l-0.01,0.155l-0.011,0.155l-0.011,0.156l-0.012,0.155l-0.006,0.078l-0.006,0.078l-0.006,0.078l-0.007,0.078l-0.007,0.077l-0.007,0.078l-0.008,0.078l-0.008,0.078l-0.008,0.077l-0.008,0.078l-0.009,0.077l-0.009,0.077l-0.009,0.078l-0.01,0.077l-0.01,0.077l-0.011,0.077l-0.011,0.076l-0.011,0.077l-0.012,0.077l-0.013,0.076l-0.013,0.076l-0.014,0.076l-0.014,0.076l-0.014,0.076l-0.016,0.075l-0.015,0.075l-0.017,0.075l-0.017,0.075l-0.018,0.075l-0.018,0.075l-0.02,0.073l-0.02,0.074l-0.02,0.073l-0.011,0.038l-0.011,0.036l-0.011,0.037l-0.011,0.037l-0.012,0.037l-0.012,0.036l-0.012,0.036l-0.012,0.036l-0.012,0.037l-0.013,0.036l-0.013,0.036l-0.013,0.036l-0.013,0.036l-0.014,0.035l-0.013,0.036l-0.015,0.037l-0.014,0.035l-0.014,0.035l-0.015,0.035l-0.015,0.036l-0.016,0.034l-0.015,0.036l-0.016,0.035l-0.017,0.035l-0.016,0.035l-0.017,0.034l-0.017,0.035l-0.017,0.034l-0.018,0.034l-0.018,0.034l-0.018,0.035l-0.019,0.034l-0.019,0.034l-0.019,0.033l-0.019,0.034l-0.02,0.033l-0.02,0.033l-0.021,0.034l-0.021,0.033l-0.021,0.032l-0.022,0.033l-0.021,0.033l-0.023,0.032l-0.022,0.032l-0.023,0.032l-0.023,0.032l-0.024,0.031l-0.024,0.032l-0.024,0.031l-0.025,0.031l-0.025,0.031l-0.026,0.031l-0.025,0.029l-0.026,0.03l-0.027,0.031l-0.027,0.029l-0.027,0.03l-0.028,0.029l-0.028,0.029l-0.028,0.028l-0.029,0.029l-0.029,0.028l-0.029,0.027l-0.03,0.028l-0.03,0.028l-0.031,0.026l-0.031,0.027l-0.031,0.026l-0.032,0.026l-0.032,0.026l-0.032,0.025l-0.033,0.025l-0.033,0.025l-0.033,0.024l-0.034,0.024l-0.035,0.024l-0.034,0.023l-0.035,0.023l-0.035,0.023l-0.036,0.022l-0.036,0.022l-0.036,0.022l-0.037,0.021l-0.036,0.02l-0.038,0.021l-0.037,0.02l-0.038,0.019l-0.038,0.02l-0.039,0.018l-0.038,0.019l-0.039,0.018l-0.04,0.018l-0.04,0.017l-0.04,0.017l-0.04,0.016l-0.04,0.016l-0.041,0.016l-0.042,0.015l-0.041,0.015l-0.042,0.014l-0.042,0.014l-0.042,0.013l-0.043,0.014l-0.042,0.012l-0.044,0.013l-0.043,0.012l-0.043,0.011l-0.044,0.011l-0.044,0.011l-0.045,0.01l-0.045,0.01l-0.045,0.01l-0.045,0.009l-0.045,0.008l-0.046,0.009l-0.046,0.008l-0.046,0.007l-0.047,0.007l-0.047,0.007l-0.047,0.006l-0.047,0.006l-0.048,0.006l-0.047,0.005l-0.048,0.004l-0.049,0.005l-0.049,0.004l-0.048,0.003l-0.049,0.003l-0.05,0.003l-0.048,0.003l-0.126,0.005l-0.068,0.003l-0.07,0.002l-0.073,0.002l-0.075,0.001l-0.077,0.001l-0.041,0l-0.04,0l-0.041,0l-0.041,-0.001l-0.042,-0.001l-0.043,-0.001l-0.042,-0.002l-0.044,-0.002l-0.044,-0.002l-0.044,-0.003l-0.044,-0.003l-0.045,-0.004l-0.046,-0.004l-0.046,-0.005l-0.046,-0.005l-0.046,-0.006l-0.048,-0.006l-0.047,-0.007l-0.048,-0.008l-0.048,-0.008l-0.048,-0.009l-0.049,-0.01l-0.049,-0.011l-0.049,-0.011l-0.05,-0.013l-0.049,-0.013l-0.05,-0.015l-0.051,-0.015l-0.05,-0.017l-0.051,-0.018l-0.049,-0.018l-0.027,-0.011l-0.026,-0.01l-0.026,-0.011l-0.025,-0.011l-0.025,-0.011l-0.026,-0.012l-0.025,-0.011l-0.026,-0.013l-0.026,-0.013l-0.026,-0.013l-0.025,-0.013l-0.025,-0.014l-0.026,-0.015l-0.025,-0.014l-0.026,-0.015l-0.025,-0.016l-0.025,-0.015l-0.025,-0.017l-0.025,-0.017l-0.025,-0.017l-0.025,-0.018l-0.024,-0.017l-0.025,-0.019l-0.025,-0.019l-0.024,-0.019l-0.024,-0.02l-0.024,-0.021l-0.024,-0.02l-0.023,-0.022l-0.023,-0.021l-0.024,-0.022l-0.023,-0.023l-0.022,-0.023l-0.023,-0.024l-0.021,-0.023l-0.022,-0.024l-0.022,-0.026l-0.021,-0.025l-0.032,-0.04l-0.032,-0.04l-0.031,-0.041l-0.03,-0.042l-0.03,-0.041l-0.029,-0.042l-0.029,-0.043l-0.028,-0.043l-0.027,-0.042l-0.027,-0.044l-0.027,-0.043l-0.026,-0.044l-0.025,-0.044l-0.025,-0.045l-0.024,-0.045l-0.024,-0.045l-0.024,-0.045l-0.023,-0.045l-0.023,-0.046l-0.022,-0.046l-0.023,-0.047l-0.021,-0.046l-0.021,-0.047l-0.021,-0.047l-0.021,-0.047l-0.02,-0.047l-0.02,-0.048l-0.02,-0.048l-0.019,-0.048l-0.019,-0.048l-0.019,-0.049l-0.019,-0.048l-0.018,-0.049l-0.018,-0.049l-0.018,-0.049l-0.017,-0.049l-0.017,-0.05l-0.017,-0.05l-0.017,-0.049l-0.017,-0.051l-0.016,-0.05l-0.016,-0.05l-0.016,-0.05l-0.016,-0.051l-0.016,-0.05l-0.015,-0.051l-0.015,-0.051l-0.015,-0.052l-0.03,-0.101l-0.029,-0.102l-0.028,-0.103l-0.027,-0.103l-0.027,-0.103l-0.027,-0.103l-0.026,-0.103l-0.025,-0.103l-0.025,-0.103l-0.025,-0.103l-0.024,-0.102l-0.024,-0.102l-0.023,-0.102l-0.023,-0.102l-0.045,-0.201l-0.044,-0.199l-0.043,-0.195l-0.043,-0.192l-0.041,-0.188l-0.021,-0.092l-0.021,-0.09l-0.02,-0.089l-0.02,-0.088l-0.021,-0.086l-0.02,-0.084l-0.02,-0.083l-0.02,-0.081l-0.02,-0.078l-0.02,-0.077l-0.02,-0.074l-0.019,-0.072l-0.02,-0.071l-0.01,-0.033l-0.01,-0.033l-0.01,-0.032l-0.009,-0.032l-0.01,-0.031l-0.011,-0.034l-0.014,-0.05l-0.012,-0.052l-0.009,-0.052l-0.006,-0.052l-0.003,-0.052l0,-0.053l0.002,-0.053l0.006,-0.052l0.008,-0.052l0.011,-0.052l0.015,-0.05l0.016,-0.05l0.02,-0.049l0.022,-0.048l0.025,-0.046l0.027,-0.045l0.03,-0.044l0.032,-0.041l0.035,-0.04l0.036,-0.038l0.039,-0.036l0.04,-0.034l0.043,-0.031l0.044,-0.029l0.045,-0.027l0.047,-0.024l0.048,-0.021l0.049,-0.019l0.051,-0.016l0.051,-0.013l0.051,-0.01l0.052,-0.008l0.053,-0.005l0.052,-0.001l0.053,0.001l0.053,0.004l0.052,0.007l0.052,0.01l0.051,0.012l0.05,0.016l0.049,0.018l0.049,0.021l0.047,0.024l0.046,0.026l0.044,0.028l0.043,0.031l0.04,0.034l0.039,0.035l0.037,0.038l0.035,0.039l0.033,0.042l0.03,0.043l0.028,0.045l0.025,0.046l0.023,0.047l0.02,0.049l0.017,0.05l0.012,0.038l0.013,0.041l0.012,0.041l0.013,0.041l0.012,0.042l0.013,0.044l0.024,0.084l0.023,0.086l0.024,0.087l0.023,0.088l0.022,0.089l0.023,0.089l0.022,0.091l0.022,0.092l0.021,0.092l0.022,0.094l0.021,0.093l0.022,0.095l0.021,0.095l0.043,0.192l0.042,0.193l0.043,0.195l0.043,0.195l0.044,0.196l0.022,0.097l0.023,0.097l0.022,0.097l0.023,0.097l0.023,0.096l0.023,0.096l0.024,0.095l0.024,0.095l0.024,0.094l0.024,0.093l0.025,0.092l0.025,0.091l0.026,0.091l0.026,0.09l0.012,0.043l0.013,0.044l0.014,0.043l0.013,0.043l0.013,0.043l0.014,0.043l0.013,0.042l0.014,0.041l0.014,0.042l0.013,0.041l0.014,0.04l0.014,0.04l0.014,0.04l0.014,0.039l0.015,0.038l0.014,0.039l0.014,0.037l0.015,0.037l0.014,0.037l0.015,0.037l0.014,0.035l0.015,0.035l0.015,0.034l0.015,0.034l0.015,0.034l0.015,0.033l0.015,0.032l0.014,0.031l0.015,0.031l0.016,0.03l0.015,0.03l0.015,0.029l0.015,0.028l0.015,0.027l0.015,0.027l0.015,0.027l0.015,0.025l0.014,0.024l0.015,0.024l0.015,0.023l0.015,0.022l0.014,0.022l0.014,0.02l0.015,0.02l0.013,0.019l0.015,0.019l0.013,0.017l0.014,0.017l0.001,0.002l0.001,0.001l0.002,0.002l0.002,0.002l0.001,0.001l0.002,0.002l0.002,0.002l0.002,0.002l0.002,0.002l0.002,0.001l0.002,0.002l0.002,0.002l0.002,0.002l0.003,0.002l0.003,0.002l0.002,0.002l0.004,0.003l0.003,0.002l0.003,0.002l0.003,0.002l0.003,0.002l0.004,0.003l0.005,0.002l0.003,0.002l0.005,0.003l0.004,0.002l0.004,0.003l0.006,0.003l0.005,0.002l0.005,0.003l0.005,0.002l0.006,0.003l0.005,0.003l0.007,0.002l0.007,0.003l0.006,0.003l0.006,0.002l0.005,0.002l0.017,0.007l0.015,0.005l0.016,0.005l0.017,0.005l0.018,0.006l0.018,0.005l0.019,0.004l0.02,0.005l0.021,0.005l0.022,0.004l0.022,0.004l0.022,0.004l0.023,0.004l0.024,0.003l0.024,0.004l0.025,0.003l0.025,0.003l0.026,0.002l0.026,0.003l0.027,0.002l0.027,0.002l0.027,0.001l0.027,0.002l0.028,0.001l0.029,0.001l0.028,0.001l0.029,0.001l0.028,0l0.03,0l0.029,0.001l0.028,-0.001l0.06,0l0.059,-0.001l0.059,-0.002l0.06,-0.002l0.058,-0.002l0.117,-0.005l0.036,-0.002l0.034,-0.002l0.033,-0.002l0.033,-0.002l0.033,-0.003l0.032,-0.003l0.031,-0.003l0.032,-0.003l0.031,-0.004l0.03,-0.004l0.03,-0.004l0.03,-0.004l0.029,-0.004l0.028,-0.005l0.029,-0.005l0.028,-0.005l0.027,-0.005l0.027,-0.006l0.027,-0.005l0.026,-0.006l0.026,-0.006l0.025,-0.006l0.026,-0.007l0.024,-0.006l0.025,-0.007l0.024,-0.007l0.023,-0.007l0.024,-0.007l0.022,-0.007l0.023,-0.008l0.022,-0.007l0.022,-0.008l0.022,-0.008l0.021,-0.008l0.021,-0.009l0.02,-0.008l0.021,-0.008l0.02,-0.009l0.019,-0.009l0.02,-0.009l0.019,-0.009l0.019,-0.009l0.018,-0.009l0.018,-0.01l0.018,-0.009l0.018,-0.01l0.018,-0.01l0.017,-0.01l0.017,-0.01l0.017,-0.01l0.017,-0.011l0.016,-0.01l0.016,-0.011l0.016,-0.011l0.016,-0.011l0.015,-0.011l0.016,-0.011l0.015,-0.011l0.015,-0.012l0.015,-0.012l0.015,-0.011l0.014,-0.012l0.015,-0.012l0.014,-0.013l0.014,-0.012l0.014,-0.012l0.014,-0.013l0.014,-0.013l0.013,-0.013l0.014,-0.014l0.013,-0.013l0.014,-0.014l0.012,-0.014l0.013,-0.014l0.013,-0.014l0.013,-0.014l0.013,-0.015l0.013,-0.015l0.012,-0.015l0.012,-0.015l0.012,-0.015l0.013,-0.016l0.012,-0.016l0.012,-0.016l0.011,-0.016l0.012,-0.016l0.012,-0.017l0.012,-0.017l0.011,-0.017l0.012,-0.017l0.011,-0.018l0.012,-0.019l0.011,-0.017l0.011,-0.019l0.011,-0.018l0.01,-0.019l0.012,-0.019l0.01,-0.019l0.011,-0.019l0.01,-0.02l0.011,-0.02l0.01,-0.021l0.01,-0.02l0.011,-0.021l0.01,-0.021l0.01,-0.021l0.01,-0.021l0.01,-0.021l0.009,-0.022l0.01,-0.023l0.01,-0.022l0.009,-0.022l0.01,-0.024l0.009,-0.023l0.009,-0.022l0.009,-0.024l0.009,-0.024l0.009,-0.024l0.009,-0.024l0.009,-0.024l0.008,-0.025l0.009,-0.025l0.008,-0.025l0.008,-0.025l0.009,-0.027l0.008,-0.025l0.008,-0.026l0.008,-0.026l0.008,-0.027l0.007,-0.025l0.016,-0.055l0.014,-0.055l0.015,-0.056l0.014,-0.056l0.014,-0.057l0.013,-0.058l0.013,-0.059l0.012,-0.059l0.012,-0.061l0.012,-0.06l0.012,-0.062l0.011,-0.063l0.011,-0.063l0.01,-0.063l0.01,-0.064l0.01,-0.065l0.009,-0.066l0.01,-0.066l0.008,-0.067l0.009,-0.067l0.008,-0.068l0.008,-0.068l0.008,-0.069l0.007,-0.069l0.008,-0.07l0.007,-0.071l0.007,-0.07l0.006,-0.071l0.007,-0.072l0.006,-0.072l0.006,-0.073l0.006,-0.073l0.005,-0.072l0.011,-0.149l0.011,-0.149l0.01,-0.15l0.01,-0.151l0.01,-0.153l0.019,-0.307l0.01,-0.155l0.01,-0.156l0.01,-0.156l0.011,-0.156l0.011,-0.158l0.012,-0.157l0.006,-0.079l0.007,-0.079l0.006,-0.079l0.007,-0.077l0.006,-0.052l0.009,-0.052l0.012,-0.052l0.015,-0.05l0.017,-0.05l0.02,-0.049l0.023,-0.047l0.025,-0.046l0.028,-0.045l0.03,-0.043l0.033,-0.042l0.035,-0.039l0.037,-0.038l0.038,-0.035l0.041,-0.034l0.043,-0.031l0.044,-0.028l0.046,-0.026l0.047,-0.024l0.048,-0.021l0.05,-0.018l0.05,-0.015l0.051,-0.013l0.052,-0.01l0.052,-0.007l0.053,-0.004l0.052,-0.001l0.053,0.002Z"/><path d="M67.288,87.032c2.917,0.163 5.2,1.801 5.097,3.655c-0.104,1.854 -2.556,3.227 -5.473,3.064c-2.917,-0.163 -5.2,-1.801 -5.097,-3.655c0.104,-1.855 2.556,-3.228 5.473,-3.064Z"/><path d="M66.839,91.786l0.042,0.003l0.042,0.004l0.042,0.006l0.041,0.008l0.042,0.01l0.04,0.012l0.04,0.013l0.04,0.015l0.038,0.017l0.038,0.019l0.038,0.02l0.036,0.022l0.035,0.024l0.034,0.025l0.033,0.026l0.032,0.028l0.03,0.03l0.029,0.03l0.028,0.032l0.026,0.033l0.025,0.034l0.023,0.036l0.022,0.036l0.02,0.037l0.019,0.038l0.016,0.039l0.015,0.04l0.013,0.04l0.012,0.041l0.009,0.041l0.008,0.041l0.006,0.042l0.004,0.042l0.002,0.043l0.001,0.042l-0.001,0.077l-0.002,0.079l-0.002,0.079l-0.002,0.079l-0.002,0.079l-0.003,0.079l-0.003,0.078l-0.004,0.078l-0.003,0.078l-0.004,0.078l-0.005,0.078l-0.004,0.078l-0.005,0.077l-0.005,0.077l-0.006,0.077l-0.005,0.076l-0.006,0.077l-0.006,0.077l-0.006,0.076l-0.006,0.077l-0.013,0.151l-0.014,0.151l-0.015,0.151l-0.014,0.15l-0.015,0.149l-0.016,0.149l-0.016,0.149l-0.015,0.148l-0.032,0.294l-0.032,0.293l-0.015,0.145l-0.015,0.146l-0.015,0.145l-0.014,0.144l-0.014,0.145l-0.014,0.144l-0.012,0.144l-0.007,0.071l-0.005,0.072l-0.006,0.072l-0.006,0.072l-0.005,0.071l-0.005,0.073l-0.004,0.042l-0.006,0.042l-0.008,0.042l-0.009,0.041l-0.011,0.041l-0.014,0.04l-0.014,0.04l-0.017,0.038l-0.018,0.039l-0.02,0.037l-0.022,0.036l-0.023,0.036l-0.025,0.034l-0.026,0.033l-0.028,0.032l-0.029,0.031l-0.03,0.029l-0.032,0.028l-0.033,0.027l-0.034,0.025l-0.035,0.024l-0.036,0.022l-0.037,0.02l-0.038,0.019l-0.038,0.017l-0.04,0.015l-0.04,0.014l-0.04,0.012l-0.042,0.01l-0.041,0.008l-0.042,0.006l-0.042,0.004l-0.042,0.003l-0.042,0.001l-0.043,-0.001l-0.042,-0.003l-0.042,-0.005l-0.042,-0.007l-0.041,-0.009l-0.041,-0.01l-0.041,-0.012l-0.039,-0.014l-0.04,-0.016l-0.038,-0.017l-0.038,-0.019l-0.037,-0.021l-0.036,-0.023l-0.034,-0.024l-0.034,-0.025l-0.033,-0.027l-0.031,-0.028l-0.03,-0.03l-0.029,-0.031l-0.027,-0.032l-0.026,-0.034l-0.025,-0.034l-0.022,-0.036l-0.022,-0.037l-0.019,-0.037l-0.018,-0.038l-0.016,-0.039l-0.015,-0.04l-0.013,-0.04l-0.01,-0.041l-0.01,-0.042l-0.007,-0.041l-0.005,-0.042l-0.004,-0.042l-0.001,-0.043l0,-0.042l0.002,-0.042l0.005,-0.076l0.006,-0.077l0.006,-0.077l0.006,-0.076l0.006,-0.077l0.007,-0.077l0.013,-0.151l0.014,-0.152l0.015,-0.151l0.015,-0.15l0.015,-0.15l0.016,-0.149l0.016,-0.148l0.031,-0.295l0.032,-0.293l0.016,-0.146l0.015,-0.146l0.015,-0.144l0.014,-0.145l0.015,-0.144l0.013,-0.144l0.013,-0.143l0.013,-0.144l0.006,-0.071l0.005,-0.071l0.006,-0.071l0.005,-0.071l0.005,-0.072l0.005,-0.071l0.005,-0.071l0.005,-0.071l0.004,-0.07l0.004,-0.071l0.003,-0.071l0.004,-0.071l0.003,-0.07l0.003,-0.071l0.002,-0.071l0.002,-0.07l0.002,-0.071l0.002,-0.07l0.001,-0.071l0.001,-0.073l0.002,-0.043l0.003,-0.042l0.006,-0.042l0.007,-0.041l0.009,-0.042l0.01,-0.041l0.013,-0.04l0.014,-0.04l0.016,-0.039l0.018,-0.038l0.02,-0.038l0.021,-0.036l0.023,-0.036l0.024,-0.035l0.026,-0.033l0.027,-0.032l0.028,-0.032l0.03,-0.029l0.032,-0.029l0.032,-0.027l0.034,-0.025l0.035,-0.025l0.036,-0.022l0.036,-0.021l0.038,-0.019l0.038,-0.018l0.04,-0.016l0.04,-0.014l0.04,-0.012l0.041,-0.011l0.041,-0.008l0.042,-0.007l0.042,-0.005l0.042,-0.003l0.042,-0.001l0.043,0Z"/><path d="M74.965,93.189l0.075,0.007l0.074,0.013l0.072,0.019l0.071,0.025l0.069,0.03l0.066,0.035l0.064,0.04l0.06,0.045l0.056,0.05l0.052,0.054l0.048,0.058l0.043,0.061l0.038,0.065l0.033,0.068l0.027,0.069l0.022,0.072l0.016,0.073l0.011,0.075l0.004,0.075l-0.001,0.075l-0.007,0.074l-0.013,0.074l-0.019,0.073l-0.024,0.071l-0.03,0.069l-0.036,0.066l-0.04,0.063l-0.045,0.06l-0.05,0.056l-0.054,0.057l-0.055,0.057l-0.055,0.057l-0.056,0.056l-0.055,0.056l-0.055,0.056l-0.056,0.055l-0.056,0.055l-0.055,0.055l-0.056,0.054l-0.056,0.054l-0.056,0.054l-0.056,0.053l-0.057,0.053l-0.056,0.052l-0.057,0.053l-0.056,0.051l-0.057,0.052l-0.056,0.051l-0.057,0.05l-0.057,0.051l-0.057,0.05l-0.057,0.049l-0.057,0.05l-0.057,0.049l-0.057,0.048l-0.058,0.049l-0.057,0.047l-0.058,0.048l-0.057,0.047l-0.058,0.047l-0.058,0.046l-0.058,0.046l-0.058,0.046l-0.058,0.045l-0.058,0.045l-0.059,0.045l-0.058,0.044l-0.059,0.044l-0.058,0.043l-0.059,0.043l-0.058,0.043l-0.059,0.043l-0.059,0.042l-0.059,0.041l-0.059,0.042l-0.059,0.04l-0.06,0.041l-0.059,0.04l-0.06,0.04l-0.059,0.04l-0.06,0.039l-0.06,0.039l-0.059,0.038l-0.06,0.038l-0.06,0.037l-0.061,0.038l-0.06,0.037l-0.06,0.036l-0.06,0.036l-0.061,0.036l-0.06,0.035l-0.061,0.035l-0.061,0.035l-0.061,0.034l-0.06,0.034l-0.061,0.034l-0.061,0.033l-0.062,0.033l-0.061,0.032l-0.061,0.032l-0.062,0.032l-0.061,0.031l-0.062,0.031l-0.061,0.031l-0.062,0.03l-0.062,0.029l-0.062,0.03l-0.062,0.029l-0.062,0.028l-0.062,0.029l-0.062,0.028l-0.063,0.027l-0.062,0.027l-0.063,0.027l-0.063,0.026l-0.062,0.026l-0.063,0.026l-0.063,0.025l-0.063,0.025l-0.063,0.024l-0.063,0.024l-0.063,0.024l-0.063,0.023l-0.064,0.023l-0.063,0.023l-0.063,0.022l-0.064,0.021l-0.063,0.022l-0.064,0.021l-0.064,0.02l-0.064,0.02l-0.064,0.02l-0.064,0.02l-0.064,0.019l-0.064,0.018l-0.064,0.019l-0.064,0.017l-0.065,0.018l-0.064,0.017l-0.065,0.017l-0.064,0.016l-0.065,0.016l-0.065,0.015l-0.064,0.015l-0.065,0.015l-0.065,0.014l-0.065,0.014l-0.065,0.014l-0.065,0.013l-0.066,0.013l-0.065,0.012l-0.065,0.012l-0.066,0.012l-0.065,0.011l-0.065,0.011l-0.066,0.01l-0.065,0.01l-0.066,0.01l-0.066,0.009l-0.066,0.009l-0.065,0.008l-0.066,0.008l-0.066,0.008l-0.066,0.007l-0.066,0.007l-0.066,0.006l-0.066,0.006l-0.067,0.006l-0.066,0.005l-0.066,0.005l-0.067,0.005l-0.066,0.004l-0.066,0.004l-0.067,0.003l-0.066,0.003l-0.067,0.002l-0.067,0.002l-0.066,0.002l-0.067,0.002l-0.067,0l-0.067,0.001l-0.066,0l-0.067,0l-0.067,-0.001l-0.067,-0.001l-0.067,-0.001l-0.067,-0.002l-0.068,-0.002l-0.066,-0.003l-0.068,-0.003l-0.067,-0.003l-0.067,-0.004l-0.067,-0.004l-0.068,-0.004l-0.067,-0.005l-0.068,-0.006l-0.067,-0.005l-0.067,-0.006l-0.068,-0.007l-0.067,-0.007l-0.068,-0.007l-0.067,-0.008l-0.068,-0.008l-0.068,-0.008l-0.067,-0.009l-0.068,-0.009l-0.068,-0.01l-0.067,-0.01l-0.068,-0.01l-0.068,-0.011l-0.068,-0.011l-0.068,-0.012l-0.068,-0.011l-0.068,-0.013l-0.067,-0.012l-0.068,-0.013l-0.069,-0.014l-0.068,-0.014l-0.068,-0.014l-0.068,-0.014l-0.068,-0.015l-0.068,-0.016l-0.068,-0.016l-0.068,-0.016l-0.068,-0.016l-0.069,-0.017l-0.068,-0.017l-0.068,-0.018l-0.068,-0.018l-0.068,-0.018l-0.069,-0.019l-0.068,-0.019l-0.068,-0.02l-0.069,-0.02l-0.068,-0.02l-0.069,-0.021l-0.068,-0.021l-0.069,-0.021l-0.068,-0.022l-0.069,-0.022l-0.068,-0.022l-0.069,-0.023l-0.068,-0.024l-0.069,-0.023l-0.068,-0.024l-0.069,-0.025l-0.069,-0.024l-0.068,-0.026l-0.069,-0.025l-0.069,-0.026l-0.068,-0.026l-0.069,-0.027l-0.069,-0.027l-0.068,-0.027l-0.069,-0.028l-0.069,-0.028l-0.069,-0.029l-0.069,-0.028l-0.069,-0.03l-0.068,-0.029l-0.069,-0.03l-0.069,-0.03l-0.069,-0.031l-0.069,-0.031l-0.069,-0.032l-0.069,-0.031l-0.069,-0.033l-0.069,-0.032l-0.069,-0.033l-0.069,-0.033l-0.069,-0.034l-0.069,-0.034l-0.069,-0.034l-0.069,-0.035l-0.069,-0.035l-0.07,-0.035l-0.069,-0.036l-0.069,-0.036l-0.069,-0.037l-0.069,-0.037l-0.069,-0.037l-0.07,-0.038l-0.069,-0.038l-0.069,-0.038l-0.068,-0.038l-0.064,-0.039l-0.061,-0.044l-0.057,-0.049l-0.053,-0.053l-0.049,-0.057l-0.044,-0.06l-0.039,-0.064l-0.034,-0.067l-0.029,-0.069l-0.023,-0.072l-0.018,-0.073l-0.012,-0.074l-0.006,-0.074l0,-0.075l0.006,-0.075l0.011,-0.074l0.018,-0.073l0.023,-0.072l0.029,-0.069l0.034,-0.067l0.039,-0.064l0.044,-0.061l0.048,-0.057l0.053,-0.053l0.057,-0.049l0.061,-0.044l0.064,-0.04l0.067,-0.034l0.069,-0.029l0.071,-0.023l0.073,-0.017l0.074,-0.012l0.075,-0.006l0.075,0l0.075,0.005l0.074,0.012l0.073,0.017l0.072,0.024l0.069,0.028l0.067,0.034l0.065,0.036l0.063,0.035l0.062,0.034l0.063,0.034l0.062,0.034l0.063,0.033l0.062,0.033l0.063,0.033l0.062,0.032l0.062,0.032l0.062,0.032l0.062,0.031l0.062,0.031l0.062,0.03l0.062,0.03l0.062,0.03l0.062,0.03l0.062,0.029l0.061,0.028l0.062,0.029l0.061,0.028l0.061,0.027l0.062,0.028l0.061,0.027l0.061,0.026l0.061,0.026l0.061,0.026l0.061,0.026l0.061,0.025l0.061,0.025l0.061,0.024l0.06,0.025l0.061,0.023l0.06,0.024l0.061,0.023l0.06,0.023l0.06,0.022l0.061,0.022l0.06,0.022l0.06,0.021l0.06,0.021l0.06,0.021l0.06,0.02l0.059,0.02l0.06,0.02l0.06,0.019l0.059,0.019l0.06,0.019l0.059,0.018l0.06,0.018l0.059,0.017l0.059,0.017l0.059,0.017l0.059,0.017l0.059,0.016l0.059,0.016l0.059,0.015l0.059,0.016l0.058,0.015l0.059,0.014l0.058,0.014l0.059,0.014l0.058,0.013l0.058,0.014l0.059,0.012l0.058,0.013l0.058,0.012l0.058,0.012l0.058,0.011l0.058,0.011l0.058,0.011l0.057,0.011l0.058,0.01l0.058,0.009l0.057,0.01l0.058,0.009l0.057,0.009l0.057,0.008l0.058,0.008l0.057,0.008l0.057,0.007l0.057,0.008l0.057,0.006l0.057,0.007l0.057,0.006l0.057,0.006l0.056,0.005l0.057,0.005l0.057,0.005l0.056,0.005l0.056,0.004l0.057,0.003l0.056,0.004l0.056,0.003l0.056,0.003l0.056,0.002l0.057,0.003l0.056,0.001l0.055,0.002l0.056,0.001l0.056,0.001l0.056,0l0.055,0.001l0.056,-0.001l0.056,0l0.055,-0.001l0.056,-0.001l0.055,-0.001l0.055,-0.002l0.056,-0.002l0.055,-0.003l0.055,-0.002l0.055,-0.003l0.055,-0.004l0.055,-0.004l0.055,-0.004l0.055,-0.004l0.055,-0.005l0.054,-0.005l0.055,-0.005l0.055,-0.006l0.054,-0.006l0.055,-0.006l0.055,-0.007l0.054,-0.007l0.054,-0.007l0.055,-0.008l0.054,-0.008l0.054,-0.008l0.054,-0.008l0.055,-0.009l0.054,-0.01l0.054,-0.009l0.054,-0.01l0.054,-0.01l0.054,-0.011l0.054,-0.011l0.054,-0.011l0.053,-0.012l0.054,-0.011l0.054,-0.013l0.053,-0.012l0.054,-0.013l0.054,-0.013l0.053,-0.014l0.054,-0.013l0.053,-0.015l0.054,-0.014l0.053,-0.015l0.053,-0.015l0.054,-0.016l0.053,-0.015l0.053,-0.017l0.054,-0.016l0.053,-0.017l0.053,-0.017l0.053,-0.017l0.053,-0.018l0.053,-0.018l0.053,-0.019l0.053,-0.019l0.053,-0.019l0.053,-0.019l0.053,-0.02l0.053,-0.02l0.052,-0.021l0.053,-0.02l0.053,-0.021l0.053,-0.022l0.052,-0.022l0.053,-0.022l0.052,-0.022l0.053,-0.023l0.052,-0.023l0.053,-0.024l0.052,-0.024l0.053,-0.024l0.053,-0.025l0.052,-0.024l0.052,-0.026l0.053,-0.025l0.052,-0.026l0.052,-0.026l0.052,-0.027l0.053,-0.027l0.052,-0.027l0.052,-0.028l0.052,-0.027l0.052,-0.029l0.052,-0.028l0.052,-0.029l0.052,-0.03l0.052,-0.029l0.052,-0.03l0.052,-0.031l0.052,-0.03l0.052,-0.032l0.052,-0.031l0.051,-0.032l0.052,-0.032l0.052,-0.032l0.052,-0.033l0.051,-0.033l0.052,-0.034l0.052,-0.034l0.051,-0.034l0.052,-0.034l0.051,-0.035l0.052,-0.035l0.051,-0.036l0.052,-0.036l0.052,-0.036l0.051,-0.037l0.051,-0.037l0.051,-0.037l0.052,-0.038l0.051,-0.038l0.051,-0.039l0.052,-0.038l0.051,-0.04l0.051,-0.039l0.051,-0.04l0.051,-0.04l0.051,-0.041l0.051,-0.041l0.051,-0.041l0.051,-0.042l0.051,-0.042l0.051,-0.042l0.051,-0.043l0.051,-0.043l0.051,-0.043l0.05,-0.044l0.051,-0.044l0.051,-0.045l0.05,-0.044l0.051,-0.046l0.051,-0.046l0.05,-0.045l0.051,-0.047l0.05,-0.047l0.051,-0.046l0.05,-0.048l0.051,-0.048l0.05,-0.048l0.05,-0.048l0.05,-0.049l0.051,-0.049l0.05,-0.05l0.05,-0.05l0.05,-0.05l0.05,-0.051l0.05,-0.051l0.05,-0.051l0.05,-0.052l0.051,-0.053l0.054,-0.053l0.058,-0.047l0.062,-0.043l0.064,-0.038l0.068,-0.033l0.07,-0.028l0.071,-0.022l0.074,-0.016l0.074,-0.011l0.075,-0.004l0.075,0.001Z"/><path d="M50.952,63.965c1.034,-0.526 2.095,-0.517 2.368,0.019c0.272,0.537 -0.346,1.399 -1.381,1.924c-1.034,0.526 -2.095,0.517 -2.368,-0.019c-0.272,-0.537 0.346,-1.399 1.381,-1.924Z" style="fill:#b7f8ff;"/><path d="M91.698,61.721c0.89,0.745 1.299,1.724 0.913,2.185c-0.386,0.462 -1.422,0.232 -2.312,-0.512c-0.89,-0.744 -1.299,-1.723 -0.913,-2.185c0.386,-0.462 1.422,-0.232 2.312,0.512Z" style="fill:#b7f8ff;"/><path d="M44.334,63.753c7.554,-2.481 15.701,1.639 18.182,9.193c2.48,7.554 -1.639,15.701 -9.193,18.182c-7.555,2.481 -15.702,-1.639 -18.182,-9.193c-2.481,-7.554 1.638,-15.701 9.193,-18.182Z" style="fill:#fff;stroke:#000;stroke-width:1.91px;"/><path d="M78.6,66.831c5.677,-1.864 11.8,1.232 13.664,6.909c1.864,5.678 -1.231,11.801 -6.909,13.665c-5.677,1.864 -11.8,-1.232 -13.664,-6.909c-1.865,-5.677 1.231,-11.8 6.909,-13.665Z" style="fill:#fff;stroke:#000;stroke-width:1.91px;"/><path d="M51.16,76.83c2.684,-0.881 5.577,0.582 6.458,3.265c0.882,2.683 -0.582,5.577 -3.265,6.458c-2.683,0.881 -5.577,-0.582 -6.458,-3.265c-0.881,-2.683 0.582,-5.577 3.265,-6.458Z"/><path d="M81.656,77.197c2.017,-0.662 4.191,0.438 4.854,2.454c0.662,2.017 -0.438,4.192 -2.454,4.854c-2.017,0.662 -4.192,-0.438 -4.854,-2.454c-0.662,-2.017 0.438,-4.191 2.454,-4.854Z"/><path d="M51.116,79.004c0.753,-0.248 1.565,0.163 1.813,0.916c0.247,0.754 -0.164,1.566 -0.917,1.814c-0.753,0.247 -1.566,-0.164 -1.813,-0.917c-0.247,-0.753 0.163,-1.566 0.917,-1.813Z" style="fill:#fff;"/><path d="M81.623,78.831c0.566,-0.186 1.176,0.123 1.362,0.689c0.186,0.566 -0.123,1.177 -0.689,1.363c-0.566,0.186 -1.177,-0.123 -1.362,-0.689c-0.186,-0.566 0.122,-1.177 0.689,-1.363Z" style="fill:#fff;"/></g><path d="M99.52,62.33c1.039,0.218 2.004,-0.562 2.666,-1.26c8.05,-8.489 -4.865,-9.426 -6.701,-3.371" style="fill:#61e0ee;"/><path d="M101.46,52.537l0.077,0.001l0.076,0.002l0.077,0.003l0.077,0.003l0.076,0.005l0.076,0.005l0.076,0.006l0.076,0.007l0.075,0.008l0.076,0.009l0.075,0.009l0.075,0.01l0.073,0.011l0.039,0.006l0.037,0.007l0.037,0.006l0.037,0.007l0.037,0.006l0.037,0.007l0.037,0.008l0.037,0.007l0.037,0.008l0.036,0.008l0.037,0.008l0.036,0.008l0.037,0.009l0.036,0.009l0.036,0.009l0.037,0.009l0.036,0.01l0.036,0.01l0.036,0.01l0.036,0.01l0.036,0.01l0.036,0.011l0.035,0.011l0.036,0.011l0.035,0.012l0.036,0.012l0.035,0.012l0.035,0.012l0.035,0.012l0.035,0.013l0.036,0.013l0.034,0.013l0.035,0.014l0.035,0.014l0.034,0.014l0.035,0.014l0.034,0.015l0.034,0.015l0.035,0.015l0.034,0.015l0.033,0.016l0.034,0.016l0.034,0.016l0.033,0.017l0.033,0.016l0.034,0.018l0.033,0.017l0.033,0.018l0.033,0.018l0.033,0.018l0.032,0.018l0.033,0.02l0.032,0.018l0.033,0.02l0.032,0.02l0.031,0.02l0.032,0.02l0.031,0.021l0.032,0.021l0.031,0.021l0.031,0.021l0.031,0.023l0.032,0.022l0.03,0.023l0.03,0.022l0.03,0.024l0.03,0.023l0.029,0.024l0.03,0.024l0.03,0.025l0.028,0.024l0.03,0.026l0.028,0.025l0.028,0.026l0.03,0.027l0.027,0.026l0.028,0.026l0.027,0.028l0.027,0.027l0.028,0.028l0.026,0.028l0.026,0.028l0.027,0.029l0.026,0.03l0.025,0.029l0.025,0.029l0.026,0.031l0.024,0.03l0.025,0.031l0.024,0.032l0.023,0.03l0.024,0.032l0.024,0.033l0.022,0.031l0.022,0.033l0.022,0.033l0.022,0.033l0.022,0.034l0.021,0.034l0.02,0.034l0.021,0.035l0.02,0.034l0.019,0.035l0.019,0.036l0.019,0.035l0.018,0.036l0.019,0.037l0.017,0.036l0.017,0.036l0.017,0.038l0.015,0.036l0.016,0.037l0.016,0.039l0.015,0.038l0.014,0.037l0.014,0.038l0.014,0.04l0.013,0.039l0.013,0.038l0.012,0.039l0.012,0.039l0.012,0.04l0.011,0.04l0.01,0.04l0.01,0.041l0.01,0.039l0.009,0.04l0.008,0.041l0.009,0.041l0.007,0.04l0.008,0.043l0.007,0.041l0.006,0.04l0.006,0.042l0.005,0.041l0.005,0.042l0.005,0.043l0.004,0.041l0.003,0.041l0.003,0.043l0.003,0.043l0.002,0.042l0.002,0.041l0.001,0.042l0.001,0.043l0,0.044l0,0.042l0,0.042l-0.001,0.043l-0.002,0.044l-0.002,0.042l-0.002,0.043l-0.003,0.044l-0.003,0.042l-0.003,0.044l-0.005,0.043l-0.004,0.044l-0.005,0.043l-0.005,0.043l-0.006,0.044l-0.006,0.044l-0.007,0.043l-0.007,0.043l-0.007,0.044l-0.009,0.045l-0.008,0.043l-0.008,0.043l-0.01,0.044l-0.009,0.045l-0.01,0.043l-0.01,0.044l-0.012,0.045l-0.011,0.044l-0.011,0.043l-0.012,0.044l-0.013,0.045l-0.013,0.045l-0.013,0.045l-0.013,0.043l-0.014,0.044l-0.015,0.045l-0.015,0.044l-0.015,0.045l-0.016,0.045l-0.016,0.045l-0.016,0.044l-0.017,0.045l-0.017,0.046l-0.018,0.044l-0.018,0.045l-0.018,0.045l-0.019,0.045l-0.019,0.045l-0.02,0.046l-0.02,0.045l-0.02,0.046l-0.021,0.045l-0.021,0.045l-0.022,0.046l-0.022,0.045l-0.022,0.047l-0.023,0.045l-0.023,0.046l-0.024,0.046l-0.024,0.047l-0.024,0.045l-0.024,0.046l-0.026,0.047l-0.025,0.046l-0.026,0.046l-0.027,0.047l-0.026,0.046l-0.028,0.048l-0.027,0.046l-0.028,0.047l-0.028,0.047l-0.029,0.047l-0.029,0.047l-0.029,0.047l-0.031,0.048l-0.03,0.047l-0.031,0.047l-0.031,0.048l-0.031,0.048l-0.033,0.048l-0.032,0.048l-0.033,0.048l-0.033,0.048l-0.034,0.048l-0.033,0.048l-0.035,0.049l-0.035,0.048l-0.035,0.049l-0.036,0.049l-0.036,0.049l-0.037,0.049l-0.037,0.049l-0.037,0.049l-0.038,0.049l-0.038,0.05l-0.039,0.05l-0.039,0.05l-0.04,0.049l-0.04,0.05l-0.04,0.05l-0.041,0.05l-0.042,0.051l-0.041,0.05l-0.043,0.051l-0.042,0.051l-0.043,0.05l-0.044,0.051l-0.044,0.051l-0.044,0.052l-0.045,0.051l-0.045,0.051l-0.046,0.052l-0.046,0.051l-0.047,0.052l-0.047,0.052l-0.048,0.052l-0.048,0.053l-0.048,0.052l-0.049,0.052l-0.05,0.053l-0.05,0.053l-0.035,0.038l-0.037,0.038l-0.037,0.038l-0.038,0.038l-0.039,0.039l-0.039,0.039l-0.04,0.039l-0.041,0.039l-0.041,0.039l-0.041,0.039l-0.043,0.039l-0.043,0.039l-0.044,0.039l-0.045,0.039l-0.044,0.039l-0.047,0.039l-0.046,0.039l-0.048,0.039l-0.047,0.038l-0.049,0.039l-0.05,0.038l-0.05,0.037l-0.051,0.038l-0.052,0.037l-0.052,0.037l-0.054,0.037l-0.054,0.036l-0.055,0.035l-0.056,0.035l-0.056,0.035l-0.058,0.034l-0.057,0.032l-0.031,0.018l-0.03,0.016l-0.03,0.017l-0.03,0.015l-0.031,0.016l-0.031,0.016l-0.03,0.015l-0.031,0.015l-0.033,0.015l-0.032,0.016l-0.031,0.014l-0.032,0.014l-0.032,0.014l-0.033,0.014l-0.034,0.014l-0.033,0.014l-0.033,0.012l-0.034,0.013l-0.034,0.013l-0.033,0.012l-0.035,0.012l-0.035,0.012l-0.035,0.011l-0.035,0.011l-0.036,0.011l-0.036,0.011l-0.036,0.01l-0.036,0.01l-0.036,0.009l-0.037,0.009l-0.037,0.009l-0.037,0.008l-0.037,0.008l-0.039,0.008l-0.038,0.007l-0.038,0.006l-0.039,0.007l-0.038,0.005l-0.039,0.006l-0.04,0.004l-0.039,0.005l-0.039,0.004l-0.04,0.003l-0.04,0.003l-0.041,0.003l-0.04,0.001l-0.039,0.002l-0.041,0.001l-0.042,0l-0.04,0l-0.041,-0.001l-0.042,-0.001l-0.042,-0.002l-0.041,-0.003l-0.042,-0.003l-0.041,-0.004l-0.042,-0.004l-0.042,-0.005l-0.042,-0.005l-0.041,-0.006l-0.043,-0.007l-0.042,-0.007l-0.041,-0.008l-0.033,-0.007l-0.066,-0.015l-0.066,-0.019l-0.064,-0.022l-0.063,-0.025l-0.061,-0.029l-0.06,-0.032l-0.058,-0.035l-0.056,-0.039l-0.054,-0.041l-0.052,-0.044l-0.049,-0.046l-0.046,-0.05l-0.044,-0.051l-0.042,-0.054l-0.038,-0.056l-0.035,-0.058l-0.032,-0.06l-0.029,-0.061l-0.026,-0.063l-0.022,-0.064l-0.019,-0.066l-0.015,-0.066l-0.012,-0.067l-0.008,-0.067l-0.004,-0.068l-0.001,-0.067l0.003,-0.068l0.006,-0.068l0.01,-0.067l0.013,-0.066l0.017,-0.066l0.021,-0.065l0.023,-0.063l0.028,-0.063l0.03,-0.06l0.034,-0.059l0.037,-0.057l0.039,-0.055l0.043,-0.053l0.045,-0.05l0.048,-0.048l0.051,-0.046l0.052,-0.042l0.055,-0.04l0.057,-0.037l0.059,-0.034l0.061,-0.03l0.062,-0.027l0.064,-0.024l0.064,-0.021l0.066,-0.017l0.066,-0.013l0.068,-0.01l0.067,-0.006l0.068,-0.003l0.068,0.001l0.068,0.004l0.067,0.008l0.067,0.012l0.015,0.003l0.008,0.002l0.006,0.001l0.006,0.001l0.007,0.001l0.007,0.001l0.006,0l0.006,0.001l0.007,0.001l0.007,0l0.006,0l0.007,0.001l0.006,0l0.007,0l0.007,0l0.006,0l0.007,0l0.008,0l0.007,-0.001l0.007,0l0.007,-0.001l0.008,0l0.008,-0.001l0.007,-0.001l0.008,-0.001l0.007,-0.001l0.01,-0.001l0.007,-0.001l0.009,-0.002l0.009,-0.002l0.007,-0.001l0.01,-0.002l0.009,-0.002l0.008,-0.002l0.01,-0.003l0.01,-0.002l0.009,-0.003l0.01,-0.002l0.01,-0.003l0.01,-0.003l0.01,-0.003l0.01,-0.004l0.01,-0.003l0.011,-0.004l0.011,-0.004l0.011,-0.004l0.011,-0.004l0.012,-0.005l0.011,-0.004l0.01,-0.005l0.012,-0.005l0.012,-0.005l0.013,-0.005l0.012,-0.006l0.011,-0.005l0.012,-0.006l0.012,-0.006l0.014,-0.007l0.012,-0.006l0.012,-0.006l0.014,-0.007l0.012,-0.007l0.013,-0.007l0.011,-0.006l0.029,-0.017l0.026,-0.015l0.027,-0.017l0.027,-0.017l0.028,-0.018l0.027,-0.018l0.028,-0.019l0.028,-0.02l0.029,-0.02l0.028,-0.021l0.028,-0.021l0.029,-0.022l0.028,-0.022l0.029,-0.024l0.029,-0.023l0.028,-0.024l0.029,-0.024l0.029,-0.025l0.028,-0.025l0.028,-0.025l0.029,-0.026l0.028,-0.026l0.028,-0.026l0.029,-0.027l0.027,-0.027l0.028,-0.027l0.027,-0.027l0.028,-0.028l0.027,-0.027l0.027,-0.028l0.027,-0.027l0.027,-0.028l0.043,-0.047l0.044,-0.046l0.043,-0.046l0.042,-0.046l0.042,-0.046l0.042,-0.045l0.041,-0.045l0.04,-0.045l0.041,-0.046l0.039,-0.044l0.039,-0.044l0.039,-0.045l0.038,-0.044l0.038,-0.043l0.037,-0.044l0.037,-0.043l0.036,-0.043l0.036,-0.043l0.035,-0.043l0.035,-0.042l0.034,-0.042l0.034,-0.042l0.034,-0.042l0.033,-0.042l0.032,-0.041l0.032,-0.041l0.032,-0.041l0.031,-0.04l0.031,-0.041l0.03,-0.04l0.03,-0.04l0.029,-0.04l0.029,-0.039l0.028,-0.039l0.028,-0.039l0.028,-0.039l0.027,-0.039l0.027,-0.039l0.026,-0.037l0.026,-0.038l0.026,-0.038l0.024,-0.037l0.025,-0.037l0.024,-0.037l0.024,-0.036l0.023,-0.037l0.023,-0.036l0.023,-0.036l0.022,-0.036l0.021,-0.035l0.021,-0.035l0.021,-0.035l0.021,-0.035l0.019,-0.033l0.02,-0.035l0.019,-0.034l0.019,-0.033l0.018,-0.034l0.018,-0.033l0.018,-0.033l0.017,-0.033l0.017,-0.031l0.016,-0.032l0.016,-0.032l0.016,-0.032l0.015,-0.031l0.015,-0.031l0.014,-0.03l0.015,-0.031l0.013,-0.03l0.014,-0.03l0.013,-0.029l0.012,-0.03l0.013,-0.029l0.012,-0.028l0.011,-0.028l0.012,-0.029l0.011,-0.029l0.01,-0.026l0.01,-0.028l0.011,-0.027l0.009,-0.027l0.009,-0.026l0.009,-0.026l0.009,-0.026l0.008,-0.025l0.008,-0.026l0.008,-0.026l0.008,-0.025l0.006,-0.023l0.007,-0.024l0.006,-0.023l0.007,-0.026l0.006,-0.023l0.005,-0.022l0.006,-0.022l0.005,-0.023l0.005,-0.022l0.004,-0.021l0.004,-0.023l0.005,-0.021l0.003,-0.021l0.004,-0.02l0.003,-0.021l0.003,-0.02l0.003,-0.02l0.003,-0.019l0.002,-0.019l0.002,-0.019l0.002,-0.019l0.002,-0.018l0.001,-0.017l0.002,-0.019l0.001,-0.017l0.001,-0.017l0,-0.018l0.001,-0.015l0,-0.016l0,-0.017l0,-0.017l0,-0.015l0,-0.014l0,-0.016l-0.001,-0.015l-0.001,-0.015l-0.001,-0.014l-0.001,-0.013l-0.001,-0.015l-0.001,-0.014l-0.002,-0.012l-0.001,-0.013l-0.002,-0.013l-0.002,-0.013l-0.002,-0.014l-0.002,-0.012l-0.002,-0.01l-0.002,-0.013l-0.002,-0.011l-0.003,-0.011l-0.002,-0.013l-0.003,-0.012l-0.003,-0.01l-0.002,-0.01l-0.004,-0.011l-0.002,-0.01l-0.004,-0.011l-0.003,-0.01l-0.003,-0.011l-0.004,-0.01l-0.003,-0.008l-0.003,-0.01l-0.005,-0.011l-0.003,-0.009l-0.004,-0.008l-0.003,-0.01l-0.005,-0.01l-0.004,-0.008l-0.004,-0.009l-0.005,-0.01l-0.004,-0.008l-0.004,-0.009l-0.005,-0.009l-0.004,-0.008l-0.005,-0.009l-0.005,-0.009l-0.005,-0.008l-0.005,-0.009l-0.006,-0.008l-0.004,-0.008l-0.006,-0.008l-0.005,-0.008l-0.006,-0.009l-0.007,-0.009l-0.005,-0.007l-0.006,-0.008l-0.007,-0.009l-0.006,-0.008l-0.006,-0.008l-0.007,-0.008l-0.006,-0.008l-0.007,-0.008l-0.008,-0.009l-0.007,-0.008l-0.007,-0.007l-0.007,-0.009l-0.008,-0.008l-0.008,-0.007l-0.008,-0.009l-0.008,-0.008l-0.008,-0.008l-0.01,-0.009l-0.007,-0.007l-0.009,-0.008l-0.01,-0.008l-0.009,-0.008l-0.01,-0.009l-0.009,-0.007l-0.009,-0.008l-0.011,-0.009l-0.01,-0.007l-0.01,-0.008l-0.011,-0.009l-0.011,-0.008l-0.01,-0.007l-0.011,-0.008l-0.012,-0.008l-0.012,-0.008l-0.011,-0.007l-0.011,-0.008l-0.013,-0.008l-0.013,-0.008l-0.012,-0.008l-0.012,-0.007l-0.014,-0.008l-0.012,-0.007l-0.014,-0.008l-0.014,-0.008l-0.013,-0.007l-0.014,-0.008l-0.014,-0.007l-0.014,-0.007l-0.015,-0.008l-0.015,-0.007l-0.015,-0.007l-0.015,-0.007l-0.016,-0.008l-0.015,-0.007l-0.015,-0.006l-0.016,-0.007l-0.017,-0.007l-0.016,-0.007l-0.017,-0.007l-0.017,-0.007l-0.016,-0.006l-0.017,-0.007l-0.017,-0.006l-0.018,-0.006l-0.018,-0.007l-0.017,-0.006l-0.019,-0.006l-0.018,-0.006l-0.018,-0.006l-0.019,-0.006l-0.018,-0.006l-0.019,-0.005l-0.019,-0.006l-0.02,-0.005l-0.019,-0.006l-0.02,-0.005l-0.02,-0.005l-0.019,-0.006l-0.02,-0.005l-0.021,-0.004l-0.02,-0.005l-0.021,-0.005l-0.021,-0.005l-0.021,-0.004l-0.021,-0.005l-0.021,-0.004l-0.021,-0.004l-0.022,-0.004l-0.021,-0.004l-0.022,-0.004l-0.022,-0.004l-0.022,-0.004l-0.021,-0.003l-0.046,-0.007l-0.046,-0.006l-0.046,-0.006l-0.046,-0.005l-0.047,-0.005l-0.047,-0.004l-0.048,-0.004l-0.049,-0.004l-0.048,-0.002l-0.049,-0.003l-0.05,-0.002l-0.05,-0.001l-0.05,-0.001l-0.051,0l-0.051,0l-0.051,0.001l-0.052,0.001l-0.052,0.002l-0.052,0.003l-0.052,0.003l-0.053,0.003l-0.053,0.004l-0.053,0.005l-0.053,0.005l-0.054,0.005l-0.053,0.007l-0.054,0.006l-0.054,0.007l-0.054,0.008l-0.054,0.009l-0.055,0.009l-0.054,0.009l-0.055,0.01l-0.054,0.011l-0.054,0.011l-0.055,0.011l-0.055,0.013l-0.054,0.012l-0.055,0.014l-0.054,0.013l-0.055,0.015l-0.054,0.015l-0.054,0.015l-0.055,0.016l-0.054,0.017l-0.054,0.017l-0.054,0.017l-0.053,0.018l-0.054,0.019l-0.053,0.019l-0.054,0.02l-0.053,0.02l-0.052,0.021l-0.053,0.021l-0.052,0.022l-0.053,0.022l-0.051,0.023l-0.052,0.023l-0.051,0.024l-0.051,0.024l-0.053,0.026l-0.023,0.011l-0.026,0.013l-0.025,0.013l-0.024,0.013l-0.026,0.013l-0.024,0.013l-0.025,0.014l-0.025,0.013l-0.025,0.014l-0.023,0.013l-0.025,0.014l-0.024,0.014l-0.025,0.014l-0.024,0.014l-0.024,0.014l-0.023,0.015l-0.024,0.014l-0.024,0.015l-0.023,0.015l-0.024,0.015l-0.024,0.015l-0.023,0.015l-0.023,0.015l-0.023,0.015l-0.023,0.015l-0.022,0.016l-0.023,0.016l-0.023,0.016l-0.022,0.015l-0.023,0.016l-0.022,0.016l-0.022,0.016l-0.022,0.016l-0.022,0.017l-0.021,0.017l-0.022,0.016l-0.022,0.017l-0.021,0.017l-0.021,0.017l-0.022,0.017l-0.021,0.017l-0.02,0.017l-0.021,0.017l-0.02,0.018l-0.021,0.018l-0.02,0.017l-0.02,0.018l-0.02,0.018l-0.02,0.018l-0.02,0.018l-0.02,0.018l-0.019,0.019l-0.019,0.017l-0.019,0.019l-0.02,0.019l-0.019,0.019l-0.018,0.018l-0.019,0.019l-0.018,0.019l-0.019,0.019l-0.018,0.02l-0.018,0.019l-0.018,0.019l-0.018,0.019l-0.017,0.02l-0.018,0.02l-0.017,0.02l-0.017,0.019l-0.017,0.021l-0.017,0.02l-0.016,0.019l-0.017,0.021l-0.017,0.021l-0.016,0.02l-0.016,0.02l-0.016,0.021l-0.016,0.021l-0.015,0.02l-0.016,0.021l-0.015,0.021l-0.016,0.022l-0.015,0.021l-0.014,0.021l-0.015,0.021l-0.014,0.022l-0.015,0.022l-0.014,0.021l-0.014,0.022l-0.014,0.022l-0.014,0.022l-0.013,0.022l-0.014,0.023l-0.013,0.022l-0.013,0.022l-0.013,0.023l-0.013,0.023l-0.012,0.022l-0.012,0.023l-0.013,0.023l-0.012,0.023l-0.011,0.023l-0.012,0.024l-0.012,0.023l-0.011,0.023l-0.011,0.023l-0.012,0.025l-0.011,0.024l-0.01,0.023l-0.011,0.024l-0.01,0.024l-0.011,0.025l-0.01,0.024l-0.009,0.025l-0.01,0.024l-0.01,0.025l-0.009,0.026l-0.009,0.024l-0.009,0.025l-0.009,0.025l-0.009,0.026l-0.008,0.025l-0.009,0.026l-0.008,0.026l-0.009,0.029l-0.022,0.064l-0.024,0.063l-0.029,0.062l-0.031,0.06l-0.035,0.058l-0.038,0.057l-0.04,0.054l-0.044,0.052l-0.046,0.05l-0.049,0.047l-0.051,0.044l-0.054,0.042l-0.056,0.039l-0.057,0.036l-0.06,0.032l-0.061,0.03l-0.062,0.026l-0.064,0.023l-0.065,0.019l-0.066,0.016l-0.067,0.012l-0.067,0.009l-0.068,0.005l-0.068,0.001l-0.068,-0.002l-0.067,-0.005l-0.068,-0.01l-0.066,-0.013l-0.066,-0.016l-0.065,-0.02l-0.064,-0.023l-0.062,-0.027l-0.061,-0.03l-0.059,-0.033l-0.057,-0.036l-0.056,-0.039l-0.053,-0.042l-0.051,-0.045l-0.048,-0.048l-0.046,-0.05l-0.043,-0.052l-0.04,-0.055l-0.038,-0.057l-0.034,-0.058l-0.031,-0.061l-0.028,-0.062l-0.024,-0.063l-0.021,-0.064l-0.018,-0.066l-0.014,-0.066l-0.01,-0.067l-0.007,-0.068l-0.004,-0.068l0.001,-0.067l0.004,-0.068l0.007,-0.068l0.011,-0.067l0.015,-0.066l0.018,-0.065l0.013,-0.042l0.014,-0.045l0.014,-0.044l0.015,-0.044l0.015,-0.044l0.015,-0.044l0.016,-0.044l0.016,-0.044l0.017,-0.043l0.016,-0.043l0.017,-0.043l0.017,-0.043l0.018,-0.042l0.018,-0.042l0.018,-0.042l0.018,-0.042l0.019,-0.043l0.02,-0.042l0.018,-0.04l0.02,-0.041l0.02,-0.042l0.02,-0.04l0.02,-0.04l0.021,-0.041l0.021,-0.04l0.021,-0.039l0.022,-0.04l0.022,-0.04l0.022,-0.039l0.022,-0.039l0.023,-0.039l0.023,-0.038l0.023,-0.038l0.023,-0.039l0.024,-0.037l0.024,-0.038l0.024,-0.037l0.024,-0.038l0.024,-0.036l0.025,-0.037l0.025,-0.037l0.026,-0.037l0.025,-0.036l0.026,-0.035l0.026,-0.036l0.025,-0.035l0.027,-0.035l0.027,-0.036l0.027,-0.034l0.026,-0.034l0.028,-0.035l0.027,-0.034l0.027,-0.033l0.029,-0.035l0.028,-0.033l0.028,-0.033l0.028,-0.033l0.029,-0.032l0.029,-0.033l0.029,-0.032l0.029,-0.032l0.03,-0.032l0.029,-0.032l0.03,-0.031l0.03,-0.031l0.03,-0.031l0.03,-0.03l0.03,-0.031l0.032,-0.031l0.03,-0.029l0.031,-0.03l0.031,-0.03l0.031,-0.029l0.032,-0.029l0.031,-0.029l0.032,-0.029l0.032,-0.028l0.032,-0.028l0.032,-0.029l0.032,-0.027l0.033,-0.028l0.032,-0.027l0.034,-0.027l0.033,-0.028l0.032,-0.026l0.033,-0.026l0.034,-0.027l0.033,-0.025l0.034,-0.026l0.033,-0.026l0.034,-0.025l0.034,-0.025l0.034,-0.026l0.035,-0.024l0.034,-0.025l0.034,-0.024l0.035,-0.024l0.034,-0.024l0.035,-0.024l0.035,-0.023l0.035,-0.023l0.035,-0.024l0.036,-0.022l0.035,-0.023l0.035,-0.022l0.035,-0.022l0.036,-0.022l0.036,-0.022l0.036,-0.022l0.036,-0.021l0.035,-0.021l0.036,-0.021l0.036,-0.021l0.036,-0.02l0.038,-0.021l0.036,-0.02l0.036,-0.019l0.037,-0.02l0.036,-0.02l0.037,-0.019l0.037,-0.019l0.037,-0.019l0.037,-0.019l0.038,-0.019l0.073,-0.035l0.075,-0.036l0.075,-0.035l0.075,-0.034l0.075,-0.033l0.076,-0.032l0.076,-0.032l0.076,-0.03l0.076,-0.03l0.077,-0.029l0.076,-0.029l0.077,-0.027l0.077,-0.027l0.077,-0.026l0.077,-0.025l0.078,-0.025l0.077,-0.023l0.078,-0.023l0.078,-0.022l0.077,-0.022l0.078,-0.02l0.079,-0.02l0.078,-0.019l0.078,-0.018l0.078,-0.018l0.078,-0.016l0.078,-0.016l0.079,-0.016l0.078,-0.014l0.078,-0.014l0.079,-0.012l0.078,-0.013l0.078,-0.011l0.079,-0.01l0.078,-0.01l0.078,-0.009l0.078,-0.008l0.078,-0.008l0.078,-0.007l0.079,-0.005l0.077,-0.006l0.078,-0.004l0.078,-0.003l0.077,-0.003l0.078,-0.002l0.077,-0.001l0.078,-0.001l0.077,0.001Z"/><path d="M90.737,115.813c0,0 7.888,-5.278 7.771,-11.002c-0.116,-5.723 -4.958,-6.766 -6.522,-2.685c-1.563,4.081 -3.386,7.782 -6.669,9.021c-3.282,1.239 0.476,8.045 5.42,4.666Z" style="fill:#d6c295;stroke:#000;stroke-width:1.91px;"/><path d="M73.498,49.584c0,0 -5.595,-3.141 -3.914,8.152" style="fill:none;stroke:#40c9e0;stroke-width:1.91px;"/><path d="M58.468,52.979c0,0 2.787,-5.488 7.588,5.246" style="fill:none;stroke:#40c9e0;stroke-width:1.91px;"/><path d="M68.487,46.027c0,0 -5.71,-1.6 -1.089,10.466" style="fill:none;stroke:#40c9e0;stroke-width:1.91px;"/><circle cx="48.644" cy="76.9" r="18.82" style="fill:none;stroke:#000;stroke-width:2.55px;"/><path d="M48.811,97.635c0,-0.505 -0.41,-0.916 -0.916,-0.916l-1.832,0c-0.506,0 -0.916,0.411 -0.916,0.916l0,17.821c0,0.505 0.41,0.916 0.916,0.916l1.832,0c0.506,0 0.916,-0.411 0.916,-0.916l0,-17.821Z"/></g><g><path d="M61.319,116.738c2.436,0.609 3.831,3.428 3.115,6.289c-0.716,2.861 -3.276,4.689 -5.711,4.079c-2.436,-0.61 -3.832,-3.428 -3.115,-6.289c0.716,-2.861 3.275,-4.689 5.711,-4.079Z"/><path d="M59.552,123.562c1.648,0.413 2.656,2.069 2.248,3.697c-0.407,1.627 -2.077,2.614 -3.725,2.201c-1.649,-0.413 -2.656,-2.069 -2.249,-3.697c0.408,-1.627 2.077,-2.614 3.726,-2.201Z"/><path d="M63.97,121.266c0,0 2.245,-2.814 3.457,-0.556c1.211,2.258 1.518,2.927 1.518,2.927" style="fill:none;stroke:#000;stroke-width:1px;"/><path d="M57.052,119.509c0,0 -0.671,-3.638 -2.863,-2.178c-2.192,1.46 -2.793,1.918 -2.793,1.918" style="fill:none;stroke:#000;stroke-width:1px;"/><path d="M63.848,123.539c0,0 3.2,-1.649 3.381,0.907c0.181,2.556 0.187,3.292 0.187,3.292" style="fill:none;stroke:#000;stroke-width:1px;"/><path d="M56.027,121.772c0,0 -2.102,-3.044 -3.504,-0.815c-1.402,2.23 -1.763,2.894 -1.763,2.894" style="fill:none;stroke:#000;stroke-width:1px;"/><path d="M62.509,125.153c0,0 2.866,-0.599 2.454,1.444c-0.412,2.043 -0.567,2.621 -0.567,2.621" style="fill:none;stroke:#000;stroke-width:1px;"/><path d="M56.458,123.884c0,0 -2.307,-1.931 -2.923,0.12c-0.616,2.052 -0.755,2.651 -0.755,2.651" style="fill:none;stroke:#000;stroke-width:1px;"/></g></svg>