<?xml version="1.0" encoding="UTF-8" standalone="no"?>
<!DOCTYPE svg PUBLIC "-//W3C//DTD SVG 1.1//EN" "http://www.w3.org/Graphics/SVG/1.1/DTD/svg11.dtd">
<svg width="100%" height="100%" viewBox="0 0 600 600" version="1.1" xmlns="http://www.w3.org/2000/svg" xmlns:xlink="http://www.w3.org/1999/xlink" xml:space="preserve" xmlns:serif="http://www.serif.com/" style="fill-rule:evenodd;clip-rule:evenodd;stroke-linecap:round;stroke-linejoin:round;stroke-miterlimit:1.5;">
    <g transform="matrix(1,0,0,1,-3799.57,-913.473)">
        <g id="_14" serif:id="14" transform="matrix(1,0,0,1,3799.57,913.473)">
            <rect x="0" y="0" width="600" height="600" style="fill:none;"/>
            <g transform="matrix(1.04433,0,0,1.05229,-5192.9,-7042.84)">
                <g transform="matrix(1,0,0,1,-658.063,-296.212)">
                    <g transform="matrix(0.685391,0,0,0.685391,-714.254,2893.4)">
                        <g transform="matrix(-0.28892,0.156194,0.156194,0.28892,10077.4,5695.44)">
                            <path d="M2279.67,511.904C2283.15,491.051 2325.81,459.166 2343.54,451.945C2559.26,364.088 2483.64,611.456 2358.06,601.659" style="fill:rgb(97,224,238);"/>
                            <path d="M2254.51,507.9C2256.16,498.01 2262.4,486.012 2272.46,474.507C2290.03,454.428 2319.34,434.42 2334.02,428.443C2413.16,396.21 2460.3,407.025 2483.28,429.024C2507.44,452.151 2511.46,491.906 2495.63,531.14C2474.64,583.175 2420.15,631.994 2355.91,626.983C2341.88,625.889 2331.46,613.653 2332.65,599.677C2333.83,585.7 2346.19,575.242 2360.21,576.336C2401.47,579.555 2434.83,545.882 2448.31,512.461C2455.49,494.657 2458.77,476.251 2447.81,465.756C2442.28,460.468 2433.52,458.384 2421.72,458.438C2404.09,458.52 2381.51,463.865 2353.07,475.447C2344.34,479.005 2328.44,490.151 2316.34,501.959C2312.67,505.538 2309.36,509.172 2306.88,512.731C2306.04,513.937 2305.01,514.853 2304.83,515.908C2302.53,529.752 2289.38,539.197 2275.49,536.987C2261.6,534.777 2252.2,521.744 2254.51,507.9Z"/>
                        </g>
                        <g transform="matrix(0.942368,0,0,0.942368,6753.92,5165)">
                            <path d="M3077.27,879.49C3077.27,879.49 3106.83,848.653 3117.1,929.6" style="fill:none;stroke:rgb(97,224,238);stroke-width:13.26px;"/>
                        </g>
                        <g transform="matrix(0.750977,-0.569291,0.569291,0.750977,6805.25,7137.77)">
                            <path d="M3077.27,879.49C3077.27,879.49 3106.83,848.653 3117.1,929.6" style="fill:none;stroke:rgb(97,224,238);stroke-width:13.26px;"/>
                        </g>
                        <g transform="matrix(-0.931946,-0.139767,-0.139767,0.931946,12749.4,5626.06)">
                            <path d="M3077.27,879.49C3077.27,879.49 3106.83,848.653 3117.1,929.6" style="fill:none;stroke:rgb(97,224,238);stroke-width:13.26px;"/>
                        </g>
                        <g transform="matrix(-0.271942,-0.56175,-0.56175,0.271942,10891.9,8163.5)">
                            <path d="M2787.51,613.28C2787.51,613.28 2876.01,567.95 2927.82,598.17C2979.63,628.39 2964.52,678.037 2919.19,671.562C2873.86,665.086 2830.68,662.927 2802.62,686.672C2774.56,710.416 2731.39,641.342 2787.51,613.28Z" style="fill:rgb(214,194,149);stroke:black;stroke-width:20.03px;"/>
                        </g>
                        <g transform="matrix(-0.0450025,-0.622487,-0.622487,0.0450025,10176.9,8483.63)">
                            <path d="M2787.51,613.28C2787.51,613.28 2876.01,567.95 2927.82,598.17C2979.63,628.39 2964.52,678.037 2919.19,671.562C2873.86,665.086 2830.68,662.927 2802.62,686.672C2774.56,710.416 2731.39,641.342 2787.51,613.28Z" style="fill:rgb(214,194,149);stroke:black;stroke-width:20.03px;"/>
                        </g>
                        <g transform="matrix(0.255808,-0.205995,-0.205995,-0.255808,9416.08,6817.89)">
                            <path d="M2301.37,493.302C2304.85,472.448 2326.32,460.207 2344.05,452.986C2559.76,365.129 2483.64,611.456 2358.06,601.659" style="fill:rgb(97,224,238);"/>
                            <path d="M2276.23,489.306C2281.18,459.61 2309.32,439.718 2334.57,429.435C2413.66,397.221 2460.72,407.916 2483.62,429.742C2507.78,452.782 2511.74,492.464 2495.76,531.643C2474.65,583.405 2420.11,632.039 2355.89,627.029C2341.87,625.935 2331.47,613.68 2332.67,599.678C2333.87,585.677 2346.22,575.197 2360.23,576.29C2401.51,579.51 2435,546.019 2448.57,512.751C2455.74,495.173 2459.11,477.009 2448.26,466.671C2442.76,461.42 2434,459.384 2422.22,459.462C2404.59,459.578 2381.99,464.944 2353.52,476.538C2346.88,479.243 2339.45,482.732 2333.45,487.654C2330.26,490.262 2327.21,493.157 2326.52,497.297C2324.2,511.167 2311.06,520.638 2297.19,518.433C2283.31,516.227 2273.92,503.176 2276.23,489.306Z"/>
                        </g>
                        <g transform="matrix(-0.48568,-5.94787e-17,5.94787e-17,-0.48568,10661.7,6974.92)">
                            <path d="M1602.28,658.224C1602.28,658.224 1537.63,785.329 1549.85,894.354C1588.09,1235.66 1487.62,1302.63 1526.9,1510.82C1540.54,1583.11 1566.32,1665.45 1610.23,1725.3C1706.72,1856.83 1892.19,1925.15 2053.51,1894.26C2118.1,1881.89 2176.43,1853.93 2234.15,1823.26C2434.98,1716.58 2476.71,1491.41 2450.61,1301.63C2439.06,1217.62 2366.83,1086.68 2377.39,1002.44C2399.42,826.82 2393.26,731.764 2338.43,618.483C2291.7,521.934 2109.83,449.196 1911,469.87C1877.12,473.393 1674.41,508.918 1602.28,658.224Z" style="fill:rgb(97,224,238);"/>
                            <clipPath id="_clip1">
                                <path d="M1602.28,658.224C1602.28,658.224 1537.63,785.329 1549.85,894.354C1588.09,1235.66 1487.62,1302.63 1526.9,1510.82C1540.54,1583.11 1566.32,1665.45 1610.23,1725.3C1706.72,1856.83 1892.19,1925.15 2053.51,1894.26C2118.1,1881.89 2176.43,1853.93 2234.15,1823.26C2434.98,1716.58 2476.71,1491.41 2450.61,1301.63C2439.06,1217.62 2366.83,1086.68 2377.39,1002.44C2399.42,826.82 2393.26,731.764 2338.43,618.483C2291.7,521.934 2109.83,449.196 1911,469.87C1877.12,473.393 1674.41,508.918 1602.28,658.224Z"/>
                            </clipPath>
                            <g clip-path="url(#_clip1)">
                                <g transform="matrix(1.58206,-1.93747e-16,-1.93747e-16,-1.58206,-849.364,3866.96)">
                                    <path d="M2003.37,1344.04C2003.37,1344.04 2045.52,1446.83 2019.82,1530.09C1994.12,1613.34 1948.89,1729.5 1956.09,1845.65C1963.28,1961.8 1950.95,2036.84 1925.25,2069.73C1873.36,2136.16 1732.01,2145.79 1696.03,2135.51C1660.05,2125.24 1837.88,2172.52 1939.64,2131.4C2041.4,2090.29 2055.79,1917.6 2042.43,1809.67C2029.07,1701.74 2115.41,1670.91 2086.63,1484.86C2040.38,1375.9 2039.35,1382.07 2003.37,1344.04Z" style="fill:rgb(79,203,224);"/>
                                </g>
                                <g transform="matrix(1.58206,-1.93747e-16,-1.93747e-16,-1.58206,-822.199,3866.96)">
                                    <path d="M1816.44,1503.57C1816.44,1503.57 1829.07,1566.72 1904.33,1563.04C1979.59,1559.36 1984.85,1482.52 1984.85,1482.52L1816.44,1503.57Z" style="fill:rgb(79,203,224);"/>
                                </g>
                                <g transform="matrix(1.58206,-1.93747e-16,-1.93747e-16,-1.58206,-1331.45,3917.75)">
                                    <path d="M1816.44,1503.57C1816.44,1503.57 1829.07,1566.72 1904.33,1563.04C1979.59,1559.36 1984.85,1482.52 1984.85,1482.52L1816.44,1503.57Z" style="fill:rgb(79,203,224);"/>
                                </g>
                            </g>
                            <path d="M1586.9,650.521C1586.9,650.521 1520.02,782.827 1532.73,896.244C1555.41,1098.63 1528.63,1203.41 1512.05,1299.29C1500.54,1365.84 1493.81,1428.28 1509.97,1513.97C1524.06,1588.63 1550.96,1673.55 1596.3,1735.36C1696.55,1872.01 1889.18,1943.14 2056.77,1911.05C2123.08,1898.35 2183.02,1869.81 2242.28,1838.33C2450.04,1727.97 2494.68,1495.64 2467.68,1299.32C2461.78,1256.45 2440.59,1201.56 2422.04,1146.68C2404.76,1095.59 2389.46,1044.58 2394.49,1004.55C2417.06,824.553 2410.15,727.187 2353.95,611.082C2333.88,569.601 2291.05,531.682 2232.65,503.17C2148.64,462.156 2032.08,440.093 1909.2,452.87C1873.76,456.555 1662.21,494.617 1586.75,650.834L1586.9,650.521ZM1617.66,665.927C1617.71,665.823 1617.76,665.718 1617.81,665.613C1645.03,609.261 1692.18,570.295 1740.75,543.359C1815.12,502.117 1893.22,488.906 1912.79,486.87C2028.51,474.838 2138.33,495.223 2217.45,533.846C2267.79,558.426 2305.6,590.125 2322.9,625.885C2376.37,736.342 2381.78,829.086 2360.3,1000.33C2355.82,1036.04 2364.93,1079.74 2378.8,1124.93C2398.14,1187.99 2426.72,1254.26 2433.55,1303.94C2458.74,1487.18 2419.93,1705.18 2226.02,1808.19C2169.83,1838.04 2113.12,1865.44 2050.24,1877.48C1895.2,1907.17 1716.89,1841.65 1624.15,1715.24C1581.68,1657.35 1557.02,1577.6 1543.83,1507.68C1524.66,1406.06 1539.88,1338.92 1554.94,1255.52C1570.58,1168.92 1586.35,1065.46 1566.96,892.465C1555.24,787.831 1617.66,665.927 1617.66,665.927Z"/>
                        </g>
                        <g transform="matrix(-0.244289,-2.99168e-17,2.3886e-17,-0.195044,10198.3,6797.8)">
                            <path d="M1949.25,437.086C1546.42,524.992 1450.76,759.917 1427.56,867.142C1383.84,1069.12 1362.66,1460.63 1401.94,1668.83C1415.58,1741.12 1441.36,1823.46 1485.27,1883.31C1581.76,2014.84 2013.3,2026.28 2174.62,1995.39C2239.21,1983.02 2297.53,1955.05 2355.26,1924.39C2556.09,1817.7 2625.17,583.75 2244.02,463.384C2142.23,431.238 2013.17,423.135 1949.25,437.086Z" style="fill:rgb(183,248,255);"/>
                        </g>
                        <g transform="matrix(-0.768377,0,0,0.768377,11859.9,5074.53)">
                            <g transform="matrix(0.631927,-0.0141535,0.015742,0.702848,1461.27,1053.32)">
                                <path d="M2060.81,876.97C2060.81,876.97 2049.28,872.766 2037.67,868.539C2022.41,862.977 2005.53,862.032 1989.61,865.85C1975.16,869.314 1959.7,873.023 1959.7,873.023C1962.86,891.991 1961.3,928.116 1971.79,944.361C1976.87,952.237 1989.75,953.613 1998.14,954.513C2046.33,959.682 2049.89,915.114 2060.81,876.97Z" style="fill:rgb(237,237,237);"/>
                                <path d="M2065.7,866.297C2071.67,868.474 2074.93,874.25 2073.33,879.828C2067.65,899.668 2063.69,921.131 2055.08,937.01C2049.81,946.733 2042.84,954.572 2033.56,959.728C2024.13,964.97 2012.2,967.633 1996.6,965.96C1990.5,965.305 1982.48,964.291 1975.68,961.645C1969.37,959.189 1964.03,955.429 1960.59,950.114C1955.7,942.53 1952.73,931.31 1951.08,919.068C1948.98,903.447 1948.8,886.014 1946.91,874.715C1945.95,868.924 1950,863.408 1956.34,861.889C1956.34,861.889 1971.8,858.18 1986.25,854.716C2004.9,850.244 2024.68,851.35 2042.56,857.866C2054.16,862.093 2065.7,866.297 2065.7,866.297ZM1973.7,881.603L1992.97,876.984C2006.16,873.821 2020.15,874.603 2032.79,879.212L2045.67,883.904C2041.75,899.267 2038.37,914.891 2031.82,926.958C2028.81,932.5 2025.18,937.216 2019.89,940.155C2014.76,943.009 2008.17,943.977 1999.67,943.066C1996.21,942.695 1991.81,942.292 1987.76,941.103C1985.92,940.561 1983.94,940.089 1982.98,938.608C1979.49,933.195 1977.92,925.06 1976.74,916.322C1975.17,904.675 1974.64,892.036 1973.7,881.603Z"/>
                            </g>
                            <g transform="matrix(0.676451,0.0416125,-0.0481144,0.782146,1960.61,968.001)">
                                <ellipse cx="1221.96" cy="702.82" rx="66.462" ry="36.543"/>
                            </g>
                            <g transform="matrix(0.621633,0.114474,-0.114474,0.621633,2092.68,1002.77)">
                                <path d="M1204.5,720.72C1208.09,742.243 1208.27,763.504 1210.58,785.06C1211.33,792.105 1206.18,798.449 1199.09,799.219C1191.99,799.988 1185.62,794.892 1184.86,787.847C1182.6,766.786 1182.49,746.008 1178.98,724.98C1177.82,717.991 1182.59,711.363 1189.63,710.187C1196.67,709.012 1203.34,713.732 1204.5,720.72Z"/>
                            </g>
                            <g transform="matrix(0.747032,-0.175737,0.175737,0.747032,546.892,1615.41)">
                                <ellipse cx="2765.83" cy="286.812" rx="23.313" ry="12.088" style="fill:rgb(183,248,255);"/>
                            </g>
                            <g transform="matrix(0.651991,0.404782,-0.404782,0.651991,1289.08,57.8147)">
                                <ellipse cx="2765.83" cy="286.812" rx="23.313" ry="12.088" style="fill:rgb(183,248,255);"/>
                            </g>
                            <g transform="matrix(1.18978,-0.169438,0.169438,1.18978,1245.06,999.679)">
                                <circle cx="1071.81" cy="534.398" r="76.669" style="fill:white;stroke:black;stroke-width:13.54px;"/>
                            </g>
                            <g transform="matrix(1.18978,-0.169438,0.169438,1.18978,1569.81,1026.66)">
                                <circle cx="1071.81" cy="534.398" r="76.669" style="fill:white;stroke:black;stroke-width:13.54px;"/>
                            </g>
                            <g transform="matrix(5.69021,-0.81035,0.81035,5.69021,-3775.65,-753.184)">
                                <circle cx="1044.8" cy="535.269" r="11.326"/>
                            </g>
                            <g transform="matrix(5.69021,-0.81035,0.81035,5.69021,-3451.78,-727.564)">
                                <circle cx="1044.8" cy="535.269" r="11.326"/>
                            </g>
                        </g>
                        <g transform="matrix(-0.48568,0,0,0.48568,10742.2,5903.01)">
                            <circle cx="1749.06" cy="789.086" r="14.17" style="fill:rgb(183,248,255);"/>
                        </g>
                        <g transform="matrix(-0.48568,0,0,0.48568,10400.5,5915.52)">
                            <circle cx="1749.06" cy="789.086" r="14.17" style="fill:rgb(183,248,255);"/>
                        </g>
                        <g transform="matrix(0.909806,-0.0995789,0.0881108,0.805027,-109.703,7484.97)">
                            <path d="M10703.5,80.849C10703.5,80.849 10663.6,-54.723 10733.1,-71.812C10802.6,-88.901 10851.6,13.632 10849.3,74.013C10847,134.394 10704.6,130.977 10703.5,80.849Z" style="fill:rgb(235,163,62);"/>
                            <clipPath id="_clip2">
                                <path d="M10703.5,80.849C10703.5,80.849 10663.6,-54.723 10733.1,-71.812C10802.6,-88.901 10851.6,13.632 10849.3,74.013C10847,134.394 10704.6,130.977 10703.5,80.849Z"/>
                            </clipPath>
                            <g clip-path="url(#_clip2)">
                                <g transform="matrix(0.985432,-0.170072,0.170072,0.985432,145.792,1836.85)">
                                    <path d="M10681.8,27.304C10681.8,27.304 10733.1,31.861 10777.5,26.164C10822,20.468 10868.7,-5.735 10875.5,3.379C10882.3,12.493 10884.6,12.493 10884.6,12.493C10884.6,12.493 10906.3,61.481 10855,76.292C10803.7,91.102 10786.6,111.609 10749,95.659C10711.5,79.71 10643.1,54.646 10681.8,27.304Z"/>
                                </g>
                            </g>
                            <path d="M10703.5,80.849C10703.5,80.849 10663.6,-54.723 10733.1,-71.812C10802.6,-88.901 10851.6,13.632 10849.3,74.013C10847,134.394 10704.6,130.977 10703.5,80.849Z" style="fill:none;stroke:black;stroke-width:14.47px;"/>
                        </g>
                        <g transform="matrix(0.862953,-0.304919,0.304919,0.862953,519.911,9813.56)">
                            <path d="M10541.7,-108.269C10533,-73.37 10605.5,-22.824 10678.4,-26.242C10751.3,-29.66 10815.7,-67.834 10811.7,-110.547C10804.9,-183.46 10762.2,-108.664 10679.6,-105.99C10595.1,-103.258 10557.6,-172.067 10541.7,-108.269Z" style="fill:rgb(235,163,62);stroke:black;stroke-width:13.66px;"/>
                        </g>
                        <g transform="matrix(0.444997,0.437599,-0.437599,0.444997,8849.81,4916.28)">
                            <path d="M2787.51,613.28C2787.51,613.28 2876.01,567.95 2927.82,598.17C2979.63,628.39 2964.52,678.037 2919.19,671.562C2873.86,665.086 2830.68,662.927 2802.62,686.672C2774.56,710.416 2731.39,641.342 2787.51,613.28Z" style="fill:rgb(214,194,149);stroke:black;stroke-width:20.03px;"/>
                        </g>
                        <g transform="matrix(-0.460626,0.421116,0.421116,0.460626,10628.2,4974.43)">
                            <path d="M2787.51,613.28C2787.51,613.28 2876.01,567.95 2927.82,598.17C2979.63,628.39 2964.52,678.037 2919.19,671.562C2873.86,665.086 2830.68,662.927 2802.62,686.672C2774.56,710.416 2731.39,641.342 2787.51,613.28Z" style="fill:rgb(214,194,149);stroke:black;stroke-width:20.03px;"/>
                        </g>
                    </g>
                    <g transform="matrix(0.527013,-0.19832,0.243458,0.646961,1209.61,3712.6)">
                        <ellipse cx="5635.32" cy="7017.61" rx="7.766" ry="16.641" style="fill:white;"/>
                    </g>
                    <g transform="matrix(0.527013,-0.19832,0.243458,0.646961,1378.27,3693.48)">
                        <ellipse cx="5635.32" cy="7017.61" rx="7.766" ry="16.641" style="fill:white;"/>
                    </g>
                    <g transform="matrix(1,0,0,1,118.982,65.4152)">
                        <circle cx="5774.44" cy="7087.57" r="3.538" style="fill:white;"/>
                    </g>
                    <g transform="matrix(1,0,0,1,287.642,46.2988)">
                        <circle cx="5774.44" cy="7087.57" r="3.538" style="fill:white;"/>
                    </g>
                </g>
                <g transform="matrix(1,0,0,1,0.29413,2.35304)">
                    <path d="M5268.48,6949.24C5268.48,6949.24 5294.15,6932.19 5310.84,6932C5323.77,6931.86 5351.06,6947.08 5351.06,6947.08" style="fill:none;stroke:black;stroke-width:8.33px;"/>
                </g>
            </g>
        </g>
    </g>
</svg>
