<?xml version="1.0" encoding="UTF-8" standalone="no"?>
<!DOCTYPE svg PUBLIC "-//W3C//DTD SVG 1.1//EN" "http://www.w3.org/Graphics/SVG/1.1/DTD/svg11.dtd">
<svg width="100%" height="100%" viewBox="0 0 600 600" version="1.1" xmlns="http://www.w3.org/2000/svg" xmlns:xlink="http://www.w3.org/1999/xlink" xml:space="preserve" xmlns:serif="http://www.serif.com/" style="fill-rule:evenodd;clip-rule:evenodd;stroke-linecap:round;stroke-linejoin:round;stroke-miterlimit:1.5;">
    <g transform="matrix(1,0,0,1,-5319.4,-913.473)">
        <g id="_16" serif:id="16" transform="matrix(1,0,0,1,5319.4,913.473)">
            <rect x="0" y="0" width="600" height="600" style="fill:none;"/>
            <g transform="matrix(0.934159,0,0,0.934159,-6015.01,-7374.66)">
                <g transform="matrix(1,0,0,1,-123.564,1972.97)">
                    <g transform="matrix(-0.420793,-0.201406,-0.201406,0.420793,8414.75,6649.46)">
                        <path d="M2787.51,613.28C2787.51,613.28 2876.01,567.95 2927.82,598.17C2979.63,628.39 2964.52,678.037 2919.19,671.562C2873.86,665.086 2830.68,662.927 2802.62,686.672C2774.56,710.416 2731.39,641.342 2787.51,613.28Z" style="fill:rgb(214,194,149);stroke:black;stroke-width:20.03px;"/>
                    </g>
                    <g transform="matrix(-0.704399,0,0,0.704399,9148.97,5363.26)">
                        <path d="M3077.27,879.49C3077.27,879.49 3108.11,847.368 3119.67,925.745" style="fill:none;stroke:rgb(97,224,238);stroke-width:13.26px;"/>
                    </g>
                    <g transform="matrix(0.704399,0,0,0.704399,4738.6,5357.83)">
                        <path d="M3077.27,879.49C3077.27,879.49 3106.83,848.653 3117.1,929.6" style="fill:none;stroke:rgb(97,224,238);stroke-width:13.26px;"/>
                    </g>
                    <g transform="matrix(-0.520925,0.144442,0.144442,0.520925,8438.94,5056.39)">
                        <path d="M3077.27,879.49C3077.27,879.49 3113.14,839.637 3136.24,954.162" style="fill:none;stroke:rgb(97,224,238);stroke-width:17.28px;"/>
                    </g>
                    <g transform="matrix(-0.235015,-0.402988,-0.402988,0.235015,7938.44,7496.61)">
                        <path d="M2787.51,613.28C2787.51,613.28 2876.01,567.95 2927.82,598.17C2979.63,628.39 2964.52,678.037 2919.19,671.562C2873.86,665.086 2830.68,662.927 2802.62,686.672C2774.56,710.416 2731.39,641.342 2787.51,613.28Z" style="fill:rgb(214,194,149);stroke:black;stroke-width:20.03px;"/>
                    </g>
                    <g transform="matrix(0.0389198,-0.464883,-0.464883,-0.0389198,7003.27,7842.53)">
                        <path d="M2787.51,613.28C2787.51,613.28 2876.01,567.95 2927.82,598.17C2979.63,628.39 2964.52,678.037 2919.19,671.562C2873.86,665.086 2830.68,662.927 2802.62,686.672C2774.56,710.416 2731.39,641.342 2787.51,613.28Z" style="fill:rgb(214,194,149);stroke:black;stroke-width:20.03px;"/>
                    </g>
                    <g transform="matrix(-0.363035,-4.4459e-17,4.4459e-17,-0.363035,7657.08,6690.38)">
                        <path d="M1602.28,658.224C1602.28,658.224 1537.63,785.329 1549.85,894.354C1588.09,1235.66 1487.62,1302.63 1526.9,1510.82C1540.54,1583.11 1566.32,1665.45 1610.23,1725.3C1706.72,1856.83 1892.19,1925.15 2053.51,1894.26C2118.1,1881.89 2176.43,1853.93 2234.15,1823.26C2434.98,1716.58 2476.71,1491.41 2450.61,1301.63C2439.06,1217.62 2366.83,1086.68 2377.39,1002.44C2399.42,826.82 2393.26,731.764 2338.43,618.483C2291.7,521.934 2109.83,449.196 1911,469.87C1877.12,473.393 1674.41,508.918 1602.28,658.224Z" style="fill:rgb(97,224,238);"/>
                        <clipPath id="_clip1">
                            <path d="M1602.28,658.224C1602.28,658.224 1537.63,785.329 1549.85,894.354C1588.09,1235.66 1487.62,1302.63 1526.9,1510.82C1540.54,1583.11 1566.32,1665.45 1610.23,1725.3C1706.72,1856.83 1892.19,1925.15 2053.51,1894.26C2118.1,1881.89 2176.43,1853.93 2234.15,1823.26C2434.98,1716.58 2476.71,1491.41 2450.61,1301.63C2439.06,1217.62 2366.83,1086.68 2377.39,1002.44C2399.42,826.82 2393.26,731.764 2338.43,618.483C2291.7,521.934 2109.83,449.196 1911,469.87C1877.12,473.393 1674.41,508.918 1602.28,658.224Z"/>
                        </clipPath>
                        <g clip-path="url(#_clip1)">
                            <g transform="matrix(1.58206,-1.93747e-16,-1.93747e-16,-1.58206,-849.364,3866.96)">
                                <path d="M2003.37,1344.04C2003.37,1344.04 2045.52,1446.83 2019.82,1530.09C1994.12,1613.34 1948.89,1729.5 1956.09,1845.65C1963.28,1961.8 1950.95,2036.84 1925.25,2069.73C1873.36,2136.16 1732.01,2145.79 1696.03,2135.51C1660.05,2125.24 1837.88,2172.52 1939.64,2131.4C2041.4,2090.29 2055.79,1917.6 2042.43,1809.67C2029.07,1701.74 2115.41,1670.91 2086.63,1484.86C2040.38,1375.9 2039.35,1382.07 2003.37,1344.04Z" style="fill:rgb(79,203,224);"/>
                            </g>
                            <g transform="matrix(1.58206,-1.93747e-16,-1.93747e-16,-1.58206,-822.199,3866.96)">
                                <path d="M1816.44,1503.57C1816.44,1503.57 1829.07,1566.72 1904.33,1563.04C1979.59,1559.36 1984.85,1482.52 1984.85,1482.52L1816.44,1503.57Z" style="fill:rgb(79,203,224);"/>
                            </g>
                            <g transform="matrix(1.58206,-1.93747e-16,-1.93747e-16,-1.58206,-1331.45,3917.75)">
                                <path d="M1816.44,1503.57C1816.44,1503.57 1829.07,1566.72 1904.33,1563.04C1979.59,1559.36 1984.85,1482.52 1984.85,1482.52L1816.44,1503.57Z" style="fill:rgb(79,203,224);"/>
                            </g>
                        </g>
                        <path d="M1586.99,650.445C1586.99,650.445 1520.08,782.804 1532.79,896.265C1555.47,1098.63 1528.7,1203.39 1512.12,1299.26C1500.6,1365.83 1493.87,1428.29 1510.04,1514C1524.13,1588.68 1551.04,1673.63 1596.39,1735.45C1696.62,1872.06 1889.18,1943.2 2056.74,1911.11C2123.03,1898.42 2182.96,1869.89 2242.2,1838.42C2450,1728.03 2494.61,1495.65 2467.61,1299.29C2461.71,1256.42 2440.52,1201.51 2421.96,1146.63C2404.69,1095.56 2389.4,1044.58 2394.42,1004.57C2417,824.531 2410.08,727.143 2353.87,611.008C2333.8,569.529 2290.97,531.601 2232.58,503.089C2148.59,462.087 2032.07,440.031 1909.22,452.804C1888.16,454.995 1804.06,469.05 1724.03,513.433C1669.65,543.59 1617.31,587.666 1586.83,650.76L1586.99,650.445ZM1617.57,666.003C1617.63,665.898 1617.68,665.793 1617.73,665.687C1644.95,609.336 1692.1,570.378 1740.67,543.443C1815.07,502.187 1893.19,488.973 1912.77,486.936C2028.53,474.9 2138.39,495.292 2217.52,533.927C2267.87,558.507 2305.68,590.198 2322.98,625.959C2376.43,736.386 2381.84,829.108 2360.37,1000.3C2355.89,1036.04 2364.99,1079.76 2378.87,1124.99C2398.22,1188.03 2426.78,1254.29 2433.61,1303.97C2458.81,1487.17 2419.97,1705.12 2226.1,1808.11C2169.9,1837.97 2113.18,1865.37 2050.28,1877.41C1895.19,1907.11 1716.83,1841.6 1624.06,1715.15C1581.6,1657.28 1556.95,1577.55 1543.76,1507.64C1524.6,1406.05 1539.82,1338.93 1554.87,1255.56C1570.51,1168.94 1586.28,1065.46 1566.9,892.444C1555.18,787.854 1617.57,666.003 1617.57,666.003Z"/>
                    </g>
                    <g transform="matrix(-0.182601,-2.23621e-17,1.78542e-17,-0.145791,7310.73,6557.99)">
                        <path d="M1949.25,437.086C1546.42,524.992 1450.76,759.917 1427.56,867.142C1383.84,1069.12 1362.66,1460.63 1401.94,1668.83C1415.58,1741.12 1441.36,1823.46 1485.27,1883.31C1581.76,2014.84 2013.3,2026.28 2174.62,1995.39C2239.21,1983.02 2297.53,1955.05 2355.26,1924.39C2556.09,1817.7 2625.17,583.75 2244.02,463.384C2142.23,431.238 2013.17,423.135 1949.25,437.086Z" style="fill:rgb(183,248,255);"/>
                    </g>
                    <g transform="matrix(-0.363035,0,0,0.363035,7717.26,5889.15)">
                        <circle cx="1749.06" cy="789.086" r="14.17" style="fill:rgb(183,248,255);"/>
                    </g>
                    <g transform="matrix(-0.363035,0,0,0.363035,7461.87,5898.5)">
                        <circle cx="1749.06" cy="789.086" r="14.17" style="fill:rgb(183,248,255);"/>
                    </g>
                    <g transform="matrix(-0.574345,0,0,0.574345,8551.32,5265.44)">
                        <g transform="matrix(0.632083,0.00174568,-0.0019416,0.703022,1492.09,1027.64)">
                            <path d="M1960.41,874.118C1963.57,893.086 1961.3,928.116 1971.79,944.361C1976.87,952.237 1989.75,953.613 1998.14,954.513C2046.33,959.682 2049.89,915.114 2060.81,876.97" style="fill:rgb(237,237,237);"/>
                            <path d="M1973.14,872.404C1975.05,883.896 1975.02,901.226 1976.95,916.796C1978.01,925.277 1979.46,933.191 1982.92,938.553C1983.88,940.041 1985.87,940.511 1987.72,941.055C1991.78,942.248 1996.19,942.652 1999.66,943.024C2008.19,943.939 2014.8,942.965 2019.96,940.1C2025.24,937.163 2028.88,932.45 2031.88,926.912C2039.83,912.268 2043.11,892.382 2048.35,874.086C2050.12,867.902 2057.14,864.174 2064.02,865.766C2070.9,867.358 2075.05,873.671 2073.28,879.855C2067.59,899.702 2063.63,921.171 2055.02,937.056C2049.74,946.782 2042.77,954.625 2033.49,959.783C2024.08,965.013 2012.18,967.671 1996.61,966.001C1990.52,965.348 1982.52,964.337 1975.73,961.696C1969.43,959.242 1964.09,955.48 1960.66,950.17C1955.73,942.534 1952.87,931.443 1951.37,919.364C1949.48,904.097 1949.56,887.102 1947.68,875.833C1946.63,869.518 1951.48,863.622 1958.5,862.676C1965.53,861.73 1972.09,866.088 1973.14,872.404Z"/>
                        </g>
                        <g transform="matrix(0.621633,0.114474,-0.114474,0.621633,2105.34,1016.06)">
                            <path d="M1204.43,720.734C1208.02,742.26 1208.2,763.523 1210.51,785.082C1211.27,792.144 1206.15,798.492 1199.09,799.249C1192.03,800.006 1185.68,794.888 1184.92,787.826C1182.67,766.767 1182.55,745.991 1179.05,724.966C1177.88,717.96 1182.62,711.324 1189.63,710.157C1196.63,708.989 1203.27,713.729 1204.43,720.734Z"/>
                        </g>
                        <g transform="matrix(0.617786,0.133689,-0.133689,0.617786,2128.22,998.259)">
                            <path d="M1099.36,765.984C1135.39,783.999 1169.33,790.165 1200.93,783.887C1232.53,777.608 1261.58,758.928 1288.04,728.399C1292.69,723.032 1300.82,722.452 1306.19,727.104C1311.56,731.756 1312.14,739.89 1307.49,745.256C1276.75,780.716 1242.65,801.838 1205.94,809.13C1169.24,816.423 1129.7,809.929 1087.85,789.004C1081.5,785.828 1078.92,778.092 1082.09,771.739C1085.27,765.387 1093.01,762.808 1099.36,765.984Z"/>
                        </g>
                        <g transform="matrix(1.74111,0,0,1.74111,-13063.6,-10028.2)">
                            <path d="M8935.24,6570.96C8935.24,6570.96 8958.66,6532.63 8999.12,6534.76C9039.58,6536.89 9073.65,6547.54 9079.33,6566.7C9085,6585.87 9087.84,6597.23 9083.58,6612.13C9079.33,6627.04 9073.65,6638.39 9050.93,6658.27C9028.22,6678.14 8979.25,6691.63 8955.11,6661.82C8930.98,6632.01 8931.69,6597.94 8935.24,6570.96Z" style="fill:rgb(183,248,255);"/>
                        </g>
                        <g transform="matrix(0.734444,-0.222559,0.222559,0.734444,569.292,1743.65)">
                            <ellipse cx="2765.83" cy="286.812" rx="23.313" ry="12.088" style="fill:rgb(183,248,255);"/>
                        </g>
                        <g transform="matrix(0.493537,0.587674,-0.587674,0.493537,1802.93,-389.275)">
                            <ellipse cx="2765.83" cy="286.812" rx="23.313" ry="12.088" style="fill:rgb(183,248,255);"/>
                        </g>
                        <g transform="matrix(1.18978,-0.169438,0.169438,1.18978,1250.36,1000.56)">
                            <circle cx="1071.81" cy="534.398" r="76.669" style="fill:white;stroke:rgb(61,61,61);stroke-width:13.54px;"/>
                        </g>
                        <g transform="matrix(-1.74111,0,0,1.74111,18605.3,-10015.6)">
                            <path d="M8935.24,6570.96C8935.24,6570.96 8958.66,6532.63 8999.12,6534.76C9039.58,6536.89 9073.65,6547.54 9079.33,6566.7C9085,6585.87 9087.84,6597.23 9083.58,6612.13C9079.33,6627.04 9073.65,6638.39 9050.93,6658.27C9028.22,6678.14 8979.25,6691.63 8955.11,6661.82C8930.98,6632.01 8931.69,6597.94 8935.24,6570.96Z" style="fill:rgb(183,248,255);"/>
                        </g>
                        <g transform="matrix(1.18978,-0.169438,0.169438,1.18978,1569.81,1026.66)">
                            <circle cx="1071.81" cy="534.398" r="76.669" style="fill:white;stroke:rgb(61,61,61);stroke-width:13.54px;"/>
                        </g>
                        <g transform="matrix(2.86066,-0.40739,0.40739,2.86066,-579.917,368.565)">
                            <circle cx="1044.8" cy="535.269" r="11.326" style="fill:rgb(61,61,61);"/>
                        </g>
                        <g transform="matrix(2.86066,-0.40739,0.40739,2.86066,-264.976,390.725)">
                            <circle cx="1044.8" cy="535.269" r="11.326" style="fill:rgb(61,61,61);"/>
                        </g>
                        <g transform="matrix(0.802491,-0.114284,0.114284,0.802491,604.038,1518.2)">
                            <circle cx="2472.68" cy="285.194" r="11.336" style="fill:white;"/>
                        </g>
                        <g transform="matrix(0.802491,-0.114284,0.114284,0.802491,918.979,1540.36)">
                            <circle cx="2472.68" cy="285.194" r="11.336" style="fill:white;"/>
                        </g>
                    </g>
                </g>
                <g transform="matrix(0.12275,-0.212609,-0.212609,-0.12275,6821.06,8578.11)">
                    <path d="M2301.37,493.302C2304.85,472.448 2326.32,460.207 2344.05,452.986C2559.76,365.129 2483.64,611.456 2358.06,601.659" style="fill:rgb(97,224,238);"/>
                    <path d="M2276.35,489.13C2281.28,459.546 2309.32,439.732 2334.48,429.488C2413.51,397.3 2460.58,408.035 2483.45,429.843C2507.62,452.888 2511.64,492.594 2495.66,531.779C2474.59,583.427 2420.17,631.954 2356.09,626.955C2342.13,625.866 2331.68,613.647 2332.76,599.686C2333.86,585.725 2346.07,575.275 2360.03,576.364C2401.45,579.594 2435.06,545.996 2448.67,512.616C2452.89,502.259 2455.22,491.836 2454.62,482.428C2454.23,476.255 2452.62,470.566 2448.43,466.569C2442.93,461.323 2434.18,459.31 2422.41,459.388C2404.75,459.505 2382.12,464.875 2353.62,476.485C2346.94,479.203 2339.48,482.712 2333.45,487.657C2330.21,490.312 2327.1,493.26 2326.4,497.473C2324.1,511.286 2311.02,520.631 2297.2,518.329C2283.39,516.027 2274.05,502.943 2276.35,489.13Z"/>
                </g>
                <g transform="matrix(1,0,0,1,551.455,1093.06)">
                    <path d="M6520.8,7138.39C6520.8,7138.39 6475.41,7122.5 6468.6,7086.19C6461.79,7049.88 6447.04,7020.38 6447.04,7020.38L6422.07,7043.07C6422.07,7043.07 6431.15,7060.09 6431.15,7086.19C6431.15,7112.29 6454.98,7128.18 6476.54,7145.2C6498.1,7162.22 6520.8,7138.39 6520.8,7138.39Z" style="fill:rgb(214,194,149);stroke:black;stroke-width:8.33px;"/>
                </g>
                <g transform="matrix(1,0,0,1,573.051,1066.39)">
                    <path d="M6031.72,7069.17C6031.72,7069.17 6038.53,7139.53 6003.35,7155.41C5968.17,7171.3 5956.82,7189.45 5948.88,7206.48C5989.73,7224.63 5970.44,7223.5 6006.75,7203.07C6043.07,7182.65 6062.36,7172.43 6068.03,7142.93C6073.7,7113.43 6096.4,7077.11 6096.4,7052.15C6096.4,7027.19 6031.72,7069.17 6031.72,7069.17Z" style="fill:rgb(214,194,149);stroke:black;stroke-width:8.33px;"/>
                </g>
                <g transform="matrix(1,0,0,1,567.377,1099.29)">
                    <path d="M6258.4,6809.76C6258.4,6809.76 6157.96,6805.07 6095.25,6877.95C6041.81,6940.04 6036.86,7022.35 6036.86,7045.75C6036.86,7069.16 6090.06,7034.05 6093.25,7020.22C6096.44,7006.39 6088.99,6931.92 6136.86,6912.77C6184.74,6893.62 6240.06,6924.48 6240.06,6924.48C6240.06,6924.48 6261.16,6965.79 6289.89,6933.88C6318.61,6901.96 6395.93,6893.9 6419.31,6928.69C6448.74,6972.46 6436.06,7023.79 6436.06,7023.79C6436.06,7023.79 6496.33,6880.81 6363.58,6828.35C6333.44,6816.44 6313.02,6809.82 6258.4,6809.76Z" style="fill:rgb(184,100,0);"/>
                    <clipPath id="_clip2">
                        <path d="M6258.4,6809.76C6258.4,6809.76 6157.96,6805.07 6095.25,6877.95C6041.81,6940.04 6036.86,7022.35 6036.86,7045.75C6036.86,7069.16 6090.06,7034.05 6093.25,7020.22C6096.44,7006.39 6088.99,6931.92 6136.86,6912.77C6184.74,6893.62 6240.06,6924.48 6240.06,6924.48C6240.06,6924.48 6261.16,6965.79 6289.89,6933.88C6318.61,6901.96 6395.93,6893.9 6419.31,6928.69C6448.74,6972.46 6436.06,7023.79 6436.06,7023.79C6436.06,7023.79 6496.33,6880.81 6363.58,6828.35C6333.44,6816.44 6313.02,6809.82 6258.4,6809.76Z"/>
                    </clipPath>
                    <g clip-path="url(#_clip2)">
                        <g transform="matrix(1,0,0,1,-567.377,-1099.29)">
                            <path d="M6640.96,8140.38C6640.96,8140.38 6637.79,8061.06 6659.21,8036.47C6680.63,8011.88 6736.07,7987.02 6808.34,7998.39C6873.62,8008.67 6892.09,7959.88 6974.4,8001.05C7033.06,8030.38 7005.07,8109.21 7005.07,8109.21C7005.07,8109.21 6983.26,8002.21 6932.09,8010.29C6856.85,8022.18 6853.56,8053.92 6839.28,8065.03C6825,8076.13 6832.93,8029.33 6792.48,8018.22C6752.02,8007.12 6667.94,8022.19 6662.38,8066.61C6656.83,8111.03 6661.59,8126.9 6661.59,8126.9L6640.96,8140.38Z" style="fill:rgb(133,72,0);"/>
                        </g>
                    </g>
                    <path d="M6258.4,6809.76C6258.4,6809.76 6157.96,6805.07 6095.25,6877.95C6041.81,6940.04 6036.86,7022.35 6036.86,7045.75C6036.86,7069.16 6090.06,7034.05 6093.25,7020.22C6096.44,7006.39 6088.99,6931.92 6136.86,6912.77C6184.74,6893.62 6240.06,6924.48 6240.06,6924.48C6240.06,6924.48 6261.16,6965.79 6289.89,6933.88C6318.61,6901.96 6395.93,6893.9 6419.31,6928.69C6448.74,6972.46 6436.06,7023.79 6436.06,7023.79C6436.06,7023.79 6496.33,6880.81 6363.58,6828.35C6333.44,6816.44 6313.02,6809.82 6258.4,6809.76Z" style="fill:none;stroke:black;stroke-width:8.33px;"/>
                </g>
                <g transform="matrix(1,0,0,1,567.377,1099.29)">
                    <path d="M6245.39,6811.02C6245.39,6811.02 6272.91,6839.28 6266.96,6940.42" style="fill:none;stroke:black;stroke-width:4.15px;stroke-dasharray:8.29,8.29,0,0;"/>
                </g>
                <g transform="matrix(0.795885,-0.111692,0.0816006,0.58146,1386.35,4660.98)">
                    <path d="M6245.39,6811.02C6245.39,6811.02 6272.91,6839.28 6266.96,6940.42" style="fill:none;stroke:black;stroke-width:4.15px;stroke-dasharray:8.29,8.29,0,0;"/>
                </g>
                <g transform="matrix(-0.600297,0.0895247,0.0932492,0.625272,9835.85,3114.48)">
                    <path d="M6245.39,6811.02C6245.39,6811.02 6272.91,6839.28 6266.96,6940.42" style="fill:none;stroke:black;stroke-width:4.15px;stroke-dasharray:8.29,8.29,0,0;"/>
                </g>
                <g transform="matrix(-0.228447,0.0899016,0.0899016,0.228447,7114.26,7713.86)">
                    <path d="M2279.67,511.904C2283.15,491.051 2325.81,459.166 2343.54,451.945C2559.26,364.088 2483.64,611.456 2358.06,601.659" style="fill:rgb(97,224,238);"/>
                    <path d="M2254.64,507.733C2256.29,497.868 2262.51,485.893 2272.55,474.417C2290.08,454.38 2319.33,434.411 2333.97,428.447C2413.02,396.254 2460.14,407.089 2483.09,429.061C2507.27,452.211 2511.34,492.019 2495.5,531.292C2474.55,583.219 2420.19,631.956 2356.09,626.955C2342.13,625.866 2331.68,613.647 2332.76,599.686C2333.86,585.725 2346.07,575.275 2360.03,576.364C2401.43,579.593 2434.92,545.837 2448.44,512.309C2452.65,501.87 2454.95,491.361 2454.33,481.873C2453.91,475.587 2452.26,469.796 2448,465.718C2442.47,460.424 2433.69,458.355 2421.88,458.41C2404.22,458.492 2381.6,463.842 2353.11,475.444C2344.35,479.012 2328.41,490.188 2316.27,502.031C2312.59,505.624 2309.26,509.272 2306.77,512.845C2305.92,514.071 2304.88,515.003 2304.7,516.075C2302.4,529.888 2289.31,539.234 2275.5,536.931C2261.69,534.629 2252.34,521.546 2254.64,507.733Z"/>
                </g>
                <g transform="matrix(1,0,0,1,567.377,1099.29)">
                    <path d="M6054.18,7004.36L6085.37,6984.87L6086.84,7013.14L6055.16,7032.63L6054.18,7004.36Z" style="fill:none;stroke:black;stroke-width:2.5px;stroke-dasharray:5,5,0,0;"/>
                </g>
                <g transform="matrix(0.958657,0,0,0.898004,828.577,1810.85)">
                    <path d="M6255.7,6960.78C6255.7,6960.78 6241.24,6905.46 6165.49,6911.41C6089.74,6917.37 6083.79,6963.33 6090.6,6999.92C6097.4,7036.52 6123.79,7102.9 6191.02,7071.41C6258.26,7039.92 6267.62,6998.22 6255.7,6960.78Z" style="fill:none;stroke:rgb(214,194,149);stroke-width:32.35px;"/>
                </g>
                <g transform="matrix(-0.888812,0.116004,0.114931,0.88059,11601.8,1205.37)">
                    <path d="M6255.7,6960.78C6255.7,6960.78 6241.24,6905.46 6165.49,6911.41C6089.74,6917.37 6083.79,6963.33 6090.6,6999.92C6097.4,7036.52 6123.79,7102.9 6191.02,7071.41C6258.26,7039.92 6267.62,6998.22 6255.7,6960.78Z" style="fill:none;stroke:rgb(214,194,149);stroke-width:32.35px;"/>
                </g>
                <g transform="matrix(0.958657,0,0,0.898004,829.413,1811.76)">
                    <path d="M6255.7,6960.78C6255.7,6960.78 6241.24,6905.46 6165.49,6911.41C6089.74,6917.37 6083.79,6963.33 6090.6,6999.92C6097.4,7036.52 6123.79,7102.9 6191.02,7071.41C6258.26,7039.92 6267.62,6998.22 6255.7,6960.78Z" style="fill:none;stroke:black;stroke-width:16.67px;"/>
                </g>
                <g transform="matrix(-0.889733,0.116124,0.115226,0.88285,11606.4,1189.43)">
                    <path d="M6255.7,6960.78C6255.7,6960.78 6241.24,6905.46 6165.49,6911.41C6089.74,6917.37 6083.79,6963.33 6090.6,6999.92C6097.4,7036.52 6123.79,7102.9 6191.02,7071.41C6258.26,7039.92 6267.62,6998.22 6255.7,6960.78Z" style="fill:none;stroke:black;stroke-width:16.67px;"/>
                </g>
                <g transform="matrix(1.05073,0,0,0.993207,261.301,1147.91)">
                    <path d="M6062.28,6964.01L6072.12,6936.45" style="fill:none;stroke:black;stroke-width:8.33px;"/>
                </g>
                <g transform="matrix(1,0,0,1,567.377,1099.29)">
                    <path d="M6083.3,7110.79C6083.3,7110.79 6199.04,7160.72 6306.84,7135.75C6414.65,7110.79 6408.97,7097.17 6408.97,7097.17L6401.14,7168.4C6401.14,7168.4 6380.75,7192.2 6284.9,7201.38C6189.45,7210.53 6101.55,7172.07 6101.55,7172.07L6083.3,7110.79Z" style="fill:rgb(255,194,0);"/>
                    <clipPath id="_clip3">
                        <path d="M6083.3,7110.79C6083.3,7110.79 6199.04,7160.72 6306.84,7135.75C6414.65,7110.79 6408.97,7097.17 6408.97,7097.17L6401.14,7168.4C6401.14,7168.4 6380.75,7192.2 6284.9,7201.38C6189.45,7210.53 6101.55,7172.07 6101.55,7172.07L6083.3,7110.79Z"/>
                    </clipPath>
                    <g clip-path="url(#_clip3)">
                        <g transform="matrix(1,0,0,1,-567.377,-1099.29)">
                            <path d="M6721.94,8266.31C6721.94,8266.31 6805.61,8294.74 6880.34,8280.52C6955.07,8266.31 6970.91,8225.69 6970.5,8207.82C6977.82,8226.1 6983.1,8258.59 6966.85,8273.21C6950.6,8287.83 6892.12,8319.51 6767.03,8302.45C6641.93,8285.4 6721.94,8266.31 6721.94,8266.31Z" style="fill:rgb(200,156,19);"/>
                        </g>
                    </g>
                    <path d="M6083.3,7110.79C6083.3,7110.79 6199.04,7160.72 6306.84,7135.75C6414.65,7110.79 6408.97,7097.17 6408.97,7097.17L6401.14,7168.4C6401.14,7168.4 6380.75,7192.2 6284.9,7201.38C6189.45,7210.53 6101.55,7172.07 6101.55,7172.07L6083.3,7110.79Z" style="fill:none;stroke:black;stroke-width:8.33px;"/>
                </g>
                <g transform="matrix(1,0,0,1,549.291,1087.87)">
                    <path d="M6137.01,7260.4L6266.13,7210.47L6304.21,7312.79L6174.51,7362.77L6137.01,7260.4Z" style="fill:rgb(184,100,0);stroke:black;stroke-width:8.33px;"/>
                </g>
                <g transform="matrix(-0.460555,-0.0743,-0.0743,0.460555,8119.53,8246.72)">
                    <path d="M2787.51,613.28C2787.51,613.28 2876.01,567.95 2927.82,598.17C2979.63,628.39 2964.52,678.037 2919.19,671.562C2873.86,665.086 2830.68,662.927 2802.62,686.672C2774.56,710.416 2731.39,641.342 2787.51,613.28Z" style="fill:rgb(214,194,149);stroke:black;stroke-width:20.03px;"/>
                </g>
                <g transform="matrix(0.771025,0.198772,-0.215567,0.836169,3477.7,1069.32)">
                    <path d="M6135.94,7122.14C6135.94,7122.14 6089.9,7124.36 6055.04,7178.39C6020.18,7232.43 5948.13,7273.09 5904.56,7262.64C5905.14,7330.61 5913.27,7339.91 5913.27,7339.91C5913.27,7339.91 5978.32,7343.6 6033.04,7299.99C6119.4,7231.18 6161.29,7134.28 6192.08,7137.76C6180.46,7121.49 6156.76,7120.77 6135.94,7122.14Z" style="fill:rgb(255,194,0);"/>
                    <clipPath id="_clip4">
                        <path d="M6135.94,7122.14C6135.94,7122.14 6089.9,7124.36 6055.04,7178.39C6020.18,7232.43 5948.13,7273.09 5904.56,7262.64C5905.14,7330.61 5913.27,7339.91 5913.27,7339.91C5913.27,7339.91 5978.32,7343.6 6033.04,7299.99C6119.4,7231.18 6161.29,7134.28 6192.08,7137.76C6180.46,7121.49 6156.76,7120.77 6135.94,7122.14Z"/>
                    </clipPath>
                    <g clip-path="url(#_clip4)">
                        <g transform="matrix(1.21615,-0.2891,0.313526,1.1214,-4564.66,-193.727)">
                            <path d="M6467.3,8320.78C6467.3,8320.78 6462.01,8362.12 6510.19,8344.17C6590.44,8314.28 6637.23,8249.94 6648.6,8246.7C6659.97,8243.45 6639.18,8366.26 6562.5,8385.76C6485.82,8405.26 6451.7,8402.01 6443.26,8384.46C6434.81,8366.92 6453,8312.98 6467.3,8320.78Z" style="fill:rgb(200,156,19);"/>
                        </g>
                    </g>
                    <path d="M6135.94,7122.14C6135.94,7122.14 6089.9,7124.36 6055.04,7178.39C6020.18,7232.43 5948.13,7273.09 5904.56,7262.64C5905.14,7330.61 5913.27,7339.91 5913.27,7339.91C5913.27,7339.91 5978.32,7343.6 6033.04,7299.99C6119.4,7231.18 6161.29,7134.28 6192.08,7137.76C6180.46,7121.49 6156.76,7120.77 6135.94,7122.14Z" style="fill:none;stroke:black;stroke-width:8.33px;"/>
                </g>
                <g transform="matrix(1,0,0,1,567.377,1099.29)">
                    <path d="M6135.94,7122.14C6135.94,7122.14 6089.9,7124.36 6055.04,7178.39C6020.18,7232.43 5948.13,7273.09 5904.56,7262.64C5905.14,7330.61 5913.27,7339.91 5913.27,7339.91C5913.27,7339.91 5978.32,7343.6 6033.04,7299.99C6119.4,7231.18 6161.29,7134.28 6192.08,7137.76C6180.46,7121.49 6156.76,7120.77 6135.94,7122.14Z" style="fill:rgb(255,194,0);"/>
                    <clipPath id="_clip5">
                        <path d="M6135.94,7122.14C6135.94,7122.14 6089.9,7124.36 6055.04,7178.39C6020.18,7232.43 5948.13,7273.09 5904.56,7262.64C5905.14,7330.61 5913.27,7339.91 5913.27,7339.91C5913.27,7339.91 5978.32,7343.6 6033.04,7299.99C6119.4,7231.18 6161.29,7134.28 6192.08,7137.76C6180.46,7121.49 6156.76,7120.77 6135.94,7122.14Z"/>
                    </clipPath>
                    <g clip-path="url(#_clip5)">
                        <g transform="matrix(1,0,0,1,-567.377,-1099.29)">
                            <path d="M6475.65,8366.63C6475.65,8366.63 6486.83,8427.6 6541.82,8409.66C6604.25,8389.29 6659.82,8315.71 6710.37,8247.33C6728.14,8223.3 6755.66,8236.47 6755.66,8236.47C6755.66,8236.47 6636.68,8467.38 6482.78,8459.44C6328.9,8451.51 6475.65,8366.63 6475.65,8366.63Z" style="fill:rgb(200,156,19);"/>
                        </g>
                    </g>
                    <path d="M6135.94,7122.14C6135.94,7122.14 6089.9,7124.36 6055.04,7178.39C6020.18,7232.43 5948.13,7273.09 5904.56,7262.64C5905.14,7330.61 5913.27,7339.91 5913.27,7339.91C5913.27,7339.91 5978.32,7343.6 6033.04,7299.99C6119.4,7231.18 6161.29,7134.28 6192.08,7137.76C6180.46,7121.49 6156.76,7120.77 6135.94,7122.14Z" style="fill:none;stroke:black;stroke-width:8.33px;"/>
                </g>
                <g transform="matrix(-0.388516,0.0238999,0.0276343,0.449222,7294.42,7802.01)">
                    <ellipse cx="1221.96" cy="702.82" rx="66.462" ry="36.543"/>
                </g>
                <g transform="matrix(1,0,0,1,567.377,1099.29)">
                    <path d="M6257.06,7215.77C6257.06,7215.77 6278.27,7206.1 6272.65,7223.88C6267.04,7241.66 6146.95,7247.9 6151.63,7288.45C6156.31,7329 6223.37,7316.21 6260.8,7297.5C6298.23,7278.78 6301.03,7266.93 6276.39,7269.42" style="fill:none;stroke:black;stroke-width:8.33px;"/>
                </g>
            </g>
        </g>
    </g>
</svg>
