<?xml version="1.0" encoding="UTF-8" standalone="no"?><!DOCTYPE svg PUBLIC "-//W3C//DTD SVG 1.1//EN" "http://www.w3.org/Graphics/SVG/1.1/DTD/svg11.dtd"><svg width="100%" height="100%" viewBox="0 0 600 600" version="1.1" xmlns="http://www.w3.org/2000/svg" xmlns:xlink="http://www.w3.org/1999/xlink" xml:space="preserve" xmlns:serif="http://www.serif.com/" style="fill-rule:evenodd;clip-rule:evenodd;stroke-linecap:round;stroke-linejoin:round;stroke-miterlimit:1.5;"><rect id="_66" serif:id="66" x="0" y="0" width="600" height="600" style="fill:none;"/><g id="_661" serif:id="66"><g><path d="M198.418,256.743c-0.608,-3.645 -8.067,-9.22 -11.167,-10.482c-37.713,-15.36 -24.494,27.887 -2.538,26.174" style="fill:#61e0ee;"/><path d="M202.794,256.014c0.402,2.415 -1.232,4.702 -3.647,5.105c-2.415,0.402 -4.702,-1.231 -5.104,-3.646c-0.032,-0.188 -0.214,-0.351 -0.363,-0.565c-0.435,-0.625 -1.016,-1.263 -1.66,-1.891c-2.123,-2.07 -4.91,-4.024 -6.442,-4.648c-4.98,-2.028 -8.935,-2.964 -12.023,-2.978c-2.064,-0.009 -3.599,0.352 -4.566,1.278c-0.745,0.713 -1.034,1.725 -1.106,2.824c-0.109,1.659 0.293,3.496 1.029,5.321c2.365,5.862 8.22,11.763 15.456,11.199c2.441,-0.19 4.577,1.637 4.768,4.077c0.19,2.441 -1.637,4.577 -4.078,4.768c-11.207,0.874 -20.711,-7.647 -24.374,-16.725c-2.769,-6.866 -2.058,-13.826 2.17,-17.873c4.013,-3.841 12.251,-5.736 26.07,-0.107c2.561,1.042 7.675,4.534 10.739,8.037c1.755,2.006 2.843,4.1 3.131,5.824Z"/><path d="M425.211,405.534c0,-0 -32.159,-7.554 -38.779,-26.347c-6.619,-18.794 7.884,-28.116 17.97,-16.728c10.086,11.388 20.554,21.219 32.766,21.241c12.212,0.022 8.29,26.798 -11.957,21.834Z" style="fill:#d6c295;stroke:#000;stroke-width:6.65px;"/><path d="M275.495,155.545c-0,0 -20.417,-9.06 -10.906,29.527" style="fill:none;stroke:#61e0ee;stroke-width:6.65px;"/><path d="M224.514,172.212c0,-0 7.868,-19.929 28.008,15.705" style="fill:none;stroke:#61e0ee;stroke-width:6.65px;"/><path d="M256.969,144.851c-0,-0 -20.31,-3.682 -0.359,36.627" style="fill:none;stroke:#61e0ee;stroke-width:6.65px;"/><path d="M372.733,538.167c0,0 -1.803,-32.985 -19.146,-42.795c-17.343,-9.81 -29.062,2.836 -19.617,14.761c9.445,11.925 17.29,23.954 15.172,35.981c-2.118,12.027 24.931,12.856 23.591,-7.947Z" style="fill:#d6c295;stroke:#000;stroke-width:6.65px;"/><path d="M223.517,542.003c0,0 17.46,-28.043 8.891,-46.031c-8.568,-17.989 -25.424,-14.363 -24.536,0.824c0.887,15.187 0.405,29.539 -8.233,38.171c-8.639,8.632 13.033,24.839 23.878,7.036Z" style="fill:#d6c295;stroke:#000;stroke-width:6.65px;"/><path d="M402.745,228.33c3.462,1.297 7.191,-0.883 9.835,-2.936c32.159,-24.981 -11.791,-34.989 -21.285,-15.118" style="fill:#61e0ee;"/><path d="M401.189,232.484c-2.292,-0.858 -3.456,-3.417 -2.598,-5.71c0.859,-2.292 3.418,-3.456 5.711,-2.597c0.699,0.261 1.417,0.049 2.102,-0.209c1.276,-0.482 2.46,-1.305 3.454,-2.077c4.25,-3.302 7.041,-6.258 8.602,-8.921c1.041,-1.776 1.501,-3.277 1.188,-4.568c-0.239,-0.984 -0.96,-1.725 -1.86,-2.323c-1.373,-0.913 -3.154,-1.473 -5.091,-1.738c-6.244,-0.857 -14.269,1.294 -17.4,7.847c-1.056,2.209 -3.706,3.146 -5.915,2.09c-2.209,-1.056 -3.145,-3.706 -2.09,-5.915c4.845,-10.139 16.95,-14.137 26.611,-12.812c7.33,1.006 12.99,5.085 14.367,10.759c1.302,5.37 -1.187,13.435 -12.969,22.587c-3.75,2.913 -9.202,5.427 -14.112,3.587Z"/><path d="M400.653,491.178c0,0 16.715,-32.86 13.557,-61.047c-9.888,-88.24 16.086,-105.551 5.931,-159.377c-3.526,-18.689 -10.191,-39.976 -21.542,-55.449c-24.947,-34.004 -72.896,-51.668 -114.602,-43.682c-16.7,3.198 -31.779,10.428 -46.702,18.356c-51.922,27.582 -62.709,85.794 -55.962,134.858c2.987,21.72 21.661,55.571 18.929,77.351c-5.695,45.403 -4.102,69.978 10.074,99.264c12.082,24.961 59.1,43.767 110.504,38.422c8.758,-0.911 61.167,-10.096 79.813,-48.696Z" style="fill:#61e0ee;"/><clipPath id="_clip1"><path d="M400.653,491.178c0,0 16.715,-32.86 13.557,-61.047c-9.888,-88.24 16.086,-105.551 5.931,-159.377c-3.526,-18.689 -10.191,-39.976 -21.542,-55.449c-24.947,-34.004 -72.896,-51.668 -114.602,-43.682c-16.7,3.198 -31.779,10.428 -46.702,18.356c-51.922,27.582 -62.709,85.794 -55.962,134.858c2.987,21.72 21.661,55.571 18.929,77.351c-5.695,45.403 -4.102,69.978 10.074,99.264c12.082,24.961 59.1,43.767 110.504,38.422c8.758,-0.911 61.167,-10.096 79.813,-48.696Z"/></clipPath><g clip-path="url(#_clip1)"><path d="M215.075,211.348c0,0 -17.237,42.042 -6.727,76.097c10.511,34.054 29.01,81.562 26.067,129.07c-2.943,47.508 2.102,78.198 12.612,91.652c21.226,27.169 79.04,31.111 93.755,26.907c14.715,-4.204 -58.019,15.135 -99.641,-1.682c-41.621,-16.817 -47.507,-87.448 -42.042,-131.592c5.466,-44.145 -29.85,-56.757 -18.078,-132.854c18.919,-44.565 19.339,-42.042 34.054,-57.598Z" style="fill:#4fcbe0;"/><path d="M284.51,276.6c-0,0 -5.167,25.831 -35.948,24.324c-30.782,-1.507 -32.935,-32.934 -32.935,-32.934l68.883,8.61Z" style="fill:#4fcbe0;"/><path d="M416.166,263.469c-0,0 -5.166,25.831 -35.948,24.324c-30.782,-1.506 -32.934,-32.934 -32.934,-32.934l68.882,8.61Z" style="fill:#4fcbe0;"/></g><path d="M404.641,493.121l-0.008,0.017c-7.882,16.296 -21.405,27.681 -35.456,35.473c-20.69,11.475 -42.431,15.108 -47.878,15.675c-31.759,3.302 -61.884,-2.4 -83.597,-13.001c-15.098,-7.371 -26.168,-17.176 -31.359,-27.9c-14.533,-30.024 -16.321,-55.202 -10.482,-101.749c1.297,-10.344 -2.656,-23.522 -7.121,-36.725c-4.798,-14.189 -10.277,-28.384 -11.802,-39.47c-6.981,-50.765 4.554,-110.841 58.275,-139.38c15.317,-8.136 30.81,-15.513 47.95,-18.794c43.317,-8.295 93.102,10.096 119.013,45.414c11.725,15.984 18.682,37.945 22.324,57.251c4.181,22.16 2.44,38.307 -0.536,55.518c-4.287,24.786 -11.209,51.87 -5.346,104.187c3.201,28.571 -13.126,61.778 -13.977,63.484Zm-7.941,-3.954c-0,0 16.131,-31.502 13.101,-58.542c-5.012,-44.731 -0.934,-71.484 3.109,-93.876c3.893,-21.555 7.827,-38.907 2.872,-65.172c-3.41,-18.073 -9.783,-38.685 -20.76,-53.648c-23.983,-32.69 -70.096,-49.626 -110.191,-41.949c-16.26,3.114 -30.924,10.197 -45.455,17.916c-50.121,26.626 -60.162,82.974 -53.649,130.337c1.766,12.843 9.152,29.973 14.153,46.273c3.588,11.691 5.943,22.996 4.784,32.234c-5.552,44.259 -4.154,68.231 9.665,96.78c4.475,9.245 14.249,17.438 27.265,23.793c20.459,9.988 48.862,15.26 78.787,12.149c5.063,-0.527 25.26,-3.943 44.494,-14.609c12.557,-6.964 24.746,-17.036 31.784,-31.604c0.013,-0.028 0.027,-0.055 0.041,-0.082Z"/><path d="M314.767,521.687c52.382,-9.127 64.821,-33.518 67.839,-44.65c5.684,-20.97 8.438,-61.618 3.33,-83.234c-1.773,-7.505 -5.126,-16.054 -10.835,-22.268c-12.548,-13.655 -68.663,-14.843 -89.641,-11.636c-8.4,1.284 -15.984,4.187 -23.49,7.371c-26.116,11.077 -35.099,139.19 14.464,151.687c13.237,3.337 30.019,4.178 38.333,2.73Z" style="fill:#b7f8ff;"/><circle cx="405.562" cy="294.769" r="3.663" style="fill:#b7f8ff;"/><circle cx="223.688" cy="301.423" r="3.663" style="fill:#b7f8ff;"/><g><path d="M338.371,315.519c-1.66,5.26 -2.656,15.3 -6.065,19.49c-1.652,2.031 -5.001,1.901 -7.184,1.818c-12.538,-0.481 -11.444,-13.283 -12.517,-24.557" style="fill:#ededed;"/><path d="M335.198,314.518c0.553,-1.751 2.424,-2.724 4.175,-2.171c1.751,0.553 2.723,2.423 2.171,4.174c-0.987,3.124 -1.73,7.955 -2.9,12.214c-0.927,3.37 -2.155,6.404 -3.757,8.374c-1.114,1.369 -2.647,2.222 -4.367,2.664c-1.852,0.475 -3.941,0.439 -5.526,0.378c-4.05,-0.155 -6.969,-1.391 -9.137,-3.257c-2.137,-1.84 -3.564,-4.35 -4.474,-7.325c-1.486,-4.86 -1.532,-11.118 -2.09,-16.984c-0.174,-1.828 1.168,-3.453 2.996,-3.627c1.828,-0.174 3.454,1.168 3.628,2.996c0.515,5.408 0.459,11.189 1.829,15.669c0.518,1.695 1.235,3.18 2.452,4.228c1.188,1.022 2.832,1.566 5.051,1.651c0.903,0.035 2.048,0.098 3.138,-0.076c0.497,-0.08 1.026,-0.133 1.339,-0.517c1.125,-1.382 1.851,-3.572 2.502,-5.937c1.194,-4.344 1.964,-9.268 2.97,-12.454Z"/><path d="M324.824,276.464c-10.149,0.624 -18.067,6.369 -17.67,12.821c0.397,6.452 8.959,11.184 19.108,10.559c10.149,-0.624 18.066,-6.369 17.669,-12.821c-0.397,-6.452 -8.959,-11.183 -19.107,-10.559Z"/><path d="M323.292,296.385c-0.032,-1.836 1.434,-3.352 3.27,-3.383c1.835,-0.032 3.351,1.434 3.382,3.27c0.094,5.51 1.038,10.797 1.45,16.257c0.138,1.831 -1.237,3.43 -3.068,3.568c-1.831,0.138 -3.429,-1.236 -3.567,-3.067c-0.422,-5.59 -1.372,-11.005 -1.467,-16.645Z"/><path d="M350.05,306.16c1.596,-0.908 3.629,-0.349 4.537,1.248c0.907,1.596 0.348,3.629 -1.248,4.536c-10.516,5.979 -20.634,8.2 -30.211,6.823c-9.577,-1.378 -18.671,-6.361 -27.094,-15.092c-1.275,-1.321 -1.237,-3.429 0.084,-4.704c1.321,-1.275 3.429,-1.237 4.704,0.084c7.252,7.517 15.008,11.94 23.253,13.125c8.245,1.186 16.922,-0.873 25.975,-6.02Z"/><path d="M363.014,190.524c-3.865,-1.171 -7.496,-0.495 -8.104,1.51c-0.607,2.004 2.038,4.582 5.903,5.753c3.865,1.171 7.496,0.495 8.103,-1.509c0.608,-2.004 -2.037,-4.582 -5.902,-5.754Z" style="fill:#b7f8ff;"/><path d="M222.008,207.644c-2.597,3.093 -3.404,6.697 -1.801,8.044c1.604,1.346 5.015,-0.071 7.612,-3.164c2.597,-3.092 3.404,-6.697 1.8,-8.043c-1.603,-1.347 -5.014,0.07 -7.611,3.163Z" style="fill:#b7f8ff;"/><path d="M389.169,203.943c-20.592,-2.932 -39.691,11.405 -42.623,31.997c-2.933,20.592 11.404,39.691 31.996,42.623c20.592,2.933 39.691,-11.404 42.624,-31.996c2.932,-20.592 -11.405,-39.691 -31.997,-42.624Z" style="fill:#fff;stroke:#000;stroke-width:6.65px;"/><path d="M256.343,214.979c-20.592,-2.932 -39.691,11.405 -42.623,31.997c-2.933,20.592 11.404,39.691 31.996,42.623c20.592,2.933 39.691,-11.404 42.624,-31.996c2.932,-20.592 -11.405,-39.691 -31.997,-42.624Z" style="fill:#fff;stroke:#000;stroke-width:6.65px;"/><path d="M381.31,235.924c-7.314,-1.041 -14.098,4.051 -15.139,11.365c-1.042,7.314 4.05,14.098 11.364,15.14c7.315,1.041 14.098,-4.051 15.14,-11.365c1.041,-7.314 -4.051,-14.098 -11.365,-15.14Z"/><path d="M250.326,245.35c-7.314,-1.042 -14.098,4.05 -15.14,11.364c-1.041,7.314 4.051,14.098 11.365,15.14c7.314,1.041 14.098,-4.051 15.14,-11.365c1.041,-7.314 -4.051,-14.098 -11.365,-15.139Z"/><path d="M382.42,241.503c-2.054,-0.292 -3.958,1.137 -4.251,3.191c-0.292,2.054 1.138,3.958 3.191,4.251c2.054,0.292 3.958,-1.138 4.251,-3.191c0.292,-2.054 -1.137,-3.958 -3.191,-4.251Z" style="fill:#fff;"/><path d="M251.436,250.928c-2.054,-0.292 -3.959,1.138 -4.251,3.191c-0.292,2.054 1.137,3.958 3.191,4.251c2.054,0.292 3.958,-1.137 4.251,-3.191c0.292,-2.054 -1.138,-3.958 -3.191,-4.251Z" style="fill:#fff;"/></g><path d="M214.199,207.003c0,-0 45.381,-7.29 75.491,-36.842c-16.509,-37.242 -39.779,-83.641 -39.779,-83.641c-0,-0 -56.358,17.557 -71.855,35.905c17.388,36.178 36.143,84.578 36.143,84.578Z" style="fill:#fff;stroke:#000;stroke-width:5.93px;"/><path d="M165.953,87.229c0,0 -33.716,-2.414 -21.364,27.989c-29.727,24.933 7.238,69.792 32.343,41.216c16.163,13.752 48.786,10.295 53.46,-19.07c16.305,3.767 58.035,-2.716 41.842,-44.011c30.806,-6.178 10.726,-54.522 -17.242,-42.702c-33.028,-31.876 -100.436,6.495 -89.039,36.578Z" style="fill:#fff;stroke:#000;stroke-width:5.02px;"/><g><path d="M410.62,374.134c15.156,-9.34 22.109,-27.725 16.926,-44.757c-0,-0 -0,-0 -0,-0l-141.156,73.194c0,0 17.782,14.686 27.384,22.616c3.578,2.955 8.639,3.305 12.59,0.871c15.911,-9.806 57.052,-35.159 84.256,-51.924Z" style="fill:#d4d4d4;stroke:#000;stroke-width:5.93px;"/><path d="M299.037,416.759c2.259,-1.171 3.142,-3.956 1.971,-6.215l-4.245,-8.185c-1.171,-2.259 -3.956,-3.142 -6.214,-1.97l-62.933,32.632c-2.258,1.171 -3.141,3.956 -1.97,6.215l4.244,8.185c1.172,2.259 3.956,3.142 6.215,1.971l62.932,-32.633Z" style="fill:#ca6000;stroke:#000;stroke-width:5.93px;"/></g><path d="M269.855,424.735c0,-0 -10.716,-31.248 -30.075,-35.965c-19.359,-4.716 -27.192,10.642 -14.857,19.545c12.336,8.903 23.159,18.341 24.396,30.49c1.238,12.149 27.49,5.582 20.536,-14.07Z" style="fill:#d6c295;stroke:#000;stroke-width:6.65px;"/><path d="M322.041,455.694c0,-2.838 -2.305,-5.143 -5.143,-5.143l-10.288,-0c-2.839,-0 -5.143,2.305 -5.143,5.143l-0,112.018c-0,2.839 2.304,5.144 5.143,5.144l10.288,-0c2.838,-0 5.143,-2.305 5.143,-5.144l0,-112.018Z" style="fill:#80583b;stroke:#000;stroke-width:5.62px;"/><path d="M475.208,455.694c0,-2.838 -2.304,-5.143 -5.143,-5.143l-10.288,-0c-2.838,-0 -5.143,2.305 -5.143,5.143l-0,112.018c-0,2.839 2.305,5.144 5.143,5.144l10.288,-0c2.839,-0 5.143,-2.305 5.143,-5.144l0,-112.018Z" style="fill:#80583b;stroke:#000;stroke-width:5.62px;"/><path d="M504.927,467.125c2.839,-0 5.144,-2.305 5.144,-5.144l0,-10.287c0,-2.839 -2.305,-5.144 -5.144,-5.144l-225.75,0c-2.839,0 -5.143,2.305 -5.143,5.144l-0,10.287c-0,2.839 2.304,5.144 5.143,5.144l225.75,-0Z" style="fill:#80583b;stroke:#000;stroke-width:5.93px;"/><g><path d="M454.637,432.884c-0,0 16.93,-3.549 30.963,10.416c14.033,13.964 18.217,19.431 36.472,21.11" style="fill:none;stroke:#00950f;stroke-width:5.05px;"/><path d="M453.074,428.596c0,-0 19.724,-8.276 39.276,0.87c19.553,9.145 31.454,10.296 41.104,9.659" style="fill:none;stroke:#00950f;stroke-width:5.05px;"/><path d="M526.542,422.235l-19.101,12.326l12.683,12.892" style="fill:none;stroke:#00950f;stroke-width:5.05px;"/><path d="M492.695,436.852l-10.894,2.132l-4.816,25.192" style="fill:none;stroke:#00950f;stroke-width:5.05px;"/><path d="M508.436,449.519l-14.085,2.027l-0.078,12.47" style="fill:none;stroke:#00950f;stroke-width:5.05px;"/><path d="M500.553,416.22l-14.759,10.128" style="fill:none;stroke:#00950f;stroke-width:5.05px;"/><path d="M346.978,442.722c-1.6,-0.326 -2.854,-1.569 -3.195,-3.166c-0.34,-1.597 0.298,-3.244 1.626,-4.194c14.163,-10.067 45.377,-29.261 46.389,-3.835c0.572,14.369 -5.595,15.021 -20.447,14.977c-7.621,-0.022 -17.45,-2.079 -24.373,-3.782Z" style="fill:#ff9200;stroke:#000;stroke-width:4.75px;"/><path d="M411.175,445.015c-10.24,-0.85 -8.148,-25.619 -1.25,-26.829c6.892,-1.209 4.087,-0.351 11.059,-1.1c3.233,-0.347 6.5,-0.437 9.758,-0.44c10.83,-0.009 27.252,1.458 29.848,13.917c3.112,14.936 -24.375,14.606 -32.353,14.625c-7.081,0.016 -9.796,0.431 -17.062,-0.173Z" style="fill:#ff9200;stroke:#000;stroke-width:4.86px;"/><path d="M410.929,418.736c3.914,0.326 6.616,6.311 6.029,13.356c-0.586,7.045 -4.24,12.501 -8.155,12.175c-3.914,-0.326 -6.615,-6.31 -6.029,-13.356c0.587,-7.045 4.241,-12.501 8.155,-12.175Z" style="fill:#ff9200;stroke:#000;stroke-width:5.93px;"/><path d="M514.517,413.401l-0.227,14.563" style="fill:none;stroke:#00950f;stroke-width:5.93px;"/><path d="M489.418,407.976l2.161,11.956" style="fill:none;stroke:#00950f;stroke-width:5.93px;"/><path d="M509.024,462.796l5.862,10.033" style="fill:none;stroke:#00950f;stroke-width:5.93px;"/><path d="M478.478,453.403l-11.313,4.6" style="fill:none;stroke:#00950f;stroke-width:5.93px;"/></g><ellipse cx="75.473" cy="296.977" rx="20.855" ry="17.85" style="fill:#ff9200;stroke:#000;stroke-width:3px;"/><path d="M144.47,384.892c8.694,3.262 13.486,11.952 10.694,19.393c-2.792,7.442 -12.117,10.835 -20.812,7.573c-8.694,-3.262 -13.485,-11.952 -10.693,-19.393c2.792,-7.442 12.117,-10.835 20.811,-7.573Z" style="fill:#ff9200;stroke:#000;stroke-width:2.42px;"/><path d="M121.527,202.465c5.914,3.439 8.326,10.341 5.383,15.403c-2.944,5.063 -10.135,6.381 -16.05,2.942c-5.914,-3.439 -8.326,-10.341 -5.383,-15.403c2.944,-5.063 10.135,-6.381 16.05,-2.942Z" style="fill:#ff9200;stroke:#000;stroke-width:1.78px;"/><circle cx="72.481" cy="297.169" r="17.85" style="fill:#ff9200;stroke:#000;stroke-width:2.76px;"/><path d="M142.156,384.189c7.441,2.792 11.216,11.1 8.424,18.542c-2.792,7.441 -11.101,11.216 -18.542,8.424c-7.442,-2.792 -11.217,-11.1 -8.425,-18.542c2.793,-7.442 11.101,-11.217 18.543,-8.424Z" style="fill:#ff9200;stroke:#000;stroke-width:2.23px;"/><path d="M119.932,201.669c5.062,2.944 6.782,9.444 3.839,14.506c-2.944,5.062 -9.443,6.783 -14.506,3.839c-5.062,-2.943 -6.783,-9.443 -3.839,-14.505c2.943,-5.063 9.443,-6.783 14.506,-3.84Z" style="fill:#ff9200;stroke:#000;stroke-width:1.64px;"/><circle cx="72.702" cy="296.682" r="9.213" style="fill:#ff9200;stroke:#ffb36d;stroke-width:5.17px;"/><path d="M140.013,390.407c3.841,1.442 5.789,5.73 4.348,9.571c-1.441,3.84 -5.729,5.789 -9.57,4.348c-3.841,-1.441 -5.789,-5.73 -4.348,-9.57c1.441,-3.841 5.729,-5.79 9.57,-4.349Z" style="fill:#ff9200;stroke:#ffb36d;stroke-width:4.17px;"/><path d="M117.61,205.923c2.613,1.52 3.501,4.874 1.982,7.487c-1.519,2.613 -4.874,3.501 -7.487,1.982c-2.613,-1.519 -3.501,-4.874 -1.981,-7.487c1.519,-2.613 4.874,-3.501 7.486,-1.982Z" style="fill:#ff9200;stroke:#ffb36d;stroke-width:3.08px;"/></g></g></svg>