<?xml version="1.0" encoding="UTF-8" standalone="no"?><!DOCTYPE svg PUBLIC "-//W3C//DTD SVG 1.1//EN" "http://www.w3.org/Graphics/SVG/1.1/DTD/svg11.dtd"><svg width="100%" height="100%" viewBox="0 0 600 600" version="1.1" xmlns="http://www.w3.org/2000/svg" xmlns:xlink="http://www.w3.org/1999/xlink" xml:space="preserve" xmlns:serif="http://www.serif.com/" style="fill-rule:evenodd;clip-rule:evenodd;stroke-linecap:round;stroke-linejoin:round;stroke-miterlimit:1.5;"><rect id="_67" serif:id="67" x="0" y="0" width="600" height="600" style="fill:none;"/><g><path d="M544.866,286.58c-0,0 -11.386,10.844 -19.479,18.551c-5.06,4.819 -7.923,11.502 -7.923,18.489c-0,7.096 -0,16.084 -0,21.981c-0,4.004 1.496,7.862 4.195,10.818c3.672,4.021 8.961,9.814 12.521,13.713c2.289,2.508 5.928,3.265 9.027,1.878c0.121,-0.054 0.242,-0.108 0.364,-0.162c3.831,-1.714 5.644,-6.133 4.12,-10.043c-1.662,-4.267 -3.745,-9.612 -5.217,-13.391c-1.222,-3.136 -1.849,-6.473 -1.849,-9.838c0,-3.78 0,-9.072 0,-13.78c0,-7.003 2.364,-13.802 6.709,-19.294c4.86,-6.144 10.581,-13.376 10.581,-13.376l-13.049,-5.546Z" style="fill:#5b5b5b;stroke:#000;stroke-width:4.9px;"/><path d="M71.213,249.85c-0,-0 7.743,13.684 13.246,23.411c3.442,6.081 4.24,13.307 2.209,19.993c-2.062,6.79 -4.674,15.389 -6.388,21.033c-1.163,3.83 -3.716,7.087 -7.158,9.131c-4.682,2.781 -11.426,6.787 -15.966,9.483c-2.919,1.734 -6.621,1.401 -9.183,-0.827c-0.1,-0.086 -0.2,-0.174 -0.301,-0.261c-3.168,-2.753 -3.618,-7.508 -1.024,-10.807c2.831,-3.599 6.377,-8.108 8.884,-11.296c2.081,-2.646 3.65,-5.656 4.628,-8.877c1.099,-3.616 2.637,-8.68 4.005,-13.184c2.035,-6.702 1.749,-13.894 -0.813,-20.412c-2.864,-7.291 -6.237,-15.873 -6.237,-15.873l14.098,-1.514Z" style="fill:#5b5b5b;stroke:#000;stroke-width:4.9px;"/><path d="M565.173,286.58c-0,0 11.385,10.844 19.478,18.551c5.06,4.819 7.924,11.502 7.924,18.489c0,7.096 0,16.084 0,21.981c0,4.004 -1.496,7.862 -4.195,10.818c-3.672,4.021 -8.961,9.814 -12.521,13.713c-2.29,2.508 -5.928,3.265 -9.028,1.878c-0.12,-0.054 -0.242,-0.108 -0.363,-0.162c-3.831,-1.714 -5.644,-6.133 -4.12,-10.043c1.662,-4.267 3.745,-9.612 5.217,-13.391c1.222,-3.136 1.849,-6.473 1.849,-9.838c-0,-3.78 -0,-9.072 -0,-13.78c-0,-7.003 -2.364,-13.802 -6.709,-19.294c-4.86,-6.144 -10.581,-13.376 -10.581,-13.376l13.049,-5.546Z" style="fill:#5b5b5b;stroke:#000;stroke-width:4.9px;"/><path d="M51.782,243.948c0,0 -14.045,7.067 -24.029,12.09c-6.242,3.14 -10.924,8.702 -12.955,15.388c-2.062,6.789 -4.674,15.389 -6.388,21.033c-1.163,3.83 -0.852,7.957 0.871,11.57c2.345,4.914 5.722,11.994 7.995,16.76c1.462,3.064 4.724,4.846 8.092,4.42c0.132,-0.017 0.263,-0.033 0.396,-0.05c4.163,-0.526 7.182,-4.227 6.86,-8.412c-0.35,-4.566 -0.79,-10.285 -1.1,-14.329c-0.258,-3.356 0.112,-6.73 1.09,-9.951c1.098,-3.616 2.636,-8.68 4.004,-13.185c2.036,-6.701 6.273,-12.519 12.027,-16.512c6.436,-4.466 14.011,-9.723 14.011,-9.723l-10.874,-9.099Z" style="fill:#5b5b5b;stroke:#000;stroke-width:4.9px;"/><path d="M465.491,291.549c12.221,-11.954 12.437,-31.581 0.484,-43.802c-11.954,-12.221 -31.581,-12.438 -43.802,-0.484l-113.79,111.304c-12.221,11.954 -12.437,31.58 -0.483,43.801c11.953,12.221 31.58,12.438 43.801,0.484l113.79,-111.303Z" style="fill:#5b5b5b;stroke:#000;stroke-width:7.28px;"/><path d="M127.933,209.15c-8.164,-15.02 -2.599,-33.843 12.421,-42.007c15.02,-8.164 33.842,-2.598 42.006,12.421l76.019,139.849c8.164,15.02 2.598,33.842 -12.421,42.006c-15.02,8.165 -33.843,2.599 -42.007,-12.421l-76.018,-139.848Z" style="fill:#5b5b5b;stroke:#000;stroke-width:7.28px;"/><path d="M447.458,244.07c-12.485,2.093 -20.922,13.929 -18.828,26.414c2.093,12.485 13.929,20.922 26.414,18.829l59.558,-9.987c12.485,-2.093 20.922,-13.929 18.829,-26.414c-2.094,-12.485 -13.93,-20.922 -26.415,-18.829l-59.558,9.987Z" style="fill:#5b5b5b;stroke:#000;stroke-width:5.39px;"/><path d="M144.218,168.291c12.298,-3.004 24.721,4.541 27.726,16.838c3.004,12.298 -4.541,24.722 -16.838,27.726l-58.665,14.332c-12.297,3.005 -24.721,-4.54 -27.725,-16.838c-3.005,-12.297 4.54,-24.721 16.838,-27.725l58.664,-14.333Z" style="fill:#5b5b5b;stroke:#000;stroke-width:5.39px;"/><path d="M530.577,240.925c-6.892,-6.192 -17.515,-5.624 -23.708,1.268c-6.192,6.892 -5.624,17.516 1.268,23.708l32.879,29.54c6.892,6.193 17.515,5.625 23.708,-1.268c6.192,-6.892 5.624,-17.515 -1.268,-23.708l-32.879,-29.54Z" style="fill:#5b5b5b;stroke:#000;stroke-width:5.39px;"/><path d="M66.606,198.209c3.889,-8.41 13.874,-12.081 22.284,-8.192c8.41,3.888 12.081,13.873 8.193,22.284l-18.55,40.119c-3.889,8.41 -13.873,12.081 -22.284,8.192c-8.41,-3.888 -12.081,-13.873 -8.192,-22.283l18.549,-40.12Z" style="fill:#5b5b5b;stroke:#000;stroke-width:5.39px;"/><g><path d="M392.793,356.743c0,0 -8.336,25.632 -24.069,29.732c-15.732,4.099 -22.322,-8.329 -12.374,-15.753c9.948,-7.423 18.656,-15.263 19.507,-25.191c0.852,-9.928 22.354,-4.911 16.936,11.212Z" style="fill:#d6c295;stroke:#000;stroke-width:5.43px;"/><path d="M251.463,178.577c-0,-0 12.621,-13.148 17.354,18.932" style="fill:none;stroke:#61e0ee;stroke-width:5.43px;"/><path d="M295.112,175.421c-0,0 -12.096,-12.621 -16.303,20.51" style="fill:none;stroke:#61e0ee;stroke-width:5.43px;"/><path d="M262.152,164.779c0,0 14.201,-9.052 11.581,27.551" style="fill:none;stroke:#61e0ee;stroke-width:5.43px;"/><path d="M199.493,483.316c0,-0 1.471,-26.914 15.622,-34.918c14.151,-8.004 23.713,2.314 16.006,12.044c-7.706,9.73 -14.107,19.544 -12.379,29.357c1.728,9.814 -20.342,10.49 -19.249,-6.483Z" style="fill:#d6c295;stroke:#000;stroke-width:5.43px;"/><path d="M354.155,482.559c-0,-0 -6.09,-26.257 -21.409,-31.701c-15.318,-5.444 -22.958,6.367 -13.689,14.623c9.268,8.256 17.265,16.819 17.255,26.784c-0.01,9.964 21.846,6.825 17.843,-9.706Z" style="fill:#d6c295;stroke:#000;stroke-width:5.43px;"/><path d="M361.824,259.607c0.496,-2.975 6.582,-7.523 9.111,-8.553c30.772,-12.533 19.986,22.754 2.071,21.357" style="fill:#61e0ee;"/><path d="M365.394,260.202c-0.328,1.971 -2.195,3.304 -4.165,2.975c-1.97,-0.328 -3.303,-2.195 -2.975,-4.165c0.235,-1.407 1.123,-3.115 2.554,-4.752c2.5,-2.859 6.673,-5.707 8.762,-6.558c11.276,-4.592 17.997,-3.047 21.272,0.088c3.449,3.302 4.03,8.981 1.77,14.583c-2.988,7.407 -10.743,14.359 -19.887,13.646c-1.992,-0.155 -3.483,-1.898 -3.327,-3.89c0.155,-1.991 1.898,-3.482 3.89,-3.327c5.904,0.461 10.681,-4.354 12.611,-9.137c0.6,-1.489 0.928,-2.988 0.839,-4.342c-0.059,-0.897 -0.294,-1.723 -0.902,-2.304c-0.789,-0.755 -2.041,-1.051 -3.726,-1.043c-2.519,0.012 -5.746,0.775 -9.809,2.43c-1.25,0.509 -3.525,2.103 -5.257,3.793c-0.525,0.512 -0.999,1.033 -1.354,1.542c-0.121,0.175 -0.27,0.308 -0.296,0.461Z"/><path d="M195.108,236.424c-2.824,1.058 -5.867,-0.721 -8.024,-2.396c-26.239,-20.383 9.62,-28.548 17.367,-12.335" style="fill:#61e0ee;"/><path d="M193.838,233.035c1.871,-0.701 3.959,0.249 4.659,2.119c0.701,1.871 -0.249,3.959 -2.119,4.66c-4.007,1.501 -8.455,-0.551 -11.514,-2.928c-9.614,-7.467 -11.645,-14.048 -10.582,-18.429c1.123,-4.629 5.742,-7.958 11.722,-8.778c7.883,-1.082 17.76,2.18 21.713,10.453c0.861,1.803 0.097,3.965 -1.705,4.826c-1.803,0.862 -3.965,0.098 -4.827,-1.705c-2.554,-5.347 -9.102,-7.102 -14.197,-6.403c-1.58,0.217 -3.034,0.674 -4.153,1.418c-0.735,0.489 -1.323,1.093 -1.518,1.896c-0.256,1.054 0.119,2.278 0.969,3.727c1.274,2.173 3.551,4.585 7.018,7.279c0.812,0.63 1.778,1.302 2.819,1.695c0.559,0.211 1.145,0.384 1.715,0.17Z"/><path d="M196.815,450.889c-0,-0 -13.638,-26.812 -11.061,-49.81c8.068,-71.997 -13.125,-86.123 -4.84,-130.04c2.878,-15.249 8.315,-32.618 17.577,-45.242c20.355,-27.746 59.478,-42.158 93.507,-35.642c13.626,2.609 25.929,8.508 38.106,14.977c42.364,22.505 51.166,70.002 45.66,110.034c-2.437,17.722 -17.674,45.342 -15.445,63.113c4.647,37.046 3.347,57.097 -8.219,80.993c-9.858,20.366 -48.221,35.71 -90.163,31.349c-7.146,-0.744 -49.908,-8.237 -65.122,-39.732Z" style="fill:#61e0ee;"/><clipPath id="_clip1"><path d="M196.815,450.889c-0,-0 -13.638,-26.812 -11.061,-49.81c8.068,-71.997 -13.125,-86.123 -4.84,-130.04c2.878,-15.249 8.315,-32.618 17.577,-45.242c20.355,-27.746 59.478,-42.158 93.507,-35.642c13.626,2.609 25.929,8.508 38.106,14.977c42.364,22.505 51.166,70.002 45.66,110.034c-2.437,17.722 -17.674,45.342 -15.445,63.113c4.647,37.046 3.347,57.097 -8.219,80.993c-9.858,20.366 -48.221,35.71 -90.163,31.349c-7.146,-0.744 -49.908,-8.237 -65.122,-39.732Z"/></clipPath><g clip-path="url(#_clip1)"><path d="M348.233,222.568c0,-0 14.429,18.549 10.526,47.365c-5.864,43.285 -24.057,34 -22.818,111.899c0.617,38.832 2.934,62.254 -14.166,85.631c-16.609,22.704 -64.103,22.672 -76.109,19.241c-12.006,-3.43 47.339,12.35 81.299,-1.372c33.96,-13.721 38.763,-71.351 34.303,-107.369c-4.459,-36.019 24.356,-46.31 14.751,-108.399c-15.437,-36.362 -15.78,-34.304 -27.786,-46.996Z" style="fill:#4fcbe0;"/><path d="M291.58,275.809c-0,-0 4.215,21.076 29.331,19.846c25.115,-1.229 26.872,-26.872 26.872,-26.872l-56.203,7.026Z" style="fill:#4fcbe0;"/><path d="M184.158,265.095c-0,0 4.215,21.076 29.331,19.847c25.115,-1.23 26.872,-26.872 26.872,-26.872l-56.203,7.025Z" style="fill:#4fcbe0;"/></g><path d="M193.573,452.499l-0.007,-0.015c-0.632,-1.266 -14.028,-28.438 -11.409,-51.808c4.784,-42.687 -0.864,-64.786 -4.361,-85.009c-2.429,-14.043 -3.849,-27.218 -0.438,-45.299c2.972,-15.752 8.648,-33.671 18.215,-46.712c21.141,-28.818 61.762,-43.823 97.106,-37.055c13.984,2.677 26.625,8.696 39.123,15.335c43.833,23.285 53.244,72.303 47.548,113.723c-1.244,9.045 -5.714,20.628 -9.629,32.205c-3.643,10.773 -6.869,21.525 -5.81,29.965c4.763,37.978 3.304,58.522 -8.553,83.02c-4.235,8.749 -13.268,16.75 -25.587,22.764c-17.716,8.649 -42.296,13.302 -68.209,10.607c-4.444,-0.462 -22.183,-3.426 -39.065,-12.789c-11.461,-6.356 -22.492,-15.642 -28.924,-28.932Zm6.501,-3.185c5.742,11.887 15.688,20.105 25.934,25.787c15.693,8.703 32.172,11.49 36.303,11.92c24.417,2.538 47.591,-1.763 64.284,-9.913c10.621,-5.185 18.596,-11.87 22.247,-19.413c11.275,-23.294 12.416,-42.853 7.886,-78.965c-0.945,-7.538 0.976,-16.762 3.903,-26.301c4.081,-13.299 10.107,-27.277 11.548,-37.756c5.314,-38.644 -2.878,-84.62 -43.773,-106.345c-11.856,-6.298 -23.822,-12.077 -37.089,-14.618c-32.714,-6.264 -70.339,7.554 -89.907,34.228c-8.957,12.208 -14.157,29.026 -16.939,43.772c-4.043,21.43 -0.833,35.589 2.343,53.176c3.299,18.27 6.627,40.099 2.537,76.596c-2.472,22.062 10.69,47.766 10.69,47.766c0.011,0.022 0.022,0.044 0.033,0.066Z"/><path d="M298.168,473.554c-71.635,16.672 -84.165,-25.12 -86.627,-34.204c-4.639,-17.11 -6.886,-50.276 -2.718,-67.912c1.447,-6.124 4.182,-13.099 8.841,-18.169c10.238,-11.142 56.024,-12.111 73.14,-9.495c6.854,1.048 13.042,3.417 19.167,6.015c21.308,9.038 28.817,114.311 -11.803,123.765Z" style="fill:#b7f8ff;"/><circle cx="192.81" cy="290.633" r="2.989" style="fill:#b7f8ff;"/><circle cx="341.205" cy="296.063" r="2.989" style="fill:#b7f8ff;"/><g><path d="M317.722,318.562c-3.678,-24.376 -31.692,-23.631 -52.229,-14.964c-20.536,8.667 -26.029,-14.49 -41.48,-9.018c-15.45,5.473 0.105,48.956 31.24,57.536c31.134,8.58 65.839,-11.219 62.469,-33.554Z"/><g><path d="M247.905,308.946c0.766,4.434 0.471,12.661 2.769,16.422c1.113,1.823 3.835,2.085 5.61,2.257c10.189,0.984 10.707,-9.486 12.81,-18.485" style="fill:#ededed;"/><path d="M245.23,309.408c-0.255,-1.476 0.736,-2.882 2.213,-3.137c1.476,-0.255 2.882,0.736 3.137,2.212c0.464,2.687 0.548,6.752 1.038,10.395c0.266,1.984 0.614,3.834 1.372,5.075c0.211,0.345 0.633,0.445 1.026,0.564c0.862,0.261 1.795,0.335 2.529,0.406c1.803,0.174 3.192,-0.086 4.264,-0.782c1.099,-0.714 1.842,-1.837 2.446,-3.15c1.599,-3.472 2.187,-8.152 3.196,-12.468c0.341,-1.459 1.802,-2.367 3.261,-2.026c1.459,0.341 2.366,1.802 2.025,3.261c-1.094,4.682 -1.816,9.737 -3.55,13.503c-1.061,2.307 -2.49,4.179 -4.42,5.433c-1.957,1.271 -4.453,1.951 -7.745,1.633c-1.287,-0.125 -2.98,-0.324 -4.426,-0.912c-1.342,-0.546 -2.488,-1.403 -3.239,-2.632c-1.08,-1.768 -1.74,-4.356 -2.12,-7.182c-0.48,-3.572 -0.552,-7.559 -1.007,-10.193Z"/><path d="M258.959,276.441c8.281,0.509 14.741,5.197 14.417,10.461c-0.324,5.265 -7.31,9.125 -15.591,8.616c-8.28,-0.51 -14.74,-5.197 -14.416,-10.462c0.323,-5.264 7.309,-9.124 15.59,-8.615Z"/><path d="M254.781,292.603c0.025,-1.498 1.262,-2.694 2.76,-2.668c1.498,0.025 2.693,1.262 2.668,2.76c-0.078,4.602 -0.853,9.02 -1.197,13.581c-0.113,1.494 -1.417,2.616 -2.911,2.503c-1.494,-0.113 -2.616,-1.417 -2.503,-2.911c0.336,-4.455 1.106,-8.77 1.183,-13.265Z"/><path d="M227.799,206.321c3.153,-0.956 6.116,-0.404 6.611,1.231c0.496,1.635 -1.662,3.739 -4.816,4.694c-3.153,0.956 -6.116,0.404 -6.612,-1.231c-0.495,-1.635 1.663,-3.739 4.817,-4.694Z" style="fill:#b7f8ff;"/><path d="M342.849,220.289c2.119,2.523 2.777,5.464 1.469,6.563c-1.309,1.099 -4.091,-0.058 -6.211,-2.581c-2.119,-2.523 -2.777,-5.464 -1.469,-6.563c1.309,-1.099 4.092,0.058 6.211,2.581Z" style="fill:#b7f8ff;"/><path d="M206.458,217.269c16.801,-2.392 32.384,9.306 34.777,26.107c2.393,16.802 -9.305,32.385 -26.107,34.778c-16.801,2.393 -32.384,-9.306 -34.777,-26.107c-2.393,-16.802 9.305,-32.385 26.107,-34.778Z" style="fill:#fff;stroke:#000;stroke-width:5.43px;"/><path d="M209.794,240.881c5.967,-0.85 11.502,3.305 12.352,9.273c0.85,5.967 -3.305,11.502 -9.273,12.352c-5.967,0.85 -11.502,-3.305 -12.352,-9.273c-0.85,-5.967 3.305,-11.502 9.273,-12.352Z"/><path d="M214.534,250.645c1.676,-0.239 3.23,0.928 3.468,2.603c0.239,1.676 -0.928,3.23 -2.603,3.468c-1.676,0.239 -3.23,-0.928 -3.468,-2.603c-0.239,-1.676 0.928,-3.23 2.603,-3.468Z" style="fill:#fff;"/><path d="M314.834,226.274c16.802,-2.393 32.385,9.305 34.778,26.107c2.392,16.802 -9.306,32.385 -26.107,34.778c-16.802,2.392 -32.385,-9.306 -34.778,-26.107c-2.393,-16.802 9.306,-32.385 26.107,-34.778Z" style="fill:#fff;stroke:#000;stroke-width:5.43px;"/><path d="M318.27,249.528c5.968,-0.85 11.503,3.306 12.353,9.273c0.85,5.968 -3.305,11.503 -9.273,12.353c-5.968,0.85 -11.503,-3.305 -12.353,-9.273c-0.85,-5.968 3.305,-11.503 9.273,-12.353Z"/><path d="M323.011,258.423c1.675,-0.238 3.229,0.928 3.468,2.604c0.239,1.676 -0.928,3.23 -2.604,3.468c-1.675,0.239 -3.229,-0.928 -3.468,-2.603c-0.238,-1.676 0.928,-3.23 2.604,-3.469Z" style="fill:#fff;"/></g></g><path d="M153.167,352.467c0,-0 5.47,26.393 20.657,32.196c15.186,5.803 23.102,-5.826 14.03,-14.297c-9.072,-8.472 -16.865,-17.221 -16.621,-27.182c0.245,-9.962 -21.679,-7.338 -18.066,9.283Z" style="fill:#d6c295;stroke:#000;stroke-width:5.43px;"/></g><circle cx="445.164" cy="265.867" r="4.51" style="fill:#5b5b5b;stroke:#000;stroke-width:2.45px;"/><path d="M153.149,183.27c-2.287,0.982 -3.346,3.636 -2.364,5.923c0.983,2.287 3.637,3.346 5.924,2.364c2.287,-0.983 3.346,-3.637 2.363,-5.924c-0.982,-2.287 -3.636,-3.346 -5.923,-2.363Z" style="fill:#5b5b5b;stroke:#000;stroke-width:2.45px;"/><circle cx="517.987" cy="252.839" r="4.51" style="fill:#5b5b5b;stroke:#000;stroke-width:2.45px;"/><path d="M81.097,200.043c-2.287,0.982 -3.346,3.637 -2.363,5.923c0.982,2.287 3.636,3.346 5.923,2.364c2.287,-0.982 3.346,-3.637 2.364,-5.924c-0.983,-2.286 -3.637,-3.345 -5.924,-2.363Z" style="fill:#5b5b5b;stroke:#000;stroke-width:2.45px;"/><circle cx="553.897" cy="286.244" r="4.51" style="fill:#5b5b5b;stroke:#000;stroke-width:2.45px;"/><path d="M63.98,242.588c-2.382,-0.723 -4.902,0.623 -5.626,3.004c-0.723,2.382 0.623,4.903 3.005,5.626c2.381,0.723 4.902,-0.623 5.625,-3.004c0.724,-2.382 -0.623,-4.903 -3.004,-5.626Z" style="fill:#5b5b5b;stroke:#000;stroke-width:2.45px;"/></g></svg>