<?xml version="1.0" encoding="UTF-8" standalone="no"?><!DOCTYPE svg PUBLIC "-//W3C//DTD SVG 1.1//EN" "http://www.w3.org/Graphics/SVG/1.1/DTD/svg11.dtd"><svg width="100%" height="100%" viewBox="0 0 600 600" version="1.1" xmlns="http://www.w3.org/2000/svg" xmlns:xlink="http://www.w3.org/1999/xlink" xml:space="preserve" xmlns:serif="http://www.serif.com/" style="fill-rule:evenodd;clip-rule:evenodd;stroke-linecap:round;stroke-linejoin:round;stroke-miterlimit:1.5;"><rect id="_68" serif:id="68" x="0" y="0" width="600" height="600" style="fill:none;"/><g><path d="M377.435,156.194c-0.178,-3.689 5.929,-10.713 8.69,-12.602c33.587,-22.984 29.826,22.057 8.018,25.03" style="fill:#61e0ee;"/><path d="M381.864,155.981c0.118,2.444 -1.771,4.524 -4.215,4.642c-2.444,0.117 -4.524,-1.771 -4.642,-4.215c-0.084,-1.746 0.536,-4.021 1.826,-6.352c2.251,-4.07 6.508,-8.562 8.788,-10.123c12.307,-8.422 20.755,-8.315 25.488,-5.412c4.986,3.059 7.154,9.707 5.901,16.999c-1.656,9.643 -9.136,19.977 -20.268,21.495c-2.425,0.33 -4.662,-1.37 -4.992,-3.794c-0.331,-2.425 1.369,-4.661 3.794,-4.992c7.188,-0.98 11.658,-7.983 12.727,-14.209c0.333,-1.939 0.337,-3.818 -0.121,-5.416c-0.303,-1.058 -0.799,-1.986 -1.678,-2.524c-1.14,-0.7 -2.715,-0.728 -4.73,-0.282c-3.013,0.667 -6.678,2.418 -11.114,5.453c-1.364,0.933 -3.673,3.432 -5.308,5.903c-0.496,0.75 -0.929,1.496 -1.221,2.198c-0.101,0.241 -0.244,0.439 -0.235,0.629Z"/><path d="M153.312,306.521c-0,-0 16.771,28.439 36.672,29.167c19.9,0.728 24.483,-15.883 10.617,-22.121c-13.865,-6.237 -26.358,-13.302 -30.011,-24.948c-3.653,-11.646 -28.035,0.059 -17.278,17.902Z" style="fill:#d6c295;stroke:#000;stroke-width:6.65px;"/><path d="M265.517,104.24c0,-0 15.46,-16.105 21.258,23.19" style="fill:none;stroke:#61e0ee;stroke-width:6.65px;"/><path d="M318.983,100.375c0,-0 -14.815,-15.461 -19.969,25.122" style="fill:none;stroke:#61e0ee;stroke-width:6.65px;"/><path d="M278.611,87.339c-0,-0 17.395,-11.089 14.186,33.748" style="fill:none;stroke:#61e0ee;stroke-width:6.65px;"/><path d="M226.483,484.762c-0,0 1.802,-32.967 19.135,-42.771c17.334,-9.804 29.046,2.834 19.606,14.753c-9.439,11.918 -17.28,23.94 -15.163,35.96c2.116,12.021 -24.917,12.849 -23.578,-7.942Z" style="fill:#d6c295;stroke:#000;stroke-width:6.65px;"/><path d="M375.616,488.596c-0,0 -17.451,-28.027 -8.887,-46.006c8.564,-17.978 25.41,-14.354 24.523,0.824c-0.887,15.178 -0.405,29.523 8.229,38.15c8.634,8.627 -13.026,24.825 -23.865,7.032Z" style="fill:#d6c295;stroke:#000;stroke-width:6.65px;"/><path d="M214.181,160.284c-3.459,1.296 -7.187,-0.883 -9.828,-2.935c-32.142,-24.967 11.784,-34.969 21.273,-15.109" style="fill:#61e0ee;"/><path d="M212.626,156.133c2.291,-0.859 4.849,0.305 5.707,2.596c0.858,2.291 -0.305,4.849 -2.596,5.707c-4.908,1.839 -10.356,-0.674 -14.104,-3.585c-11.776,-9.148 -14.263,-17.208 -12.962,-22.575c1.376,-5.67 7.033,-9.747 14.359,-10.753c9.656,-1.325 21.754,2.671 26.596,12.805c1.055,2.208 0.119,4.857 -2.089,5.912c-2.208,1.055 -4.856,0.119 -5.911,-2.089c-3.13,-6.549 -11.15,-8.699 -17.391,-7.843c-1.936,0.266 -3.716,0.825 -5.087,1.737c-0.9,0.599 -1.621,1.338 -1.86,2.322c-0.313,1.291 0.147,2.79 1.187,4.565c1.561,2.662 4.35,5.617 8.597,8.916c0.995,0.772 2.178,1.595 3.453,2.076c0.685,0.259 1.402,0.471 2.101,0.209Z"/><path d="M198.578,437.8c0,-0 -16.705,-32.843 -13.549,-61.014c9.883,-88.19 -16.077,-105.492 -5.928,-159.288c3.524,-18.679 10.185,-39.953 21.53,-55.418c24.933,-33.985 72.856,-51.639 114.539,-43.657c16.69,3.196 31.76,10.421 46.676,18.345c51.892,27.566 62.674,85.746 55.931,134.783c-2.986,21.708 -21.65,55.54 -18.919,77.308c5.691,45.377 4.099,69.939 -10.068,99.209c-12.075,24.947 -59.068,43.742 -110.443,38.4c-8.753,-0.91 -61.133,-10.09 -79.769,-48.668Z" style="fill:#61e0ee;"/><clipPath id="_clip1"><path d="M198.578,437.8c0,-0 -16.705,-32.843 -13.549,-61.014c9.883,-88.19 -16.077,-105.492 -5.928,-159.288c3.524,-18.679 10.185,-39.953 21.53,-55.418c24.933,-33.985 72.856,-51.639 114.539,-43.657c16.69,3.196 31.76,10.421 46.676,18.345c51.892,27.566 62.674,85.746 55.931,134.783c-2.986,21.708 -21.65,55.54 -18.919,77.308c5.691,45.377 4.099,69.939 -10.068,99.209c-12.075,24.947 -59.068,43.742 -110.443,38.4c-8.753,-0.91 -61.133,-10.09 -79.769,-48.668Z"/></clipPath><g clip-path="url(#_clip1)"><path d="M384.053,158.125c-0,0 17.228,42.019 6.723,76.054c-10.505,34.036 -28.993,81.517 -26.052,128.999c2.942,47.481 -2.101,78.155 -12.605,91.601c-21.214,27.154 -78.996,31.094 -93.703,26.892c-14.706,-4.202 57.986,15.127 99.585,-1.681c41.599,-16.807 47.482,-87.399 42.019,-131.519c-5.462,-44.12 29.833,-56.726 18.068,-132.78c-18.908,-44.54 -19.329,-42.019 -34.035,-57.566Z" style="fill:#4fcbe0;"/></g><path d="M194.605,439.768l-0.008,-0.016c-0.784,-1.572 -17.18,-34.842 -13.973,-63.459c5.859,-52.288 -1.059,-79.357 -5.343,-104.129c-2.975,-17.202 -4.715,-33.34 -0.536,-55.488c3.64,-19.295 10.592,-41.244 22.312,-57.218c25.896,-35.299 75.653,-53.68 118.946,-45.39c17.13,3.28 32.614,10.652 47.923,18.784c53.692,28.523 65.22,88.566 58.243,139.303c-1.524,11.079 -7,25.267 -11.796,39.448c-4.462,13.195 -8.413,26.366 -7.116,36.704c5.835,46.521 4.048,71.685 -10.477,101.692c-5.187,10.718 -16.252,20.518 -31.341,27.885c-21.701,10.595 -51.809,16.294 -83.551,12.993c-5.443,-0.566 -27.172,-4.197 -47.851,-15.665c-14.041,-7.786 -27.554,-19.163 -35.432,-35.444Zm7.965,-3.897c7.034,14.56 19.217,24.627 31.767,31.586c19.222,10.661 39.408,14.075 44.468,14.601c29.91,3.11 58.296,-2.159 78.743,-12.142c13.01,-6.351 22.779,-14.539 27.251,-23.78c13.811,-28.533 15.208,-52.491 9.66,-96.725c-1.159,-9.234 1.195,-20.532 4.78,-32.217c4.999,-16.29 12.38,-33.411 14.145,-46.247c6.51,-47.336 -3.525,-103.653 -53.618,-130.264c-14.523,-7.715 -29.179,-14.794 -45.43,-17.906c-40.072,-7.673 -86.16,9.253 -110.13,41.926c-10.971,14.954 -17.34,35.555 -20.748,53.617c-4.953,26.251 -1.02,43.594 2.87,65.136c4.041,22.38 8.117,49.118 3.107,93.824c-3.028,27.025 13.095,58.51 13.095,58.51c0.013,0.027 0.027,0.054 0.04,0.081Z"/><path d="M284.417,468.291c-52.353,-9.121 -64.785,-33.499 -67.801,-44.625c-5.682,-20.958 -8.434,-61.584 -3.329,-83.187c1.773,-7.502 5.123,-16.045 10.829,-22.256c12.541,-13.648 68.625,-14.835 89.591,-11.63c8.395,1.284 15.975,4.185 23.478,7.367c26.101,11.071 35.078,139.113 -14.457,151.602c-13.23,3.336 -30.002,4.177 -38.311,2.729Z" style="fill:#b7f8ff;"/><circle cx="190.134" cy="228.534" r="3.661" style="fill:#b7f8ff;"/><circle cx="373.199" cy="251.198" r="3.661" style="fill:#b7f8ff;"/><path d="M439.532,327.202c-0,-0 -20.975,25.497 -40.748,23.132c-19.774,-2.365 -21.727,-19.485 -7.062,-23.499c14.664,-4.013 28.102,-9.057 33.515,-19.996c5.413,-10.94 27.687,4.402 14.295,20.363Z" style="fill:#d6c295;stroke:#000;stroke-width:6.65px;"/><path d="M320.223,219.279c0,-0 5.163,25.816 35.928,24.31c30.764,-1.506 32.916,-32.916 32.916,-32.916l-68.844,8.606Z" style="fill:#4fcbe0;"/><path d="M188.64,206.155c-0,0 5.163,25.817 35.928,24.311c30.764,-1.506 32.916,-32.916 32.916,-32.916l-68.844,8.605Z" style="fill:#4fcbe0;"/><path d="M341.702,275.21c-2.341,-48.748 -28.875,-21.683 -63.674,-21.565c-27.508,0.092 -31.088,-24.991 -50.834,-11.324c-19.746,13.667 -16.8,105.268 33.621,111.291c57.145,6.827 83.032,-33.734 80.887,-78.402Z"/><path d="M280.014,220.199c10.143,0.624 18.056,6.366 17.659,12.815c-0.396,6.448 -8.954,11.177 -19.097,10.553c-10.143,-0.624 -18.056,-6.366 -17.659,-12.814c0.396,-6.449 8.954,-11.178 19.097,-10.554Z"/><path d="M274.896,239.996c0.031,-1.835 1.546,-3.299 3.381,-3.268c1.835,0.031 3.299,1.546 3.268,3.381c-0.096,5.638 -1.045,11.049 -1.466,16.636c-0.138,1.83 -1.736,3.204 -3.566,3.065c-1.83,-0.138 -3.204,-1.735 -3.066,-3.565c0.412,-5.457 1.355,-10.742 1.449,-16.249Z"/><path d="M245.684,136.115c3.863,-1.171 7.492,-0.495 8.099,1.508c0.607,2.003 -2.036,4.579 -5.899,5.75c-3.863,1.171 -7.492,0.495 -8.099,-1.508c-0.607,-2.003 2.036,-4.58 5.899,-5.75Z" style="fill:#b7f8ff;"/><path d="M351.319,140.432c3.712,1.585 6.059,4.435 5.237,6.359c-0.822,1.925 -4.503,2.201 -8.215,0.615c-3.713,-1.585 -6.059,-4.435 -5.237,-6.359c0.822,-1.925 4.503,-2.201 8.215,-0.615Z" style="fill:#b7f8ff;"/><path d="M236.754,150.789c18.886,8.687 27.167,31.072 18.48,49.959c-8.687,18.886 -31.073,27.166 -49.959,18.479c-18.886,-8.686 -27.167,-31.072 -18.48,-49.958c8.687,-18.886 31.073,-27.167 49.959,-18.48Z" style="fill:#61e0ee;stroke:#000;stroke-width:6.65px;"/><path d="M323.819,173.194c12.608,-16.528 36.263,-19.711 52.791,-7.103c16.529,12.608 19.712,36.263 7.104,52.791c-12.608,16.528 -36.263,19.711 -52.791,7.104c-16.529,-12.608 -19.712,-36.263 -7.104,-52.792Z" style="fill:#61e0ee;stroke:#000;stroke-width:6.65px;"/><path d="M390.508,192.214c0,-0 -42.557,-23.654 -59.96,30.389" style="fill:none;stroke:#000;stroke-width:6.65px;"/><path d="M241.862,211.181c0,0 -5.229,-48.248 -56.866,-36.656" style="fill:none;stroke:#000;stroke-width:6.65px;"/><path d="M286.46,260.375c-1.322,5.351 -1.677,15.429 -4.811,19.824c-1.52,2.131 -4.869,2.214 -7.051,2.269c-12.536,0.317 -12.257,-12.522 -14.044,-23.699" style="fill:#ededed;"/><path d="M283.232,259.577c0.441,-1.781 2.244,-2.871 4.026,-2.43c1.782,0.44 2.871,2.244 2.43,4.025c-0.785,3.179 -1.219,8.044 -2.117,12.367c-0.71,3.42 -1.742,6.524 -3.215,8.59c-1.024,1.437 -2.499,2.385 -4.187,2.935c-1.817,0.592 -3.903,0.688 -5.487,0.728c-4.05,0.102 -7.04,-0.945 -9.321,-2.669c-2.248,-1.7 -3.831,-4.112 -4.927,-7.022c-1.791,-4.753 -2.234,-10.991 -3.163,-16.807c-0.29,-1.812 0.946,-3.519 2.758,-3.809c1.813,-0.289 3.519,0.947 3.809,2.759c0.857,5.362 1.168,11.131 2.819,15.512c0.624,1.658 1.434,3.094 2.714,4.062c1.249,0.944 2.924,1.382 5.143,1.326c0.903,-0.023 2.049,-0.032 3.124,-0.275c0.492,-0.111 1.016,-0.198 1.303,-0.601c1.035,-1.45 1.621,-3.68 2.119,-6.081c0.915,-4.408 1.371,-9.368 2.172,-12.61Z"/></g></svg>