<?xml version="1.0" encoding="UTF-8" standalone="no"?><!DOCTYPE svg PUBLIC "-//W3C//DTD SVG 1.1//EN" "http://www.w3.org/Graphics/SVG/1.1/DTD/svg11.dtd"><svg width="100%" height="100%" viewBox="0 0 600 600" version="1.1" xmlns="http://www.w3.org/2000/svg" xmlns:xlink="http://www.w3.org/1999/xlink" xml:space="preserve" xmlns:serif="http://www.serif.com/" style="fill-rule:evenodd;clip-rule:evenodd;stroke-linecap:round;stroke-linejoin:round;stroke-miterlimit:1.5;"><rect id="_69" serif:id="69" x="0" y="0" width="600" height="600" style="fill:none;"/><g><g><path d="M167.985,465.946c-50.839,-64.694 -28.925,-240.32 -28.925,-240.32c0,0 -46.773,23.027 -76.996,23.747c-30.223,0.719 -29.504,-25.186 -29.504,-25.186c5.038,-46.054 74.314,-96.199 124.49,-81.314c58.858,17.46 52.733,125.76 78.626,172.666c32.867,-15.948 74.392,-74.167 116.684,-74.167c114.987,-0 208.341,68.651 208.341,153.21c0,84.56 -93.354,153.211 -208.341,153.211c-79.95,-0 -149.443,-33.189 -184.375,-81.847Z" style="fill:#e98fca;stroke:#000;stroke-width:5.84px;"/><path d="M440.935,451.193c-0,0 36.123,-37.564 34.53,-84.861" style="fill:none;stroke:#000;stroke-width:5.84px;"/><g><path d="M473.9,338.822c0,-0 -25.824,13.68 -41.171,5.009c-15.347,-8.671 -11.108,-23.322 2.24,-21.603c13.347,1.72 26.043,2.179 34.193,-4.913c8.15,-7.091 21.117,13.033 4.738,21.507Z" style="fill:#d6c295;stroke:#000;stroke-width:5.89px;"/><path d="M210.841,355.705c-0,-0 27.707,9.291 41.437,-1.764c13.73,-11.055 7.161,-24.82 -5.729,-20.95c-12.889,3.871 -25.34,6.392 -34.537,0.722c-9.196,-5.669 -18.712,16.299 -1.171,21.992Z" style="fill:#d6c295;stroke:#000;stroke-width:5.89px;"/><path d="M363.439,142.072c-0,-0 -13.685,-14.255 -18.817,20.527" style="fill:none;stroke:#61e0ee;stroke-width:5.89px;"/><path d="M316.113,138.651c0,-0 13.114,-13.685 17.676,22.237" style="fill:none;stroke:#61e0ee;stroke-width:5.89px;"/><path d="M351.849,127.112c0,0 -15.398,-9.815 -12.557,29.872" style="fill:none;stroke:#61e0ee;stroke-width:5.89px;"/><path d="M477.648,413.11c0,0 -24.293,-16.244 -40.445,-9.184c-16.152,7.059 -13.43,22.067 0.024,21.718c13.453,-0.348 26.129,0.491 33.514,8.377c7.384,7.886 22.336,-10.81 6.907,-20.911Z" style="fill:#d6c295;stroke:#000;stroke-width:5.89px;"/><path d="M324.366,497.72c0,0 -18.802,-22.372 -13.551,-39.198c5.251,-16.827 20.466,-15.762 21.591,-2.352c1.125,13.411 3.344,25.92 11.991,32.397c8.646,6.478 -8.303,23.385 -20.031,9.153Z" style="fill:#d6c295;stroke:#000;stroke-width:5.89px;"/><path d="M243.781,229.928c-0.537,-3.225 -7.137,-8.157 -9.879,-9.273c-33.363,-13.589 -21.668,24.67 -2.245,23.155" style="fill:#61e0ee;"/><path d="M247.652,229.283c0.356,2.136 -1.089,4.16 -3.226,4.516c-2.136,0.356 -4.16,-1.089 -4.516,-3.226c-0.027,-0.166 -0.189,-0.31 -0.321,-0.499c-0.384,-0.553 -0.898,-1.117 -1.468,-1.673c-1.878,-1.832 -4.344,-3.56 -5.699,-4.112c-4.406,-1.795 -7.904,-2.622 -10.636,-2.635c-1.827,-0.008 -3.184,0.312 -4.039,1.131c-0.659,0.63 -0.915,1.526 -0.979,2.498c-0.096,1.468 0.259,3.093 0.91,4.708c2.092,5.185 7.272,10.406 13.674,9.907c2.159,-0.169 4.049,1.448 4.217,3.607c0.169,2.159 -1.448,4.049 -3.607,4.217c-9.915,0.774 -18.323,-6.764 -21.562,-14.795c-2.45,-6.074 -1.821,-12.231 1.919,-15.812c3.55,-3.398 10.838,-5.074 23.064,-0.095c2.264,0.923 6.789,4.011 9.499,7.11c1.553,1.775 2.516,3.627 2.77,5.153Z"/><path d="M424.541,204.792c3.062,1.147 6.361,-0.781 8.7,-2.598c28.449,-22.099 -10.431,-30.953 -18.831,-13.374" style="fill:#61e0ee;"/><path d="M423.164,208.467c-2.028,-0.76 -3.058,-3.023 -2.298,-5.051c0.76,-2.029 3.023,-3.058 5.051,-2.299c0.619,0.232 1.254,0.045 1.86,-0.184c1.129,-0.426 2.176,-1.154 3.056,-1.838c3.76,-2.92 6.229,-5.535 7.61,-7.891c0.921,-1.572 1.328,-2.899 1.05,-4.042c-0.211,-0.87 -0.849,-1.525 -1.645,-2.055c-1.214,-0.807 -2.79,-1.302 -4.504,-1.537c-5.524,-0.758 -12.623,1.145 -15.393,6.942c-0.933,1.954 -3.278,2.782 -5.232,1.849c-1.955,-0.934 -2.783,-3.279 -1.849,-5.233c4.286,-8.97 14.994,-12.507 23.541,-11.334c6.485,0.89 11.492,4.499 12.71,9.518c1.152,4.75 -1.05,11.885 -11.473,19.981c-3.317,2.577 -8.14,4.802 -12.484,3.174Z"/><path d="M414.348,471.558c17.683,-7.611 31.124,-22.614 36.753,-41.025c5.629,-18.41 2.875,-38.365 -7.529,-54.563c-2.802,-4.361 -4.707,-8.842 -5.205,-13.286c-8.747,-78.062 10.547,-72.744 1.563,-120.361c-3.12,-16.534 -9.016,-35.365 -19.058,-49.053c-22.069,-30.083 -64.488,-45.709 -101.383,-38.644c-14.774,2.829 -28.113,9.225 -41.316,16.238c-45.932,24.401 -55.475,75.899 -49.507,119.303c2.643,19.215 19.163,49.161 16.747,68.43c-5.039,40.165 19.214,88.064 61.597,107.341c22.331,10.157 62.968,24.718 107.338,5.621c-0,-0 -0,-0 0,-0.001Z" style="fill:#61e0ee;"/><clipPath id="_clip1"><path d="M414.348,471.558c17.683,-7.611 31.124,-22.614 36.753,-41.025c5.629,-18.41 2.875,-38.365 -7.529,-54.563c-2.802,-4.361 -4.707,-8.842 -5.205,-13.286c-8.747,-78.062 10.547,-72.744 1.563,-120.361c-3.12,-16.534 -9.016,-35.365 -19.058,-49.053c-22.069,-30.083 -64.488,-45.709 -101.383,-38.644c-14.774,2.829 -28.113,9.225 -41.316,16.238c-45.932,24.401 -55.475,75.899 -49.507,119.303c2.643,19.215 19.163,49.161 16.747,68.43c-5.039,40.165 19.214,88.064 61.597,107.341c22.331,10.157 62.968,24.718 107.338,5.621c-0,-0 -0,-0 0,-0.001Z"/></clipPath><g clip-path="url(#_clip1)"><path d="M258.517,189.769c-0,-0 -15.645,20.111 -11.413,51.354c6.358,46.932 26.084,36.865 24.741,121.325c-0.67,42.104 13.684,58.988 33.78,81.423c22.903,25.569 66.187,31.214 73.678,35.6c11.683,6.841 -60.905,10.074 -97.726,-4.804c-36.822,-14.877 -42.029,-77.361 -37.193,-116.414c4.835,-39.053 -26.407,-50.21 -15.993,-117.53c16.736,-39.424 17.108,-37.193 30.126,-50.954Z" style="fill:#4fcbe0;"/><path d="M319.942,247.494c0,0 -4.57,22.852 -31.801,21.519c-27.231,-1.333 -29.136,-29.136 -29.136,-29.136l60.937,7.617Z" style="fill:#4fcbe0;"/><path d="M436.413,235.878c0,0 -4.57,22.852 -31.801,21.519c-27.232,-1.333 -29.136,-29.136 -29.136,-29.136l60.937,7.617Z" style="fill:#4fcbe0;"/></g><path d="M415.899,475.163c-45.679,19.661 -87.523,4.804 -110.514,-5.653c-43.976,-20.001 -69.094,-69.726 -63.866,-111.402c1.148,-9.151 -2.35,-20.809 -6.3,-32.489c-4.244,-12.552 -9.092,-25.11 -10.44,-34.917c-6.176,-44.91 4.028,-98.057 51.553,-123.303c13.551,-7.199 27.256,-13.724 42.419,-16.627c38.321,-7.338 82.363,8.932 105.285,40.176c10.374,14.14 16.528,33.568 19.75,50.647c4.623,24.506 1.996,35.39 -0.688,50.192c-2.565,14.152 -5.136,32.049 -0.831,70.46c0.435,3.888 2.155,7.787 4.606,11.602c11.028,17.168 13.946,38.318 7.981,57.832c-5.966,19.513 -20.212,35.415 -38.955,43.482Zm-3.103,-7.209c16.625,-7.155 29.261,-21.26 34.552,-38.568c5.292,-17.308 2.703,-36.067 -7.078,-51.295c-3.152,-4.906 -5.243,-9.97 -5.803,-14.97c-4.443,-39.651 -1.74,-58.125 0.909,-72.734c2.53,-13.96 5.058,-24.225 0.698,-47.337c-3.017,-15.988 -8.655,-34.223 -18.366,-47.459c-21.216,-28.92 -62.011,-43.903 -97.481,-37.111c-14.385,2.755 -27.358,9.021 -40.213,15.85c-44.339,23.554 -53.222,73.403 -47.46,115.303c1.563,11.362 8.096,26.516 12.521,40.935c3.174,10.344 5.256,20.344 4.231,28.517c-4.849,38.656 18.538,84.729 59.329,103.281c21.672,9.857 61.102,24.121 104.161,5.588Z"/><path d="M372.801,466.362c69.263,-7.083 67.905,-47.93 67.375,-56.728c-0.997,-16.573 -8.977,-46.64 -18.03,-60.993c-3.143,-4.984 -7.698,-10.329 -13.403,-13.399c-12.539,-6.748 -53.89,6.361 -68.45,13.9c-5.83,3.019 -10.665,7.005 -15.375,11.175c-16.384,14.507 8.608,110.061 47.883,106.045Z" style="fill:#b7f8ff;"/><circle cx="427.033" cy="263.568" r="3.241" style="fill:#b7f8ff;"/><circle cx="266.137" cy="269.454" r="3.241" style="fill:#b7f8ff;"/><g><path d="M291.598,293.849c3.988,-26.429 34.361,-25.621 56.628,-16.224c22.267,9.397 28.223,-15.711 44.975,-9.778c16.752,5.933 -0.115,53.08 -33.872,62.383c-33.757,9.303 -71.385,-12.165 -67.731,-36.381Z"/><g><path d="M367.296,283.423c-0.831,4.807 -0.511,13.727 -3.002,17.805c-1.207,1.977 -4.159,2.261 -6.082,2.447c-11.048,1.068 -11.609,-10.285 -13.89,-20.041" style="fill:#ededed;"/><path d="M364.396,282.921c0.277,-1.6 1.801,-2.675 3.401,-2.399c1.601,0.277 2.676,1.801 2.399,3.402c-0.493,2.856 -0.571,7.179 -1.091,11.052c-0.412,3.064 -1.128,5.87 -2.299,7.786c-0.814,1.333 -2.056,2.263 -3.512,2.854c-1.567,0.637 -3.403,0.854 -4.799,0.989c-3.569,0.345 -6.275,-0.393 -8.397,-1.771c-2.092,-1.359 -3.641,-3.389 -4.792,-5.89c-1.88,-4.084 -2.663,-9.564 -3.85,-14.64c-0.369,-1.582 0.615,-3.167 2.196,-3.536c1.582,-0.37 3.167,0.614 3.536,2.196c1.094,4.68 1.732,9.754 3.465,13.519c0.655,1.424 1.46,2.641 2.652,3.415c1.162,0.755 2.668,1.036 4.624,0.847c0.796,-0.076 1.807,-0.157 2.741,-0.439c0.427,-0.129 0.884,-0.238 1.113,-0.612c0.822,-1.346 1.199,-3.351 1.488,-5.502c0.531,-3.95 0.622,-8.358 1.125,-11.271Z"/><path d="M355.311,248.18c-8.978,0.552 -15.982,5.635 -15.631,11.343c0.351,5.707 7.925,9.893 16.904,9.341c8.978,-0.553 15.982,-5.635 15.631,-11.343c-0.351,-5.708 -7.926,-9.893 -16.904,-9.341Z"/><path d="M353.956,265.803c-0.028,-1.624 1.269,-2.965 2.893,-2.993c1.624,-0.027 2.965,1.269 2.992,2.893c0.083,4.874 0.918,9.552 1.282,14.383c0.123,1.619 -1.093,3.034 -2.713,3.156c-1.62,0.122 -3.034,-1.094 -3.156,-2.714c-0.373,-4.945 -1.213,-9.735 -1.298,-14.725Z"/><path d="M389.096,172.153c-3.419,-1.036 -6.631,-0.438 -7.168,1.335c-0.538,1.773 1.802,4.054 5.221,5.09c3.42,1.036 6.632,0.438 7.169,-1.335c0.538,-1.773 -1.802,-4.054 -5.222,-5.09Z" style="fill:#b7f8ff;"/><path d="M264.355,187.298c-2.298,2.736 -3.012,5.924 -1.593,7.116c1.419,1.191 4.436,-0.063 6.733,-2.799c2.298,-2.736 3.012,-5.924 1.593,-7.116c-1.418,-1.191 -4.436,0.063 -6.733,2.799Z" style="fill:#b7f8ff;"/><path d="M400.858,172.218c-21.444,-3.054 -41.333,11.876 -44.386,33.32c-3.054,21.444 11.876,41.332 33.319,44.386c21.444,3.054 41.333,-11.876 44.387,-33.32c3.053,-21.443 -11.877,-41.332 -33.32,-44.386Z" style="fill:#e98fca;"/><clipPath id="_clip2"><path d="M400.858,172.218c-21.444,-3.054 -41.333,11.876 -44.386,33.32c-3.054,21.444 11.876,41.332 33.319,44.386c21.444,3.054 41.333,-11.876 44.387,-33.32c3.053,-21.443 -11.877,-41.332 -33.32,-44.386Z"/></clipPath><g clip-path="url(#_clip2)"><path d="M373.938,254.149l34.541,-99.477l11.053,5.527l-35.001,98.555l-10.593,-4.605Z" style="fill:#fff;"/><path d="M390.518,256.452l34.54,-99.477l8.29,3.224l-35.001,98.555l-7.829,-2.302Z" style="fill:#fff;"/></g><path d="M400.858,172.218c-21.444,-3.054 -41.333,11.876 -44.386,33.32c-3.054,21.444 11.876,41.332 33.319,44.386c21.444,3.054 41.333,-11.876 44.387,-33.32c3.053,-21.443 -11.877,-41.332 -33.32,-44.386Z" style="fill:none;stroke:#000;stroke-width:6.93px;"/><path d="M301.086,175.875c-23.111,-3.291 -44.547,12.8 -47.838,35.911c-3.291,23.111 12.8,44.547 35.911,47.838c23.111,3.291 44.547,-12.8 47.838,-35.911c3.291,-23.111 -12.8,-44.547 -35.911,-47.838Z" style="fill:#e98fca;"/><clipPath id="_clip3"><path d="M301.086,175.875c-23.111,-3.291 -44.547,12.8 -47.838,35.911c-3.291,23.111 12.8,44.547 35.911,47.838c23.111,3.291 44.547,-12.8 47.838,-35.911c3.291,-23.111 -12.8,-44.547 -35.911,-47.838Z"/></clipPath><g clip-path="url(#_clip3)"><path d="M278.606,265.663l34.541,-99.477l11.053,5.526l-35.001,98.556l-10.593,-4.605Z" style="fill:#fff;"/><path d="M295.186,267.965l34.54,-99.476l8.29,3.223l-35.001,98.556l-7.829,-2.303Z" style="fill:#fff;"/></g><path d="M301.086,175.875c-23.111,-3.291 -44.547,12.8 -47.838,35.911c-3.291,23.111 12.8,44.547 35.911,47.838c23.111,3.291 44.547,-12.8 47.838,-35.911c3.291,-23.111 -12.8,-44.547 -35.911,-47.838Z" style="fill:none;stroke:#000;stroke-width:7.47px;"/></g></g></g><path d="M234.047,417.758c-0,-0 30.223,42.456 76.996,49.652" style="fill:none;stroke:#000;stroke-width:5.84px;"/><path d="M91.567,188.207c0,0 20.149,7.196 27.345,-8.635" style="fill:none;stroke:#000;stroke-width:5.84px;"/><path d="M97.998,105.567c-2.156,-3.724 -6.621,-5.434 -10.713,-4.102c-4.091,1.331 -6.695,5.341 -6.247,9.62c2.389,22.791 6.719,50.305 13.705,50.654c11.948,0.597 21.506,-2.987 21.506,-12.545c-0,-5.746 -8.42,-26.388 -18.251,-43.627Z" style="fill:#ffc200;stroke:#000;stroke-width:4.85px;"/><path d="M339.398,218.227c-0,-0 10.131,-12.895 17.04,-3.684" style="fill:none;stroke:#000;stroke-width:5.84px;"/></g><path d="M126.007,149.342c-0,-0 -10.021,-13.853 2.063,-28.59c12.085,-14.738 2.653,-24.17 13.264,-28.296c10.61,-4.126 36.843,1.769 55.412,25.053c18.569,23.285 28.59,62.486 23.874,72.803c-4.716,10.316 -19.453,17.979 -32.422,15.621c-12.969,-2.358 -2.063,-38.022 -62.191,-56.591" style="fill:#fff;stroke:#000;stroke-width:5.84px;"/><path d="M437.027,101.392c-0,-0 -3.537,20.278 -15.327,24.051c8.96,3.065 11.082,8.253 16.034,21.222c4.952,-13.441 6.838,-19.571 14.384,-22.637c-8.018,-5.187 -9.197,-1.179 -15.091,-22.636Z" style="fill:#ffc200;stroke:#000;stroke-width:5.84px;"/><path d="M511.684,190.441c0,0 -3.537,20.279 -15.326,24.052c8.96,3.065 11.082,8.253 16.034,21.221c4.951,-13.44 6.838,-19.571 14.383,-22.636c-8.017,-5.188 -9.196,-1.179 -15.091,-22.637Z" style="fill:#ffc200;stroke:#000;stroke-width:5.84px;"/><path d="M93.421,295.682c-0,-0 -3.537,20.278 -15.327,24.051c8.96,3.066 11.083,8.253 16.034,21.222c4.952,-13.441 6.838,-19.571 14.384,-22.637c-8.017,-5.187 -9.196,-1.179 -15.091,-22.636Z" style="fill:#ffc200;stroke:#000;stroke-width:5.84px;"/></g></svg>