<?xml version="1.0" encoding="UTF-8" standalone="no"?><!DOCTYPE svg PUBLIC "-//W3C//DTD SVG 1.1//EN" "http://www.w3.org/Graphics/SVG/1.1/DTD/svg11.dtd"><svg width="100%" height="100%" viewBox="0 0 600 600" version="1.1" xmlns="http://www.w3.org/2000/svg" xmlns:xlink="http://www.w3.org/1999/xlink" xml:space="preserve" xmlns:serif="http://www.serif.com/" style="fill-rule:evenodd;clip-rule:evenodd;stroke-linecap:round;stroke-linejoin:round;stroke-miterlimit:1.5;"><rect id="_70" serif:id="70" x="0" y="0" width="600" height="600" style="fill:none;"/><g><g><path d="M239.639,153.106c-1.916,-4.263 2.027,-15.359 4.404,-18.86c28.925,-42.603 45.327,12.18 21.019,25.768" style="fill:#61e0ee;"/><path d="M244.755,150.806c1.269,2.824 0.007,6.147 -2.816,7.416c-2.824,1.269 -6.147,0.007 -7.416,-2.817c-0.907,-2.016 -1.229,-4.983 -0.788,-8.324c0.769,-5.835 3.704,-13.094 5.668,-15.986c10.598,-15.611 20.597,-19.392 27.513,-18.162c7.287,1.296 12.914,8.122 14.812,17.29c2.509,12.121 -1.52,27.751 -13.929,34.687c-2.702,1.511 -6.122,0.543 -7.633,-2.159c-1.51,-2.702 -0.543,-6.123 2.159,-7.633c8.012,-4.479 10.038,-14.794 8.417,-22.621c-0.504,-2.437 -1.369,-4.652 -2.647,-6.321c-0.846,-1.106 -1.86,-1.969 -3.144,-2.197c-1.666,-0.297 -3.534,0.398 -5.701,1.856c-3.24,2.179 -6.746,5.936 -10.566,11.561c-1.175,1.731 -2.739,5.741 -3.521,9.408c-0.238,1.113 -0.402,2.191 -0.422,3.154c-0.006,0.33 -0.084,0.629 0.014,0.848Z"/><path d="M488.158,219.948c-0.06,-4.673 7.974,-13.282 11.549,-15.548c43.493,-27.567 36.732,29.218 9.024,32.006" style="fill:#61e0ee;"/><path d="M493.767,219.875c0.04,3.096 -2.44,5.642 -5.536,5.682c-3.095,0.04 -5.641,-2.44 -5.682,-5.536c-0.028,-2.21 0.857,-5.06 2.592,-7.95c3.028,-5.046 8.61,-10.537 11.563,-12.409c15.937,-10.101 26.614,-9.589 32.468,-5.708c6.169,4.09 8.614,12.592 6.706,21.757c-2.523,12.119 -12.442,24.853 -26.586,26.276c-3.08,0.31 -5.833,-1.939 -6.143,-5.019c-0.31,-3.081 1.94,-5.833 5.02,-6.143c9.133,-0.919 15.097,-9.575 16.726,-17.4c0.507,-2.437 0.595,-4.813 0.088,-6.853c-0.336,-1.352 -0.923,-2.547 -2.009,-3.267c-1.411,-0.936 -3.402,-1.042 -5.969,-0.567c-3.84,0.71 -8.552,2.76 -14.296,6.4c-1.766,1.12 -4.797,4.176 -6.975,7.229c-0.66,0.926 -1.241,1.85 -1.642,2.724c-0.137,0.3 -0.328,0.544 -0.325,0.784Z"/><path d="M105.955,164.335c-0,0 10.909,-26.053 35.658,17.685" style="fill:none;stroke:#61e0ee;stroke-width:8.41px;"/><path d="M167.3,135.409c0,-0 -24.532,-11.497 -12.121,38.752" style="fill:none;stroke:#61e0ee;stroke-width:8.41px;"/><path d="M113.707,138.42c0,0 15.479,-21.015 32.124,33.369" style="fill:none;stroke:#61e0ee;stroke-width:8.41px;"/><path d="M531.938,443.716c-0,-0 -40.974,8.134 -58.429,-10.036c-17.455,-18.17 -5.638,-36.492 11.932,-28.66c17.57,7.831 34.765,13.67 48.835,7.304c14.069,-6.365 23.566,26.51 -2.338,31.392Z" style="fill:#d6c295;stroke:#000;stroke-width:8.41px;"/><path d="M89.636,256.751c-2.734,3.791 -8.188,4.111 -12.409,3.803c-51.357,-3.748 -12.117,-45.089 11.804,-30.831" style="fill:#61e0ee;"/><path d="M85.086,253.47c1.811,-2.511 5.32,-3.079 7.831,-1.268c2.511,1.81 3.079,5.319 1.269,7.83c-3.879,5.378 -11.379,6.554 -17.367,6.117c-18.816,-1.374 -27.089,-8.117 -29.482,-14.681c-2.528,-6.936 0.569,-15.198 7.579,-21.394c9.238,-8.168 24.781,-12.445 36.987,-5.17c2.659,1.585 3.532,5.031 1.947,7.69c-1.585,2.66 -5.031,3.532 -7.69,1.947c-7.889,-4.702 -17.843,-1.341 -23.814,3.938c-1.852,1.638 -3.335,3.475 -4.139,5.398c-0.528,1.261 -0.768,2.546 -0.33,3.749c0.576,1.579 2.111,2.835 4.452,3.975c3.51,1.708 8.52,2.863 15.306,3.359c1.589,0.116 3.412,0.152 5.093,-0.236c0.902,-0.208 1.806,-0.488 2.358,-1.254Z"/><path d="M465.113,450.649c-0,0 -43.51,16.742 -78.551,9.097c-109.7,-23.934 -134.858,6.481 -201.236,-13.305c-23.048,-6.87 -48.954,-18.026 -66.937,-34.32c-39.521,-35.808 -55.49,-98.42 -40.012,-149.837c6.198,-20.589 17.256,-38.612 29.173,-56.351c41.457,-61.712 116.082,-67.696 176.915,-52.817c26.93,6.586 67.074,34.486 94.826,33.887c57.849,-1.247 88.552,3.958 123.542,25.604c29.821,18.449 47.348,80.039 33.928,143.998c-2.287,10.897 -20.667,75.62 -71.648,94.044Z" style="fill:#61e0ee;"/><clipPath id="_clip1"><path d="M465.113,450.649c-0,0 -43.51,16.742 -78.551,9.097c-109.7,-23.934 -134.858,6.481 -201.236,-13.305c-23.048,-6.87 -48.954,-18.026 -66.937,-34.32c-39.521,-35.808 -55.49,-98.42 -40.012,-149.837c6.198,-20.589 17.256,-38.612 29.173,-56.351c41.457,-61.712 116.082,-67.696 176.915,-52.817c26.93,6.586 67.074,34.486 94.826,33.887c57.849,-1.247 88.552,3.958 123.542,25.604c29.821,18.449 47.348,80.039 33.928,143.998c-2.287,10.897 -20.667,75.62 -71.648,94.044Z"/></clipPath><g clip-path="url(#_clip1)"><path d="M247.574,274.923c-0,-0 22.098,24.925 54.763,3.67c32.664,-21.255 14.995,-56.956 14.995,-56.956l-69.758,53.286Z" style="fill:#4fcbe0;"/><path d="M97.231,355.339c0,0 22.099,24.925 54.763,3.67c32.664,-21.255 14.995,-56.955 14.995,-56.955l-69.758,53.285Z" style="fill:#4fcbe0;"/></g><path d="M467.095,455.897l-0.044,0.016c-2.081,0.783 -46.089,17.08 -81.685,9.313c-65.04,-14.19 -100.008,-9.013 -131.742,-6.85c-22.036,1.501 -42.573,1.587 -69.901,-6.559c-23.808,-7.097 -50.524,-18.708 -69.1,-35.539c-41.048,-37.192 -57.693,-102.207 -41.617,-155.611c6.361,-21.131 17.658,-39.656 29.888,-57.862c42.895,-63.853 119.961,-70.533 182.904,-55.138c13.744,3.362 30.886,12.103 48.107,19.987c16.025,7.336 32.085,14.026 45.265,13.741c59.306,-1.279 90.742,4.251 126.614,26.442c12.811,7.926 23.703,23.128 31.007,43.078c10.504,28.691 13.751,67.326 5.459,106.842c-1.422,6.777 -8.825,33.649 -25.953,58.179c-11.625,16.648 -27.696,32.166 -49.202,39.961Zm-3.889,-10.523c19.241,-6.954 33.498,-20.974 43.893,-35.861c15.922,-22.802 22.85,-47.76 24.172,-54.06c7.813,-37.235 4.883,-73.646 -5.015,-100.681c-6.297,-17.2 -15.329,-30.561 -26.375,-37.395c-34.108,-21.1 -64.077,-25.982 -120.469,-24.766c-11.771,0.254 -25.683,-4.18 -39.922,-10.216c-19.849,-8.414 -40.434,-19.936 -56.358,-23.831c-58.723,-14.363 -130.906,-9.076 -170.926,50.497c-11.603,17.272 -22.423,34.793 -28.457,54.84c-14.881,49.43 0.413,109.638 38.406,144.063c17.39,15.756 42.485,26.458 64.773,33.102c32.39,9.654 54.729,6.966 82.347,4.879c28.692,-2.168 62.873,-3.812 118.482,8.321c33.616,7.334 75.342,-8.852 75.342,-8.852c0.035,-0.014 0.071,-0.027 0.107,-0.04Z"/><g><path d="M220.103,353.38c5.434,4.371 13.52,14.241 20.045,16.261c3.163,0.979 6.597,-1.505 8.835,-3.124c12.859,-9.294 2.733,-22 -4.04,-34.619" style="fill:#ededed;"/><path d="M217.467,356.658c-1.81,-1.455 -2.097,-4.106 -0.642,-5.915c1.456,-1.809 4.106,-2.096 5.915,-0.641c3.293,2.648 7.555,7.29 11.857,11.024c2.342,2.034 4.642,3.829 6.795,4.496c0.598,0.185 1.192,-0.13 1.772,-0.395c1.268,-0.58 2.429,-1.45 3.355,-2.119c2.276,-1.645 3.625,-3.37 4.158,-5.279c0.547,-1.956 0.26,-4.022 -0.382,-6.168c-1.699,-5.676 -5.81,-11.72 -9.059,-17.773c-1.098,-2.046 -0.328,-4.599 1.717,-5.697c2.046,-1.098 4.599,-0.328 5.697,1.717c3.524,6.566 7.863,13.184 9.705,19.34c1.129,3.769 1.386,7.411 0.426,10.846c-0.973,3.483 -3.179,6.83 -7.333,9.833c-1.625,1.174 -3.798,2.677 -6.081,3.475c-2.12,0.741 -4.331,0.918 -6.463,0.257c-3.067,-0.949 -6.487,-3.282 -9.824,-6.179c-4.217,-3.662 -8.385,-8.225 -11.613,-10.822Z"/><path d="M206.985,302.779c11.118,-6.457 23.478,-5.96 27.583,1.109c4.105,7.068 -1.589,18.049 -12.708,24.507c-11.119,6.457 -23.479,5.96 -27.584,-1.109c-4.105,-7.068 1.59,-18.05 12.709,-24.507Z"/><path d="M215.48,327.216c-1.254,-1.954 -0.686,-4.559 1.268,-5.813c1.954,-1.254 4.559,-0.686 5.813,1.268c3.853,6.004 6.649,12.368 10.124,18.547c1.138,2.024 0.419,4.591 -1.605,5.729c-2.024,1.138 -4.591,0.419 -5.729,-1.605c-3.394,-6.035 -6.107,-12.262 -9.871,-18.126Z"/><path d="M201.844,360.109c-2.316,0.164 -4.329,-1.583 -4.493,-3.9c-0.164,-2.316 1.584,-4.329 3.9,-4.493c13.136,-0.929 23.712,-4.844 31.558,-11.872c7.847,-7.027 12.908,-17.118 15.272,-30.113c0.415,-2.284 2.607,-3.801 4.892,-3.386c2.284,0.416 3.801,2.608 3.386,4.892c-2.745,15.094 -8.823,26.713 -17.937,34.875c-9.114,8.163 -21.319,12.918 -36.578,13.997Z"/><path d="M106.55,239.103c3.246,-3.943 7.542,-5.776 9.586,-4.093c2.044,1.684 1.067,6.251 -2.179,10.193c-3.247,3.942 -7.543,5.776 -9.587,4.092c-2.044,-1.683 -1.067,-6.25 2.18,-10.192Z" style="fill:#b7f8ff;"/><path d="M266.952,158.278c4.902,1.435 8.277,4.662 7.533,7.204c-0.743,2.541 -5.326,3.44 -10.228,2.006c-4.901,-1.434 -8.277,-4.662 -7.533,-7.204c0.743,-2.541 5.327,-3.44 10.228,-2.006Z" style="fill:#b7f8ff;"/><path d="M88.429,271.559c19.616,-17.52 49.767,-15.819 67.288,3.797c17.52,19.617 15.819,49.768 -3.797,67.288c-19.617,17.521 -49.768,15.82 -67.288,-3.797c-17.521,-19.616 -15.82,-49.767 3.797,-67.288Z" style="fill:#fff;stroke:#000;stroke-width:8.41px;"/><path d="M235.958,190.066c19.616,-17.52 49.767,-15.819 67.288,3.797c17.521,19.617 15.819,49.768 -3.797,67.288c-19.617,17.521 -49.767,15.82 -67.288,-3.797c-17.521,-19.616 -15.819,-49.767 3.797,-67.288Z" style="fill:#fff;stroke:#000;stroke-width:8.41px;"/><path d="M119.118,299.709c6.967,-6.223 17.677,-5.619 23.9,1.349c6.223,6.967 5.619,17.676 -1.349,23.9c-6.967,6.223 -17.677,5.619 -23.9,-1.349c-6.223,-6.968 -5.619,-17.677 1.349,-23.9Z"/><path d="M263.58,217.812c6.967,-6.223 17.676,-5.619 23.9,1.348c6.223,6.968 5.618,17.677 -1.349,23.9c-6.968,6.224 -17.677,5.619 -23.9,-1.348c-6.223,-6.968 -5.619,-17.677 1.349,-23.9Z"/><path d="M121.86,306.358c1.956,-1.747 4.963,-1.577 6.711,0.379c1.747,1.956 1.577,4.963 -0.379,6.71c-1.956,1.748 -4.963,1.578 -6.71,-0.378c-1.748,-1.956 -1.578,-4.963 0.378,-6.711Z" style="fill:#fff;"/><path d="M266.322,224.461c1.956,-1.747 4.963,-1.577 6.71,0.379c1.748,1.956 1.578,4.963 -0.378,6.71c-1.957,1.748 -4.963,1.578 -6.711,-0.378c-1.747,-1.957 -1.577,-4.963 0.379,-6.711Z" style="fill:#fff;"/></g><path d="M275.236,476.618c0,-0 38.658,-15.829 43.187,-40.615c4.529,-24.785 -15.436,-33.543 -25.767,-17.315c-10.331,16.227 -21.448,30.585 -36.694,33.042c-15.246,2.456 -5.022,35.113 19.274,24.888Z" style="fill:#d6c295;stroke:#000;stroke-width:8.41px;"/><path d="M114.939,395.804c-0,0 -3.269,41.645 16.824,56.847c20.093,15.203 36.901,1.317 27.061,-15.212c-9.839,-16.53 -17.655,-32.921 -12.985,-47.641c4.671,-14.719 -29.092,-20.292 -30.9,6.006Z" style="fill:#d6c295;stroke:#000;stroke-width:8.41px;"/></g><path d="M103.959,372.434c-0,-0 -3.348,-28.935 27.655,-36.729c25.365,-6.377 40.353,5.966 44.607,20.562" style="fill:#61e0ee;stroke:#000;stroke-width:6.73px;"/><path d="M339.404,176.255c0,-0 36.826,17.16 59.266,84.479" style="fill:none;stroke:#000;stroke-width:8.25px;"/></g></svg>