<?xml version="1.0" encoding="UTF-8" standalone="no"?><!DOCTYPE svg PUBLIC "-//W3C//DTD SVG 1.1//EN" "http://www.w3.org/Graphics/SVG/1.1/DTD/svg11.dtd"><svg width="100%" height="100%" viewBox="0 0 600 600" version="1.1" xmlns="http://www.w3.org/2000/svg" xmlns:xlink="http://www.w3.org/1999/xlink" xml:space="preserve" xmlns:serif="http://www.serif.com/" style="fill-rule:evenodd;clip-rule:evenodd;stroke-linecap:round;stroke-linejoin:round;stroke-miterlimit:1.5;"><rect id="_71" serif:id="71" x="0" y="0" width="600" height="600" style="fill:none;"/><g><g><g><path d="M250.737,48.464c0,0 19.356,-20.162 26.615,29.034" style="fill:none;stroke:#61e0ee;stroke-width:8.33px;"/><path d="M317.677,43.625c-0,0 -18.55,-19.356 -25.002,31.454" style="fill:none;stroke:#61e0ee;stroke-width:8.33px;"/><path d="M267.13,27.304c0,0 21.779,-13.882 17.761,42.253" style="fill:none;stroke:#61e0ee;stroke-width:8.33px;"/><path d="M171.037,515.809c0,0 2.256,-41.274 23.958,-53.549c21.701,-12.275 36.365,3.549 24.546,18.471c-11.818,14.922 -21.634,29.973 -18.984,45.022c2.65,15.05 -31.196,16.087 -29.52,-9.944Z" style="fill:#d6c295;stroke:#000;stroke-width:8.33px;"/><path d="M408.225,514.649c-0,-0 -9.339,-40.267 -32.832,-48.617c-23.493,-8.349 -35.209,9.766 -20.995,22.427c14.215,12.66 26.479,25.793 26.464,41.075c-0.016,15.281 33.502,10.467 27.363,-14.885Z" style="fill:#d6c295;stroke:#000;stroke-width:8.33px;"/><path d="M424.965,150.652c3.893,-2.498 15.328,-0.259 19.102,1.556c45.919,22.087 -5.302,46.141 -22.15,24.335" style="fill:#61e0ee;"/><path d="M427.963,155.323c-2.578,1.655 -6.015,0.905 -7.669,-1.673c-1.655,-2.579 -0.905,-6.015 1.673,-7.67c1.842,-1.181 4.698,-1.93 8.033,-1.986c5.822,-0.1 13.356,1.713 16.473,3.212c16.826,8.093 21.986,17.327 21.793,24.275c-0.205,7.321 -6.063,13.825 -14.759,17.022c-11.496,4.226 -27.382,2.565 -35.982,-8.567c-1.874,-2.424 -1.426,-5.913 0.998,-7.786c2.424,-1.873 5.913,-1.425 7.786,0.999c5.553,7.187 15.945,7.663 23.368,4.934c2.311,-0.85 4.353,-2.02 5.8,-3.514c0.959,-0.99 1.656,-2.108 1.692,-3.397c0.046,-1.675 -0.907,-3.402 -2.649,-5.309c-2.607,-2.853 -6.795,-5.736 -12.859,-8.653c-1.865,-0.897 -6.019,-1.842 -9.722,-2.072c-1.123,-0.07 -2.203,-0.074 -3.148,0.048c-0.324,0.041 -0.628,0.009 -0.828,0.137Z"/><path d="M159.839,157.318c-3.016,3.506 -8.42,3.36 -12.556,2.7c-50.317,-8.038 -8.134,-45.479 14.245,-29.4" style="fill:#61e0ee;"/><path d="M155.631,153.698c1.997,-2.322 5.505,-2.586 7.827,-0.589c2.323,1.998 2.587,5.506 0.589,7.828c-4.278,4.975 -11.772,5.499 -17.639,4.562c-18.435,-2.945 -26.021,-10.292 -27.825,-16.966c-1.907,-7.053 1.845,-14.936 9.28,-20.452c9.799,-7.272 25.484,-10.175 36.904,-1.97c2.488,1.787 3.056,5.258 1.269,7.746c-1.788,2.488 -5.259,3.057 -7.747,1.269c-7.38,-5.302 -17.478,-2.83 -23.811,1.869c-1.965,1.459 -3.582,3.145 -4.537,4.972c-0.627,1.199 -0.973,2.445 -0.642,3.669c0.434,1.605 1.842,2.974 4.053,4.295c3.316,1.981 8.158,3.544 14.807,4.606c1.557,0.248 3.351,0.438 5.041,0.198c0.907,-0.129 1.822,-0.328 2.431,-1.037Z"/><path d="M166.93,466.08c-0,-0 -20.915,-41.119 -16.963,-76.388c12.372,-110.415 -20.129,-132.077 -7.422,-199.428c4.412,-23.386 12.752,-50.022 26.955,-69.383c31.216,-42.55 91.215,-64.653 143.402,-54.66c20.896,4.002 39.764,13.048 58.438,22.968c64.969,34.514 78.468,107.355 70.025,168.748c-3.737,27.179 -27.105,69.536 -23.686,96.79c7.126,56.812 5.132,87.562 -12.605,124.209c-15.118,31.234 -73.952,54.764 -138.274,48.076c-10.959,-1.139 -76.538,-12.632 -99.87,-60.932Z" style="fill:#61e0ee;"/><clipPath id="_clip1"><path d="M166.93,466.08c-0,-0 -20.915,-41.119 -16.963,-76.388c12.372,-110.415 -20.129,-132.077 -7.422,-199.428c4.412,-23.386 12.752,-50.022 26.955,-69.383c31.216,-42.55 91.215,-64.653 143.402,-54.66c20.896,4.002 39.764,13.048 58.438,22.968c64.969,34.514 78.468,107.355 70.025,168.748c-3.737,27.179 -27.105,69.536 -23.686,96.79c7.126,56.812 5.132,87.562 -12.605,124.209c-15.118,31.234 -73.952,54.764 -138.274,48.076c-10.959,-1.139 -76.538,-12.632 -99.87,-60.932Z"/></clipPath><g clip-path="url(#_clip1)"><path d="M399.143,115.929c0,-0 22.129,28.446 16.143,72.638c-8.993,66.382 -36.894,52.143 -34.994,171.607c0.947,59.553 4.501,95.473 -21.725,131.323c-25.471,34.82 -98.307,34.77 -116.72,29.51c-18.413,-5.261 72.598,18.938 124.68,-2.105c52.081,-21.043 59.446,-109.423 52.607,-164.661c-6.839,-55.238 37.352,-71.02 22.621,-166.24c-23.673,-55.764 -24.199,-52.607 -42.612,-72.072Z" style="fill:#4fcbe0;"/><path d="M312.26,197.579c0,-0 6.465,32.322 44.982,30.436c38.517,-1.885 41.21,-41.211 41.21,-41.211l-86.192,10.775Z" style="fill:#4fcbe0;"/><path d="M147.519,181.148c-0,0 6.464,32.322 44.981,30.437c38.517,-1.886 41.211,-41.211 41.211,-41.211l-86.192,10.774Z" style="fill:#4fcbe0;"/></g><path d="M161.967,468.566l-0.021,-0.042c-0.982,-1.968 -21.51,-43.622 -17.495,-79.451c7.335,-65.464 -1.326,-99.354 -6.689,-130.368c-3.725,-21.537 -5.903,-41.742 -0.672,-69.47c4.558,-24.158 13.262,-51.638 27.935,-71.638c32.422,-44.194 94.718,-67.206 148.921,-56.827c21.446,4.106 40.832,13.336 59.998,23.517c67.222,35.711 81.655,110.884 72.92,174.406c-1.907,13.872 -8.764,31.634 -14.767,49.389c-5.587,16.521 -10.534,33.01 -8.911,45.954c7.306,58.243 5.068,89.749 -13.116,127.318c-6.495,13.419 -20.348,25.688 -39.24,34.912c-27.168,13.264 -64.864,20.399 -104.604,16.267c-6.816,-0.709 -34.02,-5.255 -59.91,-19.613c-17.572,-9.745 -34.484,-23.981 -44.349,-44.354Zm9.961,-4.901c8.806,18.23 24.059,30.833 39.771,39.546c24.067,13.347 49.34,17.622 55.675,18.28c37.446,3.894 72.985,-2.703 98.586,-15.201c16.288,-7.952 28.518,-18.204 34.118,-29.772c17.29,-35.724 19.04,-65.719 12.093,-121.1c-1.45,-11.561 1.496,-25.706 5.986,-40.336c6.258,-20.395 15.499,-41.83 17.709,-57.901c8.15,-59.265 -4.413,-129.773 -67.13,-163.09c-18.182,-9.659 -36.532,-18.522 -56.878,-22.418c-50.17,-9.607 -107.872,11.585 -137.882,52.491c-13.735,18.722 -21.71,44.514 -25.977,67.129c-6.2,32.865 -1.277,54.579 3.594,81.55c5.059,28.019 10.162,61.495 3.89,117.467c-3.791,33.835 16.394,73.253 16.394,73.253c0.017,0.034 0.034,0.068 0.051,0.102Z"/><path d="M322.365,500.839c-109.86,25.569 -129.076,-38.524 -132.852,-52.454c-7.113,-26.24 -10.559,-77.103 -4.168,-104.151c2.219,-9.391 6.414,-20.088 13.558,-27.863c15.702,-17.088 85.919,-18.574 112.168,-14.561c10.51,1.607 20.001,5.24 29.393,9.224c32.679,13.86 44.195,175.306 -18.099,189.805Z" style="fill:#b7f8ff;"/><circle cx="174.107" cy="219.545" r="4.584" style="fill:#b7f8ff;"/><circle cx="373.765" cy="231.969" r="4.584" style="fill:#b7f8ff;"/><g><g><path d="M262.233,198.548c12.699,0.781 22.606,7.97 22.11,16.044c-0.497,8.073 -11.21,13.993 -23.91,13.212c-12.699,-0.781 -22.606,-7.97 -22.109,-16.043c0.496,-8.074 11.21,-13.994 23.909,-13.213Z"/><path d="M255.825,223.334c0.039,-2.298 1.936,-4.131 4.233,-4.092c2.298,0.039 4.131,1.936 4.092,4.233c-0.12,7.058 -1.308,13.834 -1.836,20.828c-0.173,2.291 -2.173,4.011 -4.464,3.838c-2.291,-0.173 -4.011,-2.173 -3.838,-4.464c0.515,-6.832 1.696,-13.449 1.813,-20.343Z"/><path d="M214.446,91.012c4.836,-1.465 9.38,-0.619 10.14,1.889c0.76,2.507 -2.55,5.733 -7.386,7.199c-4.837,1.465 -9.38,0.619 -10.14,-1.888c-0.76,-2.508 2.549,-5.734 7.386,-7.2Z" style="fill:#b7f8ff;"/><path d="M390.886,112.434c3.25,3.87 4.26,8.38 2.253,10.065c-2.007,1.685 -6.274,-0.088 -9.524,-3.958c-3.25,-3.87 -4.26,-8.38 -2.253,-10.065c2.006,-1.686 6.274,0.088 9.524,3.958Z" style="fill:#b7f8ff;"/><path d="M181.718,107.803c25.766,-3.669 49.665,14.271 53.334,40.038c3.67,25.766 -14.27,49.665 -40.037,53.334c-25.767,3.67 -49.665,-14.271 -53.335,-40.037c-3.669,-25.767 14.271,-49.665 40.038,-53.335Z" style="fill:#fff;stroke:#000;stroke-width:8.33px;"/><path d="M185.919,127.363c15.362,-2.188 29.61,8.508 31.798,23.87c2.188,15.362 -8.508,29.61 -23.87,31.798c-15.362,2.188 -29.611,-8.508 -31.799,-23.87c-2.187,-15.362 8.509,-29.611 23.871,-31.798Z"/><path d="M194.104,158.987c2.569,-0.366 4.953,1.423 5.319,3.993c0.366,2.569 -1.423,4.953 -3.993,5.319c-2.57,0.366 -4.953,-1.423 -5.319,-3.993c-0.366,-2.57 1.423,-4.953 3.993,-5.319Z" style="fill:#fff;"/><path d="M347.923,121.613c25.766,-3.67 49.665,14.27 53.334,40.037c3.67,25.767 -14.27,49.665 -40.037,53.335c-25.767,3.669 -49.665,-14.271 -53.335,-40.038c-3.669,-25.766 14.271,-49.665 40.038,-53.334Z" style="fill:#fff;stroke:#000;stroke-width:8.33px;"/><path d="M352.037,139.012c16.662,-2.373 32.115,9.227 34.488,25.889c2.372,16.661 -9.228,32.115 -25.89,34.487c-16.661,2.373 -32.114,-9.227 -34.487,-25.889c-2.373,-16.661 9.228,-32.115 25.889,-34.487Z"/><path d="M350.457,173.318c2.569,-0.366 4.953,1.423 5.319,3.993c0.366,2.569 -1.423,4.953 -3.993,5.319c-2.57,0.366 -4.953,-1.424 -5.319,-3.993c-0.366,-2.57 1.423,-4.953 3.993,-5.319Z" style="fill:#fff;"/></g></g><path d="M210.504,351.439c-0,0 -27.368,-30.978 -52.005,-27.147c-24.636,3.83 -26.326,25.337 -7.8,29.713c18.526,4.375 35.561,10.094 42.816,23.543c7.255,13.449 34.448,-6.729 16.989,-26.109Z" style="fill:#d6c295;stroke:#000;stroke-width:8.33px;"/><path d="M355.309,348.097c-0,0 27.117,-31.198 51.783,-27.567c24.667,3.631 26.53,25.124 8.04,29.649c-18.489,4.525 -35.478,10.381 -42.624,23.888c-7.146,13.508 -34.502,-6.45 -17.199,-25.97Z" style="fill:#d6c295;stroke:#000;stroke-width:8.33px;"/></g></g><path d="M334.954,236.429c-0,0 -3.353,-28.979 27.696,-36.784c25.404,-6.387 40.415,5.975 44.675,20.593" style="fill:#61e0ee;stroke:#000;stroke-width:6.74px;"/><path d="M150.245,201.569c-0,-0 13.641,-24.878 38.448,-16.549c20.298,6.815 23.461,23.814 18.279,37.572" style="fill:#61e0ee;stroke:#000;stroke-width:6.01px;"/><path d="M259.601,245.455c0,-0 -19.715,-6.004 -23.484,5.203c-3.769,11.206 21.165,9.605 18.556,15.208c-2.61,5.604 -13.917,7.605 -10.728,16.81c3.19,9.205 11.018,0.8 19.136,-0.4" style="fill:none;stroke:#000;stroke-width:6.56px;"/></g></svg>