<?xml version="1.0" encoding="UTF-8" standalone="no"?><!DOCTYPE svg PUBLIC "-//W3C//DTD SVG 1.1//EN" "http://www.w3.org/Graphics/SVG/1.1/DTD/svg11.dtd"><svg width="100%" height="100%" viewBox="0 0 600 600" version="1.1" xmlns="http://www.w3.org/2000/svg" xmlns:xlink="http://www.w3.org/1999/xlink" xml:space="preserve" xmlns:serif="http://www.serif.com/" style="fill-rule:evenodd;clip-rule:evenodd;stroke-linecap:round;stroke-linejoin:round;stroke-miterlimit:1.5;"><rect id="_72" serif:id="72" x="0" y="0" width="600" height="600" style="fill:none;"/><g><path d="M270.614,52.635c0,-0 20.106,-20.944 27.646,30.159" style="fill:none;stroke:#61e0ee;stroke-width:8.65px;"/><path d="M340.147,47.609c-0,-0 -19.268,-20.106 -25.97,32.671" style="fill:none;stroke:#61e0ee;stroke-width:8.65px;"/><path d="M287.642,30.656c0,-0 22.623,-14.421 18.449,43.889" style="fill:none;stroke:#61e0ee;stroke-width:8.65px;"/><path d="M187.827,538.084c-0,-0 2.343,-42.873 24.885,-55.624c22.542,-12.75 37.774,3.686 25.498,19.186c-12.276,15.5 -22.473,31.134 -19.72,46.767c2.752,15.632 -32.405,16.71 -30.663,-10.329Z" style="fill:#d6c295;stroke:#000;stroke-width:8.65px;"/><path d="M434.202,536.878c0,0 -9.7,-41.827 -34.103,-50.499c-24.403,-8.673 -36.573,10.143 -21.808,23.295c14.765,13.151 27.504,26.793 27.488,42.666c-0.016,15.873 34.801,10.872 28.423,-15.462Z" style="fill:#d6c295;stroke:#000;stroke-width:8.65px;"/><path d="M427.943,126.94c0.273,-4.797 9.128,-13.048 12.956,-15.115c46.571,-25.151 35.57,32.59 6.959,33.464" style="fill:#61e0ee;"/><path d="M433.7,127.267c-0.181,3.177 -2.907,5.61 -6.084,5.429c-3.177,-0.18 -5.609,-2.906 -5.429,-6.083c0.129,-2.269 1.241,-5.128 3.226,-7.967c3.467,-4.957 9.584,-10.187 12.746,-11.895c17.065,-9.215 27.976,-7.926 33.701,-3.527c6.033,4.636 7.93,13.528 5.317,22.79c-3.455,12.245 -14.538,24.592 -29.142,25.038c-3.181,0.097 -5.842,-2.406 -5.939,-5.587c-0.098,-3.181 2.406,-5.842 5.586,-5.939c9.431,-0.288 16.166,-8.737 18.397,-16.644c0.695,-2.461 0.956,-4.892 0.582,-7.02c-0.248,-1.41 -0.764,-2.677 -1.827,-3.494c-1.379,-1.06 -3.413,-1.311 -6.079,-1.009c-3.988,0.453 -8.967,2.217 -15.117,5.539c-1.891,1.021 -5.219,3.938 -7.67,6.912c-0.744,0.902 -1.405,1.808 -1.879,2.676c-0.162,0.298 -0.375,0.534 -0.389,0.781Z"/><path d="M187.699,119.164c-4.749,-0.726 -7.595,-5.567 -9.289,-9.574c-20.614,-48.75 35.586,-32.198 33.739,-3.633" style="fill:#61e0ee;"/><path d="M188.571,113.465c3.146,0.481 5.309,3.426 4.827,6.572c-0.481,3.145 -3.426,5.308 -6.571,4.827c-6.737,-1.031 -11.324,-7.344 -13.728,-13.029c-7.552,-17.86 -5.255,-28.587 -0.368,-33.85c5.163,-5.561 14.173,-6.594 23.124,-3.081c11.8,4.63 22.99,16.849 22.047,31.425c-0.205,3.176 -2.95,5.587 -6.125,5.382c-3.176,-0.206 -5.587,-2.95 -5.382,-6.126c0.609,-9.42 -7.126,-16.955 -14.752,-19.947c-2.366,-0.929 -4.741,-1.425 -6.877,-1.261c-1.402,0.108 -2.689,0.489 -3.585,1.454c-1.175,1.266 -1.606,3.259 -1.553,5.935c0.08,4.012 1.368,9.137 4.092,15.578c0.638,1.509 1.458,3.194 2.6,4.55c0.613,0.728 1.292,1.424 2.251,1.571Z"/><path d="M183.56,486.428c0,-0 -21.725,-42.712 -17.62,-79.347c12.852,-114.692 -20.909,-137.193 -7.709,-207.154c4.583,-24.291 13.245,-51.959 28,-72.07c32.425,-44.199 94.748,-67.157 148.956,-56.777c21.706,4.156 41.304,13.553 60.702,23.858c67.486,35.85 81.507,111.513 72.738,175.284c-3.883,28.232 -28.155,72.23 -24.604,100.539c7.402,59.013 5.331,90.955 -13.094,129.021c-15.703,32.444 -76.816,56.886 -143.63,49.939c-11.384,-1.184 -79.502,-13.122 -103.739,-63.293Z" style="fill:#61e0ee;"/><clipPath id="_clip1"><path d="M183.56,486.428c0,-0 -21.725,-42.712 -17.62,-79.347c12.852,-114.692 -20.909,-137.193 -7.709,-207.154c4.583,-24.291 13.245,-51.959 28,-72.07c32.425,-44.199 94.748,-67.157 148.956,-56.777c21.706,4.156 41.304,13.553 60.702,23.858c67.486,35.85 81.507,111.513 72.738,175.284c-3.883,28.232 -28.155,72.23 -24.604,100.539c7.402,59.013 5.331,90.955 -13.094,129.021c-15.703,32.444 -76.816,56.886 -143.63,49.939c-11.384,-1.184 -79.502,-13.122 -103.739,-63.293Z"/></clipPath><g clip-path="url(#_clip1)"><path d="M424.769,122.713c0,0 22.986,29.548 16.768,75.452c-9.341,68.953 -38.323,54.162 -36.349,178.255c0.983,61.86 4.675,99.171 -22.567,136.41c-26.457,36.168 -102.116,36.117 -121.241,30.652c-19.126,-5.464 75.41,19.673 129.509,-2.185c54.099,-21.859 61.749,-113.663 54.645,-171.04c-7.103,-57.378 38.799,-73.772 23.498,-172.68c-24.59,-57.924 -25.137,-54.645 -44.263,-74.864Z" style="fill:#4fcbe0;"/><path d="M334.521,207.526c-0,-0 6.714,33.574 46.723,31.615c40.01,-1.958 42.807,-42.807 42.807,-42.807l-89.53,11.192Z" style="fill:#4fcbe0;"/><path d="M163.397,190.459c0,-0 6.715,33.574 46.724,31.615c40.009,-1.958 42.807,-42.807 42.807,-42.807l-89.531,11.192Z" style="fill:#4fcbe0;"/></g><path d="M178.405,489.011l-0.022,-0.044c-1.02,-2.045 -22.343,-45.312 -18.173,-82.528c7.62,-68 -1.376,-103.203 -6.948,-135.419c-3.868,-22.371 -6.131,-43.359 -0.697,-72.161c4.734,-25.094 13.776,-53.638 29.017,-74.413c33.678,-45.906 98.386,-69.81 154.689,-59.029c22.277,4.266 42.415,13.853 62.323,24.429c69.826,37.093 84.818,115.179 75.745,181.162c-1.982,14.408 -9.104,32.859 -15.34,51.301c-5.803,17.161 -10.942,34.29 -9.256,47.735c7.589,60.499 5.265,93.225 -13.624,132.25c-6.746,13.938 -21.136,26.683 -40.76,36.264c-28.221,13.778 -67.377,21.19 -108.656,16.897c-7.08,-0.736 -35.338,-5.459 -62.231,-20.373c-18.253,-10.122 -35.82,-24.91 -46.067,-46.071Zm10.347,-5.091c9.147,18.936 24.991,32.027 41.312,41.078c24.999,13.863 51.251,18.304 57.831,18.988c38.897,4.044 75.813,-2.808 102.405,-15.79c16.919,-8.26 29.623,-18.909 35.44,-30.926c17.96,-37.107 19.778,-68.265 12.562,-125.791c-1.506,-12.008 1.554,-26.701 6.217,-41.898c6.501,-21.185 16.1,-43.451 18.396,-60.144c8.465,-61.56 -4.585,-134.8 -69.731,-169.407c-18.887,-10.034 -37.947,-19.24 -59.081,-23.287c-52.114,-9.979 -112.051,12.034 -143.224,54.524c-14.267,19.448 -22.551,46.239 -26.983,69.729c-6.44,34.139 -1.326,56.693 3.733,84.709c5.256,29.105 10.556,63.878 4.041,122.018c-3.938,35.145 17.029,76.091 17.029,76.091c0.018,0.035 0.036,0.07 0.053,0.106Z"/><path d="M345.016,522.533c-114.115,26.56 -134.076,-40.016 -137.998,-54.485c-7.389,-27.257 -10.968,-80.09 -4.329,-108.185c2.305,-9.756 6.662,-20.867 14.084,-28.943c16.309,-17.75 89.246,-19.294 116.512,-15.125c10.918,1.669 20.775,5.443 30.532,9.581c33.944,14.397 45.907,182.097 -18.801,197.157Z" style="fill:#b7f8ff;"/><circle cx="191.015" cy="230.343" r="4.762" style="fill:#b7f8ff;"/><circle cx="398.408" cy="243.249" r="4.762" style="fill:#b7f8ff;"/><g><g><path d="M282.555,208.533c13.192,0.811 23.482,8.279 22.966,16.665c-0.515,8.386 -11.644,14.536 -24.835,13.724c-13.191,-0.811 -23.482,-8.279 -22.966,-16.665c0.516,-8.386 11.644,-14.536 24.835,-13.724Z"/><path d="M275.899,234.278c0.041,-2.386 2.011,-4.29 4.397,-4.25c2.387,0.041 4.291,2.011 4.251,4.397c-0.125,7.332 -1.359,14.37 -1.907,21.635c-0.18,2.38 -2.258,4.167 -4.637,3.987c-2.38,-0.18 -4.167,-2.257 -3.987,-4.637c0.535,-7.097 1.762,-13.97 1.883,-21.132Z"/><path d="M232.917,96.831c5.024,-1.522 9.743,-0.643 10.533,1.962c0.789,2.605 -2.649,5.956 -7.673,7.478c-5.023,1.522 -9.743,0.643 -10.532,-1.962c-0.79,-2.604 2.648,-5.955 7.672,-7.478Z" style="fill:#b7f8ff;"/><path d="M416.192,119.083c3.376,4.02 4.425,8.704 2.34,10.455c-2.084,1.75 -6.517,-0.092 -9.893,-4.112c-3.376,-4.02 -4.424,-8.705 -2.34,-10.455c2.084,-1.75 6.517,0.092 9.893,4.112Z" style="fill:#b7f8ff;"/><path d="M198.921,114.273c26.765,-3.812 51.589,14.823 55.401,41.588c3.811,26.765 -14.824,51.589 -41.589,55.4c-26.764,3.812 -51.589,-14.823 -55.4,-41.588c-3.812,-26.765 14.823,-51.589 41.588,-55.4Z" style="fill:#fff;stroke:#000;stroke-width:8.65px;"/><path d="M371.565,128.617c26.764,-3.812 51.588,14.824 55.4,41.588c3.812,26.765 -14.823,51.589 -41.588,55.401c-26.765,3.811 -51.589,-14.824 -55.401,-41.588c-3.811,-26.765 14.824,-51.589 41.589,-55.401Z" style="fill:#fff;stroke:#000;stroke-width:8.65px;"/></g></g><path d="M228.822,367.346c0,0 -28.428,-32.178 -54.019,-28.199c-25.591,3.979 -27.345,26.319 -8.102,30.864c19.243,4.545 36.938,10.485 44.474,24.455c7.536,13.97 35.783,-6.989 17.647,-27.12Z" style="fill:#d6c295;stroke:#000;stroke-width:8.65px;"/><path d="M379.236,363.875c0,-0 28.168,-32.407 53.79,-28.635c25.622,3.772 27.557,26.097 8.351,30.798c-19.205,4.7 -36.852,10.783 -44.275,24.813c-7.423,14.031 -35.838,-6.7 -17.866,-26.976Z" style="fill:#d6c295;stroke:#000;stroke-width:8.65px;"/><path d="M358.093,247.881c0,0 -3.482,-30.101 28.77,-38.209c26.387,-6.634 41.98,6.206 46.405,21.391" style="fill:#61e0ee;stroke:#000;stroke-width:7px;"/><path d="M168.936,212.753c-0,-0 14.169,-25.841 39.938,-17.19c21.083,7.079 24.369,24.737 18.986,39.028" style="fill:#61e0ee;stroke:#000;stroke-width:6.25px;"/><path d="M258.601,251.392c0,0 -8.661,35.684 16.976,39.495c25.637,3.811 35.683,-41.573 35.683,-41.573" style="fill:none;stroke:#000;stroke-width:7.81px;"/><path d="M354.669,217.008l-0.646,-0.379c-22.455,-14.704 -29.042,-44.422 -14.701,-66.321c14.34,-21.9 44.213,-27.743 66.668,-13.039l0.605,0.441l-51.926,79.298Z"/><path d="M179.824,202.934l-0.646,-0.379c-22.454,-14.704 -29.042,-44.422 -14.701,-66.322c14.341,-21.899 44.214,-27.742 66.668,-13.038l0.606,0.441l-51.927,79.298Z"/></g></svg>