<?xml version="1.0" encoding="UTF-8" standalone="no"?><!DOCTYPE svg PUBLIC "-//W3C//DTD SVG 1.1//EN" "http://www.w3.org/Graphics/SVG/1.1/DTD/svg11.dtd"><svg width="100%" height="100%" viewBox="0 0 600 600" version="1.1" xmlns="http://www.w3.org/2000/svg" xmlns:xlink="http://www.w3.org/1999/xlink" xml:space="preserve" xmlns:serif="http://www.serif.com/" style="fill-rule:evenodd;clip-rule:evenodd;stroke-linecap:round;stroke-linejoin:round;stroke-miterlimit:1.5;"><rect id="_73" serif:id="73" x="0" y="0" width="600" height="600" style="fill:none;"/><g><path d="M261.478,53.988c-0,0 19.82,-20.646 27.252,29.73" style="fill:none;stroke:#61e0ee;stroke-width:8.53px;"/><path d="M330.022,49.033c0,0 -18.994,-19.82 -25.601,32.208" style="fill:none;stroke:#61e0ee;stroke-width:8.53px;"/><path d="M278.264,32.321c-0,0 22.301,-14.215 18.187,43.266" style="fill:none;stroke:#61e0ee;stroke-width:8.53px;"/><path d="M179.866,532.541c0,-0 2.31,-42.264 24.532,-54.834c22.222,-12.569 37.238,3.634 25.136,18.914c-12.102,15.28 -22.154,30.692 -19.44,46.102c2.713,15.411 -31.944,16.473 -30.228,-10.182Z" style="fill:#d6c295;stroke:#000;stroke-width:8.53px;"/><path d="M422.742,531.353c-0,-0 -9.563,-41.233 -33.619,-49.783c-24.057,-8.549 -36.054,10 -21.498,22.964c14.555,12.965 27.113,26.413 27.098,42.06c-0.016,15.648 34.305,10.718 28.019,-15.241Z" style="fill:#d6c295;stroke:#000;stroke-width:8.53px;"/><path d="M416.572,127.237c0.268,-4.728 8.997,-12.862 12.771,-14.9c45.91,-24.793 35.065,32.127 6.861,32.989" style="fill:#61e0ee;"/><path d="M422.246,127.56c-0.178,3.132 -2.865,5.53 -5.997,5.352c-3.132,-0.178 -5.53,-2.865 -5.352,-5.997c0.127,-2.237 1.223,-5.054 3.181,-7.853c3.417,-4.887 9.447,-10.043 12.564,-11.726c16.823,-9.085 27.579,-7.814 33.223,-3.477c5.946,4.569 7.817,13.336 5.241,22.466c-3.406,12.071 -14.331,24.242 -28.729,24.682c-3.135,0.096 -5.758,-2.372 -5.854,-5.507c-0.096,-3.136 2.372,-5.759 5.507,-5.855c9.297,-0.284 15.936,-8.613 18.136,-16.407c0.684,-2.427 0.941,-4.823 0.573,-6.921c-0.245,-1.39 -0.753,-2.639 -1.8,-3.444c-1.36,-1.045 -3.365,-1.293 -5.994,-0.995c-3.931,0.446 -8.839,2.186 -14.901,5.46c-1.865,1.007 -5.145,3.882 -7.562,6.814c-0.733,0.889 -1.385,1.782 -1.852,2.638c-0.16,0.294 -0.37,0.527 -0.384,0.77Z"/><path d="M179.74,119.573c-4.681,-0.717 -7.487,-5.489 -9.157,-9.439c-20.321,-48.057 35.08,-31.74 33.26,-3.581" style="fill:#61e0ee;"/><path d="M180.6,113.954c3.101,0.475 5.233,3.378 4.758,6.478c-0.474,3.101 -3.377,5.233 -6.478,4.759c-6.641,-1.017 -11.163,-7.24 -13.532,-12.843c-7.445,-17.607 -5.18,-28.182 -0.364,-33.37c5.09,-5.482 13.972,-6.5 22.797,-3.037c11.631,4.564 22.663,16.61 21.734,30.979c-0.203,3.13 -2.909,5.507 -6.039,5.305c-3.13,-0.203 -5.508,-2.909 -5.305,-6.039c0.6,-9.286 -7.026,-16.714 -14.543,-19.664c-2.332,-0.915 -4.674,-1.404 -6.779,-1.243c-1.382,0.106 -2.651,0.483 -3.534,1.434c-1.159,1.248 -1.584,3.213 -1.531,5.85c0.078,3.955 1.349,9.007 4.034,15.358c0.629,1.486 1.437,3.147 2.562,4.484c0.605,0.718 1.274,1.404 2.22,1.549Z"/><path d="M175.66,481.619c0,-0 -21.416,-42.105 -17.369,-78.22c12.669,-113.062 -20.612,-135.244 -7.6,-204.211c4.518,-23.947 13.057,-51.221 27.602,-71.047c31.964,-43.57 93.402,-66.202 146.84,-55.97c21.397,4.097 40.718,13.361 59.84,23.519c66.527,35.341 80.349,109.929 71.704,172.795c-3.827,27.83 -27.755,71.203 -24.255,99.11c7.298,58.175 5.256,89.663 -12.907,127.188c-15.48,31.983 -75.725,56.078 -141.59,49.229c-11.222,-1.166 -78.373,-12.935 -102.265,-62.393Z" style="fill:#61e0ee;"/><clipPath id="_clip1"><path d="M175.66,481.619c0,-0 -21.416,-42.105 -17.369,-78.22c12.669,-113.062 -20.612,-135.244 -7.6,-204.211c4.518,-23.947 13.057,-51.221 27.602,-71.047c31.964,-43.57 93.402,-66.202 146.84,-55.97c21.397,4.097 40.718,13.361 59.84,23.519c66.527,35.341 80.349,109.929 71.704,172.795c-3.827,27.83 -27.755,71.203 -24.255,99.11c7.298,58.175 5.256,89.663 -12.907,127.188c-15.48,31.983 -75.725,56.078 -141.59,49.229c-11.222,-1.166 -78.373,-12.935 -102.265,-62.393Z"/></clipPath><g clip-path="url(#_clip1)"><path d="M413.443,123.071c-0,-0 22.659,29.128 16.529,74.38c-9.208,67.974 -37.778,53.393 -35.833,175.723c0.97,60.981 4.609,97.762 -22.245,134.472c-26.082,35.654 -100.666,35.604 -119.52,30.217c-18.854,-5.387 74.339,19.393 127.67,-2.155c53.33,-21.548 60.872,-112.048 53.869,-168.61c-7.003,-56.563 38.247,-72.724 23.164,-170.227c-24.242,-57.101 -24.78,-53.869 -43.634,-73.8Z" style="fill:#4fcbe0;"/><path d="M324.476,206.679c-0,-0 6.619,33.097 46.06,31.166c39.441,-1.931 42.199,-42.199 42.199,-42.199l-88.259,11.033Z" style="fill:#4fcbe0;"/><path d="M155.784,189.854c-0,0 6.619,33.097 46.06,31.167c39.441,-1.931 42.199,-42.199 42.199,-42.199l-88.259,11.032Z" style="fill:#4fcbe0;"/></g><path d="M170.578,484.165l-0.021,-0.044c-1.006,-2.015 -22.026,-44.668 -17.915,-81.355c7.512,-67.034 -1.357,-101.737 -6.849,-133.495c-3.814,-22.053 -6.045,-42.743 -0.688,-71.136c4.667,-24.737 13.58,-52.876 28.605,-73.356c33.199,-45.254 96.989,-68.818 152.492,-58.19c21.961,4.205 41.812,13.656 61.437,24.082c68.834,36.566 83.614,113.542 74.669,178.588c-1.954,14.204 -8.974,32.393 -15.122,50.573c-5.721,16.917 -10.787,33.802 -9.124,47.056c7.481,59.64 5.19,91.901 -13.431,130.371c-6.651,13.741 -20.835,26.305 -40.18,35.749c-27.821,13.582 -66.42,20.889 -107.113,16.658c-6.979,-0.726 -34.836,-5.382 -61.347,-20.084c-17.994,-9.978 -35.311,-24.556 -45.413,-45.417Zm10.2,-5.019c9.017,18.667 24.636,31.572 40.726,40.495c24.643,13.666 50.522,18.044 57.009,18.718c38.344,3.987 74.736,-2.768 100.95,-15.566c16.679,-8.142 29.202,-18.64 34.936,-30.486c17.706,-36.58 19.497,-67.295 12.384,-124.004c-1.485,-11.838 1.532,-26.322 6.129,-41.303c6.408,-20.884 15.871,-42.834 18.134,-59.29c8.345,-60.685 -4.519,-132.885 -68.74,-167.001c-18.618,-9.89 -37.408,-18.966 -58.242,-22.955c-51.373,-9.838 -110.459,11.862 -141.189,53.749c-14.064,19.172 -22.23,45.582 -26.599,68.739c-6.35,33.653 -1.308,55.888 3.679,83.506c5.181,28.691 10.406,62.97 3.984,120.284c-3.882,34.646 16.787,75.01 16.787,75.01c0.018,0.035 0.035,0.069 0.052,0.104Z"/><path d="M334.823,517.211c-112.494,26.182 -132.172,-39.447 -136.038,-53.712c-7.284,-26.869 -10.812,-78.951 -4.268,-106.648c2.273,-9.616 6.568,-20.57 13.884,-28.531c16.077,-17.498 87.978,-19.02 114.857,-14.91c10.763,1.645 20.48,5.365 30.098,9.445c33.462,14.192 45.255,179.51 -18.533,194.356Z" style="fill:#b7f8ff;"/><circle cx="183.009" cy="229.172" r="4.694" style="fill:#b7f8ff;"/><circle cx="387.456" cy="241.894" r="4.694" style="fill:#b7f8ff;"/><g><g><path d="M273.249,207.672c13.004,0.799 23.148,8.161 22.64,16.428c-0.509,8.267 -11.479,14.329 -24.483,13.529c-13.004,-0.8 -23.148,-8.161 -22.64,-16.428c0.509,-8.267 11.479,-14.329 24.483,-13.529Z"/><path d="M266.688,233.051c0.04,-2.352 1.982,-4.23 4.334,-4.19c2.353,0.04 4.23,1.982 4.19,4.335c-0.123,7.228 -1.339,14.166 -1.88,21.328c-0.177,2.346 -2.225,4.107 -4.571,3.93c-2.346,-0.177 -4.107,-2.226 -3.93,-4.572c0.528,-6.995 1.737,-13.771 1.857,-20.831Z"/><path d="M224.316,97.557c4.952,-1.501 9.605,-0.635 10.383,1.933c0.778,2.568 -2.611,5.871 -7.563,7.372c-4.953,1.501 -9.605,0.635 -10.383,-1.933c-0.779,-2.568 2.61,-5.871 7.563,-7.372Z" style="fill:#b7f8ff;"/><path d="M404.987,119.492c3.328,3.963 4.362,8.581 2.307,10.307c-2.054,1.725 -6.425,-0.091 -9.752,-4.054c-3.328,-3.962 -4.362,-8.581 -2.307,-10.306c2.054,-1.726 6.424,0.09 9.752,4.053Z" style="fill:#b7f8ff;"/></g></g><path d="M220.279,364.229c0,-0 -28.024,-31.721 -53.251,-27.799c-25.228,3.923 -26.958,25.946 -7.988,30.426c18.97,4.48 36.414,10.336 43.843,24.107c7.429,13.772 35.275,-6.89 17.396,-26.734Z" style="fill:#d6c295;stroke:#000;stroke-width:8.53px;"/><path d="M368.557,360.807c-0,-0 27.767,-31.947 53.025,-28.228c25.258,3.718 27.166,25.726 8.233,30.36c-18.933,4.633 -36.329,10.63 -43.646,24.461c-7.318,13.831 -35.329,-6.605 -17.612,-26.593Z" style="fill:#d6c295;stroke:#000;stroke-width:8.53px;"/><path d="M252.399,151.008l0.043,0.886c0,31.802 -25.181,57.621 -56.197,57.621c-31.016,-0 -56.198,-25.819 -56.198,-57.621l0.044,-0.886l112.308,-0Z" style="fill:#fff;stroke:#000;stroke-width:7.63px;"/><path d="M227.782,154.365l0.026,0.536c0,19.245 -15.238,34.869 -34.008,34.869c-18.77,0 -34.008,-15.624 -34.008,-34.869l0.026,-0.536l67.964,-0Z"/><path d="M422.625,165.949l0.043,0.887c0,31.801 -25.181,57.62 -56.197,57.62c-31.016,0 -56.197,-25.819 -56.197,-57.62l0.043,-0.887l112.308,0Z" style="fill:#fff;stroke:#000;stroke-width:7.63px;"/><path d="M401.743,169.306l0.027,0.536c-0,19.245 -15.239,34.87 -34.009,34.87c-18.769,-0 -34.008,-15.625 -34.008,-34.87l0.027,-0.536l67.963,0Z"/><path d="M242.915,253.733c0,-0 16.009,11.206 58.699,3.735" style="fill:none;stroke:#000;stroke-width:8.47px;"/></g></svg>