<?xml version="1.0" encoding="UTF-8" standalone="no"?><!DOCTYPE svg PUBLIC "-//W3C//DTD SVG 1.1//EN" "http://www.w3.org/Graphics/SVG/1.1/DTD/svg11.dtd"><svg width="100%" height="100%" viewBox="0 0 600 600" version="1.1" xmlns="http://www.w3.org/2000/svg" xmlns:xlink="http://www.w3.org/1999/xlink" xml:space="preserve" xmlns:serif="http://www.serif.com/" style="fill-rule:evenodd;clip-rule:evenodd;stroke-linecap:round;stroke-linejoin:round;stroke-miterlimit:1.5;"><rect id="_74" serif:id="74" x="0" y="0" width="600" height="600" style="fill:none;"/><g><path d="M117.599,480.233l154.285,0c-0,0 31.687,4.15 18.861,14.712c-12.825,10.562 10.94,1.886 21.879,15.089c10.94,13.203 -221.054,16.221 -230.862,-3.018c-9.808,-19.238 14.712,-26.783 35.837,-26.783Z" style="fill:#61e0ee;stroke:#000;stroke-width:2.97px;"/><g><path d="M413.841,175.703c3.085,-2.031 12.239,-0.35 15.27,1.064c36.882,17.21 -3.801,36.901 -17.462,19.643" style="fill:#61e0ee;"/><path d="M416.279,179.406c-2.044,1.346 -4.795,0.779 -6.141,-1.264c-1.346,-2.044 -0.779,-4.796 1.265,-6.141c1.459,-0.961 3.733,-1.586 6.396,-1.663c4.65,-0.134 10.683,1.243 13.187,2.412c13.514,6.306 17.722,13.631 17.633,19.183c-0.094,5.849 -4.713,11.098 -11.627,13.733c-9.143,3.483 -21.846,2.305 -28.819,-6.504c-1.519,-1.919 -1.194,-4.709 0.724,-6.228c1.919,-1.519 4.71,-1.194 6.228,0.725c4.503,5.688 12.806,5.97 18.71,3.721c1.838,-0.7 3.457,-1.654 4.599,-2.861c0.757,-0.799 1.303,-1.699 1.319,-2.729c0.022,-1.338 -0.756,-2.708 -2.165,-4.215c-2.109,-2.254 -5.481,-4.518 -10.351,-6.79c-1.498,-0.699 -4.824,-1.415 -7.784,-1.564c-0.898,-0.045 -1.761,-0.038 -2.514,0.068c-0.258,0.036 -0.502,0.013 -0.66,0.117Z"/><path d="M156.39,290.297c0,-0 16.771,28.439 36.672,29.167c19.901,0.728 24.483,-15.883 10.618,-22.121c-13.866,-6.237 -26.359,-13.302 -30.012,-24.948c-3.652,-11.646 -28.035,0.059 -17.278,17.902Z" style="fill:#d6c295;stroke:#000;stroke-width:6.65px;"/><path d="M268.595,88.016c0,-0 15.461,-16.105 21.258,23.19" style="fill:none;stroke:#61e0ee;stroke-width:6.65px;"/><path d="M322.062,84.151c-0,-0 -14.816,-15.461 -19.97,25.122" style="fill:none;stroke:#61e0ee;stroke-width:6.65px;"/><path d="M281.689,71.115c-0,-0 17.395,-11.089 14.186,33.748" style="fill:none;stroke:#61e0ee;stroke-width:6.65px;"/><path d="M229.561,468.538c-0,0 1.802,-32.967 19.135,-42.771c17.334,-9.804 29.046,2.834 19.607,14.753c-9.44,11.918 -17.281,23.94 -15.164,35.96c2.117,12.021 -24.917,12.849 -23.578,-7.942Z" style="fill:#d6c295;stroke:#000;stroke-width:6.65px;"/><path d="M378.694,472.372c-0,0 -17.451,-28.027 -8.886,-46.006c8.564,-17.978 25.409,-14.354 24.522,0.824c-0.887,15.178 -0.405,29.523 8.229,38.15c8.634,8.627 -13.026,24.825 -23.865,7.032Z" style="fill:#d6c295;stroke:#000;stroke-width:6.65px;"/><path d="M194.531,183.109c-1.586,3.336 -5.781,4.36 -9.107,4.721c-40.462,4.387 -15.831,-33.333 4.794,-25.649" style="fill:#61e0ee;"/><path d="M190.527,181.205c1.051,-2.21 3.698,-3.151 5.908,-2.1c2.21,1.051 3.151,3.698 2.1,5.908c-2.251,4.733 -7.915,6.713 -12.633,7.224c-14.824,1.608 -22.215,-2.459 -25.008,-7.222c-2.952,-5.033 -1.718,-11.897 2.85,-17.711c6.022,-7.664 17.497,-13.199 28.022,-9.278c2.293,0.854 3.461,3.409 2.607,5.702c-0.854,2.293 -3.409,3.461 -5.702,2.607c-6.802,-2.534 -14.063,1.495 -17.955,6.447c-1.207,1.537 -2.099,3.176 -2.451,4.785c-0.231,1.056 -0.235,2.089 0.277,2.962c0.672,1.146 2.045,1.905 4.027,2.458c2.971,0.829 7.031,1.015 12.377,0.435c1.252,-0.136 2.674,-0.366 3.926,-0.907c0.672,-0.29 1.335,-0.636 1.655,-1.31Z"/><path d="M201.656,421.576c0,-0 -16.705,-32.843 -13.548,-61.014c9.882,-88.19 -16.078,-105.492 -5.929,-159.288c3.525,-18.679 10.186,-39.953 21.531,-55.418c24.932,-33.985 72.855,-51.639 114.538,-43.657c16.69,3.196 31.76,10.421 46.676,18.345c51.892,27.566 62.674,85.746 55.931,134.783c-2.985,21.708 -21.65,55.54 -18.919,77.308c5.692,45.377 4.099,69.939 -10.068,99.209c-12.075,24.947 -59.068,43.742 -110.443,38.4c-8.753,-0.91 -61.132,-10.09 -79.769,-48.668Z" style="fill:#61e0ee;"/><clipPath id="_clip1"><path d="M201.656,421.576c0,-0 -16.705,-32.843 -13.548,-61.014c9.882,-88.19 -16.078,-105.492 -5.929,-159.288c3.525,-18.679 10.186,-39.953 21.531,-55.418c24.932,-33.985 72.855,-51.639 114.538,-43.657c16.69,3.196 31.76,10.421 46.676,18.345c51.892,27.566 62.674,85.746 55.931,134.783c-2.985,21.708 -21.65,55.54 -18.919,77.308c5.692,45.377 4.099,69.939 -10.068,99.209c-12.075,24.947 -59.068,43.742 -110.443,38.4c-8.753,-0.91 -61.132,-10.09 -79.769,-48.668Z"/></clipPath><g clip-path="url(#_clip1)"><path d="M387.131,141.901c0,0 17.228,42.019 6.723,76.054c-10.505,34.036 -28.993,81.517 -26.052,128.999c2.942,47.481 -2.101,78.155 -12.605,91.601c-21.214,27.154 -78.996,31.094 -93.702,26.892c-14.707,-4.202 57.986,15.127 99.584,-1.681c41.599,-16.807 47.482,-87.399 42.019,-131.519c-5.462,-44.12 29.834,-56.726 18.068,-132.78c-18.908,-44.54 -19.328,-42.019 -34.035,-57.566Z" style="fill:#4fcbe0;"/></g><path d="M197.684,423.544l-0.008,-0.016c-0.785,-1.572 -17.181,-34.842 -13.974,-63.459c5.859,-52.288 -1.059,-79.357 -5.343,-104.129c-2.975,-17.202 -4.715,-33.34 -0.536,-55.488c3.64,-19.295 10.593,-41.244 22.312,-57.218c25.896,-35.299 75.653,-53.68 118.947,-45.39c17.129,3.28 32.614,10.652 47.922,18.784c53.692,28.523 65.22,88.566 58.243,139.303c-1.524,11.079 -7,25.267 -11.795,39.448c-4.463,13.195 -8.414,26.366 -7.117,36.704c5.835,46.521 4.048,71.685 -10.477,101.692c-5.187,10.718 -16.252,20.518 -31.341,27.885c-21.701,10.595 -51.809,16.294 -83.55,12.993c-5.444,-0.566 -27.173,-4.197 -47.852,-15.665c-14.04,-7.786 -27.553,-19.163 -35.431,-35.444Zm7.964,-3.897c7.034,14.56 19.217,24.627 31.767,31.586c19.223,10.661 39.408,14.075 44.469,14.601c29.909,3.11 58.295,-2.159 78.743,-12.142c13.009,-6.351 22.778,-14.539 27.25,-23.78c13.811,-28.533 15.208,-52.491 9.66,-96.725c-1.158,-9.234 1.195,-20.532 4.781,-32.217c4.998,-16.29 12.379,-33.411 14.145,-46.247c6.509,-47.336 -3.526,-103.653 -53.619,-130.264c-14.523,-7.715 -29.179,-14.794 -45.43,-17.906c-40.072,-7.673 -86.16,9.253 -110.13,41.926c-10.97,14.954 -17.34,35.555 -20.748,53.617c-4.953,26.251 -1.02,43.594 2.87,65.136c4.041,22.38 8.117,49.118 3.107,93.824c-3.028,27.025 13.095,58.51 13.095,58.51c0.014,0.027 0.027,0.054 0.04,0.081Z"/><path d="M287.495,452.067c-52.353,-9.121 -64.785,-33.499 -67.801,-44.625c-5.681,-20.958 -8.434,-61.584 -3.329,-83.187c1.773,-7.502 5.123,-16.045 10.83,-22.256c12.54,-13.648 68.625,-14.835 89.59,-11.63c8.395,1.284 15.975,4.185 23.478,7.367c26.101,11.071 35.079,139.113 -14.457,151.602c-13.23,3.336 -30.002,4.177 -38.311,2.729Z" style="fill:#b7f8ff;"/><circle cx="193.213" cy="212.31" r="3.661" style="fill:#b7f8ff;"/><circle cx="376.277" cy="234.974" r="3.661" style="fill:#b7f8ff;"/><path d="M442.61,310.978c0,-0 -20.975,25.497 -40.748,23.132c-19.774,-2.365 -21.727,-19.485 -7.062,-23.499c14.665,-4.013 28.102,-9.057 33.515,-19.996c5.413,-10.94 27.687,4.402 14.295,20.363Z" style="fill:#d6c295;stroke:#000;stroke-width:6.65px;"/><path d="M231.973,184.414c3.419,35.345 29.138,17.63 63.664,19.933c27.292,1.82 31.408,20.169 50.693,11.66c19.285,-8.51 14.304,-74.825 -35.861,-82.631c-56.854,-8.847 -81.628,18.652 -78.496,51.038Z"/><path d="M300.144,101.258c10.143,0.624 18.056,6.366 17.659,12.814c-0.396,6.448 -8.953,11.177 -19.097,10.553c-10.143,-0.624 -18.056,-6.366 -17.659,-12.814c0.397,-6.449 8.954,-11.177 19.097,-10.553Z"/><path d="M295.026,121.054c0.031,-1.835 1.546,-3.299 3.381,-3.268c1.835,0.031 3.299,1.546 3.268,3.381c-0.096,5.638 -1.045,11.05 -1.466,16.636c-0.138,1.83 -1.736,3.204 -3.566,3.066c-1.83,-0.138 -3.204,-1.736 -3.066,-3.566c0.412,-5.457 1.355,-10.742 1.449,-16.249Z"/><path d="M306.591,141.433c-1.323,5.351 -1.678,15.429 -4.812,19.824c-1.52,2.131 -4.868,2.214 -7.051,2.269c-12.536,0.317 -12.257,-12.521 -14.044,-23.699" style="fill:#ededed;"/><path d="M303.363,140.635c0.44,-1.781 2.244,-2.87 4.025,-2.43c1.782,0.44 2.871,2.244 2.431,4.026c-0.786,3.179 -1.22,8.044 -2.118,12.366c-0.71,3.42 -1.742,6.525 -3.215,8.591c-1.024,1.436 -2.499,2.384 -4.187,2.934c-1.817,0.592 -3.903,0.688 -5.487,0.728c-4.05,0.103 -7.04,-0.945 -9.32,-2.669c-2.249,-1.699 -3.832,-4.111 -4.928,-7.022c-1.791,-4.753 -2.233,-10.991 -3.163,-16.807c-0.29,-1.812 0.946,-3.519 2.759,-3.808c1.812,-0.29 3.518,0.946 3.808,2.758c0.857,5.362 1.168,11.131 2.819,15.513c0.624,1.657 1.434,3.093 2.714,4.061c1.25,0.944 2.925,1.382 5.143,1.326c0.903,-0.022 2.049,-0.032 3.125,-0.275c0.491,-0.111 1.015,-0.197 1.303,-0.6c1.034,-1.451 1.62,-3.68 2.118,-6.081c0.915,-4.409 1.371,-9.368 2.173,-12.611Z"/></g><path d="M205.244,88.444c0,0 -19.894,-18.676 -25.984,-7.308c-6.09,11.368 25.984,7.308 25.984,7.308Z" style="fill:#61e0ee;stroke:#000;stroke-width:5.93px;"/><path d="M407.482,106.43c-0,0 23.532,13.813 26.957,1.379c3.424,-12.433 -26.957,-1.379 -26.957,-1.379Z" style="fill:#61e0ee;stroke:#000;stroke-width:5.93px;"/><path d="M156.522,111.334c-0,0 -26.466,-6.643 -26.258,6.252c0.207,12.895 26.258,-6.252 26.258,-6.252Z" style="fill:#61e0ee;stroke:#000;stroke-width:5.93px;"/><path d="M114.001,175.194c0,-0 -24.829,11.317 -16.623,21.266c8.206,9.949 16.623,-21.266 16.623,-21.266Z" style="fill:#61e0ee;stroke:#000;stroke-width:5.93px;"/><path d="M447.789,140.091c-0,-0 15.639,22.36 23.932,12.483c8.292,-9.877 -23.932,-12.483 -23.932,-12.483Z" style="fill:#61e0ee;stroke:#000;stroke-width:5.93px;"/><path d="M483.561,490.891l-69.769,-0c-0,-0 -48.42,1.174 -42.62,6.701c5.799,5.528 29.144,1.985 24.197,8.894c-4.947,6.91 85.619,2.422 96.249,-0.415c23.393,-6.243 1.496,-15.18 -8.057,-15.18Z" style="fill:#61e0ee;stroke:#000;stroke-width:2.97px;"/></g></svg>