<?xml version="1.0" encoding="UTF-8" standalone="no"?><!DOCTYPE svg PUBLIC "-//W3C//DTD SVG 1.1//EN" "http://www.w3.org/Graphics/SVG/1.1/DTD/svg11.dtd"><svg width="100%" height="100%" viewBox="0 0 600 600" version="1.1" xmlns="http://www.w3.org/2000/svg" xmlns:xlink="http://www.w3.org/1999/xlink" xml:space="preserve" xmlns:serif="http://www.serif.com/" style="fill-rule:evenodd;clip-rule:evenodd;stroke-linecap:round;stroke-linejoin:round;stroke-miterlimit:1.5;"><rect id="_75" serif:id="75" x="0" y="0" width="600" height="600" style="fill:none;"/><g><g><g><path d="M145.834,257.44c0,0 18.833,27.578 38.966,26.979c20.133,-0.6 23.645,-17.671 9.233,-23.037c-14.412,-5.366 -27.494,-11.658 -31.961,-23.167c-4.467,-11.509 -28.29,1.939 -16.238,19.225Z" style="fill:#d6c295;stroke:#000;stroke-width:6.73px;"/><path d="M257.161,75.324c-0,0 14.34,-17.441 23.239,21.736" style="fill:none;stroke:#61e0ee;stroke-width:6.73px;"/><path d="M310.78,67.273c-0,0 -16.143,-14.44 -18.187,26.887" style="fill:none;stroke:#61e0ee;stroke-width:6.73px;"/><path d="M269.052,57.263c0,0 16.682,-12.533 16.928,32.932" style="fill:none;stroke:#61e0ee;stroke-width:6.73px;"/><path d="M193.645,447.709c0,0 9.549,-32 28.91,-37.555c19.361,-5.555 27.9,9.639 15.804,19.135c-12.096,9.496 -22.643,19.471 -23.397,31.793c-0.753,12.323 -27.538,6.761 -21.317,-13.373Z" style="fill:#d6c295;stroke:#000;stroke-width:6.73px;"/><path d="M446.759,415.876c-0,0 -24.779,-22.387 -44.21,-17.078c-19.43,5.308 -18.836,22.727 -3.568,24.56c15.269,1.833 29.463,4.879 36.506,15.018c7.044,10.139 27.045,-8.525 11.272,-22.5Z" style="fill:#d6c295;stroke:#000;stroke-width:6.73px;"/><path d="M401.2,164.92c0.329,-3.721 7.415,-9.919 10.441,-11.432c36.82,-18.41 26.853,26.206 4.59,26.185" style="fill:#61e0ee;"/><path d="M405.667,165.316c-0.218,2.465 -2.397,4.289 -4.862,4.071c-2.466,-0.218 -4.29,-2.397 -4.072,-4.862c0.156,-1.76 1.091,-3.955 2.703,-6.114c2.817,-3.768 7.7,-7.684 10.2,-8.934c13.491,-6.746 21.942,-5.476 26.285,-1.915c4.575,3.751 5.833,10.71 3.574,17.846c-2.986,9.434 -11.904,18.76 -23.268,18.749c-2.475,-0.003 -4.482,-2.014 -4.48,-4.489c0.003,-2.475 2.014,-4.482 4.489,-4.48c7.338,0.008 12.781,-6.395 14.709,-12.487c0.6,-1.896 0.862,-3.78 0.624,-5.443c-0.158,-1.102 -0.528,-2.1 -1.334,-2.761c-1.047,-0.858 -2.621,-1.103 -4.702,-0.933c-3.111,0.254 -7.024,1.504 -11.886,3.935c-1.496,0.748 -4.154,2.933 -6.132,5.185c-0.601,0.683 -1.137,1.371 -1.527,2.035c-0.133,0.227 -0.304,0.405 -0.321,0.597Z"/><path d="M193.05,152.146c-3.388,1.575 -7.317,-0.333 -10.14,-2.197c-34.353,-22.682 9.167,-36.181 20.28,-16.89" style="fill:#61e0ee;"/><path d="M191.159,148.08c2.244,-1.044 4.913,-0.07 5.957,2.175c1.044,2.244 0.069,4.913 -2.175,5.957c-4.806,2.235 -10.496,0.124 -14.502,-2.521c-12.586,-8.31 -15.721,-16.245 -14.825,-21.758c0.947,-5.826 6.336,-10.377 13.645,-11.96c9.635,-2.086 22.146,1.004 27.816,10.847c1.236,2.145 0.498,4.889 -1.647,6.124c-2.145,1.236 -4.889,0.498 -6.124,-1.647c-3.665,-6.362 -11.92,-7.907 -18.147,-6.559c-1.932,0.419 -3.684,1.121 -4.996,2.147c-0.861,0.674 -1.53,1.476 -1.694,2.486c-0.216,1.327 0.364,2.803 1.551,4.512c1.78,2.564 4.823,5.327 9.363,8.324c1.062,0.702 2.319,1.439 3.643,1.825c0.711,0.208 1.45,0.366 2.135,0.048Z"/><path d="M215.565,416.911c-0,-0 -19.399,-31.823 -18.403,-60.478c3.115,-89.706 -24.409,-105.138 -18.352,-160.177c2.103,-19.111 7.168,-41.084 17.408,-57.561c22.504,-36.21 69.462,-57.736 112.118,-52.924c17.08,1.926 32.839,8.043 48.497,14.875c54.473,23.769 69.865,81.605 66.874,131.58c-1.324,22.124 -17.519,57.693 -13.074,79.434c9.265,45.319 9.567,70.212 -2.447,100.831c-10.24,26.097 -56.17,48.701 -108.396,47.304c-8.898,-0.238 -62.434,-5.426 -84.225,-42.884Z" style="fill:#61e0ee;"/><clipPath id="_clip1"><path d="M215.565,416.911c-0,-0 -19.399,-31.823 -18.403,-60.478c3.115,-89.706 -24.409,-105.138 -18.352,-160.177c2.103,-19.111 7.168,-41.084 17.408,-57.561c22.504,-36.21 69.462,-57.736 112.118,-52.924c17.08,1.926 32.839,8.043 48.497,14.875c54.473,23.769 69.865,81.605 66.874,131.58c-1.324,22.124 -17.519,57.693 -13.074,79.434c9.265,45.319 9.567,70.212 -2.447,100.831c-10.24,26.097 -56.17,48.701 -108.396,47.304c-8.898,-0.238 -62.434,-5.426 -84.225,-42.884Z"/></clipPath><g clip-path="url(#_clip1)"><path d="M380.887,120.459c-0,0 19.589,21.541 17.509,57.508c-3.125,54.028 -26.482,44.29 -17.54,140.4c4.458,47.911 9.548,76.624 -9.351,107.128c-18.357,29.627 -77.03,34.106 -92.187,31.011c-15.158,-3.095 59.652,10.751 100.298,-9.431c40.646,-20.181 41.095,-91.828 32.159,-135.897c-8.936,-44.07 25.68,-59.524 7.907,-135.309c-22.528,-43.449 -22.756,-40.873 -38.795,-55.41Z" style="fill:#4fcbe0;"/><path d="M315.969,191.618c-0,-0 7.212,25.634 38.12,21.726c30.909,-3.909 30.639,-35.752 30.639,-35.752l-68.759,14.026Z" style="fill:#4fcbe0;"/><path d="M182.251,188.604c0,0 7.212,25.635 38.121,21.726c30.908,-3.908 30.638,-35.752 30.638,-35.752l-68.759,14.026Z" style="fill:#4fcbe0;"/></g><path d="M211.711,419.204l-0.009,-0.015c-0.914,-1.525 -20.033,-33.803 -19.022,-62.912c1.847,-53.186 -7.232,-79.946 -13.476,-104.596c-4.337,-17.116 -7.345,-33.256 -4.851,-55.916c2.172,-19.741 7.479,-42.416 18.056,-59.437c23.374,-37.609 72.125,-60.011 116.429,-55.013c17.53,1.977 33.718,8.209 49.788,15.221c56.363,24.593 72.652,84.249 69.557,135.958c-0.676,11.292 -5.096,26.025 -8.831,40.699c-3.475,13.654 -6.437,27.243 -4.326,37.568c9.498,46.462 9.651,71.978 -2.666,103.368c-4.399,11.212 -14.796,21.954 -29.441,30.556c-21.061,12.37 -50.982,20.456 -83.249,19.593c-5.534,-0.148 -27.729,-2.123 -49.474,-12.081c-14.764,-6.762 -29.275,-17.185 -38.485,-32.993Zm7.73,-4.548c8.224,14.137 21.292,23.343 34.489,29.387c20.214,9.257 40.836,11.132 45.98,11.27c30.404,0.813 58.621,-6.706 78.467,-18.362c12.626,-7.415 21.842,-16.432 25.634,-26.098c11.712,-29.847 11.26,-54.117 2.228,-98.295c-1.885,-9.222 -0.389,-20.799 2.319,-32.862c3.776,-16.816 9.89,-34.656 10.673,-47.738c2.887,-48.242 -11.607,-104.257 -64.192,-127.202c-15.245,-6.653 -30.575,-12.654 -47.206,-14.529c-41.008,-4.626 -86.172,16.024 -107.806,50.835c-9.902,15.933 -14.726,37.204 -16.76,55.684c-2.955,26.858 2.358,44.042 7.955,65.465c5.813,22.255 12.001,48.904 10.421,94.378c-0.954,27.489 17.751,57.988 17.751,57.988c0.015,0.026 0.031,0.053 0.047,0.079Z"/><path d="M342.923,435.265c-86.905,27.412 -106.36,-23.022 -110.266,-34.008c-7.357,-20.695 -13.289,-61.451 -9.819,-83.634c1.205,-7.703 3.92,-16.579 9.193,-23.285c11.587,-14.739 68.054,-20.292 89.447,-18.688c8.565,0.642 16.435,2.979 24.248,5.606c27.182,9.136 46.475,138.466 -2.803,154.009Z" style="fill:#b7f8ff;"/><path d="M195.084,215.636c2.038,-0.157 3.82,1.37 3.977,3.408c0.157,2.038 -1.37,3.82 -3.408,3.977c-2.038,0.157 -3.82,-1.37 -3.977,-3.408c-0.157,-2.038 1.37,-3.82 3.408,-3.977Z" style="fill:#b7f8ff;"/><path d="M378.914,208.223c2.038,-0.157 3.82,1.37 3.977,3.408c0.157,2.038 -1.37,3.82 -3.408,3.977c-2.038,0.157 -3.82,-1.37 -3.977,-3.408c-0.157,-2.038 1.37,-3.82 3.408,-3.977Z" style="fill:#b7f8ff;"/><g><path d="M352.331,241.943c-6.863,-29.761 -41.398,-26.175 -65.942,-13.515c-24.545,12.661 -33.534,-15.423 -52.099,-7.193c-18.566,8.23 4.788,60.465 44.065,68.102c39.277,7.637 80.264,-20.124 73.976,-47.394Z"/><g><path d="M265.17,236.708c1.369,5.404 1.787,15.595 4.983,20.023c1.549,2.146 4.937,2.21 7.145,2.254c12.681,0.247 12.324,-12.737 14.066,-24.053" style="fill:#ededed;"/><path d="M261.91,237.533c-0.456,-1.799 0.635,-3.63 2.435,-4.086c1.799,-0.455 3.63,0.636 4.086,2.435c0.829,3.275 1.319,8.288 2.271,12.742c0.518,2.425 1.123,4.677 2.178,6.138c0.293,0.406 0.823,0.49 1.321,0.6c1.09,0.24 2.249,0.242 3.162,0.26c2.244,0.044 3.936,-0.409 5.194,-1.371c1.29,-0.987 2.1,-2.444 2.722,-4.124c1.644,-4.442 1.925,-10.279 2.761,-15.707c0.282,-1.834 2.001,-3.094 3.835,-2.812c1.835,0.282 3.095,2.001 2.813,3.836c-0.907,5.888 -1.318,12.2 -3.101,17.018c-1.092,2.95 -2.679,5.399 -4.943,7.131c-2.297,1.757 -5.315,2.834 -9.412,2.754c-1.602,-0.031 -3.713,-0.116 -5.554,-0.705c-1.711,-0.546 -3.208,-1.496 -4.252,-2.943c-1.502,-2.081 -2.564,-5.215 -3.302,-8.67c-0.933,-4.367 -1.401,-9.285 -2.214,-12.496Z"/><path d="M275.732,195.503c10.278,-0.159 18.704,5.017 18.805,11.551c0.101,6.534 -8.162,11.967 -18.439,12.126c-10.278,0.159 -18.704,-5.017 -18.805,-11.551c-0.101,-6.534 8.162,-11.967 18.439,-12.126Z"/><path d="M272.109,215.865c-0.111,-1.853 1.303,-3.447 3.155,-3.559c1.853,-0.111 3.448,1.303 3.559,3.156c0.341,5.693 -0.195,11.225 -0.186,16.891c0.002,1.856 -1.502,3.366 -3.358,3.369c-1.857,0.003 -3.366,-1.502 -3.369,-3.358c-0.009,-5.535 0.532,-10.938 0.199,-16.499Z"/><path d="M230.568,111.848c3.805,-1.48 7.517,-1.081 8.285,0.892c0.768,1.973 -1.698,4.777 -5.503,6.257c-3.805,1.481 -7.517,1.081 -8.285,-0.892c-0.767,-1.972 1.698,-4.776 5.503,-6.257Z" style="fill:#b7f8ff;"/><path d="M374.019,118.156c2.858,2.916 3.951,6.486 2.439,7.968c-1.512,1.482 -5.059,0.318 -7.917,-2.598c-2.858,-2.915 -3.951,-6.485 -2.44,-7.967c1.512,-1.482 5.06,-0.318 7.918,2.597Z" style="fill:#b7f8ff;"/><path d="M205.248,127.404c20.527,-4.555 40.89,8.413 45.444,28.941c4.555,20.527 -8.413,40.89 -28.941,45.444c-20.527,4.555 -40.89,-8.413 -45.444,-28.941c-4.555,-20.527 8.413,-40.89 28.941,-45.444Z" style="fill:#fff;stroke:#000;stroke-width:6.73px;"/><path d="M238.963,178.081c-6.161,4.219 -14.59,2.643 -18.81,-3.519c-4.22,-6.162 -2.643,-14.591 3.519,-18.811c6.162,-4.22 14.59,-2.643 18.81,3.519c4.22,6.162 2.643,14.591 -3.519,18.811Z"/><path d="M228.338,169.838c-1.73,1.185 -4.096,0.742 -5.281,-0.988c-1.185,-1.73 -0.742,-4.096 0.988,-5.281c1.73,-1.185 4.097,-0.742 5.281,0.988c1.185,1.73 0.743,4.096 -0.988,5.281Z" style="fill:#fff;"/><path d="M339.982,128.215c20.527,-4.554 40.89,8.414 45.444,28.941c4.555,20.527 -8.413,40.89 -28.941,45.445c-20.527,4.554 -40.89,-8.414 -45.444,-28.941c-4.555,-20.527 8.413,-40.89 28.941,-45.445Z" style="fill:#fff;stroke:#000;stroke-width:6.73px;"/><path d="M337.634,180.157c-6.162,4.22 -14.591,2.643 -18.811,-3.519c-4.22,-6.162 -2.643,-14.59 3.519,-18.81c6.162,-4.22 14.59,-2.643 18.81,3.519c4.22,6.162 2.643,14.59 -3.518,18.81Z"/><path d="M327.485,172.879c-1.73,1.185 -4.096,0.743 -5.281,-0.987c-1.185,-1.731 -0.742,-4.097 0.988,-5.282c1.73,-1.185 4.096,-0.742 5.281,0.988c1.185,1.73 0.742,4.097 -0.988,5.281Z" style="fill:#fff;"/></g></g><path d="M455.557,256.637c0,0 -13.07,30.731 -32.931,34.084c-19.861,3.352 -26.646,-12.701 -13.563,-20.784c13.082,-8.083 24.68,-16.814 26.808,-28.975c2.128,-12.16 28.122,-3.636 19.686,15.675Z" style="fill:#d6c295;stroke:#000;stroke-width:6.73px;"/></g></g><path d="M309.166,282.665c-0,0 15.771,-9.68 29.501,-11.347c17.479,9.861 18.385,8.118 32.807,7.017c14.422,-1.102 25.165,20.758 12.268,28.299c-12.898,7.541 -58.268,6.671 -74.576,-23.969Z" style="fill:#ff8079;stroke:#000;stroke-width:5.93px;"/><path d="M323.317,275.634c-0,-0 6.425,15.834 33.134,18.956" style="fill:none;stroke:#000;stroke-width:5.93px;"/><ellipse cx="321.182" cy="529.551" rx="66.961" ry="7.9"/></g></svg>