<?xml version="1.0" encoding="UTF-8" standalone="no"?><!DOCTYPE svg PUBLIC "-//W3C//DTD SVG 1.1//EN" "http://www.w3.org/Graphics/SVG/1.1/DTD/svg11.dtd"><svg width="100%" height="100%" viewBox="0 0 600 600" version="1.1" xmlns="http://www.w3.org/2000/svg" xmlns:xlink="http://www.w3.org/1999/xlink" xml:space="preserve" xmlns:serif="http://www.serif.com/" style="fill-rule:evenodd;clip-rule:evenodd;stroke-linecap:round;stroke-linejoin:round;stroke-miterlimit:1.5;"><rect id="_76" serif:id="76" x="0" y="0" width="600" height="600" style="fill:none;"/><g><g><path d="M390.753,287.751c0.612,-3.67 8.121,-9.282 11.241,-10.553c37.966,-15.462 24.658,28.074 2.555,26.349" style="fill:#61e0ee;"/><path d="M395.158,288.485c-0.405,2.431 -2.708,4.076 -5.139,3.671c-2.431,-0.406 -4.076,-2.708 -3.671,-5.139c0.29,-1.736 1.385,-3.844 3.152,-5.864c3.084,-3.526 8.233,-7.041 10.81,-8.09c13.911,-5.666 22.205,-3.759 26.244,0.108c4.256,4.074 4.973,11.08 2.184,17.992c-3.686,9.139 -13.253,17.717 -24.536,16.836c-2.457,-0.191 -4.296,-2.342 -4.105,-4.799c0.192,-2.457 2.343,-4.296 4.8,-4.104c7.285,0.568 13.179,-5.373 15.559,-11.274c0.741,-1.837 1.145,-3.687 1.036,-5.357c-0.073,-1.106 -0.364,-2.125 -1.114,-2.843c-0.973,-0.932 -2.518,-1.296 -4.596,-1.286c-3.109,0.014 -7.09,0.956 -12.103,2.998c-1.542,0.628 -4.348,2.595 -6.485,4.679c-0.648,0.633 -1.233,1.275 -1.671,1.904c-0.15,0.215 -0.334,0.379 -0.365,0.568Z"/><path d="M137.671,411.518c-0,0 23.701,23.327 43.258,18.872c19.557,-4.455 19.707,-21.81 4.594,-24.283c-15.113,-2.473 -29.105,-6.108 -35.681,-16.494c-6.577,-10.387 -27.27,7.331 -12.171,21.905Z" style="fill:#d6c295;stroke:#000;stroke-width:6.7px;"/><path d="M254.592,187.777c-0,0 15.572,-16.221 21.411,23.358" style="fill:none;stroke:#61e0ee;stroke-width:6.7px;"/><path d="M308.445,183.884c-0,0 -14.923,-15.572 -20.114,25.304" style="fill:none;stroke:#61e0ee;stroke-width:6.7px;"/><path d="M267.78,170.754c-0,0 17.521,-11.169 14.289,33.992" style="fill:none;stroke:#61e0ee;stroke-width:6.7px;"/><path d="M215.275,571.052c-0,0 1.815,-33.205 19.274,-43.08c17.459,-9.875 29.256,2.855 19.748,14.859c-9.508,12.005 -17.406,24.114 -15.274,36.221c2.132,12.108 -25.097,12.942 -23.748,-8Z" style="fill:#d6c295;stroke:#000;stroke-width:6.7px;"/><path d="M365.486,574.914c0,0 -17.576,-28.23 -8.95,-46.339c8.626,-18.108 25.594,-14.458 24.7,0.83c-0.893,15.288 -0.408,29.736 8.288,38.426c8.697,8.69 -13.12,25.005 -24.038,7.083Z" style="fill:#d6c295;stroke:#000;stroke-width:6.7px;"/><path d="M185.062,259.148c-3.484,1.306 -7.239,-0.889 -9.9,-2.956c-32.373,-25.148 11.87,-35.222 21.428,-15.219" style="fill:#61e0ee;"/><path d="M183.496,254.967c2.308,-0.865 4.883,0.307 5.748,2.615c0.865,2.308 -0.307,4.883 -2.615,5.748c-4.943,1.852 -10.431,-0.679 -14.206,-3.612c-11.861,-9.213 -14.366,-17.332 -13.055,-22.737c1.385,-5.712 7.084,-9.818 14.462,-10.831c9.726,-1.334 21.912,2.69 26.789,12.898c1.062,2.223 0.12,4.891 -2.104,5.954c-2.224,1.063 -4.892,0.12 -5.955,-2.104c-3.152,-6.597 -11.23,-8.762 -17.516,-7.9c-1.95,0.268 -3.743,0.831 -5.124,1.75c-0.907,0.603 -1.633,1.348 -1.873,2.339c-0.315,1.3 0.147,2.81 1.196,4.598c1.571,2.681 4.381,5.657 8.659,8.98c1.001,0.778 2.193,1.607 3.478,2.092c0.689,0.26 1.412,0.473 2.116,0.21Z"/><path d="M187.168,523.75c0,0 -16.826,-33.08 -13.646,-61.455c9.953,-88.828 -16.194,-106.255 -5.971,-160.44c3.549,-18.814 10.258,-40.243 21.685,-55.819c25.114,-34.231 73.383,-52.013 115.367,-43.973c16.811,3.219 31.991,10.497 47.014,18.478c52.268,27.766 63.127,86.367 56.335,135.758c-3.006,21.865 -21.806,55.941 -19.055,77.867c5.733,45.706 4.129,70.445 -10.141,99.927c-12.163,25.127 -59.495,44.058 -111.242,38.677c-8.817,-0.916 -61.575,-10.162 -80.346,-49.02Z" style="fill:#61e0ee;"/><clipPath id="_clip1"><path d="M187.168,523.75c0,0 -16.826,-33.08 -13.646,-61.455c9.953,-88.828 -16.194,-106.255 -5.971,-160.44c3.549,-18.814 10.258,-40.243 21.685,-55.819c25.114,-34.231 73.383,-52.013 115.367,-43.973c16.811,3.219 31.991,10.497 47.014,18.478c52.268,27.766 63.127,86.367 56.335,135.758c-3.006,21.865 -21.806,55.941 -19.055,77.867c5.733,45.706 4.129,70.445 -10.141,99.927c-12.163,25.127 -59.495,44.058 -111.242,38.677c-8.817,-0.916 -61.575,-10.162 -80.346,-49.02Z"/></clipPath><g clip-path="url(#_clip1)"><path d="M373.985,242.053c-0,-0 17.352,42.322 6.771,76.604c-10.58,34.282 -29.202,82.106 -26.24,129.931c2.963,47.825 -2.116,78.721 -12.697,92.264c-21.367,27.35 -79.567,31.319 -94.38,27.087c-14.813,-4.233 58.406,15.236 100.306,-1.693c41.899,-16.929 47.824,-88.032 42.322,-132.471c-5.501,-44.439 30.05,-57.136 18.199,-133.74c-19.045,-44.862 -19.468,-42.323 -34.281,-57.982Z" style="fill:#4fcbe0;"/><path d="M304.087,307.74c0,-0 5.201,26.003 36.188,24.486c30.987,-1.517 33.154,-33.154 33.154,-33.154l-69.342,8.668Z" style="fill:#4fcbe0;"/><path d="M171.552,294.522c0,-0 5.201,26.003 36.188,24.486c30.987,-1.517 33.154,-33.154 33.154,-33.154l-69.342,8.668Z" style="fill:#4fcbe0;"/></g><path d="M183.167,525.732l-0.008,-0.016c-0.79,-1.583 -17.305,-35.094 -14.075,-63.918c5.901,-52.666 -1.066,-79.93 -5.381,-104.882c-2.997,-17.326 -4.749,-33.581 -0.541,-55.889c3.667,-19.434 10.67,-41.542 22.474,-57.632c26.083,-35.554 76.2,-54.068 119.807,-45.718c17.254,3.304 32.85,10.729 48.269,18.92c54.081,28.729 65.692,89.206 58.664,140.31c-1.534,11.159 -7.05,25.45 -11.88,39.733c-4.495,13.291 -8.475,26.557 -7.169,36.971c5.878,46.856 4.078,72.202 -10.552,102.427c-5.225,10.796 -16.369,20.667 -31.568,28.087c-21.857,10.671 -52.184,16.411 -84.155,13.087c-5.483,-0.57 -27.369,-4.228 -48.198,-15.779c-14.141,-7.842 -27.752,-19.301 -35.687,-35.701Zm8.022,-3.924c7.085,14.665 19.356,24.805 31.997,31.815c19.361,10.737 39.693,14.176 44.79,14.706c30.125,3.132 58.717,-2.175 79.313,-12.23c13.103,-6.397 22.943,-14.645 27.447,-23.952c13.911,-28.739 15.318,-52.871 9.73,-97.425c-1.167,-9.3 1.203,-20.68 4.815,-32.45c5.035,-16.408 12.47,-33.653 14.248,-46.582c6.556,-47.678 -3.551,-104.403 -54.007,-131.206c-14.628,-7.771 -29.39,-14.901 -45.759,-18.035c-40.362,-7.729 -86.783,9.32 -110.926,42.229c-11.05,15.062 -17.466,35.812 -20.898,54.005c-4.989,26.44 -1.028,43.909 2.891,65.607c4.07,22.542 8.175,49.473 3.129,94.503c-3.05,27.22 13.189,58.933 13.189,58.933c0.014,0.027 0.028,0.054 0.041,0.082Z"/><path d="M273.628,554.462c-52.732,-9.187 -65.254,-33.741 -68.292,-44.948c-5.722,-21.11 -8.494,-62.029 -3.352,-83.789c1.785,-7.555 5.16,-16.161 10.907,-22.416c12.632,-13.747 69.122,-14.943 90.239,-11.714c8.456,1.292 16.091,4.215 23.647,7.42c26.29,11.151 35.333,140.119 -14.561,152.699c-13.325,3.359 -30.219,4.206 -38.588,2.748Z" style="fill:#b7f8ff;"/><circle cx="182.227" cy="326.03" r="3.688" style="fill:#b7f8ff;"/><circle cx="365.314" cy="332.729" r="3.688" style="fill:#b7f8ff;"/><g><path d="M249.866,346.919c1.672,5.294 2.674,15.402 6.105,19.62c1.664,2.044 5.035,1.914 7.233,1.829c12.621,-0.483 11.52,-13.371 12.6,-24.721" style="fill:#ededed;"/><path d="M246.673,347.927c-0.557,-1.762 0.422,-3.645 2.185,-4.202c1.763,-0.556 3.646,0.423 4.202,2.186c1.013,3.208 1.789,8.164 2.991,12.537c0.654,2.381 1.386,4.585 2.518,5.977c0.315,0.386 0.847,0.44 1.348,0.52c1.097,0.176 2.25,0.112 3.159,0.077c2.233,-0.086 3.889,-0.633 5.084,-1.662c1.226,-1.055 1.948,-2.551 2.469,-4.257c1.379,-4.51 1.323,-10.329 1.841,-15.773c0.176,-1.84 1.812,-3.192 3.652,-3.017c1.84,0.176 3.192,1.812 3.016,3.652c-0.562,5.906 -0.608,12.205 -2.103,17.097c-0.916,2.996 -2.353,5.521 -4.505,7.374c-2.182,1.878 -5.12,3.123 -9.198,3.279c-1.595,0.061 -3.698,0.098 -5.562,-0.381c-1.732,-0.445 -3.275,-1.303 -4.397,-2.682c-1.613,-1.982 -2.849,-5.037 -3.781,-8.429c-1.179,-4.288 -1.927,-9.15 -2.919,-12.296Z"/><path d="M263.504,307.603c10.217,0.628 18.187,6.412 17.787,12.907c-0.399,6.495 -9.018,11.258 -19.235,10.629c-10.216,-0.628 -18.187,-6.411 -17.787,-12.907c0.4,-6.495 9.018,-11.258 19.235,-10.629Z"/><path d="M258.349,327.543c0.031,-1.848 1.557,-3.323 3.405,-3.292c1.849,0.031 3.324,1.557 3.292,3.405c-0.096,5.679 -1.052,11.13 -1.477,16.757c-0.139,1.843 -1.748,3.227 -3.591,3.088c-1.843,-0.139 -3.227,-1.749 -3.088,-3.592c0.415,-5.496 1.365,-10.819 1.459,-16.366Z"/><path d="M234.799,343.32c-1.607,-0.914 -2.17,-2.96 -1.257,-4.567c0.914,-1.607 2.96,-2.17 4.567,-1.256c9.114,5.181 17.849,7.254 26.149,6.061c8.3,-1.194 16.107,-5.646 23.408,-13.213c1.283,-1.33 3.405,-1.368 4.735,-0.085c1.33,1.284 1.368,3.406 0.085,4.736c-8.48,8.789 -17.634,13.806 -27.275,15.192c-9.641,1.386 -19.826,-0.85 -30.412,-6.868Z"/><path d="M225.059,221.09c3.891,-1.179 7.546,-0.498 8.158,1.519c0.611,2.018 -2.052,4.613 -5.943,5.792c-3.89,1.179 -7.546,0.498 -8.157,-1.519c-0.611,-2.018 2.051,-4.613 5.942,-5.792Z" style="fill:#b7f8ff;"/><path d="M367.006,238.324c2.614,3.113 3.427,6.741 1.812,8.097c-1.614,1.356 -5.047,-0.071 -7.662,-3.184c-2.615,-3.114 -3.427,-6.742 -1.812,-8.098c1.614,-1.356 5.047,0.071 7.662,3.185Z" style="fill:#b7f8ff;"/><path d="M198.729,234.598c20.73,-2.952 39.956,11.481 42.908,32.21c2.952,20.73 -11.481,39.956 -32.21,42.908c-20.73,2.952 -39.956,-11.481 -42.908,-32.21c-2.952,-20.729 11.481,-39.956 32.21,-42.908Z" style="fill:#fff;stroke:#000;stroke-width:6.7px;"/><path d="M332.442,245.708c20.729,-2.952 39.955,11.481 42.907,32.21c2.953,20.73 -11.48,39.956 -32.21,42.908c-20.729,2.952 -39.955,-11.481 -42.907,-32.21c-2.953,-20.73 11.48,-39.956 32.21,-42.908Z" style="fill:#fff;stroke:#000;stroke-width:6.7px;"/><path d="M206.641,266.793c7.363,-1.049 14.192,4.078 15.24,11.441c1.049,7.362 -4.078,14.191 -11.441,15.24c-7.362,1.048 -14.191,-4.078 -15.24,-11.441c-1.049,-7.363 4.078,-14.192 11.441,-15.24Z"/><path d="M338.499,276.281c7.363,-1.049 14.192,4.078 15.24,11.441c1.049,7.363 -4.077,14.192 -11.44,15.24c-7.363,1.049 -14.192,-4.078 -15.241,-11.441c-1.048,-7.362 4.078,-14.191 11.441,-15.24Z"/><path d="M205.523,272.409c2.068,-0.295 3.985,1.145 4.279,3.212c0.295,2.067 -1.145,3.985 -3.212,4.279c-2.067,0.294 -3.985,-1.145 -4.279,-3.212c-0.294,-2.067 1.145,-3.985 3.212,-4.279Z" style="fill:#fff;"/><path d="M337.382,281.897c2.067,-0.294 3.984,1.145 4.279,3.212c0.294,2.067 -1.145,3.985 -3.213,4.279c-2.067,0.295 -3.984,-1.145 -4.279,-3.212c-0.294,-2.067 1.145,-3.985 3.213,-4.279Z" style="fill:#fff;"/></g><path d="M343.964,453.946c0,-0 16.914,-28.633 36.959,-29.35c20.046,-0.718 24.649,16.016 10.678,22.288c-13.971,6.272 -26.56,13.379 -30.248,25.106c-3.687,11.728 -28.237,-0.081 -17.389,-18.044Z" style="fill:#d6c295;stroke:#000;stroke-width:6.7px;"/></g><path d="M274.634,398.203c-0,0 -67.176,4.428 -96.862,-36.966c-13.789,-19.226 -6.603,-37.542 -5.876,-66.408c-17.572,-40.713 16.893,-63.236 30.065,-59.888c53.489,-53.49 140.474,-24.409 170.416,3.503c29.942,27.912 44.355,96.932 25.578,137.024c-22.388,47.801 -123.321,22.735 -123.321,22.735c-0,0 5.887,7.511 40.396,14.616c34.51,7.105 59.884,2.537 93.379,-11.165c33.495,-13.702 29.638,-50.546 29.638,-50.546c-0,-0 36.844,13.601 41.411,-1.117c4.568,-14.717 -35.321,-19.69 -35.321,-19.69l0.507,-19.793c0,0 36.235,1.929 36.743,-13.296c0.507,-15.225 -37.758,-14.108 -37.758,-14.108l-3.045,-18.778c0,0 42.731,-4.06 37.656,-19.284c-5.075,-15.225 -41.208,-4.06 -41.208,-4.06l-8.628,-19.285c0,-0 50.445,-6.699 40.295,-26.491c-10.15,-19.792 -49.024,3.958 -49.024,3.958l-28.318,-19.589l16.748,-26.897c-0,-0 44.954,24.939 77.91,-19.752c26.796,-36.336 -15.489,-78.194 -15.489,-78.194l-26.755,15.59l6.557,-31.12c0,0 -76.034,-13.539 -84.244,43.543c-6.048,42.047 27.303,61.813 27.303,61.813l-21.01,28.42c0,-0 -74.906,-17.255 -127.685,-9.135c-4.06,-12.688 -7.105,-25.172 -7.105,-25.172c-0,0 48.212,-4.263 52.779,-34.205c4.568,-29.942 -27.454,-69.576 -53.336,-74.143c-7.115,13.568 -12.339,27.924 -12.339,27.924l-16.317,-24.406c-0,-0 -47.419,18.353 -38.791,63.013c8.627,44.659 51.256,42.629 51.256,42.629l10.658,27.405c-0,-0 -29.435,7.612 -40.092,16.747c-20.706,-27.303 -38.023,-22.456 -39.788,-13.905c-2.639,12.788 21.518,27.607 21.518,27.607l-14.21,18.778c0,-0 -38.163,-23.548 -40.701,-8.323c-2.537,15.224 25.476,28.622 25.476,28.622l-6.089,17.763c-0,-0 -32.886,-7.41 -34.409,7.815c-1.522,15.225 32.379,17.559 32.379,17.559l-0.508,22.33c0,-0 -32.074,-2.03 -32.581,13.195c-0.508,15.225 32.074,16.24 32.074,16.24c-0,-0 -1.523,37.047 48.211,59.884c49.735,22.837 81.2,12.586 91.857,7.003Z" style="fill:#fd776c;stroke:#000;stroke-width:5.93px;"/><path d="M279.191,148.215c7.363,-1.048 14.192,4.078 15.24,11.441c1.049,7.363 -4.078,14.192 -11.44,15.241c-7.363,1.048 -14.192,-4.078 -15.241,-11.441c-1.048,-7.363 4.078,-14.192 11.441,-15.241Z"/><path d="M322.843,152.996c7.363,-1.048 14.192,4.078 15.241,11.441c1.048,7.363 -4.078,14.192 -11.441,15.241c-7.363,1.048 -14.192,-4.078 -15.24,-11.441c-1.049,-7.363 4.078,-14.192 11.44,-15.241Z"/><path d="M278.073,153.831c2.068,-0.294 3.985,1.145 4.28,3.213c0.294,2.067 -1.145,3.984 -3.213,4.279c-2.067,0.294 -3.984,-1.145 -4.279,-3.213c-0.294,-2.067 1.145,-3.984 3.212,-4.279Z" style="fill:#fff;"/><path d="M321.726,158.612c2.067,-0.294 3.985,1.145 4.279,3.213c0.294,2.067 -1.145,3.984 -3.212,4.279c-2.067,0.294 -3.985,-1.145 -4.279,-3.213c-0.295,-2.067 1.145,-3.984 3.212,-4.279Z" style="fill:#fff;"/></g></svg>