<?xml version="1.0" encoding="UTF-8" standalone="no"?><!DOCTYPE svg PUBLIC "-//W3C//DTD SVG 1.1//EN" "http://www.w3.org/Graphics/SVG/1.1/DTD/svg11.dtd"><svg width="100%" height="100%" viewBox="0 0 600 600" version="1.1" xmlns="http://www.w3.org/2000/svg" xmlns:xlink="http://www.w3.org/1999/xlink" xml:space="preserve" xmlns:serif="http://www.serif.com/" style="fill-rule:evenodd;clip-rule:evenodd;stroke-linecap:round;stroke-linejoin:round;stroke-miterlimit:1.5;"><rect id="_77" serif:id="77" x="0" y="0" width="600" height="600" style="fill:none;"/><g><ellipse cx="291.096" cy="528.972" rx="127.353" ry="36.176"/><g><path d="M199.077,155.422c-0.68,-4.08 -9.029,-10.319 -12.498,-11.732c-42.209,-17.191 -27.414,31.211 -2.841,29.295" style="fill:#61e0ee;"/><path d="M203.974,154.606c0.45,2.703 -1.378,5.263 -4.081,5.713c-2.703,0.451 -5.263,-1.378 -5.713,-4.081c-0.035,-0.209 -0.239,-0.392 -0.406,-0.632c-0.487,-0.699 -1.137,-1.413 -1.858,-2.116c-2.376,-2.317 -5.495,-4.504 -7.21,-5.202c-5.574,-2.27 -10,-3.317 -13.456,-3.333c-2.31,-0.011 -4.028,0.394 -5.11,1.43c-0.833,0.798 -1.157,1.931 -1.238,3.161c-0.122,1.856 0.328,3.913 1.152,5.955c2.646,6.561 9.199,13.166 17.298,12.534c2.732,-0.213 5.123,1.832 5.336,4.563c0.213,2.732 -1.832,5.123 -4.564,5.336c-12.543,0.979 -23.18,-8.558 -27.278,-18.718c-3.1,-7.685 -2.304,-15.474 2.428,-20.004c4.491,-4.299 13.711,-6.419 29.178,-0.12c2.865,1.167 8.589,5.075 12.018,8.995c1.964,2.246 3.182,4.589 3.504,6.519Z"/><path d="M319.037,116.802c-0,0 -17.313,-18.034 -23.805,25.969" style="fill:none;stroke:#61e0ee;stroke-width:7.45px;"/><path d="M259.164,112.474c0,0 16.591,-17.312 22.362,28.133" style="fill:none;stroke:#61e0ee;stroke-width:7.45px;"/><path d="M304.374,97.876c0,0 -19.479,-12.417 -15.886,37.792" style="fill:none;stroke:#61e0ee;stroke-width:7.45px;"/><path d="M389.17,176.353c3.874,1.452 8.048,-0.989 11.006,-3.287c35.993,-27.958 -13.196,-39.159 -23.822,-16.92" style="fill:#61e0ee;"/><path d="M387.428,181.002c-2.566,-0.961 -3.869,-3.824 -2.907,-6.39c0.961,-2.566 3.825,-3.869 6.391,-2.908c0.782,0.293 1.585,0.056 2.352,-0.233c1.429,-0.539 2.753,-1.46 3.867,-2.325c4.756,-3.695 7.88,-7.003 9.627,-9.984c1.165,-1.988 1.68,-3.667 1.329,-5.113c-0.267,-1.101 -1.074,-1.93 -2.082,-2.6c-1.536,-1.021 -3.529,-1.647 -5.698,-1.945c-6.988,-0.959 -15.969,1.449 -19.473,8.783c-1.182,2.472 -4.148,3.52 -6.62,2.339c-2.473,-1.181 -3.521,-4.148 -2.339,-6.62c5.422,-11.348 18.969,-15.823 29.782,-14.339c8.204,1.126 14.539,5.691 16.079,12.041c1.458,6.01 -1.328,15.036 -14.514,25.279c-4.197,3.26 -10.298,6.074 -15.794,4.015Z"/><path d="M393.996,490.329c0,-0 18.707,-36.778 15.172,-68.324c-11.066,-98.757 18.004,-118.133 6.639,-178.373c-3.947,-20.918 -11.406,-44.741 -24.11,-62.059c-27.92,-38.057 -81.585,-57.826 -128.262,-48.888c-18.69,3.579 -35.566,11.67 -52.269,20.543c-58.11,30.869 -70.183,96.021 -62.632,150.932c3.343,24.31 24.243,62.195 21.186,86.572c-6.374,50.814 -4.591,78.318 11.274,111.096c13.522,27.936 66.145,48.982 123.676,43c9.802,-1.019 68.457,-11.298 89.326,-54.499Z" style="fill:#61e0ee;"/><clipPath id="_clip1"><path d="M393.996,490.329c0,-0 18.707,-36.778 15.172,-68.324c-11.066,-98.757 18.004,-118.133 6.639,-178.373c-3.947,-20.918 -11.406,-44.741 -24.11,-62.059c-27.92,-38.057 -81.585,-57.826 -128.262,-48.888c-18.69,3.579 -35.566,11.67 -52.269,20.543c-58.11,30.869 -70.183,96.021 -62.632,150.932c3.343,24.31 24.243,62.195 21.186,86.572c-6.374,50.814 -4.591,78.318 11.274,111.096c13.522,27.936 66.145,48.982 123.676,43c9.802,-1.019 68.457,-11.298 89.326,-54.499Z"/></clipPath><g clip-path="url(#_clip1)"><path d="M186.298,177.144c0,0 -19.292,47.054 -7.528,85.167c11.763,38.114 32.467,91.284 29.173,144.455c-3.294,53.17 2.353,87.519 14.116,102.576c23.756,30.408 88.461,34.82 104.929,30.115c16.469,-4.706 -64.934,16.939 -111.517,-1.882c-46.583,-18.822 -53.17,-97.872 -47.053,-147.278c6.117,-49.406 -33.408,-63.522 -20.233,-148.689c21.174,-49.877 21.644,-47.054 38.113,-64.464Z" style="fill:#4fcbe0;"/><path d="M261.292,225.84c-0,0 -5.782,28.91 -40.233,27.224c-34.45,-1.687 -36.86,-36.86 -36.86,-36.86l77.093,9.636Z" style="fill:#4fcbe0;"/><path d="M393.639,225.202c0,-0 -5.782,28.909 -40.232,27.223c-34.451,-1.687 -36.86,-36.86 -36.86,-36.86l77.092,9.637Z" style="fill:#4fcbe0;"/></g><path d="M398.46,492.503l-0.01,0.019c-8.821,18.238 -23.956,30.981 -39.681,39.702c-23.157,12.842 -47.49,16.909 -53.586,17.542c-35.544,3.696 -69.26,-2.686 -93.561,-14.55c-16.897,-8.249 -29.288,-19.224 -35.097,-31.225c-16.264,-33.604 -18.266,-61.783 -11.731,-113.877c1.452,-11.577 -2.973,-26.326 -7.97,-41.103c-5.37,-15.88 -11.502,-31.767 -13.209,-44.174c-7.813,-56.816 5.097,-124.053 65.222,-155.993c17.142,-9.107 34.482,-17.362 53.664,-21.035c48.481,-9.284 104.2,11.299 133.199,50.828c13.123,17.888 20.909,42.467 24.985,64.074c4.68,24.801 2.731,42.873 -0.6,62.136c-4.798,27.74 -12.544,58.052 -5.983,116.605c3.583,31.977 -14.69,69.141 -15.642,71.051Zm-8.889,-4.425c0,0 18.055,-35.257 14.664,-65.52c-5.61,-50.063 -1.046,-80.005 3.479,-105.066c4.356,-24.123 8.76,-43.545 3.214,-72.94c-3.816,-20.227 -10.949,-43.296 -23.234,-60.042c-26.841,-36.587 -78.452,-55.542 -123.325,-46.949c-18.199,3.484 -34.611,11.412 -50.874,20.051c-56.095,29.799 -67.332,92.864 -60.043,145.872c1.977,14.374 10.243,33.547 15.84,51.789c4.015,13.085 6.651,25.737 5.354,36.077c-6.214,49.534 -4.649,76.363 10.817,108.315c5.008,10.347 15.947,19.516 30.515,26.629c22.898,11.179 54.685,17.079 88.178,13.596c5.667,-0.589 28.271,-4.412 49.797,-16.35c14.054,-7.793 27.696,-19.066 35.573,-35.371c0.015,-0.03 0.03,-0.061 0.045,-0.091Z"/><path d="M297.872,524.474c58.626,-10.215 72.548,-37.513 75.925,-49.972c6.363,-23.47 9.445,-68.963 3.728,-93.155c-1.985,-8.4 -5.737,-17.967 -12.127,-24.922c-14.043,-15.283 -76.847,-16.613 -100.325,-13.023c-9.401,1.437 -17.89,4.686 -26.291,8.25c-29.228,12.396 -39.282,155.78 16.189,169.766c14.815,3.735 33.597,4.677 42.901,3.056Z" style="fill:#b7f8ff;"/><circle cx="400.672" cy="245.702" r="4.1" style="fill:#b7f8ff;"/><circle cx="182.944" cy="250.787" r="4.1" style="fill:#b7f8ff;"/><g><path d="M306.884,264.847c-0.754,6.126 0.198,17.378 -2.699,22.684c-1.405,2.572 -5.117,3.112 -7.536,3.465c-13.895,2.028 -15.301,-12.283 -18.782,-24.471" style="fill:#ededed;"/><path d="M303.189,264.392c0.251,-2.04 2.111,-3.492 4.15,-3.241c2.04,0.251 3.492,2.111 3.241,4.151c-0.449,3.64 -0.281,9.107 -0.701,14.032c-0.332,3.898 -1.064,7.487 -2.426,9.981c-0.947,1.734 -2.459,2.985 -4.263,3.822c-1.941,0.902 -4.247,1.287 -6.003,1.544c-4.489,0.655 -7.954,-0.11 -10.72,-1.722c-2.727,-1.589 -4.809,-4.059 -6.417,-7.148c-2.626,-5.045 -3.952,-11.922 -5.764,-18.264c-0.564,-1.976 0.582,-4.038 2.558,-4.603c1.976,-0.564 4.039,0.582 4.603,2.558c1.67,5.847 2.787,12.219 5.208,16.87c0.916,1.759 2.008,3.248 3.561,4.153c1.515,0.883 3.436,1.146 5.895,0.787c1.001,-0.146 2.274,-0.31 3.437,-0.724c0.532,-0.189 1.103,-0.355 1.369,-0.842c0.956,-1.751 1.309,-4.308 1.542,-7.044c0.428,-5.024 0.272,-10.599 0.73,-14.31Z"/><path d="M289.992,224.507c-11.359,0.699 -20.22,7.128 -19.776,14.35c0.445,7.221 10.027,12.516 21.386,11.817c11.358,-0.699 20.219,-7.128 19.775,-14.35c-0.444,-7.221 -10.027,-12.516 -21.385,-11.817Z"/><path d="M288.277,246.802c-0.035,-2.055 1.605,-3.751 3.66,-3.786c2.055,-0.035 3.751,1.605 3.786,3.66c0.105,6.166 1.161,12.084 1.622,18.195c0.155,2.049 -1.384,3.839 -3.433,3.993c-2.049,0.155 -3.838,-1.384 -3.993,-3.433c-0.472,-6.256 -1.535,-12.316 -1.642,-18.629Z"/><path d="M319.804,251.73c1.561,-1.336 3.913,-1.153 5.25,0.408c1.336,1.561 1.153,3.914 -0.408,5.25c-10.286,8.803 -20.932,13.393 -31.748,13.914c-10.817,0.521 -21.868,-3.024 -32.978,-10.829c-1.682,-1.181 -2.088,-3.505 -0.907,-5.187c1.181,-1.681 3.506,-2.088 5.187,-0.906c9.566,6.719 19.027,9.932 28.339,9.483c9.312,-0.448 18.41,-4.554 27.265,-12.133Z"/><path d="M351.87,153.839c-4.326,-1.311 -8.389,-0.554 -9.069,1.689c-0.68,2.243 2.28,5.128 6.606,6.439c4.326,1.311 8.39,0.554 9.07,-1.689c0.679,-2.243 -2.281,-5.128 -6.607,-6.439Z" style="fill:#b7f8ff;"/><path d="M194.057,172.999c-2.907,3.461 -3.81,7.495 -2.015,9.002c1.795,1.508 5.612,-0.079 8.519,-3.54c2.907,-3.462 3.81,-7.495 2.015,-9.003c-1.795,-1.507 -5.612,0.079 -8.519,3.541Z" style="fill:#b7f8ff;"/><path d="M363.543,156.69c-23.047,-3.282 -44.422,12.764 -47.704,35.811c-3.282,23.046 12.764,44.421 35.81,47.703c23.047,3.282 44.422,-12.764 47.704,-35.81c3.282,-23.046 -12.764,-44.422 -35.81,-47.704Z" style="fill:#61e0ee;stroke:#000;stroke-width:7.45px;"/><path d="M233.312,156.52c-23.047,-3.282 -44.422,12.765 -47.704,35.811c-3.282,23.046 12.764,44.422 35.81,47.704c23.047,3.282 44.422,-12.764 47.704,-35.811c3.282,-23.046 -12.764,-44.421 -35.81,-47.704Z" style="fill:#61e0ee;stroke:#000;stroke-width:7.45px;"/></g><path d="M294.369,377.129c-0,0 -30.575,20.788 -51.077,12.015c-20.502,-8.773 -17.206,-27.785 -0.183,-27.476c17.023,0.309 33.052,-0.876 42.316,-10.925c9.264,-10.049 28.364,13.456 8.944,26.386Z" style="fill:#d6c295;stroke:#000;stroke-width:7.45px;"/><path d="M302.248,380.773c-0,-0 30.754,20.521 51.179,11.57c20.425,-8.951 16.963,-27.933 -0.056,-27.476c-17.02,0.456 -33.058,-0.589 -42.409,-10.557c-9.351,-9.968 -28.246,13.702 -8.714,26.463Z" style="fill:#d6c295;stroke:#000;stroke-width:7.45px;"/><path d="M315.158,552.953c-0,-0 36.967,-0.598 48.683,-19.572c11.717,-18.974 -1.921,-32.624 -15.664,-22.574c-13.743,10.05 -27.533,18.306 -40.892,15.421c-13.36,-2.886 -15.45,27.329 7.873,26.725Z" style="fill:#d6c295;stroke:#000;stroke-width:7.45px;"/><path d="M285.369,555.467c-0,-0 -36.717,4.339 -50.86,-12.902c-14.143,-17.241 -2.448,-32.589 12.513,-24.462c14.961,8.127 29.728,14.469 42.584,9.827c12.855,-4.642 18.958,25.023 -4.237,27.537Z" style="fill:#d6c295;stroke:#000;stroke-width:7.45px;"/></g><path d="M188.045,205.489c0,-0 39.69,25.987 80.325,-1.89" style="fill:none;stroke:#000;stroke-width:6.74px;"/><path d="M317.472,208.513c0,-0 39.69,25.987 80.325,-1.89" style="fill:none;stroke:#000;stroke-width:6.74px;"/><circle cx="57.76" cy="262.382" r="6.94" style="fill:none;stroke:#000;stroke-width:6.74px;"/><circle cx="453.477" cy="167.292" r="6.94" style="fill:none;stroke:#000;stroke-width:6.74px;"/><circle cx="126.863" cy="462.012" r="6.94" style="fill:none;stroke:#000;stroke-width:6.74px;"/><circle cx="38.269" cy="447.247" r="6.94" style="fill:none;stroke:#000;stroke-width:6.74px;"/><circle cx="561.524" cy="242.375" r="6.94" style="fill:none;stroke:#000;stroke-width:6.74px;"/><circle cx="445.208" cy="496.269" r="6.94" style="fill:none;stroke:#000;stroke-width:6.74px;"/><circle cx="448.752" cy="294.276" r="6.94" style="fill:none;stroke:#000;stroke-width:6.74px;"/><circle cx="118.003" cy="120.042" r="6.94" style="fill:none;stroke:#000;stroke-width:6.74px;"/><path d="M93.407,333.823l17.107,12.429l-12.429,17.107l20.11,6.534l-6.534,20.11l-20.11,-6.534l0,21.145l-21.145,-0l0,-21.145l-20.11,6.534l-6.534,-20.11l20.11,-6.534l-12.429,-17.107l17.107,-12.429l12.429,17.107l12.428,-17.107Z" style="fill:none;stroke:#000;stroke-width:6.74px;"/><path d="M505.689,191.705l17.107,12.429l-12.429,17.106l20.11,6.534l-6.534,20.111l-20.11,-6.535l0,21.145l-21.145,0l0,-21.145l-20.11,6.535l-6.534,-20.111l20.11,-6.534l-12.429,-17.106l17.107,-12.429l12.429,17.107l12.428,-17.107Z" style="fill:none;stroke:#000;stroke-width:6.74px;"/><path d="M88.269,160.148l7.381,22.717l23.886,0l-19.324,14.04l7.381,22.717l-19.324,-14.04l-19.325,14.04l7.381,-22.717l-19.324,-14.04l23.886,0l7.382,-22.717Z" style="fill:none;stroke:#000;stroke-width:6.74px;"/><path d="M419.173,47.162l-10.531,21.44l17.135,16.64l-23.644,-3.39l-10.531,21.439l-4.082,-23.535l-23.644,-3.39l21.121,-11.155l-4.082,-23.535l17.136,16.641l21.122,-11.155Z" style="fill:none;stroke:#000;stroke-width:6.74px;"/><path d="M518.273,398.863l-23.797,2.059l-5.396,23.269l-9.312,-21.996l-23.797,2.059l18.042,-15.654l-9.312,-21.996l20.463,12.322l18.042,-15.654l-5.396,23.269l20.463,12.322Z" style="fill:none;stroke:#000;stroke-width:6.74px;"/></g></svg>