<?xml version="1.0" encoding="UTF-8" standalone="no"?><!DOCTYPE svg PUBLIC "-//W3C//DTD SVG 1.1//EN" "http://www.w3.org/Graphics/SVG/1.1/DTD/svg11.dtd"><svg width="100%" height="100%" viewBox="0 0 600 600" version="1.1" xmlns="http://www.w3.org/2000/svg" xmlns:xlink="http://www.w3.org/1999/xlink" xml:space="preserve" xmlns:serif="http://www.serif.com/" style="fill-rule:evenodd;clip-rule:evenodd;stroke-linecap:round;stroke-linejoin:round;stroke-miterlimit:1.5;"><rect id="_78" serif:id="78" x="0" y="0" width="600" height="600" style="fill:none;"/><g><ellipse cx="296.391" cy="507.95" rx="137.309" ry="15.424"/><path d="M373.992,392.677l3.205,-25.147c-0,0 33.282,-1.725 34.022,7.89c0.74,9.615 -30.324,24.407 -37.227,17.257Z" style="fill:#717171;"/><path d="M121.026,406.527c0,-0 -5.522,-10.098 13.885,-16.094c19.408,-5.996 24.773,-1.262 24.773,-1.262l13.569,37.553c0,-0 -43.549,-0.316 -52.227,-20.197Z" style="fill:#717171;"/><g><g><path d="M417.747,320.968c0,0 -24.435,21.64 -43.373,16.263c-18.939,-5.377 -18.19,-22.395 -3.249,-24.038c14.941,-1.644 28.842,-4.483 35.825,-14.324c6.982,-9.841 26.349,8.594 10.797,22.099Z" style="fill:#d6c295;stroke:#000;stroke-width:6.57px;"/><path d="M239.054,95.908c0,-0 15.284,-15.921 21.015,22.926" style="fill:none;stroke:#61e0ee;stroke-width:6.57px;"/><path d="M291.911,92.087c-0,-0 -14.647,-15.284 -19.742,24.836" style="fill:none;stroke:#61e0ee;stroke-width:6.57px;"/><path d="M251.998,79.2c0,-0 17.197,-10.962 14.025,33.363" style="fill:none;stroke:#61e0ee;stroke-width:6.57px;"/><path d="M226.075,499.025c-0,-0 -11.939,-30.378 -0.389,-46.321c11.55,-15.943 27.277,-9.398 23.693,5.199c-3.584,14.597 -5.688,28.629 1.159,38.564c6.846,9.936 -17.116,21.799 -24.463,2.558Z" style="fill:#d6c295;stroke:#000;stroke-width:6.57px;"/><path d="M402.754,421.603c-0,-0 -24.719,-21.315 -43.585,-15.689c-18.866,5.627 -17.892,22.634 -2.931,24.079c14.961,1.446 28.899,4.102 36.011,13.85c7.111,9.747 26.233,-8.942 10.505,-22.24Z" style="fill:#d6c295;stroke:#000;stroke-width:6.57px;"/><path d="M372.696,194.032c0.601,-3.602 7.971,-9.11 11.034,-10.357c37.262,-15.177 24.201,27.554 2.507,25.861" style="fill:#61e0ee;"/><path d="M377.019,194.753c-0.397,2.386 -2.657,4 -5.043,3.602c-2.386,-0.397 -4.001,-2.657 -3.603,-5.044c0.284,-1.704 1.359,-3.772 3.093,-5.755c3.028,-3.461 8.081,-6.91 10.61,-7.94c13.654,-5.562 21.794,-3.69 25.759,0.106c4.177,3.999 4.88,10.875 2.144,17.659c-3.618,8.97 -13.009,17.389 -24.083,16.525c-2.411,-0.188 -4.216,-2.299 -4.028,-4.71c0.188,-2.412 2.298,-4.217 4.71,-4.029c7.15,0.558 12.935,-5.273 15.271,-11.065c0.728,-1.803 1.125,-3.619 1.017,-5.258c-0.071,-1.085 -0.357,-2.086 -1.093,-2.79c-0.955,-0.915 -2.471,-1.272 -4.511,-1.263c-3.051,0.015 -6.959,0.939 -11.879,2.943c-1.514,0.616 -4.268,2.547 -6.365,4.593c-0.636,0.62 -1.211,1.25 -1.64,1.868c-0.147,0.211 -0.328,0.372 -0.359,0.558Z"/><path d="M170.811,165.959c-3.42,1.281 -7.105,-0.873 -9.717,-2.902c-31.774,-24.682 11.65,-34.571 21.031,-14.937" style="fill:#61e0ee;"/><path d="M169.273,161.854c2.266,-0.848 4.794,0.302 5.642,2.567c0.849,2.265 -0.301,4.793 -2.566,5.642c-4.852,1.818 -10.238,-0.667 -13.943,-3.545c-11.642,-9.043 -14.101,-17.011 -12.814,-22.316c1.36,-5.606 6.953,-9.637 14.195,-10.631c9.546,-1.31 21.506,2.641 26.293,12.659c1.043,2.183 0.117,4.801 -2.065,5.844c-2.183,1.043 -4.802,0.118 -5.845,-2.065c-3.093,-6.475 -11.022,-8.6 -17.191,-7.753c-1.915,0.262 -3.674,0.815 -5.03,1.717c-0.89,0.591 -1.603,1.323 -1.838,2.295c-0.31,1.276 0.144,2.759 1.173,4.514c1.543,2.631 4.3,5.552 8.499,8.814c0.983,0.763 2.153,1.576 3.414,2.052c0.676,0.256 1.386,0.465 2.076,0.206Z"/><path d="M172.878,425.665c0,-0 -16.515,-32.468 -13.394,-60.318c9.769,-87.185 -15.894,-104.29 -5.861,-157.472c3.484,-18.466 10.069,-39.498 21.285,-54.786c24.649,-33.598 72.025,-51.05 113.232,-43.16c16.5,3.16 31.399,10.303 46.144,18.136c51.301,27.252 61.96,84.769 55.293,133.247c-2.951,21.46 -21.402,54.906 -18.703,76.427c5.627,44.859 4.053,69.141 -9.953,98.077c-11.937,24.663 -58.394,43.243 -109.184,37.962c-8.653,-0.9 -60.435,-9.974 -78.859,-48.113Z" style="fill:#61e0ee;"/><clipPath id="_clip1"><path d="M172.878,425.665c0,-0 -16.515,-32.468 -13.394,-60.318c9.769,-87.185 -15.894,-104.29 -5.861,-157.472c3.484,-18.466 10.069,-39.498 21.285,-54.786c24.649,-33.598 72.025,-51.05 113.232,-43.16c16.5,3.16 31.399,10.303 46.144,18.136c51.301,27.252 61.96,84.769 55.293,133.247c-2.951,21.46 -21.402,54.906 -18.703,76.427c5.627,44.859 4.053,69.141 -9.953,98.077c-11.937,24.663 -58.394,43.243 -109.184,37.962c-8.653,-0.9 -60.435,-9.974 -78.859,-48.113Z"/></clipPath><g clip-path="url(#_clip1)"><path d="M356.238,149.179c0,0 17.473,22.462 12.746,57.357c-7.1,52.416 -29.131,41.172 -27.631,135.504c0.748,47.024 3.554,75.387 -17.154,103.695c-20.113,27.494 -77.626,27.455 -92.165,23.301c-14.539,-4.154 57.325,14.954 98.449,-1.662c41.125,-16.616 46.94,-86.402 41.54,-130.019c-5.4,-43.617 29.494,-56.079 17.862,-131.266c-18.692,-44.032 -19.108,-41.54 -33.647,-56.91Z" style="fill:#4fcbe0;"/><path d="M287.634,213.651c-0,0 5.104,25.522 35.518,24.034c30.414,-1.489 32.541,-32.541 32.541,-32.541l-68.059,8.507Z" style="fill:#4fcbe0;"/><path d="M157.551,200.678c-0,-0 5.104,25.522 35.518,24.033c30.414,-1.489 32.541,-32.541 32.541,-32.541l-68.059,8.508Z" style="fill:#4fcbe0;"/></g><path d="M168.951,427.61l-0.008,-0.015c-0.776,-1.554 -16.985,-34.445 -13.815,-62.736c5.793,-51.691 -1.046,-78.452 -5.282,-102.941c-2.94,-17.006 -4.661,-32.96 -0.53,-54.855c3.599,-19.075 10.472,-40.774 22.058,-56.566c25.601,-34.897 74.791,-53.068 117.591,-44.872c16.934,3.242 32.242,10.53 47.376,18.57c53.079,28.197 64.476,87.555 57.578,137.714c-1.506,10.953 -6.92,24.979 -11.66,38.998c-4.412,13.045 -8.318,26.066 -7.036,36.286c5.769,45.99 4.002,70.867 -10.357,100.533c-5.129,10.595 -16.067,20.284 -30.984,27.567c-21.453,10.473 -51.218,16.107 -82.598,12.845c-5.382,-0.56 -26.863,-4.15 -47.306,-15.487c-13.88,-7.698 -27.239,-18.945 -35.027,-35.041Zm7.874,-3.852c6.953,14.395 18.997,24.346 31.404,31.227c19.004,10.538 38.959,13.914 43.962,14.434c29.568,3.074 57.63,-2.135 77.845,-12.004c12.861,-6.278 22.518,-14.373 26.94,-23.508c13.653,-28.208 15.035,-51.893 9.549,-95.623c-1.145,-9.128 1.182,-20.297 4.726,-31.85c4.942,-16.104 12.239,-33.03 13.984,-45.719c6.436,-46.797 -3.485,-102.472 -53.007,-128.779c-14.357,-7.627 -28.846,-14.626 -44.912,-17.702c-39.615,-7.586 -85.178,9.148 -108.874,41.448c-10.846,14.783 -17.143,35.149 -20.512,53.006c-4.896,25.951 -1.008,43.096 2.838,64.393c3.995,22.125 8.024,48.558 3.072,92.754c-2.994,26.717 12.945,57.843 12.945,57.843c0.013,0.026 0.027,0.053 0.04,0.08Z"/><path d="M295.612,453.111c-86.746,20.19 -101.92,-30.419 -104.902,-41.418c-5.617,-20.72 -8.338,-60.882 -3.291,-82.239c1.753,-7.416 5.065,-15.863 10.706,-22.002c12.398,-13.493 67.843,-14.666 88.569,-11.497c8.3,1.268 15.793,4.137 23.21,7.283c25.804,10.944 34.897,138.425 -14.292,149.873Z" style="fill:#b7f8ff;"/><circle cx="168.028" cy="231.603" r="3.62" style="fill:#b7f8ff;"/><circle cx="347.728" cy="238.178" r="3.62" style="fill:#b7f8ff;"/><g><path d="M319.291,265.423c-4.454,-29.518 -38.377,-28.615 -63.247,-18.12c-24.869,10.495 -31.52,-17.547 -50.23,-10.92c-18.71,6.626 0.127,59.283 37.83,69.673c37.702,10.39 79.728,-13.586 75.647,-40.633Z"/><g><path d="M234.746,253.779c0.928,5.369 0.57,15.332 3.352,19.886c1.349,2.208 4.645,2.525 6.794,2.733c12.339,1.193 12.966,-11.487 15.513,-22.384" style="fill:#ededed;"/><path d="M231.506,254.338c-0.308,-1.787 0.892,-3.49 2.68,-3.799c1.788,-0.309 3.49,0.892 3.799,2.68c0.562,3.253 0.664,8.176 1.256,12.587c0.323,2.403 0.744,4.643 1.662,6.146c0.255,0.417 0.766,0.539 1.243,0.683c1.044,0.316 2.173,0.405 3.062,0.491c2.184,0.211 3.866,-0.103 5.164,-0.947c1.331,-0.864 2.23,-2.224 2.962,-3.814c1.936,-4.205 2.648,-9.872 3.87,-15.099c0.413,-1.766 2.182,-2.865 3.949,-2.453c1.766,0.413 2.865,2.183 2.452,3.949c-1.325,5.67 -2.199,11.791 -4.299,16.352c-1.285,2.793 -3.015,5.06 -5.352,6.579c-2.37,1.539 -5.392,2.362 -9.379,1.977c-1.559,-0.151 -3.609,-0.392 -5.359,-1.104c-1.626,-0.661 -3.014,-1.699 -3.923,-3.187c-1.308,-2.141 -2.107,-5.275 -2.567,-8.697c-0.582,-4.326 -0.668,-9.154 -1.22,-12.344Z"/><path d="M248.131,214.417c10.028,0.617 17.851,6.293 17.459,12.668c-0.393,6.375 -8.852,11.05 -18.88,10.433c-10.027,-0.617 -17.85,-6.293 -17.458,-12.668c0.392,-6.375 8.852,-11.05 18.879,-10.433Z"/><path d="M243.072,233.988c0.03,-1.814 1.528,-3.262 3.342,-3.231c1.814,0.031 3.262,1.529 3.231,3.343c-0.094,5.573 -1.033,10.923 -1.449,16.446c-0.137,1.809 -1.717,3.167 -3.526,3.031c-1.809,-0.137 -3.167,-1.716 -3.03,-3.526c0.407,-5.394 1.339,-10.619 1.432,-16.063Z"/><path d="M210.398,129.505c3.819,-1.157 7.406,-0.489 8.006,1.491c0.6,1.98 -2.013,4.527 -5.832,5.684c-3.819,1.158 -7.406,0.49 -8.006,-1.491c-0.601,-1.98 2.013,-4.527 5.832,-5.684Z" style="fill:#b7f8ff;"/><path d="M349.718,146.42c2.566,3.055 3.364,6.617 1.779,7.947c-1.584,1.331 -4.954,-0.07 -7.521,-3.125c-2.566,-3.056 -3.363,-6.617 -1.778,-7.948c1.584,-1.331 4.954,0.07 7.52,3.126Z" style="fill:#b7f8ff;"/><path d="M184.555,142.763c20.346,-2.897 39.216,11.269 42.114,31.614c2.897,20.346 -11.269,39.217 -31.614,42.114c-20.346,2.898 -39.217,-11.268 -42.114,-31.614c-2.898,-20.346 11.268,-39.216 31.614,-42.114Z" style="fill:#fff;stroke:#000;stroke-width:6.57px;"/><path d="M188.595,171.355c7.226,-1.029 13.929,4.003 14.958,11.229c1.029,7.227 -4.002,13.93 -11.229,14.959c-7.227,1.029 -13.929,-4.003 -14.958,-11.229c-1.029,-7.227 4.002,-13.929 11.229,-14.959Z"/><path d="M194.335,183.179c2.029,-0.289 3.911,1.124 4.2,3.153c0.289,2.029 -1.124,3.91 -3.153,4.199c-2.029,0.289 -3.911,-1.123 -4.2,-3.152c-0.288,-2.029 1.124,-3.911 3.153,-4.2Z" style="fill:#fff;"/><path d="M315.794,153.667c20.345,-2.897 39.216,11.269 42.113,31.615c2.898,20.345 -11.268,39.216 -31.614,42.113c-20.346,2.898 -39.216,-11.268 -42.114,-31.614c-2.897,-20.346 11.269,-39.216 31.615,-42.114Z" style="fill:#fff;stroke:#000;stroke-width:6.57px;"/><path d="M319.955,181.827c7.226,-1.029 13.929,4.003 14.958,11.229c1.029,7.227 -4.002,13.929 -11.229,14.959c-7.227,1.029 -13.929,-4.003 -14.959,-11.229c-1.029,-7.227 4.003,-13.93 11.23,-14.959Z"/><path d="M325.695,192.599c2.029,-0.289 3.911,1.123 4.2,3.152c0.289,2.029 -1.124,3.911 -3.153,4.2c-2.029,0.289 -3.911,-1.123 -4.2,-3.153c-0.289,-2.029 1.124,-3.91 3.153,-4.199Z" style="fill:#fff;"/></g></g><path d="M110.728,315.379c-0,0 24.852,21.16 43.682,15.415c18.83,-5.745 17.75,-22.745 2.78,-24.097c-14.97,-1.352 -28.924,-3.92 -36.097,-13.623c-7.173,-9.703 -26.177,9.106 -10.365,22.305Z" style="fill:#d6c295;stroke:#000;stroke-width:6.57px;"/></g></g><path d="M134.054,275.625c0,0 -10.112,-65.487 3.371,-88.119c-40.448,-42.374 -18.298,-67.894 -1.445,-75.117c16.854,-7.223 46.708,4.333 46.708,4.333l37.077,-21.187c0,0 3.852,-35.151 32.744,-40.929c28.891,-5.778 23.113,15.89 23.113,15.89c-0,0 33.706,1.926 36.114,17.335c2.408,15.409 1.926,13.001 1.926,13.001c0,0 61.154,14.927 75.599,62.117c23.113,-5.779 33.707,2.889 38.522,19.742c4.815,16.853 -18.298,43.819 -18.298,43.819c0,-0 -0.963,28.891 5.297,43.337c16.853,-3.371 29.854,-22.15 46.708,-7.705c16.853,14.446 -26.484,73.673 -62.117,90.045c5.297,15.89 10.594,20.706 10.594,20.706c-0,-0 -7.223,-13.483 -67.413,1.444c-60.191,14.927 -79.452,40.93 -143.494,22.15c-64.043,-18.779 -78.007,3.371 -78.007,3.371l4.815,-53.931c0,0 -70.784,-30.336 -46.708,-61.635c24.077,-31.299 54.894,-8.667 54.894,-8.667Z" style="fill:#fff;stroke:#000;stroke-width:5.93px;"/><path d="M171.131,426.342c0,-0 -54.412,-1.926 -50.078,-26.484" style="fill:none;stroke:#000;stroke-width:5.93px;"/><path d="M373.371,396.006c0,-0 44.632,-5.313 36.446,-23.13" style="fill:none;stroke:#000;stroke-width:5.93px;"/><path d="M138.869,298.738c0,0 -3.313,-8.791 -5.522,-27.299" style="fill:none;stroke:#000;stroke-width:6.28px;"/><path d="M228.156,158.41c5.207,1.07 7.913,9.335 6.041,18.447c-1.873,9.111 -7.62,15.639 -12.826,14.569c-5.207,-1.07 -7.913,-9.336 -6.041,-18.447c1.873,-9.111 7.62,-15.639 12.826,-14.569Z"/><path d="M307.782,168.629c5.207,1.07 7.913,9.336 6.041,18.447c-1.873,9.111 -7.62,15.64 -12.826,14.57c-5.207,-1.07 -7.913,-9.336 -6.041,-18.447c1.873,-9.111 7.62,-15.64 12.826,-14.57Z"/><path d="M167.305,213.133c0,-0 102.763,32.645 197.318,29.321c-31.735,26.852 -75.517,27.489 -114.392,20.964c-69.815,-11.719 -82.926,-50.285 -82.926,-50.285Z"/><path d="M161.361,143.696c0,-0 7.732,-19.566 24.931,-29.191" style="fill:none;stroke:#000;stroke-width:5.93px;"/><path d="M395.85,183.026c-0,-0 -2.408,-9.631 -9.149,-26.484" style="fill:none;stroke:#000;stroke-width:5.93px;"/><path d="M414.147,268.255c0,0 3.853,18.78 0.963,33.707" style="fill:none;stroke:#000;stroke-width:5.93px;"/><path d="M151.597,324.353c0,-0 2.889,7.704 8.668,10.112" style="fill:none;stroke:#000;stroke-width:5.93px;"/><path d="M169.413,345.058c0,0 22.632,24.558 56.82,29.855" style="fill:none;stroke:#000;stroke-width:5.93px;"/><path d="M442.395,383.423c0,-0 19.723,10.169 49.308,-0.925" style="fill:none;stroke:#000;stroke-width:5.93px;"/><path d="M452.565,406.844c-0,-0 19.723,10.17 49.308,-0.925" style="fill:none;stroke:#000;stroke-width:5.93px;"/><path d="M462.611,360.843c-0,-0 25.521,0.853 54.161,-22.335" style="fill:none;stroke:#000;stroke-width:6.51px;"/></g></svg>