<?xml version="1.0" encoding="UTF-8" standalone="no"?><!DOCTYPE svg PUBLIC "-//W3C//DTD SVG 1.1//EN" "http://www.w3.org/Graphics/SVG/1.1/DTD/svg11.dtd"><svg width="100%" height="100%" viewBox="0 0 600 600" version="1.1" xmlns="http://www.w3.org/2000/svg" xmlns:xlink="http://www.w3.org/1999/xlink" xml:space="preserve" xmlns:serif="http://www.serif.com/" style="fill-rule:evenodd;clip-rule:evenodd;stroke-linecap:round;stroke-linejoin:round;stroke-miterlimit:1.5;"><rect id="_16" serif:id="16" x="0" y="0" width="600" height="600" style="fill:none;"/><g id="_161" serif:id="16"><g><g><g><path d="M472.276,316.392c0,-0 -37.266,12.496 -55.733,-2.372c-18.466,-14.869 -9.631,-33.383 7.705,-28.177c17.336,5.205 34.083,8.596 46.452,0.971c12.37,-7.625 25.169,21.921 1.576,29.578Z" style="fill:#d6c295;stroke:#000;stroke-width:7.92px;"/><path d="M267.034,29.058c-0,-0 18.405,-19.172 25.307,27.608" style="fill:none;stroke:#61e0ee;stroke-width:7.92px;"/><path d="M330.686,24.457c0,-0 -17.639,-18.406 -23.774,29.909" style="fill:none;stroke:#61e0ee;stroke-width:7.92px;"/><path d="M282.622,8.937c-0,0 20.709,-13.201 16.888,40.178" style="fill:none;stroke:#61e0ee;stroke-width:7.92px;"/><path d="M191.247,473.454c0,0 2.145,-39.247 22.781,-50.919c20.636,-11.673 34.58,3.374 23.342,17.563c-11.238,14.189 -20.573,28.501 -18.053,42.812c2.52,14.31 -29.664,15.297 -28.07,-9.456Z" style="fill:#d6c295;stroke:#000;stroke-width:7.92px;"/><path d="M416.788,472.351c-0,-0 -8.881,-38.29 -31.22,-46.229c-22.339,-7.94 -33.48,9.286 -19.964,21.325c13.517,12.039 25.179,24.527 25.164,39.058c-0.014,14.53 31.858,9.953 26.02,-14.154Z" style="fill:#d6c295;stroke:#000;stroke-width:7.92px;"/><path d="M427.972,147.224c0.723,-4.338 9.598,-10.971 13.287,-12.473c44.873,-18.276 29.144,33.182 3.02,31.144" style="fill:#61e0ee;"/><path d="M433.178,148.091c-0.479,2.874 -3.2,4.818 -6.074,4.339c-2.873,-0.479 -4.817,-3.201 -4.338,-6.074c0.342,-2.052 1.637,-4.543 3.725,-6.931c3.645,-4.168 9.731,-8.322 12.777,-9.562c16.443,-6.697 26.245,-4.443 31.02,0.127c5.03,4.816 5.877,13.097 2.581,21.267c-4.357,10.802 -15.665,20.94 -29.001,19.9c-2.904,-0.227 -5.078,-2.769 -4.852,-5.673c0.227,-2.904 2.769,-5.078 5.673,-4.851c8.611,0.671 15.577,-6.351 18.391,-13.325c0.875,-2.172 1.353,-4.358 1.224,-6.332c-0.086,-1.307 -0.43,-2.512 -1.316,-3.36c-1.151,-1.101 -2.976,-1.532 -5.433,-1.52c-3.674,0.017 -8.38,1.13 -14.305,3.543c-1.823,0.742 -5.14,3.067 -7.665,5.531c-0.767,0.747 -1.458,1.506 -1.975,2.249c-0.178,0.255 -0.395,0.449 -0.432,0.672Z"/><path d="M184.852,113.416c-4.118,1.543 -8.556,-1.051 -11.701,-3.494c-38.265,-29.724 14.029,-41.632 25.326,-17.988" style="fill:#61e0ee;"/><path d="M183.001,108.474c2.727,-1.022 5.772,0.363 6.794,3.091c1.022,2.728 -0.363,5.772 -3.091,6.794c-5.843,2.189 -12.329,-0.803 -16.791,-4.269c-14.019,-10.89 -16.981,-20.486 -15.431,-26.875c1.638,-6.75 8.373,-11.604 17.094,-12.801c11.496,-1.578 25.899,3.179 31.663,15.244c1.256,2.628 0.142,5.782 -2.486,7.038c-2.629,1.256 -5.782,0.142 -7.038,-2.487c-3.726,-7.797 -13.274,-10.356 -20.704,-9.337c-2.305,0.316 -4.424,0.982 -6.057,2.068c-1.071,0.712 -1.929,1.593 -2.213,2.764c-0.373,1.537 0.174,3.322 1.413,5.436c1.857,3.168 5.178,6.686 10.235,10.614c1.183,0.919 2.592,1.899 4.111,2.471c0.815,0.308 1.669,0.56 2.501,0.249Z"/><path d="M187.341,426.167c0,-0 -19.888,-39.1 -16.129,-72.638c11.764,-104.992 -19.141,-125.59 -7.058,-189.635c4.196,-22.237 12.126,-47.565 25.632,-65.976c29.683,-40.46 86.736,-61.477 136.36,-51.975c19.87,3.805 37.811,12.407 55.569,21.84c61.778,32.819 74.614,102.083 66.586,160.462c-3.554,25.844 -25.774,66.121 -22.524,92.037c6.777,54.022 4.881,83.263 -11.986,118.109c-14.375,29.7 -70.32,52.076 -131.483,45.716c-10.421,-1.084 -72.78,-12.012 -94.967,-57.94Z" style="fill:#61e0ee;"/><clipPath id="_clip1"><path d="M187.341,426.167c0,-0 -19.888,-39.1 -16.129,-72.638c11.764,-104.992 -19.141,-125.59 -7.058,-189.635c4.196,-22.237 12.126,-47.565 25.632,-65.976c29.683,-40.46 86.736,-61.477 136.36,-51.975c19.87,3.805 37.811,12.407 55.569,21.84c61.778,32.819 74.614,102.083 66.586,160.462c-3.554,25.844 -25.774,66.121 -22.524,92.037c6.777,54.022 4.881,83.263 -11.986,118.109c-14.375,29.7 -70.32,52.076 -131.483,45.716c-10.421,-1.084 -72.78,-12.012 -94.967,-57.94Z"/></clipPath><g clip-path="url(#_clip1)"><path d="M408.152,93.21c0,-0 21.042,27.049 15.35,69.071c-8.551,63.122 -35.082,49.582 -33.275,163.181c0.9,56.628 4.279,90.784 -20.658,124.874c-24.221,33.11 -93.481,33.063 -110.989,28.06c-17.509,-5.002 69.033,18.009 118.557,-2.001c49.524,-20.009 56.528,-104.05 50.024,-156.576c-6.503,-52.525 35.518,-67.532 21.511,-158.076c-22.511,-53.026 -23.011,-50.024 -40.52,-68.533Z" style="fill:#4fcbe0;"/><path d="M325.536,170.85c-0,0 6.147,30.735 42.772,28.942c36.626,-1.793 39.187,-39.187 39.187,-39.187l-81.959,10.245Z" style="fill:#4fcbe0;"/><path d="M168.884,155.227c-0,-0 6.147,30.734 42.772,28.942c36.626,-1.793 39.187,-39.187 39.187,-39.187l-81.959,10.245Z" style="fill:#4fcbe0;"/></g><path d="M182.622,428.531l-0.02,-0.04c-0.934,-1.872 -20.453,-41.48 -16.636,-75.549c6.976,-62.25 -1.26,-94.476 -6.36,-123.967c-3.542,-20.479 -5.613,-39.692 -0.639,-66.059c4.334,-22.971 12.611,-49.102 26.563,-68.12c30.83,-42.024 90.067,-63.906 141.608,-54.037c20.394,3.905 38.828,12.682 57.053,22.363c63.921,33.957 77.645,105.439 69.339,165.842c-1.814,13.19 -8.334,30.081 -14.043,46.963c-5.312,15.71 -10.016,31.39 -8.472,43.698c6.947,55.383 4.819,85.341 -12.473,121.066c-6.176,12.76 -19.348,24.427 -37.312,33.197c-25.835,12.613 -61.68,19.398 -99.468,15.469c-6.481,-0.674 -32.35,-4.998 -56.969,-18.65c-16.709,-9.267 -32.79,-22.804 -42.171,-42.176Zm9.472,-4.66c8.374,17.334 22.878,29.318 37.819,37.604c22.885,12.691 46.916,16.756 52.94,17.382c35.608,3.703 69.402,-2.57 93.745,-14.455c15.488,-7.561 27.118,-17.309 32.443,-28.31c16.441,-33.969 18.105,-62.492 11.499,-115.153c-1.378,-10.993 1.423,-24.443 5.692,-38.355c5.951,-19.394 14.739,-39.777 16.84,-55.058c7.75,-56.355 -4.197,-123.401 -63.834,-155.081c-17.289,-9.185 -34.738,-17.613 -54.085,-21.318c-47.707,-9.135 -102.575,11.016 -131.111,49.913c-13.061,17.804 -20.644,42.329 -24.701,63.833c-5.897,31.251 -1.215,51.899 3.416,77.545c4.812,26.644 9.664,58.476 3.7,111.699c-3.605,32.174 15.589,69.657 15.589,69.657c0.016,0.032 0.032,0.064 0.048,0.097Z"/><path d="M335.144,459.219c-104.465,24.313 -122.738,-36.632 -126.328,-49.878c-6.764,-24.952 -10.041,-73.317 -3.963,-99.037c2.11,-8.93 6.099,-19.101 12.892,-26.495c14.93,-16.248 81.699,-17.661 106.66,-13.846c9.994,1.528 19.018,4.983 27.95,8.771c31.073,13.18 42.024,166.698 -17.211,180.485Z" style="fill:#b7f8ff;"/><circle cx="181.5" cy="192.468" r="4.359" style="fill:#b7f8ff;"/><circle cx="397.904" cy="200.386" r="4.359" style="fill:#b7f8ff;"/><g><path d="M363.659,233.196c-5.364,-35.546 -46.216,-34.46 -76.165,-21.821c-29.948,12.639 -37.959,-21.131 -60.49,-13.151c-22.531,7.981 0.154,71.392 45.557,83.904c45.403,12.513 96.012,-16.361 91.098,-48.932Z"/><g><path d="M261.845,219.173c1.118,6.466 0.687,18.464 4.038,23.949c1.624,2.658 5.593,3.04 8.181,3.29c14.859,1.437 15.614,-13.833 18.681,-26.955" style="fill:#ededed;"/><path d="M257.945,219.847c-0.373,-2.153 1.073,-4.202 3.226,-4.575c2.153,-0.372 4.203,1.074 4.575,3.227c0.677,3.918 0.799,9.846 1.513,15.158c0.389,2.894 0.896,5.591 2.002,7.401c0.307,0.503 0.922,0.649 1.496,0.823c1.257,0.38 2.617,0.488 3.687,0.591c2.63,0.254 4.656,-0.124 6.22,-1.14c1.602,-1.041 2.685,-2.678 3.567,-4.593c2.33,-5.064 3.188,-11.888 4.659,-18.183c0.497,-2.127 2.628,-3.451 4.756,-2.954c2.127,0.498 3.451,2.629 2.954,4.756c-1.596,6.828 -2.649,14.199 -5.178,19.691c-1.548,3.364 -3.631,6.094 -6.445,7.923c-2.854,1.853 -6.494,2.845 -11.294,2.381c-1.878,-0.182 -4.347,-0.473 -6.455,-1.329c-1.958,-0.796 -3.628,-2.046 -4.724,-3.839c-1.574,-2.578 -2.537,-6.352 -3.091,-10.473c-0.7,-5.209 -0.805,-11.023 -1.468,-14.865Z"/><path d="M277.965,171.772c12.076,0.743 21.496,7.579 21.024,15.256c-0.472,7.677 -10.66,13.306 -22.735,12.564c-12.076,-0.743 -21.496,-7.579 -21.024,-15.256c0.472,-7.677 10.659,-13.307 22.735,-12.564Z"/><path d="M271.872,195.34c0.037,-2.184 1.841,-3.927 4.025,-3.89c2.184,0.037 3.928,1.84 3.891,4.025c-0.114,6.712 -1.244,13.154 -1.746,19.805c-0.164,2.179 -2.066,3.814 -4.245,3.65c-2.178,-0.164 -3.814,-2.067 -3.649,-4.245c0.49,-6.497 1.613,-12.788 1.724,-19.345Z"/><path d="M232.524,69.517c4.599,-1.394 8.92,-0.589 9.642,1.795c0.723,2.385 -2.424,5.453 -7.023,6.846c-4.599,1.394 -8.919,0.589 -9.642,-1.795c-0.723,-2.385 2.424,-5.453 7.023,-6.846Z" style="fill:#b7f8ff;"/><path d="M400.301,89.887c3.09,3.679 4.05,7.968 2.142,9.57c-1.908,1.603 -5.966,-0.084 -9.057,-3.764c-3.09,-3.68 -4.05,-7.968 -2.142,-9.571c1.908,-1.602 5.966,0.085 9.057,3.765Z" style="fill:#b7f8ff;"/><path d="M201.403,85.483c24.502,-3.489 47.227,13.57 50.716,38.071c3.489,24.502 -13.57,47.227 -38.071,50.716c-24.502,3.489 -47.227,-13.57 -50.716,-38.071c-3.489,-24.502 13.57,-47.227 38.071,-50.716Z" style="fill:#fff;stroke:#000;stroke-width:7.92px;"/><path d="M359.447,98.615c24.501,-3.49 47.226,13.569 50.715,38.071c3.49,24.501 -13.569,47.226 -38.071,50.715c-24.501,3.49 -47.226,-13.57 -50.715,-38.071c-3.49,-24.501 13.57,-47.226 38.071,-50.715Z" style="fill:#fff;stroke:#000;stroke-width:7.92px;"/></g></g><path d="M120.942,308.551c-0,-0 34.733,18.399 55.375,6.737c20.641,-11.662 14.94,-31.368 -3.013,-29.055c-17.952,2.312 -35.028,2.93 -45.99,-6.608c-10.962,-9.539 -28.402,17.528 -6.372,28.926Z" style="fill:#d6c295;stroke:#000;stroke-width:7.92px;"/></g><g transform="matrix(68.1117,0,0,68.1117,185.706,153.823)"><path d="M0.122,-0l0,-0.049c0,-0.015 0.008,-0.023 0.023,-0.025l0.126,-0.011l0,-0.468c0,-0.008 0,-0.016 0.001,-0.025l-0.111,0.095c-0.004,0.003 -0.008,0.006 -0.013,0.007c-0.004,0.001 -0.008,0.002 -0.011,0.002c-0.006,0 -0.012,-0.001 -0.017,-0.004c-0.005,-0.003 -0.009,-0.006 -0.011,-0.009l-0.036,-0.049l0.218,-0.186l0.093,0l0,0.637l0.111,0.011c0.015,0.002 0.022,0.01 0.022,0.025l0,0.049l-0.395,0Z" style="fill-rule:nonzero;"/></g><g transform="matrix(68.1117,0,0,68.1117,225.892,153.823)"></g><g transform="matrix(68.1117,0,0,68.1117,347.068,167.195)"><path d="M0.55,-0.361c0,0.063 -0.007,0.118 -0.021,0.164c-0.013,0.046 -0.032,0.084 -0.055,0.115c-0.023,0.03 -0.051,0.053 -0.084,0.068c-0.033,0.015 -0.067,0.022 -0.104,0.022c-0.037,-0 -0.072,-0.007 -0.104,-0.022c-0.032,-0.015 -0.06,-0.038 -0.084,-0.068c-0.023,-0.031 -0.042,-0.069 -0.055,-0.115c-0.013,-0.046 -0.02,-0.101 -0.02,-0.164c-0,-0.063 0.007,-0.117 0.02,-0.163c0.013,-0.047 0.032,-0.085 0.055,-0.116c0.024,-0.03 0.052,-0.052 0.084,-0.067c0.032,-0.015 0.067,-0.022 0.104,-0.022c0.037,0 0.071,0.007 0.104,0.022c0.033,0.015 0.061,0.037 0.084,0.067c0.023,0.031 0.042,0.069 0.055,0.116c0.014,0.046 0.021,0.1 0.021,0.163Zm-0.117,0.001c-0,-0.053 -0.004,-0.098 -0.012,-0.133c-0.008,-0.036 -0.019,-0.064 -0.033,-0.085c-0.013,-0.021 -0.029,-0.036 -0.047,-0.045c-0.017,-0.009 -0.036,-0.013 -0.055,-0.013c-0.019,0 -0.037,0.004 -0.055,0.013c-0.018,0.009 -0.034,0.024 -0.047,0.045c-0.013,0.021 -0.024,0.049 -0.033,0.085c-0.008,0.035 -0.012,0.08 -0.012,0.133c-0,0.053 0.004,0.097 0.012,0.132c0.009,0.035 0.02,0.064 0.033,0.085c0.013,0.021 0.029,0.036 0.047,0.045c0.018,0.008 0.036,0.012 0.055,0.012c0.019,0 0.038,-0.004 0.055,-0.012c0.018,-0.009 0.034,-0.024 0.047,-0.045c0.014,-0.021 0.025,-0.05 0.033,-0.085c0.008,-0.035 0.012,-0.079 0.012,-0.132Z" style="fill-rule:nonzero;"/></g><g transform="matrix(68.1117,0,0,68.1117,386.232,167.195)"></g></g><g transform="matrix(1.58462,0,0,1.58462,-8492.24,649.538)"><g transform="matrix(50,0,0,50,5425.34,-44.1817)"><path d="M0.236,-0.522c0.022,0 0.043,0.002 0.062,0.007c0.019,0.004 0.037,0.01 0.054,0.019l0.148,0l0,0.047c0,0.007 -0.002,0.012 -0.007,0.017c-0.004,0.005 -0.011,0.008 -0.021,0.01l-0.046,0.008c0.008,0.017 0.012,0.037 0.012,0.058c0,0.034 -0.009,0.063 -0.027,0.088c-0.018,0.025 -0.042,0.044 -0.073,0.058c-0.03,0.013 -0.064,0.02 -0.102,0.02c-0.009,0 -0.019,-0 -0.028,-0.001c-0.009,-0.001 -0.018,-0.003 -0.027,-0.004c-0.007,0.005 -0.013,0.01 -0.018,0.015c-0.004,0.005 -0.006,0.011 -0.006,0.017c0,0.01 0.005,0.018 0.015,0.023c0.011,0.005 0.024,0.008 0.041,0.01c0.017,0.001 0.035,0.002 0.054,0.003c0.019,0.001 0.038,0.002 0.055,0.003c0.03,0.003 0.057,0.008 0.082,0.015c0.025,0.007 0.045,0.02 0.06,0.037c0.015,0.017 0.022,0.042 0.022,0.074c-0,0.033 -0.011,0.063 -0.032,0.09c-0.021,0.027 -0.051,0.049 -0.088,0.065c-0.037,0.016 -0.08,0.024 -0.129,0.024c-0.045,0 -0.085,-0.006 -0.12,-0.017c-0.035,-0.011 -0.062,-0.027 -0.081,-0.048c-0.019,-0.02 -0.029,-0.043 -0.029,-0.07c-0,-0.025 0.007,-0.045 0.022,-0.062c0.015,-0.017 0.036,-0.03 0.062,-0.039c-0.013,-0.007 -0.024,-0.017 -0.032,-0.028c-0.007,-0.012 -0.011,-0.027 -0.011,-0.045c-0,-0.017 0.006,-0.033 0.018,-0.049c0.012,-0.017 0.029,-0.03 0.05,-0.041c-0.027,-0.014 -0.047,-0.033 -0.062,-0.056c-0.015,-0.023 -0.022,-0.051 -0.022,-0.082c-0,-0.035 0.009,-0.064 0.027,-0.089c0.018,-0.025 0.042,-0.044 0.073,-0.057c0.031,-0.013 0.066,-0.02 0.104,-0.02Zm0.134,0.545c-0,-0.015 -0.007,-0.026 -0.021,-0.033c-0.013,-0.007 -0.029,-0.012 -0.047,-0.014c-0.007,-0.001 -0.016,-0.002 -0.028,-0.003c-0.011,-0.001 -0.024,-0.001 -0.039,-0.002c-0.014,-0.001 -0.027,-0.001 -0.04,-0.002c-0.013,-0.001 -0.023,-0.002 -0.031,-0.003c-0.013,0.007 -0.025,0.016 -0.034,0.027c-0.009,0.01 -0.013,0.022 -0.013,0.036c-0,0.013 0.005,0.025 0.015,0.034c0.01,0.01 0.024,0.017 0.042,0.022c0.019,0.005 0.041,0.007 0.066,0.007c0.027,0 0.05,-0.003 0.069,-0.008c0.019,-0.005 0.034,-0.013 0.045,-0.023c0.011,-0.01 0.016,-0.023 0.016,-0.038Zm-0.134,-0.293c0.03,0 0.052,-0.008 0.067,-0.023c0.015,-0.015 0.022,-0.035 0.022,-0.06c-0,-0.025 -0.007,-0.045 -0.022,-0.06c-0.014,-0.015 -0.036,-0.022 -0.067,-0.022c-0.03,0 -0.052,0.007 -0.067,0.022c-0.015,0.015 -0.022,0.035 -0.022,0.06c-0,0.025 0.008,0.045 0.023,0.06c0.016,0.015 0.038,0.023 0.066,0.023Z" style="fill:#f2af0d;fill-rule:nonzero;"/></g><g transform="matrix(50,0,0,50,5451.04,-44.1817)"><path d="M0.281,-0.522c0.052,0 0.097,0.011 0.135,0.033c0.038,0.021 0.067,0.052 0.088,0.092c0.021,0.039 0.031,0.086 0.031,0.139c0,0.053 -0.01,0.1 -0.031,0.14c-0.021,0.039 -0.05,0.07 -0.088,0.093c-0.038,0.022 -0.083,0.033 -0.135,0.033c-0.051,-0 -0.096,-0.011 -0.135,-0.033c-0.038,-0.023 -0.068,-0.054 -0.089,-0.093c-0.021,-0.04 -0.032,-0.087 -0.032,-0.14c-0,-0.053 0.011,-0.1 0.032,-0.139c0.021,-0.04 0.051,-0.071 0.089,-0.092c0.039,-0.022 0.084,-0.033 0.135,-0.033Zm0,0.434c0.042,0 0.073,-0.014 0.093,-0.043c0.02,-0.029 0.03,-0.071 0.03,-0.126c0,-0.037 -0.004,-0.068 -0.013,-0.093c-0.009,-0.025 -0.022,-0.044 -0.041,-0.057c-0.018,-0.013 -0.041,-0.019 -0.069,-0.019c-0.028,0 -0.051,0.007 -0.07,0.02c-0.019,0.013 -0.033,0.032 -0.042,0.057c-0.009,0.025 -0.013,0.055 -0.013,0.092c0,0.054 0.01,0.096 0.03,0.125c0.021,0.029 0.052,0.044 0.095,0.044Z" style="fill:#f2af0d;fill-rule:nonzero;"/></g><g transform="matrix(50,0,0,50,5479.09,-44.1817)"></g><g transform="matrix(50,0,0,50,5491.39,-44.1817)"><path d="M0.102,-0l0,-0.514l0.074,0c0.013,0 0.022,0.003 0.027,0.008c0.005,0.005 0.009,0.013 0.011,0.024l0.007,0.061c0.019,-0.032 0.04,-0.057 0.064,-0.075c0.025,-0.018 0.052,-0.027 0.083,-0.027c0.013,0 0.024,0.002 0.034,0.005c0.011,0.003 0.02,0.007 0.028,0.012l-0.016,0.094c-0.001,0.006 -0.003,0.01 -0.007,0.013c-0.003,0.002 -0.008,0.003 -0.013,0.003c-0.003,-0 -0.011,-0.001 -0.023,-0.003c-0.012,-0.002 -0.023,-0.003 -0.032,-0.003c-0.025,0 -0.047,0.007 -0.065,0.021c-0.018,0.014 -0.033,0.034 -0.046,0.061l0,0.32l-0.126,-0Zm0.102,-0l0.013,-0.101l0.057,0.012c0.009,0.002 0.016,0.005 0.021,0.01c0.005,0.005 0.008,0.012 0.008,0.021l-0,0.058l-0.099,0Zm-0.177,0l-0,-0.058c-0,-0.009 0.002,-0.016 0.007,-0.021c0.005,-0.005 0.013,-0.008 0.022,-0.01l0.057,-0.012l0.013,0.101l-0.099,-0Zm0.099,-0.514l-0.013,0.101l-0.057,-0.012c-0.009,-0.002 -0.017,-0.005 -0.022,-0.01c-0.005,-0.005 -0.007,-0.012 -0.007,-0.021l-0,-0.058l0.099,0Z" style="fill:#40c9e0;fill-rule:nonzero;"/></g><g transform="matrix(50,0,0,50,5513.29,-44.1817)"><path d="M0.279,0.008c-0.051,0 -0.096,-0.011 -0.134,-0.034c-0.038,-0.023 -0.068,-0.056 -0.089,-0.097c-0.021,-0.042 -0.031,-0.09 -0.031,-0.145c-0,-0.048 0.01,-0.091 0.031,-0.129c0.021,-0.039 0.05,-0.069 0.087,-0.091c0.037,-0.023 0.081,-0.034 0.13,-0.034c0.045,0 0.084,0.01 0.117,0.029c0.034,0.019 0.06,0.045 0.078,0.08c0.019,0.035 0.028,0.076 0.028,0.124c-0,0.018 -0.002,0.031 -0.005,0.038c-0.003,0.007 -0.011,0.01 -0.024,0.01l-0.315,0l-0,0.006c-0,0.002 0,0.004 0.001,0.006c0.005,0.047 0.02,0.082 0.043,0.105c0.024,0.023 0.055,0.035 0.094,0.035c0.018,-0 0.036,-0.004 0.054,-0.011c0.019,-0.007 0.036,-0.015 0.051,-0.022c0.015,-0.008 0.028,-0.012 0.037,-0.012c0.009,-0 0.017,0.004 0.023,0.011l0.037,0.046c-0.018,0.021 -0.039,0.037 -0.063,0.05c-0.023,0.013 -0.048,0.022 -0.074,0.027c-0.025,0.005 -0.051,0.008 -0.076,0.008Zm-0.125,-0.324l0.229,0c0,-0.033 -0.009,-0.061 -0.027,-0.083c-0.018,-0.022 -0.045,-0.033 -0.08,-0.033c-0.035,0 -0.063,0.01 -0.084,0.03c-0.02,0.02 -0.033,0.049 -0.038,0.086Z" style="fill:#40c9e0;fill-rule:nonzero;"/></g><g transform="matrix(50,0,0,50,5539.39,-44.1817)"><path d="M0.289,0.008c-0.021,0 -0.043,-0.001 -0.067,-0.003c-0.023,-0.001 -0.047,-0.004 -0.072,-0.008c-0.025,-0.004 -0.048,-0.01 -0.071,-0.017l0,-0.724l0.127,0l0,0.293c0.02,-0.021 0.043,-0.038 0.068,-0.051c0.026,-0.013 0.056,-0.02 0.09,-0.02c0.04,0 0.074,0.011 0.102,0.033c0.028,0.022 0.049,0.052 0.064,0.091c0.015,0.039 0.023,0.083 0.023,0.134c0,0.052 -0.009,0.098 -0.026,0.139c-0.017,0.041 -0.045,0.073 -0.084,0.097c-0.039,0.024 -0.09,0.036 -0.154,0.036Zm0.009,-0.095c0.028,-0 0.051,-0.006 0.069,-0.019c0.019,-0.013 0.032,-0.033 0.041,-0.059c0.009,-0.026 0.014,-0.058 0.014,-0.097c-0,-0.053 -0.008,-0.094 -0.025,-0.121c-0.016,-0.028 -0.042,-0.042 -0.077,-0.042c-0.025,0 -0.047,0.005 -0.065,0.016c-0.017,0.01 -0.034,0.025 -0.049,0.045l0,0.265c0.019,0.005 0.036,0.008 0.049,0.01c0.013,0.001 0.028,0.002 0.043,0.002Zm-0.195,-0.657l-0.012,0.101l-0.058,-0.012c-0.009,-0.002 -0.016,-0.005 -0.021,-0.01c-0.005,-0.005 -0.008,-0.012 -0.008,-0.021l0,-0.058l0.099,0Z" style="fill:#40c9e0;fill-rule:nonzero;"/></g><g transform="matrix(50,0,0,50,5568.34,-44.1817)"><path d="M0.281,-0.522c0.052,0 0.097,0.011 0.135,0.033c0.038,0.021 0.067,0.052 0.088,0.092c0.021,0.039 0.031,0.086 0.031,0.139c0,0.053 -0.01,0.1 -0.031,0.14c-0.021,0.039 -0.05,0.07 -0.088,0.093c-0.038,0.022 -0.083,0.033 -0.135,0.033c-0.051,-0 -0.096,-0.011 -0.135,-0.033c-0.038,-0.023 -0.068,-0.054 -0.089,-0.093c-0.021,-0.04 -0.032,-0.087 -0.032,-0.14c-0,-0.053 0.011,-0.1 0.032,-0.139c0.021,-0.04 0.051,-0.071 0.089,-0.092c0.039,-0.022 0.084,-0.033 0.135,-0.033Zm0,0.434c0.042,0 0.073,-0.014 0.093,-0.043c0.02,-0.029 0.03,-0.071 0.03,-0.126c0,-0.037 -0.004,-0.068 -0.013,-0.093c-0.009,-0.025 -0.022,-0.044 -0.041,-0.057c-0.018,-0.013 -0.041,-0.019 -0.069,-0.019c-0.028,0 -0.051,0.007 -0.07,0.02c-0.019,0.013 -0.033,0.032 -0.042,0.057c-0.009,0.025 -0.013,0.055 -0.013,0.092c0,0.054 0.01,0.096 0.03,0.125c0.021,0.029 0.052,0.044 0.095,0.044Z" style="fill:#40c9e0;fill-rule:nonzero;"/></g><g transform="matrix(50,0,0,50,5596.39,-44.1817)"><path d="M0.281,-0.522c0.052,0 0.097,0.011 0.135,0.033c0.038,0.021 0.067,0.052 0.088,0.092c0.021,0.039 0.031,0.086 0.031,0.139c0,0.053 -0.01,0.1 -0.031,0.14c-0.021,0.039 -0.05,0.07 -0.088,0.093c-0.038,0.022 -0.083,0.033 -0.135,0.033c-0.051,-0 -0.096,-0.011 -0.135,-0.033c-0.038,-0.023 -0.068,-0.054 -0.089,-0.093c-0.021,-0.04 -0.032,-0.087 -0.032,-0.14c-0,-0.053 0.011,-0.1 0.032,-0.139c0.021,-0.04 0.051,-0.071 0.089,-0.092c0.039,-0.022 0.084,-0.033 0.135,-0.033Zm0,0.434c0.042,0 0.073,-0.014 0.093,-0.043c0.02,-0.029 0.03,-0.071 0.03,-0.126c0,-0.037 -0.004,-0.068 -0.013,-0.093c-0.009,-0.025 -0.022,-0.044 -0.041,-0.057c-0.018,-0.013 -0.041,-0.019 -0.069,-0.019c-0.028,0 -0.051,0.007 -0.07,0.02c-0.019,0.013 -0.033,0.032 -0.042,0.057c-0.009,0.025 -0.013,0.055 -0.013,0.092c0,0.054 0.01,0.096 0.03,0.125c0.021,0.029 0.052,0.044 0.095,0.044Z" style="fill:#40c9e0;fill-rule:nonzero;"/></g><g transform="matrix(50,0,0,50,5624.44,-44.1817)"><path d="M0.227,0.008c-0.045,0 -0.079,-0.013 -0.104,-0.038c-0.024,-0.025 -0.036,-0.06 -0.036,-0.105l0,-0.286l-0.052,0c-0.007,0 -0.012,-0.002 -0.017,-0.006c-0.005,-0.004 -0.007,-0.01 -0.007,-0.019l0,-0.05l0.083,-0.014l0.026,-0.139c0.003,-0.014 0.012,-0.021 0.028,-0.021l0.065,0l0,0.161l0.135,0l0,0.088l-0.135,0l0,0.278c0,0.016 0.004,0.029 0.012,0.038c0.008,0.009 0.019,0.013 0.032,0.013c0.007,0 0.014,-0.001 0.02,-0.004c0.006,-0.003 0.012,-0.006 0.017,-0.009c0.005,-0.003 0.01,-0.004 0.014,-0.004c0.006,0 0.011,0.004 0.016,0.011l0.038,0.061c-0.018,0.014 -0.039,0.025 -0.062,0.033c-0.023,0.008 -0.048,0.012 -0.073,0.012Z" style="fill:#40c9e0;fill-rule:nonzero;"/></g><g transform="matrix(50,0,0,50,5643.54,-44.1817)"><path d="M0.171,0.158c-0.025,-0.037 -0.046,-0.075 -0.063,-0.114c-0.017,-0.039 -0.031,-0.077 -0.042,-0.116c-0.011,-0.039 -0.019,-0.079 -0.025,-0.119c-0.005,-0.04 -0.008,-0.081 -0.008,-0.123c0,-0.041 0.003,-0.082 0.008,-0.122c0.006,-0.041 0.014,-0.08 0.025,-0.119c0.011,-0.039 0.025,-0.078 0.042,-0.116c0.017,-0.039 0.038,-0.077 0.063,-0.115l0.056,0.034c0.005,0.003 0.009,0.006 0.012,0.01c0.004,0.004 0.006,0.009 0.006,0.016c-0,0.005 -0.002,0.013 -0.007,0.022c-0.031,0.058 -0.055,0.121 -0.071,0.188c-0.016,0.067 -0.024,0.134 -0.024,0.202c0,0.067 0.008,0.135 0.025,0.202c0.017,0.067 0.041,0.129 0.071,0.188c0.004,0.007 0.006,0.015 0.006,0.022c-0,0.007 -0.002,0.012 -0.006,0.016c-0.003,0.004 -0.007,0.008 -0.012,0.011l-0.056,0.033Z" style="fill:#40c9e0;fill-rule:nonzero;"/></g><g transform="matrix(50,0,0,50,5656.94,-44.1817)"><path d="M0.097,0.158l-0.057,-0.033c-0.005,-0.003 -0.009,-0.007 -0.013,-0.011c-0.003,-0.004 -0.005,-0.009 -0.005,-0.016c0,-0.007 0.002,-0.015 0.006,-0.022c0.031,-0.059 0.054,-0.121 0.071,-0.188c0.017,-0.067 0.025,-0.135 0.025,-0.202c0,-0.068 -0.008,-0.135 -0.024,-0.202c-0.016,-0.067 -0.04,-0.13 -0.071,-0.188c-0.005,-0.009 -0.007,-0.017 -0.007,-0.022c0,-0.007 0.002,-0.012 0.005,-0.016c0.004,-0.004 0.008,-0.007 0.013,-0.01l0.057,-0.034c0.024,0.038 0.045,0.076 0.062,0.115c0.018,0.038 0.032,0.077 0.043,0.116c0.011,0.039 0.019,0.078 0.024,0.119c0.005,0.04 0.008,0.081 0.008,0.122c0,0.042 -0.003,0.083 -0.008,0.123c-0.005,0.04 -0.013,0.08 -0.024,0.119c-0.011,0.039 -0.025,0.077 -0.043,0.116c-0.017,0.039 -0.038,0.077 -0.062,0.114Z" style="fill:#40c9e0;fill-rule:nonzero;"/></g><g transform="matrix(50,0,0,50,5670.29,-44.1817)"></g></g></g></g></svg>