<?xml version="1.0" encoding="UTF-8" standalone="no"?><!DOCTYPE svg PUBLIC "-//W3C//DTD SVG 1.1//EN" "http://www.w3.org/Graphics/SVG/1.1/DTD/svg11.dtd"><svg width="100%" height="100%" viewBox="0 0 600 600" version="1.1" xmlns="http://www.w3.org/2000/svg" xmlns:xlink="http://www.w3.org/1999/xlink" xml:space="preserve" xmlns:serif="http://www.serif.com/" style="fill-rule:evenodd;clip-rule:evenodd;stroke-linecap:round;stroke-linejoin:round;stroke-miterlimit:1.5;"><rect id="_17" serif:id="17" x="0" y="0" width="600" height="600" style="fill:none;"/><g><g transform="matrix(1.50495,0,0,1.50495,-8073.55,640.462)"><g transform="matrix(50,0,0,50,5425.34,-44.1817)"><path d="M0.236,-0.522c0.022,0 0.043,0.002 0.062,0.007c0.019,0.004 0.037,0.01 0.054,0.019l0.148,0l0,0.047c0,0.007 -0.002,0.012 -0.007,0.017c-0.004,0.005 -0.011,0.008 -0.021,0.01l-0.046,0.008c0.008,0.017 0.012,0.037 0.012,0.058c0,0.034 -0.009,0.063 -0.027,0.088c-0.018,0.025 -0.042,0.044 -0.073,0.058c-0.03,0.013 -0.064,0.02 -0.102,0.02c-0.009,0 -0.019,-0 -0.028,-0.001c-0.009,-0.001 -0.018,-0.003 -0.027,-0.004c-0.007,0.005 -0.013,0.01 -0.018,0.015c-0.004,0.005 -0.006,0.011 -0.006,0.017c0,0.01 0.005,0.018 0.015,0.023c0.011,0.005 0.024,0.008 0.041,0.01c0.017,0.001 0.035,0.002 0.054,0.003c0.019,0.001 0.038,0.002 0.055,0.003c0.03,0.003 0.057,0.008 0.082,0.015c0.025,0.007 0.045,0.02 0.06,0.037c0.015,0.017 0.022,0.042 0.022,0.074c-0,0.033 -0.011,0.063 -0.032,0.09c-0.021,0.027 -0.051,0.049 -0.088,0.065c-0.037,0.016 -0.08,0.024 -0.129,0.024c-0.045,0 -0.085,-0.006 -0.12,-0.017c-0.035,-0.011 -0.062,-0.027 -0.081,-0.048c-0.019,-0.02 -0.029,-0.043 -0.029,-0.07c-0,-0.025 0.007,-0.045 0.022,-0.062c0.015,-0.017 0.036,-0.03 0.062,-0.039c-0.013,-0.007 -0.024,-0.017 -0.032,-0.028c-0.007,-0.012 -0.011,-0.027 -0.011,-0.045c-0,-0.017 0.006,-0.033 0.018,-0.049c0.012,-0.017 0.029,-0.03 0.05,-0.041c-0.027,-0.014 -0.047,-0.033 -0.062,-0.056c-0.015,-0.023 -0.022,-0.051 -0.022,-0.082c-0,-0.035 0.009,-0.064 0.027,-0.089c0.018,-0.025 0.042,-0.044 0.073,-0.057c0.031,-0.013 0.066,-0.02 0.104,-0.02Zm0.134,0.545c-0,-0.015 -0.007,-0.026 -0.021,-0.033c-0.013,-0.007 -0.029,-0.012 -0.047,-0.014c-0.007,-0.001 -0.016,-0.002 -0.028,-0.003c-0.011,-0.001 -0.024,-0.001 -0.039,-0.002c-0.014,-0.001 -0.027,-0.001 -0.04,-0.002c-0.013,-0.001 -0.023,-0.002 -0.031,-0.003c-0.013,0.007 -0.025,0.016 -0.034,0.027c-0.009,0.01 -0.013,0.022 -0.013,0.036c-0,0.013 0.005,0.025 0.015,0.034c0.01,0.01 0.024,0.017 0.042,0.022c0.019,0.005 0.041,0.007 0.066,0.007c0.027,0 0.05,-0.003 0.069,-0.008c0.019,-0.005 0.034,-0.013 0.045,-0.023c0.011,-0.01 0.016,-0.023 0.016,-0.038Zm-0.134,-0.293c0.03,0 0.052,-0.008 0.067,-0.023c0.015,-0.015 0.022,-0.035 0.022,-0.06c-0,-0.025 -0.007,-0.045 -0.022,-0.06c-0.014,-0.015 -0.036,-0.022 -0.067,-0.022c-0.03,0 -0.052,0.007 -0.067,0.022c-0.015,0.015 -0.022,0.035 -0.022,0.06c-0,0.025 0.008,0.045 0.023,0.06c0.016,0.015 0.038,0.023 0.066,0.023Z" style="fill:#f2af0d;fill-rule:nonzero;"/></g><g transform="matrix(50,0,0,50,5451.04,-44.1817)"><path d="M0.281,-0.522c0.052,0 0.097,0.011 0.135,0.033c0.038,0.021 0.067,0.052 0.088,0.092c0.021,0.039 0.031,0.086 0.031,0.139c0,0.053 -0.01,0.1 -0.031,0.14c-0.021,0.039 -0.05,0.07 -0.088,0.093c-0.038,0.022 -0.083,0.033 -0.135,0.033c-0.051,-0 -0.096,-0.011 -0.135,-0.033c-0.038,-0.023 -0.068,-0.054 -0.089,-0.093c-0.021,-0.04 -0.032,-0.087 -0.032,-0.14c-0,-0.053 0.011,-0.1 0.032,-0.139c0.021,-0.04 0.051,-0.071 0.089,-0.092c0.039,-0.022 0.084,-0.033 0.135,-0.033Zm0,0.434c0.042,0 0.073,-0.014 0.093,-0.043c0.02,-0.029 0.03,-0.071 0.03,-0.126c0,-0.037 -0.004,-0.068 -0.013,-0.093c-0.009,-0.025 -0.022,-0.044 -0.041,-0.057c-0.018,-0.013 -0.041,-0.019 -0.069,-0.019c-0.028,0 -0.051,0.007 -0.07,0.02c-0.019,0.013 -0.033,0.032 -0.042,0.057c-0.009,0.025 -0.013,0.055 -0.013,0.092c0,0.054 0.01,0.096 0.03,0.125c0.021,0.029 0.052,0.044 0.095,0.044Z" style="fill:#f2af0d;fill-rule:nonzero;"/></g><g transform="matrix(50,0,0,50,5479.09,-44.1817)"></g><g transform="matrix(50,0,0,50,5491.39,-44.1817)"><path d="M0.257,0.008c-0.044,0 -0.084,-0.011 -0.119,-0.033c-0.035,-0.023 -0.062,-0.054 -0.083,-0.093c-0.02,-0.04 -0.03,-0.087 -0.03,-0.14c-0,-0.051 0.01,-0.097 0.029,-0.136c0.019,-0.04 0.048,-0.071 0.085,-0.094c0.037,-0.023 0.083,-0.034 0.137,-0.034c0.025,0 0.052,0.003 0.079,0.01c0.028,0.006 0.056,0.015 0.083,0.027l-0,0.073l-0.064,0.008c-0.013,-0.008 -0.027,-0.014 -0.041,-0.017c-0.013,-0.004 -0.03,-0.006 -0.049,-0.006c-0.029,0 -0.054,0.007 -0.073,0.021c-0.019,0.014 -0.033,0.034 -0.042,0.059c-0.009,0.025 -0.013,0.055 -0.013,0.089c-0,0.053 0.011,0.095 0.032,0.126c0.022,0.03 0.053,0.045 0.092,0.045c0.021,0 0.039,-0.004 0.054,-0.011c0.015,-0.008 0.027,-0.016 0.038,-0.024c0.011,-0.008 0.02,-0.012 0.029,-0.012c0.005,0 0.01,0.001 0.013,0.003c0.004,0.002 0.007,0.005 0.01,0.008l0.036,0.046c-0.027,0.032 -0.059,0.054 -0.094,0.067c-0.035,0.012 -0.072,0.018 -0.109,0.018Zm0.092,-0.442l0.089,0.022l-0,0.078l-0.046,-0c-0.009,-0 -0.016,-0.003 -0.021,-0.008c-0.005,-0.005 -0.008,-0.012 -0.01,-0.021l-0.012,-0.071Z" style="fill:#40c9e0;fill-rule:nonzero;"/></g><g transform="matrix(50,0,0,50,5515.39,-44.1817)"><path d="M0.281,-0.522c0.052,0 0.097,0.011 0.135,0.033c0.038,0.021 0.067,0.052 0.088,0.092c0.021,0.039 0.031,0.086 0.031,0.139c0,0.053 -0.01,0.1 -0.031,0.14c-0.021,0.039 -0.05,0.07 -0.088,0.093c-0.038,0.022 -0.083,0.033 -0.135,0.033c-0.051,-0 -0.096,-0.011 -0.135,-0.033c-0.038,-0.023 -0.068,-0.054 -0.089,-0.093c-0.021,-0.04 -0.032,-0.087 -0.032,-0.14c-0,-0.053 0.011,-0.1 0.032,-0.139c0.021,-0.04 0.051,-0.071 0.089,-0.092c0.039,-0.022 0.084,-0.033 0.135,-0.033Zm0,0.434c0.042,0 0.073,-0.014 0.093,-0.043c0.02,-0.029 0.03,-0.071 0.03,-0.126c0,-0.037 -0.004,-0.068 -0.013,-0.093c-0.009,-0.025 -0.022,-0.044 -0.041,-0.057c-0.018,-0.013 -0.041,-0.019 -0.069,-0.019c-0.028,0 -0.051,0.007 -0.07,0.02c-0.019,0.013 -0.033,0.032 -0.042,0.057c-0.009,0.025 -0.013,0.055 -0.013,0.092c0,0.054 0.01,0.096 0.03,0.125c0.021,0.029 0.052,0.044 0.095,0.044Z" style="fill:#40c9e0;fill-rule:nonzero;"/></g><g transform="matrix(50,0,0,50,5543.44,-44.1817)"><path d="M0.102,-0l0,-0.514l0.077,0c0.017,0 0.028,0.008 0.032,0.023l0.008,0.041c0.021,-0.022 0.045,-0.039 0.07,-0.052c0.025,-0.013 0.055,-0.02 0.089,-0.02c0.037,0 0.069,0.008 0.094,0.025c0.026,0.017 0.046,0.04 0.059,0.069c0.013,0.029 0.02,0.063 0.02,0.101l0,0.327l-0.127,-0l-0,-0.327c-0,-0.031 -0.007,-0.055 -0.021,-0.072c-0.014,-0.017 -0.035,-0.026 -0.064,-0.026c-0.021,0 -0.04,0.005 -0.059,0.015c-0.018,0.009 -0.035,0.022 -0.052,0.039l-0,0.371l-0.126,-0Zm-0.075,-0l-0,-0.058c-0,-0.009 0.002,-0.016 0.007,-0.021c0.005,-0.005 0.013,-0.008 0.022,-0.01l0.057,-0.012l0.013,0.101l-0.099,-0Zm0.177,-0l0.013,-0.101l0.057,0.012c0.009,0.002 0.016,0.005 0.021,0.01c0.005,0.005 0.008,0.012 0.008,0.021l-0,0.058l-0.099,-0Zm0.323,-0l0.012,-0.101l0.058,0.012c0.009,0.002 0.016,0.005 0.021,0.01c0.005,0.005 0.008,0.012 0.008,0.021l-0,0.058l-0.099,0Zm-0.401,-0.514l-0.013,0.101l-0.057,-0.012c-0.009,-0.002 -0.017,-0.005 -0.022,-0.01c-0.005,-0.005 -0.007,-0.012 -0.007,-0.021l-0,-0.058l0.099,0Z" style="fill:#40c9e0;fill-rule:nonzero;"/></g><g transform="matrix(50,0,0,50,5575.59,-44.1817)"><path d="M0.102,-0l0,-0.514l0.077,0c0.017,0 0.028,0.008 0.032,0.023l0.008,0.041c0.021,-0.022 0.045,-0.039 0.07,-0.052c0.025,-0.013 0.055,-0.02 0.089,-0.02c0.037,0 0.069,0.008 0.094,0.025c0.026,0.017 0.046,0.04 0.059,0.069c0.013,0.029 0.02,0.063 0.02,0.101l0,0.327l-0.127,-0l-0,-0.327c-0,-0.031 -0.007,-0.055 -0.021,-0.072c-0.014,-0.017 -0.035,-0.026 -0.064,-0.026c-0.021,0 -0.04,0.005 -0.059,0.015c-0.018,0.009 -0.035,0.022 -0.052,0.039l-0,0.371l-0.126,-0Zm-0.075,-0l-0,-0.058c-0,-0.009 0.002,-0.016 0.007,-0.021c0.005,-0.005 0.013,-0.008 0.022,-0.01l0.057,-0.012l0.013,0.101l-0.099,-0Zm0.177,-0l0.013,-0.101l0.057,0.012c0.009,0.002 0.016,0.005 0.021,0.01c0.005,0.005 0.008,0.012 0.008,0.021l-0,0.058l-0.099,-0Zm0.323,-0l0.012,-0.101l0.058,0.012c0.009,0.002 0.016,0.005 0.021,0.01c0.005,0.005 0.008,0.012 0.008,0.021l-0,0.058l-0.099,0Zm-0.401,-0.514l-0.013,0.101l-0.057,-0.012c-0.009,-0.002 -0.017,-0.005 -0.022,-0.01c-0.005,-0.005 -0.007,-0.012 -0.007,-0.021l-0,-0.058l0.099,0Z" style="fill:#40c9e0;fill-rule:nonzero;"/></g><g transform="matrix(50,0,0,50,5607.74,-44.1817)"><path d="M0.279,0.008c-0.051,0 -0.096,-0.011 -0.134,-0.034c-0.038,-0.023 -0.068,-0.056 -0.089,-0.097c-0.021,-0.042 -0.031,-0.09 -0.031,-0.145c-0,-0.048 0.01,-0.091 0.031,-0.129c0.021,-0.039 0.05,-0.069 0.087,-0.091c0.037,-0.023 0.081,-0.034 0.13,-0.034c0.045,0 0.084,0.01 0.117,0.029c0.034,0.019 0.06,0.045 0.078,0.08c0.019,0.035 0.028,0.076 0.028,0.124c-0,0.018 -0.002,0.031 -0.005,0.038c-0.003,0.007 -0.011,0.01 -0.024,0.01l-0.315,0l-0,0.006c-0,0.002 0,0.004 0.001,0.006c0.005,0.047 0.02,0.082 0.043,0.105c0.024,0.023 0.055,0.035 0.094,0.035c0.018,-0 0.036,-0.004 0.054,-0.011c0.019,-0.007 0.036,-0.015 0.051,-0.022c0.015,-0.008 0.028,-0.012 0.037,-0.012c0.009,-0 0.017,0.004 0.023,0.011l0.037,0.046c-0.018,0.021 -0.039,0.037 -0.063,0.05c-0.023,0.013 -0.048,0.022 -0.074,0.027c-0.025,0.005 -0.051,0.008 -0.076,0.008Zm-0.125,-0.324l0.229,0c0,-0.033 -0.009,-0.061 -0.027,-0.083c-0.018,-0.022 -0.045,-0.033 -0.08,-0.033c-0.035,0 -0.063,0.01 -0.084,0.03c-0.02,0.02 -0.033,0.049 -0.038,0.086Z" style="fill:#40c9e0;fill-rule:nonzero;"/></g><g transform="matrix(50,0,0,50,5633.84,-44.1817)"><path d="M0.257,0.008c-0.044,0 -0.084,-0.011 -0.119,-0.033c-0.035,-0.023 -0.062,-0.054 -0.083,-0.093c-0.02,-0.04 -0.03,-0.087 -0.03,-0.14c-0,-0.051 0.01,-0.097 0.029,-0.136c0.019,-0.04 0.048,-0.071 0.085,-0.094c0.037,-0.023 0.083,-0.034 0.137,-0.034c0.025,0 0.052,0.003 0.079,0.01c0.028,0.006 0.056,0.015 0.083,0.027l-0,0.073l-0.064,0.008c-0.013,-0.008 -0.027,-0.014 -0.041,-0.017c-0.013,-0.004 -0.03,-0.006 -0.049,-0.006c-0.029,0 -0.054,0.007 -0.073,0.021c-0.019,0.014 -0.033,0.034 -0.042,0.059c-0.009,0.025 -0.013,0.055 -0.013,0.089c-0,0.053 0.011,0.095 0.032,0.126c0.022,0.03 0.053,0.045 0.092,0.045c0.021,0 0.039,-0.004 0.054,-0.011c0.015,-0.008 0.027,-0.016 0.038,-0.024c0.011,-0.008 0.02,-0.012 0.029,-0.012c0.005,0 0.01,0.001 0.013,0.003c0.004,0.002 0.007,0.005 0.01,0.008l0.036,0.046c-0.027,0.032 -0.059,0.054 -0.094,0.067c-0.035,0.012 -0.072,0.018 -0.109,0.018Zm0.092,-0.442l0.089,0.022l-0,0.078l-0.046,-0c-0.009,-0 -0.016,-0.003 -0.021,-0.008c-0.005,-0.005 -0.008,-0.012 -0.01,-0.021l-0.012,-0.071Z" style="fill:#40c9e0;fill-rule:nonzero;"/></g><g transform="matrix(50,0,0,50,5657.84,-44.1817)"><path d="M0.227,0.008c-0.045,0 -0.079,-0.013 -0.104,-0.038c-0.024,-0.025 -0.036,-0.06 -0.036,-0.105l0,-0.286l-0.052,0c-0.007,0 -0.012,-0.002 -0.017,-0.006c-0.005,-0.004 -0.007,-0.01 -0.007,-0.019l0,-0.05l0.083,-0.014l0.026,-0.139c0.003,-0.014 0.012,-0.021 0.028,-0.021l0.065,0l0,0.161l0.135,0l0,0.088l-0.135,0l0,0.278c0,0.016 0.004,0.029 0.012,0.038c0.008,0.009 0.019,0.013 0.032,0.013c0.007,0 0.014,-0.001 0.02,-0.004c0.006,-0.003 0.012,-0.006 0.017,-0.009c0.005,-0.003 0.01,-0.004 0.014,-0.004c0.006,0 0.011,0.004 0.016,0.011l0.038,0.061c-0.018,0.014 -0.039,0.025 -0.062,0.033c-0.023,0.008 -0.048,0.012 -0.073,0.012Z" style="fill:#40c9e0;fill-rule:nonzero;"/></g><g transform="matrix(50,0,0,50,5676.94,-44.1817)"><path d="M0.171,0.158c-0.025,-0.037 -0.046,-0.075 -0.063,-0.114c-0.017,-0.039 -0.031,-0.077 -0.042,-0.116c-0.011,-0.039 -0.019,-0.079 -0.025,-0.119c-0.005,-0.04 -0.008,-0.081 -0.008,-0.123c0,-0.041 0.003,-0.082 0.008,-0.122c0.006,-0.041 0.014,-0.08 0.025,-0.119c0.011,-0.039 0.025,-0.078 0.042,-0.116c0.017,-0.039 0.038,-0.077 0.063,-0.115l0.056,0.034c0.005,0.003 0.009,0.006 0.012,0.01c0.004,0.004 0.006,0.009 0.006,0.016c-0,0.005 -0.002,0.013 -0.007,0.022c-0.031,0.058 -0.055,0.121 -0.071,0.188c-0.016,0.067 -0.024,0.134 -0.024,0.202c0,0.067 0.008,0.135 0.025,0.202c0.017,0.067 0.041,0.129 0.071,0.188c0.004,0.007 0.006,0.015 0.006,0.022c-0,0.007 -0.002,0.012 -0.006,0.016c-0.003,0.004 -0.007,0.008 -0.012,0.011l-0.056,0.033Z" style="fill:#40c9e0;fill-rule:nonzero;"/></g><g transform="matrix(50,0,0,50,5690.34,-44.1817)"><path d="M0.097,0.158l-0.057,-0.033c-0.005,-0.003 -0.009,-0.007 -0.013,-0.011c-0.003,-0.004 -0.005,-0.009 -0.005,-0.016c0,-0.007 0.002,-0.015 0.006,-0.022c0.031,-0.059 0.054,-0.121 0.071,-0.188c0.017,-0.067 0.025,-0.135 0.025,-0.202c0,-0.068 -0.008,-0.135 -0.024,-0.202c-0.016,-0.067 -0.04,-0.13 -0.071,-0.188c-0.005,-0.009 -0.007,-0.017 -0.007,-0.022c0,-0.007 0.002,-0.012 0.005,-0.016c0.004,-0.004 0.008,-0.007 0.013,-0.01l0.057,-0.034c0.024,0.038 0.045,0.076 0.062,0.115c0.018,0.038 0.032,0.077 0.043,0.116c0.011,0.039 0.019,0.078 0.024,0.119c0.005,0.04 0.008,0.081 0.008,0.122c0,0.042 -0.003,0.083 -0.008,0.123c-0.005,0.04 -0.013,0.08 -0.024,0.119c-0.011,0.039 -0.025,0.077 -0.043,0.116c-0.017,0.039 -0.038,0.077 -0.062,0.114Z" style="fill:#40c9e0;fill-rule:nonzero;"/></g><g transform="matrix(50,0,0,50,5703.69,-44.1817)"></g></g><g><path d="M412.04,146.84c0.695,-4.17 9.226,-10.545 12.771,-11.989c43.133,-17.567 28.014,31.895 2.903,29.936" style="fill:#61e0ee;"/><path d="M417.044,147.674c-0.46,2.762 -3.076,4.631 -5.838,4.17c-2.762,-0.46 -4.631,-3.076 -4.17,-5.838c0.328,-1.973 1.573,-4.367 3.58,-6.662c3.504,-4.006 9.354,-7.999 12.282,-9.192c15.805,-6.437 25.227,-4.27 29.816,0.123c4.836,4.629 5.649,12.589 2.482,20.442c-4.189,10.383 -15.058,20.128 -27.877,19.128c-2.791,-0.218 -4.881,-2.661 -4.663,-5.453c0.218,-2.791 2.661,-4.881 5.453,-4.663c8.276,0.645 14.972,-6.104 17.677,-12.808c0.842,-2.087 1.301,-4.189 1.176,-6.086c-0.082,-1.257 -0.413,-2.415 -1.264,-3.23c-1.106,-1.059 -2.861,-1.472 -5.223,-1.461c-3.531,0.016 -8.054,1.086 -13.75,3.406c-1.752,0.713 -4.94,2.948 -7.368,5.316c-0.736,0.718 -1.401,1.448 -1.898,2.162c-0.171,0.245 -0.379,0.432 -0.415,0.646Z"/><path d="M257.344,33.258c0,0 17.692,-18.429 24.326,26.537" style="fill:none;stroke:#61e0ee;stroke-width:7.61px;"/><path d="M318.528,28.835c-0,0 -16.955,-17.691 -22.852,28.749" style="fill:none;stroke:#61e0ee;stroke-width:7.61px;"/><path d="M272.328,13.918c-0,-0 19.906,-12.689 16.234,38.619" style="fill:none;stroke:#61e0ee;stroke-width:7.61px;"/><path d="M212.676,468.704c-0,-0 2.062,-37.725 21.897,-48.945c19.836,-11.219 33.239,3.243 22.436,16.882c-10.802,13.639 -19.774,27.396 -17.352,41.151c2.422,13.756 -28.513,14.704 -26.981,-9.088Z" style="fill:#d6c295;stroke:#000;stroke-width:7.61px;"/><path d="M383.334,473.092c-0,-0 -19.969,-32.073 -10.169,-52.647c9.8,-20.574 29.078,-16.426 28.063,0.943c-1.015,17.369 -0.464,33.783 9.416,43.656c9.88,9.872 -14.906,28.408 -27.31,8.048Z" style="fill:#d6c295;stroke:#000;stroke-width:7.61px;"/><path d="M178.351,114.344c-3.959,1.483 -8.225,-1.01 -11.248,-3.359c-36.78,-28.57 13.485,-40.016 24.344,-17.29" style="fill:#61e0ee;"/><path d="M176.571,109.593c2.622,-0.982 5.548,0.349 6.531,2.971c0.982,2.622 -0.349,5.549 -2.971,6.531c-5.616,2.104 -11.851,-0.772 -16.14,-4.103c-13.475,-10.468 -16.322,-19.692 -14.832,-25.832c1.574,-6.49 8.048,-11.155 16.431,-12.306c11.05,-1.516 24.894,3.057 30.435,14.653c1.207,2.527 0.136,5.558 -2.39,6.765c-2.527,1.207 -5.558,0.136 -6.765,-2.39c-3.581,-7.495 -12.759,-9.955 -19.901,-8.975c-2.215,0.304 -4.252,0.944 -5.822,1.988c-1.03,0.685 -1.854,1.531 -2.127,2.657c-0.359,1.477 0.167,3.193 1.358,5.224c1.785,3.046 4.977,6.427 9.838,10.203c1.138,0.884 2.491,1.825 3.951,2.376c0.784,0.295 1.604,0.538 2.404,0.238Z"/><path d="M180.744,414.963c-0,-0 -19.117,-37.583 -15.505,-69.82c11.309,-100.92 -18.398,-120.719 -6.783,-182.279c4.032,-21.375 11.655,-45.72 24.637,-63.417c28.532,-38.891 83.371,-59.092 131.07,-49.959c19.1,3.657 36.345,11.926 53.414,20.993c59.382,31.546 71.72,98.123 64.003,154.237c-3.416,24.842 -24.774,63.557 -21.649,88.467c6.513,51.927 4.691,80.033 -11.522,113.528c-13.817,28.548 -67.592,50.056 -126.383,43.943c-10.017,-1.042 -69.956,-11.546 -91.282,-55.693Z" style="fill:#61e0ee;"/><clipPath id="_clip1"><path d="M180.744,414.963c-0,-0 -19.117,-37.583 -15.505,-69.82c11.309,-100.92 -18.398,-120.719 -6.783,-182.279c4.032,-21.375 11.655,-45.72 24.637,-63.417c28.532,-38.891 83.371,-59.092 131.07,-49.959c19.1,3.657 36.345,11.926 53.414,20.993c59.382,31.546 71.72,98.123 64.003,154.237c-3.416,24.842 -24.774,63.557 -21.649,88.467c6.513,51.927 4.691,80.033 -11.522,113.528c-13.817,28.548 -67.592,50.056 -126.383,43.943c-10.017,-1.042 -69.956,-11.546 -91.282,-55.693Z"/></clipPath><g clip-path="url(#_clip1)"><path d="M392.989,94.921c0,0 19.714,48.084 7.693,87.032c-12.02,38.948 -33.177,93.283 -29.811,147.617c3.365,54.335 -2.405,89.436 -14.426,104.823c-24.275,31.073 -90.397,35.582 -107.226,30.773c-16.83,-4.808 66.355,17.311 113.958,-1.923c47.603,-19.233 54.335,-100.014 48.084,-150.502c-6.251,-50.488 34.139,-64.913 20.676,-151.945c-21.638,-50.969 -22.119,-48.084 -38.948,-65.875Z" style="fill:#4fcbe0;"/><path d="M313.577,169.55c0,-0 5.909,29.543 41.114,27.819c35.205,-1.723 37.667,-37.667 37.667,-37.667l-78.781,9.848Z" style="fill:#4fcbe0;"/><path d="M163.002,154.532c-0,0 5.908,29.543 41.113,27.82c35.205,-1.724 37.667,-37.667 37.667,-37.667l-78.78,9.847Z" style="fill:#4fcbe0;"/></g><path d="M176.207,417.235l-0.019,-0.038c-0.897,-1.799 -19.66,-39.871 -15.99,-72.619c6.704,-59.835 -1.212,-90.81 -6.114,-119.158c-3.405,-19.685 -5.396,-38.152 -0.614,-63.496c4.166,-22.081 12.122,-47.198 25.533,-65.478c29.634,-40.393 86.572,-61.427 136.115,-51.941c19.602,3.754 37.321,12.19 54.839,21.496c61.442,32.639 74.633,101.348 66.649,159.409c-1.743,12.678 -8.01,28.913 -13.497,45.141c-5.107,15.1 -9.628,30.172 -8.144,42.003c6.677,53.235 4.632,82.031 -11.989,116.37c-5.936,12.264 -18.598,23.479 -35.865,31.909c-24.833,12.124 -59.287,18.646 -95.61,14.869c-6.229,-0.648 -31.094,-4.804 -54.758,-17.927c-16.061,-8.907 -31.519,-21.919 -40.536,-40.54Zm9.105,-4.479c8.049,16.662 21.99,28.181 36.352,36.145c21.997,12.199 45.096,16.106 50.887,16.709c34.226,3.558 66.709,-2.471 90.108,-13.895c14.887,-7.268 26.066,-16.638 31.184,-27.212c15.804,-32.651 17.403,-60.068 11.054,-110.686c-1.326,-10.567 1.367,-23.495 5.47,-36.867c5.721,-18.642 14.167,-38.234 16.187,-52.923c7.449,-54.168 -4.034,-118.614 -61.357,-149.065c-16.619,-8.829 -33.391,-16.93 -51.988,-20.491c-45.856,-8.781 -98.596,10.589 -126.025,47.977c-12.554,17.113 -19.843,40.687 -23.743,61.357c-5.668,30.039 -1.167,49.885 3.284,74.537c4.625,25.61 9.289,56.208 3.556,107.366c-3.465,30.926 14.985,66.955 14.985,66.955c0.015,0.031 0.031,0.062 0.046,0.093Z"/><path d="M278.972,449.856c-59.91,-10.439 -74.136,-38.334 -77.587,-51.067c-6.502,-23.983 -9.651,-70.472 -3.809,-95.194c2.028,-8.584 5.862,-18.361 12.392,-25.468c14.351,-15.618 78.53,-16.976 102.522,-13.308c9.607,1.468 18.281,4.789 26.866,8.43c29.868,12.669 40.142,159.191 -16.543,173.484c-15.139,3.817 -34.333,4.779 -43.841,3.123Z" style="fill:#b7f8ff;"/><circle cx="175.129" cy="190.33" r="4.19" style="fill:#b7f8ff;"/><circle cx="383.138" cy="197.94" r="4.19" style="fill:#b7f8ff;"/><g><path d="M251.976,214.062c1.899,6.015 3.037,17.498 6.936,22.29c1.89,2.323 5.72,2.175 8.217,2.079c14.339,-0.55 13.088,-15.191 14.316,-28.086" style="fill:#ededed;"/><path d="M248.347,215.208c-0.632,-2.003 0.481,-4.142 2.483,-4.774c2.003,-0.633 4.142,0.48 4.774,2.483c1.151,3.644 2.032,9.275 3.398,14.243c0.744,2.706 1.575,5.209 2.861,6.791c0.358,0.439 0.963,0.499 1.532,0.59c1.246,0.2 2.555,0.127 3.588,0.088c2.538,-0.098 4.419,-0.72 5.777,-1.889c1.392,-1.198 2.212,-2.897 2.805,-4.835c1.567,-5.124 1.503,-11.735 2.092,-17.921c0.199,-2.09 2.058,-3.626 4.148,-3.427c2.091,0.199 3.627,2.058 3.428,4.149c-0.639,6.709 -0.691,13.866 -2.391,19.424c-1.04,3.403 -2.672,6.273 -5.117,8.378c-2.479,2.134 -5.818,3.548 -10.45,3.725c-1.812,0.07 -4.202,0.111 -6.32,-0.433c-1.968,-0.505 -3.72,-1.48 -4.995,-3.047c-1.832,-2.252 -3.237,-5.722 -4.296,-9.576c-1.339,-4.872 -2.189,-10.396 -3.317,-13.969Z"/><path d="M267.47,169.394c11.607,0.714 20.662,7.285 20.208,14.664c-0.454,7.379 -10.246,12.791 -21.853,12.077c-11.607,-0.714 -20.662,-7.285 -20.208,-14.664c0.454,-7.379 10.246,-12.791 21.853,-12.077Z"/><path d="M261.613,192.048c0.036,-2.099 1.769,-3.775 3.869,-3.74c2.1,0.036 3.776,1.77 3.74,3.869c-0.109,6.452 -1.196,12.645 -1.678,19.038c-0.158,2.094 -1.986,3.666 -4.08,3.508c-2.094,-0.158 -3.666,-1.987 -3.508,-4.081c0.471,-6.244 1.55,-12.292 1.657,-18.594Z"/><path d="M234.857,209.973c-1.825,-1.038 -2.465,-3.363 -1.427,-5.188c1.038,-1.826 3.363,-2.466 5.188,-1.428c10.355,5.887 20.279,8.242 29.708,6.886c9.43,-1.356 18.3,-6.414 26.594,-15.011c1.458,-1.511 3.869,-1.555 5.38,-0.096c1.512,1.458 1.555,3.868 0.097,5.38c-9.634,9.985 -20.034,15.685 -30.987,17.26c-10.954,1.575 -22.526,-0.966 -34.553,-7.803Z"/><path d="M223.792,71.105c4.42,-1.339 8.573,-0.566 9.268,1.726c0.694,2.292 -2.331,5.241 -6.751,6.58c-4.421,1.34 -8.573,0.567 -9.268,-1.725c-0.695,-2.293 2.33,-5.241 6.751,-6.581Z" style="fill:#b7f8ff;"/><path d="M385.06,90.685c2.971,3.537 3.893,7.659 2.059,9.2c-1.834,1.54 -5.735,-0.081 -8.705,-3.618c-2.971,-3.538 -3.893,-7.66 -2.059,-9.2c1.834,-1.54 5.735,0.081 8.705,3.618Z" style="fill:#b7f8ff;"/><path d="M193.878,86.452c23.551,-3.354 45.394,13.044 48.748,36.595c3.354,23.551 -13.043,45.394 -36.594,48.748c-23.551,3.354 -45.394,-13.043 -48.748,-36.594c-3.354,-23.551 13.043,-45.395 36.594,-48.749Z" style="fill:#fff;stroke:#000;stroke-width:7.61px;"/><path d="M345.791,99.074c23.551,-3.354 45.395,13.044 48.748,36.595c3.354,23.551 -13.043,45.394 -36.594,48.748c-23.551,3.354 -45.394,-13.043 -48.748,-36.594c-3.354,-23.551 13.043,-45.395 36.594,-48.749Z" style="fill:#fff;stroke:#000;stroke-width:7.61px;"/><path d="M205.827,128.951c8.365,-1.191 16.124,4.633 17.315,12.998c1.192,8.365 -4.633,16.124 -12.998,17.315c-8.365,1.191 -16.123,-4.633 -17.315,-12.998c-1.191,-8.365 4.633,-16.124 12.998,-17.315Z"/><path d="M338.424,138.065c8.365,-1.191 16.123,4.633 17.315,12.998c1.191,8.365 -4.633,16.124 -12.998,17.315c-8.365,1.191 -16.124,-4.633 -17.315,-12.998c-1.192,-8.365 4.633,-16.124 12.998,-17.315Z"/><path d="M210.665,145.139c2.348,-0.334 4.527,1.301 4.861,3.65c0.335,2.348 -1.301,4.527 -3.649,4.861c-2.349,0.335 -4.527,-1.3 -4.862,-3.649c-0.334,-2.349 1.301,-4.527 3.65,-4.862Z" style="fill:#fff;"/><path d="M334.378,153.883c2.349,-0.334 4.527,1.301 4.862,3.65c0.334,2.349 -1.301,4.527 -3.65,4.861c-2.348,0.335 -4.527,-1.3 -4.861,-3.649c-0.335,-2.349 1.301,-4.527 3.649,-4.862Z" style="fill:#fff;"/></g></g><path d="M243.999,283.74c-0,-0 -38.827,-8.824 -55.593,44.121c-16.766,52.945 6.177,160.6 -105.89,158.835" style="fill:none;stroke:#000;stroke-width:6.79px;"/><path d="M310.18,282.857c0,0 38.827,-8.824 55.593,44.121c16.765,52.945 -6.177,160.601 105.89,158.836" style="fill:none;stroke:#000;stroke-width:6.79px;"/><path d="M342.998,284.075c-0,0 37.717,-2.206 51.102,16.237c13.385,18.443 0.526,33.392 -14.244,24.197c-14.77,-9.195 -29.451,-16.558 -42.846,-12.6c-13.394,3.959 -17.826,-26.673 5.988,-27.834Z" style="fill:#d6c295;stroke:#000;stroke-width:7.61px;"/><path d="M205.676,280.378c-0,0 -37.781,0.313 -49.906,19.608c-12.126,19.295 1.701,33.353 15.825,23.194c14.124,-10.16 28.282,-18.485 41.91,-15.429c13.629,3.057 16.008,-27.802 -7.829,-27.373Z" style="fill:#d6c295;stroke:#000;stroke-width:7.61px;"/><path d="M240.756,275.976c-0,-1.188 -0.965,-2.152 -2.153,-2.152l-4.306,-0c-1.188,-0 -2.152,0.964 -2.152,2.152l-0,13.93c-0,1.188 0.964,2.153 2.152,2.153l4.306,-0c1.188,-0 2.153,-0.965 2.153,-2.153l-0,-13.93Z" style="fill:#828282;stroke:#000;stroke-width:4.87px;"/><path d="M272.569,266.843c0,-0 -15.346,-2.634 -17.843,3.319c-2.697,6.432 -6.224,6.847 -13.071,8.092c-0.415,8.091 0,9.336 0,9.336c0,0 6.884,-4.283 11.411,4.772c3.113,6.225 19.296,3.735 19.296,3.735l0.207,-29.254Z" style="fill:#989898;stroke:#000;stroke-width:4.87px;"/><path d="M316.762,270.261c0,-3.166 -2.57,-5.737 -5.736,-5.737l-11.474,0c-3.166,0 -5.737,2.571 -5.737,5.737l0,21.688c0,3.167 2.571,5.737 5.737,5.737l11.474,0c3.166,0 5.736,-2.57 5.736,-5.737l0,-21.688Z" style="fill:#989898;stroke:#000;stroke-width:5.83px;"/><path d="M273.564,274.11l9.296,-0" style="fill:none;stroke:#000;stroke-width:6.88px;"/><path d="M273.348,289.803l9.296,-0" style="fill:none;stroke:#000;stroke-width:6.88px;"/><circle cx="304.995" cy="274.686" r="3.163"/><circle cx="304.995" cy="287.496" r="3.163"/></g></svg>