<svg xmlns="http://www.w3.org/2000/svg" xmlns:xlink="http://www.w3.org/1999/xlink" width="600" height="600" viewBox="0 0 600 600"><defs><style>.cls-1{fill:none;clip-rule:evenodd;}.cls-2{isolation:isolate;}.cls-3{fill:#d6c295;}.cls-10,.cls-11,.cls-12,.cls-3,.cls-5,.cls-6,.cls-9{fill-rule:evenodd;}.cls-4,.cls-5{fill:#61e0ee;}.cls-7{clip-path:url(#clip-path);}.cls-8{opacity:0.5;mix-blend-mode:multiply;}.cls-9{fill:#4fcbe0;}.cls-10{fill:#b7f8ff;}.cls-11{fill:#ededed;}.cls-12{fill:#fff;}</style><clipPath id="clip-path"><path class="cls-1" d="M286.76,492.32s-20.82-40.95-16.89-76.1c12.33-110-20.05-131.58-7.38-198.69,4.39-23.31,12.69-49.83,26.84-69.13C320.44,106,380.19,84,432.2,93.93c20.82,4,39.63,13,58.24,22.9,64.7,34.39,78.16,107,69.76,168.11-3.74,27.1-27,69.29-23.62,96.44C543.69,438,541.7,468.62,524,505.12,509,536.25,450.34,559.7,386.28,553,375.35,551.9,310,540.43,286.76,492.32Z"/></clipPath></defs><title>1</title><g class="cls-2"><g id="Слой_1" data-name="Слой 1"><path class="cls-3" d="M194.63,375.74S240.89,392.58,267,379s17.44-33.84-5.73-30.16-45.29,5.5-60.11-3.74S165.32,365.38,194.63,375.74Z"/><path d="M240.89,388.43c-23.06,0-46.11-8.22-47.66-8.78-13.89-4.92-16.85-13.52-17.38-18.2-.83-7.4,3.11-15.21,9.81-19.44,5.71-3.62,12.31-3.8,17.66-.48,13.71,8.55,35.63,6.57,57.28,3.16,12.57-2,22.95,2.42,25.79,11,2.42,7.33-.9,18.27-17.5,26.95C260.69,386.91,250.78,388.43,240.89,388.43Zm-45.82-41a9.5,9.5,0,0,0-5,1.58c-4,2.53-6.47,7.26-6,11.5.55,4.84,4.67,8.75,11.93,11.31l0,0c.45.16,44.85,16,69,3.43,11.25-5.88,14.87-12.77,13.47-17-1.22-3.68-6.94-6.93-16.62-5.4-26.85,4.23-47.83,5.12-62.95-4.31A7.28,7.28,0,0,0,195.07,347.44Z"/><path class="cls-4" d="M396.78,109.33a4.16,4.16,0,0,1-4.1-3.54c-3.55-24-9.66-28.46-12.12-29.24-3.54-1.13-7.26,2.55-7.3,2.58a4.15,4.15,0,1,1-6-5.74c2.67-2.78,9-6.92,15.81-4.74,8.82,2.81,14.65,14.56,17.81,35.93a4.16,4.16,0,0,1-3.5,4.71A4.26,4.26,0,0,1,396.78,109.33Z"/><path class="cls-4" d="M412.05,106.93a3.23,3.23,0,0,1-.53,0,4.14,4.14,0,0,1-3.59-4.63c2.89-22.66,8.55-35.08,17.32-38,6.37-2.1,12.24,1.69,14.7,4.26a4.14,4.14,0,0,1-6,5.76c-.11-.1-3.21-3.14-6.17-2.13-1.89.64-8.31,4.77-11.66,31.12A4.15,4.15,0,0,1,412.05,106.93Z"/><path class="cls-4" d="M404.31,101.43l-.3,0A4.13,4.13,0,0,1,400.17,97c2.16-30.33-3.47-37.09-6-38.59s-5.33.25-5.35.27a4.15,4.15,0,1,1-4.46-7C387,50,393,48,398.43,51.26c8.59,5.12,11.87,20.27,10,46.31A4.15,4.15,0,0,1,404.31,101.43Z"/><path class="cls-3" d="M300.75,547.43s2.27-41.12,23.89-53.34,36.23,3.54,24.45,18.38-21.57,29.87-18.92,44.85S299.09,573.36,300.75,547.43Z"/><path d="M318.45,572.08a22.71,22.71,0,0,1-11-2.85c-7.5-4.18-11.45-12.22-10.83-22.05.12-2,2.73-43.56,26-56.7,15-8.5,26.12-4.7,31.11,1.13,5.43,6.35,4.89,15.55-1.37,23.44-12.48,15.76-20.33,28.86-18.08,41.55a12,12,0,0,1-5.06,12.3A18.53,18.53,0,0,1,318.45,572.08Zm20.82-78.23c-3.49,0-7.77,1.11-12.58,3.84-19.38,11-21.77,49.58-21.8,50v0c-.54,8.48,3.29,12.46,6.59,14.3,4.6,2.56,10.18,2.09,12.92.15a3.79,3.79,0,0,0,1.69-4.1c-3.1-17.49,8.57-34,19.75-48.14,3.74-4.72,4.34-9.66,1.57-12.89C345.78,495.1,343,493.85,339.27,493.85Zm-38.52,53.57h0Z"/><path class="cls-3" d="M507.61,555.69s-21.79-35-11.09-57.4,31.69-17.89,30.58,1-.5,36.83,10.26,47.59S521.13,577.87,507.61,555.69Z"/><path d="M523.41,569.82c-7.69,0-14.64-4.27-19.33-12-1.07-1.72-22.81-37.25-11.3-61.36,7.39-15.55,18.7-18.84,26.13-16.93,8.08,2.08,12.92,9.92,12.33,20-1,17.35-.62,34.74,9,44.41a12.05,12.05,0,0,1,2.93,13c-2.38,6.68-9.62,11.93-17.62,12.76A20.37,20.37,0,0,1,523.41,569.82Zm-8.48-82.44c-4.56,0-10.4,3.72-14.67,12.69-9.59,20.1,10.66,53.1,10.87,53.43l0,0c4.42,7.25,9.81,8.31,13.59,7.92,5.25-.54,9.54-4.13,10.66-7.29a3.79,3.79,0,0,0-1-4.33c-12-12-12.59-31.48-11.46-50.76.35-6-2-10.4-6.12-11.45A7.4,7.4,0,0,0,514.93,487.38Z"/><path class="cls-5" d="M538.88,200.05c.77-4.53,10.06-11.47,13.93-13.05,47-19.16,30.53,34.76,3.16,32.63"/><path class="cls-6" d="M544.33,201.1Zm26-23.75h.83l.19,0h.22l.2,0h.19l.22,0h.2l.19,0,.19,0h.2l.22,0,.19,0,.19,0,.2,0,.19,0,.2,0,.19,0,.19.06.2,0,.16,0,.2,0,.19,0,.19.05.2,0,.16.06.2,0,.19.06.17,0,.19.06.16.06.2,0,.16.06.2.08.16,0,.2.06.16.05.17.09.16,0,.17.09.19.05.17.08.17.09.16.05.17.09.16.08.17.08.17.08.16.09.17.08.14.08.16.11.17.09.14.08.16.11.14.08.17.11.16.09.14.11.14.11.14.08.16.11.14.11.14.11.14.11.14.11.13.11.14.12.14.13.11.11.14.11.14.14.14.11.11.11.13.14.11.11.14.14.11.14.11.11.11.14.12.14.13.14.09.13.11.11.11.17.11.14.11.11.11.16.08.14.11.14.09.14.11.14.08.16.08.14.11.14.09.14.08.16.08.14.09.14.08.17.08.13.08.17.06.14.08.16.09.14,0,.17.06.14.08.16.05.14.06.17.08.16.06.14.05.17.06.16.05.14.06.17,0,.16.06.17,0,.14.05.16.06.14,0,.17.05.16,0,.17,0,.16,0,.14,0,.17,0,.16,0,.17,0,.17,0,.16,0,.14,0,.17,0,.16v.17l0,.16,0,.17,0,.14V192l0,.14,0,.17v.16l0,.17v.33l0,.17v.47l0,.16v1l0,.17v.49l0,.14v.33l0,.17v.17l0,.16,0,.17v.14l0,.16V197l0,.16,0,.17,0,.16,0,.17v.14l0,.16,0,.17,0,.17,0,.16,0,.14,0,.17-.06.16,0,.17,0,.16,0,.17-.05.14,0,.16,0,.17-.06.17,0,.13-.06.17,0,.17,0,.16-.06.17-.05.16,0,.14-.06.17-.05.16,0,.14-.06.17-.05.16-.06.17,0,.14-.06.16,0,.17-.06.14,0,.16-.06.17-.06.14-.05.16-.08.17-.06.17,0,.13-.06.17,0,.14-.06.16-.08.17-.06.17-.08.13-.06.17,0,.14-.09.16,0,.17-.08.14-.06.16-.08.14-.08.17-.06.16-.08.14-.06.14-.08.17-.08.16-.09.14-.05.14-.08.17-.09.16-.08.14-.08.17-.09.13-.08.14-.08.17-.09.14-.08.16-.08.14-.08.17-.09.13-.08.14-.11.17-.08.14-.09.14-.08.16-.11.14-.08.14-.09.16-.11.14-.08.14-.11.14-.08.16-.11.14-.09.14-.11.14-.11.16-.08.14-.11.14-.08.14-.12.14-.11.14-.11.16-.08.14-.11.14-.11.14-.11.13-.11.14-.11.14-.09.14-.13.14-.09.14-.13.13-.12.14-.11.14-.11.14L580,214l-.11.14-.11.11-.14.13-.11.14-.11.14-.11.11-.14.14-.11.14-.11.14-.14.13-.11.12-.14.13-.11.11-.11.14-.13.14-.12.11-.13.14-.14.14-.11.11-.14.11-.14.14-.11.14-.14.11-.14.11-.13.13-.11.12-.14.13-.14.11-.14.11-.14.11-.14.14-.13.11-.14.11-.14.14-.14.11-.14.11-.14.11-.13.12-.14.11-.14.11-.17.11-.13.11-.14.11-.14.11-.17.11-.14.11-.13.11-.17.11-.14.08-.14.11-.16.12-.14.11-.17.08-.13.11-.17.11-.14.08-.16.11-.14.09L572,221l-.16.08-.14.11-.17.08-.16.11-.17.09-.17.08-.13.11-.17.08-.17.09-.16.08-.17.08-.16.11-.17.09-.17.08-.16.08-.17.09-.16.08-.17.08-.17.06-.16.08-.17.08-.16.09-.2.08-.16.05-.17.09-.16.08-.17.06-.19.08-.17.05-.17.09-.19.05-.16.06-.2.08-.16.05-.2.06-.16.08-.2.06-.16.05-.2.06-.16.05-.2.06-.16,0-.2.06-.19.06-.17,0-.19.06-.19,0-.17.06-.19,0-.2.05-.19,0-.16.06-.23,0-.16.06-.2,0-.19,0-.19.06-.2,0-.19,0-.19,0-.2,0-.19,0-.19,0-.2,0-.19,0-.19,0h-.2l-.19,0-.19,0h-.2l-.19,0h-.2l-.22,0h-.38l-.2,0h-1.6l-.22,0h-.39l-.22,0h-.19l-.2,0-.3,0-.31-.06-.3-.06-.3-.08-.28-.11-.31-.11-.27-.14-.28-.14-.25-.16-.27-.17-.23-.19-.24-.22-.22-.22-.2-.22-.19-.25-.2-.25-.16-.25-.17-.28-.14-.27-.11-.28-.11-.31-.08-.27-.08-.31-.06-.3,0-.33,0-.31v-.3l0-.3,0-.31.06-.3.05-.31.09-.3.11-.31.11-.27.13-.28.14-.27.17-.28.16-.25.2-.25.22-.22.19-.22.25-.22.22-.2.28-.19.25-.17.28-.13.27-.14.28-.11.3-.11.28-.09.3-.08.31-.05.33,0,.3,0h.61l.14,0h.36l.11,0h1.13l.14,0h.33l.11,0h.23l.11,0h.11l.11,0h.11l.11,0h.11l.11,0h.11l.11,0,.11,0h.11l.11,0,.11,0,.11,0h.11l.11,0,.12,0,.11,0,.11,0,.11,0,.11,0,.11,0,.11,0,.11,0,.11,0,.11,0,.11,0,.11-.06.11,0,.09,0,.11,0,.11,0,.11,0,.11,0,.11-.05.11,0,.11,0,.08-.06.11,0,.11-.06.11,0,.12-.05.11-.06.08,0,.11-.06.11-.05.11,0,.11-.06.08,0,.11-.06.12,0,.11-.05.11-.06.08,0,.11-.06.11-.05.08-.06.11-.05.12-.06.11-.05.08-.06.11-.05.11-.06.08-.05.11-.06.11-.08.09-.06.11-.05.11-.06.08-.08.11-.06.08-.05.12-.09.11-.05.08-.06L567,211l.08-.05.11-.09.11,0,.09-.09.11-.08.08,0,.11-.09.08-.05.11-.09.09-.08.08-.05.11-.09.08-.08.11-.05.09-.09.11-.08.08-.08.08-.06.11-.08.09-.08.08-.09.11-.08.08-.08.09-.09.11-.08.08-.08.08-.09.09-.08.11-.08.08-.08.08-.09.09-.08.11-.08,0-.09.11-.08.08-.11.09-.08.08-.08.08-.09.09-.11.08-.08.08-.08.09-.09.08-.11.08-.08.08-.08.09-.11.08-.09.08-.08.09-.11.08-.08.08-.09.08-.11.09-.11,0-.08.09-.08.08-.11.08-.09.06-.11.08-.08.08-.11.09-.08,0-.12.08-.08.09-.11.05-.08.09-.11.05-.11.08-.09L573,205l.05-.11.09-.08.05-.11.08-.11.06-.08,0-.12.09-.08,0-.11.08-.11.06-.11.06-.08.08-.11,0-.11.06-.09,0-.11.09-.11,0-.08.06-.11,0-.11.06-.11.05-.09.09-.11,0-.11.11-.22.06-.08.11-.22,0-.09.11-.22.05-.11.06-.11.05-.08.06-.11,0-.11,0-.11.06-.09.08-.22,0-.11.06-.11,0-.08,0-.11.06-.11,0-.11,0-.09,0-.11,0-.11,0-.11,0-.08,0-.11,0-.11.06-.08,0-.23.09-.22,0-.08,0-.11,0-.11.05-.08,0-.11,0-.09,0-.11,0-.11,0-.08,0-.11,0-.11,0-.09,0-.11,0-.08,0-.11.05-.19v-.09l0-.11,0-.11,0-.08v-.08l0-.11,0-.09v-.11l0-.08,0-.08v-.11l0-.09v-.08l0-.11v-.08l0-.09v-.19l0-.08v-.09l0-.11v-.25l0-.08v-.41l0-.11v-.7l0-.08v-.39l0-.05v-.22l0-.06v-.14l0-.08v-.05l0-.06v-.14l0-.05v-.09l0,0v-.09l0-.05v-.06l0-.08v0l0-.05V192l0,0,0-.09v-.05l0,0,0,0v-.06l0-.06,0-.05v-.06l0,0,0-.06v-.05l0,0,0-.06,0,0v0l0-.06,0-.05,0,0v0l0,0,0,0,0-.05,0-.06,0,0v0l0-.06,0,0,0,0,0-.06,0,0,0,0,0,0,0,0,0,0,0,0,0-.06,0,0,0,0,0,0,0,0,0-.06,0,0,0,0,0,0,0,0-.06,0,0,0,0,0,0,0,0,0,0,0,0,0,0,0,0,0-.05,0,0,0-.06,0,0,0,0,0-.06,0-.05,0,0,0,0,0,0,0h-.06l-.05-.05,0,0-.06,0-.05,0-.06,0,0,0-.09,0,0,0h0l-.08,0-.06,0,0,0-.06,0,0,0-.09,0,0,0-.06,0-.08,0-.06,0-.08,0-.06,0h-.08l0,0-.09,0-.08,0-.08,0h-.08l-.09,0-.08,0-.08,0h-.09l-.08,0-.08,0h-.09l-.11,0-.08,0h-.11l-.08,0h-.11l-.09,0h-.11l-.11,0h-.08l-.11,0h-.22l-.11,0H571l-.11,0h-1.8l-.14,0h-.44l-.17,0h-.13l-.14,0h-.17l-.16,0-.14,0h-.17l-.16,0-.17,0h-.17l-.16,0-.17,0-.16,0-.17,0-.17,0-.16,0-.2,0-.16,0-.19,0-.17,0-.19,0-.17,0-.19,0-.2.06-.19,0-.17,0-.19,0-.19.05-.2.06-.22,0-.19,0-.2.06-.19.05-.22.06-.19,0-.23.06-.19.05-.22.06-.19.06-.22,0-.23.08-.22.06-.22,0-.22.09-.19.05-.25.09-.22.08-.22.05-.23.09-.24.08-.23.08-.22.06-.25.08-.22.08-.25.09-.24.11-.23.08-.24.08-.25.09-.25.11-.25.08-.25.11-.25.08-.25.11-.25.09-.25.11-.24.11h-.06l-.05,0,0,0-.06,0-.05,0-.06,0-.05,0-.09,0-.08,0,0,0-.09,0-.08,0-.08.06-.09.05-.08,0-.08,0-.11.06-.09.05-.08.06-.11.05-.11.06-.08.06-.11.05-.11.08-.12.06-.11.08-.08.06-.11.08-.11.06-.11.08-.14.05-.11.09-.11.08-.11.08-.11.09-.14.08-.11.05-.11.09-.14.11-.11.08-.11.08-.14.09-.11.08-.11.08-.14.11-.11.09-.14.08-.11.11-.13.08-.12.08-.13.12-.11.08-.12.11-.13.08-.11.11-.14.09-.11.11L549,196l-.11.11-.11.08-.14.11-.11.11-.11.09-.14.11-.11.11-.11.11-.11.08-.11.11-.11.11-.11.09-.14.11-.11.11-.11.08-.09.11-.11.11-.11.08-.11.11-.11.12-.08.08-.11.11-.11.11-.09.08-.11.11-.08.11-.08.09-.11.11-.09.08-.08.11-.08.08-.08.09-.09.11-.08.08-.06.08-.08.11-.08.09-.06.08-.08.08-.06.09,0,.08-.06.08,0,.08-.06.09-.05.05-.06.09-.05.05,0,.08,0,.06,0,0,0,.06,0,.05,0,.06,0,.06,0,0h0V201h0V201h0v.06l-.06.22-.08.3-.09.31-.11.27-.13.31-.14.27-.17.25-.16.28-.2.22-.19.25-.22.22-.22.22-.25.19-.25.2-.25.16-.28.17-.27.14-.28.11-.28.11-.3.11-.3.06-.31.08-.3,0-.31,0h-.63l-.31,0-.3-.06-.31-.05-.3-.09-.28-.08-.3-.11-.28-.14-.27-.14-.28-.16-.25-.17-.25-.19-.22-.2L535,204l-.19-.22-.19-.25-.2-.25-.16-.25-.17-.27-.14-.28-.14-.27-.11-.28-.08-.31-.08-.3-.06-.3,0-.31v-.3l0-.31,0-.33,0-.3,0-.31,0-.08,0-.14,0-.14,0-.19.06-.16,0-.12,0-.11,0-.11,0-.11,0-.14,0-.11.06-.19,0-.14,0-.11.05-.11,0-.08,0-.11.06-.11,0-.11,0-.09.05-.11.06-.11,0-.08,0-.11.06-.11.08-.2.06-.08.11-.19.08-.2.11-.16.11-.2.11-.16.11-.19.11-.17.11-.19.11-.17.11-.17.11-.16.14-.17.11-.16.11-.17.14-.17.11-.16.14-.17.14-.16.11-.17.14-.14.14-.16.11-.14.13-.17.14-.16.14-.14.14-.17.14-.14.14-.16.13-.14.14-.14.14-.16.17-.14.14-.14.13-.17.14-.14.14-.13.17-.14.13-.14.14-.14.17-.14.14-.16.16-.11.14-.14.17-.17.13-.11.17-.14.14-.13.16-.14.14-.14.17-.14.14-.11.16-.14.17-.14.14-.11.16-.14.17-.13.14-.11.16-.14.17-.14.14-.11.16-.11.17-.14.14-.11.16-.14.17-.11.14-.11.16-.11.17-.14.14-.11.16-.11.17-.11.14-.11.16-.11.17-.11.14-.11.16-.11.17-.11.14-.09.16-.11.14-.11.17-.11.14-.08.16-.11.14-.09.17-.11.13-.08.17-.11.14-.08.14-.09.16-.11.14-.08.14-.08.17-.08.13-.09.14-.08.14-.08.17-.09.13-.08.14-.08.14-.09.14-.05.16-.08.14-.09.14-.05.14-.08.14-.06.14-.08.13-.06.14-.08.17-.06.14-.05.13-.06.14-.08.31-.11.27-.11.31-.11.27-.11.31-.11.27-.11.28-.11L553,181l.27-.12.28-.11.28-.08.27-.11.28-.11.27-.08.28-.11.28-.09.27-.08.28-.11.25-.08.28-.09.27-.08.25-.08.28-.08.27-.09.25-.08.25-.08.28-.09.25,0,.27-.09L559,179l.25,0,.25-.09.28-.05.25-.06.24-.08.25-.06.25-.05.25-.06.25-.08.25-.05.25-.06.22,0,.25,0,.25-.06.25-.05.22-.06.25,0,.24,0,.23-.06.24,0,.23-.06.24,0,.23,0,.24-.06.23,0,.22,0,.22,0,.25,0,.22,0,.22,0,.22,0,.22,0,.22,0,.22,0h.23l.24,0h.2l.22,0,.22,0h.44l.2,0h1.49Z"/><path class="cls-5" d="M284.16,164.63c-4.31,1.64-9-1.1-12.27-3.65-40.07-31.16,14.71-43.63,26.54-18.85"/><polygon class="cls-6" points="275.18 123.46 275.34 123.46 275.51 123.46 275.7 123.46 275.87 123.46 276.03 123.46 276.2 123.49 276.39 123.49 276.56 123.49 276.73 123.49 276.89 123.52 277.08 123.52 277.25 123.55 277.42 123.55 277.58 123.55 277.78 123.57 277.94 123.57 278.11 123.6 278.3 123.6 278.47 123.63 278.63 123.66 278.8 123.66 278.99 123.68 279.16 123.71 279.32 123.71 279.49 123.74 279.68 123.77 279.85 123.79 280.04 123.82 280.21 123.85 280.38 123.88 280.54 123.91 280.74 123.93 280.9 123.96 281.07 123.99 281.23 124.02 281.43 124.04 281.59 124.07 281.76 124.1 281.95 124.13 282.12 124.18 282.28 124.21 282.45 124.24 282.64 124.29 282.81 124.32 282.98 124.35 283.17 124.4 283.33 124.43 283.5 124.48 283.67 124.51 283.86 124.57 284.02 124.6 284.19 124.65 284.36 124.71 284.55 124.73 284.72 124.79 284.88 124.84 285.05 124.9 285.21 124.96 285.41 124.98 285.57 125.04 285.74 125.09 285.91 125.15 286.07 125.2 286.26 125.26 286.43 125.31 286.6 125.37 286.76 125.42 286.93 125.51 287.1 125.56 287.29 125.62 287.45 125.67 287.62 125.76 287.79 125.81 287.95 125.87 288.12 125.95 288.28 126.01 288.45 126.06 288.62 126.14 288.78 126.23 288.95 126.28 289.11 126.37 289.28 126.42 289.44 126.5 289.64 126.59 289.78 126.64 289.97 126.72 290.14 126.81 290.27 126.89 290.44 126.97 290.61 127.06 290.77 127.14 290.94 127.22 291.1 127.31 291.27 127.39 291.44 127.47 291.57 127.56 291.74 127.64 291.91 127.72 292.07 127.8 292.24 127.91 292.4 128 292.54 128.11 292.71 128.19 292.87 128.27 293.04 128.38 293.18 128.47 293.34 128.58 293.51 128.66 293.65 128.77 293.81 128.88 293.95 128.97 294.12 129.07 294.28 129.19 294.42 129.3 294.59 129.41 294.73 129.49 294.89 129.63 295.03 129.71 295.17 129.82 295.33 129.96 295.47 130.07 295.64 130.18 295.78 130.29 295.92 130.4 296.08 130.51 296.22 130.65 296.36 130.76 296.52 130.87 296.66 131.01 296.8 131.12 296.94 131.26 297.08 131.37 297.21 131.48 297.35 131.62 297.49 131.76 297.63 131.87 297.8 132.01 297.93 132.14 298.07 132.28 298.18 132.42 298.32 132.53 298.46 132.67 298.6 132.81 298.74 132.95 298.87 133.09 298.98 133.22 299.12 133.36 299.26 133.53 299.37 133.66 299.51 133.8 299.62 133.94 299.76 134.11 299.9 134.25 300.01 134.41 300.15 134.55 300.26 134.69 300.37 134.85 300.5 134.99 300.62 135.16 300.73 135.32 300.86 135.46 300.98 135.63 301.09 135.79 301.2 135.96 301.31 136.1 301.42 136.26 301.53 136.43 301.64 136.6 301.75 136.76 301.86 136.93 301.97 137.09 302.08 137.26 302.19 137.45 302.27 137.62 302.38 137.78 302.5 137.95 302.58 138.15 302.69 138.31 302.77 138.48 302.88 138.67 302.97 138.84 303.08 139.03 303.16 139.19 303.24 139.39 303.32 139.56 303.41 139.72 303.55 140 303.66 140.27 303.74 140.55 303.82 140.85 303.88 141.13 303.93 141.44 303.96 141.74 303.96 142.02 303.96 142.32 303.93 142.62 303.91 142.93 303.85 143.23 303.8 143.51 303.71 143.81 303.6 144.09 303.49 144.37 303.38 144.64 303.21 144.89 303.08 145.14 302.91 145.39 302.72 145.64 302.52 145.86 302.3 146.08 302.08 146.27 301.86 146.47 301.61 146.66 301.36 146.83 301.11 146.97 300.84 147.1 300.59 147.24 300.28 147.32 300.01 147.44 299.73 147.52 299.43 147.57 299.12 147.63 298.85 147.66 298.54 147.66 298.24 147.66 297.93 147.63 297.63 147.6 297.35 147.55 297.05 147.49 296.77 147.41 296.5 147.3 296.22 147.19 295.94 147.08 295.67 146.91 295.42 146.77 295.17 146.6 294.92 146.41 294.7 146.22 294.5 146 294.28 145.78 294.09 145.56 293.92 145.31 293.76 145.06 293.59 144.81 293.45 144.53 293.4 144.42 293.34 144.31 293.29 144.2 293.23 144.09 293.18 144.01 293.12 143.9 293.07 143.79 293.01 143.7 292.96 143.59 292.9 143.48 292.85 143.4 292.79 143.29 292.74 143.18 292.68 143.09 292.6 143.01 292.54 142.9 292.49 142.79 292.43 142.71 292.38 142.62 292.29 142.51 292.24 142.43 292.15 142.32 292.1 142.24 292.04 142.15 291.96 142.07 291.91 141.96 291.82 141.88 291.77 141.79 291.69 141.71 291.63 141.6 291.55 141.52 291.49 141.44 291.41 141.35 291.35 141.27 291.27 141.19 291.19 141.1 291.1 141.02 291.05 140.94 290.97 140.85 290.88 140.77 290.8 140.69 290.74 140.6 290.66 140.52 290.58 140.44 290.5 140.36 290.41 140.27 290.33 140.19 290.25 140.11 290.16 140.05 290.11 139.97 290 139.89 289.92 139.8 289.83 139.75 289.75 139.67 289.67 139.58 289.58 139.5 289.5 139.42 289.42 139.36 289.33 139.28 289.22 139.22 289.14 139.14 289.06 139.09 288.98 139 288.86 138.92 288.78 138.86 288.7 138.78 288.62 138.72 288.5 138.64 288.42 138.59 288.31 138.53 288.23 138.45 288.12 138.39 288.04 138.31 287.92 138.26 287.84 138.2 287.76 138.12 287.65 138.06 287.54 138.01 287.45 137.95 287.34 137.87 287.26 137.81 287.15 137.76 287.04 137.7 286.96 137.62 286.85 137.56 286.76 137.51 286.65 137.45 286.54 137.4 286.43 137.34 286.35 137.29 286.24 137.23 286.13 137.18 286.02 137.12 285.91 137.07 285.8 137.01 285.68 136.96 285.6 136.9 285.49 136.84 285.38 136.79 285.27 136.74 285.16 136.71 285.05 136.65 284.94 136.6 284.83 136.54 284.72 136.51 284.61 136.46 284.5 136.4 284.38 136.35 284.27 136.32 284.16 136.26 284.05 136.24 283.94 136.18 283.83 136.13 283.72 136.1 283.58 136.04 283.47 136.02 283.36 135.96 283.25 135.93 283.14 135.88 283.03 135.85 282.92 135.79 282.78 135.77 282.67 135.74 282.56 135.68 282.45 135.66 282.31 135.63 282.2 135.57 282.09 135.54 281.98 135.52 281.84 135.49 281.73 135.44 281.62 135.41 281.51 135.38 281.37 135.35 281.26 135.32 281.15 135.3 281.01 135.27 280.9 135.24 280.79 135.19 280.65 135.16 280.54 135.16 280.43 135.13 280.29 135.1 280.18 135.07 280.07 135.05 279.93 135.02 279.82 134.99 279.71 134.97 279.57 134.94 279.46 134.94 279.32 134.91 279.21 134.88 279.1 134.85 278.97 134.85 278.86 134.83 278.72 134.8 278.61 134.8 278.5 134.77 278.36 134.74 278.25 134.74 278.14 134.72 278 134.72 277.89 134.69 277.75 134.69 277.64 134.66 277.53 134.66 277.39 134.63 277.28 134.63 277.14 134.61 277.03 134.61 276.92 134.61 276.78 134.58 276.67 134.58 276.53 134.58 276.42 134.55 276.31 134.55 276.17 134.55 276.06 134.55 275.95 134.55 275.81 134.52 275.7 134.52 275.59 134.52 275.45 134.52 275.34 134.52 275.23 134.52 275.09 134.52 274.98 134.52 274.87 134.52 274.74 134.52 274.62 134.52 274.51 134.52 274.4 134.52 274.26 134.52 274.15 134.52 274.04 134.52 273.93 134.55 273.8 134.55 273.68 134.55 273.57 134.55 273.46 134.55 273.35 134.58 273.21 134.58 273.1 134.58 272.99 134.61 272.88 134.61 272.77 134.61 272.66 134.63 272.55 134.63 272.41 134.66 272.3 134.66 272.19 134.66 272.08 134.69 271.97 134.69 271.86 134.72 271.75 134.74 271.64 134.74 271.56 134.77 271.44 134.77 271.33 134.8 271.22 134.83 271.11 134.83 271 134.85 270.89 134.85 270.78 134.88 270.67 134.91 270.56 134.94 270.48 134.94 270.37 134.97 270.26 134.99 270.14 135.02 270.06 135.05 269.95 135.05 269.84 135.07 269.76 135.1 269.65 135.13 269.54 135.16 269.45 135.19 269.34 135.21 269.26 135.24 269.15 135.27 269.07 135.3 268.96 135.32 268.87 135.35 268.76 135.38 268.68 135.41 268.57 135.44 268.49 135.46 268.4 135.49 268.29 135.52 268.21 135.54 268.13 135.57 268.04 135.63 267.93 135.66 267.85 135.68 267.77 135.71 267.68 135.74 267.6 135.77 267.52 135.82 267.44 135.85 267.35 135.88 267.27 135.91 267.19 135.96 267.1 135.99 267.02 136.02 266.94 136.07 266.86 136.1 266.77 136.13 266.69 136.18 266.63 136.21 266.55 136.24 266.47 136.29 266.38 136.32 266.33 136.35 266.25 136.4 266.19 136.43 266.11 136.49 266.05 136.51 265.97 136.54 265.91 136.6 265.83 136.62 265.78 136.68 265.72 136.71 265.64 136.74 265.58 136.79 265.5 136.82 265.44 136.87 265.39 136.9 265.33 136.96 265.28 136.98 265.22 137.04 265.17 137.07 265.08 137.12 265.03 137.15 264.97 137.2 264.95 137.23 264.89 137.29 264.84 137.31 264.78 137.37 264.73 137.4 264.67 137.45 264.62 137.48 264.59 137.54 264.53 137.56 264.48 137.62 264.45 137.65 264.39 137.7 264.37 137.73 264.31 137.78 264.25 137.81 264.23 137.84 264.2 137.9 264.14 137.95 264.12 137.98 264.06 138.01 264.03 138.06 264.01 138.09 263.98 138.15 263.92 138.17 263.9 138.23 263.87 138.26 263.84 138.31 263.81 138.34 263.76 138.39 263.73 138.42 263.7 138.48 263.7 138.5 263.68 138.53 263.62 138.59 263.59 138.62 263.56 138.67 263.56 138.7 263.54 138.72 263.51 138.78 263.48 138.81 263.45 138.86 263.45 138.89 263.43 138.95 263.4 138.97 263.37 139.03 263.37 139.06 263.34 139.09 263.31 139.14 263.31 139.17 263.29 139.22 263.26 139.25 263.26 139.28 263.23 139.33 263.23 139.36 263.2 139.42 263.18 139.44 263.18 139.5 263.15 139.53 263.15 139.58 263.15 139.61 263.12 139.64 263.12 139.69 263.09 139.75 263.09 139.78 263.09 139.83 263.07 139.86 263.07 139.91 263.07 139.94 263.04 140 263.04 140.03 263.04 140.08 263.01 140.14 263.01 140.19 263.01 140.22 263.01 140.27 263.01 140.33 262.98 140.36 262.98 140.41 262.98 140.47 262.98 140.52 262.98 140.58 262.98 140.6 262.98 140.66 262.98 140.74 262.98 140.8 262.98 140.85 262.98 140.91 262.98 140.97 262.98 141.02 262.98 141.07 262.98 141.13 262.98 141.19 263.01 141.27 263.01 141.32 263.01 141.38 263.01 141.44 263.04 141.52 263.04 141.57 263.07 141.66 263.07 141.71 263.07 141.79 263.09 141.85 263.09 141.93 263.12 141.99 263.12 142.07 263.15 142.15 263.18 142.24 263.18 142.32 263.2 142.38 263.23 142.46 263.26 142.54 263.29 142.62 263.31 142.71 263.34 142.79 263.37 142.87 263.37 142.96 263.43 143.04 263.45 143.15 263.48 143.23 263.51 143.31 263.56 143.43 263.59 143.51 263.62 143.59 263.68 143.7 263.7 143.79 263.76 143.9 263.79 143.98 263.84 144.09 263.87 144.17 263.92 144.28 263.98 144.39 264.03 144.48 264.09 144.59 264.14 144.7 264.2 144.81 264.25 144.92 264.31 145.03 264.37 145.14 264.42 145.22 264.5 145.36 264.56 145.47 264.62 145.58 264.7 145.69 264.75 145.8 264.84 145.91 264.92 146.05 264.97 146.16 265.06 146.27 265.14 146.38 265.22 146.52 265.31 146.63 265.39 146.77 265.47 146.88 265.56 147.02 265.64 147.13 265.75 147.27 265.83 147.41 265.94 147.52 266.02 147.66 266.14 147.79 266.22 147.91 266.33 148.04 266.44 148.18 266.55 148.32 266.63 148.46 266.74 148.57 266.86 148.71 266.99 148.84 267.1 148.98 267.21 149.12 267.32 149.26 267.46 149.4 267.57 149.54 267.71 149.7 267.82 149.84 267.96 149.98 268.1 150.12 268.24 150.25 268.38 150.42 268.51 150.56 268.65 150.7 268.79 150.84 268.93 151 269.07 151.14 269.2 151.31 269.37 151.44 269.54 151.61 269.68 151.75 269.84 151.91 269.98 152.05 270.14 152.22 270.31 152.36 270.48 152.52 270.64 152.69 270.81 152.83 270.98 152.99 271.17 153.16 271.33 153.3 271.5 153.46 271.69 153.63 271.86 153.79 272.05 153.96 272.25 154.1 272.44 154.26 272.61 154.43 272.8 154.6 272.99 154.76 273.21 154.93 273.41 155.09 273.6 155.26 273.8 155.43 274.02 155.59 274.21 155.76 274.43 155.92 274.65 156.09 274.85 156.26 275.07 156.45 275.29 156.62 275.43 156.7 275.56 156.81 275.7 156.92 275.84 157.03 275.95 157.11 276.09 157.22 276.23 157.31 276.37 157.42 276.5 157.5 276.64 157.61 276.78 157.69 276.92 157.78 277.06 157.86 277.2 157.97 277.33 158.05 277.47 158.14 277.61 158.22 277.69 158.25 277.75 158.3 277.83 158.33 277.89 158.38 277.94 158.41 278.02 158.47 278.11 158.5 278.16 158.52 278.25 158.58 278.3 158.61 278.36 158.63 278.44 158.69 278.52 158.72 278.58 158.74 278.63 158.77 278.72 158.8 278.77 158.85 278.83 158.88 278.91 158.91 278.97 158.94 279.02 158.97 279.1 158.99 279.16 159.02 279.21 159.05 279.3 159.08 279.35 159.1 279.41 159.13 279.49 159.16 279.55 159.19 279.6 159.19 279.66 159.21 279.71 159.24 279.77 159.27 279.85 159.3 279.91 159.3 279.96 159.32 280.02 159.35 280.07 159.35 280.13 159.38 280.18 159.41 280.24 159.41 280.29 159.44 280.35 159.44 280.4 159.46 280.46 159.46 280.49 159.49 280.54 159.49 280.6 159.49 280.65 159.52 280.71 159.52 280.74 159.52 280.79 159.55 280.85 159.55 280.9 159.55 280.93 159.55 280.98 159.57 281.01 159.57 281.07 159.57 281.12 159.57 281.15 159.57 281.18 159.57 281.23 159.6 281.26 159.6 281.32 159.6 281.34 159.6 281.37 159.6 281.43 159.6 281.48 159.6 281.56 159.6 281.62 159.6 281.68 159.57 281.73 159.57 281.81 159.57 281.87 159.55 281.92 159.55 281.98 159.55 282.04 159.52 282.09 159.52 282.14 159.49 282.2 159.46 282.26 159.44 282.53 159.35 282.84 159.27 283.11 159.21 283.42 159.16 283.72 159.13 284.02 159.1 284.33 159.1 284.61 159.13 284.91 159.16 285.21 159.21 285.49 159.27 285.8 159.35 286.07 159.46 286.35 159.57 286.62 159.69 286.9 159.82 287.15 159.99 287.4 160.15 287.62 160.32 287.87 160.51 288.06 160.74 288.28 160.96 288.48 161.18 288.64 161.43 288.84 161.68 288.98 161.92 289.11 162.2 289.25 162.45 289.36 162.73 289.44 163.03 289.53 163.31 289.58 163.61 289.64 163.89 289.67 164.19 289.69 164.5 289.69 164.8 289.67 165.1 289.64 165.38 289.58 165.68 289.53 165.99 289.44 166.26 289.36 166.54 289.25 166.82 289.11 167.09 288.98 167.37 288.81 167.62 288.64 167.87 288.48 168.12 288.28 168.34 288.06 168.56 287.84 168.75 287.62 168.95 287.37 169.14 287.12 169.31 286.87 169.44 286.62 169.58 286.35 169.72 286.07 169.83 285.93 169.89 285.74 169.94 285.57 170 285.41 170.05 285.24 170.11 285.05 170.16 284.88 170.22 284.69 170.25 284.52 170.3 284.36 170.33 284.16 170.38 284 170.41 283.8 170.44 283.64 170.47 283.47 170.5 283.28 170.52 283.11 170.55 282.95 170.58 282.75 170.58 282.59 170.61 282.42 170.61 282.23 170.63 282.06 170.63 281.9 170.63 281.73 170.66 281.56 170.66 281.4 170.66 281.2 170.66 281.04 170.66 280.87 170.63 280.71 170.63 280.54 170.63 280.38 170.61 280.21 170.61 280.04 170.58 279.88 170.58 279.74 170.55 279.57 170.52 279.41 170.52 279.24 170.5 279.08 170.47 278.94 170.44 278.77 170.41 278.61 170.38 278.47 170.36 278.3 170.33 278.16 170.27 278 170.25 277.86 170.22 277.69 170.19 277.56 170.14 277.42 170.11 277.25 170.05 277.11 170.03 276.98 169.97 276.84 169.94 276.67 169.89 276.53 169.83 276.39 169.8 276.26 169.75 276.12 169.69 275.98 169.64 275.84 169.61 275.7 169.56 275.56 169.5 275.43 169.44 275.29 169.39 275.15 169.34 275.01 169.28 274.9 169.22 274.76 169.17 274.62 169.11 274.49 169.06 274.38 169 274.24 168.92 274.1 168.86 273.99 168.81 273.85 168.75 273.74 168.7 273.6 168.64 273.49 168.56 273.35 168.5 273.24 168.45 273.1 168.37 272.99 168.31 272.88 168.26 272.74 168.17 272.63 168.12 272.52 168.06 272.41 167.98 272.27 167.92 272.19 167.84 272.05 167.79 271.94 167.7 271.72 167.59 271.5 167.43 271.28 167.32 271.06 167.18 270.84 167.04 270.64 166.87 270.42 166.74 270.23 166.6 270.03 166.46 269.81 166.32 269.62 166.18 269.43 166.04 269.23 165.91 269.07 165.77 268.87 165.63 268.68 165.49 268.51 165.35 268.26 165.16 268.02 164.97 267.77 164.77 267.52 164.58 267.3 164.38 267.05 164.19 266.8 164 266.58 163.8 266.36 163.61 266.11 163.42 265.89 163.22 265.67 163.03 265.44 162.84 265.22 162.64 265 162.48 264.78 162.28 264.56 162.09 264.34 161.9 264.14 161.7 263.92 161.51 263.73 161.34 263.51 161.15 263.31 160.96 263.09 160.76 262.9 160.57 262.71 160.4 262.51 160.21 262.32 160.02 262.13 159.82 261.93 159.66 261.74 159.46 261.55 159.27 261.38 159.1 261.19 158.91 260.99 158.72 260.83 158.52 260.63 158.36 260.47 158.16 260.3 157.97 260.14 157.8 259.94 157.61 259.78 157.42 259.61 157.25 259.44 157.06 259.28 156.86 259.14 156.7 258.97 156.5 258.81 156.31 258.64 156.15 258.5 155.95 258.34 155.78 258.2 155.59 258.06 155.4 257.9 155.23 257.76 155.04 257.62 154.85 257.48 154.68 257.34 154.49 257.2 154.32 257.07 154.13 256.93 153.96 256.79 153.77 256.65 153.57 256.54 153.41 256.4 153.21 256.26 153.05 256.15 152.85 256.02 152.69 255.91 152.5 255.79 152.3 255.68 152.13 255.54 151.94 255.44 151.78 255.32 151.58 255.21 151.42 255.1 151.22 254.99 151.03 254.91 150.86 254.8 150.7 254.69 150.5 254.6 150.31 254.5 150.15 254.41 149.95 254.3 149.79 254.22 149.59 254.13 149.43 254.03 149.23 253.94 149.04 253.86 148.87 253.78 148.68 253.69 148.51 253.61 148.32 253.53 148.13 253.44 147.96 253.39 147.79 253.31 147.6 253.22 147.41 253.17 147.24 253.11 147.05 253.03 146.85 252.97 146.69 252.92 146.5 252.84 146.33 252.78 146.13 252.72 145.94 252.67 145.78 252.62 145.58 252.56 145.39 252.53 145.22 252.48 145.03 252.42 144.86 252.39 144.67 252.34 144.5 252.31 144.31 252.25 144.12 252.23 143.95 252.2 143.76 252.17 143.56 252.12 143.4 252.12 143.2 252.09 143.04 252.06 142.84 252.03 142.65 252.01 142.49 251.98 142.29 251.98 142.13 251.95 141.93 251.95 141.74 251.95 141.57 251.92 141.38 251.92 141.21 251.92 141.02 251.92 140.83 251.92 140.66 251.92 140.47 251.92 140.3 251.92 140.11 251.95 139.94 251.95 139.75 251.95 139.58 251.98 139.39 252.01 139.22 252.01 139.06 252.03 138.86 252.06 138.67 252.09 138.5 252.12 138.34 252.15 138.17 252.17 137.98 252.2 137.81 252.23 137.65 252.28 137.45 252.31 137.29 252.37 137.12 252.39 136.96 252.45 136.76 252.5 136.62 252.53 136.43 252.59 136.26 252.64 136.1 252.7 135.93 252.75 135.77 252.81 135.6 252.86 135.46 252.95 135.27 253 135.13 253.06 134.97 253.14 134.8 253.19 134.66 253.28 134.5 253.36 134.33 253.42 134.19 253.5 134.03 253.58 133.86 253.66 133.72 253.75 133.58 253.83 133.42 253.91 133.28 254 133.11 254.08 132.97 254.16 132.84 254.27 132.7 254.36 132.56 254.47 132.42 254.55 132.28 254.63 132.14 254.74 132.01 254.85 131.87 254.94 131.73 255.05 131.59 255.13 131.45 255.24 131.34 255.35 131.21 255.46 131.07 255.57 130.96 255.68 130.82 255.79 130.71 255.91 130.57 256.02 130.46 256.13 130.32 256.24 130.21 256.35 130.1 256.46 129.96 256.6 129.85 256.71 129.74 256.82 129.63 256.93 129.52 257.07 129.41 257.18 129.3 257.31 129.19 257.43 129.07 257.56 128.99 257.68 128.88 257.81 128.77 257.92 128.66 258.06 128.58 258.2 128.47 258.31 128.36 258.45 128.27 258.59 128.19 258.7 128.08 258.84 128 258.97 127.89 259.11 127.8 259.25 127.72 259.39 127.61 259.53 127.53 259.67 127.44 259.78 127.36 259.91 127.28 260.08 127.19 260.22 127.11 260.33 127.03 260.5 126.95 260.63 126.86 260.77 126.78 260.91 126.7 261.05 126.64 261.19 126.56 261.35 126.48 261.49 126.42 261.63 126.34 261.77 126.25 261.93 126.2 262.07 126.12 262.21 126.06 262.35 125.98 262.51 125.92 262.65 125.87 262.82 125.78 262.96 125.73 263.09 125.67 263.26 125.59 263.4 125.54 263.56 125.48 263.7 125.42 263.87 125.37 264.01 125.31 264.17 125.26 264.31 125.2 264.48 125.15 264.64 125.09 264.78 125.04 264.95 124.98 265.08 124.93 265.25 124.87 265.42 124.84 265.56 124.79 265.72 124.73 265.89 124.71 266.02 124.65 266.19 124.6 266.36 124.57 266.5 124.51 266.66 124.48 266.83 124.43 266.99 124.4 267.16 124.35 267.3 124.32 267.46 124.29 267.63 124.24 267.8 124.21 267.96 124.18 268.13 124.15 268.29 124.1 268.46 124.07 268.6 124.04 268.76 124.02 268.93 123.99 269.09 123.96 269.26 123.93 269.43 123.91 269.59 123.88 269.76 123.85 269.92 123.82 270.09 123.79 270.26 123.77 270.42 123.74 270.59 123.74 270.75 123.71 270.92 123.68 271.08 123.66 271.25 123.66 271.42 123.63 271.58 123.63 271.75 123.6 271.94 123.57 272.11 123.57 272.27 123.55 272.44 123.55 272.61 123.55 272.77 123.52 272.94 123.52 273.13 123.52 273.3 123.49 273.46 123.49 273.63 123.49 273.8 123.49 273.96 123.46 274.15 123.46 274.32 123.46 274.49 123.46 274.65 123.46 274.85 123.46 275.01 123.46 275.18 123.46"/><path class="cls-5" d="M286.76,492.32s-20.82-40.95-16.89-76.1c12.33-110-20.05-131.58-7.38-198.69,4.39-23.31,12.69-49.83,26.84-69.13C320.44,106,380.19,84,432.2,93.93c20.82,4,39.63,13,58.24,22.9,64.7,34.39,78.16,107,69.76,168.11-3.74,27.1-27,69.29-23.62,96.44C543.69,438,541.7,468.62,524,505.12,509,536.25,450.34,559.7,386.28,553,375.35,551.9,310,540.43,286.76,492.32Z"/><g class="cls-7"><g class="cls-8"><path class="cls-9" d="M518.11,143.45s22.07,28.35,16.1,72.39c-9,66.14-36.75,52-34.87,171,.94,59.34,4.48,95.12-21.65,130.85-25.38,34.7-97.94,34.64-116.27,29.39s72.3,18.88,124.2-2.1,59.23-109,52.43-164.05,37.19-70.76,22.53-165.63C537,159.71,536.47,162.86,518.11,143.45Z"/></g><g class="cls-8"><path class="cls-9" d="M431.57,224.8S438,257,476.39,255.13s41-41.06,41-41.06Z"/></g><g class="cls-8"><path class="cls-9" d="M267.44,208.43s6.44,32.21,44.82,30.33,41-41.06,41-41.06Z"/></g></g><path class="cls-6" d="M406.46,97.11h-2.1l-.3,0h-.92l-.3,0h-.61l-.3,0h-.31l-.27,0h-.61l-.31,0h-.3l-.3,0-.31,0h-.3l-.31,0h-.3l-.31,0-.3,0h-.3l-.31,0-.3,0-.31,0h-.3l-.3,0-.28,0-.31,0-.3,0-.3,0-.31,0-.3,0-.31,0-.3,0-.3,0-.31,0-.3,0-.31,0-.3,0-.31,0-.3,0-.3,0L391,98l-.3,0-.28,0-.3,0-.31,0-.3,0-.31,0-.3,0-.3,0-.31.06-.3,0-.31,0-.3.06-.3,0-.28,0-.3.06-.31,0-.3.06-.31,0-.3,0-.31.06-.3,0-.3,0-.31.06-.27,0-.31,0-.3,0-.31.06-.3.06-.31,0-.3.06-.3,0-.31,0-.27.05-.31.06-.3.06-.31,0-.3.06-.31.08-.3.05-.3.06-.28.05-.3.06-.31.05-.3.09-.31.05-.27.06-.31.05-.3.09-.31.05-.3.06-.3.08-.28.06-.3.05-.31.08-.3.06-.28.08-.3.06-.31.08-.3.06-.31.08-.27.08-.31.06-.3.08-.3.06-.28.08-.31.08-.3.06-.3.08-.28.08-.3.08-.31.09-.27,0-.31.09-.3.08-.28.08-.3.08-.31.09-.27.08-.31.08-.3.09-.28.08-.3.08-.31.09-.27.08-.31.08-.3.08-.28.09-.3.11-.31.08-.27.08-.31.09-.27.11-.31.08-.28.08-.3.11-.3.09-.28.08-.3.11-.28.08-.3.09-.28.11-.31.08-.27.11-.31.08-.27.11-.31.12-.27.08-.31.11-.27.08-.28.11-.3.11-.31.09-.28.11-.27.11-.31.11-.27.08-.31.11-.27.11-.28.11-.3.11-.28.09-.3.11-.28.11-.28.11L354,107l-.31.11-.27.11-.28.11-.31.11-.27.11-.28.11-.27.11-.31.14-.28.11-.27.11-.31.11-.27.11-.28.14-.28.11-.27.11-.31.11-.27.14-.28.11-.28.11-.27.14-.28.11-.28.11-.3.14-.28.11L347,110l-.28.11-.28.14-.27.11-.28.14-.28.14-.27.11-.28.13-.27.11-.28.14-.28.14-.27.11-.28.14-.28.14-.27.14-.28.11-.28.14-.27.13-.28.14-.28.14-.27.14-.25.11-.28.14-.27.14-.28.13-.28.14-.27.14-.28.14-.25.14-.28.13-.27.14-.28.17-.25.14-.27.14-.28.13-.28.14-.25.14-.27.14-.28.16-.25.14-.27.14-.28.17-.25.13-.28.14L335,116l-.28.14-.25.14-.28.16-.27.14-.25.17-.28.13-.25.14-.27.17-.25.16-.28.14-.25.17-.25.14-.27.16-.25.14-.28.17-.25.16-.27.14-.25.17-.25.16-.28.17-.25.14-.25.16-.27.17-.25.16-.25.14-.25.17-.25.16-.27.17-.25.17-.25.16-.25.17-.28.16-.25.17-.25.17-.24.16-.25.17-.25.16-.25.17-.25.17-.25.16-.25.17-.25.16-.24.2-.25.16-.25.17-.25.16-.25.17-.25.19-.25.17-.25.17-.25.16-.24.2-.23.16-.24.19-.25.17-.25.17-.25.19-.22.17-.25.19-.25.17-.25.19-.22.16-.25.2-.25.16-.22.2-.25.16-.25.2-.22.19-.25.17-.22.19-.25.19-.22.17-.25.19-.22.2-.25.16-.22.2-.25.19-.22.19-.25.17-.22.19-.22.2-.25.19-.22.19-.22.2-.25.19-.22.19-.22.2-.25.19-.22.19-.22.2-.22.19-.23.2L312,132l-.23.19-.22.2-.22.19-.22.19-.22.2-.22.22-.22.19-.22.19-.23.2-.22.19-.22.22-.22.2-.22.19-.22.19-.22.22-.22.2-.23.19-.19.22-.22.2-.22.22-.22.19-.22.19-.2.23-.22.19-.22.22-.19.19-.22.23-.23.19-.19.22-.22.22-.19.2-.22.22-.23.19-.19.22-.22.22-.19.2-.2.22-.22.22-.19.19-.22.22-.2.22-.22.23-.19.19-.2.22-.19.22-.22.22-.19.22-.2.22-.19.2-.22.22-.2.22-.19.22-.19.22-.2.22-.19.23-.19.22-.2.22-.19.22-.19.22-.2.22-.19.22-.2.25-.19.22-.19.22-.2.23-.19.22-.19.22-.17.22-.19.25-.2.22-.19.22-.17.22-.19.25-.19.22-.17.22-.19.25-.2.22-.16.22-.2.25-.16.22-.19.23-.2.24-.16.23L295,150l-.19.23-.17.24-.19.23-.17.24-.16.23-.2.24-.16.23-.17.22-.14.22-.16.19-.14.22-.17.22-.16.23-.14.22-.14.19-.17.25-.16.22-.14.19-.17.22-.13.23-.14.22-.17.22-.14.25-.16.22-.14.22-.14.22-.17.22-.13.22-.14.25-.17.22-.14.22-.13.23-.14.24-.17.23-.14.22-.14.25-.13.22-.14.22-.14.25-.17.25-.13.22-.14.22-.14.25-.14.22-.14.25-.14.25-.13.22-.14.25-.14.22-.14.25-.14.25-.13.22-.14.25-.11.24-.14.25-.14.25-.14.22-.14.25-.14.25-.13.25-.11.25-.14.25-.14.22-.14.25-.11.25-.14.24-.14.25-.11.25-.13.25-.14.25-.11.25-.14.25-.11.25-.14.25-.14.27-.11.25-.14.25-.11.25-.14.25-.11.25-.14.25-.11.27-.13.25-.11.25-.12.25-.13.27-.11.25-.11.25-.14.28-.11.25-.11.25-.14.27-.11.25-.11.25-.11.28-.14.25-.11.27-.11.25-.11.28-.14.25-.11.27-.11.25-.11.28-.12.25-.11.27-.11.25-.11.28-.11.25-.11.27-.11.28-.11.25-.11.28-.11.25-.11.27-.11.28-.11.25-.11.27-.11.25-.11.28-.09.28-.11.27-.11.25-.11.28-.11.27-.08.28-.11.28-.11.25-.2.55-.22.52-.19.56-.2.52-.22.56-.19.55-.19.55-.2.53-.19.55-.19.55-.2.56-.16.55-.2.55-.19.53-.17.55-.19.55-.17.56-.19.55-.17.55-.16.56-.2.55-.16.55-.17.58-.16.56-.17.55-.16.55-.17.55-.17.56-.13.55-.17.55-.17.56-.13.55-.17.55-.17.56-.13.55-.14.55-.17.58-.14.56-.14.55-.13.55-.14.55-.14.56-.14.55-.14.55-.13.56-.14.55-.14.55-.14.56-.11.55-.14.52-.11.56-.14.55-.11.55-.14.56-.11.55-.11.52-.14.56-.11.55-.11.55-.11.53-.11.55-.11.53-.11.55-.11.53-.11.55-.11.52L268,218l-.11.52-.06.39-.08.36-.09.39-.05.38-.06.39-.08.36-.05.39-.09.36-.05.38-.06.36-.05.39-.09.36-.05.36-.06.39-.05.35-.06.36-.05.39-.06.36,0,.36-.06.36-.05.36-.06.36,0,.36,0,.36-.06.36-.05.36,0,.36-.06.36,0,.33,0,.36-.05.36,0,.33-.06.36,0,.36-.06.33,0,.36-.05.36,0,.33,0,.36,0,.33-.05.36,0,.33,0,.33,0,.36,0,.34-.06.33,0,.33,0,.36,0,.33,0,.33,0,.33v.34l0,.33,0,.36,0,.33,0,.33,0,.33v.33l0,.31,0,.33,0,.33v.33l0,.33v.34l0,.33v.33l0,.3v.34l0,.33v.33l0,.3V244l0,.33V245l0,.33v1.58l0,.3v2.21l0,.31v1.54l0,.34v.91l0,.3v.61l0,.31v.3l0,.33v.31l0,.3v.3l0,.31v.3l0,.31v.3l0,.3v.31l0,.28,0,.3v.3l0,.31,0,.3,0,.31v.3l0,.3,0,.31,0,.27,0,.31v.3l0,.31,0,.3,0,.31,0,.3,0,.28,0,.3,0,.3,0,.31,0,.28,0,.3,0,.3.06.58.05.61.06.58.08.61.06.58.08.61.06.58.08.58.05.61.09.58.08.61.08.58.09.61,0,.58.08.58.09.61.11.58.08.61.08.58.09.61.08.58.11.6.08.59.09.6.11.58.08.61.11.61.08.58.11.61.11.61.09.58.11.61.11.61.11.6.08.61.11.61.11.61.11.61.11.61.23,1.21.22,1.25.22,1.24.22,1.24.47,2.49.47,2.55.22,1.3.25,1.27.22,1.3.25,1.33.11.66.11.63.11.7.11.66.14.66.11.67.11.69.11.66.11.69.14.67.11.69.11.69.11.69.11.69.11.72.11.69.12.69.11.72.11.72.11.69.11.72.11.72.11.75.11.72.08.71.11.75.11.75.11.72.09.74.11.75.11.77.08.75.11.77.09.75.11.78.08.77.08.77.11.78.09.8.08.77.08.81.08.8.09.8.08.8.08.8.06.42,0,.41,0,.42,0,.38,0,.42.05.41,0,.42,0,.41.05.42,0,.41,0,.42.05.41,0,.45,0,.41,0,.41,0,.45.06.41,0,.42,0,.44,0,.41,0,.45,0,.41,0,.44.06.45,0,.41,0,.44,0,.45,0,.44,0,.44,0,.44v.45l0,.44,0,.44,0,.44,0,.44,0,.47,0,.45,0,.44v.47l0,.44,0,.47,0,.44v.47l0,.45,0,.47v.47l0,.44V356l0,.47,0,.47v.47l0,.47v.47l0,.47v.47l0,.5v.94l0,.5v1l0,.47v1.47l0,.5v7l0,.5v1.55l0,.52v1.05l0,.53v1.05l0,.52v.53l0,.55V379l0,.52,0,.56v.52l0,.55v.53l0,.55,0,.56,0,.55v.52l0,.56,0,.55,0,.55,0,.56,0,.58,0,.55,0,.55,0,.56,0,.58,0,.55,0,.58,0,.55,0,.58-.05.58,0,.58,0,.56-.05.58,0,.58,0,.58-.05.61,0,.58-.06.58,0,.58-.06.61,0,.58-.05.58,0,.61L277,400l-.05.58-.06.6,0,.61-.06.61,0,.61-.06.61-.05.61-.06.6-.06.64-.05.61-.06.61-.05.63-.06.61,0,.64-.06.61-.05.63-.09.64,0,.63-.06.64-.08.64,0,.63-.09.64-.05.63-.06.67-.08.63-.08.64-.06.66,0,.2,0,.19v.19l0,.17,0,.22,0,.17v.19l0,.19v.2l0,.19,0,.19v.2l0,.19v.19l0,.2v.19l0,.2v.19l0,.19v.39l0,.19v.2l0,.19V422l0,.22v.58l0,.2v.77l0,.39v2.38l0,.38v.8l0,.39v.39l0,.41v.39l0,.39,0,.41v.39l0,.41,0,.39,0,.42,0,.38,0,.39,0,.41,0,.39.06.42,0,.38,0,.39.06.42,0,.38,0,.42.06.39.05.41,0,.39.06.38.05.42,0,.39.06.41,0,.39.06.38.05.42.06.39.05.38.06.42.05.39.09.38.05.39.06.41.08.39.05.39.06.39.08.41.06.39.08.38.06.39.08.39.08.39.06.38.08.42.08.36.09.41.08.39.08.39.06.36.08.38.08.39.09.39.08.38.08.39.11.39.09.36.08.38.08.39.08.39.12.36.08.39.08.38.08.36.11.36.09.39.11.36.08.39.11.35.08.39.12.36.08.36.11.36.08.36.11.39.09.36.11.36.11.36.08.35.11.36.11.36.08.34.11.36.11.35.12.36.08.34.11.36.11.33.11.36.11.33.08.36.11.33.12.36.11.33.11.33.11.33.11.34.08.33.11.33.11.33.11.33.11.33.11.31.11.33.11.33.12.31.11.33.11.3.11.33.08.31.11.3.11.31.11.3.11.33.11.28.11.3.11.31.11.3.12.31.11.27.08.31.22.58.22.58.22.55.2.55.22.56.19.52.22.53.2.52.19.53.22.5.19.49.2.47.19.47.19.47.2.47.16.45.2.44.19.41.17.42.16.41.17.39.19.39.14.36.17.36.16.36.14.33.17.33.14.33.13.31.14.27.11.28.14.28.11.24.11.25.11.22.11.22.2.42.16.36.14.28.11.25.11.19.06.11.08.14.14.3.14.28.11.25.14.27.13.25.11.28.14.25.14.25.14.24.14.28.14.25.13.25.14.25.14.25.14.25.14.24.13.25.14.28.14.25.14.22.17.25.13.25.14.25.14.25.17.24.13.25.14.22.17.25.14.25.16.25.14.22.17.25.16.22.14.25.17.25.14.22.16.22.17.25.16.25.14.22.17.22.16.25.17.22.16.22.17.25.14.22.16.22.17.23.17.25.16.22.2.22.16.22.17.22.16.22.17.22.17.22.16.22.19.23.17.22.17.22.19.22.17.22.16.22.2.22.16.2.2.22.16.22.17.22.19.19.19.23.17.22.19.19.17.22.19.22.2.2.16.22.2.19.19.22.19.2.17.22.19.19.2.19.19.22.19.2.17.19.19.22.2.2.19.19.19.19.2.22.19.2.19.19.2.2.19.19.19.19.2.2.22.19.19.19.2.2.19.19.19.19.2.2.22.19.19.19.2.2.19.19.22.2.19.16.2.19.22.2.19.16.22.2.2.19.22.17.19.19.2.19.22.17.22.19.19.17.22.19.2.17.22.19.19.17.22.19.22.17.2.16.22.2.22.16.19.17.22.19.22.17.23.16.19.17.22.17.22.19.22.17.2.16.22.17.22.16.22.17.22.17.22.16.22.17.2.16.22.17.22.16.22.17.22.17.22.16.22.17.23.14.22.16.22.17.22.16.22.14.22.17.22.16.22.14.23.17.24.16.23.14.22.17.22.14.22.16.22.17.22.14.25.16.22.14.22.14.22.17.23.13.24.17.23.14.22.14.22.16.25.14.22.14.22.14.22.16.25.14.22.14.22.14.25.14.22.13.22.14.25.14.22.17.22.13.25.14.22.14.23.14.24.11.23.14.22.14.25.13.22.14.25.14.22.14.22.11.25.14.22.14.25.13.22.14.25.11.22.14.22.14.25.11.22.14.25.14.22.11.25.14.22.11.25.13.22.12.22.13.25.11.25.14.22.11.22.11.25.14.22.11.25.14.22.11.25.11.22.11.25.14.22.11.25.11.22.11.25.14.47.22.47.22.47.22.47.23.47.22.44.22.47.22.47.22.47.22.47.2.47.22.47.19.47.22.47.19.47.2.45.22.47.19.47.2.47.19.44.19.47.2.47.16.44.2.47.19.47.17.44.19.47.17.45.16.47.2.44.16.44.17.47.16.44.17.45.16.44.17.47.17.44.13.44.17.44.17.45.13.44.17.44.14.42.14.44.16.44.14.42.14.44.14.44.14.42.13.41.14.44.14.42.11.41.14.42.14.44.11.41.14.39.11.42.14.41.11.42.11.38.11.42.14.41.11.39.11.39.11.38.11.42.08.39.11.38.11.36.11.39.09.39.11.38.08.36.11.39.08.36.11.36.09.36.08.36.08.36.09.36.08.36.08.33.08.36.09.33.08.36.08.33.09.33.05.33.08.34.09.3.05.33.09.33.05.31.08.3.06.31,0,.3.09.3,0,.31.06.3,0,.28.06.3,0,.28.06.28,0,.27.06.28.06.25,0,.28,0,.27,0,.25.06.25,0,.25,0,.25,0,.25.05.22,0,.25.06.22,0,.44.09.41.05.42.06.39.05.38.06.36,0,.33.06.31,0,.3.05.28,0,.25,0,.25,0,.36,0,.36,0,.36.06.36,0,.35,0,.39,0,.36,0,.36,0,.36,0,.36,0,.39,0,.36,0,.36.06.35,0,.36,0,.36,0,.39,0,.36,0h.36l.36,0,.36,0,.36,0,.36,0,.36,0,.38,0h.36l.36,0,.36,0,.36,0h.36l.36,0h.36l.36,0,.36,0h.36l.36,0h.36l.36,0H401l.36,0h.72l.35,0h.36l.36,0h1.08l.36,0h1.8l.33,0h3.21l.36,0h1.77l.36,0h.69l.36,0h.69l.36,0h.36l.36,0h.69l.36,0h.33l.36,0h.36l.33,0,.36,0h.33l.36,0,.36,0h.33l.36,0,.33,0h.36l.33,0,.36,0,.34,0,.35,0h.34l.36,0,.33,0,.36,0,.33,0,.36,0,.33,0,.36,0,.33,0,.33,0,.36,0,.33,0,.34,0,.36,0,.33,0,.33,0,.36,0,.33,0,.33,0,.36,0,.33-.06.34,0,.33,0,.36,0,.33-.05.33,0,.33-.06.33,0,.36,0,.34-.06.33,0,.33-.05.33,0,.33,0,.36,0,.33-.06.34,0,.33-.05.33,0,.33,0,.33-.06.33,0,.34-.05.33-.06.33,0,.33,0,.33,0,.34-.06.3-.06.33,0,.33-.06.34,0,.33-.06.33,0,.33-.06.3-.05L441,546l.33-.06.33,0,.33-.06.31,0,.33-.06.33,0,.3-.06.34-.05.33-.06.33-.05.3-.06.34-.08.3-.06.33-.05.33-.06.31-.05.33-.09.3-.05.33-.06.31-.08.33,0,.3-.06.34-.08.3-.06.33,0,.31-.09.3,0,.33-.08.31-.06.3-.08.33-.06.31-.08.3-.06.33-.08.31-.05.3-.09.33-.08.31-.06.3-.08.31-.08.3-.06.3-.08.34-.08.3-.06.3-.08.31-.08.3-.09.31-.05.3-.09.31-.08.3-.08.3-.08.31-.09.3-.08.31-.08.3-.09.3,0,.31-.08.27-.09.31-.08.3-.08.31-.09.3-.11.28-.08.3-.08.31-.09.3-.08.28-.08.3-.08.31-.09.58-.19.58-.17.3-.08.28-.11.3-.08.28-.09.3-.11.28-.08.3-.08.28-.11.58-.17.28-.11.27-.08.31-.11.27-.09.31-.08.27-.11.28-.08.28-.11.58-.2.27-.11.28-.08.28-.11.27-.08.28-.11.28-.09.27-.11.28-.11.3-.08.25-.11.28-.11.28-.11.27-.09.28-.11.28-.11.27-.11.28-.08.27-.11.25-.11.28-.11.28-.11.27-.09.25-.11.28-.11.27-.11.25-.11.28-.11.25-.11.28-.11.27-.11.25-.11.28-.11.25-.11.27-.11.25-.11.25-.11.28-.12.25-.11.27-.11.25-.11.25-.11.25-.11.28-.14.24-.11.25-.11.25-.11.28-.11.25-.11.25-.14.25-.11.24-.11.25-.11.25-.14.25-.11.25-.11.25-.14.25-.11.25-.11.24-.14.25-.11.23-.11.49-.25.25-.11.22-.14.25-.11.25-.13.25-.12.22-.13.25-.11.22-.14.5-.25.22-.11.25-.14.22-.11.22-.14.25-.11.22-.14.25-.14.22-.11.22-.14.25-.11.22-.13.22-.14.22-.11.23-.14.24-.14.23-.11.22-.14.22-.14.22-.11.22-.14.22-.13.22-.14.22-.14.23-.11.22-.14.22-.14.19-.14.22-.13.22-.11.22-.14.2-.14.22-.14.22-.14.22-.14.2-.13.22-.14.19-.11.22-.14.19-.14.23-.14.19-.14.22-.13.19-.14.23-.14.19-.14.19-.14.22-.14.2-.13.19-.14.19-.14.2-.14.22-.14.19-.13.2-.14.19-.14.19-.17.2-.14.19-.13.19-.14.2-.14.19-.14.17-.14.19-.14.19-.16.39-.28.17-.14.19-.13.19-.14.17-.17.19-.14.2-.13.16-.14.2-.17.16-.14.2-.14.16-.13.17-.17.19-.14.17-.14.16-.13.2-.17.16-.14.17-.14.16-.16.36-.28.17-.16.17-.14.16-.14L507,518l.16-.14.17-.16.17-.14.16-.14.14-.16.17-.14.16-.17.17-.14.14-.13.16-.17.17-.14.16-.16.14-.14.17-.17.14-.14.3-.3.17-.14.13-.17.14-.13.17-.17.14-.14.13-.16.17-.14.14-.17.14-.14.14-.16.13-.14.14-.17.14-.13.3-.34.12-.13.13-.17.14-.14.14-.16.14-.14.14-.17.13-.14.11-.16.14-.17.14-.14.11-.16.14-.17.14-.14.11-.16.14-.14.11-.17.14-.16.11-.14.25-.3.11-.17.11-.17.14-.14.11-.16.11-.17.11-.14.11-.16.11-.17.11-.14.14-.16.08-.17.11-.14.11-.16.11-.17.11-.14.11-.16.11-.17.09-.14.11-.16.11-.17.08-.14.11-.16.11-.17.08-.14.12-.16.08-.17.11-.14.08-.16.11-.17.17-.3.08-.17.11-.16.09-.14.08-.17.08-.16.11-.17.08-.14.09-.16.08-.17.08-.14.09-.16.08-.17,0-.14.09-.16.08-.17.08-.17.2-.41.19-.41.22-.42.2-.41.19-.42.19-.41.2-.42.19-.41.19-.42.17-.39.19-.41.2-.42.16-.41.2-.41.19-.42.16-.39.2-.41.16-.42.17-.41.19-.39.17-.41.17-.42.16-.38.17-.42.16-.41.17-.39.16-.42.17-.38.17-.42.16-.41.14-.39.17-.41.16-.39.14-.42.17-.38.14-.42.16-.38.14-.42.17-.41.13-.39.14-.42.17-.38.14-.39.13-.42.14-.38.14-.42.14-.38.14-.42.14-.39.13-.41.11-.39.14-.41.14-.39.14-.41.11-.39.14-.42.11-.38.14-.42.11-.39.11-.41.14-.39.11-.38.11-.42.14-.41.11-.39.11-.39.11-.41.11-.42.11-.38.11-.42.11-.39.08-.41.11-.39.11-.41.11-.39.09-.41.11-.42.11-.39.08-.41.11-.42.09-.38.08-.42.11-.41.08-.39.09-.41.11-.42.08-.39.08-.41.08-.42.09-.41.08-.42.08-.38.09-.42.08-.41.08-.42.08-.41.06-.42.08-.41.09-.42,0-.41.08-.42.09-.41.05-.41.09-.42.05-.41.06-.42.08-.41,0-.45.06-.41.08-.42.06-.41,0-.44.06-.42,0-.41.06-.45,0-.41.06-.44,0-.42.06-.44.06-.41,0-.45,0-.41,0-.44.06-.45,0-.41,0-.44,0-.45.06-.44,0-.44.06-.42,0-.44,0-.44,0-.44,0-.44,0-.45.06-.44,0-.47,0-.44,0-.44,0-.45,0-.47,0-.44,0-.44,0-.47,0-.44v-.47l0-.45,0-.47,0-.47v-.44l0-.47,0-.47V439l0-.44v-.94l0-.47v-.5l0-.47v-1.91l0-.47v-3.4l0-.5v-1.46l0-.5v-1l0-.5v-.5l0-.5v-.52l0-.5v-.52l0-.5,0-.53v-.49l0-.53,0-.53,0-.52v-.53l0-.52,0-.53,0-.52,0-.53,0-.52,0-.53,0-.55,0-.53-.06-.55,0-.53,0-.55,0-.52,0-.56,0-.55,0-.55,0-.56,0-.55-.06-.55,0-.56-.05-.55,0-.58,0-.55,0-.55-.06-.58,0-.56,0-.58-.06-.58,0-.58-.06-.55,0-.58-.06-.58,0-.61-.06-.58,0-.58-.06-.58,0-.61-.06-.58L533,399l-.06-.58-.05-.61-.06-.61-.08-.61-.06-.61-.05-.6-.09-.61-.05-.61-.06-.61-.08-.61,0-.63-.09-.64,0-.61-.09-.63-.08-.64,0-.61-.09-.63-.08-.64-.06-.64-.08-.66-.08-.64-.08-.63-.09-.66,0-.64-.08-.66-.09-.64-.08-.69,0-.17,0-.16,0-.2v-.19l0-.17,0-.19v-.19l0-.17,0-.19v-.17l0-.19v-.17l0-.19v-.2l0-.16v-.19l0-.2v-.36l0-.19V378l0-.19v-.75l0-.17v-2.46l0-.36v-.58l0-.38v-.39l0-.36,0-.39,0-.39v-.38l0-.39.05-.39,0-.36,0-.38,0-.39,0-.39.06-.39,0-.38.05-.39.06-.39,0-.41.05-.39.06-.39.05-.38.06-.39,0-.39.06-.38,0-.42.06-.39,0-.38.09-.39,0-.41.06-.39.08-.39.05-.39.09-.41.08-.39.08-.38.06-.42.08-.39.08-.41.09-.39.08-.41.08-.39.09-.42.08-.38.08-.42.11-.38.09-.42.08-.39.11-.41.08-.39.11-.41.09-.42.11-.38.08-.42.11-.41.11-.39.08-.42.11-.41.11-.39.12-.41.11-.42.11-.41.11-.39L535,349l.14-.42.11-.41.11-.39.11-.42.11-.41.11-.41.11-.39.14-.42.11-.41.11-.42.14-.41.11-.39.14-.41.11-.42.25-.83L537,342l.11-.39.13-.41.12-.42.13-.41.14-.42.11-.41.14-.42.14-.41.25-.8.14-.42.13-.41.25-.83.28-.83.28-.8.27-.83.28-.83.28-.81.27-.82.28-.83.28-.81.27-.83.28-.8.27-.83.28-.8.31-.83.27-.8.55-1.63.59-1.61.55-1.63.55-1.57.55-1.61.28-.8.28-.8.27-.77.28-.78.25-.8.28-.77.24-.78.28-.77.25-.78.28-.77.25-.78.24-.74.25-.78.25-.74.11-.39.14-.39.11-.36.11-.38.14-.36.11-.39.11-.36.11-.39.11-.36.14-.36.11-.38.11-.36.11-.36.11-.36.11-.36L551,300l.09-.36.11-.36.11-.39.11-.33.11-.36.08-.36.11-.36.11-.36.09-.36.11-.33.08-.36.08-.33.11-.36.09-.33.08-.36.11-.33.08-.33.09-.36.08-.33L553,293l.09-.33.08-.36.08-.33.08-.33.09-.3,0-.34.09-.33.08-.33,0-.33.09-.31,0-.33.09-.3,0-.33.06-.31.08-.33.05-.3.06-.31.05-.33.06-.3.06-.31,0-.3.06-.31,0-.3,0-.28.05-.3.06-.31,0-.27.05-.31.09-.69.08-.72.11-.69,0-.36.08-.69.11-.72,0-.36.08-.69.08-.72.09-.69.08-.72.11-1.08,0-.33.08-.72,0-.36,0-.35.08-.72,0-.72,0-.36,0-.33,0-.36,0-.72.06-.36,0-.72,0-.36v-.36l.06-.72,0-.72,0-.36.05-.72,0-.36,0-.71,0-.36,0-.36v-.36l0-.36,0-.36v-.36l.06-.75v-.36l0-.72,0-.36V261l0-.36,0-.72v-.72l0-.75,0-.36V257l0-.74v-.72l0-.72V250.1l0-.36v-1.46l0-.36v-.72l0-.36v-.75l0-.36v-.36l0-.36v-.36l0-.38v-.36l0-.36v-.36l0-.36,0-.39v-.36l0-.36v-.36l0-.36,0-.36,0-.35v-.39l0-.36,0-.36,0-.36,0-.36,0-.36,0-.39v-.36l0-.36,0-.35,0-.36,0-.36,0-.39,0-.36,0-.36,0-.36,0-.36,0-.36,0-.36L556,233l0-.36,0-.38,0-.36,0-.36,0-.36,0-.36,0-.36,0-.36-.06-.39,0-.36-.06-.36,0-.36,0-.36,0-.35-.06-.36,0-.36-.06-.36-.05-.36,0-.36-.06-.36-.05-.36-.06-.36,0-.39,0-.36-.06-.36-.05-.36-.06-.35-.05-.36-.06-.36-.05-.36,0-.36-.08-.36-.06-.36,0-.36-.06-.36,0-.36-.06-.36-.06-.36-.05-.36-.08-.33-.06-.39,0-.36-.06-.33-.08-.36-.06-.36,0-.36-.09-.36,0-.36-.08-.36-.06-.35-.08-.36-.06-.36-.08-.34-.06-.35-.08-.36-.08-.36-.06-.36-.08-.36-.08-.36-.06-.33-.08-.36-.08-.36-.09-.36-.08-.36-.06-.33-.08-.36-.08-.36-.08-.36-.09-.33-.08-.36-.08-.36-.09-.36-.08-.36-.11-.33-.08-.36-.09-.33-.08-.36-.08-.36-.11-.34-.09-.36L551,204l-.11-.36-.08-.34-.08-.36-.12-.33-.08-.36-.11-.36-.08-.33-.11-.36-.08-.33-.12-.36-.08-.33-.11-.36-.11-.33-.08-.36-.11-.36-.11-.33-.11-.33-.09-.36-.11-.34-.11-.36-.11-.33-.11-.36-.11-.33-.11-.36-.11-.33-.11-.33-.11-.36-.11-.33L548,194l-.11-.36-.14-.34-.11-.33-.11-.36-.12-.33-.13-.33-.11-.36-.11-.33-.14-.33-.11-.33-.11-.34-.14-.36-.11-.33-.14-.33-.14-.33-.11-.33-.14-.36-.11-.33-.14-.34-.14-.33-.11-.33-.13-.33-.14-.33-.14-.34-.14-.33-.14-.33-.13-.33-.14-.33-.11-.33-.14-.34-.17-.33-.14-.33-.13-.33-.14-.33-.14-.34-.14-.33-.14-.33-.16-.33-.14-.3-.14-.34-.14-.33-.16-.33-.14-.33-.17-.33L542,179l-.16-.33-.14-.33-.17-.33-.14-.31-.16-.33-.14-.3-.17-.34-.16-.33-.17-.3-.14-.33-.16-.33-.17-.31-.16-.33-.17-.31-.16-.33-.17-.3-.14-.33-.17-.31-.19-.33-.16-.3-.17-.34-.17-.3-.16-.33-.17-.3L538,171l-.2-.33-.16-.31-.17-.3-.19-.33-.17-.31-.19-.3-.17-.3-.16-.34-.2-.3-.16-.3-.2-.31-.19-.3-.17-.33-.19-.31-.19-.3-.17-.31-.19-.3-.2-.3-.19-.31-.19-.3-.2-.31-.19-.3-.17-.31-.22-.3-.19-.3-.19-.31-.2-.3-.19-.31-.2-.3-.19-.28-.19-.3-.22-.31-.2-.3-.19-.3-.22-.28-.2-.3-.19-.31-.22-.27-.19-.31-.23-.3-.22-.31-.19-.27-.22-.31-.22-.27-.2-.31-.22-.28-.22-.3-.19-.28-.22-.3-.22-.28-.23-.3-.22-.28-.22-.3-.22-.28-.22-.27-.22-.31-.22-.27-.22-.28-.23-.31-.24-.27-.23-.28-.22-.27-.22-.28-.25-.31-.22-.27-.25-.28-.22-.27-.22-.28-.25-.28-.25-.27-.22-.28-.25-.28-.22-.27-.25-.28-.25-.28-.24-.27-.23-.28-.24-.28-.25-.27-.25-.25-.25-.28-.25-.27-.25-.28-.25-.28-.25-.25-.25-.27-.24-.28-.28-.25-.25-.27-.25-.28-.25-.25-.27-.28L518,144l-.25-.27-.28-.25-.25-.28-.27-.25-.25-.27-.28-.25-.27-.28-.25-.25-.28-.25-.28-.24-.25-.28-.27-.25-.28-.25-.28-.25-.27-.27-.28-.25-.27-.25-.28-.25-.28-.25-.27-.25-.28-.25-.28-.25-.27-.25-.31-.24-.27-.25-.28-.25-.31-.25-.27-.25-.31-.25-.27-.25-.31-.25-.27-.22-.31-.25-.27-.24-.31-.23-.3-.25-.28-.24-.3-.23-.31-.24-.3-.25-.3-.22-.31-.25-.3-.22-.31-.25-.3-.22-.31-.25-.3-.22-.3-.23-.31-.24-.33-.23-.3-.22-.31-.25-.33-.22-.3-.22-.31-.22-.33-.22-.3-.25-.34-.22-.33-.22-.3-.22-.33-.22-.34-.23-.3-.22-.33-.22-.33-.22-.34-.22-.33-.19-.33-.22-.33-.23-.33-.22-.33-.22-.34-.19-.33-.22-.33-.22-.36-.2-.33-.22-.33-.22-.36-.19-.33-.23-.34-.19-.36-.22-.33-.19-.36-.2-.36-.22-.33-.19-.36-.22-.36-.2-.33-.19-.36-.19-.36-.22-.36-.2-.36-.19-.36-.2-.36-.19-.35-.19-.36-.2-.36-.19-.89-.47-.86-.47-.85-.44-.89-.44-.85-.47-.86-.45-.86-.44-.44-.22-.44-.22-.42-.22-.44-.22-.44-.23-.42-.22-.44-.22-.44-.22-.42-.22-.44-.22-.44-.22-.42-.22-.44-.2-.44-.22-.42-.22-.44-.22-.44-.19-.42-.23-.44-.22-.44-.19-.42-.22-.44-.2-.44-.22-.42-.22-.44-.19-.44-.19-.44-.23-.42-.19-.44-.22-.44-.19-.42-.2-.44-.19-.44-.22-.44-.2-.42-.19-.44-.19-.44-.2-.45-.19-.44-.19-.41-.2L464,110l-.44-.19-.44-.2-.44-.19-.42-.19-.44-.17-.44-.19-.44-.2-.45-.16-.44-.2-.44-.19-.44-.17-.42-.19-.44-.17-.44-.16-.45-.2L457,107l-.44-.17-.44-.16-.45-.2-.44-.16-.44-.17-.44-.17-.45-.16-.44-.17-.44-.16-.44-.17-.45-.14-.47-.16-.44-.17-.44-.16-.44-.14-.45-.17-.44-.14-.44-.16-.47-.14-.44-.17-.44-.14-.45-.13-.44-.17-.47-.14-.44-.14-.44-.13-.47-.14-.45-.14-.44-.14-.44-.14-.47-.11-.44-.14-.47-.13-.45-.14-.44-.11-.47-.14-.44-.11-.47-.14-.44-.11-.47-.11-.45-.11-.47-.14-.47-.11-.44-.11-.47-.11-.44-.11-.47-.11-.47-.09-.44-.11-.47-.11-.47-.11-.47-.08-.45-.11-.47-.08-.47-.11-.47-.09-.47-.08-.27-.06-.31,0-.27-.06-.31,0-.27-.06-.31,0-.3-.06-.28,0-.3,0-.31-.06-.27,0-.31-.06-.28,0-.3-.06-.3-.06-.28,0-.3-.06-.31,0-.27,0-.31,0-.28,0-.3,0-.3-.06-.31,0-.27,0-.31,0-.3,0-.28,0-.3,0-.31,0-.3,0-.28,0-.3,0-.31,0-.27,0-.31-.06-.3,0-.31,0-.27,0-.31,0-.3,0-.3,0-.31,0-.28,0-.3,0-.3,0h-.31l-.3,0-.28,0-.3,0-.31,0h-.3l-.3,0-.28,0h-.31l-.3,0-.3,0H414l-.3,0h-.31l-.27,0h-.31l-.3,0h-.31l-.3,0h-.3l-.28,0h-.61l-.3,0h-.91l-.31,0h-2.71Zm.64-11.06h2l.3,0h1l.3,0h.67l.33,0H412l.31,0H413l.33,0h.3l.34,0,.33,0h.33l.3,0,.34,0h.33l.3,0,.33,0,.34,0h.33l.3,0,.33,0,.34,0,.33,0,.3,0,.33,0,.34,0,.3,0,.33,0,.33,0,.33,0,.31,0,.33,0,.33,0,.31.06.33,0,.33,0,.3,0,.34,0,.33,0,.3,0,.33,0,.31,0,.33.06.33,0,.31.06.33,0,.33,0,.3,0,.34.06.33,0,.3,0,.33.05.31.06.33,0,.3.05.34.06.33.05.3.06.33,0,.31.05.33.06.3.05.33.06.31.05.33.06.33.05.31.09.3.05.33.06.33.05.5.11.5.09.52.11.5.11.5.08.5.11.52.11.5.11.5.11.5.14.49.11.5.11.5.11.5.14.5.11.49.14.5.11.5.14.5.14.49.13.5.12.47.13.5.14.5.14.5.14.46.16.5.14.47.14.5.14.5.16.47.14.5.14.47.17.49.16.47.14.47.17.5.16.47.14.5.17.47.16.47.17.47.17.5.16.47.17.47.16.47.17.47.16.47.2.47.16.49.17.47.19.48.17.47.19.46.17.48.19.47.17.44.19.47.2.47.16.47.2.47.19.47.19.44.2.47.16.47.19.47.2.44.19.47.22.47.2.45.19.47.19.47.2.44.19.47.22.44.2.47.19.44.22.47.19.45.23.47.19.44.22.47.19.44.22.47.2.44.22.45.22.46.19.45.23.44.22.47.19.44.22.44.22.48.22.44.23.44.22.44.19.44.22.47.22.45.22.44.22.44.23.44.22.45.22.47.25.44.22.44.22.44.22.45.22.44.22.44.22.44.25.45.22.44.23.44.22.89.47.88.47.89.44.88.47.89.47.88.47.86.44.41.22.39.22.39.2.38.22.39.22.39.19.38.22.39.23.39.22.39.22.38.22.36.22.39.22.39.22.36.22.38.23.39.22.36.22.39.22.36.25.36.22.38.22.36.22.36.25.39.22.36.22.36.25.36.22.36.25.36.22.36.25.35.25.36.22.36.25.34.25.36.22.35.25.36.25.34.25.36.22.33.25.36.25.33.25.36.24.33.25.36.25.33.25.33.25.33.25.34.25.36.27.33.25.33.25.33.25.33.25.33.28.34.24.33.28.3.25.33.25.34.28.3.24.33.28.33.25.31.28.33.25.3.27.34.28.3.25.3.27.34.28.3.28.3.25.31.27.33.28.3.27.31.28.3.28.31.27.3.28.3.28.31.27.28.28.3.28.3.27.31.28.27.28.31.27.3.28.28.3.3.28.28.28.3.3.28.28.28.27.3.31.28.27.27.28.31.31.27.27.28.31.28.27.27.31.28.3.28.28.27.3.28.28.28.3.25.31.27.27.28.31.28.3.24.31.28.3.25.28.28.3.25.3.27.31.25.3.28.31.25.3.24.3.28.31.25.3.25.31.25.3.25.31.25.33.24.3.25.31.25.3.25.3.25.31.25.33.25.3.25.31.22.33.25.3.25.31.22.33.24.3.23.34.24.3.23.33.25.31.22.33.25.3.22.33.22.31.22.33.25.3.22.34.22.33.22.3.22.33.22.34.22.33.23.3.22.33.22.33.22.34.19.33.22.3.23.33.22.34.19.33.22.33.19.33.23.33.19.34.22.33.19.33.23.33.19.33.19.33.22.34.2.33.19.33.19.33.23.36.19.33.19.33.2.34.19.33.19.36.2.33.19.33.19.33.17.36.19.33.2.34.19.36.17.33.19.33.19.36.17.33.19.36.17.33.19.36.17.33.19.36.17.33.16.36.2.34.16.35.17.34.17.36.16.33.19.36.17.36.17.33.16.36.17.36.16.33.17.36.17.36.13.33.17.36.17.36.16.36.14.36.17.33.16.36.14.36.17.36.16.36.14.33.17.36.13.36.14.36.17.36.14.36.16.36.14.36.14.36.14.35.16.36.14.36.14.36.14.36.14.36.14.36.13.36.14.36.14.36.14.36.14.36.11.36.13.36.14.38.14.36.14.36.11.36.14.36.11.39.14.36.14.36.11.36.13.36.11.38.12.36.13.36.11.36.14.39.11.36.11.36.11.36.14.39.11.35.11.36.12.39.11.36.11.36.11.39.11.36.11.38.11.36.11.39.11.36.11.36.08.39.11.36.11.38.12.36.08.39.11.36.11.39.08.36.11.38.09.36.11.36.08.39.11.39.08.36.09.38.11.36.08.39.08.36.11.39.09.36.08.38.08.39.08.36.12.39.08.36.08.38.08.39.09.36.08.39.08.38.09.36.08.39,0,.39.09.36.08.38.08.36.09.39,0,.39.08.38.09.36,0,.39.09.39,0,.36.08.38.06.39.08.36.06.39.08.38.06.39.08.36,0,.39.06.39.08.38.06.39,0,.36.06.39.08.38.06.39,0,.36.06.39,0,.38.06.39,0,.39.06.36,0,.39.06.38,0,.39.06.39.05.36.06.38,0,.39,0,.39.06.38.05.39,0,.36.06.39,0,.39,0,.38.05.39,0,.39.06.38.05.36,0,.39,0,.39.05.38,0,.39.06.39,0,.36,0,.39.06.38,0,.39,0,.39.06.38,0,.39,0,.36,0,.39,0,.38,0,.39,0,.39,0,.39.06.38,0,.39v.36l0,.39,0,.38,0,.39,0,.39,0,.38,0,.39,0,.36,0,.39v.39l0,.38,0,.39v.39l0,.38,0,.36v.39l0,.39v.38l0,.39,0,.39v.39l0,.38v.75l0,.39v.38l0,.39v1.13l0,.39v1.16l0,.39v4.95l0,.39v1.52l0,.38V258l0,.39v.77l0,.36v.39l0,.39v.38l0,.36v.39l0,.39v.38l0,.36v.39l0,.39,0,.36v.38l0,.39,0,.39v.36l0,.38,0,.36,0,.39v.39l0,.36,0,.39,0,.38,0,.36,0,.39,0,.36,0,.39,0,.38,0,.36,0,.39,0,.39,0,.36,0,.38,0,.36,0,.39,0,.36,0,.39,0,.36,0,.38,0,.36,0,.39,0,.39-.06.36,0,.36,0,.38-.06.36,0,.39,0,.36-.06.39,0,.35-.05.39,0,.36,0,.39,0,.36,0,.36-.06.38-.05.36,0,.39-.06.36,0,.36-.06.39,0,.36,0,.36-.06.38,0,.36,0,.36,0,.36-.06.39-.06.36,0,.36-.06.38,0,.34-.06.36,0,.33-.06.36-.05.33-.06.36-.05.33-.06.36-.06.36-.08.36-.05.33-.06.36-.08.36-.06.36-.08.36-.08.36-.06.36-.08.36-.08.36-.09.36-.08.36-.08.35-.09.36-.08.36-.08.36-.09.39-.08.36-.11.36-.08.36-.08.39-.12.35-.08.36-.11.39-.08.36-.11.39-.09.36-.11.38-.11.36-.11.39-.08.36-.11.39-.11.36-.11.38-.11.39L562,302l-.11.36-.11.39-.11.38-.12.36-.11.39-.11.39-.13.38-.12.39-.11.39-.11.38-.14.39-.11.39-.13.39-.11.38-.14.39-.11.39-.11.38-.14.39-.14.39-.25.77-.25.8-.25.78-.27.77-.25.8-.28.81-.28.77-.24.8-.28.78-.28.8-.27.8-.28.8-.28.8-.27.81-.56,1.6-.55,1.6-.58,1.61-.55,1.63-.56,1.6-.27.8-.28.81-.3.8-.28.83-.28.8-.27.8-.25.8-.28.8-.27.81-.28.8-.28.8-.25.8-.27.8-.25.81-.28.8-.11.41-.14.39-.14.39-.11.41-.13.39-.11.39-.14.41-.11.39-.14.41-.11.39-.14.39-.11.38-.11.42-.14.39-.11.38-.11.39-.11.41-.14.39-.11.39-.11.39-.11.38-.11.39-.11.39-.11.38-.11.39-.12.39-.11.39-.11.38-.11.39-.08.39-.11.38-.11.39-.08.39-.11.39-.12.35-.08.39-.11.39-.08.36-.08.39-.11.38-.09.36-.08.39-.11.36-.08.39-.09.38-.08.36-.08.36-.09.39-.08.36-.08.36-.09.38,0,.36-.08.36-.09.36,0,.36-.09.39-.08.33-.05.39-.06.36-.08.33-.06.36-.05.36-.08.36-.06.36-.06.36-.05.33-.06.36-.05.36,0,.33,0,.33-.06.36,0,.33,0,.36-.06.33,0,.34-.05.36,0,.33,0,.33,0,.33-.06.33,0,.33,0,.34,0,.33,0,.33v.3l0,.34,0,.33,0,.3v.47l0,.17v.77l0,.17v2.29l0,.17v.58l0,.14v.44l0,.14v.3l0,.14V379l0,.14v.16l0,.14v.14l0,.14v.13l0,.14v.14l0,.14v.14l0,.14,0,.13.08.67.08.66.09.66,0,.67.08.66.09.64.08.66.08.64.09.66.05.64.08.66.09.64.05.63.08.64.09.63,0,.64.09.64.05.6.08.64.06.64,0,.6.09.64,0,.61.06.61.08.61.06.63,0,.61.06.61,0,.61.09.6,0,.58.06.61,0,.61.06.58,0,.61.06.58,0,.61,0,.58.06.58,0,.58.06.61,0,.58.06.58,0,.58,0,.56.06.58,0,.58.06.55,0,.58,0,.58,0,.55.06.58,0,.56,0,.55,0,.55,0,.58,0,.56,0,.55,0,.55,0,.53,0,.55,0,.55,0,.56,0,.55,0,.53,0,.55,0,.52,0,.56v.52l0,.56,0,.52v.53l0,.52,0,.55v.53l0,.53v.52l0,.53v1l0,.52v1.55l0,.53v3.57l0,.49v2l0,.53v.47l0,.5v.49l0,.5v.5l0,.5v.47l0,.5,0,.49v.47l0,.5,0,.47,0,.5,0,.47,0,.5,0,.47,0,.49,0,.47,0,.47,0,.47,0,.5,0,.47,0,.47,0,.47,0,.47-.05.47,0,.47-.06.47,0,.47-.06.47,0,.47-.05.47-.06.45-.05.47,0,.46-.06.48-.05.44-.06.47-.05.47-.06.44-.05.47-.06.44,0,.47-.06.44-.08.48-.06.44,0,.47-.06.44-.08.47-.06.44-.08.45,0,.46-.09.45-.08.44-.06.44-.08.47-.08.44-.06.45-.08.44-.08.44-.09.44-.08.45-.08.47-.08.44-.09.44-.11.44-.08.45-.08.44-.09.44-.11.44-.08.42-.11.44-.08.44-.11.45-.09.44-.11.44-.08.44-.11.44-.11.42-.11.44-.11.44-.11.45-.09.44-.11.41-.14.45-.11.44-.11.41-.11.45-.11.44-.14.44-.11.42L540,479l-.14.44-.11.42-.13.44-.12.41-.13.44-.14.45-.11.41-.14.44-.14.42-.14.44-.14.44-.13.42-.14.44-.14.42-.14.44-.14.44-.14.42-.13.44-.17.41-.14.45-.14.41-.16.44-.14.42-.17.44-.16.44-.14.42-.17.44-.16.41-.14.45-.17.41-.16.44-.17.42-.16.44-.17.44-.17.42-.16.44-.19.42-.17.44-.17.41-.16.44-.2.45-.16.41-.2.44-.16.42-.19.44-.2.44-.16.42-.2.44-.19.44-.2.42-.16.44-.19.44-.2.42-.19.44-.22.44-.2.42-.19.44-.19.44-.2.44-.22.42-.19.44-.22.44-.2.45-.22.44-.19.44-.22.44-.11.2-.09.19-.11.22-.11.2-.11.22-.08.19-.11.19-.11.22-.11.2-.11.22-.11.19-.11.2-.11.19-.12.22-.11.19-.13.2-.11.22-.12.19-.11.2-.13.19-.12.19-.13.23-.11.19-.14.19-.11.2-.11.19-.14.22-.14.19-.11.2-.14.19-.14.19-.14.2-.11.19-.13.2-.14.19-.14.19-.14.2-.14.19-.14.19-.13.2-.14.19-.14.19-.14.2-.14.19-.16.19-.14.2-.14.19-.16.2-.14.16-.14.19-.17.2-.14.19-.16.2-.14.19-.17.16-.13.2-.17.19-.17.2-.13.16-.17.19-.17.2-.16.16-.14.2-.17.19-.16.17-.17.19-.16.19-.17.17-.17.19-.16.2-.17.16-.16.2-.17.16-.16.2-.2.16-.16.2-.17.16-.17.2-.19.16-.17.19-.16.17-.19.19-.17.17-.19.17-.17.19-.19.17-.17.19-.19.16-.17.17-.19.19-.2.17-.16.17-.2.19-.19.17-.19.16-.2.17-.16.19-.2.17-.19.16-.19.17-.2.16-.19.2-.19.16-.2.17-.19.17-.22.16-.2.17-.19.16-.19.2-.2.16-.22.17-.19.16-.19.17-.2.17-.22.16-.19.17-.22.16-.2.17-.22.17-.19.13L510,530l-.2.17-.22.16-.22.17-.19.16-.22.17-.23.17-.19.16-.22.14-.22.17-.22.16-.22.17-.2.16-.22.14-.22.17-.22.16-.22.14-.22.17-.22.16-.23.17-.22.14-.22.16-.25.14-.22.17-.22.16-.22.14-.22.17-.25.14-.22.16-.22.14-.25.17-.22.13-.25.17-.22.14-.22.16-.25.14-.22.17-.25.14-.22.13-.25.17-.25.14-.22.17-.25.13-.25.14-.22.17-.25.14-.25.13-.25.14-.25.17-.22.14-.25.13-.25.14-.25.17-.24.14-.25.14-.25.13-.25.14-.25.14-.25.17-.25.13-.25.14-.25.14-.24.14-.28.14-.25.14-.25.13-.25.14-.27.14-.25.14-.25.14-.25.14-.28.13-.25.14-.27.11-.25.14-.28.14-.25.14-.25.13-.27.14-.28.14-.25.11-.27.14-.25.14-.28.14-.28.11-.27.14-.25.13-.28.11-.27.14-.28.14-.25.11-.28.14-.27.14-.28.11-.27.14-.28.11-.28.14-.27.11-.28.13-.28.12-.27.13-.28.11-.28.14-.27.11-.28.14-.28.11-.27.11-.28.14-.3.11-.28.14-.28.11-.27.11-.31.14-.27.11-.28.11-.3.11-.28.14-.28.11-.3.11-.28.11-.3.11-.28.11-.3.14-.28.11-.3.11-.28.11-.3.11-.28.11-.3.11-.31.11-.28.12-.3.11-.3.11-.31.11-.27.11-.31.11-.3.11-.31.11-.27.11-.31.08-.3.11-.31.11-.3.11-.3.12-.31.08-.3.11-.31.11-.3.11-.31.08-.3.11-.3.11-.31.09-.3.11-.31.11-.3.08-.3.11-.34.08-.3.12-.3.08-.31.11-.3.08-.33.11-.31.09-.3.11-.31.08-.33.11-.3.08-.33.09-.31.11-.3.08-.33.08-.31.11-.33.09-.31.08-.33.08-.3.11-.33.08-.31.09-.33.08-.3.08-.33.11-.34.09-.3.08-.33.08-.31.09-.33.08-.33.08-.33.09-.31.08-.33.08-.33.08-.33.09-.31.08-.33.08L457,554l-.33.08-.33,0-.33.09-.34.08-.33.08-.3.09-.33,0-.34.08-.33.09-.33.08-.33.06-.33.08-.34.08-.33.06-.36.08-.33.05-.33.09-.33.08-.33.06-.34.08-.33,0-.36.09-.33.05-.33.06-.33.08-.33.06-.36.08-.33,0-.34.06-.33.08-.36.06-.33,0-.33.06-.36.08-.33.06-.36,0-.33.06-.34,0-.36.09-.33,0-.36.06-.33,0-.36.06-.33,0-.36.06-.33.05-.36.06-.33.05-.36.06-.33.05-.36.06-.36,0-.33,0-.36.06-.36.05-.33.06-.36,0-.36,0-.34.06-.36.05-.35.06-.36,0-.34.06-.36.06-.36,0-.35.06-.34,0-.36,0-.36,0-.35,0-.36,0-.36.06-.36,0-.33.06-.36,0-.36,0-.36,0-.36,0-.36,0-.36,0-.36,0-.36,0-.36,0-.36,0-.36,0-.36,0-.36,0-.36.06-.36,0-.36,0-.36,0-.38,0-.36,0-.36,0-.36,0-.36,0-.36,0-.36,0-.39,0h-.36l-.36,0-.35,0-.36,0-.39,0h-.36l-.36,0-.36,0-.39,0h-.36l-.36,0-.36,0h-.38l-.36,0h-.36l-.39,0h-.36l-.38,0h-.36l-.36,0h-.39l-.36,0h-.75l-.36,0h-1.13l-.36,0h-1.49l-.39,0h-3.35l-.38,0h-1.88l-.39,0h-.75l-.38,0h-.75l-.39,0h-.36l-.38,0h-.39l-.36,0h-.39l-.38,0h-.39l-.36,0h-.39l-.38,0-.39,0h-.36l-.39,0-.39,0-.38,0h-.36l-.39,0-.39,0-.38,0-.39,0-.36,0-.39,0-.38,0h-.39l-.39-.06-.39,0-.38,0-.36,0-.39,0-.39,0-.38,0-.39,0-.39,0-.38,0-.39,0-.36,0-.39,0-.39,0-.38,0-.39,0-.39,0-.38,0-.31,0-.3,0-.33,0-.36-.06-.36,0-.39-.06-.42,0-.41-.06-.44,0-.47-.08-.47-.06-.47-.08-.28-.06-.25,0-.25,0-.27,0-.25-.05-.28-.06-.27,0-.28-.05-.28-.06-.3-.05-.28-.06-.3-.05-.31-.06-.27,0-.31-.06-.33,0-.3-.09-.31,0-.33-.06-.33,0-.31-.09-.33,0-.33-.09-.36-.05-.33-.08-.33-.09-.36,0-.33-.08-.36-.09-.36-.08-.36-.08-.36-.09-.36-.08-.39-.08-.36-.08-.38-.09-.36-.11-.39-.08-.39-.08-.39-.12-.38-.08-.39-.11-.39-.11-.41-.08-.39-.11-.41-.11-.39-.11-.42-.09-.41-.11-.41-.11-.42-.14-.41-.11-.42-.11-.44-.11-.42-.14-.44-.11-.41-.11-.45-.14-.41-.13-.44-.11-.45-.14-.44-.14-.44-.14-.44-.11-.44-.17-.45-.13-.47-.14-.44-.14-.47-.14-.44-.14-.47-.16-.44-.14-.47-.17-.47-.14-.47-.16-.45-.17-.47-.16-.49-.17-.48-.14-.46-.16-.47-.2-.48-.16-.47-.17-.49-.16-.47-.2-.47-.16-.5-.2-.47-.16-.5-.2-.47-.19-.5-.19-.49-.2-.47-.19-.5-.19-.5-.2-.5-.19-.49-.2-.5-.22-.47-.19-.5-.22-.53-.19-.47-.23-.49-.22-.53-.22-.5-.22-.49-.22-.5-.22-.5-.22-.5-.22-.5-.25-.52-.22-.5-.25-.5-.22-.49-.25-.53-.25-.5-.25-.49-.25-.25-.11-.25-.14-.25-.11-.28-.14-.25-.11-.24-.14-.25-.14-.25-.11-.25-.13-.25-.14-.28-.11-.25-.14-.24-.14-.25-.14-.25-.14-.28-.13-.25-.11-.25-.14-.25-.14-.24-.14-.25-.14-.25-.14-.25-.13-.28-.14-.25-.14-.24-.14-.25-.14-.25-.14-.25-.16-.25-.14-.28-.14-.25-.14-.24-.13-.25-.17-.25-.14-.25-.14-.25-.16-.25-.14-.28-.14-.24-.16-.25-.14-.25-.17-.25-.14-.25-.16-.25-.14-.25-.17-.25-.14-.24-.16-.25-.17-.25-.14-.25-.16-.25-.14-.28-.17-.25-.16-.24-.17-.25-.16-.25-.14-.25-.17-.25-.16-.25-.17-.22-.17-.28-.16-.25-.17-.22-.16-.25-.17-.24-.16-.25-.17-.25-.17-.25-.16-.25-.17-.25-.16-.25-.2-.25-.16-.25-.17-.22-.17-.25-.19-.24-.16-.25-.17-.25-.19-.22-.17-.25-.19-.25-.17-.25-.19-.25-.17-.22-.19-.25-.17-.25-.19-.25-.17-.22-.19-.25-.2-.24-.16-.23-.19-.25-.2-.24-.19-.23-.2-.24-.16-.25-.19L308,527l-.25-.19-.22-.2-.25-.19-.22-.19-.25-.2-.22-.19-.25-.19-.22-.2-.25-.19-.22-.19-.25-.23-.22-.19-.23-.19-.24-.2-.23-.22-.24-.19-.23-.19-.22-.23-.25-.19-.22-.22-.22-.19-.22-.22-.25-.2-.22-.22-.22-.19-.22-.22-.22-.2-.25-.22-.22-.22-.22-.19-.23-.23-.22-.22-.22-.22-.22-.22-.22-.22-.22-.19-.22-.22-.22-.23-.23-.22-.22-.22-.22-.22-.22-.22-.22-.25-.19-.22-.22-.22-.23-.22-.22-.22-.22-.25-.19-.22-.22-.23-.22-.22-.2-.25-.22-.22-.22-.25-.19-.22-.22-.25-.2-.22-.22-.25-.19-.22-.22-.25-.2-.22-.22-.25-.19-.24-.2-.25-.22-.22-.19-.25-.19-.25-.23-.25-.19-.25-.19-.25-.2-.25-.22-.22L292,511l-.19-.24-.2-.25-.19-.25-.2-.25-.19-.25-.19-.25-.2-.28-.19-.24-.19-.25-.2-.25-.19-.28-.17-.25-.19-.25-.19-.27-.2-.25-.16-.28-.2-.25-.19-.27-.17-.28-.19-.25-.19-.28-.17-.24-.19-.28-.17-.28-.16-.27-.2-.28-.16-.25-.2-.28-.16-.27-.17-.28-.17-.27-.19-.28-.16-.28-.17-.27-.17-.31-.16-.28-.17-.27-.16-.28-.17-.27-.17-.31-.16-.28-.17-.27-.16-.28-.17-.3-.17-.31-.13-.27-.17-.28-.17-.3-.13-.28-.17-.3-.17-.31-.13-.27-.17-.31-.14-.3-.14-.28-.16-.3-.14-.31-.17-.3-.11-.25-.05-.11-.08-.17-.12-.22-.13-.28-.14-.33-.2-.38-.22-.45-.11-.22-.11-.25-.14-.27-.11-.28-.13-.28-.14-.3-.14-.33-.17-.33-.14-.34-.16-.33-.17-.36-.16-.38-.17-.39-.17-.39-.16-.41-.19-.42-.2-.44-.16-.44-.2-.45-.19-.44-.19-.47-.23-.5-.19-.49-.19-.5-.22-.5-.23-.52-.19-.53-.22-.55-.22-.56-.22-.55-.22-.58-.23-.55-.22-.61-.22-.58-.22-.61-.22-.61-.11-.3-.11-.31-.11-.33-.11-.3-.14-.31-.11-.33-.11-.33-.11-.3-.11-.34-.11-.33-.11-.33-.14-.33-.11-.33-.11-.33-.11-.34-.11-.33-.12-.36-.11-.33-.11-.33-.13-.36-.12-.33-.11-.36-.11-.33-.11-.36-.11-.36-.11-.36-.11-.36-.14-.36-.11-.36-.11-.36-.11-.36-.11-.36-.11-.36-.11-.39-.11-.35-.11-.36-.11-.39-.11-.36-.11-.39-.11-.39-.12-.35-.11-.39-.08-.39-.11-.39-.11-.38-.11-.39-.11-.36-.11-.39-.08-.41-.12-.39-.11-.39-.11-.38-.08-.39-.11-.41-.11-.39-.08-.39-.11-.41-.09-.39-.11-.42-.08-.38-.11-.42-.08-.41-.11-.39-.09-.41-.11-.42-.08-.41-.08-.39-.09-.42-.11-.41-.08-.41-.08-.42-.09-.41-.08-.42-.08-.41-.09-.42-.08-.44-.08-.42-.08-.41-.09-.41-.08-.45-.08-.41-.06-.42-.08-.44-.08-.41-.06-.42-.08-.44-.09-.42-.05-.44-.08-.41-.06-.45-.05-.41-.09-.44-.05-.42-.06-.44-.05-.44-.06-.42-.05-.44-.06-.44,0-.44-.06-.42-.06-.44-.05-.44-.06-.45,0-.41-.06-.44-.05-.45,0-.44-.06-.44,0-.44,0-.45-.06-.44,0-.44,0-.42,0-.46,0-.45,0-.44,0-.44,0-.44,0-.42v-.47l0-.44,0-.44v-.45l0-.44v-.88l0-.45v-2.65l0-.47v-.66l0-.45V422l0-.22v-.44l0-.22v-.45l0-.22,0-.44v-.22l0-.22,0-.44,0-.45v-.22l0-.25,0-.41.06-.44,0-.23v-.24l0-.23.05-.44,0-.41,0-.22.08-.67.05-.63.09-.61.05-.64.09-.63,0-.64.06-.61.08-.63L265,410l.06-.64.06-.61.08-.61.05-.6.06-.61.05-.61.06-.61.05-.61.06-.61.05-.6.06-.58.06-.61,0-.61.06-.58.05-.58.06-.61,0-.58.05-.58.06-.58,0-.58.05-.58,0-.58.05-.58,0-.59.06-.58,0-.55.06-.58,0-.58,0-.55.06-.56,0-.58,0-.55,0-.55,0-.56,0-.55.05-.55,0-.55,0-.56,0-.55,0-.55,0-.53,0-.55v-.53l0-.55,0-.53,0-.55,0-.52v-.53l0-.55,0-.53v-.52l0-.53,0-.52v-.53l0-.5v-.52l0-.53v-.52l0-.5v-.53l0-.49v-1l0-.5v-2l0-.5v-6.8l0-.47v-1.44l0-.47v-.91l0-.47v-.94l0-.47v-.45l0-.47v-.44l0-.47v-.44l0-.44v-.47l0-.45v-.44l0-.44,0-.44v-.47l0-.45,0-.44v-.44l0-.41,0-.45,0-.44,0-.44v-.44l0-.42,0-.44,0-.42,0-.44,0-.41,0-.45,0-.41,0-.44,0-.42,0-.41,0-.42,0-.41,0-.45,0-.41,0-.41,0-.42,0-.41,0-.39,0-.42,0-.41-.05-.42,0-.41,0-.39,0-.41-.05-.42,0-.38,0-.42,0-.39-.05-.41,0-.39,0-.41-.05-.39,0-.39,0-.38-.05-.42-.09-.77-.08-.78-.08-.77-.06-.77-.11-.78-.08-.75-.08-.77-.09-.75-.08-.74-.08-.75-.11-.75-.09-.74-.11-.75-.08-.72-.08-.74-.11-.72-.11-.72-.09-.72-.11-.72-.08-.72-.11-.72-.11-.69-.11-.72-.08-.69-.11-.69-.12-.72-.11-.69-.11-.66-.11-.7-.11-.69-.11-.69-.11-.66-.11-.69-.11-.67-.11-.69-.11-.66-.11-.67-.11-.66-.11-.66-.11-.67-.14-.66-.11-.64-.11-.66-.11-.66-.11-.64-.25-1.3-.22-1.3-.23-1.27-.24-1.27-.47-2.55-.45-2.51L259,292.9l-.25-1.24-.22-1.25-.22-1.24-.11-.61-.11-.63-.11-.61-.11-.61-.08-.64-.12-.6-.11-.61-.11-.64-.11-.61-.08-.61-.11-.6-.11-.64-.08-.61-.11-.61-.12-.6-.08-.64-.11-.61-.08-.61-.08-.63-.12-.61-.08-.61-.08-.61L256,275l-.09-.61-.08-.61-.08-.64-.08-.6-.09-.64-.08-.61-.08-.63-.06-.61-.08-.64-.08-.61-.06-.63-.08-.61-.06-.64-.08-.63-.06-.61,0-.64,0-.33,0-.3-.05-.34,0-.3,0-.3,0-.34,0-.33,0-.3,0-.31v-.33l0-.3,0-.33,0-.31,0-.33,0-.33,0-.31v-.33l0-.3,0-.33,0-.34v-.3l0-.33,0-.33,0-.31V257l0-.33v-.33l0-.31v-.33l0-.33,0-.33v-.64l0-.33v-.33l0-.33v-.67l0-.33v-.66l0-.33V249.8l0-.33v-1.69l0-.67V245.4l0-.36v-1l0-.33,0-.7v-.69l0-.36v-.33l0-.36,0-.36,0-.69,0-.72.06-.69v-.36l.05-.72,0-.36,0-.36,0-.33,0-.36,0-.38,0-.34,0-.38,0-.36,0-.36,0-.36,0-.72.06-.39,0-.36,0-.36.06-.36,0-.38,0-.36.06-.36,0-.39.05-.36,0-.39.06-.35,0-.39.06-.36.05-.39,0-.39.06-.35,0-.39.06-.39.05-.39,0-.36.06-.38,0-.39.06-.39.05-.38.06-.39,0-.39.08-.38.06-.39.06-.39.05-.39.06-.38.08-.39.05-.42.06-.38.08-.39.06-.39.08-.41.06-.39.08-.39.05-.41.09-.39.08-.41.06-.42.08-.38.11-.56.11-.58.11-.55.11-.55.11-.58.11-.56.11-.55.11-.58.11-.55.14-.58.11-.56.14-.58.11-.58.14-.55.11-.58.14-.58.14-.58.11-.56.14-.58.13-.58.14-.58.14-.58.14-.58.14-.58.14-.58.16-.55.14-.59.14-.6.16-.58.14-.59.17-.58.14-.58.16-.58.17-.58.14-.58.16-.58.17-.58.16-.58.17-.58.17-.58.16-.58.17-.61.19-.58.17-.58.16-.58.2-.58.16-.58.2-.58.19-.59.17-.6.19-.58.19-.58.2-.59.19-.58.19-.58.2-.58.19-.58.19-.58.23-.58.19-.58.19-.58.22-.58.22-.58.2-.55.22-.59.22-.58.19-.58.23-.58L268,177l.22-.59.22-.58.14-.27.11-.28.11-.3.11-.28.11-.28.11-.3.25-.55.11-.31.22-.55.14-.28.11-.3.11-.28.11-.27.14-.28.11-.3.14-.28.11-.28.25-.55.25-.58.24-.55.12-.28.24-.55.14-.28.11-.28.14-.3.14-.28.11-.27.14-.28.14-.28.11-.27.14-.28.13-.28.14-.27.11-.28.14-.28.14-.27.14-.28.14-.25.13-.27.14-.28.14-.28.11-.27.14-.28.14-.28.14-.27.13-.25.14-.28.14-.28.17-.27.13-.25.14-.28.14-.27.14-.28.14-.25.14-.28.16-.27.14-.25.28-.53.16-.27.14-.28.14-.25.16-.27.14-.25.14-.28.17-.25.14-.28.16-.24.14-.28.17-.25.13-.28.17-.24.14-.25.16-.28.17-.25.14-.28.16-.24.14-.25.17-.25.16-.28.17-.25.14-.25.16-.25.17-.24.17-.28.16-.25.14-.25.17-.25.16-.25.17-.24.16-.25.17-.25.17-.25.16-.25.17-.25.16-.25.17-.25.16-.25.17-.24.17-.25.16-.22.2-.25.16-.25.17-.25.16-.25.2-.22.16-.25.17-.25.19-.22.2-.28.16-.25.2-.24.19-.28.19-.25.2-.25.19-.27.22-.25.19-.25.2-.25.19-.28.2-.25.19-.25.22-.24.19-.25.2-.25.19-.28.22-.25.2-.25.19-.25.22-.24.19-.25.22-.25.2-.25.19-.25.22-.25.22-.25.2-.22.22-.25.19-.25.22-.24.2-.25.22-.25.22-.25.22-.22.19-.25.23-.25.22-.22.22-.25.22-.25.19-.22.22-.25.23-.25.22-.22.22-.25.22-.22.22-.25.22-.22L295,133l.22-.25.23-.22.22-.22.22-.25.22-.22.22-.25.22-.22.22-.22.25-.25.22-.22.22-.22.22-.25.25-.22.22-.22.23-.22.24-.23.23-.24.22-.23.25-.22.22-.22.25-.22L300,128l.25-.22.22-.22.25-.22.22-.23.25-.22.22-.22.25-.22.25-.22.22-.22.25-.22.22-.22.25-.23.24-.19.25-.22.22-.22.25-.22.25-.2.25-.22.25-.22.22-.22.25-.19.25-.22.25-.2.25-.22.25-.22.24-.19.25-.22.25-.2.25-.22.25-.19.25-.22.25-.2.25-.22.24-.19.25-.2.28-.22.5-.38.25-.23.25-.19.24-.19.28-.22.25-.2.25-.19.28-.19.24-.2.25-.19.28-.22.25-.2.25-.19.27-.19.25-.2.28-.19.25-.19.25-.2.27-.19.25-.19.28-.2.27-.19.25-.2.25-.16.28-.2.28-.19.24-.19.28-.2.28-.16.25-.2.27-.19.28-.19.25-.17.27-.19.28-.2.28-.16.25-.19.27-.17.28-.19.28-.17.25-.19.27-.17.28-.19.27-.17.28-.19.28-.17.27-.19.28-.17.28-.16.27-.2.28-.16.28-.17.27-.17.28-.19.28-.16.27-.17.28-.17.28-.16.27-.2.28-.16.28-.17.27-.16.28-.17.3-.17.28-.16.28-.17.27-.16.28-.17.3-.16.28-.17.28-.17.27-.13.31-.17.27-.17.28-.16.3-.17.28-.14.28-.16.3-.17.28-.16.27-.14.31-.17.27-.16.31-.14.27-.17.28-.14.31-.16.27-.14.31-.17.27-.14.31-.16.27-.14.31-.17.27-.13.31-.14.3-.17.28-.14.3-.13.28-.17.3-.14.31-.14.27-.14.31-.16.3-.14.28-.14.3-.14.31-.13.27-.14.31-.14.3-.14.31-.14.27-.13.31-.14.3-.14.31-.14.3-.14.28-.14.3-.13.3-.14.31-.14.3-.11.28-.14.3-.14.31-.14.3-.11.31-.14.3-.13.3-.14.31-.11.3-.14.31-.11.3-.14.3-.11.31-.14.3-.11.31-.14.3-.11.31-.14.3-.11.3-.13.31-.12.3-.11.31-.13.3-.12.3-.11.31-.11.3-.13.31-.12.3-.11.33-.11.31-.11.3-.11.31-.14.3-.11.3-.11.31-.11.33-.11.3-.11.31-.11.3-.11.33-.11.31-.08.3-.11.31-.11.33-.12.3-.11.31-.11.3-.08.33-.11.31-.11.3-.08.33-.11.31-.11.3-.09.33-.11.31-.08.3-.11.33-.11.31-.09.3-.11.33-.08.31-.08.3-.11.33-.09.31-.11.33-.08.3-.08.34-.11.3-.09.3-.08.33-.08.31-.08.33-.11.31-.09.33-.08.3-.08.33-.09.31-.08.33-.08.3-.09.34-.08.3-.08.3-.08.33-.09.34-.08.3-.08.33-.09.31-.08.33,0,.3-.09.33-.08.31-.08.33-.06.33-.08L372,90l.33-.06.3-.08.33-.06.34-.08.3-.08.33-.06.31-.08.33-.06.33-.08.3-.06.34,0,.3-.08.33-.06.33-.05.31-.09.33,0,.33-.06.31-.05.33-.09.33,0,.3-.06.34-.05.33-.06.3-.05.33-.06.33-.05.31-.06.33-.05.33-.06.33-.05.31-.06.33-.06.33-.05.31-.06.33-.05.33,0,.33,0,.31-.06.33,0,.33,0,.3-.06.34,0,.33,0,.33-.06.3-.05.33,0,.34,0,.33,0,.3-.06.33,0,.34,0,.33-.06.3,0,.33,0,.34,0,.33,0,.33,0,.3-.06.34,0,.33,0,.33,0,.3-.06.34,0,.33,0,.33,0,.33,0,.3,0,.34,0,.33,0,.33,0,.33,0,.31,0,.33,0H396l.33,0,.33,0,.31,0,.33,0h.33l.33,0,.33,0h.31l.33,0,.33,0h.33l.34,0h.3l.33,0h.33l.34,0h.63l.33,0h.67l.3,0h1l.33,0h2.6Z"/><path class="cls-10" d="M441.63,527C332.16,552.43,313,488.56,309.27,474.7c-7.08-26.15-10.53-76.84-4.15-103.77,2.21-9.37,6.39-20,13.5-27.76,15.65-17,85.6-18.5,111.76-14.51,10.48,1.6,19.93,5.22,29.28,9.2C492.2,351.66,503.68,512.5,441.63,527Z"/><path class="cls-10" d="M280.65,242.88a4.58,4.58,0,1,1-4.56,4.59A4.59,4.59,0,0,1,280.65,242.88Z"/><path class="cls-10" d="M507.38,251.21a4.56,4.56,0,1,1-4.56,4.56A4.57,4.57,0,0,1,507.38,251.21Z"/><path class="cls-3" d="M579.47,384.81s-20.19-35.89-45-37.32-30.94,19.18-13.8,27.31,32.55,17.29,36.81,31.88S592.44,407.35,579.47,384.81Z"/><path d="M566,416.84a14.88,14.88,0,0,1-2.5-.2,12,12,0,0,1-10-8.8c-3.83-13.14-18.89-21.84-34.59-29.29-9.11-4.32-13.67-12.33-11.61-20.42,1.9-7.43,10.21-15.77,27.42-14.78,26.66,1.54,47.35,37.62,48.35,39.41,4.92,8.55,4.93,17.51,0,24.57C579.08,413.17,572.31,416.84,566,416.84Zm-33.88-65.28c-10,0-15.61,4.21-16.74,8.62-1.05,4.13,1.68,8.3,7.12,10.88,17.45,8.27,34.26,18.18,39,34.46a3.76,3.76,0,0,0,3.32,2.93c3.31.56,8.51-1.5,11.5-5.83,2.15-3.11,3.83-8.37-.42-15.74v0c-.19-.34-19.39-33.93-41.62-35.22C533.5,351.59,532.78,351.56,532.08,351.56Z"/><path class="cls-6" d="M324,286.49c-43.66,26.76-3.1,57.51,26.38,40.56,21.9-12.58,54.75,22.32,71.14,7.33S420,300.7,420,300.7C391.92,271.36,358.71,265.23,324,286.49Z"/><path class="cls-11" d="M355.78,280.38c.61,6.83-.86,19.33,2.18,25.33,1.47,2.93,5.59,3.67,8.27,4.14,15.37,2.77,17.47-13.1,21.79-26.54"/><polygon class="cls-6" points="356 276.23 356.22 276.23 356.44 276.29 356.66 276.31 356.88 276.37 357.11 276.42 357.33 276.51 357.55 276.62 357.74 276.7 357.94 276.81 358.13 276.95 358.32 277.09 358.49 277.23 358.65 277.39 358.82 277.53 358.99 277.72 359.12 277.89 359.24 278.08 359.37 278.28 359.48 278.47 359.57 278.69 359.65 278.88 359.73 279.11 359.79 279.33 359.84 279.55 359.9 279.77 359.93 280.02 359.93 280.18 359.95 280.38 359.95 280.54 359.98 280.74 359.98 280.93 360.01 281.13 360.01 281.32 360.01 281.51 360.04 281.7 360.04 281.9 360.04 282.09 360.06 282.29 360.06 282.48 360.06 282.67 360.06 282.87 360.06 283.09 360.09 283.48 360.09 283.89 360.09 284.3 360.09 284.69 360.09 285.11 360.09 285.55 360.09 285.96 360.09 286.38 360.09 286.79 360.09 287.24 360.09 288.09 360.09 288.95 360.09 289.83 360.09 290.25 360.09 290.69 360.09 291.13 360.09 291.55 360.09 291.99 360.09 292.43 360.09 292.85 360.12 293.29 360.12 293.71 360.12 293.93 360.12 294.12 360.15 294.34 360.15 294.56 360.15 294.76 360.15 294.98 360.17 295.17 360.17 295.39 360.17 295.59 360.2 295.78 360.2 296 360.2 296.19 360.23 296.39 360.23 296.61 360.26 296.8 360.26 297 360.29 297.19 360.29 297.38 360.31 297.58 360.31 297.77 360.34 297.96 360.37 298.16 360.37 298.35 360.4 298.52 360.42 298.71 360.45 298.9 360.45 299.07 360.48 299.26 360.51 299.43 360.53 299.6 360.56 299.79 360.59 299.95 360.62 300.12 360.64 300.29 360.67 300.45 360.7 300.62 360.73 300.78 360.75 300.92 360.78 301.09 360.81 301.25 360.84 301.39 360.89 301.53 360.92 301.7 360.95 301.83 360.98 301.97 361.03 302.11 361.06 302.25 361.09 302.36 361.14 302.5 361.17 302.61 361.23 302.75 361.23 302.8 361.25 302.86 361.28 302.91 361.28 302.97 361.31 303.02 361.34 303.11 361.36 303.13 361.36 303.19 361.39 303.25 361.42 303.3 361.45 303.36 361.45 303.41 361.47 303.44 361.5 303.49 361.53 303.55 361.53 303.6 361.56 303.63 361.58 303.69 361.61 303.74 361.61 303.77 361.64 303.8 361.67 303.85 361.67 303.88 361.69 303.91 361.69 303.94 361.72 303.94 361.72 303.96 361.75 303.99 361.78 304.02 361.78 304.05 361.81 304.05 361.83 304.07 361.86 304.1 361.89 304.13 361.92 304.16 361.94 304.19 361.97 304.21 362 304.21 362 304.24 362.03 304.24 362.06 304.27 362.08 304.3 362.11 304.32 362.14 304.32 362.17 304.35 362.19 304.35 362.22 304.38 362.25 304.41 362.28 304.41 362.3 304.43 362.36 304.46 362.41 304.49 362.44 304.52 362.47 304.52 362.52 304.54 362.55 304.57 362.58 304.6 362.64 304.6 362.66 304.63 362.72 304.65 362.75 304.65 362.8 304.68 362.83 304.71 362.88 304.74 362.94 304.74 362.97 304.77 363 304.79 363.05 304.79 363.11 304.82 363.16 304.85 363.24 304.88 363.36 304.9 363.44 304.96 363.55 304.99 363.66 305.01 363.77 305.07 363.88 305.1 363.99 305.13 364.1 305.15 364.21 305.18 364.35 305.24 364.46 305.26 364.57 305.29 364.71 305.32 364.82 305.35 364.93 305.37 365.07 305.4 365.18 305.43 365.32 305.46 365.46 305.49 365.57 305.51 365.68 305.54 365.81 305.57 365.95 305.6 366.2 305.62 366.45 305.68 366.7 305.73 366.95 305.76 367.09 305.79 367.25 305.82 367.39 305.84 367.53 305.87 367.67 305.9 367.81 305.9 367.94 305.93 368.08 305.93 368.22 305.95 368.36 305.95 368.47 305.98 368.61 305.98 368.75 305.98 368.86 306.01 369 306.01 369.11 306.01 369.22 306.01 369.35 306.01 369.46 306.01 369.58 306.04 369.69 306.01 369.8 306.01 369.94 306.01 370.05 306.01 370.16 306.01 370.24 306.01 370.35 305.98 370.46 305.98 370.57 305.98 370.68 305.98 370.76 305.95 370.88 305.95 370.96 305.93 371.07 305.93 371.18 305.9 371.26 305.9 371.35 305.87 371.46 305.84 371.54 305.84 371.62 305.82 371.73 305.79 371.81 305.76 371.9 305.76 371.98 305.73 372.06 305.71 372.15 305.68 372.23 305.65 372.31 305.62 372.4 305.6 372.48 305.57 372.56 305.54 372.64 305.51 372.73 305.49 372.81 305.46 372.87 305.43 372.95 305.4 373.03 305.37 373.12 305.32 373.17 305.29 373.25 305.26 373.34 305.24 373.39 305.18 373.47 305.15 373.53 305.13 373.61 305.07 373.7 305.04 373.75 304.99 373.83 304.96 373.89 304.9 373.97 304.88 374.03 304.82 374.11 304.77 374.17 304.74 374.25 304.68 374.3 304.63 374.39 304.57 374.44 304.54 374.52 304.49 374.58 304.43 374.63 304.38 374.72 304.32 374.77 304.27 374.86 304.21 374.91 304.16 374.97 304.1 375.05 304.05 375.11 303.99 375.16 303.94 375.24 303.85 375.3 303.8 375.35 303.74 375.44 303.66 375.49 303.6 375.58 303.55 375.63 303.47 375.69 303.41 375.77 303.33 375.82 303.27 375.88 303.19 375.94 303.11 376.02 303.05 376.07 302.97 376.13 302.88 376.21 302.8 376.27 302.72 376.32 302.66 376.38 302.58 376.46 302.5 376.52 302.42 376.57 302.33 376.63 302.25 376.71 302.14 376.76 302.06 376.82 301.97 376.88 301.89 376.93 301.81 377.01 301.7 377.07 301.61 377.12 301.5 377.18 301.42 377.24 301.34 377.29 301.23 377.37 301.12 377.43 301.03 377.48 300.92 377.54 300.84 377.59 300.73 377.65 300.62 377.7 300.51 377.79 300.43 377.84 300.31 377.9 300.2 377.95 300.09 378.01 299.98 378.06 299.87 378.12 299.76 378.18 299.65 378.23 299.54 378.29 299.4 378.34 299.29 378.4 299.18 378.45 299.07 378.51 298.96 378.56 298.82 378.62 298.71 378.67 298.6 378.73 298.46 378.78 298.35 378.84 298.24 378.89 298.1 378.95 297.99 379 297.85 379.06 297.74 379.12 297.6 379.17 297.47 379.23 297.36 379.34 297.08 379.36 296.97 379.42 296.83 379.53 296.55 379.64 296.28 379.72 296.03 379.83 295.75 379.94 295.48 380.03 295.2 380.14 294.89 380.22 294.62 380.33 294.34 380.42 294.04 380.52 293.76 380.61 293.46 380.72 293.18 380.8 292.88 380.91 292.57 381 292.27 381.11 291.96 381.19 291.66 381.27 291.36 381.38 291.05 381.46 290.75 381.58 290.44 381.74 289.81 381.94 289.17 382.13 288.54 382.49 287.26 382.68 286.6 382.88 285.96 383.07 285.3 383.18 284.97 383.26 284.66 383.37 284.33 383.46 284 383.57 283.67 383.68 283.34 383.76 283 383.87 282.67 383.98 282.37 384.06 282.04 384.15 281.82 384.23 281.6 384.34 281.4 384.45 281.21 384.56 281.01 384.7 280.82 384.84 280.65 385 280.46 385.14 280.3 385.34 280.16 385.5 280.02 385.7 279.88 385.89 279.74 386.08 279.63 386.28 279.55 386.5 279.44 386.72 279.36 386.94 279.3 387.16 279.25 387.38 279.22 387.6 279.16 387.82 279.16 388.05 279.16 388.3 279.16 388.52 279.19 388.74 279.22 388.96 279.27 389.18 279.33 389.4 279.38 389.62 279.46 389.81 279.58 390.04 279.66 390.23 279.77 390.42 279.91 390.59 280.05 390.78 280.18 390.95 280.35 391.09 280.52 391.25 280.68 391.39 280.88 391.5 281.07 391.64 281.26 391.75 281.46 391.83 281.65 391.92 281.87 392 282.09 392.06 282.31 392.11 282.54 392.14 282.76 392.17 282.98 392.17 283.23 392.17 283.45 392.17 283.67 392.14 283.89 392.08 284.11 392.03 284.36 391.97 284.55 391.89 284.88 391.78 285.19 391.7 285.49 391.58 285.8 391.5 286.1 391.39 286.41 391.31 286.74 391.2 287.04 391.12 287.35 391.03 287.68 390.84 288.31 390.64 288.95 390.45 289.59 390.09 290.86 389.9 291.52 389.7 292.16 389.51 292.79 389.4 293.13 389.32 293.46 389.21 293.79 389.12 294.09 389.01 294.43 388.93 294.76 388.82 295.06 388.71 295.39 388.6 295.72 388.52 296.03 388.4 296.36 388.3 296.69 388.18 297 388.07 297.33 387.96 297.63 387.85 297.96 387.74 298.27 387.63 298.6 387.49 298.9 387.38 299.24 387.27 299.54 387.16 299.84 387.08 300.01 387.02 300.18 386.97 300.31 386.88 300.48 386.83 300.65 386.77 300.78 386.69 300.95 386.64 301.09 386.58 301.25 386.5 301.39 386.44 301.56 386.36 301.72 386.3 301.86 386.25 302 386.17 302.17 386.08 302.33 386.03 302.47 385.94 302.61 385.89 302.77 385.81 302.91 385.72 303.08 385.67 303.22 385.59 303.38 385.5 303.52 385.45 303.66 385.36 303.83 385.28 303.96 385.2 304.1 385.14 304.27 385.06 304.41 384.98 304.54 384.89 304.68 384.81 304.85 384.73 304.99 384.64 305.13 384.56 305.26 384.48 305.4 384.4 305.54 384.29 305.68 384.2 305.84 384.12 305.98 384.04 306.12 383.93 306.26 383.84 306.4 383.76 306.54 383.65 306.67 383.57 306.81 383.48 306.95 383.37 307.06 383.29 307.2 383.18 307.34 383.07 307.48 382.99 307.61 382.88 307.75 382.76 307.89 382.68 308 382.57 308.14 382.46 308.28 382.35 308.39 382.24 308.53 382.13 308.64 382.02 308.77 381.91 308.91 381.8 309.02 381.69 309.16 381.58 309.27 381.44 309.38 381.33 309.52 381.22 309.63 381.08 309.74 380.97 309.88 380.83 309.99 380.72 310.1 380.58 310.21 380.47 310.32 380.33 310.43 380.19 310.54 380.08 310.65 379.94 310.77 379.81 310.88 379.67 310.99 379.53 311.1 379.39 311.18 379.25 311.29 379.12 311.4 378.98 311.49 378.84 311.6 378.67 311.71 378.54 311.79 378.4 311.87 378.23 311.98 378.09 312.06 377.95 312.15 377.79 312.23 377.65 312.31 377.48 312.43 377.32 312.51 377.18 312.59 377.01 312.65 376.85 312.73 376.68 312.81 376.52 312.89 376.35 312.95 376.18 313.03 376.02 313.09 375.85 313.17 375.69 313.23 375.52 313.31 375.35 313.37 375.19 313.42 375 313.48 374.83 313.53 374.66 313.59 374.47 313.64 374.3 313.7 374.14 313.75 373.94 313.78 373.78 313.83 373.58 313.89 373.42 313.92 373.23 313.94 373.03 314 372.87 314.03 372.67 314.06 372.48 314.08 372.29 314.11 372.12 314.14 371.93 314.17 371.73 314.19 371.54 314.22 371.35 314.25 371.15 314.25 370.96 314.28 370.76 314.28 370.57 314.31 370.38 314.31 370.18 314.31 369.99 314.31 369.8 314.31 369.6 314.33 369.38 314.31 369.19 314.31 369 314.31 368.8 314.31 368.61 314.31 368.39 314.28 368.19 314.28 367.97 314.25 367.78 314.25 367.58 314.22 367.36 314.19 367.17 314.19 366.95 314.17 366.75 314.14 366.53 314.11 366.31 314.08 366.12 314.06 365.9 314 365.7 313.97 365.48 313.94 365.24 313.89 364.96 313.83 364.65 313.78 364.38 313.73 364.21 313.7 364.05 313.67 363.91 313.64 363.74 313.61 363.57 313.56 363.41 313.53 363.24 313.5 363.05 313.45 362.88 313.42 362.72 313.37 362.52 313.34 362.36 313.28 362.19 313.23 362 313.17 361.81 313.14 361.64 313.09 361.45 313.03 361.25 312.95 361.06 312.89 360.89 312.84 360.7 312.78 360.51 312.7 360.31 312.65 360.12 312.56 360.01 312.51 359.93 312.48 359.81 312.45 359.73 312.4 359.62 312.34 359.51 312.31 359.43 312.29 359.35 312.23 359.24 312.18 359.12 312.12 359.04 312.09 358.93 312.04 358.85 311.98 358.74 311.93 358.63 311.87 358.54 311.84 358.43 311.79 358.35 311.73 358.24 311.68 358.13 311.6 358.05 311.54 357.96 311.49 357.85 311.43 357.74 311.37 357.63 311.29 357.55 311.24 357.46 311.18 357.35 311.1 357.24 311.04 357.16 310.96 357.05 310.9 356.97 310.82 356.86 310.74 356.77 310.65 356.66 310.6 356.58 310.52 356.47 310.43 356.39 310.35 356.3 310.27 356.19 310.16 356.11 310.07 356.03 309.99 355.92 309.91 355.83 309.8 355.75 309.71 355.64 309.61 355.56 309.52 355.47 309.41 355.39 309.33 355.31 309.22 355.23 309.11 355.14 309 355.06 308.89 354.98 308.77 354.89 308.66 354.81 308.55 354.75 308.44 354.67 308.33 354.59 308.19 354.53 308.08 354.45 307.94 354.4 307.83 354.31 307.72 354.26 307.59 354.2 307.48 354.15 307.39 354.09 307.28 354.06 307.2 354.01 307.09 353.95 306.98 353.93 306.87 353.87 306.78 353.84 306.67 353.79 306.56 353.73 306.45 353.7 306.37 353.68 306.26 353.62 306.15 353.59 306.04 353.54 305.95 353.51 305.84 353.48 305.76 353.43 305.62 353.4 305.54 353.37 305.43 353.32 305.32 353.26 305.13 353.21 304.9 353.12 304.68 353.07 304.49 353.01 304.27 352.96 304.05 352.9 303.83 352.85 303.63 352.79 303.41 352.74 303.19 352.71 302.97 352.65 302.75 352.63 302.53 352.57 302.31 352.54 302.08 352.49 301.86 352.46 301.64 352.4 301.42 352.38 301.2 352.35 300.98 352.32 300.76 352.29 300.54 352.27 300.31 352.24 300.09 352.21 299.87 352.18 299.62 352.16 299.4 352.13 299.18 352.1 298.96 352.07 298.71 352.07 298.49 352.05 298.27 352.02 298.05 352.02 297.8 351.99 297.58 351.96 297.36 351.96 297.13 351.94 296.88 351.94 296.66 351.91 296.44 351.91 296.19 351.91 295.97 351.88 295.75 351.88 295.5 351.88 295.28 351.85 295.06 351.85 294.81 351.85 294.59 351.82 294.34 351.82 294.12 351.82 293.9 351.82 293.43 351.8 292.99 351.8 292.52 351.8 292.05 351.8 291.6 351.8 291.13 351.8 290.69 351.8 290.25 351.8 289.81 351.8 288.92 351.8 288.04 351.8 287.21 351.8 286.76 351.8 286.35 351.8 285.96 351.8 285.55 351.8 285.16 351.8 284.77 351.8 284.39 351.8 284 351.8 283.64 351.8 283.28 351.77 283.09 351.77 282.92 351.77 282.76 351.77 282.59 351.77 282.42 351.74 282.26 351.74 282.09 351.74 281.93 351.71 281.76 351.71 281.6 351.71 281.46 351.69 281.32 351.69 281.15 351.69 281.01 351.66 280.88 351.66 280.74 351.63 280.49 351.63 280.27 351.66 280.05 351.69 279.82 351.71 279.6 351.77 279.36 351.82 279.13 351.88 278.94 351.99 278.72 352.07 278.5 352.18 278.3 352.29 278.11 352.43 277.92 352.57 277.75 352.71 277.58 352.88 277.42 353.04 277.25 353.23 277.12 353.4 276.98 353.59 276.84 353.79 276.73 354.01 276.62 354.2 276.54 354.42 276.45 354.64 276.37 354.87 276.31 355.09 276.29 355.31 276.26 355.53 276.23 355.78 276.23 356 276.23"/><path class="cls-6" d="M381.66,231.08c12.55,1.79,21.82,9.76,20.65,17.72S390,261.8,377.51,260s-21.81-9.73-20.65-17.72S369.11,229.28,381.66,231.08Z"/><polygon class="cls-6" points="377.65 251.43 377.84 251.46 378.01 251.48 378.2 251.51 378.37 251.54 378.54 251.59 378.73 251.65 378.89 251.7 379.06 251.76 379.23 251.84 379.39 251.93 379.53 252.01 379.7 252.12 379.83 252.2 380 252.31 380.14 252.42 380.25 252.56 380.39 252.67 380.52 252.81 380.64 252.95 380.75 253.09 380.86 253.25 380.94 253.39 381.05 253.56 381.13 253.72 381.19 253.89 381.27 254.06 381.33 254.22 381.38 254.39 381.44 254.55 381.46 254.75 381.52 254.91 381.55 255.11 381.55 255.27 381.58 255.47 381.58 255.63 381.55 255.82 381.55 255.99 381.52 256.32 381.46 256.68 381.44 257.01 381.41 257.35 381.36 257.7 381.33 258.04 381.27 258.37 381.22 258.7 381.19 259.03 381.13 259.36 381.08 259.72 381.02 260.06 381 260.39 380.94 260.72 380.88 261.05 380.83 261.38 380.77 261.69 380.72 262.02 380.66 262.35 380.61 262.68 380.55 263.01 380.5 263.32 380.44 263.65 380.39 263.98 380.33 264.31 380.25 264.62 380.19 264.95 380.14 265.28 380.03 265.92 379.89 266.55 379.78 267.19 379.64 267.82 379.39 269.07 379.28 269.7 379.14 270.34 379.03 270.95 378.92 271.58 378.78 272.19 378.67 272.8 378.62 273.13 378.56 273.44 378.51 273.74 378.45 274.05 378.4 274.35 378.34 274.68 378.29 274.99 378.23 275.29 378.18 275.6 378.12 275.9 378.09 276.2 378.04 276.51 378.01 276.7 377.95 276.87 377.9 277.06 377.84 277.23 377.79 277.39 377.73 277.56 377.65 277.72 377.57 277.89 377.48 278.03 377.37 278.19 377.26 278.33 377.15 278.47 377.04 278.61 376.93 278.75 376.79 278.88 376.65 279 376.52 279.11 376.38 279.22 376.21 279.33 376.07 279.41 375.91 279.52 375.74 279.6 375.58 279.66 375.41 279.74 375.24 279.8 375.08 279.85 374.91 279.91 374.72 279.94 374.55 279.96 374.36 279.99 374.19 280.02 374 280.02 373.83 280.02 373.64 280.02 373.47 279.99 373.28 279.96 373.12 279.94 372.92 279.88 372.75 279.85 372.59 279.8 372.42 279.71 372.26 279.66 372.09 279.58 371.93 279.49 371.76 279.41 371.62 279.3 371.46 279.19 371.32 279.08 371.18 278.97 371.04 278.86 370.93 278.72 370.79 278.58 370.68 278.44 370.57 278.3 370.49 278.17 370.38 278 370.3 277.83 370.21 277.7 370.13 277.53 370.07 277.36 369.99 277.17 369.94 277 369.91 276.84 369.85 276.64 369.82 276.48 369.8 276.31 369.8 276.12 369.8 275.93 369.8 275.76 369.8 275.57 369.82 275.4 369.82 275.21 369.88 274.88 369.94 274.54 369.99 274.24 370.05 273.91 370.16 273.24 370.3 272.58 370.35 272.25 370.4 271.94 370.52 271.28 370.65 270.64 370.76 270.01 370.88 269.37 371.01 268.74 371.12 268.1 371.26 267.47 371.51 266.22 371.62 265.58 371.76 264.98 371.87 264.34 371.98 263.73 372.09 263.1 372.18 262.79 372.23 262.49 372.29 262.18 372.34 261.88 372.4 261.58 372.48 260.97 372.53 260.66 372.59 260.36 372.64 260.03 372.7 259.72 372.73 259.42 372.78 259.12 372.84 258.81 372.87 258.51 372.92 258.2 372.98 257.9 373 257.59 373.03 257.29 373.09 256.99 373.12 256.68 373.17 256.38 373.2 256.07 373.23 255.77 373.25 255.47 373.28 255.16 373.31 254.97 373.34 254.8 373.39 254.61 373.42 254.44 373.47 254.28 373.53 254.11 373.61 253.94 373.7 253.78 373.78 253.61 373.86 253.45 373.94 253.31 374.06 253.14 374.17 253 374.28 252.87 374.39 252.73 374.52 252.59 374.66 252.48 374.8 252.37 374.94 252.26 375.08 252.15 375.24 252.04 375.38 251.95 375.55 251.87 375.71 251.79 375.88 251.73 376.05 251.65 376.24 251.59 376.4 251.57 376.57 251.51 376.76 251.48 376.93 251.46 377.12 251.43 377.29 251.43 377.48 251.43 377.65 251.43"/><path class="cls-10" d="M331.22,128.66c4.32-2.6,8.91-2.9,10.26-.66s-1.08,6.16-5.39,8.76-8.9,2.88-10.26.64S326.91,131.26,331.22,128.66Z"/><path class="cls-10" d="M499.45,142.62c3.79,3.29,5.47,7.58,3.76,9.54s-6.19.89-10-2.43-5.5-7.58-3.76-9.54S495.63,139.31,499.45,142.62Z"/><path class="cls-12" d="M426.7,168a79.82,79.82,0,0,0-2,20.44c.88,33.9,22.7,59.23,48.69,56.52s46.31-32.38,45.43-66.28c0-1.05-.09-2.13-.14-3.18Z"/><path d="M469.63,249.33a42.42,42.42,0,0,1-28.05-11c-12.86-11.28-20.54-29.42-21.07-49.77a84.17,84.17,0,0,1,2.15-21.49A4.14,4.14,0,0,1,427,163.9L519,171.39a4.15,4.15,0,0,1,3.8,3.92c.06,1.18.12,2.25.14,3.29.94,36-21.1,67.62-49.14,70.51A38.6,38.6,0,0,1,469.63,249.33ZM430,172.47a76.29,76.29,0,0,0-1.21,15.88c.47,18.05,7.12,34,18.25,43.77,7.62,6.69,16.57,9.7,25.87,8.74,23.69-2.45,42.33-30,41.72-61.5Z"/><path class="cls-12" d="M267.6,154.35a81.7,81.7,0,0,0-2.05,20.43c.89,33.9,22.71,59.23,48.7,56.52s46.34-32.38,45.43-66.28c0-1.05-.09-2.1-.14-3.15Z"/><path d="M310.53,235.64a42.46,42.46,0,0,1-28-11c-12.86-11.29-20.54-29.43-21.07-49.78a85.52,85.52,0,0,1,2.15-21.47,4.18,4.18,0,0,1,4.38-3.21l91.94,7.52a4.15,4.15,0,0,1,3.8,3.93c.07,1.26.12,2.26.14,3.25,1,36-21.08,67.62-49.15,70.51A38.28,38.28,0,0,1,310.53,235.64Zm-39.61-76.86a77.88,77.88,0,0,0-1.22,15.89c.47,18.05,7.12,34,18.25,43.76,7.62,6.69,16.57,9.71,25.87,8.74,23.71-2.45,42.34-30,41.72-61.47Z"/><path class="cls-6" d="M467.68,170.91a14.35,14.35,0,1,1-13.47,15.18A14.35,14.35,0,0,1,467.68,170.91Z"/><path class="cls-6" d="M308.58,157.22a14.35,14.35,0,1,1-13.47,15.18A14.35,14.35,0,0,1,308.58,157.22Z"/><path class="cls-12" d="M464.44,176.33a3.27,3.27,0,1,1-3.07,3.46A3.26,3.26,0,0,1,464.44,176.33Z"/><path class="cls-12" d="M315.21,163.69a3.29,3.29,0,1,1-3.06,3.49A3.29,3.29,0,0,1,315.21,163.69Z"/><path class="cls-3" d="M177,295.61a7.22,7.22,0,0,0-8.9-5l-13.94,3.9a7.26,7.26,0,0,0-5,8.9l34.53,123.24a7.25,7.25,0,0,0,8.94,5l13.9-3.9a7.27,7.27,0,0,0,5-8.93Z"/><path d="M190.61,436.1a11.4,11.4,0,0,1-11-8.34L145.13,304.53a11.44,11.44,0,0,1,7.9-14l13.94-3.9a11.41,11.41,0,0,1,14,7.88h0l34.53,123.24a11.42,11.42,0,0,1-7.9,14l-13.92,3.89A11.24,11.24,0,0,1,190.61,436.1ZM170,294.49a3.32,3.32,0,0,0-.83.11l-13.94,3.9a3.11,3.11,0,0,0-2.15,3.82l34.53,123.21a3.1,3.1,0,0,0,3.81,2.16l13.91-3.9a3.11,3.11,0,0,0,2.16-3.82L173,296.73h0A3.08,3.08,0,0,0,170,294.49Z"/><path class="cls-3" d="M237.57,143a19,19,0,0,0-23.44-13.19L31.25,181a19,19,0,0,0-13.19,23.47L48,311.24a19,19,0,0,0,23.45,13.18L254.3,273.19a19,19,0,0,0,13.19-23.48Z"/><path d="M66.31,329.27A23.2,23.2,0,0,1,44,312.35L14.06,205.57A23.19,23.19,0,0,1,30.12,177L213,125.77a23.15,23.15,0,0,1,28.56,16.07l29.91,106.75a23.21,23.21,0,0,1-16.06,28.59L72.54,328.42A23.14,23.14,0,0,1,66.31,329.27Zm153-196.07a14.7,14.7,0,0,0-4,.56L32.36,185a14.89,14.89,0,0,0-10.31,18.36L52,310.12a14.9,14.9,0,0,0,18.34,10.31L253.18,269.2a14.92,14.92,0,0,0,10.32-18.36L233.58,144.08h0a14.87,14.87,0,0,0-14.29-10.87Z"/><path d="M136.71,184.86l1.9,6.8a3.43,3.43,0,0,1-1.88,4.37,4.85,4.85,0,0,1-.66.31c-.34.1-.86.49-1.63.83s-1.86.89-3.18,1.51l20.13,71.87-8.06,2.26a7.45,7.45,0,0,1-3.15.26,6.66,6.66,0,0,1-3-1.39L78.12,228.47c.47,1.24.91,2.36,1.23,3.51s.76,2.27,1.05,3.3L91.53,275c5-.66,7.55-1,7.78-1.06a3.44,3.44,0,0,1,3.88,2.77l1.9,6.79-10.37,2.9-13.59,3.81-8.75,2.45-1.9-6.79a3.44,3.44,0,0,1,1.88-4.38,2.12,2.12,0,0,0,.66-.3,9.34,9.34,0,0,1,1.63-.83c.77-.35,2-.93,3.29-1.55L61,218.36c-1.45.16-2.78.28-3.61.39s-1.48,0-1.83.14a3.73,3.73,0,0,1-.72.08A3.43,3.43,0,0,1,51,216.21l-1.91-6.8L57.81,207l8.06-2.26c.69-.19,1.3-.24,1.76-.37a2.51,2.51,0,0,1,1.36,0,2.81,2.81,0,0,1,1.23.4c.45.25.92.62,1.54,1.06l59.35,43.37c-.5-1.34-1-2.58-1.44-3.81s-.82-2.51-1.14-3.66l-11-39.16c-5,.66-7.55,1-7.78,1.06a3.43,3.43,0,0,1-3.88-2.76L104,194l10.37-2.9,13.7-3.84Z"/><path d="M237.77,219.77A42.31,42.31,0,0,1,233,235.64a39.77,39.77,0,0,1-10.87,12.61,47.25,47.25,0,0,1-16.26,8,47.85,47.85,0,0,1-18.18,1.61,39.47,39.47,0,0,1-15.85-5.12,42.42,42.42,0,0,1-12.41-11.06,47.58,47.58,0,0,1-7.77-16.2,46.92,46.92,0,0,1-1.75-17.77,42.53,42.53,0,0,1,4.86-15.9,39.72,39.72,0,0,1,10.88-12.61A47.76,47.76,0,0,1,182,171.17a45.13,45.13,0,0,1,18.07-1.59A41.39,41.39,0,0,1,216,174.71a42.29,42.29,0,0,1,12.3,11.09,46.77,46.77,0,0,1,7.86,16.06A47.52,47.52,0,0,1,237.77,219.77ZM215,194.62a24.92,24.92,0,0,0-7.77-7.77,24.67,24.67,0,0,0-9.93-3.55,28.67,28.67,0,0,0-11.49,1.11,29.29,29.29,0,0,0-10.51,5.05,24.55,24.55,0,0,0-6.65,8.2,26.81,26.81,0,0,0-2.72,10.7,38.33,38.33,0,0,0,1.58,12.73,39.12,39.12,0,0,0,5.29,11.8,26.76,26.76,0,0,0,7.88,7.73,24.47,24.47,0,0,0,9.94,3.55A29.29,29.29,0,0,0,202.18,243a28.51,28.51,0,0,0,10.39-5,24.54,24.54,0,0,0,6.65-8.19,25,25,0,0,0,2.6-10.67,42.31,42.31,0,0,0-1.61-12.84A41.52,41.52,0,0,0,215,194.62Z"/></g></g></svg>