<?xml version="1.0" encoding="UTF-8" standalone="no"?><!DOCTYPE svg PUBLIC "-//W3C//DTD SVG 1.1//EN" "http://www.w3.org/Graphics/SVG/1.1/DTD/svg11.dtd"><svg width="100%" height="100%" viewBox="0 0 144 144" version="1.1" xmlns="http://www.w3.org/2000/svg" xmlns:xlink="http://www.w3.org/1999/xlink" xml:space="preserve" xmlns:serif="http://www.serif.com/" style="fill-rule:evenodd;clip-rule:evenodd;stroke-linecap:round;stroke-linejoin:round;stroke-miterlimit:1.5;"><rect id="_2" serif:id="2" x="0" y="0" width="144" height="144" style="fill:none;"/><g><path d="M69.948,113.34c0.125,-6.371 0.176,-17.91 0.176,-17.91l8.815,0l0.006,17.816c0.271,8.962 7.526,12.039 14.886,12.518c-2.479,1.5 -9.803,4.529 -19.107,4.413c-5.738,-0.071 -12.228,-1.338 -18.8,-4.896c12.221,0.373 13.955,-8.428 14.024,-11.941Z" style="fill:#f2af0d;"/><clipPath id="_clip1"><path d="M69.948,113.34c0.125,-6.371 0.176,-17.91 0.176,-17.91l8.815,0l0.006,17.816c0.271,8.962 7.526,12.039 14.886,12.518c-2.479,1.5 -9.803,4.529 -19.107,4.413c-5.738,-0.071 -12.228,-1.338 -18.8,-4.896c12.221,0.373 13.955,-8.428 14.024,-11.941Z"/></clipPath><g clip-path="url(#_clip1)"><path d="M78.389,104.153c0,0 -4.441,0.768 -5.038,5.379c-0.598,4.611 -0.854,12.979 4.781,14.943c5.636,1.964 -17.846,1.964 -17.846,1.964l4.013,-26.129l14.09,3.843" style="fill:#ec9307;"/></g><path d="M69.948,113.34c0.125,-6.371 0.176,-17.91 0.176,-17.91l8.815,0l0.006,17.816c0.271,8.962 7.526,12.039 14.886,12.518c-2.479,1.5 -9.803,4.529 -19.107,4.413c-5.738,-0.071 -12.228,-1.338 -18.8,-4.896c12.221,0.373 13.955,-8.428 14.024,-11.941Z" style="fill:none;stroke:#000;stroke-width:1.47px;"/><g><path d="M57.213,28.349c-0.101,-0.605 -1.339,-1.53 -1.853,-1.74c-6.258,-2.548 -4.065,4.628 -0.421,4.344" style="fill:#61e0ee;"/><path d="M53.116,25.325l0.057,0.001l0.057,0.002l0.057,0.002l0.058,0.004l0.058,0.004l0.059,0.005l0.059,0.005l0.06,0.007l0.061,0.007l0.06,0.008l0.062,0.009l0.062,0.01l0.062,0.011l0.063,0.011l0.063,0.012l0.064,0.013l0.065,0.014l0.065,0.014l0.066,0.015l0.066,0.016l0.067,0.017l0.067,0.018l0.068,0.019l0.069,0.019l0.069,0.02l0.07,0.021l0.07,0.022l0.071,0.023l0.072,0.023l0.072,0.025l0.073,0.025l0.074,0.026l0.074,0.027l0.075,0.028l0.076,0.028l0.076,0.03l0.077,0.03l0.08,0.033l0.036,0.015l0.038,0.017l0.038,0.017l0.038,0.019l0.038,0.019l0.038,0.019l0.038,0.021l0.038,0.021l0.039,0.022l0.038,0.022l0.039,0.023l0.04,0.024l0.04,0.025l0.04,0.025l0.04,0.026l0.04,0.026l0.041,0.028l0.041,0.027l0.041,0.029l0.042,0.029l0.041,0.03l0.042,0.03l0.041,0.031l0.042,0.031l0.042,0.032l0.042,0.032l0.042,0.033l0.041,0.033l0.042,0.034l0.041,0.034l0.042,0.035l0.041,0.035l0.041,0.036l0.041,0.036l0.04,0.036l0.04,0.037l0.04,0.038l0.04,0.037l0.039,0.038l0.038,0.039l0.038,0.039l0.038,0.039l0.037,0.04l0.037,0.041l0.036,0.041l0.035,0.041l0.035,0.042l0.033,0.041l0.018,0.022l0.016,0.022l0.017,0.022l0.016,0.022l0.016,0.022l0.016,0.022l0.015,0.023l0.016,0.023l0.015,0.023l0.015,0.023l0.015,0.024l0.014,0.023l0.015,0.024l0.014,0.024l0.014,0.025l0.013,0.025l0.013,0.025l0.014,0.026l0.012,0.026l0.012,0.027l0.012,0.027l0.012,0.027l0.011,0.028l0.011,0.029l0.01,0.029l0.01,0.03l0.01,0.03l0.008,0.03l0.009,0.032l0.007,0.032l0.007,0.033l0.004,0.025l0.007,0.04l0.003,0.042l0.002,0.041l-0.001,0.041l-0.003,0.041l-0.005,0.041l-0.008,0.041l-0.01,0.04l-0.012,0.039l-0.014,0.039l-0.017,0.038l-0.019,0.037l-0.02,0.035l-0.023,0.035l-0.024,0.033l-0.027,0.032l-0.028,0.03l-0.029,0.029l-0.032,0.027l-0.033,0.025l-0.034,0.023l-0.035,0.022l-0.036,0.019l-0.038,0.017l-0.038,0.015l-0.04,0.013l-0.04,0.011l-0.04,0.008l-0.041,0.006l-0.041,0.004l-0.041,0.002l-0.041,-0.001l-0.042,-0.003l-0.041,-0.005l-0.04,-0.008l-0.04,-0.01l-0.04,-0.012l-0.038,-0.015l-0.038,-0.016l-0.037,-0.019l-0.036,-0.02l-0.034,-0.023l-0.034,-0.024l-0.031,-0.027l-0.031,-0.028l-0.028,-0.03l-0.027,-0.031l-0.025,-0.033l-0.024,-0.034l-0.021,-0.035l-0.019,-0.037l-0.017,-0.037l-0.016,-0.039l-0.012,-0.039l-0.011,-0.04l-0.008,-0.035l0,-0.002l-0.002,-0.003l-0.001,-0.004l-0.002,-0.004l-0.003,-0.005l-0.002,-0.005l-0.003,-0.006l-0.004,-0.007l-0.004,-0.006l-0.004,-0.008l-0.005,-0.008l-0.005,-0.008l-0.005,-0.008l-0.006,-0.009l-0.006,-0.01l-0.006,-0.009l-0.007,-0.01l-0.007,-0.01l-0.008,-0.01l-0.008,-0.011l-0.008,-0.011l-0.009,-0.011l-0.008,-0.01l-0.019,-0.025l-0.02,-0.024l-0.021,-0.025l-0.023,-0.025l-0.023,-0.025l-0.024,-0.026l-0.025,-0.027l-0.026,-0.027l-0.027,-0.026l-0.028,-0.027l-0.028,-0.028l-0.03,-0.027l-0.029,-0.027l-0.03,-0.027l-0.031,-0.028l-0.031,-0.027l-0.032,-0.027l-0.032,-0.026l-0.032,-0.027l-0.032,-0.026l-0.033,-0.026l-0.032,-0.026l-0.033,-0.025l-0.033,-0.025l-0.033,-0.025l-0.032,-0.024l-0.033,-0.023l-0.032,-0.023l-0.032,-0.023l-0.032,-0.022l-0.031,-0.021l-0.031,-0.021l-0.03,-0.02l-0.03,-0.019l-0.029,-0.018l-0.028,-0.018l-0.028,-0.016l-0.027,-0.016l-0.025,-0.015l-0.025,-0.014l-0.023,-0.013l-0.022,-0.012l-0.021,-0.011l-0.019,-0.009l-0.018,-0.009l-0.015,-0.007l-0.013,-0.005l-0.013,-0.006l-0.066,-0.027l-0.067,-0.026l-0.067,-0.026l-0.066,-0.025l-0.065,-0.024l-0.064,-0.023l-0.063,-0.023l-0.062,-0.021l-0.061,-0.021l-0.061,-0.02l-0.059,-0.019l-0.059,-0.018l-0.058,-0.017l-0.057,-0.017l-0.056,-0.016l-0.056,-0.015l-0.054,-0.014l-0.053,-0.014l-0.053,-0.012l-0.052,-0.012l-0.051,-0.012l-0.05,-0.01l-0.049,-0.01l-0.048,-0.009l-0.047,-0.009l-0.047,-0.008l-0.045,-0.007l-0.045,-0.006l-0.044,-0.006l-0.043,-0.006l-0.042,-0.004l-0.041,-0.004l-0.04,-0.004l-0.039,-0.002l-0.039,-0.003l-0.037,-0.001l-0.037,-0.001l-0.036,-0.001l-0.035,0l-0.033,0l-0.034,0.001l-0.032,0.001l-0.031,0.002l-0.03,0.002l-0.03,0.003l-0.029,0.003l-0.027,0.003l-0.027,0.004l-0.026,0.004l-0.025,0.005l-0.025,0.004l-0.023,0.005l-0.023,0.006l-0.022,0.005l-0.021,0.006l-0.02,0.006l-0.02,0.006l-0.018,0.006l-0.018,0.007l-0.018,0.007l-0.016,0.006l-0.016,0.007l-0.017,0.008l-0.006,0.003l-0.007,0.004l-0.007,0.003l-0.007,0.004l-0.007,0.003l-0.007,0.004l-0.006,0.004l-0.007,0.004l-0.006,0.003l-0.006,0.004l-0.006,0.004l-0.004,0.002l-0.013,0.009l-0.011,0.008l-0.01,0.008l-0.01,0.007l-0.01,0.008l-0.009,0.008l-0.009,0.008l-0.009,0.009l-0.008,0.008l-0.009,0.008l-0.008,0.009l-0.007,0.009l-0.008,0.009l-0.007,0.009l-0.007,0.009l-0.007,0.009l-0.006,0.01l-0.007,0.01l-0.006,0.01l-0.007,0.011l-0.006,0.011l-0.006,0.011l-0.005,0.011l-0.006,0.012l-0.005,0.012l-0.006,0.013l-0.005,0.013l-0.005,0.013l-0.005,0.014l-0.004,0.014l-0.005,0.014l-0.004,0.015l-0.004,0.015l-0.004,0.016l-0.004,0.016l-0.003,0.016l-0.003,0.017l-0.003,0.018l-0.003,0.017l-0.002,0.019l-0.003,0.018l-0.001,0.019l-0.002,0.019l-0.001,0.02l-0.001,0.02l-0.001,0.02l-0.001,0.021l0,0.021l0,0.021l0.001,0.022l0.001,0.022l0.001,0.023l0.002,0.022l0.001,0.023l0.003,0.024l0.002,0.023l0.003,0.024l0.003,0.024l0.004,0.025l0.004,0.025l0.004,0.024l0.005,0.026l0.005,0.025l0.005,0.025l0.006,0.026l0.006,0.026l0.007,0.026l0.006,0.026l0.008,0.027l0.007,0.027l0.008,0.026l0.008,0.027l0.009,0.027l0.009,0.027l0.009,0.028l0.01,0.027l0.01,0.027l0.011,0.028l0.01,0.027l0.012,0.028l0.011,0.027l0.012,0.028l0.012,0.028l0.013,0.028l0.013,0.028l0.013,0.027l0.013,0.028l0.014,0.028l0.014,0.028l0.015,0.027l0.015,0.028l0.015,0.028l0.015,0.027l0.016,0.028l0.016,0.027l0.017,0.028l0.017,0.027l0.017,0.027l0.017,0.027l0.018,0.027l0.018,0.027l0.018,0.027l0.018,0.027l0.019,0.027l0.019,0.026l0.02,0.026l0.02,0.026l0.019,0.026l0.021,0.026l0.02,0.026l0.021,0.025l0.021,0.025l0.021,0.025l0.021,0.025l0.022,0.025l0.022,0.024l0.022,0.024l0.023,0.024l0.022,0.024l0.023,0.023l0.023,0.024l0.024,0.023l0.023,0.022l0.024,0.023l0.024,0.022l0.024,0.022l0.024,0.022l0.025,0.021l0.025,0.021l0.024,0.021l0.025,0.02l0.026,0.02l0.025,0.02l0.026,0.02l0.025,0.019l0.026,0.019l0.026,0.018l0.026,0.018l0.027,0.018l0.026,0.018l0.027,0.017l0.027,0.017l0.026,0.016l0.027,0.016l0.028,0.016l0.027,0.015l0.027,0.015l0.028,0.015l0.027,0.014l0.028,0.014l0.028,0.013l0.027,0.013l0.028,0.013l0.028,0.012l0.029,0.012l0.028,0.011l0.028,0.011l0.029,0.011l0.028,0.01l0.029,0.01l0.028,0.01l0.029,0.009l0.029,0.008l0.029,0.008l0.029,0.008l0.029,0.008l0.029,0.006l0.029,0.007l0.029,0.006l0.03,0.006l0.029,0.005l0.03,0.005l0.029,0.004l0.03,0.004l0.03,0.003l0.03,0.003l0.03,0.003l0.03,0.002l0.03,0.002l0.03,0.001l0.031,0.001l0.03,0l0.031,0l0.03,-0.001l0.031,-0.001l0.031,-0.002l0.037,-0.003l0.041,-0.001l0.042,0l0.041,0.003l0.041,0.005l0.041,0.008l0.04,0.01l0.039,0.012l0.039,0.014l0.038,0.016l0.037,0.018l0.036,0.021l0.034,0.022l0.034,0.025l0.032,0.026l0.03,0.028l0.029,0.03l0.027,0.031l0.025,0.032l0.023,0.034l0.022,0.036l0.019,0.036l0.018,0.037l0.015,0.039l0.013,0.039l0.011,0.04l0.009,0.04l0.006,0.041l0.004,0.041l0.002,0.041l-0.001,0.042l-0.003,0.041l-0.005,0.041l-0.007,0.04l-0.01,0.041l-0.012,0.039l-0.014,0.039l-0.017,0.038l-0.018,0.037l-0.021,0.036l-0.022,0.034l-0.024,0.034l-0.027,0.031l-0.028,0.031l-0.029,0.029l-0.031,0.027l-0.033,0.025l-0.034,0.023l-0.035,0.022l-0.037,0.019l-0.037,0.018l-0.038,0.015l-0.04,0.013l-0.039,0.011l-0.041,0.009l-0.041,0.006l-0.041,0.004l-0.048,0.003l-0.054,0.003l-0.054,0.002l-0.054,0.002l-0.053,0l-0.054,0l-0.053,-0.002l-0.053,-0.002l-0.052,-0.003l-0.053,-0.003l-0.052,-0.005l-0.052,-0.005l-0.052,-0.006l-0.052,-0.007l-0.051,-0.007l-0.051,-0.009l-0.051,-0.009l-0.051,-0.009l-0.05,-0.011l-0.05,-0.011l-0.05,-0.012l-0.05,-0.012l-0.049,-0.013l-0.049,-0.014l-0.048,-0.015l-0.048,-0.015l-0.049,-0.016l-0.047,-0.016l-0.047,-0.017l-0.047,-0.018l-0.047,-0.018l-0.046,-0.019l-0.046,-0.019l-0.046,-0.02l-0.045,-0.021l-0.045,-0.021l-0.045,-0.021l-0.044,-0.022l-0.044,-0.023l-0.043,-0.023l-0.044,-0.024l-0.042,-0.024l-0.043,-0.024l-0.042,-0.025l-0.042,-0.026l-0.041,-0.026l-0.041,-0.026l-0.041,-0.027l-0.04,-0.028l-0.04,-0.027l-0.04,-0.028l-0.039,-0.029l-0.039,-0.029l-0.038,-0.029l-0.038,-0.03l-0.038,-0.03l-0.037,-0.031l-0.037,-0.03l-0.037,-0.032l-0.036,-0.031l-0.036,-0.032l-0.035,-0.032l-0.035,-0.033l-0.035,-0.033l-0.035,-0.033l-0.033,-0.033l-0.034,-0.034l-0.033,-0.034l-0.033,-0.034l-0.032,-0.035l-0.032,-0.035l-0.032,-0.035l-0.031,-0.035l-0.031,-0.036l-0.031,-0.036l-0.03,-0.036l-0.03,-0.037l-0.029,-0.036l-0.029,-0.037l-0.028,-0.038l-0.028,-0.037l-0.028,-0.038l-0.028,-0.037l-0.026,-0.038l-0.027,-0.039l-0.026,-0.038l-0.026,-0.039l-0.025,-0.038l-0.025,-0.039l-0.025,-0.039l-0.024,-0.04l-0.023,-0.039l-0.024,-0.04l-0.023,-0.04l-0.022,-0.039l-0.022,-0.041l-0.022,-0.04l-0.021,-0.04l-0.021,-0.041l-0.02,-0.04l-0.02,-0.041l-0.019,-0.041l-0.019,-0.041l-0.019,-0.041l-0.018,-0.041l-0.018,-0.042l-0.017,-0.041l-0.016,-0.042l-0.017,-0.041l-0.016,-0.042l-0.015,-0.042l-0.015,-0.042l-0.014,-0.042l-0.014,-0.042l-0.014,-0.042l-0.013,-0.042l-0.013,-0.043l-0.012,-0.042l-0.011,-0.043l-0.011,-0.042l-0.011,-0.043l-0.01,-0.042l-0.009,-0.043l-0.009,-0.043l-0.009,-0.043l-0.008,-0.042l-0.007,-0.043l-0.007,-0.043l-0.007,-0.043l-0.005,-0.043l-0.006,-0.043l-0.004,-0.044l-0.004,-0.043l-0.004,-0.043l-0.003,-0.043l-0.002,-0.043l-0.002,-0.043l-0.001,-0.043l0,-0.044l0,-0.043l0.001,-0.043l0.002,-0.043l0.002,-0.043l0.003,-0.044l0.004,-0.043l0.004,-0.043l0.005,-0.043l0.006,-0.043l0.006,-0.043l0.008,-0.043l0.008,-0.043l0.009,-0.043l0.009,-0.042l0.011,-0.043l0.011,-0.042l0.012,-0.042l0.013,-0.043l0.014,-0.042l0.015,-0.041l0.016,-0.042l0.016,-0.041l0.018,-0.042l0.018,-0.041l0.019,-0.04l0.021,-0.04l0.021,-0.04l0.022,-0.04l0.023,-0.039l0.024,-0.039l0.025,-0.038l0.026,-0.038l0.027,-0.037l0.028,-0.037l0.029,-0.036l0.03,-0.036l0.03,-0.035l0.032,-0.034l0.032,-0.034l0.034,-0.033l0.034,-0.032l0.035,-0.032l0.036,-0.031l0.037,-0.03l0.037,-0.029l0.039,-0.028l0.039,-0.028l0.038,-0.026l0.022,-0.014l0.02,-0.013l0.021,-0.012l0.021,-0.013l0.02,-0.012l0.022,-0.012l0.021,-0.011l0.021,-0.012l0.022,-0.011l0.022,-0.011l0.021,-0.011l0.024,-0.011l0.043,-0.02l0.045,-0.02l0.045,-0.018l0.047,-0.018l0.046,-0.017l0.047,-0.016l0.048,-0.015l0.048,-0.014l0.049,-0.014l0.049,-0.012l0.05,-0.012l0.05,-0.01l0.051,-0.01l0.051,-0.009l0.051,-0.008l0.052,-0.007l0.052,-0.007l0.053,-0.005l0.053,-0.005l0.054,-0.004l0.054,-0.003l0.055,-0.002l0.055,-0.002l0.055,0l0.056,0Z"/><path d="M98.777,40.193c0,0 -2.074,5.074 -5.326,5.67c-3.252,0.596 -4.403,-2.023 -2.274,-3.38c2.129,-1.356 4.012,-2.816 4.333,-4.817c0.321,-2.001 4.608,-0.662 3.267,2.527Z" style="fill:#d6c295;stroke:#000;stroke-width:1.1px;"/><path d="M79.657,11.869c0,0 -2.567,-2.673 -3.529,3.851" style="fill:none;stroke:#61e0ee;stroke-width:1.1px;"/><path d="M70.78,11.228c0,0 2.46,-2.567 3.316,4.171" style="fill:none;stroke:#61e0ee;stroke-width:1.1px;"/><path d="M77.483,9.063c0,0 -2.888,-1.841 -2.355,5.604" style="fill:none;stroke:#61e0ee;stroke-width:1.1px;"/><path d="M86.138,75.047c0,0 -0.299,-5.473 -3.177,-7.101c-2.878,-1.628 -4.822,0.471 -3.255,2.449c1.567,1.979 2.869,3.975 2.518,5.971c-0.352,1.996 4.136,2.133 3.914,-1.319Z" style="fill:#d6c295;stroke:#000;stroke-width:1.1px;"/><path d="M61.378,75.684c0,0 2.897,-4.653 1.475,-7.638c-1.422,-2.985 -4.219,-2.384 -4.071,0.136c0.147,2.52 0.067,4.902 -1.367,6.334c-1.433,1.433 2.163,4.122 3.963,1.168Z" style="fill:#d6c295;stroke:#000;stroke-width:1.1px;"/><path d="M91.118,23.634c0.575,0.215 1.194,-0.147 1.632,-0.487c5.337,-4.146 -1.956,-5.806 -3.532,-2.509" style="fill:#61e0ee;"/><path d="M92.406,18.153l0.046,0.001l0.045,0.001l0.046,0.002l0.045,0.002l0.045,0.002l0.045,0.003l0.045,0.004l0.045,0.004l0.045,0.004l0.045,0.005l0.044,0.005l0.045,0.006l0.044,0.006l0.044,0.006l0.044,0.007l0.044,0.008l0.044,0.007l0.043,0.009l0.044,0.008l0.043,0.01l0.043,0.009l0.043,0.01l0.042,0.011l0.043,0.011l0.042,0.011l0.042,0.012l0.042,0.013l0.042,0.013l0.041,0.013l0.041,0.014l0.041,0.014l0.041,0.015l0.041,0.016l0.04,0.015l0.04,0.017l0.04,0.016l0.04,0.018l0.039,0.018l0.039,0.018l0.039,0.019l0.038,0.019l0.038,0.02l0.038,0.021l0.038,0.021l0.037,0.022l0.037,0.022l0.036,0.023l0.037,0.023l0.036,0.024l0.035,0.025l0.035,0.025l0.035,0.026l0.034,0.026l0.034,0.027l0.034,0.028l0.033,0.028l0.032,0.029l0.032,0.03l0.032,0.03l0.031,0.031l0.03,0.031l0.03,0.033l0.03,0.033l0.029,0.033l0.028,0.035l0.027,0.035l0.027,0.035l0.026,0.036l0.026,0.037l0.024,0.038l0.024,0.038l0.023,0.039l0.023,0.04l0.021,0.04l0.021,0.041l0.02,0.041l0.018,0.042l0.018,0.043l0.017,0.042l0.016,0.044l0.015,0.044l0.014,0.045l0.013,0.044l0.011,0.046l0.011,0.046l0.01,0.046l0.009,0.046l0.007,0.047l0.006,0.047l0.006,0.048l0.004,0.047l0.003,0.048l0.002,0.048l0.001,0.048l0,0.048l-0.002,0.049l-0.002,0.048l-0.004,0.049l-0.004,0.048l-0.006,0.049l-0.007,0.049l-0.007,0.049l-0.009,0.048l-0.01,0.049l-0.011,0.049l-0.012,0.049l-0.013,0.048l-0.014,0.049l-0.015,0.048l-0.016,0.049l-0.017,0.049l-0.017,0.048l-0.019,0.049l-0.02,0.048l-0.021,0.049l-0.022,0.048l-0.022,0.048l-0.024,0.049l-0.024,0.048l-0.026,0.048l-0.026,0.048l-0.027,0.049l-0.028,0.048l-0.029,0.048l-0.031,0.048l-0.031,0.049l-0.031,0.048l-0.033,0.048l-0.034,0.049l-0.035,0.048l-0.035,0.048l-0.037,0.049l-0.037,0.048l-0.039,0.049l-0.039,0.049l-0.04,0.048l-0.042,0.049l-0.042,0.049l-0.043,0.049l-0.044,0.049l-0.045,0.049l-0.046,0.049l-0.047,0.049l-0.049,0.05l-0.049,0.049l-0.05,0.05l-0.051,0.049l-0.052,0.05l-0.053,0.05l-0.054,0.05l-0.055,0.05l-0.056,0.05l-0.058,0.051l-0.058,0.05l-0.059,0.051l-0.061,0.051l-0.061,0.051l-0.063,0.051l-0.064,0.051l-0.064,0.051l-0.067,0.052l-0.047,0.037l-0.05,0.037l-0.05,0.037l-0.027,0.019l-0.027,0.019l-0.027,0.019l-0.027,0.018l-0.028,0.019l-0.028,0.019l-0.028,0.018l-0.029,0.019l-0.029,0.018l-0.03,0.018l-0.03,0.018l-0.03,0.018l-0.031,0.018l-0.031,0.018l-0.032,0.017l-0.032,0.017l-0.032,0.017l-0.033,0.017l-0.033,0.017l-0.034,0.016l-0.034,0.016l-0.035,0.015l-0.034,0.015l-0.036,0.015l-0.036,0.015l-0.036,0.014l-0.037,0.013l-0.037,0.013l-0.038,0.013l-0.038,0.012l-0.039,0.011l-0.039,0.011l-0.039,0.011l-0.041,0.009l-0.04,0.009l-0.041,0.009l-0.042,0.007l-0.042,0.007l-0.042,0.006l-0.043,0.005l-0.044,0.004l-0.044,0.003l-0.044,0.003l-0.045,0.001l-0.045,0l-0.045,-0.001l-0.046,-0.002l-0.046,-0.004l-0.044,-0.004l-0.026,-0.003l-0.023,-0.003l-0.024,-0.003l-0.023,-0.004l-0.023,-0.004l-0.024,-0.004l-0.023,-0.005l-0.024,-0.005l-0.023,-0.006l-0.024,-0.005l-0.023,-0.006l-0.024,-0.007l-0.023,-0.007l-0.024,-0.007l-0.023,-0.007l-0.023,-0.008l-0.024,-0.008l-0.018,-0.007l-0.037,-0.015l-0.036,-0.016l-0.036,-0.019l-0.034,-0.021l-0.033,-0.022l-0.031,-0.024l-0.031,-0.026l-0.029,-0.027l-0.027,-0.029l-0.026,-0.03l-0.024,-0.032l-0.023,-0.033l-0.02,-0.034l-0.019,-0.035l-0.017,-0.037l-0.014,-0.037l-0.013,-0.037l-0.011,-0.039l-0.008,-0.039l-0.007,-0.039l-0.004,-0.04l-0.002,-0.04l-0.001,-0.039l0.003,-0.04l0.004,-0.04l0.006,-0.039l0.009,-0.039l0.011,-0.039l0.012,-0.037l0.015,-0.037l0.017,-0.037l0.018,-0.035l0.021,-0.034l0.022,-0.033l0.024,-0.032l0.026,-0.03l0.027,-0.029l0.029,-0.028l0.031,-0.025l0.031,-0.025l0.033,-0.022l0.035,-0.021l0.035,-0.018l0.036,-0.017l0.037,-0.015l0.038,-0.013l0.038,-0.01l0.039,-0.009l0.039,-0.006l0.04,-0.005l0.04,-0.002l0.04,0l0.04,0.002l0.039,0.005l0.04,0.006l0.038,0.009l0.039,0.01l0.038,0.013l0.008,0.003l0.004,0.001l0.004,0.002l0.003,0.001l0.004,0.001l0.003,0.001l0.004,0.001l0.004,0.001l0.003,0.001l0.004,0.001l0.004,0l0.003,0.001l0.004,0.001l0.004,0l0.004,0.001l0.004,0.001l0.004,0l0.002,0l0.01,0.001l0.009,0.001l0.009,0l0.009,0.001l0.009,0l0.01,-0.001l0.011,0l0.01,-0.001l0.011,-0.001l0.012,-0.001l0.012,-0.002l0.012,-0.002l0.013,-0.002l0.013,-0.003l0.013,-0.003l0.014,-0.003l0.014,-0.004l0.015,-0.004l0.015,-0.004l0.015,-0.005l0.016,-0.005l0.015,-0.006l0.016,-0.006l0.017,-0.006l0.016,-0.007l0.017,-0.007l0.017,-0.007l0.017,-0.008l0.018,-0.008l0.017,-0.009l0.018,-0.008l0.018,-0.01l0.018,-0.009l0.018,-0.01l0.018,-0.01l0.019,-0.01l0.018,-0.011l0.018,-0.011l0.019,-0.011l0.018,-0.011l0.019,-0.012l0.018,-0.011l0.019,-0.012l0.018,-0.013l0.019,-0.012l0.018,-0.013l0.018,-0.012l0.018,-0.013l0.018,-0.013l0.037,-0.027l0.036,-0.027l0.035,-0.027l0.058,-0.045l0.056,-0.045l0.056,-0.045l0.055,-0.044l0.053,-0.045l0.052,-0.043l0.051,-0.044l0.05,-0.043l0.048,-0.043l0.048,-0.042l0.046,-0.042l0.045,-0.042l0.044,-0.042l0.043,-0.041l0.042,-0.04l0.041,-0.041l0.04,-0.04l0.038,-0.039l0.038,-0.039l0.036,-0.039l0.035,-0.038l0.035,-0.038l0.033,-0.038l0.032,-0.037l0.031,-0.037l0.03,-0.036l0.029,-0.036l0.028,-0.035l0.027,-0.035l0.026,-0.035l0.025,-0.034l0.024,-0.034l0.023,-0.033l0.023,-0.032l0.021,-0.032l0.02,-0.032l0.019,-0.031l0.019,-0.031l0.017,-0.03l0.017,-0.029l0.016,-0.029l0.015,-0.029l0.014,-0.028l0.013,-0.027l0.013,-0.027l0.012,-0.026l0.011,-0.026l0.01,-0.025l0.01,-0.025l0.008,-0.024l0.008,-0.023l0.008,-0.023l0.007,-0.022l0.006,-0.022l0.006,-0.021l0.005,-0.02l0.004,-0.02l0.004,-0.019l0.003,-0.019l0.003,-0.018l0.003,-0.018l0.002,-0.017l0.001,-0.017l0.001,-0.016l0.001,-0.015l0.001,-0.016l0,-0.014l-0.001,-0.014l0,-0.014l-0.001,-0.014l-0.001,-0.013l-0.002,-0.013l-0.001,-0.012l-0.002,-0.012l-0.002,-0.012l-0.003,-0.012l-0.003,-0.011l-0.002,-0.011l-0.004,-0.011l-0.003,-0.011l-0.004,-0.011l-0.004,-0.011l-0.004,-0.01l-0.004,-0.011l-0.005,-0.01l-0.005,-0.011l-0.005,-0.01l-0.006,-0.01l-0.006,-0.011l-0.006,-0.01l-0.006,-0.011l-0.007,-0.01l-0.007,-0.011l-0.008,-0.01l-0.008,-0.011l-0.009,-0.011l-0.008,-0.01l-0.01,-0.011l-0.009,-0.011l-0.01,-0.011l-0.011,-0.011l-0.011,-0.011l-0.011,-0.011l-0.012,-0.011l-0.013,-0.011l-0.012,-0.011l-0.014,-0.011l-0.013,-0.011l-0.015,-0.011l-0.014,-0.011l-0.016,-0.011l-0.015,-0.011l-0.017,-0.01l-0.016,-0.011l-0.017,-0.011l-0.018,-0.01l-0.018,-0.011l-0.018,-0.01l-0.019,-0.01l-0.02,-0.011l-0.02,-0.01l-0.02,-0.009l-0.021,-0.01l-0.021,-0.01l-0.021,-0.009l-0.022,-0.01l-0.023,-0.009l-0.022,-0.009l-0.024,-0.008l-0.023,-0.009l-0.024,-0.008l-0.024,-0.009l-0.025,-0.008l-0.025,-0.007l-0.026,-0.008l-0.025,-0.007l-0.026,-0.007l-0.027,-0.007l-0.026,-0.007l-0.027,-0.006l-0.028,-0.006l-0.027,-0.006l-0.028,-0.006l-0.028,-0.005l-0.029,-0.005l-0.028,-0.005l-0.029,-0.005l-0.029,-0.004l-0.03,-0.004l-0.029,-0.004l-0.03,-0.003l-0.03,-0.003l-0.03,-0.003l-0.031,-0.003l-0.03,-0.002l-0.031,-0.002l-0.031,-0.002l-0.031,-0.001l-0.031,-0.001l-0.031,-0.001l-0.032,-0.001l-0.031,0l-0.032,0l-0.032,0l-0.032,0.001l-0.032,0.001l-0.032,0.001l-0.032,0.002l-0.032,0.002l-0.032,0.002l-0.032,0.002l-0.033,0.003l-0.032,0.003l-0.032,0.004l-0.033,0.004l-0.032,0.004l-0.032,0.004l-0.033,0.005l-0.032,0.005l-0.032,0.005l-0.033,0.006l-0.032,0.006l-0.032,0.006l-0.032,0.007l-0.032,0.007l-0.032,0.007l-0.032,0.007l-0.032,0.008l-0.032,0.008l-0.031,0.009l-0.032,0.009l-0.031,0.009l-0.031,0.009l-0.031,0.01l-0.031,0.01l-0.031,0.01l-0.031,0.011l-0.03,0.011l-0.031,0.011l-0.03,0.012l-0.03,0.012l-0.03,0.012l-0.029,0.012l-0.03,0.013l-0.029,0.013l-0.029,0.014l-0.029,0.013l-0.028,0.014l-0.029,0.015l-0.028,0.014l-0.028,0.015l-0.027,0.015l-0.028,0.016l-0.027,0.015l-0.027,0.016l-0.026,0.017l-0.027,0.016l-0.026,0.017l-0.026,0.017l-0.025,0.018l-0.025,0.017l-0.025,0.018l-0.025,0.018l-0.024,0.019l-0.024,0.019l-0.024,0.019l-0.024,0.019l-0.023,0.02l-0.022,0.02l-0.023,0.02l-0.022,0.02l-0.022,0.021l-0.022,0.021l-0.021,0.021l-0.021,0.022l-0.02,0.022l-0.021,0.022l-0.019,0.022l-0.02,0.023l-0.019,0.023l-0.019,0.023l-0.019,0.024l-0.018,0.024l-0.018,0.024l-0.017,0.024l-0.018,0.025l-0.016,0.025l-0.017,0.025l-0.016,0.026l-0.016,0.026l-0.016,0.026l-0.015,0.027l-0.014,0.027l-0.015,0.028l-0.014,0.027l-0.016,0.033l-0.019,0.036l-0.02,0.034l-0.022,0.033l-0.024,0.032l-0.025,0.031l-0.028,0.029l-0.028,0.028l-0.031,0.026l-0.031,0.024l-0.033,0.022l-0.034,0.021l-0.035,0.019l-0.036,0.017l-0.037,0.015l-0.038,0.013l-0.038,0.011l-0.039,0.009l-0.039,0.007l-0.04,0.004l-0.04,0.003l-0.04,0l-0.039,-0.002l-0.04,-0.004l-0.039,-0.006l-0.039,-0.008l-0.039,-0.011l-0.038,-0.012l-0.037,-0.015l-0.036,-0.016l-0.036,-0.019l-0.034,-0.02l-0.033,-0.022l-0.032,-0.024l-0.031,-0.026l-0.029,-0.027l-0.027,-0.029l-0.026,-0.03l-0.025,-0.031l-0.022,-0.033l-0.021,-0.034l-0.019,-0.035l-0.017,-0.036l-0.015,-0.037l-0.013,-0.038l-0.011,-0.038l-0.009,-0.039l-0.006,-0.04l-0.005,-0.039l-0.002,-0.04l-0.001,-0.04l0.002,-0.04l0.004,-0.039l0.006,-0.04l0.009,-0.039l0.01,-0.038l0.013,-0.038l0.014,-0.037l0.017,-0.036l0.021,-0.044l0.024,-0.048l0.025,-0.048l0.026,-0.047l0.026,-0.046l0.027,-0.046l0.028,-0.046l0.028,-0.045l0.029,-0.044l0.029,-0.044l0.03,-0.043l0.031,-0.042l0.031,-0.042l0.032,-0.041l0.032,-0.041l0.032,-0.04l0.034,-0.04l0.033,-0.039l0.034,-0.038l0.035,-0.038l0.035,-0.037l0.036,-0.037l0.036,-0.036l0.036,-0.035l0.037,-0.035l0.037,-0.034l0.037,-0.034l0.038,-0.033l0.039,-0.033l0.038,-0.032l0.039,-0.031l0.04,-0.031l0.039,-0.03l0.04,-0.03l0.041,-0.029l0.04,-0.028l0.041,-0.028l0.041,-0.027l0.042,-0.027l0.041,-0.026l0.042,-0.026l0.043,-0.025l0.042,-0.025l0.043,-0.024l0.043,-0.023l0.043,-0.023l0.043,-0.023l0.043,-0.021l0.044,-0.022l0.044,-0.021l0.044,-0.02l0.044,-0.02l0.045,-0.019l0.044,-0.019l0.045,-0.018l0.045,-0.018l0.044,-0.017l0.046,-0.017l0.045,-0.016l0.045,-0.016l0.045,-0.015l0.046,-0.015l0.046,-0.014l0.045,-0.014l0.046,-0.013l0.046,-0.013l0.046,-0.012l0.046,-0.012l0.046,-0.011l0.046,-0.011l0.046,-0.011l0.046,-0.01l0.046,-0.009l0.047,-0.009l0.046,-0.009l0.046,-0.008l0.047,-0.008l0.046,-0.007l0.046,-0.007l0.047,-0.006l0.046,-0.006l0.046,-0.005l0.047,-0.005l0.046,-0.005l0.046,-0.004l0.046,-0.003l0.046,-0.003l0.047,-0.003l0.046,-0.002l0.046,-0.002l0.046,-0.002l0.046,-0.001l0.045,0l0.046,0l0.046,0Z"/><path d="M90.771,67.25c0,0 2.774,-5.453 2.25,-10.13c-1.641,-14.642 2.669,-17.515 0.984,-26.446c-0.585,-3.102 -1.691,-6.634 -3.575,-9.201c-4.139,-5.643 -12.096,-8.574 -19.016,-7.249c-2.772,0.531 -5.274,1.73 -7.75,3.046c-8.616,4.577 -10.406,14.237 -9.286,22.378c0.495,3.604 3.594,9.221 3.141,12.835c-0.945,7.534 -0.681,11.612 1.671,16.472c2.005,4.142 9.807,7.262 18.337,6.375c1.454,-0.151 10.15,-1.675 13.244,-8.08Z" style="fill:#61e0ee;"/><clipPath id="_clip2"><path d="M90.771,67.25c0,0 2.774,-5.453 2.25,-10.13c-1.641,-14.642 2.669,-17.515 0.984,-26.446c-0.585,-3.102 -1.691,-6.634 -3.575,-9.201c-4.139,-5.643 -12.096,-8.574 -19.016,-7.249c-2.772,0.531 -5.274,1.73 -7.75,3.046c-8.616,4.577 -10.406,14.237 -9.286,22.378c0.495,3.604 3.594,9.221 3.141,12.835c-0.945,7.534 -0.681,11.612 1.671,16.472c2.005,4.142 9.807,7.262 18.337,6.375c1.454,-0.151 10.15,-1.675 13.244,-8.08Z"/></clipPath><g clip-path="url(#_clip2)"><path d="M59.977,20.816c0,0 -2.86,6.976 -1.116,12.627c1.744,5.651 4.813,13.534 4.325,21.418c-0.488,7.883 0.349,12.976 2.093,15.208c3.522,4.509 13.116,5.163 15.557,4.465c2.442,-0.698 -9.627,2.512 -16.534,-0.279c-6.906,-2.791 -7.883,-14.511 -6.976,-21.836c0.907,-7.325 -4.953,-9.418 -3,-22.045c3.139,-7.395 3.209,-6.977 5.651,-9.558Z" style="fill:#4fcbe0;"/><path d="M71.499,31.644c0,0 -0.858,4.286 -5.965,4.036c-5.108,-0.25 -5.465,-5.465 -5.465,-5.465l11.43,1.429Z" style="fill:#4fcbe0;"/><path d="M93.345,29.465c0,0 -0.857,4.286 -5.965,4.036c-5.108,-0.25 -5.465,-5.465 -5.465,-5.465l11.43,1.429Z" style="fill:#4fcbe0;"/></g><path d="M74.885,13.173l0.087,0l0.087,0.001l0.086,0.002l0.087,0.001l0.087,0.002l0.087,0.003l0.087,0.003l0.087,0.003l0.087,0.003l0.086,0.004l0.087,0.005l0.087,0.004l0.087,0.005l0.087,0.006l0.087,0.006l0.086,0.006l0.087,0.006l0.087,0.007l0.087,0.008l0.086,0.007l0.087,0.008l0.087,0.009l0.087,0.008l0.086,0.01l0.087,0.009l0.087,0.01l0.086,0.01l0.087,0.011l0.086,0.011l0.087,0.011l0.086,0.012l0.087,0.012l0.086,0.012l0.086,0.013l0.087,0.013l0.086,0.014l0.086,0.013l0.086,0.015l0.086,0.014l0.086,0.015l0.086,0.015l0.086,0.016l0.086,0.016l0.086,0.016l0.086,0.017l0.086,0.017l0.085,0.017l0.086,0.018l0.085,0.018l0.086,0.019l0.085,0.018l0.085,0.02l0.086,0.019l0.085,0.02l0.085,0.02l0.085,0.021l0.085,0.021l0.085,0.021l0.084,0.021l0.085,0.022l0.085,0.023l0.084,0.022l0.085,0.023l0.084,0.023l0.084,0.024l0.084,0.024l0.084,0.024l0.084,0.025l0.084,0.025l0.084,0.025l0.084,0.026l0.083,0.026l0.084,0.027l0.083,0.026l0.083,0.027l0.083,0.028l0.083,0.027l0.083,0.028l0.083,0.029l0.082,0.029l0.083,0.029l0.082,0.029l0.083,0.03l0.082,0.03l0.082,0.03l0.082,0.031l0.081,0.031l0.082,0.031l0.082,0.032l0.081,0.032l0.081,0.032l0.081,0.033l0.081,0.033l0.081,0.033l0.081,0.034l0.08,0.034l0.08,0.034l0.081,0.035l0.08,0.035l0.08,0.035l0.079,0.036l0.08,0.036l0.079,0.036l0.08,0.037l0.079,0.037l0.079,0.037l0.079,0.037l0.078,0.038l0.079,0.039l0.078,0.038l0.078,0.039l0.078,0.039l0.078,0.039l0.077,0.04l0.078,0.04l0.077,0.041l0.077,0.041l0.077,0.041l0.077,0.041l0.076,0.042l0.076,0.042l0.077,0.042l0.075,0.042l0.076,0.043l0.076,0.044l0.075,0.043l0.075,0.044l0.075,0.044l0.075,0.045l0.074,0.044l0.075,0.046l0.074,0.045l0.074,0.046l0.073,0.046l0.074,0.046l0.073,0.047l0.073,0.047l0.073,0.047l0.073,0.047l0.072,0.048l0.072,0.049l0.072,0.048l0.072,0.049l0.071,0.049l0.072,0.049l0.071,0.05l0.071,0.05l0.07,0.05l0.07,0.051l0.071,0.051l0.069,0.051l0.07,0.051l0.069,0.052l0.069,0.052l0.069,0.052l0.069,0.053l0.068,0.053l0.068,0.053l0.068,0.054l0.068,0.054l0.067,0.054l0.067,0.054l0.067,0.055l0.066,0.055l0.067,0.055l0.066,0.056l0.065,0.056l0.066,0.056l0.065,0.057l0.065,0.056l0.065,0.058l0.064,0.057l0.064,0.058l0.064,0.057l0.063,0.059l0.064,0.058l0.063,0.059l0.062,0.059l0.063,0.059l0.062,0.06l0.061,0.06l0.062,0.06l0.061,0.061l0.061,0.061l0.06,0.061l0.061,0.061l0.06,0.062l0.059,0.062l0.06,0.062l0.059,0.062l0.058,0.063l0.059,0.063l0.058,0.064l0.058,0.063l0.057,0.064l0.057,0.064l0.057,0.065l0.056,0.064l0.057,0.065l0.055,0.066l0.056,0.065l0.055,0.066l0.055,0.066l0.054,0.066l0.054,0.067l0.054,0.067l0.054,0.067l0.053,0.068l0.052,0.067l0.053,0.069l0.052,0.068l0.051,0.068l0.052,0.069l0.051,0.069l0.046,0.064l0.047,0.064l0.045,0.065l0.046,0.065l0.045,0.065l0.045,0.065l0.045,0.066l0.044,0.066l0.044,0.066l0.044,0.067l0.043,0.067l0.043,0.067l0.043,0.068l0.042,0.067l0.042,0.068l0.042,0.069l0.041,0.068l0.041,0.069l0.041,0.069l0.041,0.07l0.04,0.069l0.04,0.07l0.039,0.07l0.04,0.071l0.039,0.07l0.039,0.071l0.038,0.071l0.038,0.072l0.038,0.071l0.038,0.072l0.037,0.072l0.037,0.072l0.037,0.072l0.036,0.073l0.036,0.073l0.036,0.073l0.036,0.073l0.035,0.073l0.035,0.074l0.035,0.073l0.034,0.074l0.034,0.074l0.034,0.074l0.034,0.075l0.033,0.074l0.033,0.075l0.033,0.075l0.033,0.075l0.032,0.075l0.032,0.075l0.032,0.075l0.031,0.076l0.031,0.076l0.031,0.075l0.031,0.076l0.03,0.076l0.03,0.076l0.03,0.077l0.03,0.076l0.029,0.076l0.03,0.077l0.028,0.077l0.029,0.076l0.028,0.077l0.029,0.077l0.027,0.077l0.028,0.077l0.027,0.077l0.028,0.077l0.026,0.078l0.027,0.077l0.026,0.077l0.027,0.077l0.025,0.078l0.026,0.077l0.025,0.078l0.026,0.078l0.025,0.077l0.024,0.078l0.025,0.077l0.024,0.078l0.024,0.078l0.024,0.077l0.023,0.078l0.024,0.078l0.023,0.078l0.022,0.077l0.023,0.078l0.022,0.078l0.023,0.077l0.021,0.078l0.022,0.078l0.022,0.077l0.021,0.078l0.021,0.077l0.021,0.078l0.02,0.077l0.021,0.078l0.02,0.077l0.02,0.078l0.019,0.077l0.02,0.077l0.019,0.077l0.019,0.077l0.019,0.077l0.018,0.077l0.019,0.077l0.018,0.077l0.018,0.077l0.018,0.077l0.035,0.152l0.034,0.153l0.033,0.152l0.032,0.151l0.032,0.151l0.031,0.151l0.03,0.15l0.029,0.149l0.028,0.149l0.02,0.108l0.02,0.106l0.019,0.107l0.018,0.106l0.018,0.105l0.017,0.105l0.017,0.104l0.016,0.104l0.016,0.103l0.015,0.103l0.015,0.102l0.014,0.102l0.013,0.101l0.014,0.101l0.012,0.101l0.012,0.1l0.012,0.099l0.011,0.099l0.011,0.099l0.01,0.098l0.01,0.098l0.009,0.098l0.009,0.097l0.008,0.096l0.008,0.096l0.007,0.096l0.007,0.096l0.007,0.095l0.006,0.094l0.005,0.095l0.006,0.094l0.004,0.093l0.005,0.093l0.004,0.093l0.003,0.093l0.003,0.092l0.003,0.092l0.002,0.091l0.002,0.092l0.001,0.09l0.001,0.091l0.001,0.09l0,0.09l0,0.09l0,0.089l-0.001,0.089l-0.001,0.089l-0.002,0.089l-0.002,0.088l-0.002,0.088l-0.003,0.088l-0.003,0.087l-0.003,0.087l-0.004,0.087l-0.003,0.087l-0.005,0.087l-0.004,0.086l-0.005,0.086l-0.005,0.086l-0.006,0.086l-0.006,0.085l-0.006,0.085l-0.006,0.085l-0.007,0.085l-0.007,0.085l-0.007,0.084l-0.008,0.085l-0.008,0.084l-0.008,0.084l-0.008,0.084l-0.009,0.083l-0.008,0.084l-0.009,0.083l-0.01,0.084l-0.009,0.083l-0.01,0.083l-0.01,0.083l-0.01,0.083l-0.011,0.082l-0.01,0.083l-0.011,0.083l-0.011,0.082l-0.011,0.082l-0.012,0.083l-0.011,0.082l-0.012,0.082l-0.024,0.164l-0.025,0.164l-0.026,0.164l-0.026,0.164l-0.026,0.164l-0.027,0.164l-0.028,0.164l-0.028,0.164l-0.029,0.164l-0.029,0.165l-0.029,0.164l-0.029,0.166l-0.03,0.165l-0.061,0.333l-0.061,0.334l-0.061,0.338l-0.062,0.34l-0.031,0.172l-0.031,0.172l-0.031,0.174l-0.03,0.174l-0.031,0.176l-0.03,0.176l-0.03,0.178l-0.03,0.179l-0.029,0.181l-0.03,0.182l-0.028,0.183l-0.029,0.185l-0.028,0.186l-0.028,0.188l-0.013,0.095l-0.014,0.095l-0.013,0.095l-0.013,0.096l-0.014,0.096l-0.013,0.097l-0.012,0.097l-0.013,0.098l-0.013,0.098l-0.012,0.098l-0.012,0.1l-0.012,0.099l-0.012,0.1l-0.012,0.101l-0.011,0.101l-0.012,0.101l-0.011,0.103l-0.011,0.102l-0.011,0.103l-0.01,0.104l-0.011,0.104l-0.01,0.105l-0.01,0.106l-0.01,0.106l-0.009,0.106l-0.01,0.107l-0.009,0.108l-0.009,0.108l-0.008,0.109l-0.009,0.11l-0.008,0.11l-0.008,0.111l-0.008,0.111l-0.007,0.112l-0.007,0.113l-0.007,0.113l-0.007,0.115l-0.006,0.114l-0.006,0.116l-0.006,0.116l-0.005,0.116l-0.006,0.118l-0.005,0.118l-0.004,0.119l-0.005,0.12l-0.004,0.12l-0.003,0.121l-0.004,0.122l-0.003,0.122l-0.003,0.123l-0.002,0.124l-0.002,0.125l-0.002,0.126l-0.002,0.126l-0.001,0.127l-0.001,0.128l0,0.129l0,0.129l0,0.131l0.001,0.131l0.001,0.132l0.001,0.133l0.002,0.133l0.002,0.135l0.003,0.135l0.003,0.136l0.003,0.137l0.004,0.138l0.004,0.139l0.004,0.14l0.005,0.14l0.006,0.142l0.006,0.142l0.006,0.144l0.006,0.144l0.007,0.145l0.008,0.146l0.008,0.147l0.008,0.148l0.009,0.149l0.009,0.15l0.01,0.15l0.01,0.152l0.011,0.153l0.011,0.154l0.012,0.154l0.012,0.156l0.013,0.157l0.013,0.158l0.013,0.158l0.014,0.16l0.015,0.161l0.015,0.162l0.016,0.163l0.016,0.164l0.016,0.165l0.017,0.166l0.018,0.167l0.018,0.168l0.019,0.171l0.007,0.057l0.006,0.059l0.005,0.059l0.006,0.059l0.005,0.059l0.005,0.059l0.004,0.059l0.005,0.059l0.004,0.059l0.003,0.06l0.003,0.059l0.003,0.059l0.003,0.059l0.003,0.059l0.002,0.059l0.002,0.06l0.001,0.059l0.001,0.059l0.001,0.059l0.001,0.059l0,0.06l0.001,0.059l0,0.059l-0.001,0.059l0,0.059l-0.001,0.059l-0.002,0.06l-0.001,0.059l-0.002,0.059l-0.002,0.059l-0.002,0.059l-0.002,0.059l-0.003,0.059l-0.003,0.059l-0.003,0.059l-0.003,0.059l-0.004,0.058l-0.004,0.059l-0.004,0.059l-0.004,0.059l-0.005,0.058l-0.004,0.059l-0.005,0.059l-0.005,0.058l-0.006,0.059l-0.005,0.058l-0.006,0.058l-0.006,0.059l-0.007,0.058l-0.006,0.058l-0.007,0.058l-0.006,0.058l-0.007,0.058l-0.008,0.058l-0.007,0.058l-0.008,0.058l-0.007,0.058l-0.008,0.057l-0.009,0.058l-0.008,0.058l-0.017,0.114l-0.018,0.114l-0.018,0.114l-0.02,0.113l-0.019,0.114l-0.021,0.112l-0.021,0.113l-0.021,0.111l-0.022,0.112l-0.023,0.111l-0.023,0.11l-0.024,0.11l-0.024,0.109l-0.025,0.109l-0.025,0.108l-0.025,0.108l-0.026,0.107l-0.027,0.106l-0.026,0.106l-0.027,0.105l-0.028,0.105l-0.028,0.103l-0.028,0.104l-0.028,0.102l-0.028,0.102l-0.029,0.1l-0.029,0.101l-0.03,0.099l-0.029,0.099l-0.03,0.097l-0.03,0.097l-0.03,0.096l-0.03,0.096l-0.03,0.094l-0.03,0.093l-0.031,0.093l-0.03,0.091l-0.031,0.091l-0.03,0.09l-0.031,0.088l-0.03,0.088l-0.031,0.087l-0.03,0.086l-0.03,0.084l-0.031,0.084l-0.03,0.082l-0.03,0.081l-0.03,0.081l-0.03,0.079l-0.029,0.078l-0.03,0.076l-0.029,0.076l-0.029,0.074l-0.029,0.073l-0.028,0.072l-0.028,0.071l-0.028,0.069l-0.028,0.068l-0.027,0.067l-0.027,0.066l-0.053,0.126l-0.051,0.122l-0.05,0.115l-0.047,0.11l-0.046,0.104l-0.043,0.098l-0.042,0.092l-0.039,0.085l-0.036,0.079l-0.033,0.072l-0.031,0.065l-0.028,0.059l-0.025,0.052l-0.039,0.08l-0.025,0.051l-0.007,0.014l-0.036,0.073l-0.04,0.08l-0.04,0.079l-0.04,0.079l-0.042,0.078l-0.041,0.077l-0.043,0.078l-0.042,0.076l-0.044,0.076l-0.043,0.076l-0.044,0.075l-0.045,0.075l-0.045,0.075l-0.046,0.073l-0.046,0.074l-0.047,0.073l-0.047,0.072l-0.047,0.072l-0.048,0.071l-0.049,0.071l-0.049,0.071l-0.049,0.07l-0.05,0.07l-0.05,0.069l-0.05,0.069l-0.051,0.068l-0.052,0.068l-0.051,0.067l-0.053,0.067l-0.052,0.066l-0.053,0.066l-0.053,0.066l-0.054,0.065l-0.054,0.064l-0.055,0.065l-0.054,0.063l-0.055,0.064l-0.056,0.062l-0.056,0.063l-0.056,0.062l-0.056,0.061l-0.057,0.061l-0.057,0.061l-0.058,0.06l-0.057,0.06l-0.058,0.059l-0.059,0.059l-0.059,0.058l-0.058,0.058l-0.06,0.058l-0.059,0.057l-0.06,0.057l-0.06,0.056l-0.06,0.056l-0.061,0.056l-0.061,0.055l-0.061,0.054l-0.061,0.055l-0.062,0.053l-0.061,0.054l-0.063,0.053l-0.062,0.052l-0.062,0.053l-0.063,0.051l-0.063,0.052l-0.063,0.051l-0.063,0.05l-0.064,0.051l-0.063,0.049l-0.064,0.05l-0.064,0.049l-0.064,0.048l-0.065,0.049l-0.064,0.047l-0.065,0.048l-0.065,0.047l-0.065,0.047l-0.065,0.046l-0.065,0.046l-0.066,0.045l-0.066,0.045l-0.065,0.045l-0.066,0.045l-0.066,0.044l-0.066,0.043l-0.066,0.044l-0.067,0.043l-0.066,0.042l-0.066,0.042l-0.067,0.042l-0.067,0.042l-0.066,0.041l-0.067,0.041l-0.067,0.04l-0.067,0.04l-0.067,0.04l-0.067,0.039l-0.067,0.039l-0.067,0.039l-0.067,0.038l-0.068,0.038l-0.067,0.038l-0.067,0.037l-0.068,0.037l-0.067,0.037l-0.067,0.036l-0.068,0.036l-0.067,0.035l-0.067,0.036l-0.068,0.035l-0.067,0.034l-0.068,0.034l-0.067,0.034l-0.067,0.034l-0.067,0.033l-0.068,0.033l-0.067,0.033l-0.067,0.032l-0.067,0.032l-0.067,0.032l-0.067,0.032l-0.067,0.031l-0.067,0.031l-0.067,0.03l-0.067,0.03l-0.067,0.03l-0.066,0.03l-0.067,0.029l-0.066,0.029l-0.067,0.029l-0.066,0.028l-0.066,0.028l-0.066,0.028l-0.066,0.027l-0.066,0.027l-0.066,0.027l-0.065,0.027l-0.066,0.026l-0.065,0.026l-0.065,0.026l-0.065,0.025l-0.065,0.026l-0.065,0.025l-0.065,0.024l-0.064,0.025l-0.064,0.024l-0.064,0.023l-0.064,0.024l-0.064,0.023l-0.064,0.023l-0.063,0.023l-0.064,0.022l-0.125,0.044l-0.125,0.043l-0.124,0.042l-0.123,0.041l-0.122,0.04l-0.122,0.039l-0.12,0.038l-0.119,0.037l-0.118,0.036l-0.117,0.035l-0.116,0.034l-0.115,0.033l-0.113,0.032l-0.113,0.032l-0.111,0.03l-0.109,0.029l-0.108,0.029l-0.107,0.028l-0.106,0.026l-0.104,0.026l-0.102,0.026l-0.101,0.024l-0.099,0.023l-0.098,0.023l-0.096,0.022l-0.095,0.021l-0.092,0.02l-0.091,0.02l-0.089,0.018l-0.088,0.018l-0.085,0.018l-0.084,0.016l-0.081,0.016l-0.08,0.015l-0.078,0.014l-0.075,0.014l-0.074,0.013l-0.072,0.013l-0.069,0.011l-0.067,0.011l-0.065,0.011l-0.063,0.01l-0.061,0.009l-0.058,0.009l-0.057,0.008l-0.053,0.007l-0.052,0.007l-0.049,0.006l-0.047,0.006l-0.044,0.006l-0.043,0.004l-0.039,0.005l-0.103,0.01l-0.103,0.01l-0.102,0.01l-0.102,0.009l-0.103,0.009l-0.102,0.009l-0.102,0.008l-0.102,0.008l-0.102,0.007l-0.102,0.008l-0.101,0.006l-0.102,0.007l-0.102,0.006l-0.101,0.006l-0.101,0.005l-0.102,0.005l-0.101,0.004l-0.101,0.005l-0.101,0.004l-0.101,0.003l-0.101,0.003l-0.1,0.003l-0.101,0.003l-0.1,0.002l-0.101,0.001l-0.1,0.002l-0.1,0.001l-0.1,0.001l-0.1,0l-0.099,0l-0.1,0l-0.1,-0.001l-0.099,-0.001l-0.099,-0.001l-0.099,-0.002l-0.099,-0.002l-0.099,-0.002l-0.099,-0.003l-0.098,-0.003l-0.099,-0.003l-0.098,-0.004l-0.098,-0.004l-0.098,-0.004l-0.098,-0.005l-0.098,-0.005l-0.097,-0.005l-0.098,-0.006l-0.097,-0.006l-0.097,-0.006l-0.097,-0.007l-0.097,-0.007l-0.097,-0.007l-0.096,-0.008l-0.096,-0.008l-0.097,-0.008l-0.096,-0.008l-0.095,-0.009l-0.096,-0.009l-0.095,-0.01l-0.096,-0.01l-0.095,-0.01l-0.095,-0.01l-0.095,-0.011l-0.094,-0.011l-0.095,-0.011l-0.094,-0.012l-0.094,-0.012l-0.094,-0.012l-0.093,-0.013l-0.094,-0.013l-0.093,-0.013l-0.093,-0.013l-0.093,-0.014l-0.093,-0.014l-0.092,-0.015l-0.092,-0.014l-0.092,-0.015l-0.092,-0.015l-0.092,-0.016l-0.091,-0.016l-0.092,-0.016l-0.091,-0.016l-0.091,-0.017l-0.09,-0.017l-0.091,-0.017l-0.09,-0.018l-0.09,-0.018l-0.089,-0.018l-0.09,-0.018l-0.089,-0.019l-0.089,-0.019l-0.089,-0.019l-0.089,-0.02l-0.088,-0.02l-0.088,-0.02l-0.088,-0.02l-0.088,-0.021l-0.087,-0.021l-0.087,-0.021l-0.087,-0.021l-0.087,-0.022l-0.086,-0.022l-0.086,-0.022l-0.086,-0.023l-0.086,-0.023l-0.085,-0.023l-0.086,-0.023l-0.085,-0.024l-0.084,-0.024l-0.085,-0.024l-0.084,-0.024l-0.084,-0.025l-0.083,-0.025l-0.084,-0.025l-0.083,-0.025l-0.082,-0.026l-0.083,-0.026l-0.082,-0.026l-0.082,-0.026l-0.082,-0.027l-0.081,-0.027l-0.081,-0.027l-0.081,-0.028l-0.081,-0.027l-0.08,-0.028l-0.08,-0.028l-0.08,-0.029l-0.079,-0.029l-0.079,-0.029l-0.079,-0.029l-0.079,-0.029l-0.078,-0.03l-0.078,-0.03l-0.078,-0.03l-0.077,-0.03l-0.077,-0.031l-0.077,-0.031l-0.076,-0.031l-0.076,-0.031l-0.076,-0.032l-0.076,-0.031l-0.075,-0.032l-0.075,-0.033l-0.074,-0.032l-0.075,-0.033l-0.073,-0.033l-0.074,-0.033l-0.073,-0.033l-0.073,-0.034l-0.073,-0.034l-0.072,-0.034l-0.072,-0.034l-0.072,-0.035l-0.071,-0.035l-0.071,-0.035l-0.07,-0.035l-0.071,-0.035l-0.07,-0.036l-0.069,-0.036l-0.069,-0.036l-0.069,-0.036l-0.069,-0.037l-0.068,-0.036l-0.068,-0.037l-0.067,-0.037l-0.067,-0.038l-0.067,-0.037l-0.067,-0.038l-0.066,-0.038l-0.065,-0.038l-0.066,-0.039l-0.065,-0.039l-0.064,-0.038l-0.064,-0.04l-0.064,-0.039l-0.064,-0.039l-0.063,-0.04l-0.063,-0.04l-0.062,-0.04l-0.062,-0.04l-0.061,-0.041l-0.062,-0.041l-0.06,-0.041l-0.061,-0.041l-0.06,-0.041l-0.06,-0.042l-0.059,-0.041l-0.059,-0.042l-0.058,-0.042l-0.058,-0.043l-0.058,-0.042l-0.057,-0.043l-0.057,-0.043l-0.056,-0.043l-0.057,-0.044l-0.055,-0.043l-0.055,-0.044l-0.055,-0.044l-0.055,-0.044l-0.054,-0.044l-0.053,-0.045l-0.053,-0.045l-0.053,-0.045l-0.052,-0.045l-0.052,-0.045l-0.052,-0.046l-0.051,-0.045l-0.05,-0.046l-0.05,-0.046l-0.05,-0.046l-0.049,-0.047l-0.049,-0.047l-0.049,-0.046l-0.047,-0.048l-0.048,-0.047l-0.047,-0.047l-0.047,-0.048l-0.046,-0.048l-0.045,-0.048l-0.046,-0.048l-0.044,-0.048l-0.045,-0.049l-0.043,-0.049l-0.044,-0.049l-0.043,-0.049l-0.042,-0.049l-0.042,-0.05l-0.041,-0.049l-0.041,-0.05l-0.041,-0.05l-0.04,-0.051l-0.039,-0.05l-0.039,-0.051l-0.039,-0.051l-0.038,-0.05l-0.037,-0.052l-0.037,-0.051l-0.037,-0.052l-0.036,-0.051l-0.035,-0.052l-0.035,-0.053l-0.035,-0.052l-0.034,-0.052l-0.033,-0.053l-0.033,-0.053l-0.032,-0.053l-0.032,-0.053l-0.032,-0.054l-0.03,-0.053l-0.031,-0.054l-0.029,-0.054l-0.029,-0.054l-0.029,-0.054l-0.028,-0.055l-0.027,-0.054l-0.027,-0.054l-0.056,-0.118l-0.056,-0.117l-0.054,-0.116l-0.054,-0.116l-0.053,-0.116l-0.053,-0.116l-0.052,-0.115l-0.05,-0.116l-0.051,-0.115l-0.049,-0.115l-0.049,-0.115l-0.048,-0.115l-0.047,-0.115l-0.046,-0.114l-0.046,-0.115l-0.045,-0.115l-0.045,-0.114l-0.043,-0.115l-0.043,-0.114l-0.042,-0.115l-0.041,-0.114l-0.041,-0.115l-0.04,-0.114l-0.039,-0.115l-0.039,-0.114l-0.038,-0.115l-0.037,-0.114l-0.036,-0.115l-0.036,-0.115l-0.035,-0.115l-0.034,-0.115l-0.033,-0.115l-0.033,-0.115l-0.032,-0.115l-0.032,-0.116l-0.03,-0.115l-0.03,-0.116l-0.03,-0.116l-0.028,-0.116l-0.028,-0.117l-0.027,-0.116l-0.027,-0.117l-0.026,-0.117l-0.025,-0.117l-0.024,-0.118l-0.024,-0.117l-0.023,-0.118l-0.023,-0.119l-0.022,-0.118l-0.021,-0.119l-0.02,-0.119l-0.02,-0.12l-0.019,-0.119l-0.019,-0.121l-0.017,-0.12l-0.018,-0.121l-0.016,-0.121l-0.016,-0.122l-0.015,-0.122l-0.015,-0.122l-0.014,-0.123l-0.013,-0.123l-0.013,-0.124l-0.012,-0.124l-0.011,-0.124l-0.011,-0.126l-0.01,-0.125l-0.009,-0.126l-0.009,-0.126l-0.009,-0.127l-0.007,-0.128l-0.007,-0.128l-0.007,-0.129l-0.006,-0.129l-0.005,-0.13l-0.005,-0.13l-0.004,-0.131l-0.003,-0.131l-0.003,-0.132l-0.003,-0.133l-0.001,-0.133l-0.002,-0.134l0,-0.135l0,-0.135l0,-0.136l0.001,-0.137l0.002,-0.138l0.002,-0.138l0.003,-0.139l0.003,-0.139l0.004,-0.141l0.004,-0.141l0.005,-0.142l0.006,-0.143l0.006,-0.143l0.006,-0.144l0.007,-0.146l0.008,-0.146l0.008,-0.147l0.009,-0.147l0.009,-0.149l0.01,-0.149l0.01,-0.151l0.01,-0.151l0.012,-0.152l0.011,-0.154l0.013,-0.154l0.012,-0.155l0.014,-0.156l0.013,-0.157l0.014,-0.158l0.015,-0.16l0.015,-0.16l0.016,-0.161l0.016,-0.162l0.016,-0.163l0.018,-0.165l0.017,-0.165l0.018,-0.167l0.019,-0.168l0.018,-0.168l0.02,-0.171l0.02,-0.171l0.02,-0.172l0.021,-0.173l0.021,-0.175l0.021,-0.176l0.022,-0.175l0.005,-0.039l0.004,-0.037l0.004,-0.037l0.004,-0.037l0.003,-0.038l0.003,-0.037l0.003,-0.039l0.003,-0.038l0.002,-0.038l0.002,-0.039l0.002,-0.039l0.001,-0.04l0.002,-0.039l0.001,-0.04l0,-0.04l0.001,-0.04l0,-0.041l0,-0.04l0,-0.041l-0.001,-0.041l-0.001,-0.042l-0.001,-0.041l-0.001,-0.042l-0.002,-0.042l-0.001,-0.042l-0.003,-0.043l-0.002,-0.042l-0.002,-0.043l-0.003,-0.043l-0.003,-0.043l-0.004,-0.044l-0.003,-0.044l-0.004,-0.043l-0.004,-0.045l-0.004,-0.044l-0.005,-0.044l-0.004,-0.045l-0.005,-0.045l-0.006,-0.045l-0.005,-0.045l-0.006,-0.045l-0.005,-0.046l-0.007,-0.045l-0.006,-0.046l-0.006,-0.046l-0.007,-0.046l-0.007,-0.047l-0.007,-0.046l-0.008,-0.047l-0.007,-0.047l-0.008,-0.047l-0.008,-0.047l-0.009,-0.047l-0.008,-0.048l-0.009,-0.047l-0.008,-0.048l-0.019,-0.096l-0.019,-0.097l-0.02,-0.097l-0.021,-0.097l-0.021,-0.099l-0.022,-0.098l-0.023,-0.099l-0.023,-0.1l-0.025,-0.1l-0.025,-0.1l-0.025,-0.101l-0.026,-0.102l-0.027,-0.101l-0.027,-0.102l-0.028,-0.103l-0.029,-0.103l-0.029,-0.103l-0.029,-0.103l-0.03,-0.104l-0.031,-0.104l-0.031,-0.104l-0.032,-0.105l-0.031,-0.105l-0.033,-0.105l-0.033,-0.106l-0.033,-0.105l-0.033,-0.106l-0.034,-0.106l-0.034,-0.106l-0.035,-0.106l-0.035,-0.107l-0.035,-0.107l-0.035,-0.106l-0.036,-0.107l-0.036,-0.107l-0.036,-0.107l-0.073,-0.215l-0.073,-0.214l-0.074,-0.215l-0.075,-0.215l-0.149,-0.429l-0.149,-0.428l-0.074,-0.214l-0.074,-0.213l-0.073,-0.212l-0.073,-0.212l-0.071,-0.21l-0.035,-0.106l-0.036,-0.105l-0.034,-0.105l-0.035,-0.104l-0.034,-0.104l-0.034,-0.104l-0.033,-0.104l-0.033,-0.104l-0.033,-0.103l-0.032,-0.103l-0.032,-0.102l-0.032,-0.102l-0.03,-0.102l-0.031,-0.102l-0.03,-0.101l-0.029,-0.101l-0.029,-0.101l-0.028,-0.1l-0.028,-0.1l-0.027,-0.099l-0.027,-0.099l-0.026,-0.099l-0.025,-0.098l-0.025,-0.098l-0.024,-0.098l-0.023,-0.097l-0.022,-0.097l-0.022,-0.096l-0.021,-0.096l-0.02,-0.095l-0.019,-0.095l-0.019,-0.095l-0.017,-0.093l-0.009,-0.048l-0.008,-0.046l-0.008,-0.047l-0.008,-0.047l-0.008,-0.046l-0.007,-0.047l-0.007,-0.046l-0.007,-0.046l-0.007,-0.046l-0.006,-0.045l-0.014,-0.098l-0.013,-0.098l-0.012,-0.098l-0.013,-0.098l-0.012,-0.098l-0.012,-0.099l-0.012,-0.098l-0.011,-0.099l-0.011,-0.098l-0.011,-0.099l-0.01,-0.099l-0.01,-0.099l-0.01,-0.099l-0.01,-0.099l-0.009,-0.1l-0.009,-0.099l-0.009,-0.1l-0.008,-0.1l-0.009,-0.099l-0.007,-0.1l-0.008,-0.1l-0.007,-0.101l-0.007,-0.1l-0.007,-0.1l-0.006,-0.1l-0.006,-0.101l-0.006,-0.1l-0.005,-0.101l-0.005,-0.101l-0.005,-0.101l-0.004,-0.1l-0.005,-0.101l-0.003,-0.101l-0.004,-0.102l-0.003,-0.101l-0.003,-0.101l-0.002,-0.101l-0.003,-0.102l-0.001,-0.101l-0.002,-0.101l-0.001,-0.102l-0.001,-0.101l-0.001,-0.102l0,-0.102l0,-0.101l0.001,-0.102l0.001,-0.102l0.001,-0.102l0.001,-0.101l0.002,-0.102l0.002,-0.102l0.003,-0.102l0.003,-0.102l0.003,-0.102l0.003,-0.102l0.004,-0.102l0.005,-0.102l0.004,-0.102l0.005,-0.102l0.005,-0.102l0.006,-0.103l0.006,-0.102l0.007,-0.102l0.007,-0.102l0.007,-0.102l0.007,-0.102l0.008,-0.102l0.008,-0.102l0.009,-0.102l0.009,-0.102l0.009,-0.102l0.01,-0.102l0.01,-0.102l0.011,-0.102l0.011,-0.102l0.011,-0.102l0.012,-0.102l0.012,-0.102l0.012,-0.102l0.013,-0.102l0.013,-0.101l0.014,-0.102l0.014,-0.102l0.014,-0.101l0.015,-0.102l0.015,-0.101l0.016,-0.102l0.016,-0.101l0.016,-0.101l0.017,-0.102l0.017,-0.101l0.018,-0.101l0.018,-0.101l0.018,-0.101l0.019,-0.101l0.02,-0.101l0.019,-0.101l0.02,-0.101l0.021,-0.1l0.021,-0.101l0.021,-0.1l0.022,-0.101l0.022,-0.1l0.023,-0.1l0.023,-0.1l0.023,-0.1l0.024,-0.1l0.025,-0.1l0.025,-0.1l0.025,-0.099l0.025,-0.1l0.027,-0.099l0.026,-0.1l0.027,-0.099l0.028,-0.099l0.027,-0.099l0.029,-0.098l0.029,-0.099l0.029,-0.099l0.029,-0.098l0.031,-0.098l0.03,-0.098l0.031,-0.098l0.032,-0.098l0.032,-0.098l0.032,-0.098l0.033,-0.097l0.033,-0.097l0.034,-0.097l0.035,-0.097l0.034,-0.097l0.036,-0.097l0.035,-0.096l0.037,-0.096l0.036,-0.097l0.037,-0.096l0.038,-0.095l0.038,-0.096l0.039,-0.095l0.039,-0.096l0.039,-0.095l0.04,-0.095l0.041,-0.094l0.041,-0.095l0.041,-0.094l0.042,-0.094l0.043,-0.094l0.043,-0.094l0.043,-0.093l0.044,-0.094l0.045,-0.093l0.045,-0.093l0.045,-0.092l0.046,-0.093l0.047,-0.092l0.047,-0.092l0.048,-0.092l0.048,-0.091l0.048,-0.092l0.049,-0.091l0.05,-0.091l0.05,-0.09l0.051,-0.091l0.051,-0.09l0.052,-0.09l0.052,-0.089l0.053,-0.09l0.053,-0.089l0.054,-0.089l0.054,-0.088l0.055,-0.089l0.055,-0.088l0.056,-0.088l0.057,-0.087l0.057,-0.087l0.057,-0.087l0.058,-0.087l0.059,-0.087l0.059,-0.086l0.06,-0.086l0.06,-0.085l0.061,-0.085l0.061,-0.085l0.062,-0.085l0.063,-0.084l0.063,-0.085l0.063,-0.083l0.064,-0.084l0.065,-0.083l0.065,-0.083l0.066,-0.082l0.066,-0.083l0.067,-0.081l0.068,-0.082l0.068,-0.081l0.069,-0.081l0.069,-0.081l0.07,-0.08l0.07,-0.08l0.071,-0.079l0.071,-0.08l0.072,-0.078l0.073,-0.079l0.073,-0.078l0.074,-0.078l0.074,-0.077l0.075,-0.077l0.076,-0.077l0.076,-0.076l0.077,-0.076l0.077,-0.076l0.078,-0.075l0.078,-0.075l0.079,-0.074l0.08,-0.074l0.08,-0.074l0.081,-0.073l0.081,-0.073l0.082,-0.073l0.083,-0.072l0.083,-0.072l0.084,-0.071l0.084,-0.071l0.085,-0.07l0.086,-0.07l0.086,-0.07l0.087,-0.069l0.087,-0.069l0.088,-0.069l0.089,-0.067l0.089,-0.068l0.09,-0.067l0.09,-0.067l0.091,-0.066l0.092,-0.066l0.092,-0.065l0.093,-0.065l0.093,-0.065l0.094,-0.064l0.095,-0.063l0.095,-0.063l0.096,-0.063l0.097,-0.062l0.097,-0.062l0.098,-0.061l0.098,-0.061l0.099,-0.06l0.1,-0.06l0.1,-0.06l0.101,-0.059l0.102,-0.058l0.102,-0.058l0.103,-0.058l0.103,-0.057l0.104,-0.056l0.104,-0.056l0.118,-0.062l0.117,-0.062l0.117,-0.062l0.117,-0.061l0.118,-0.062l0.117,-0.061l0.118,-0.061l0.118,-0.06l0.118,-0.061l0.118,-0.06l0.118,-0.06l0.119,-0.06l0.119,-0.059l0.119,-0.059l0.119,-0.059l0.119,-0.059l0.119,-0.058l0.12,-0.058l0.12,-0.057l0.12,-0.057l0.12,-0.057l0.121,-0.056l0.121,-0.056l0.121,-0.055l0.121,-0.055l0.122,-0.054l0.121,-0.054l0.123,-0.054l0.122,-0.053l0.122,-0.052l0.123,-0.052l0.124,-0.051l0.123,-0.051l0.124,-0.05l0.124,-0.05l0.124,-0.049l0.125,-0.048l0.125,-0.048l0.126,-0.047l0.125,-0.047l0.063,-0.023l0.063,-0.023l0.064,-0.022l0.063,-0.023l0.063,-0.022l0.064,-0.022l0.063,-0.022l0.064,-0.022l0.063,-0.022l0.064,-0.021l0.064,-0.021l0.064,-0.021l0.064,-0.021l0.064,-0.021l0.064,-0.02l0.065,-0.02l0.064,-0.021l0.065,-0.019l0.064,-0.02l0.065,-0.02l0.065,-0.019l0.065,-0.019l0.065,-0.019l0.065,-0.018l0.065,-0.019l0.066,-0.018l0.065,-0.018l0.066,-0.018l0.065,-0.017l0.066,-0.018l0.066,-0.017l0.066,-0.017l0.066,-0.017l0.066,-0.016l0.066,-0.016l0.067,-0.016l0.066,-0.016l0.067,-0.016l0.067,-0.015l0.066,-0.015l0.067,-0.015l0.067,-0.014l0.068,-0.015l0.067,-0.014l0.067,-0.014l0.068,-0.013l0.067,-0.014l0.068,-0.013l0.085,-0.016l0.085,-0.015l0.084,-0.016l0.085,-0.014l0.085,-0.015l0.085,-0.014l0.085,-0.013l0.086,-0.013l0.085,-0.013l0.085,-0.012l0.086,-0.012l0.085,-0.012l0.086,-0.011l0.086,-0.011l0.085,-0.01l0.086,-0.01l0.086,-0.01l0.086,-0.009l0.086,-0.009l0.086,-0.008l0.086,-0.008l0.086,-0.008l0.086,-0.007l0.086,-0.006l0.086,-0.007l0.087,-0.006l0.086,-0.006l0.086,-0.005l0.087,-0.005l0.086,-0.004l0.087,-0.004l0.086,-0.004l0.087,-0.003l0.086,-0.003l0.087,-0.002l0.087,-0.003l0.086,-0.001l0.087,-0.002l0.087,-0.001l0.087,0l0.086,0l0.087,0Zm-0.167,1.472l-0.08,0l-0.08,0.001l-0.08,0.002l-0.08,0.001l-0.081,0.002l-0.08,0.003l-0.08,0.002l-0.08,0.003l-0.08,0.004l-0.079,0.003l-0.08,0.004l-0.08,0.005l-0.08,0.005l-0.079,0.005l-0.08,0.005l-0.08,0.006l-0.079,0.007l-0.08,0.006l-0.079,0.007l-0.079,0.008l-0.079,0.007l-0.08,0.008l-0.079,0.009l-0.079,0.009l-0.079,0.009l-0.079,0.009l-0.078,0.01l-0.079,0.01l-0.079,0.011l-0.078,0.011l-0.079,0.011l-0.078,0.012l-0.078,0.012l-0.079,0.013l-0.078,0.012l-0.078,0.014l-0.078,0.013l-0.078,0.014l-0.077,0.014l-0.078,0.015l-0.062,0.012l-0.062,0.012l-0.062,0.013l-0.062,0.013l-0.062,0.013l-0.061,0.013l-0.062,0.013l-0.061,0.014l-0.062,0.014l-0.061,0.014l-0.062,0.014l-0.061,0.015l-0.061,0.014l-0.061,0.015l-0.061,0.015l-0.061,0.016l-0.061,0.015l-0.061,0.016l-0.06,0.016l-0.061,0.017l-0.061,0.016l-0.06,0.017l-0.061,0.017l-0.06,0.017l-0.06,0.017l-0.061,0.017l-0.06,0.018l-0.06,0.018l-0.06,0.018l-0.06,0.018l-0.06,0.019l-0.06,0.018l-0.06,0.019l-0.06,0.019l-0.06,0.02l-0.059,0.019l-0.06,0.02l-0.06,0.019l-0.059,0.02l-0.06,0.021l-0.059,0.02l-0.059,0.02l-0.06,0.021l-0.059,0.021l-0.059,0.021l-0.06,0.021l-0.059,0.022l-0.058,0.021l-0.119,0.044l-0.118,0.044l-0.118,0.045l-0.117,0.046l-0.118,0.046l-0.117,0.047l-0.117,0.048l-0.117,0.048l-0.117,0.049l-0.117,0.049l-0.116,0.05l-0.117,0.05l-0.116,0.051l-0.116,0.052l-0.117,0.052l-0.116,0.052l-0.116,0.053l-0.116,0.054l-0.115,0.054l-0.116,0.054l-0.116,0.055l-0.115,0.055l-0.116,0.056l-0.115,0.056l-0.116,0.057l-0.115,0.057l-0.115,0.057l-0.115,0.058l-0.116,0.058l-0.115,0.058l-0.115,0.059l-0.115,0.059l-0.115,0.059l-0.116,0.06l-0.115,0.06l-0.115,0.06l-0.115,0.06l-0.115,0.061l-0.116,0.061l-0.114,0.061l-0.097,0.052l-0.096,0.052l-0.096,0.053l-0.095,0.053l-0.094,0.053l-0.093,0.054l-0.093,0.054l-0.093,0.055l-0.092,0.055l-0.091,0.056l-0.09,0.056l-0.09,0.056l-0.09,0.057l-0.088,0.057l-0.089,0.058l-0.087,0.058l-0.087,0.058l-0.087,0.059l-0.085,0.059l-0.086,0.06l-0.084,0.06l-0.084,0.06l-0.084,0.061l-0.083,0.061l-0.082,0.061l-0.082,0.062l-0.081,0.063l-0.081,0.062l-0.08,0.063l-0.079,0.064l-0.079,0.064l-0.079,0.064l-0.077,0.064l-0.078,0.065l-0.076,0.065l-0.076,0.066l-0.076,0.066l-0.075,0.066l-0.075,0.067l-0.073,0.067l-0.074,0.068l-0.073,0.067l-0.072,0.069l-0.072,0.068l-0.071,0.069l-0.071,0.069l-0.07,0.069l-0.069,0.07l-0.069,0.07l-0.069,0.071l-0.068,0.071l-0.068,0.071l-0.067,0.071l-0.066,0.072l-0.066,0.072l-0.065,0.073l-0.065,0.072l-0.065,0.074l-0.063,0.073l-0.064,0.074l-0.063,0.074l-0.062,0.074l-0.062,0.075l-0.061,0.075l-0.061,0.075l-0.06,0.076l-0.06,0.075l-0.059,0.077l-0.059,0.076l-0.058,0.077l-0.058,0.077l-0.057,0.077l-0.057,0.078l-0.056,0.078l-0.056,0.078l-0.055,0.079l-0.055,0.078l-0.054,0.079l-0.054,0.08l-0.053,0.079l-0.053,0.08l-0.053,0.08l-0.051,0.081l-0.052,0.081l-0.051,0.081l-0.05,0.081l-0.05,0.081l-0.05,0.082l-0.049,0.082l-0.048,0.082l-0.048,0.083l-0.048,0.083l-0.047,0.083l-0.047,0.083l-0.046,0.083l-0.046,0.084l-0.045,0.084l-0.045,0.084l-0.044,0.085l-0.044,0.085l-0.043,0.085l-0.043,0.085l-0.043,0.085l-0.042,0.086l-0.042,0.086l-0.041,0.086l-0.04,0.086l-0.041,0.087l-0.039,0.086l-0.04,0.087l-0.039,0.087l-0.038,0.088l-0.038,0.087l-0.038,0.088l-0.037,0.088l-0.037,0.088l-0.036,0.089l-0.036,0.088l-0.035,0.089l-0.035,0.089l-0.035,0.089l-0.034,0.09l-0.033,0.089l-0.034,0.09l-0.032,0.09l-0.033,0.09l-0.032,0.09l-0.031,0.091l-0.031,0.09l-0.031,0.091l-0.03,0.091l-0.03,0.091l-0.029,0.092l-0.029,0.091l-0.029,0.092l-0.028,0.091l-0.028,0.092l-0.027,0.092l-0.027,0.093l-0.027,0.092l-0.026,0.093l-0.025,0.092l-0.026,0.093l-0.024,0.093l-0.025,0.093l-0.024,0.093l-0.024,0.094l-0.023,0.093l-0.023,0.094l-0.022,0.093l-0.022,0.094l-0.022,0.094l-0.021,0.094l-0.021,0.095l-0.02,0.094l-0.021,0.094l-0.019,0.095l-0.02,0.094l-0.018,0.095l-0.019,0.095l-0.018,0.095l-0.018,0.095l-0.017,0.095l-0.017,0.095l-0.017,0.096l-0.016,0.095l-0.016,0.096l-0.015,0.095l-0.016,0.096l-0.014,0.096l-0.015,0.095l-0.014,0.096l-0.013,0.096l-0.013,0.096l-0.013,0.096l-0.013,0.097l-0.012,0.096l-0.012,0.096l-0.011,0.096l-0.011,0.097l-0.011,0.096l-0.01,0.097l-0.01,0.096l-0.01,0.097l-0.009,0.096l-0.009,0.097l-0.008,0.097l-0.009,0.096l-0.007,0.097l-0.008,0.097l-0.007,0.097l-0.007,0.097l-0.006,0.096l-0.006,0.097l-0.006,0.097l-0.005,0.097l-0.006,0.097l-0.004,0.097l-0.005,0.097l-0.004,0.097l-0.003,0.097l-0.004,0.097l-0.003,0.097l-0.003,0.097l-0.002,0.097l-0.002,0.096l-0.002,0.097l-0.001,0.097l-0.001,0.097l-0.001,0.097l-0.001,0.097l0,0.097l0.001,0.096l0,0.097l0.001,0.097l0.001,0.097l0.002,0.096l0.001,0.097l0.002,0.097l0.003,0.096l0.003,0.097l0.003,0.096l0.003,0.096l0.003,0.097l0.004,0.096l0.005,0.096l0.004,0.096l0.005,0.097l0.005,0.096l0.006,0.095l0.005,0.096l0.006,0.096l0.007,0.096l0.006,0.096l0.007,0.095l0.007,0.096l0.008,0.095l0.008,0.096l0.008,0.095l0.008,0.095l0.009,0.095l0.009,0.095l0.009,0.095l0.009,0.095l0.01,0.094l0.01,0.095l0.01,0.094l0.011,0.094l0.011,0.095l0.011,0.094l0.011,0.094l0.012,0.094l0.012,0.093l0.012,0.094l0.012,0.093l0.013,0.093l0.005,0.039l0.006,0.039l0.006,0.04l0.006,0.039l0.006,0.04l0.007,0.04l0.007,0.04l0.007,0.041l0.007,0.04l0.007,0.041l0.016,0.083l0.016,0.083l0.017,0.085l0.018,0.085l0.019,0.086l0.02,0.087l0.02,0.088l0.021,0.088l0.022,0.089l0.023,0.09l0.023,0.091l0.024,0.092l0.025,0.092l0.025,0.092l0.026,0.094l0.027,0.094l0.027,0.095l0.028,0.095l0.028,0.096l0.029,0.097l0.029,0.097l0.03,0.098l0.031,0.098l0.031,0.099l0.031,0.099l0.032,0.1l0.033,0.1l0.032,0.101l0.034,0.101l0.033,0.101l0.034,0.103l0.034,0.102l0.035,0.103l0.07,0.207l0.071,0.208l0.073,0.21l0.073,0.211l0.073,0.212l0.149,0.428l0.15,0.431l0.075,0.216l0.075,0.217l0.074,0.218l0.074,0.218l0.037,0.109l0.037,0.11l0.036,0.109l0.037,0.109l0.036,0.11l0.036,0.109l0.035,0.109l0.035,0.11l0.035,0.109l0.035,0.11l0.035,0.109l0.034,0.11l0.033,0.109l0.033,0.109l0.033,0.109l0.033,0.11l0.032,0.109l0.031,0.109l0.032,0.109l0.03,0.108l0.03,0.109l0.03,0.109l0.029,0.108l0.028,0.108l0.028,0.108l0.028,0.108l0.026,0.108l0.026,0.108l0.026,0.107l0.024,0.107l0.024,0.108l0.024,0.106l0.022,0.107l0.022,0.106l0.021,0.107l0.02,0.105l0.01,0.053l0.01,0.053l0.009,0.053l0.009,0.052l0.009,0.053l0.009,0.053l0.009,0.052l0.008,0.053l0.008,0.052l0.008,0.052l0.008,0.053l0.007,0.052l0.007,0.052l0.007,0.052l0.007,0.052l0.006,0.052l0.007,0.051l0.006,0.052l0.005,0.052l0.006,0.051l0.005,0.052l0.005,0.051l0.005,0.051l0.004,0.052l0.004,0.051l0.004,0.051l0.004,0.051l0.003,0.051l0.003,0.051l0.003,0.051l0.002,0.05l0.002,0.051l0.002,0.051l0.002,0.05l0.001,0.05l0.001,0.05l0.001,0.051l0,0.05l0,0.05l0,0.05l-0.001,0.049l-0.001,0.05l-0.001,0.05l-0.002,0.049l-0.001,0.05l-0.003,0.049l-0.002,0.049l-0.003,0.05l-0.004,0.049l-0.003,0.048l-0.004,0.049l-0.005,0.049l-0.004,0.049l-0.005,0.048l-0.006,0.049l-0.006,0.046l-0.022,0.177l-0.021,0.173l-0.021,0.173l-0.02,0.17l-0.02,0.17l-0.02,0.169l-0.019,0.167l-0.018,0.166l-0.018,0.165l-0.018,0.163l-0.017,0.163l-0.017,0.161l-0.016,0.16l-0.016,0.159l-0.015,0.158l-0.015,0.156l-0.015,0.156l-0.013,0.154l-0.014,0.154l-0.013,0.152l-0.012,0.151l-0.012,0.15l-0.011,0.15l-0.011,0.148l-0.011,0.147l-0.009,0.146l-0.01,0.145l-0.009,0.144l-0.008,0.143l-0.008,0.142l-0.007,0.141l-0.007,0.141l-0.006,0.139l-0.006,0.138l-0.005,0.138l-0.005,0.137l-0.004,0.135l-0.004,0.135l-0.003,0.134l-0.003,0.133l-0.002,0.133l-0.002,0.131l-0.001,0.131l0,0.13l0,0.129l0,0.129l0.002,0.127l0.001,0.127l0.003,0.126l0.002,0.126l0.004,0.125l0.004,0.124l0.004,0.123l0.005,0.123l0.006,0.122l0.006,0.121l0.006,0.121l0.008,0.12l0.007,0.12l0.009,0.119l0.009,0.118l0.009,0.118l0.01,0.117l0.011,0.117l0.011,0.116l0.012,0.116l0.013,0.115l0.013,0.115l0.013,0.114l0.014,0.114l0.015,0.113l0.016,0.113l0.016,0.113l0.016,0.112l0.017,0.112l0.018,0.111l0.018,0.111l0.019,0.111l0.02,0.11l0.02,0.11l0.021,0.11l0.022,0.109l0.022,0.109l0.022,0.109l0.024,0.109l0.024,0.108l0.024,0.108l0.025,0.108l0.026,0.108l0.027,0.107l0.027,0.108l0.028,0.107l0.028,0.107l0.029,0.107l0.03,0.107l0.03,0.107l0.031,0.107l0.032,0.106l0.033,0.107l0.033,0.106l0.033,0.107l0.035,0.106l0.035,0.107l0.036,0.106l0.036,0.107l0.038,0.107l0.037,0.106l0.039,0.107l0.039,0.107l0.04,0.107l0.041,0.106l0.041,0.108l0.043,0.107l0.042,0.107l0.044,0.108l0.044,0.108l0.045,0.107l0.046,0.109l0.047,0.108l0.047,0.108l0.048,0.109l0.049,0.109l0.049,0.109l0.05,0.11l0.051,0.11l0.052,0.11l0.053,0.111l0.053,0.109l0.021,0.043l0.021,0.043l0.022,0.042l0.022,0.042l0.022,0.042l0.023,0.042l0.024,0.042l0.024,0.042l0.025,0.042l0.025,0.042l0.025,0.042l0.026,0.042l0.027,0.042l0.027,0.042l0.028,0.041l0.028,0.042l0.028,0.042l0.029,0.042l0.03,0.041l0.03,0.042l0.03,0.042l0.031,0.041l0.031,0.042l0.032,0.041l0.033,0.041l0.033,0.042l0.033,0.041l0.034,0.041l0.034,0.041l0.035,0.042l0.035,0.041l0.036,0.041l0.036,0.04l0.037,0.041l0.037,0.041l0.038,0.041l0.038,0.04l0.038,0.041l0.039,0.04l0.04,0.041l0.04,0.04l0.04,0.04l0.041,0.041l0.042,0.04l0.041,0.04l0.043,0.039l0.042,0.04l0.044,0.04l0.043,0.04l0.044,0.039l0.045,0.039l0.045,0.04l0.045,0.039l0.046,0.039l0.046,0.039l0.047,0.039l0.047,0.039l0.048,0.038l0.048,0.039l0.049,0.038l0.049,0.039l0.049,0.038l0.05,0.038l0.05,0.038l0.051,0.038l0.051,0.037l0.051,0.038l0.052,0.037l0.052,0.038l0.053,0.037l0.053,0.037l0.054,0.037l0.054,0.036l0.054,0.037l0.055,0.036l0.055,0.037l0.056,0.036l0.056,0.036l0.056,0.036l0.057,0.036l0.057,0.035l0.058,0.036l0.058,0.035l0.058,0.035l0.059,0.035l0.059,0.035l0.06,0.035l0.06,0.034l0.06,0.035l0.061,0.034l0.061,0.034l0.061,0.034l0.062,0.033l0.062,0.034l0.063,0.033l0.063,0.033l0.063,0.033l0.064,0.033l0.064,0.033l0.064,0.032l0.065,0.033l0.065,0.032l0.066,0.032l0.066,0.031l0.066,0.032l0.066,0.031l0.067,0.031l0.067,0.031l0.068,0.031l0.068,0.031l0.068,0.03l0.069,0.031l0.069,0.03l0.069,0.029l0.069,0.03l0.07,0.029l0.071,0.03l0.07,0.029l0.071,0.029l0.071,0.028l0.072,0.029l0.072,0.028l0.072,0.028l0.072,0.028l0.073,0.027l0.073,0.028l0.074,0.027l0.073,0.027l0.074,0.026l0.075,0.027l0.074,0.026l0.075,0.026l0.075,0.026l0.076,0.026l0.076,0.025l0.076,0.025l0.076,0.025l0.077,0.025l0.077,0.025l0.077,0.024l0.078,0.024l0.078,0.024l0.078,0.023l0.078,0.024l0.079,0.023l0.079,0.023l0.079,0.022l0.079,0.023l0.08,0.022l0.08,0.022l0.08,0.021l0.081,0.022l0.08,0.021l0.082,0.021l0.081,0.021l0.081,0.02l0.082,0.02l0.082,0.02l0.082,0.02l0.083,0.019l0.083,0.02l0.083,0.018l0.083,0.019l0.084,0.019l0.083,0.018l0.084,0.018l0.084,0.017l0.085,0.018l0.084,0.017l0.085,0.017l0.085,0.016l0.086,0.016l0.085,0.016l0.086,0.016l0.086,0.016l0.086,0.015l0.087,0.015l0.086,0.015l0.087,0.014l0.087,0.014l0.087,0.014l0.088,0.014l0.088,0.013l0.087,0.013l0.088,0.013l0.089,0.012l0.088,0.012l0.089,0.012l0.089,0.012l0.089,0.011l0.089,0.011l0.089,0.011l0.09,0.01l0.089,0.011l0.09,0.009l0.09,0.01l0.091,0.009l0.09,0.009l0.091,0.009l0.091,0.008l0.091,0.009l0.091,0.007l0.091,0.008l0.091,0.007l0.092,0.007l0.092,0.007l0.092,0.006l0.092,0.006l0.092,0.005l0.092,0.006l0.093,0.005l0.093,0.005l0.092,0.004l0.093,0.004l0.094,0.004l0.093,0.004l0.093,0.003l0.094,0.003l0.093,0.002l0.094,0.002l0.094,0.002l0.094,0.002l0.094,0.001l0.095,0.001l0.094,0.001l0.095,0l0.094,0l0.095,0l0.095,-0.001l0.095,-0.001l0.095,-0.002l0.095,-0.001l0.096,-0.002l0.095,-0.003l0.096,-0.002l0.095,-0.003l0.096,-0.004l0.096,-0.003l0.096,-0.004l0.096,-0.005l0.096,-0.004l0.096,-0.005l0.097,-0.006l0.096,-0.006l0.096,-0.006l0.097,-0.006l0.097,-0.007l0.096,-0.007l0.097,-0.007l0.097,-0.008l0.097,-0.008l0.097,-0.009l0.097,-0.009l0.097,-0.009l0.098,-0.01l0.097,-0.01l0.031,-0.003l0.034,-0.004l0.036,-0.004l0.04,-0.005l0.042,-0.005l0.044,-0.006l0.048,-0.007l0.049,-0.007l0.052,-0.008l0.055,-0.008l0.057,-0.009l0.059,-0.01l0.061,-0.01l0.064,-0.01l0.066,-0.012l0.068,-0.012l0.07,-0.013l0.072,-0.013l0.074,-0.014l0.076,-0.015l0.077,-0.015l0.08,-0.016l0.082,-0.017l0.083,-0.017l0.085,-0.019l0.087,-0.019l0.089,-0.019l0.09,-0.021l0.091,-0.021l0.094,-0.022l0.094,-0.023l0.097,-0.024l0.098,-0.024l0.099,-0.025l0.1,-0.026l0.102,-0.027l0.103,-0.028l0.105,-0.028l0.105,-0.03l0.107,-0.03l0.108,-0.031l0.109,-0.032l0.11,-0.033l0.112,-0.034l0.112,-0.035l0.113,-0.036l0.114,-0.036l0.115,-0.038l0.116,-0.038l0.116,-0.04l0.118,-0.04l0.118,-0.042l0.059,-0.021l0.06,-0.021l0.059,-0.022l0.06,-0.021l0.06,-0.022l0.06,-0.023l0.061,-0.022l0.06,-0.023l0.06,-0.023l0.061,-0.024l0.061,-0.023l0.061,-0.024l0.061,-0.024l0.061,-0.024l0.061,-0.025l0.062,-0.025l0.061,-0.025l0.062,-0.026l0.061,-0.025l0.062,-0.026l0.062,-0.026l0.062,-0.027l0.062,-0.027l0.062,-0.027l0.062,-0.027l0.062,-0.028l0.062,-0.027l0.062,-0.029l0.063,-0.028l0.062,-0.029l0.062,-0.029l0.063,-0.029l0.062,-0.029l0.062,-0.03l0.063,-0.03l0.062,-0.03l0.063,-0.031l0.062,-0.031l0.063,-0.031l0.062,-0.032l0.063,-0.031l0.062,-0.033l0.062,-0.032l0.063,-0.033l0.062,-0.032l0.062,-0.034l0.063,-0.033l0.062,-0.034l0.062,-0.034l0.062,-0.035l0.062,-0.034l0.062,-0.035l0.062,-0.036l0.062,-0.035l0.062,-0.036l0.061,-0.036l0.062,-0.037l0.061,-0.037l0.062,-0.037l0.061,-0.037l0.061,-0.038l0.061,-0.038l0.061,-0.038l0.061,-0.039l0.061,-0.039l0.06,-0.039l0.061,-0.04l0.06,-0.039l0.06,-0.041l0.061,-0.04l0.059,-0.041l0.06,-0.041l0.06,-0.042l0.059,-0.041l0.059,-0.043l0.06,-0.042l0.058,-0.043l0.059,-0.043l0.059,-0.043l0.058,-0.044l0.058,-0.044l0.058,-0.044l0.058,-0.045l0.057,-0.045l0.058,-0.045l0.057,-0.046l0.057,-0.046l0.057,-0.046l0.056,-0.047l0.056,-0.047l0.056,-0.047l0.056,-0.048l0.055,-0.048l0.056,-0.048l0.055,-0.049l0.054,-0.049l0.055,-0.049l0.054,-0.05l0.054,-0.05l0.054,-0.05l0.053,-0.051l0.053,-0.051l0.053,-0.051l0.052,-0.052l0.053,-0.052l0.052,-0.052l0.051,-0.053l0.052,-0.053l0.051,-0.053l0.05,-0.054l0.051,-0.054l0.05,-0.055l0.049,-0.055l0.05,-0.055l0.049,-0.055l0.049,-0.056l0.048,-0.056l0.048,-0.057l0.048,-0.057l0.047,-0.057l0.047,-0.058l0.047,-0.058l0.046,-0.059l0.046,-0.058l0.045,-0.06l0.045,-0.059l0.045,-0.06l0.044,-0.06l0.044,-0.061l0.044,-0.061l0.043,-0.061l0.043,-0.062l0.042,-0.062l0.042,-0.063l0.042,-0.063l0.041,-0.063l0.041,-0.064l0.04,-0.064l0.04,-0.064l0.039,-0.065l0.039,-0.065l0.039,-0.066l0.038,-0.066l0.037,-0.066l0.038,-0.067l0.036,-0.067l0.037,-0.068l0.036,-0.068l0.035,-0.068l0.035,-0.069l0.034,-0.069l0.037,-0.076l0.009,-0.018l0.021,-0.043l0.036,-0.072l0.022,-0.046l0.025,-0.053l0.028,-0.06l0.031,-0.067l0.034,-0.073l0.036,-0.079l0.039,-0.086l0.041,-0.092l0.042,-0.098l0.045,-0.103l0.047,-0.109l0.048,-0.115l0.051,-0.12l0.025,-0.062l0.026,-0.063l0.026,-0.064l0.026,-0.066l0.027,-0.067l0.027,-0.068l0.027,-0.069l0.028,-0.071l0.028,-0.071l0.027,-0.073l0.028,-0.074l0.029,-0.075l0.028,-0.076l0.029,-0.077l0.028,-0.078l0.029,-0.079l0.029,-0.081l0.028,-0.081l0.029,-0.082l0.029,-0.083l0.029,-0.084l0.029,-0.085l0.029,-0.085l0.029,-0.087l0.028,-0.087l0.029,-0.089l0.028,-0.089l0.029,-0.09l0.028,-0.091l0.028,-0.091l0.028,-0.092l0.028,-0.093l0.028,-0.094l0.027,-0.094l0.027,-0.095l0.027,-0.096l0.027,-0.096l0.026,-0.097l0.026,-0.097l0.026,-0.098l0.025,-0.099l0.025,-0.099l0.025,-0.099l0.024,-0.1l0.024,-0.101l0.023,-0.101l0.023,-0.101l0.023,-0.102l0.022,-0.103l0.021,-0.102l0.021,-0.103l0.021,-0.104l0.02,-0.103l0.019,-0.104l0.019,-0.105l0.019,-0.104l0.017,-0.105l0.017,-0.105l0.017,-0.105l0.016,-0.106l0.007,-0.052l0.008,-0.053l0.007,-0.053l0.007,-0.052l0.007,-0.053l0.007,-0.053l0.006,-0.053l0.007,-0.053l0.006,-0.053l0.006,-0.053l0.006,-0.053l0.006,-0.053l0.005,-0.053l0.005,-0.053l0.005,-0.053l0.005,-0.053l0.005,-0.053l0.005,-0.053l0.004,-0.053l0.004,-0.053l0.004,-0.054l0.003,-0.053l0.004,-0.053l0.003,-0.053l0.003,-0.053l0.003,-0.053l0.003,-0.052l0.002,-0.053l0.002,-0.053l0.002,-0.053l0.002,-0.053l0.001,-0.053l0.002,-0.052l0.001,-0.053l0,-0.053l0.001,-0.052l0,-0.053l0,-0.052l0,-0.053l0,-0.052l-0.001,-0.053l-0.001,-0.052l-0.001,-0.052l-0.001,-0.052l-0.002,-0.052l-0.002,-0.052l-0.002,-0.052l-0.002,-0.052l-0.003,-0.052l-0.003,-0.052l-0.003,-0.051l-0.003,-0.052l-0.004,-0.051l-0.004,-0.052l-0.004,-0.051l-0.004,-0.051l-0.005,-0.051l-0.005,-0.051l-0.005,-0.051l-0.006,-0.052l-0.019,-0.172l-0.019,-0.172l-0.018,-0.17l-0.017,-0.17l-0.017,-0.169l-0.017,-0.167l-0.016,-0.167l-0.015,-0.165l-0.015,-0.165l-0.014,-0.163l-0.014,-0.163l-0.014,-0.161l-0.013,-0.161l-0.012,-0.159l-0.012,-0.159l-0.011,-0.157l-0.011,-0.157l-0.011,-0.156l-0.01,-0.154l-0.009,-0.154l-0.009,-0.153l-0.009,-0.152l-0.008,-0.151l-0.008,-0.15l-0.007,-0.149l-0.007,-0.148l-0.006,-0.147l-0.006,-0.146l-0.006,-0.146l-0.005,-0.144l-0.005,-0.144l-0.004,-0.143l-0.004,-0.142l-0.003,-0.141l-0.003,-0.14l-0.003,-0.14l-0.002,-0.138l-0.002,-0.138l-0.001,-0.137l-0.001,-0.136l-0.001,-0.135l0,-0.134l0,-0.134l0,-0.133l0.001,-0.132l0.001,-0.131l0.002,-0.13l0.002,-0.13l0.002,-0.129l0.002,-0.128l0.003,-0.127l0.003,-0.127l0.004,-0.126l0.004,-0.125l0.004,-0.124l0.005,-0.124l0.004,-0.123l0.006,-0.122l0.005,-0.121l0.006,-0.121l0.006,-0.12l0.006,-0.119l0.007,-0.119l0.006,-0.118l0.008,-0.117l0.007,-0.117l0.008,-0.116l0.008,-0.115l0.008,-0.115l0.008,-0.114l0.009,-0.113l0.009,-0.113l0.009,-0.112l0.01,-0.112l0.009,-0.111l0.01,-0.11l0.01,-0.11l0.011,-0.109l0.01,-0.108l0.011,-0.108l0.011,-0.107l0.011,-0.107l0.011,-0.106l0.012,-0.106l0.012,-0.105l0.012,-0.104l0.012,-0.104l0.012,-0.103l0.013,-0.103l0.012,-0.102l0.013,-0.102l0.013,-0.101l0.013,-0.101l0.013,-0.1l0.014,-0.1l0.013,-0.099l0.014,-0.099l0.014,-0.098l0.013,-0.098l0.015,-0.098l0.028,-0.193l0.029,-0.191l0.029,-0.19l0.03,-0.187l0.029,-0.187l0.031,-0.184l0.03,-0.183l0.031,-0.182l0.031,-0.18l0.03,-0.178l0.032,-0.177l0.031,-0.176l0.031,-0.174l0.031,-0.173l0.062,-0.343l0.062,-0.338l0.061,-0.334l0.06,-0.331l0.03,-0.164l0.029,-0.163l0.029,-0.162l0.028,-0.162l0.028,-0.161l0.028,-0.161l0.027,-0.16l0.026,-0.159l0.026,-0.159l0.025,-0.159l0.025,-0.159l0.024,-0.158l0.023,-0.158l0.011,-0.079l0.011,-0.079l0.011,-0.078l0.011,-0.079l0.011,-0.079l0.01,-0.079l0.01,-0.079l0.01,-0.078l0.01,-0.079l0.009,-0.079l0.009,-0.079l0.009,-0.079l0.009,-0.079l0.009,-0.079l0.008,-0.079l0.008,-0.079l0.008,-0.079l0.008,-0.079l0.007,-0.08l0.007,-0.079l0.007,-0.08l0.007,-0.079l0.006,-0.08l0.006,-0.08l0.006,-0.08l0.005,-0.08l0.005,-0.08l0.005,-0.081l0.005,-0.08l0.004,-0.081l0.004,-0.081l0.004,-0.081l0.003,-0.081l0.003,-0.081l0.003,-0.082l0.002,-0.082l0.002,-0.082l0.002,-0.082l0.002,-0.083l0.001,-0.082l0.001,-0.083l0,-0.084l0,-0.083l0,-0.084l-0.001,-0.084l-0.001,-0.084l-0.001,-0.085l-0.002,-0.085l-0.002,-0.085l-0.002,-0.085l-0.003,-0.086l-0.003,-0.086l-0.004,-0.087l-0.004,-0.086l-0.005,-0.088l-0.004,-0.087l-0.006,-0.088l-0.005,-0.088l-0.006,-0.089l-0.007,-0.089l-0.007,-0.089l-0.007,-0.09l-0.008,-0.09l-0.008,-0.091l-0.008,-0.091l-0.01,-0.091l-0.009,-0.092l-0.01,-0.092l-0.01,-0.093l-0.011,-0.093l-0.012,-0.094l-0.012,-0.094l-0.012,-0.095l-0.013,-0.095l-0.013,-0.095l-0.014,-0.096l-0.014,-0.097l-0.015,-0.097l-0.015,-0.098l-0.016,-0.098l-0.016,-0.098l-0.017,-0.1l-0.017,-0.099l-0.018,-0.101l-0.019,-0.1l-0.018,-0.102l-0.028,-0.142l-0.028,-0.144l-0.028,-0.143l-0.03,-0.144l-0.03,-0.145l-0.031,-0.145l-0.032,-0.146l-0.032,-0.146l-0.034,-0.146l-0.017,-0.073l-0.017,-0.074l-0.017,-0.073l-0.018,-0.073l-0.018,-0.074l-0.018,-0.073l-0.018,-0.074l-0.018,-0.074l-0.019,-0.073l-0.019,-0.074l-0.019,-0.074l-0.019,-0.074l-0.019,-0.074l-0.02,-0.074l-0.02,-0.073l-0.02,-0.074l-0.02,-0.074l-0.02,-0.074l-0.021,-0.074l-0.021,-0.074l-0.021,-0.074l-0.021,-0.074l-0.022,-0.074l-0.021,-0.074l-0.022,-0.073l-0.022,-0.074l-0.023,-0.074l-0.022,-0.074l-0.023,-0.074l-0.023,-0.073l-0.023,-0.074l-0.024,-0.073l-0.023,-0.074l-0.024,-0.073l-0.024,-0.074l-0.024,-0.073l-0.025,-0.073l-0.025,-0.074l-0.025,-0.073l-0.025,-0.073l-0.025,-0.073l-0.026,-0.073l-0.026,-0.072l-0.026,-0.073l-0.026,-0.073l-0.026,-0.072l-0.027,-0.072l-0.027,-0.073l-0.027,-0.072l-0.028,-0.072l-0.027,-0.071l-0.028,-0.072l-0.028,-0.072l-0.028,-0.071l-0.029,-0.071l-0.029,-0.071l-0.029,-0.071l-0.029,-0.071l-0.029,-0.071l-0.03,-0.07l-0.03,-0.071l-0.03,-0.07l-0.03,-0.07l-0.031,-0.069l-0.031,-0.07l-0.031,-0.069l-0.031,-0.069l-0.032,-0.069l-0.031,-0.069l-0.032,-0.069l-0.033,-0.068l-0.032,-0.068l-0.033,-0.068l-0.033,-0.068l-0.033,-0.067l-0.033,-0.067l-0.034,-0.067l-0.034,-0.067l-0.034,-0.067l-0.034,-0.066l-0.035,-0.066l-0.034,-0.066l-0.035,-0.065l-0.036,-0.065l-0.035,-0.065l-0.036,-0.065l-0.036,-0.064l-0.036,-0.064l-0.037,-0.064l-0.036,-0.064l-0.037,-0.063l-0.037,-0.063l-0.038,-0.062l-0.037,-0.063l-0.038,-0.062l-0.038,-0.061l-0.039,-0.062l-0.038,-0.061l-0.039,-0.061l-0.039,-0.06l-0.04,-0.06l-0.039,-0.06l-0.04,-0.059l-0.04,-0.059l-0.04,-0.059l-0.041,-0.058l-0.041,-0.058l-0.041,-0.058l-0.041,-0.057l-0.041,-0.057l-0.047,-0.063l-0.046,-0.063l-0.047,-0.062l-0.048,-0.062l-0.048,-0.062l-0.048,-0.062l-0.048,-0.061l-0.049,-0.062l-0.049,-0.061l-0.049,-0.061l-0.05,-0.06l-0.05,-0.061l-0.05,-0.06l-0.051,-0.06l-0.051,-0.059l-0.051,-0.06l-0.052,-0.059l-0.052,-0.059l-0.052,-0.059l-0.053,-0.058l-0.053,-0.058l-0.053,-0.058l-0.053,-0.058l-0.054,-0.057l-0.054,-0.058l-0.054,-0.057l-0.055,-0.057l-0.055,-0.056l-0.055,-0.056l-0.056,-0.056l-0.056,-0.056l-0.056,-0.056l-0.056,-0.055l-0.057,-0.055l-0.057,-0.055l-0.057,-0.054l-0.058,-0.055l-0.058,-0.054l-0.058,-0.054l-0.058,-0.053l-0.059,-0.053l-0.059,-0.053l-0.059,-0.053l-0.06,-0.053l-0.059,-0.052l-0.061,-0.052l-0.06,-0.052l-0.06,-0.051l-0.061,-0.052l-0.061,-0.051l-0.062,-0.05l-0.061,-0.051l-0.062,-0.05l-0.062,-0.05l-0.063,-0.05l-0.062,-0.049l-0.063,-0.049l-0.063,-0.049l-0.064,-0.049l-0.063,-0.048l-0.064,-0.048l-0.064,-0.048l-0.064,-0.048l-0.065,-0.047l-0.065,-0.047l-0.065,-0.047l-0.065,-0.046l-0.066,-0.047l-0.065,-0.046l-0.066,-0.045l-0.066,-0.046l-0.067,-0.045l-0.067,-0.045l-0.066,-0.044l-0.067,-0.045l-0.068,-0.044l-0.067,-0.044l-0.068,-0.043l-0.068,-0.043l-0.068,-0.043l-0.068,-0.043l-0.069,-0.042l-0.069,-0.042l-0.069,-0.042l-0.069,-0.042l-0.069,-0.041l-0.07,-0.041l-0.069,-0.041l-0.07,-0.04l-0.07,-0.04l-0.071,-0.04l-0.07,-0.04l-0.071,-0.039l-0.071,-0.039l-0.071,-0.039l-0.071,-0.038l-0.072,-0.038l-0.071,-0.038l-0.072,-0.038l-0.072,-0.037l-0.072,-0.037l-0.072,-0.037l-0.073,-0.036l-0.073,-0.036l-0.072,-0.036l-0.073,-0.036l-0.074,-0.035l-0.073,-0.035l-0.073,-0.034l-0.074,-0.035l-0.074,-0.034l-0.074,-0.034l-0.074,-0.033l-0.074,-0.033l-0.074,-0.033l-0.075,-0.033l-0.075,-0.032l-0.074,-0.032l-0.075,-0.032l-0.075,-0.031l-0.076,-0.031l-0.075,-0.031l-0.076,-0.03l-0.075,-0.03l-0.076,-0.03l-0.076,-0.03l-0.076,-0.029l-0.076,-0.029l-0.076,-0.028l-0.077,-0.029l-0.076,-0.028l-0.077,-0.027l-0.077,-0.028l-0.077,-0.027l-0.077,-0.027l-0.077,-0.026l-0.077,-0.026l-0.077,-0.026l-0.078,-0.026l-0.077,-0.025l-0.078,-0.025l-0.078,-0.024l-0.077,-0.024l-0.078,-0.024l-0.078,-0.024l-0.079,-0.023l-0.078,-0.023l-0.078,-0.023l-0.078,-0.022l-0.079,-0.022l-0.079,-0.022l-0.078,-0.021l-0.079,-0.021l-0.079,-0.021l-0.079,-0.021l-0.079,-0.02l-0.079,-0.02l-0.079,-0.019l-0.079,-0.019l-0.079,-0.019l-0.079,-0.018l-0.08,-0.019l-0.079,-0.017l-0.08,-0.018l-0.079,-0.017l-0.08,-0.017l-0.08,-0.016l-0.079,-0.017l-0.08,-0.016l-0.08,-0.015l-0.08,-0.015l-0.08,-0.015l-0.08,-0.015l-0.08,-0.014l-0.08,-0.014l-0.08,-0.013l-0.08,-0.014l-0.081,-0.012l-0.08,-0.013l-0.08,-0.012l-0.08,-0.012l-0.081,-0.012l-0.08,-0.011l-0.08,-0.011l-0.081,-0.01l-0.08,-0.01l-0.081,-0.01l-0.08,-0.01l-0.081,-0.009l-0.08,-0.009l-0.081,-0.008l-0.08,-0.008l-0.081,-0.008l-0.08,-0.008l-0.081,-0.007l-0.08,-0.006l-0.081,-0.007l-0.08,-0.006l-0.081,-0.006l-0.081,-0.005l-0.08,-0.005l-0.081,-0.005l-0.08,-0.004l-0.081,-0.004l-0.08,-0.004l-0.081,-0.003l-0.08,-0.003l-0.081,-0.003l-0.08,-0.002l-0.081,-0.002l-0.08,-0.001l-0.08,-0.002l-0.081,-0.001l-0.08,0l-0.08,0l-0.081,0Z"/><path d="M76.519,72.313c8.693,-1.515 10.757,-5.562 11.257,-7.409c0.944,-3.48 1.401,-10.225 0.553,-13.812c-0.294,-1.245 -0.851,-2.664 -1.798,-3.695c-2.082,-2.266 -11.394,-2.463 -14.875,-1.931c-1.393,0.213 -2.652,0.695 -3.898,1.223c-4.333,1.838 -5.824,23.097 2.401,25.171c2.196,0.553 4.981,0.693 6.36,0.453Z" style="fill:#b7f8ff;"/><circle cx="91.586" cy="34.659" r="0.608" style="fill:#b7f8ff;"/><circle cx="61.406" cy="35.763" r="0.608" style="fill:#b7f8ff;"/><g><path d="M80.436,38.102c-0.275,0.873 -0.44,2.539 -1.006,3.234c-0.274,0.337 -0.83,0.315 -1.192,0.302c-2.081,-0.08 -1.899,-2.205 -2.077,-4.075" style="fill:#ededed;"/><path d="M76.186,37.011l0.03,0.002l0.031,0.004l0.029,0.006l0.03,0.007l0.029,0.009l0.029,0.01l0.028,0.012l0.027,0.014l0.026,0.015l0.026,0.016l0.025,0.018l0.023,0.019l0.023,0.02l0.021,0.022l0.021,0.023l0.018,0.024l0.018,0.024l0.016,0.026l0.015,0.027l0.013,0.027l0.012,0.028l0.01,0.029l0.009,0.029l0.006,0.03l0.006,0.03l0.003,0.03l0.009,0.089l0.008,0.091l0.007,0.091l0.007,0.091l0.007,0.09l0.006,0.091l0.012,0.179l0.013,0.177l0.012,0.176l0.006,0.087l0.007,0.086l0.007,0.085l0.007,0.084l0.007,0.084l0.008,0.082l0.009,0.082l0.004,0.04l0.005,0.04l0.004,0.04l0.005,0.039l0.005,0.039l0.005,0.039l0.006,0.039l0.005,0.038l0.006,0.038l0.006,0.037l0.006,0.037l0.006,0.037l0.006,0.036l0.007,0.036l0.007,0.036l0.007,0.035l0.007,0.035l0.008,0.034l0.007,0.034l0.008,0.033l0.008,0.033l0.008,0.033l0.009,0.032l0.009,0.032l0.009,0.031l0.009,0.03l0.009,0.03l0.01,0.03l0.01,0.029l0.01,0.029l0.01,0.028l0.01,0.027l0.011,0.027l0.011,0.027l0.011,0.025l0.012,0.026l0.011,0.025l0.012,0.024l0.012,0.023l0.012,0.024l0.013,0.022l0.012,0.022l0.013,0.022l0.013,0.021l0.013,0.02l0.013,0.02l0.014,0.019l0.014,0.019l0.014,0.018l0.015,0.019l0.006,0.008l0.008,0.009l0.007,0.008l0.007,0.009l0.008,0.008l0.007,0.008l0.008,0.008l0.007,0.008l0.008,0.008l0.008,0.008l0.008,0.007l0.007,0.008l0.008,0.007l0.008,0.008l0.008,0.007l0.009,0.007l0.008,0.007l0.008,0.007l0.009,0.007l0.008,0.007l0.009,0.006l0.009,0.007l0.008,0.006l0.009,0.007l0.01,0.006l0.009,0.006l0.009,0.006l0.009,0.007l0.01,0.006l0.009,0.006l0.01,0.005l0.01,0.006l0.01,0.006l0.01,0.006l0.011,0.005l0.01,0.006l0.011,0.005l0.01,0.005l0.011,0.006l0.011,0.005l0.011,0.005l0.012,0.005l0.011,0.005l0.012,0.005l0.012,0.004l0.012,0.005l0.012,0.005l0.013,0.004l0.013,0.005l0.012,0.004l0.014,0.004l0.013,0.005l0.013,0.004l0.014,0.004l0.014,0.003l0.014,0.004l0.014,0.004l0.015,0.004l0.014,0.003l0.015,0.003l0.016,0.004l0.015,0.003l0.016,0.003l0.015,0.003l0.017,0.003l0.016,0.002l0.017,0.003l0.016,0.002l0.018,0.003l0.017,0.002l0.017,0.002l0.018,0.002l0.018,0.002l0.019,0.002l0.018,0.001l0.019,0.002l0.019,0.001l0.019,0.001l0.02,0.001l0.021,0.001l0.067,0.002l0.034,0.002l0.034,0l0.035,0.001l0.034,0.001l0.034,0l0.033,0l0.034,-0.001l0.033,-0.001l0.033,-0.002l0.015,-0.001l0.016,-0.001l0.015,-0.001l0.016,-0.001l0.015,-0.002l0.015,-0.001l0.014,-0.002l0.015,-0.002l0.014,-0.002l0.013,-0.002l0.014,-0.002l0.013,-0.002l0.012,-0.003l0.013,-0.002l0.012,-0.003l0.011,-0.003l0.011,-0.003l0.011,-0.003l0.01,-0.003l0.01,-0.003l0.009,-0.003l0.009,-0.003l0.008,-0.003l0.008,-0.003l0.008,-0.004l0.006,-0.003l0.007,-0.003l0.006,-0.003l0.005,-0.003l0.005,-0.003l0.005,-0.003l0.004,-0.002l0.004,-0.003l0.003,-0.002l0.003,-0.003l0.003,-0.002l0.003,-0.002l0.002,-0.002l0.002,-0.002l0.002,-0.002l0.002,-0.002l0.003,-0.004l0.007,-0.008l0.007,-0.01l0.008,-0.011l0.008,-0.011l0.008,-0.012l0.009,-0.012l0.008,-0.012l0.008,-0.013l0.009,-0.013l0.008,-0.014l0.009,-0.014l0.008,-0.015l0.009,-0.015l0.008,-0.016l0.009,-0.015l0.008,-0.017l0.009,-0.017l0.009,-0.017l0.008,-0.017l0.009,-0.018l0.008,-0.018l0.009,-0.019l0.008,-0.019l0.009,-0.019l0.008,-0.02l0.009,-0.02l0.008,-0.02l0.008,-0.02l0.017,-0.043l0.016,-0.043l0.017,-0.045l0.016,-0.045l0.016,-0.047l0.015,-0.047l0.016,-0.049l0.015,-0.049l0.015,-0.05l0.015,-0.051l0.014,-0.052l0.015,-0.052l0.014,-0.053l0.014,-0.053l0.014,-0.054l0.013,-0.054l0.014,-0.055l0.013,-0.055l0.013,-0.055l0.013,-0.056l0.013,-0.056l0.013,-0.056l0.025,-0.113l0.024,-0.113l0.025,-0.113l0.024,-0.112l0.024,-0.112l0.024,-0.111l0.024,-0.11l0.024,-0.107l0.012,-0.054l0.013,-0.053l0.012,-0.053l0.013,-0.052l0.013,-0.051l0.013,-0.051l0.013,-0.05l0.013,-0.05l0.014,-0.049l0.014,-0.049l0.014,-0.048l0.014,-0.044l0.01,-0.029l0.011,-0.028l0.013,-0.028l0.014,-0.027l0.016,-0.026l0.017,-0.025l0.019,-0.024l0.02,-0.023l0.021,-0.022l0.022,-0.02l0.024,-0.02l0.024,-0.018l0.026,-0.016l0.026,-0.016l0.027,-0.014l0.028,-0.012l0.028,-0.011l0.029,-0.009l0.03,-0.007l0.03,-0.006l0.03,-0.005l0.03,-0.002l0.03,-0.001l0.031,0.001l0.03,0.002l0.03,0.004l0.03,0.006l0.03,0.007l0.029,0.009l0.028,0.011l0.028,0.012l0.027,0.013l0.027,0.016l0.025,0.016l0.025,0.018l0.023,0.019l0.023,0.021l0.021,0.022l0.02,0.023l0.019,0.023l0.017,0.025l0.016,0.026l0.015,0.027l0.013,0.027l0.012,0.029l0.01,0.028l0.008,0.03l0.007,0.029l0.005,0.03l0.003,0.03l0.002,0.031l0,0.03l-0.001,0.031l-0.004,0.03l-0.005,0.03l-0.006,0.03l-0.008,0.029l-0.012,0.039l-0.011,0.037l-0.012,0.039l-0.011,0.04l-0.011,0.042l-0.011,0.043l-0.011,0.044l-0.012,0.045l-0.011,0.047l-0.011,0.048l-0.012,0.049l-0.011,0.049l-0.023,0.103l-0.023,0.105l-0.024,0.109l-0.024,0.11l-0.024,0.114l-0.025,0.114l-0.025,0.117l-0.026,0.117l-0.014,0.06l-0.013,0.059l-0.014,0.059l-0.014,0.06l-0.015,0.059l-0.014,0.06l-0.015,0.06l-0.016,0.059l-0.015,0.06l-0.016,0.059l-0.016,0.059l-0.017,0.059l-0.017,0.059l-0.018,0.059l-0.018,0.058l-0.018,0.058l-0.019,0.058l-0.02,0.058l-0.02,0.057l-0.02,0.056l-0.022,0.056l-0.021,0.055l-0.012,0.029l-0.011,0.027l-0.012,0.028l-0.011,0.027l-0.012,0.027l-0.013,0.028l-0.012,0.026l-0.012,0.027l-0.013,0.027l-0.013,0.026l-0.014,0.027l-0.013,0.026l-0.014,0.026l-0.014,0.026l-0.014,0.026l-0.014,0.025l-0.015,0.026l-0.015,0.025l-0.016,0.025l-0.015,0.025l-0.016,0.025l-0.017,0.024l-0.017,0.025l-0.017,0.024l-0.017,0.024l-0.018,0.023l-0.018,0.024l-0.02,0.025l-0.023,0.027l-0.025,0.028l-0.026,0.027l-0.026,0.026l-0.027,0.025l-0.028,0.024l-0.028,0.023l-0.028,0.022l-0.028,0.02l-0.029,0.02l-0.029,0.019l-0.029,0.018l-0.03,0.017l-0.029,0.016l-0.029,0.015l-0.03,0.014l-0.029,0.013l-0.03,0.013l-0.029,0.012l-0.029,0.011l-0.03,0.01l-0.029,0.01l-0.029,0.009l-0.029,0.009l-0.028,0.008l-0.029,0.007l-0.028,0.007l-0.029,0.006l-0.028,0.006l-0.028,0.006l-0.027,0.005l-0.028,0.004l-0.027,0.005l-0.027,0.003l-0.027,0.004l-0.027,0.003l-0.026,0.003l-0.027,0.002l-0.026,0.003l-0.025,0.002l-0.026,0.001l-0.026,0.002l-0.049,0.002l-0.048,0.002l-0.048,0.001l-0.046,0l-0.045,0l-0.044,-0.001l-0.042,-0.001l-0.04,-0.001l-0.04,-0.001l-0.072,-0.003l-0.028,-0.001l-0.029,-0.001l-0.028,-0.002l-0.028,-0.002l-0.028,-0.002l-0.028,-0.003l-0.028,-0.002l-0.028,-0.003l-0.027,-0.003l-0.028,-0.003l-0.027,-0.004l-0.027,-0.003l-0.027,-0.004l-0.027,-0.005l-0.026,-0.004l-0.027,-0.005l-0.026,-0.004l-0.026,-0.006l-0.026,-0.005l-0.026,-0.005l-0.026,-0.006l-0.025,-0.006l-0.025,-0.007l-0.026,-0.006l-0.025,-0.007l-0.025,-0.007l-0.024,-0.007l-0.025,-0.008l-0.025,-0.007l-0.024,-0.008l-0.024,-0.008l-0.024,-0.009l-0.024,-0.008l-0.023,-0.009l-0.024,-0.009l-0.023,-0.01l-0.024,-0.009l-0.023,-0.01l-0.022,-0.01l-0.023,-0.01l-0.022,-0.011l-0.023,-0.011l-0.022,-0.011l-0.022,-0.011l-0.021,-0.011l-0.022,-0.012l-0.021,-0.012l-0.021,-0.012l-0.022,-0.012l-0.02,-0.013l-0.021,-0.012l-0.02,-0.013l-0.021,-0.014l-0.02,-0.013l-0.02,-0.014l-0.019,-0.013l-0.019,-0.014l-0.02,-0.014l-0.019,-0.015l-0.019,-0.014l-0.018,-0.015l-0.019,-0.015l-0.018,-0.015l-0.018,-0.015l-0.017,-0.016l-0.018,-0.016l-0.017,-0.015l-0.017,-0.016l-0.017,-0.016l-0.017,-0.017l-0.016,-0.016l-0.017,-0.017l-0.016,-0.016l-0.016,-0.017l-0.015,-0.017l-0.016,-0.018l-0.015,-0.017l-0.015,-0.017l-0.015,-0.018l-0.015,-0.019l-0.028,-0.034l-0.027,-0.037l-0.027,-0.036l-0.026,-0.037l-0.025,-0.038l-0.025,-0.037l-0.024,-0.039l-0.023,-0.038l-0.022,-0.039l-0.021,-0.039l-0.021,-0.04l-0.02,-0.04l-0.02,-0.04l-0.018,-0.04l-0.019,-0.04l-0.017,-0.041l-0.017,-0.041l-0.016,-0.041l-0.016,-0.041l-0.015,-0.042l-0.015,-0.042l-0.014,-0.041l-0.014,-0.043l-0.013,-0.042l-0.013,-0.042l-0.012,-0.043l-0.012,-0.042l-0.011,-0.043l-0.011,-0.043l-0.011,-0.043l-0.01,-0.043l-0.01,-0.044l-0.009,-0.043l-0.009,-0.044l-0.009,-0.043l-0.008,-0.044l-0.008,-0.044l-0.008,-0.044l-0.007,-0.044l-0.008,-0.044l-0.007,-0.044l-0.006,-0.045l-0.007,-0.044l-0.006,-0.044l-0.006,-0.045l-0.005,-0.045l-0.006,-0.044l-0.005,-0.045l-0.005,-0.044l-0.005,-0.046l-0.009,-0.089l-0.009,-0.09l-0.008,-0.09l-0.008,-0.089l-0.007,-0.09l-0.007,-0.09l-0.006,-0.09l-0.013,-0.179l-0.012,-0.178l-0.012,-0.177l-0.007,-0.087l-0.006,-0.087l-0.007,-0.087l-0.007,-0.086l-0.007,-0.085l-0.008,-0.087l-0.002,-0.03l0,-0.031l0.001,-0.03l0.003,-0.03l0.005,-0.03l0.006,-0.03l0.008,-0.029l0.01,-0.029l0.011,-0.029l0.013,-0.027l0.014,-0.027l0.016,-0.026l0.017,-0.025l0.018,-0.024l0.02,-0.024l0.021,-0.022l0.022,-0.02l0.024,-0.02l0.024,-0.018l0.025,-0.017l0.026,-0.015l0.027,-0.014l0.028,-0.013l0.029,-0.011l0.029,-0.009l0.029,-0.008l0.03,-0.006l0.03,-0.005l0.03,-0.002l0.031,-0.001l0.03,0Z"/><path d="M78.188,31.621c-1.684,0.104 -2.998,1.057 -2.932,2.128c0.066,1.07 1.487,1.855 3.171,1.752c1.684,-0.104 2.998,-1.057 2.932,-2.128c-0.066,-1.07 -1.487,-1.855 -3.171,-1.752Z"/><path d="M78.512,34.366l0.024,0.002l0.025,0.002l0.024,0.004l0.024,0.005l0.023,0.006l0.024,0.007l0.023,0.008l0.023,0.009l0.022,0.01l0.022,0.011l0.021,0.012l0.021,0.013l0.02,0.014l0.019,0.014l0.019,0.016l0.018,0.016l0.018,0.017l0.016,0.018l0.016,0.019l0.015,0.019l0.014,0.02l0.014,0.021l0.012,0.021l0.011,0.021l0.011,0.022l0.009,0.023l0.008,0.023l0.008,0.023l0.006,0.024l0.005,0.024l0.005,0.024l0.003,0.024l0.002,0.024l0.001,0.025l0.001,0.042l0.001,0.04l0.001,0.041l0.001,0.041l0.002,0.041l0.001,0.04l0.004,0.082l0.005,0.082l0.005,0.082l0.006,0.082l0.006,0.082l0.007,0.082l0.007,0.082l0.008,0.083l0.008,0.083l0.008,0.083l0.009,0.083l0.009,0.083l0.009,0.084l0.018,0.168l0.02,0.169l0.019,0.171l0.019,0.171l0.009,0.087l0.009,0.086l0.009,0.087l0.009,0.088l0.008,0.088l0.008,0.088l0.007,0.089l0.007,0.087l0.002,0.024l0,0.025l-0.001,0.024l-0.002,0.025l-0.003,0.024l-0.004,0.024l-0.005,0.024l-0.006,0.023l-0.007,0.024l-0.008,0.023l-0.009,0.022l-0.011,0.023l-0.011,0.021l-0.012,0.022l-0.013,0.02l-0.014,0.02l-0.015,0.02l-0.015,0.018l-0.017,0.019l-0.017,0.017l-0.018,0.016l-0.019,0.016l-0.019,0.015l-0.02,0.014l-0.021,0.013l-0.021,0.012l-0.022,0.011l-0.022,0.011l-0.023,0.009l-0.023,0.008l-0.023,0.007l-0.023,0.006l-0.024,0.005l-0.024,0.005l-0.025,0.003l-0.024,0.001l-0.024,0.001l-0.025,0l-0.024,-0.001l-0.025,-0.003l-0.024,-0.003l-0.024,-0.005l-0.024,-0.005l-0.023,-0.007l-0.023,-0.008l-0.023,-0.008l-0.022,-0.01l-0.022,-0.011l-0.022,-0.011l-0.021,-0.013l-0.02,-0.013l-0.02,-0.015l-0.019,-0.015l-0.018,-0.016l-0.018,-0.017l-0.017,-0.018l-0.016,-0.018l-0.015,-0.019l-0.015,-0.02l-0.013,-0.02l-0.013,-0.021l-0.012,-0.022l-0.01,-0.021l-0.01,-0.023l-0.009,-0.023l-0.008,-0.023l-0.006,-0.023l-0.006,-0.024l-0.004,-0.024l-0.004,-0.024l-0.002,-0.025l-0.007,-0.084l-0.007,-0.083l-0.007,-0.083l-0.008,-0.083l-0.008,-0.083l-0.009,-0.083l-0.009,-0.084l-0.009,-0.083l-0.018,-0.168l-0.019,-0.169l-0.02,-0.17l-0.019,-0.171l-0.009,-0.086l-0.009,-0.086l-0.009,-0.087l-0.009,-0.087l-0.009,-0.087l-0.008,-0.088l-0.007,-0.088l-0.008,-0.088l-0.006,-0.089l-0.007,-0.089l-0.005,-0.09l-0.005,-0.09l-0.005,-0.09l-0.001,-0.046l-0.002,-0.045l-0.002,-0.046l-0.001,-0.046l-0.001,-0.045l-0.001,-0.045l0,-0.024l0.001,-0.025l0.002,-0.024l0.004,-0.024l0.004,-0.024l0.006,-0.024l0.006,-0.024l0.008,-0.023l0.008,-0.023l0.01,-0.022l0.01,-0.022l0.012,-0.022l0.012,-0.021l0.013,-0.02l0.015,-0.02l0.015,-0.02l0.016,-0.018l0.016,-0.018l0.018,-0.017l0.018,-0.016l0.019,-0.016l0.02,-0.014l0.02,-0.014l0.021,-0.013l0.021,-0.011l0.022,-0.011l0.022,-0.01l0.023,-0.009l0.023,-0.008l0.024,-0.007l0.023,-0.006l0.024,-0.004l0.024,-0.004l0.025,-0.003l0.024,-0.001l0.025,-0.001l0.024,0.001Z"/><path d="M73.859,35.203l0.043,0.006l0.043,0.009l0.041,0.013l0.041,0.015l0.039,0.019l0.037,0.022l0.036,0.024l0.034,0.027l0.031,0.03l0.06,0.062l0.058,0.058l0.058,0.058l0.058,0.058l0.059,0.056l0.058,0.055l0.059,0.055l0.058,0.054l0.059,0.053l0.059,0.052l0.059,0.052l0.029,0.025l0.029,0.025l0.03,0.025l0.029,0.024l0.03,0.025l0.029,0.024l0.03,0.024l0.03,0.024l0.029,0.024l0.03,0.023l0.029,0.024l0.03,0.023l0.03,0.023l0.029,0.022l0.03,0.023l0.03,0.022l0.029,0.022l0.03,0.022l0.03,0.021l0.03,0.022l0.029,0.021l0.03,0.021l0.03,0.021l0.03,0.021l0.03,0.02l0.03,0.02l0.029,0.02l0.03,0.02l0.03,0.02l0.03,0.019l0.03,0.019l0.03,0.019l0.03,0.019l0.03,0.018l0.03,0.019l0.03,0.018l0.03,0.018l0.03,0.018l0.03,0.017l0.031,0.018l0.03,0.017l0.03,0.017l0.03,0.017l0.03,0.016l0.03,0.017l0.03,0.016l0.03,0.016l0.031,0.015l0.03,0.016l0.03,0.015l0.03,0.016l0.031,0.015l0.03,0.014l0.03,0.015l0.031,0.014l0.03,0.014l0.03,0.014l0.031,0.014l0.03,0.014l0.031,0.013l0.03,0.013l0.03,0.013l0.031,0.013l0.03,0.013l0.031,0.012l0.03,0.013l0.031,0.012l0.03,0.011l0.031,0.012l0.031,0.012l0.03,0.011l0.031,0.011l0.03,0.011l0.031,0.011l0.031,0.01l0.03,0.01l0.031,0.01l0.031,0.01l0.031,0.01l0.03,0.01l0.031,0.009l0.031,0.009l0.031,0.009l0.031,0.009l0.031,0.008l0.03,0.009l0.031,0.008l0.031,0.008l0.031,0.008l0.031,0.007l0.031,0.008l0.031,0.007l0.031,0.007l0.031,0.007l0.031,0.007l0.031,0.006l0.032,0.007l0.031,0.006l0.031,0.006l0.031,0.005l0.031,0.006l0.032,0.005l0.031,0.005l0.031,0.005l0.032,0.005l0.031,0.005l0.031,0.004l0.032,0.004l0.031,0.004l0.032,0.004l0.031,0.004l0.032,0.003l0.031,0.004l0.032,0.003l0.031,0.003l0.032,0.003l0.032,0.002l0.032,0.002l0.031,0.003l0.032,0.002l0.032,0.001l0.032,0.002l0.032,0.001l0.031,0.002l0.032,0.001l0.032,0l0.032,0.001l0.032,0.001l0.032,0l0.032,0l0.033,0l0.032,0l0.032,-0.001l0.032,-0.001l0.032,0l0.033,-0.002l0.032,-0.001l0.032,-0.001l0.033,-0.002l0.032,-0.002l0.033,-0.002l0.032,-0.002l0.033,-0.002l0.032,-0.003l0.033,-0.002l0.033,-0.003l0.032,-0.004l0.033,-0.003l0.033,-0.003l0.033,-0.004l0.032,-0.004l0.033,-0.004l0.033,-0.004l0.033,-0.005l0.033,-0.005l0.033,-0.004l0.033,-0.006l0.033,-0.005l0.034,-0.005l0.033,-0.006l0.033,-0.006l0.033,-0.006l0.034,-0.006l0.033,-0.006l0.033,-0.007l0.034,-0.007l0.033,-0.007l0.034,-0.007l0.033,-0.007l0.034,-0.008l0.034,-0.008l0.033,-0.008l0.034,-0.008l0.034,-0.008l0.034,-0.009l0.033,-0.008l0.034,-0.009l0.034,-0.01l0.034,-0.009l0.034,-0.009l0.034,-0.01l0.034,-0.01l0.035,-0.01l0.034,-0.011l0.034,-0.01l0.034,-0.011l0.034,-0.011l0.035,-0.011l0.034,-0.011l0.035,-0.012l0.034,-0.012l0.035,-0.011l0.034,-0.013l0.035,-0.012l0.034,-0.012l0.035,-0.013l0.035,-0.013l0.034,-0.013l0.035,-0.014l0.035,-0.013l0.035,-0.014l0.035,-0.014l0.035,-0.014l0.035,-0.014l0.035,-0.015l0.035,-0.015l0.035,-0.014l0.035,-0.016l0.035,-0.015l0.035,-0.015l0.071,-0.032l0.071,-0.033l0.071,-0.033l0.071,-0.034l0.071,-0.035l0.072,-0.036l0.071,-0.037l0.072,-0.037l0.072,-0.039l0.072,-0.039l0.072,-0.039l0.074,-0.042l0.039,-0.02l0.04,-0.017l0.041,-0.013l0.042,-0.01l0.043,-0.007l0.043,-0.004l0.043,0l0.043,0.003l0.043,0.007l0.042,0.01l0.042,0.013l0.04,0.017l0.039,0.019l0.037,0.023l0.035,0.025l0.033,0.028l0.03,0.031l0.029,0.033l0.025,0.035l0.023,0.037l0.02,0.038l0.016,0.04l0.014,0.041l0.01,0.043l0.007,0.042l0.004,0.044l0,0.043l-0.004,0.043l-0.006,0.043l-0.01,0.042l-0.014,0.041l-0.016,0.04l-0.02,0.039l-0.022,0.037l-0.025,0.035l-0.029,0.033l-0.03,0.031l-0.033,0.028l-0.035,0.026l-0.037,0.023l-0.078,0.044l-0.08,0.044l-0.079,0.043l-0.08,0.042l-0.08,0.042l-0.079,0.041l-0.08,0.04l-0.079,0.039l-0.08,0.038l-0.079,0.037l-0.08,0.037l-0.079,0.035l-0.04,0.018l-0.04,0.017l-0.039,0.017l-0.04,0.017l-0.04,0.017l-0.039,0.016l-0.04,0.017l-0.039,0.016l-0.04,0.016l-0.04,0.015l-0.039,0.016l-0.04,0.015l-0.039,0.015l-0.04,0.014l-0.04,0.015l-0.039,0.014l-0.04,0.014l-0.039,0.014l-0.04,0.014l-0.039,0.013l-0.04,0.014l-0.039,0.013l-0.04,0.012l-0.039,0.013l-0.04,0.012l-0.039,0.012l-0.04,0.012l-0.039,0.012l-0.039,0.012l-0.04,0.011l-0.039,0.011l-0.04,0.011l-0.039,0.01l-0.039,0.011l-0.04,0.01l-0.039,0.01l-0.039,0.01l-0.04,0.009l-0.039,0.009l-0.039,0.01l-0.04,0.008l-0.039,0.009l-0.039,0.008l-0.039,0.009l-0.039,0.008l-0.04,0.007l-0.039,0.008l-0.039,0.007l-0.039,0.007l-0.039,0.007l-0.04,0.007l-0.039,0.006l-0.039,0.006l-0.039,0.006l-0.039,0.006l-0.039,0.006l-0.039,0.005l-0.039,0.005l-0.039,0.005l-0.039,0.005l-0.039,0.004l-0.039,0.004l-0.039,0.004l-0.039,0.004l-0.039,0.003l-0.039,0.004l-0.039,0.003l-0.039,0.003l-0.038,0.002l-0.039,0.003l-0.039,0.002l-0.039,0.002l-0.039,0.001l-0.038,0.002l-0.039,0.001l-0.039,0.001l-0.038,0.001l-0.039,0.001l-0.039,0l-0.038,0l-0.039,0l-0.038,0l-0.039,-0.001l-0.039,-0.001l-0.038,-0.001l-0.039,-0.001l-0.038,-0.001l-0.038,-0.002l-0.039,-0.002l-0.038,-0.002l-0.038,-0.003l-0.039,-0.002l-0.038,-0.003l-0.038,-0.003l-0.039,-0.003l-0.038,-0.004l-0.038,-0.004l-0.038,-0.004l-0.038,-0.004l-0.038,-0.004l-0.038,-0.005l-0.038,-0.005l-0.038,-0.005l-0.038,-0.005l-0.038,-0.006l-0.038,-0.006l-0.038,-0.006l-0.038,-0.006l-0.037,-0.006l-0.038,-0.007l-0.038,-0.007l-0.038,-0.007l-0.037,-0.008l-0.038,-0.007l-0.037,-0.008l-0.038,-0.008l-0.037,-0.008l-0.038,-0.009l-0.037,-0.009l-0.038,-0.009l-0.037,-0.009l-0.037,-0.009l-0.038,-0.01l-0.037,-0.01l-0.037,-0.01l-0.037,-0.01l-0.037,-0.011l-0.037,-0.011l-0.037,-0.011l-0.037,-0.011l-0.037,-0.011l-0.037,-0.012l-0.037,-0.012l-0.037,-0.012l-0.037,-0.012l-0.036,-0.013l-0.037,-0.013l-0.037,-0.013l-0.036,-0.013l-0.037,-0.013l-0.036,-0.014l-0.037,-0.014l-0.036,-0.014l-0.037,-0.014l-0.036,-0.015l-0.036,-0.015l-0.037,-0.015l-0.036,-0.015l-0.036,-0.016l-0.036,-0.015l-0.036,-0.016l-0.036,-0.016l-0.036,-0.017l-0.036,-0.016l-0.036,-0.017l-0.036,-0.017l-0.035,-0.017l-0.036,-0.018l-0.036,-0.017l-0.035,-0.018l-0.036,-0.018l-0.035,-0.018l-0.036,-0.019l-0.036,-0.019l-0.035,-0.019l-0.035,-0.019l-0.035,-0.019l-0.036,-0.02l-0.035,-0.02l-0.035,-0.02l-0.035,-0.02l-0.035,-0.02l-0.035,-0.021l-0.035,-0.021l-0.035,-0.021l-0.035,-0.021l-0.034,-0.022l-0.035,-0.022l-0.035,-0.022l-0.035,-0.022l-0.034,-0.022l-0.035,-0.023l-0.034,-0.023l-0.035,-0.023l-0.034,-0.023l-0.034,-0.023l-0.035,-0.024l-0.034,-0.024l-0.034,-0.024l-0.034,-0.024l-0.034,-0.025l-0.034,-0.025l-0.034,-0.024l-0.034,-0.026l-0.034,-0.025l-0.034,-0.026l-0.033,-0.025l-0.034,-0.026l-0.034,-0.026l-0.033,-0.027l-0.034,-0.027l-0.033,-0.026l-0.034,-0.027l-0.033,-0.028l-0.034,-0.027l-0.033,-0.028l-0.033,-0.028l-0.033,-0.028l-0.034,-0.028l-0.033,-0.029l-0.066,-0.057l-0.066,-0.058l-0.065,-0.06l-0.066,-0.06l-0.065,-0.061l-0.065,-0.061l-0.065,-0.063l-0.064,-0.063l-0.065,-0.065l-0.064,-0.065l-0.063,-0.064l-0.029,-0.032l-0.026,-0.035l-0.024,-0.036l-0.02,-0.038l-0.018,-0.04l-0.014,-0.041l-0.011,-0.041l-0.008,-0.043l-0.005,-0.043l-0.001,-0.044l0.003,-0.043l0.005,-0.043l0.009,-0.042l0.013,-0.042l0.015,-0.04l0.019,-0.039l0.022,-0.038l0.024,-0.036l0.027,-0.033l0.03,-0.032l0.033,-0.029l0.034,-0.026l0.036,-0.024l0.038,-0.02l0.04,-0.018l0.041,-0.014l0.042,-0.011l0.042,-0.008l0.044,-0.005l0.043,-0.001l0.043,0.002Z"/><path d="M84.525,17.361c-0.641,-0.195 -1.244,-0.083 -1.344,0.25c-0.101,0.333 0.338,0.76 0.979,0.955c0.642,0.194 1.244,0.082 1.345,-0.251c0.101,-0.332 -0.338,-0.76 -0.98,-0.954Z" style="fill:#b7f8ff;"/><path d="M61.127,20.201c-0.431,0.514 -0.565,1.112 -0.298,1.335c0.266,0.224 0.832,-0.012 1.263,-0.525c0.431,-0.513 0.564,-1.111 0.298,-1.335c-0.266,-0.223 -0.832,0.012 -1.263,0.525Z" style="fill:#b7f8ff;"/><path d="M88.865,19.587c-3.416,-0.486 -6.586,1.893 -7.072,5.31c-0.487,3.417 1.892,6.586 5.309,7.072c3.417,0.487 6.586,-1.892 7.073,-5.309c0.487,-3.417 -1.893,-6.586 -5.31,-7.073Z" style="fill:#fff;stroke:#000;stroke-width:1.1px;"/><path d="M66.825,21.419c-3.417,-0.487 -6.586,1.892 -7.073,5.309c-0.487,3.417 1.892,6.586 5.309,7.073c3.417,0.486 6.587,-1.893 7.073,-5.31c0.487,-3.417 -1.892,-6.586 -5.309,-7.072Z" style="fill:#fff;stroke:#000;stroke-width:1.1px;"/><path d="M87.561,24.894c-1.213,-0.173 -2.339,0.672 -2.512,1.886c-0.173,1.214 0.672,2.339 1.886,2.512c1.214,0.173 2.339,-0.672 2.512,-1.886c0.173,-1.213 -0.672,-2.339 -1.886,-2.512Z"/><path d="M65.826,26.458c-1.213,-0.173 -2.339,0.672 -2.512,1.886c-0.173,1.214 0.672,2.339 1.886,2.512c1.214,0.173 2.339,-0.672 2.512,-1.886c0.173,-1.213 -0.672,-2.339 -1.886,-2.512Z"/><path d="M87.746,25.82c-0.341,-0.049 -0.657,0.189 -0.706,0.529c-0.048,0.341 0.189,0.657 0.53,0.706c0.34,0.048 0.657,-0.189 0.705,-0.53c0.049,-0.341 -0.189,-0.657 -0.529,-0.705Z" style="fill:#fff;"/><path d="M66.01,27.384c-0.34,-0.049 -0.656,0.189 -0.705,0.529c-0.048,0.341 0.189,0.657 0.53,0.706c0.34,0.048 0.656,-0.189 0.705,-0.53c0.048,-0.341 -0.189,-0.657 -0.53,-0.705Z" style="fill:#fff;"/></g><path d="M49.963,41.328c0,0 1.489,5.276 4.653,6.235c3.164,0.959 4.603,-1.513 2.641,-3.102c-1.962,-1.588 -3.668,-3.251 -3.762,-5.276c-0.093,-2.024 -4.503,-1.177 -3.532,2.143Z" style="fill:#d6c295;stroke:#000;stroke-width:1.1px;"/></g><path d="M51.349,90.348c-6.616,-9.985 -10.94,-34.675 -10.94,-36.474l0,-0.039l68.19,0l0,0.039c0.605,0.491 -3.874,25.863 -9.823,37.026c-4.226,7.585 -13.51,12.856 -24.272,12.856c-10.494,0 -18.879,-6.956 -23.155,-13.408Z" style="fill:#f2af0d;"/><clipPath id="_clip3"><path d="M51.349,90.348c-6.616,-9.985 -10.94,-34.675 -10.94,-36.474l0,-0.039l68.19,0l0,0.039c0.605,0.491 -3.874,25.863 -9.823,37.026c-4.226,7.585 -13.51,12.856 -24.272,12.856c-10.494,0 -18.879,-6.956 -23.155,-13.408Z"/></clipPath><g clip-path="url(#_clip3)"><path d="M103.979,80.842c0,0 -12.911,17.693 -23.909,17.761c-10.999,0.069 -17.693,-5.601 -20.767,-9.973c-3.074,-4.372 -8.334,-15.78 -9.769,-34.498c-0.919,-11.99 -12.159,-2.595 -12.159,-2.595c0,0 3.893,40.918 4.303,41.465c0.41,0.546 32.105,13.24 32.105,13.24l25.482,-7.024l4.714,-18.376Z" style="fill:#ec9307;"/></g><path d="M51.349,90.348c-6.616,-9.985 -10.94,-34.675 -10.94,-36.474l0,-0.039l68.19,0l0,0.039c0.605,0.491 -3.874,25.863 -9.823,37.026c-4.226,7.585 -13.51,12.856 -24.272,12.856c-10.494,0 -18.879,-6.956 -23.155,-13.408Z" style="fill:none;stroke:#000;stroke-width:1.47px;"/><path d="M96.925,128.591c0,-1.894 -1.539,-3.433 -3.433,-3.433l-37.886,0c-1.894,0 -3.432,1.539 -3.432,3.433l0,6.866c0,1.895 1.538,3.433 3.432,3.433l37.886,0c1.894,0 3.433,-1.538 3.433,-3.433l0,-6.866Z" style="fill:#f2af0d;"/><clipPath id="_clip4"><path d="M96.925,128.591c0,-1.894 -1.539,-3.433 -3.433,-3.433l-37.886,0c-1.894,0 -3.432,1.539 -3.432,3.433l0,6.866c0,1.895 1.538,3.433 3.432,3.433l37.886,0c1.894,0 3.433,-1.538 3.433,-3.433l0,-6.866Z"/></clipPath><g clip-path="url(#_clip4)"><path d="M70.83,138.89c6.978,7.902 -16.01,7.561 -22.948,1.05c-6.938,-6.511 -6.404,-18.572 7.258,-18.999c13.662,-0.427 19.426,0.427 19.319,0.534c-0.106,0.106 -13.982,5.691 -3.629,17.415Z" style="fill:#ec9307;"/></g><path d="M96.925,128.591c0,-1.894 -1.539,-3.433 -3.433,-3.433l-37.886,0c-1.894,0 -3.432,1.539 -3.432,3.433l0,6.866c0,1.895 1.538,3.433 3.432,3.433l37.886,0c1.894,0 3.433,-1.538 3.433,-3.433l0,-6.866Z" style="fill:none;stroke:#000;stroke-width:1.47px;"/><path d="M41.369,61.019l-14.209,0c0,0 2.392,28.97 25.007,30.772" style="fill:none;stroke:#000;stroke-width:1.84px;"/><path d="M108.344,61.019l14.209,0c0,0 -1.359,28.888 -23.974,30.69" style="fill:none;stroke:#000;stroke-width:1.84px;"/><path d="M75.873,63.278c0.047,-0.153 0.188,-0.258 0.349,-0.258c0.16,0 0.302,0.105 0.348,0.258l3.303,10.946c0.065,0.213 0.181,0.407 0.338,0.564c0.157,0.157 0.351,0.273 0.564,0.337l10.945,3.303c0.154,0.047 0.259,0.188 0.259,0.349c0,0.161 -0.105,0.302 -0.259,0.349l-10.945,3.303c-0.213,0.064 -0.407,0.18 -0.564,0.337c-0.157,0.157 -0.273,0.351 -0.338,0.564l-3.303,10.946c-0.046,0.153 -0.188,0.259 -0.348,0.259c-0.161,0 -0.302,-0.106 -0.349,-0.259l-3.303,-10.946c-0.064,-0.213 -0.18,-0.407 -0.337,-0.564c-0.158,-0.157 -0.351,-0.273 -0.564,-0.337l-10.946,-3.303c-0.154,-0.047 -0.259,-0.188 -0.259,-0.349c0,-0.161 0.105,-0.302 0.259,-0.349l10.946,-3.303c0.213,-0.064 0.406,-0.18 0.564,-0.337c0.157,-0.157 0.273,-0.351 0.337,-0.564l3.303,-10.946Z" style="fill:#ffda81;"/><path d="M89.399,57.922c0.022,-0.073 0.089,-0.123 0.165,-0.123c0.076,0 0.143,0.05 0.164,0.123l1.559,5.164c0.03,0.101 0.085,0.192 0.159,0.266c0.074,0.075 0.166,0.129 0.266,0.16l5.165,1.558c0.073,0.022 0.122,0.089 0.122,0.165c0,0.076 -0.049,0.142 -0.122,0.164l-5.165,1.559c-0.1,0.03 -0.192,0.085 -0.266,0.159c-0.074,0.074 -0.129,0.166 -0.159,0.266l-1.559,5.165c-0.021,0.072 -0.088,0.122 -0.164,0.122c-0.076,0 -0.143,-0.05 -0.165,-0.122l-1.558,-5.165c-0.03,-0.1 -0.085,-0.192 -0.159,-0.266c-0.075,-0.074 -0.166,-0.129 -0.266,-0.159l-5.165,-1.559c-0.073,-0.022 -0.122,-0.088 -0.122,-0.164c0,-0.076 0.049,-0.143 0.122,-0.165l5.165,-1.558c0.1,-0.031 0.191,-0.085 0.266,-0.16c0.074,-0.074 0.129,-0.165 0.159,-0.266l1.558,-5.164Z" style="fill:#ffda81;"/><path d="M105.8,19.14c0,0 6.614,-15.755 9.716,-13.923c2.477,1.463 -2.065,5.2 -9.716,13.923Z" style="fill:#ffda81;"/><path d="M104.893,34.449c0,0 16.765,3.303 15.596,6.711c-0.934,2.721 -5.51,-0.975 -15.596,-6.711Z" style="fill:#ffda81;"/><path d="M48.732,17.849c0,0 -14.968,-8.241 -12.819,-11.132c1.717,-2.309 4.954,2.602 12.819,11.132Z" style="fill:#ffda81;"/><path d="M45.419,35.74c0,0 -15.756,6.612 -16.687,3.132c-0.743,-2.78 5.116,-2.265 16.687,-3.132Z" style="fill:#ffda81;"/><path d="M101.377,29.582c0,0 19.012,-13.701 22.204,-9.262c2.55,3.546 -6.11,4.61 -22.204,9.262Z" style="fill:#ffda81;"/><path d="M45.519,29.305c0,0 -19.699,-12.694 -22.656,-8.094c-2.361,3.673 6.342,4.285 22.656,8.094Z" style="fill:#ffda81;"/><path d="M42.191,45.15l1.34,1.125l1.554,-0.944l-0.726,1.638l1.34,1.125l-1.788,-0.112l-0.725,1.638l-0.38,-1.707l-1.788,-0.112l1.553,-0.943l-0.38,-1.708Z" style="fill:#f2af0d;"/><path d="M98.562,6.291l1.34,1.124l1.553,-0.943l-0.725,1.638l1.34,1.125l-1.788,-0.112l-0.725,1.638l-0.38,-1.707l-1.789,-0.112l1.554,-0.943l-0.38,-1.708Z" style="fill:#f2af0d;"/><path d="M37.688,17.632l1.34,1.124l1.554,-0.943l-0.726,1.638l1.34,1.124l-1.788,-0.111l-0.725,1.638l-0.38,-1.707l-1.788,-0.112l1.553,-0.944l-0.38,-1.707Z" style="fill:#f2af0d;"/><path d="M108.683,42.028l0.176,1.74l1.771,0.408l-1.662,0.668l0.175,1.74l-1.203,-1.327l-1.663,0.668l0.919,-1.489l-1.203,-1.327l1.771,0.407l0.919,-1.488Z" style="fill:#f2af0d;"/><path d="M58.65,4.003l0.176,1.74l1.771,0.407l-1.663,0.668l0.176,1.741l-1.203,-1.328l-1.663,0.668l0.919,-1.488l-1.203,-1.328l1.771,0.408l0.919,-1.488Z" style="fill:#f2af0d;"/></g></svg>