<?xml version="1.0" encoding="UTF-8" standalone="no"?>
<!DOCTYPE svg PUBLIC "-//W3C//DTD SVG 1.1//EN" "http://www.w3.org/Graphics/SVG/1.1/DTD/svg11.dtd">
<svg width="100%" height="100%" viewBox="0 0 600 600" version="1.1" xmlns="http://www.w3.org/2000/svg" xmlns:xlink="http://www.w3.org/1999/xlink" xml:space="preserve" xmlns:serif="http://www.serif.com/" style="fill-rule:evenodd;clip-rule:evenodd;stroke-linecap:round;stroke-linejoin:round;stroke-miterlimit:1.5;">
    <g transform="matrix(1,0,0,1,-23.6243,0)">
        <g id="_1" serif:id="1" transform="matrix(1,0,0,1,23.6243,0)">
            <rect x="0" y="0" width="600" height="600" style="fill:none;"/>
            <g transform="matrix(0.492335,0,0,0.488684,-1602.77,-2469.37)">
                <g transform="matrix(1,0,0,1,136.581,124.165)">
                    <ellipse cx="3670.67" cy="5499.2" rx="528.497" ry="63.572" style="fill:rgb(214,194,149);stroke:black;stroke-width:12.5px;"/>
                </g>
                <path d="M3688.25,5713.47C3680.77,5711.98 3844.21,5644.81 3949.32,5649.9C4054.43,5654.98 4091.72,5667.7 4157.84,5633.79C4223.95,5599.89 4286.68,5617.69 4275.66,5653.29C4264.64,5688.89 3816.24,5738.9 3688.25,5713.47Z" style="fill:rgb(202,145,0);stroke:black;stroke-width:8.33px;"/>
                <g transform="matrix(0.743807,0.148188,-0.148188,0.743807,872.815,983.113)">
                    <path d="M4857.03,4882.03C4968.39,4882.03 5058.8,5048.67 5058.8,5185.01C5058.8,5321.36 4968.39,5376.11 4857.03,5376.11C4745.67,5376.11 4655.26,5321.36 4655.26,5185.01C4655.26,5048.67 4745.67,4882.03 4857.03,4882.03Z" style="fill:white;stroke:black;stroke-width:12.5px;"/>
                    <g transform="matrix(1.33497,0,0,1.33503,-1151.87,-1584.53)">
                        <ellipse cx="4502.48" cy="5065.05" rx="98.749" ry="113.159" style="fill:rgb(255,164,0);"/>
                    </g>
                </g>
                <g transform="matrix(0.649875,0.760041,-0.760041,0.649875,5291.44,-774.811)">
                    <path d="M3755.51,5054.05L3923.38,5374.5L3949.87,5363.9L3785.37,5034.84L3755.51,5054.05" style="fill:rgb(24,53,26);stroke:black;stroke-width:8.33px;"/>
                </g>
                <g transform="matrix(0.857687,0.514172,-0.514172,0.857687,3148.23,-877.694)">
                    <path d="M3755.51,5054.05L3923.38,5374.5L3949.87,5363.9L3785.37,5034.84L3755.51,5054.05" style="fill:rgb(24,53,26);stroke:black;stroke-width:8.33px;"/>
                </g>
                <g transform="matrix(0.423515,0.905889,-0.905889,0.423515,6920.97,-108.925)">
                    <path d="M3755.51,5054.05L3923.38,5374.5L3949.87,5363.9L3785.37,5034.84L3755.51,5054.05" style="fill:rgb(24,53,26);stroke:black;stroke-width:8.33px;"/>
                </g>
                <path d="M3728.56,5682.86C3728.56,5682.86 3836.63,5502.74 3989.21,5509.09C4141.78,5515.45 4178.86,5672.26 4178.86,5672.26" style="fill:none;stroke:rgb(250,229,174);stroke-width:12.5px;"/>
                <g transform="matrix(1,0,0,1,-7.41674,19.0716)">
                    <path d="M3728.56,5682.86C3728.56,5682.86 3836.63,5502.74 3989.21,5509.09C4141.78,5515.45 4178.86,5672.26 4178.86,5672.26" style="fill:none;stroke:rgb(250,229,174);stroke-width:12.5px;"/>
                </g>
                <g transform="matrix(1,0,0,1,-22.2502,94.2986)">
                    <path d="M3728.56,5682.86C3728.56,5682.86 3836.63,5502.74 3989.21,5509.09C4141.78,5515.45 4178.86,5672.26 4178.86,5672.26" style="fill:none;stroke:rgb(250,229,174);stroke-width:12.5px;"/>
                </g>
                <g transform="matrix(1,0,0,1,-55.0958,86.8819)">
                    <path d="M3728.56,5682.86C3728.56,5682.86 3836.63,5502.74 3989.21,5509.09C4141.78,5515.45 4178.86,5672.26 4178.86,5672.26" style="fill:none;stroke:rgb(254,218,125);stroke-width:12.5px;"/>
                </g>
                <g transform="matrix(1,0,0,1,-76.2865,99.5963)">
                    <path d="M3728.56,5682.86C3728.56,5682.86 3836.63,5502.74 3989.21,5509.09C4141.78,5515.45 4178.86,5672.26 4178.86,5672.26" style="fill:none;stroke:rgb(254,218,125);stroke-width:12.5px;"/>
                </g>
                <g transform="matrix(1,0,0,1,-4.54747e-13,55.0958)">
                    <path d="M3728.56,5682.86C3728.56,5682.86 3836.63,5502.74 3989.21,5509.09C4141.78,5515.45 4178.86,5672.26 4178.86,5672.26" style="fill:none;stroke:rgb(250,229,174);stroke-width:12.5px;"/>
                </g>
                <g transform="matrix(1,0,0,1,-78.4056,128.204)">
                    <path d="M3728.56,5682.86C3728.56,5682.86 3836.63,5502.74 3989.21,5509.09C4141.78,5515.45 4178.86,5672.26 4178.86,5672.26" style="fill:none;stroke:rgb(250,229,174);stroke-width:12.5px;"/>
                </g>
                <g transform="matrix(1,0,0,1,-107.013,146.216)">
                    <path d="M3728.56,5682.86C3728.56,5682.86 3836.63,5502.74 3989.21,5509.09C4141.78,5515.45 4178.86,5672.26 4178.86,5672.26" style="fill:none;stroke:rgb(250,229,174);stroke-width:12.5px;"/>
                </g>
                <g transform="matrix(1.29176,0,0,1.2254,-1110.11,-1280.9)">
                    <path d="M3728.56,5682.86C3728.56,5682.86 3836.63,5502.74 3989.21,5509.09C4141.78,5515.45 4178.86,5672.26 4178.86,5672.26" style="fill:none;stroke:rgb(250,229,174);stroke-width:12.5px;"/>
                </g>
                <g transform="matrix(1.29176,0,0,1.2254,-1112.23,-1260.77)">
                    <path d="M3728.56,5682.86C3728.56,5682.86 3836.63,5502.74 3989.21,5509.09C4141.78,5515.45 4178.86,5672.26 4178.86,5672.26" style="fill:none;stroke:rgb(254,218,125);stroke-width:12.5px;"/>
                </g>
                <g transform="matrix(0.852632,0,0,0.773674,571.763,1287.72)">
                    <path d="M3938.72,5678.01L4435.38,4941.3C4435.38,4941.3 4483.91,4939.37 4489.18,4980.62C4428.7,5060.8 3984.25,5680.08 3984.25,5680.08L3938.72,5678.01Z" style="fill:rgb(184,100,0);stroke:black;stroke-width:8.33px;"/>
                </g>
                <g transform="matrix(0.838198,0.156222,-0.141755,0.760577,1376.93,746.432)">
                    <path d="M3940.06,5679.97L4435.38,4941.3C4435.38,4941.3 4483.91,4939.37 4489.18,4980.62C4428.7,5060.8 3983.41,5669.11 3983.41,5669.11L3940.06,5679.97Z" style="fill:rgb(184,100,0);stroke:black;stroke-width:8.33px;"/>
                </g>
                <path d="M3336.9,5651.98C3336.9,5651.98 3279.26,5618.07 3300.97,5558.4C3322.66,5498.72 3407.43,5544.16 3407.43,5544.16C3407.43,5544.16 3599.33,5678.42 3787.16,5504.83C3975,5331.23 4165.55,5464.14 4158.09,5539.41C4150.63,5614.68 4065.86,5681.13 4065.86,5681.13" style="fill:none;stroke:rgb(250,229,174);stroke-width:12.5px;"/>
                <g transform="matrix(1,0,0,1,14.4097,3.39051)">
                    <path d="M3336.9,5651.98C3336.9,5651.98 3279.26,5618.07 3300.97,5558.4C3322.66,5498.72 3407.43,5544.16 3407.43,5544.16C3407.43,5544.16 3567.97,5651.3 3755.8,5477.7C3943.64,5304.11 4139.27,5464.14 4131.81,5539.41C4124.35,5614.68 4078.58,5673.51 4078.58,5673.51" style="fill:none;stroke:rgb(250,229,174);stroke-width:12.5px;"/>
                </g>
                <g transform="matrix(1,0,0,1,44.9243,2.54288)">
                    <path d="M3336.9,5651.98C3336.9,5651.98 3279.26,5618.07 3300.97,5558.4C3322.66,5498.72 3407.43,5544.16 3407.43,5544.16C3407.43,5544.16 3567.97,5651.3 3755.8,5477.7C3943.64,5304.11 4139.27,5464.14 4131.81,5539.41C4124.35,5614.68 4078.58,5673.51 4078.58,5673.51" style="fill:none;stroke:rgb(254,218,125);stroke-width:12.5px;"/>
                </g>
                <g transform="matrix(1,0,0,1,83.0675,0.847628)">
                    <path d="M3317.41,5659.6C3317.41,5659.6 3225.02,5617.22 3246.72,5557.55C3268.42,5497.88 3407.43,5544.16 3407.43,5544.16C3407.43,5544.16 3567.97,5651.3 3755.8,5477.7C3943.64,5304.11 4124.86,5432.78 4131.81,5539.41C4136.73,5614.89 4078.58,5673.51 4078.58,5673.51" style="fill:none;stroke:rgb(250,229,174);stroke-width:12.5px;"/>
                </g>
                <g transform="matrix(1,0,0,1,102.563,1.69526)">
                    <path d="M3317.41,5659.6C3317.41,5659.6 3225.02,5617.22 3246.72,5557.55C3268.42,5497.88 3407.43,5544.16 3407.43,5544.16C3407.43,5544.16 3567.97,5651.3 3755.8,5477.7C3943.64,5304.11 4124.86,5432.78 4131.81,5539.41C4136.73,5614.89 4078.58,5673.51 4078.58,5673.51" style="fill:none;stroke:rgb(250,229,174);stroke-width:12.5px;"/>
                </g>
                <g transform="matrix(1,0,0,1,93.2391,41.5338)">
                    <path d="M3317.41,5659.6C3317.41,5659.6 3225.02,5617.22 3246.72,5557.55C3268.42,5497.88 3407.43,5544.16 3407.43,5544.16C3407.43,5544.16 3567.97,5651.3 3755.8,5477.7C3943.64,5304.11 4124.86,5432.78 4131.81,5539.41C4136.73,5614.89 4078.58,5673.51 4078.58,5673.51" style="fill:none;stroke:rgb(254,218,125);stroke-width:12.5px;"/>
                </g>
                <g transform="matrix(1,0,0,1,49.1624,53.4006)">
                    <path d="M3317.41,5659.6C3317.41,5659.6 3225.02,5617.22 3246.72,5557.55C3268.42,5497.88 3407.43,5544.16 3407.43,5544.16C3407.43,5544.16 3567.97,5651.3 3755.8,5477.7C3943.64,5304.11 4124.86,5432.78 4131.81,5539.41C4136.73,5614.89 4078.58,5673.51 4078.58,5673.51" style="fill:none;stroke:rgb(254,218,125);stroke-width:12.5px;"/>
                </g>
                <g transform="matrix(1.17062,-0.273149,0.273149,1.17062,-2005.31,2715.28)">
                    <g transform="matrix(-0.205594,0,0,0.205594,4301.19,3155.44)">
                        <path d="M2279.67,511.904C2283.15,491.051 2325.81,459.166 2343.54,451.945C2559.26,364.088 2483.64,611.456 2358.06,601.659" style="fill:rgb(97,224,238);"/>
                        <path d="M2254.77,507.618C2256.42,497.753 2262.64,485.766 2272.68,474.29C2290.18,454.281 2319.39,434.336 2334.01,428.38C2412.93,396.237 2459.99,407.062 2482.91,428.999C2507.14,452.193 2511.24,492.082 2495.37,531.43C2474.45,583.282 2420.21,631.993 2356.19,626.999C2342.3,625.915 2331.85,613.681 2332.88,599.695C2333.91,585.71 2346.03,575.235 2359.93,576.319C2401.41,579.556 2435.02,545.774 2448.58,512.171C2452.78,501.755 2455.07,491.271 2454.45,481.804C2454.04,475.569 2452.4,469.824 2448.18,465.781C2442.63,460.465 2433.82,458.399 2421.97,458.453C2404.27,458.535 2381.61,463.889 2353.08,475.51C2344.3,479.086 2328.32,490.281 2316.15,502.15C2312.46,505.748 2309.13,509.402 2306.64,512.981C2305.79,514.202 2304.75,515.122 2304.57,516.19C2302.27,530.016 2289.24,539.321 2275.5,536.956C2261.75,534.59 2252.47,521.445 2254.77,507.618Z"/>
                    </g>
                    <g transform="matrix(-0.244459,-0.304746,0.304746,-0.244459,4591.19,4450.33)">
                        <path d="M2787.51,613.28C2787.51,613.28 2876.01,567.95 2927.82,598.17C2979.63,628.39 2964.52,678.037 2919.19,671.562C2873.86,665.086 2830.68,662.927 2802.62,686.672C2774.56,710.416 2731.39,641.342 2787.51,613.28Z" style="fill:rgb(214,194,149);stroke:black;stroke-width:20.03px;"/>
                    </g>
                    <g transform="matrix(-0.5899,0,0,0.5899,5806.85,2625.08)">
                        <path d="M3077.27,879.49C3077.27,879.49 3108.11,847.368 3119.67,925.745" style="fill:none;stroke:rgb(97,224,238);stroke-width:13.26px;"/>
                    </g>
                    <g transform="matrix(0.5899,0,0,0.5899,2113.37,2620.54)">
                        <path d="M3077.27,879.49C3077.27,879.49 3106.83,848.653 3117.1,929.6" style="fill:none;stroke:rgb(97,224,238);stroke-width:13.26px;"/>
                    </g>
                    <g transform="matrix(-0.436249,0.120963,0.120963,0.436249,5212.23,2368.09)">
                        <path d="M3077.27,879.49C3077.27,879.49 3113.14,839.637 3136.24,954.162" style="fill:none;stroke:rgb(97,224,238);stroke-width:17.28px;"/>
                    </g>
                    <g transform="matrix(-0.196813,-0.337483,-0.337483,0.196813,4793.08,4411.66)">
                        <path d="M2787.51,613.28C2787.51,613.28 2876.01,567.95 2927.82,598.17C2979.63,628.39 2964.52,678.037 2919.19,671.562C2873.86,665.086 2830.68,662.927 2802.62,686.672C2774.56,710.416 2731.39,641.342 2787.51,613.28Z" style="fill:rgb(214,194,149);stroke:black;stroke-width:20.03px;"/>
                    </g>
                    <g transform="matrix(0.0325934,-0.389317,-0.389317,-0.0325934,4009.92,4701.35)">
                        <path d="M2787.51,613.28C2787.51,613.28 2876.01,567.95 2927.82,598.17C2979.63,628.39 2964.52,678.037 2919.19,671.562C2873.86,665.086 2830.68,662.927 2802.62,686.672C2774.56,710.416 2731.39,641.342 2787.51,613.28Z" style="fill:rgb(214,194,149);stroke:black;stroke-width:20.03px;"/>
                    </g>
                    <g transform="matrix(0.102797,-0.17805,-0.17805,-0.102797,3924.04,3687.74)">
                        <path d="M2301.37,493.302C2304.85,472.448 2326.32,460.207 2344.05,452.986C2559.76,365.129 2483.64,611.456 2358.06,601.659" style="fill:rgb(97,224,238);"/>
                        <path d="M2276.32,489.077C2281.24,459.561 2309.24,439.844 2334.33,429.623C2413.45,397.403 2460.59,408.195 2483.49,430.026C2507.6,453.022 2511.66,492.659 2495.71,531.762C2474.66,583.377 2420.22,631.82 2356.18,626.824C2342.2,625.734 2331.69,613.572 2332.73,599.684C2333.77,585.795 2345.97,575.404 2359.95,576.494C2401.4,579.729 2434.99,546.046 2448.62,512.633C2452.86,502.228 2455.19,491.757 2454.59,482.306C2454.2,476.11 2452.6,470.398 2448.4,466.386C2442.92,461.169 2434.22,459.18 2422.51,459.257C2404.86,459.374 2382.25,464.745 2353.76,476.349C2347.08,479.07 2339.61,482.585 2333.57,487.535C2330.28,490.232 2327.15,493.246 2326.43,497.527C2324.14,511.262 2311.06,520.52 2297.23,518.188C2283.4,515.856 2274.03,502.812 2276.32,489.077Z"/>
                    </g>
                    <g transform="matrix(-0.304024,-3.72322e-17,3.72322e-17,-0.304024,4557.46,3736.48)">
                        <path d="M1602.28,658.224C1602.28,658.224 1537.63,785.329 1549.85,894.354C1588.09,1235.66 1487.62,1302.63 1526.9,1510.82C1540.54,1583.11 1566.32,1665.45 1610.23,1725.3C1706.72,1856.83 1892.19,1925.15 2053.51,1894.26C2118.1,1881.89 2176.43,1853.93 2234.15,1823.26C2434.98,1716.58 2476.71,1491.41 2450.61,1301.63C2439.06,1217.62 2366.83,1086.68 2377.39,1002.44C2399.42,826.82 2393.26,731.764 2338.43,618.483C2291.7,521.934 2109.83,449.196 1911,469.87C1877.12,473.393 1674.41,508.918 1602.28,658.224Z" style="fill:rgb(97,224,238);"/>
                        <clipPath id="_clip1">
                            <path d="M1602.28,658.224C1602.28,658.224 1537.63,785.329 1549.85,894.354C1588.09,1235.66 1487.62,1302.63 1526.9,1510.82C1540.54,1583.11 1566.32,1665.45 1610.23,1725.3C1706.72,1856.83 1892.19,1925.15 2053.51,1894.26C2118.1,1881.89 2176.43,1853.93 2234.15,1823.26C2434.98,1716.58 2476.71,1491.41 2450.61,1301.63C2439.06,1217.62 2366.83,1086.68 2377.39,1002.44C2399.42,826.82 2393.26,731.764 2338.43,618.483C2291.7,521.934 2109.83,449.196 1911,469.87C1877.12,473.393 1674.41,508.918 1602.28,658.224Z"/>
                        </clipPath>
                        <g clip-path="url(#_clip1)">
                            <g transform="matrix(1.58206,-1.93747e-16,-1.93747e-16,-1.58206,-849.364,3866.96)">
                                <path d="M2003.37,1344.04C2003.37,1344.04 2045.52,1446.83 2019.82,1530.09C1994.12,1613.34 1948.89,1729.5 1956.09,1845.65C1963.28,1961.8 1950.95,2036.84 1925.25,2069.73C1873.36,2136.16 1732.01,2145.79 1696.03,2135.51C1660.05,2125.24 1837.88,2172.52 1939.64,2131.4C2041.4,2090.29 2055.79,1917.6 2042.43,1809.67C2029.07,1701.74 2115.41,1670.91 2086.63,1484.86C2040.38,1375.9 2039.35,1382.07 2003.37,1344.04Z" style="fill:rgb(79,203,224);"/>
                            </g>
                            <g transform="matrix(1.58206,-1.93747e-16,-1.93747e-16,-1.58206,-822.199,3866.96)">
                                <path d="M1816.44,1503.57C1816.44,1503.57 1829.07,1566.72 1904.33,1563.04C1979.59,1559.36 1984.85,1482.52 1984.85,1482.52L1816.44,1503.57Z" style="fill:rgb(79,203,224);"/>
                            </g>
                            <g transform="matrix(1.58206,-1.93747e-16,-1.93747e-16,-1.58206,-1331.45,3917.75)">
                                <path d="M1816.44,1503.57C1816.44,1503.57 1829.07,1566.72 1904.33,1563.04C1979.59,1559.36 1984.85,1482.52 1984.85,1482.52L1816.44,1503.57Z" style="fill:rgb(79,203,224);"/>
                            </g>
                        </g>
                        <path d="M1587.04,650.404C1587.04,650.404 1520.1,782.828 1532.82,896.343C1555.5,1098.68 1528.73,1203.42 1512.15,1299.28C1500.63,1365.88 1493.9,1428.35 1510.07,1514.1C1524.16,1588.78 1551.07,1673.74 1596.44,1735.57C1696.63,1872.15 1889.15,1943.28 2056.66,1911.2C2122.95,1898.51 2182.87,1869.98 2242.11,1838.51C2449.97,1728.09 2494.59,1495.64 2467.58,1299.21C2461.68,1256.33 2440.49,1201.41 2421.93,1146.52C2404.66,1095.47 2389.37,1044.53 2394.39,1004.54C2416.98,824.459 2410.06,727.05 2353.83,610.889C2333.76,569.419 2290.95,531.492 2232.56,502.988C2148.6,461.996 2032.11,439.947 1909.29,452.717C1888.23,454.908 1804.15,468.963 1724.12,513.34C1669.72,543.509 1617.37,587.608 1586.88,650.724L1587.04,650.404ZM1617.52,666.043C1617.58,665.937 1617.63,665.831 1617.68,665.724C1644.89,609.395 1692.03,570.46 1740.58,543.535C1814.98,502.273 1893.12,489.059 1912.7,487.023C2028.49,474.984 2138.38,495.383 2217.53,534.028C2267.89,558.616 2305.71,590.307 2323.03,626.078C2376.46,736.479 2381.87,829.18 2360.4,1000.33C2355.91,1036.09 2365.02,1079.84 2378.91,1125.09C2398.25,1188.13 2426.81,1254.38 2433.64,1304.05C2458.83,1487.19 2420,1705.07 2226.2,1808.02C2169.99,1837.88 2113.26,1865.28 2050.36,1877.32C1895.23,1907.03 1716.81,1841.51 1624.02,1715.03C1581.57,1657.16 1556.92,1577.44 1543.73,1507.55C1524.57,1405.99 1539.79,1338.89 1554.84,1255.54C1570.48,1168.91 1586.26,1065.41 1566.87,892.366C1555.15,787.83 1617.52,666.043 1617.52,666.043Z"/>
                    </g>
                    <g transform="matrix(-0.152919,-1.87272e-17,1.49521e-17,-0.122093,4267.4,3625.61)">
                        <path d="M1949.25,437.086C1546.42,524.992 1450.76,759.917 1427.56,867.142C1383.84,1069.12 1362.66,1460.63 1401.94,1668.83C1415.58,1741.12 1441.36,1823.46 1485.27,1883.31C1581.76,2014.84 2013.3,2026.28 2174.62,1995.39C2239.21,1983.02 2297.53,1955.05 2355.26,1924.39C2556.09,1817.7 2625.17,583.75 2244.02,463.384C2142.23,431.238 2013.17,423.135 1949.25,437.086Z" style="fill:rgb(183,248,255);"/>
                    </g>
                    <g transform="matrix(-0.304024,0,0,0.304024,4607.85,3065.5)">
                        <circle cx="1749.06" cy="789.086" r="14.17" style="fill:rgb(183,248,255);"/>
                    </g>
                    <g transform="matrix(-0.304024,0,0,0.304024,4393.98,3073.32)">
                        <circle cx="1749.06" cy="789.086" r="14.17" style="fill:rgb(183,248,255);"/>
                    </g>
                    <g transform="matrix(-0.480986,0,0,0.480986,5306.34,2543.16)">
                        <g transform="matrix(0.624307,-0.0988623,0.109957,0.694372,1402.01,1222.31)">
                            <path d="M1960.41,874.118C1963.57,893.086 1961.3,928.116 1971.79,944.361C1976.87,952.237 1989.75,953.613 1998.14,954.513C2046.33,959.682 2049.89,915.114 2060.81,876.97" style="fill:rgb(237,237,237);"/>
                            <path d="M1973.08,872.398C1974.99,883.892 1974.96,901.224 1976.89,916.796C1977.94,925.26 1979.39,933.161 1982.85,938.512C1983.81,940.006 1985.81,940.471 1987.67,941.017C1991.73,942.212 1996.15,942.618 1999.63,942.991C2008.2,943.91 2014.84,942.929 2020.02,940.051C2025.3,937.113 2028.95,932.399 2031.95,926.858C2039.89,912.219 2043.18,892.338 2048.41,874.046C2050.19,867.849 2057.19,864.129 2064.03,865.743C2070.87,867.357 2074.99,873.698 2073.21,879.894C2067.53,899.746 2063.57,921.221 2054.95,937.109C2049.67,946.833 2042.71,954.675 2033.43,959.832C2024.05,965.049 2012.17,967.7 1996.64,966.034C1990.57,965.382 1982.57,964.374 1975.8,961.737C1969.49,959.283 1964.16,955.518 1960.73,950.21C1955.8,942.564 1952.94,931.46 1951.43,919.365C1949.54,904.1 1949.62,887.106 1947.75,875.838C1946.69,869.505 1951.51,863.593 1958.5,862.644C1965.49,861.695 1972.02,866.066 1973.08,872.398Z"/>
                        </g>
                        <g transform="matrix(0.676451,0.0416125,-0.0481144,0.782146,1960.61,968.001)">
                            <ellipse cx="1221.96" cy="702.82" rx="66.462" ry="36.543"/>
                        </g>
                        <g transform="matrix(0.621633,0.114474,-0.114474,0.621633,2092.68,1002.77)">
                            <path d="M1204.37,720.792C1207.95,742.319 1208.13,763.584 1210.45,785.144C1211.2,792.209 1206.12,798.531 1199.09,799.253C1192.07,799.976 1185.75,794.828 1184.99,787.763C1182.73,766.707 1182.62,745.932 1179.12,724.908C1177.95,717.899 1182.66,711.285 1189.62,710.15C1196.59,709.014 1203.2,713.782 1204.37,720.792Z"/>
                        </g>
                        <g transform="matrix(0.631188,0.0336753,-0.0336753,0.631188,2025.37,1092.08)">
                            <path d="M1099.27,765.961C1135.32,783.988 1169.29,790.151 1200.91,783.868C1232.54,777.584 1261.61,758.892 1288.1,728.337C1292.74,722.989 1300.83,722.452 1306.16,727.138C1311.49,731.824 1312.06,739.971 1307.42,745.318C1276.71,780.751 1242.64,801.861 1205.96,809.148C1169.28,816.437 1129.77,809.939 1087.94,789.028C1081.61,785.859 1079,778.118 1082.12,771.752C1085.25,765.387 1092.93,762.792 1099.27,765.961Z"/>
                        </g>
                        <g transform="matrix(0.734444,-0.222559,0.222559,0.734444,569.292,1743.65)">
                            <ellipse cx="2765.83" cy="286.812" rx="23.313" ry="12.088" style="fill:rgb(183,248,255);"/>
                        </g>
                        <g transform="matrix(0.493537,0.587674,-0.587674,0.493537,1802.93,-389.275)">
                            <ellipse cx="2765.83" cy="286.812" rx="23.313" ry="12.088" style="fill:rgb(183,248,255);"/>
                        </g>
                        <g transform="matrix(1.18978,-0.169438,0.169438,1.18978,1245.06,999.679)">
                            <circle cx="1071.81" cy="534.398" r="76.669" style="fill:white;stroke:black;stroke-width:13.54px;"/>
                        </g>
                        <g transform="matrix(1.18978,-0.169438,0.169438,1.18978,1569.81,1026.66)">
                            <circle cx="1071.81" cy="534.398" r="76.669" style="fill:white;stroke:black;stroke-width:13.54px;"/>
                        </g>
                        <g transform="matrix(2.86066,-0.40739,0.40739,2.86066,-585.221,367.681)">
                            <circle cx="1044.8" cy="535.269" r="11.326"/>
                        </g>
                        <g transform="matrix(2.86066,-0.40739,0.40739,2.86066,-264.976,390.725)">
                            <circle cx="1044.8" cy="535.269" r="11.326"/>
                        </g>
                        <g transform="matrix(0.802491,-0.114284,0.114284,0.802491,598.735,1517.32)">
                            <circle cx="2472.68" cy="285.194" r="11.336" style="fill:white;"/>
                        </g>
                        <g transform="matrix(0.802491,-0.114284,0.114284,0.802491,918.979,1540.36)">
                            <circle cx="2472.68" cy="285.194" r="11.336" style="fill:white;"/>
                        </g>
                    </g>
                    <g transform="matrix(-0.3302,-0.208802,-0.208802,0.3302,4933.75,3813.96)">
                        <path d="M2787.51,613.28C2787.51,613.28 2876.01,567.95 2927.82,598.17C2979.63,628.39 2964.52,678.037 2919.19,671.562C2873.86,665.086 2830.68,662.927 2802.62,686.672C2774.56,710.416 2731.39,641.342 2787.51,613.28Z" style="fill:rgb(214,194,149);stroke:black;stroke-width:20.03px;"/>
                    </g>
                </g>
                <path d="M3359.5,5658.7C3359.5,5658.7 3309.49,5598.52 3385.78,5583.27C3462.07,5568.01 3514.62,5669.72 3646.85,5680.74C3779.08,5691.76 3807.05,5541.73 3966.4,5543.43C4125.76,5545.12 4125.96,5675.43 4231.71,5649.28C4297.59,5632.98 4278.33,5561.23 4251.21,5555.29C4224.08,5549.36 4147.8,5504.44 4008.79,5679.89" style="fill:none;stroke:rgb(250,229,174);stroke-width:12.5px;"/>
                <path d="M3367.13,5658.23C3367.13,5658.23 3345.09,5605.67 3412.05,5590.42C3479.02,5575.16 3511.22,5620.93 3603.62,5653.14C3696.01,5685.35 3734.98,5679 3783.31,5666.7C3830.73,5654.64 3876.55,5566.68 3998.61,5589.57C4120.67,5612.45 4132.54,5662.47 4138.47,5670.94" style="fill:none;stroke:rgb(254,218,125);stroke-width:12.5px;"/>
                <g transform="matrix(1,0,0,1,1030.23,-374.896)">
                    <path d="M2248.21,6000.54C2250.65,6035.38 2486.52,6063.57 2776.68,6063.57C3064.05,6063.57 3298.16,6035.92 3305.03,6001.55L3305.54,6001.55C3305.54,6001.55 3292.68,6512.57 2780.13,6512.57C2282.24,6512.57 2249.66,6028.24 2248.21,6000.54ZM2248.22,5999.3C2248.2,5999.53 2248.19,5999.76 2248.19,5999.99C2248.19,6000.08 2248.19,6000.17 2248.19,6000.25C2248.16,5999.63 2248.15,5999.3 2248.15,5999.3L2248.22,5999.3Z" style="fill:rgb(220,28,75);stroke:black;stroke-width:12.5px;"/>
                </g>
                <g transform="matrix(-0.443573,-0.154234,-0.154234,0.443573,4812.02,5832.16)">
                    <path d="M2787.51,613.28C2787.51,613.28 2876.01,567.95 2927.82,598.17C2979.63,628.39 2964.52,678.037 2919.19,671.562C2873.86,665.086 2830.68,662.927 2802.62,686.672C2774.56,710.416 2731.39,641.342 2787.51,613.28Z" style="fill:rgb(214,194,149);stroke:black;stroke-width:20.03px;"/>
                </g>
                <g transform="matrix(1,0,0,1,2.54288,16.9525)">
                    <path d="M3753.87,6031.08C3753.87,6031.08 3624.75,5999.86 3669.96,5920.04C3692.47,5880.28 3740.31,5910.71 3740.31,5910.71C3740.31,5910.71 3699.34,5744.47 3808.12,5742.88C3905.6,5741.46 3871.69,5914.1 3871.69,5914.1C3871.69,5914.1 3912.45,5878.59 3942.04,5914.95C3992.21,5976.58 3860.67,6033.62 3860.67,6033.62C3860.67,6033.62 3932.04,5971.77 3916.62,5946.31C3899.66,5918.34 3845.41,5959.03 3845.41,5959.03C3845.41,5959.03 3865.76,5793.74 3805.58,5797.98C3749.46,5801.93 3769.98,5959.03 3769.98,5959.03C3769.98,5959.03 3718.03,5920.88 3704.71,5943.77C3677.58,5990.39 3753.87,6031.08 3753.87,6031.08Z" style="fill:rgb(255,164,0);stroke:black;stroke-width:8.33px;"/>
                </g>
                <g transform="matrix(1,0,0,1,2.54288,16.9525)">
                    <path d="M3909.79,5877.71C3909.79,5877.71 4061.16,5866.01 4125.09,5758.2C4168.32,5685.3 4064.06,5711.58 4062.37,5761.59C4035.24,5731.92 3978.45,5759.05 3988.62,5814.14C3943.7,5801.43 3958.96,5853.13 3909.79,5877.71Z" style="fill:rgb(255,164,0);stroke:black;stroke-width:8.33px;"/>
                </g>
                <g transform="matrix(-1,0,0,1,7612.82,16.9525)">
                    <path d="M3909.79,5877.71C3909.79,5877.71 4061.16,5866.01 4125.09,5758.2C4168.32,5685.3 4064.06,5711.58 4062.37,5761.59C4035.24,5731.92 3978.45,5759.05 3988.62,5814.14C3943.7,5801.43 3958.96,5853.13 3909.79,5877.71Z" style="fill:rgb(255,164,0);stroke:black;stroke-width:8.33px;"/>
                </g>
                <g transform="matrix(1,0,0,1,2.54288,16.9525)">
                    <circle cx="3931.41" cy="5756.93" r="21.614" style="fill:rgb(255,164,0);stroke:black;stroke-width:8.33px;"/>
                </g>
                <g transform="matrix(-1,0,0,1,7612.82,16.9525)">
                    <circle cx="3931.41" cy="5756.93" r="21.614" style="fill:rgb(255,164,0);stroke:black;stroke-width:8.33px;"/>
                </g>
                <g transform="matrix(1,0,0,1,2.54288,16.9525)">
                    <circle cx="3989.89" cy="5910.35" r="13.138" style="fill:rgb(255,164,0);stroke:black;stroke-width:8.33px;"/>
                </g>
                <g transform="matrix(-1,0,0,1,7612.82,16.9525)">
                    <circle cx="3989.89" cy="5910.35" r="13.138" style="fill:rgb(255,164,0);stroke:black;stroke-width:8.33px;"/>
                </g>
                <g transform="matrix(1,0,0,1,21.1907,-3.39051)">
                    <path d="M4226.21,5733.78C4271.33,5737.47 4160.52,6007.14 3950.74,6048.46C4013.17,6016.09 4024.9,5984.89 4046.09,5935.09C4067.28,5885.3 4113.9,5902.25 4113.9,5902.25C4113.9,5902.25 4086.91,5860.25 4132.72,5808.66C4156.36,5782.04 4191.25,5793.12 4191.25,5793.12C4191.25,5793.12 4174.3,5729.54 4226.21,5733.78Z" style="fill:rgb(255,164,0);stroke:black;stroke-width:8.33px;"/>
                </g>
                <g transform="matrix(-1,0,0,1,7594.17,-3.39051)">
                    <path d="M4226.21,5733.78C4271.33,5737.47 4160.52,6007.14 3950.74,6048.46C4013.17,6016.09 4024.9,5984.89 4046.09,5935.09C4067.28,5885.3 4113.9,5902.25 4113.9,5902.25C4113.9,5902.25 4086.91,5860.25 4132.72,5808.66C4156.36,5782.04 4191.25,5793.12 4191.25,5793.12C4191.25,5793.12 4174.3,5729.54 4226.21,5733.78Z" style="fill:rgb(255,164,0);stroke:black;stroke-width:8.33px;"/>
                </g>
                <g transform="matrix(0.350133,0.123391,-0.123391,0.350133,3373.85,3335.86)">
                    <path d="M3078.41,5540.45L3078.16,5540.45L3078.16,5430.32L3177.43,5430.32L3177.43,5540.45L3177.14,5540.45C3177.14,5540.48 3177.14,5540.52 3177.14,5540.55C3177.14,5547.44 3155.02,5553.03 3127.77,5553.03C3100.53,5553.03 3078.41,5547.44 3078.41,5540.55C3078.41,5540.52 3078.41,5540.48 3078.41,5540.45Z" style="fill:rgb(132,178,18);stroke:black;stroke-width:8.33px;"/>
                    <g transform="matrix(1,0,0,1,-0.833251,-1.6665)">
                        <ellipse cx="3128.61" cy="5431.95" rx="49.366" ry="12.477" style="fill:rgb(212,236,125);stroke:black;stroke-width:8.33px;"/>
                    </g>
                </g>
                <g transform="matrix(0.280501,0.243183,-0.243183,0.280501,4671.51,3316.65)">
                    <path d="M3078.41,5540.45L3078.16,5540.45L3078.16,5430.32L3177.43,5430.32L3177.43,5540.45L3177.14,5540.45C3177.14,5540.48 3177.14,5540.52 3177.14,5540.55C3177.14,5547.44 3155.02,5553.03 3127.77,5553.03C3100.53,5553.03 3078.41,5547.44 3078.41,5540.55C3078.41,5540.52 3078.41,5540.48 3078.41,5540.45Z" style="fill:rgb(132,178,18);stroke:black;stroke-width:8.33px;"/>
                    <g transform="matrix(1,0,0,1,-0.833251,-1.6665)">
                        <ellipse cx="3128.61" cy="5431.95" rx="49.366" ry="12.477" style="fill:rgb(212,236,125);stroke:black;stroke-width:8.33px;"/>
                    </g>
                </g>
                <g transform="matrix(0.210766,0.102493,-0.103875,0.213608,3746.72,4099.59)">
                    <path d="M3078.41,5540.45L3078.16,5540.45L3078.16,5430.32L3177.43,5430.32L3177.43,5540.45L3177.14,5540.45C3177.14,5540.48 3177.14,5540.52 3177.14,5540.55C3177.14,5547.44 3155.02,5553.03 3127.77,5553.03C3100.53,5553.03 3078.41,5547.44 3078.41,5540.55C3078.41,5540.52 3078.41,5540.48 3078.41,5540.45Z" style="fill:rgb(132,178,18);stroke:black;stroke-width:8.33px;"/>
                    <g transform="matrix(1,0,0,1,-0.833251,-1.6665)">
                        <ellipse cx="3128.61" cy="5431.95" rx="49.366" ry="12.477" style="fill:rgb(212,236,125);stroke:black;stroke-width:8.33px;"/>
                    </g>
                </g>
                <g transform="matrix(0.259196,0.265773,-0.174586,0.170266,4026.4,3854.71)">
                    <path d="M3078.41,5540.45L3078.16,5540.45L3078.16,5430.32L3177.43,5430.32L3177.43,5540.45L3177.14,5540.45C3177.14,5540.48 3177.14,5540.52 3177.14,5540.55C3177.14,5547.44 3155.02,5553.03 3127.77,5553.03C3100.53,5553.03 3078.41,5547.44 3078.41,5540.55C3078.41,5540.52 3078.41,5540.48 3078.41,5540.45Z" style="fill:rgb(132,178,18);stroke:black;stroke-width:8.33px;"/>
                    <g transform="matrix(1,0,0,1,-0.833251,-1.6665)">
                        <ellipse cx="3128.61" cy="5431.95" rx="49.366" ry="12.477" style="fill:rgb(212,236,125);stroke:black;stroke-width:8.33px;"/>
                    </g>
                </g>
                <g transform="matrix(0.361229,0.0856244,-0.0562466,0.237291,3335.72,4025.09)">
                    <path d="M3078.41,5540.45L3078.16,5540.45L3078.16,5430.32L3177.43,5430.32L3177.43,5540.45L3177.14,5540.45C3177.14,5540.48 3177.14,5540.52 3177.14,5540.55C3177.14,5547.44 3155.02,5553.03 3127.77,5553.03C3100.53,5553.03 3078.41,5547.44 3078.41,5540.55C3078.41,5540.52 3078.41,5540.48 3078.41,5540.45Z" style="fill:rgb(132,178,18);stroke:black;stroke-width:8.33px;"/>
                    <g transform="matrix(1,0,0,1,-0.833251,-1.6665)">
                        <ellipse cx="3128.61" cy="5431.95" rx="49.366" ry="12.477" style="fill:rgb(212,236,125);stroke:black;stroke-width:8.33px;"/>
                    </g>
                </g>
            </g>
        </g>
    </g>
</svg>
