<?xml version="1.0" encoding="UTF-8" standalone="no"?>
<!DOCTYPE svg PUBLIC "-//W3C//DTD SVG 1.1//EN" "http://www.w3.org/Graphics/SVG/1.1/DTD/svg11.dtd">
<svg width="100%" height="100%" viewBox="0 0 600 600" version="1.1" xmlns="http://www.w3.org/2000/svg" xmlns:xlink="http://www.w3.org/1999/xlink" xml:space="preserve" xmlns:serif="http://www.serif.com/" style="fill-rule:evenodd;clip-rule:evenodd;stroke-linecap:round;stroke-linejoin:round;stroke-miterlimit:1.5;">
    <g transform="matrix(1,0,0,1,-783.539,0)">
        <g id="_2" serif:id="2" transform="matrix(1,0,0,1,783.539,0)">
            <rect x="0" y="0" width="600" height="600" style="fill:none;"/>
            <g transform="matrix(0.855852,0,0,0.855852,-4156.75,-5198.97)">
                <g transform="matrix(-1,0,0,1,10469,-8.66741)">
                    <path d="M5361.39,6237.67C5361.39,6237.67 5395.78,6243.22 5418.53,6222.7C5441.27,6202.17 5442.93,6167.23 5467.34,6182.2C5491.75,6197.18 5459.57,6246.55 5428.51,6255.42C5397.45,6264.3 5376.92,6260.97 5376.92,6260.97L5361.39,6237.67Z"/>
                </g>
                <g transform="matrix(0.750102,0,0,0.750102,-4274.2,3182.04)">
                    <g transform="matrix(0.591502,-0.199101,-0.199101,-0.591502,10855.5,5323.27)">
                        <path d="M2787.51,613.28C2787.51,613.28 2876.01,567.95 2927.82,598.17C2979.63,628.39 2964.52,678.037 2919.19,671.562C2873.86,665.086 2830.68,662.927 2802.62,686.672C2774.56,710.416 2731.39,641.342 2787.51,613.28Z" style="fill:rgb(214,194,149);stroke:black;stroke-width:20.03px;"/>
                    </g>
                    <g transform="matrix(0.942368,0,0,0.942368,9715.71,3150.45)">
                        <path d="M3077.27,879.49C3077.27,879.49 3108.11,847.368 3119.67,925.745" style="fill:none;stroke:rgb(97,224,238);stroke-width:13.26px;"/>
                    </g>
                    <g transform="matrix(-0.942368,0,0,0.942368,15616.1,3143.19)">
                        <path d="M3077.27,879.49C3077.27,879.49 3106.83,848.653 3117.1,929.6" style="fill:none;stroke:rgb(97,224,238);stroke-width:13.26px;"/>
                    </g>
                    <g transform="matrix(0.69691,0.19324,-0.19324,0.69691,10665.6,2739.91)">
                        <path d="M3077.27,879.49C3077.27,879.49 3113.14,839.637 3136.24,954.162" style="fill:none;stroke:rgb(97,224,238);stroke-width:17.28px;"/>
                    </g>
                    <g transform="matrix(0.31441,-0.53913,0.53913,0.31441,11335.2,6004.52)">
                        <path d="M2787.51,613.28C2787.51,613.28 2876.01,567.95 2927.82,598.17C2979.63,628.39 2964.52,678.037 2919.19,671.562C2873.86,665.086 2830.68,662.927 2802.62,686.672C2774.56,710.416 2731.39,641.342 2787.51,613.28Z" style="fill:rgb(214,194,149);stroke:black;stroke-width:20.03px;"/>
                    </g>
                    <g transform="matrix(-0.0520681,-0.621936,0.621936,-0.0520681,12586.3,6467.3)">
                        <path d="M2787.51,613.28C2787.51,613.28 2876.01,567.95 2927.82,598.17C2979.63,628.39 2964.52,678.037 2919.19,671.562C2873.86,665.086 2830.68,662.927 2802.62,686.672C2774.56,710.416 2731.39,641.342 2787.51,613.28Z" style="fill:rgb(214,194,149);stroke:black;stroke-width:20.03px;"/>
                    </g>
                    <g transform="matrix(0.328438,0,0,0.328438,12121,3997.69)">
                        <path d="M2279.67,511.904C2283.15,491.051 2325.81,459.166 2343.54,451.945C2559.26,364.088 2483.64,611.456 2358.06,601.659" style="fill:rgb(97,224,238);"/>
                        <path d="M2304.7,516.075C2304.88,515.003 2305.92,514.071 2306.77,512.845C2309.26,509.272 2312.59,505.624 2316.27,502.031C2328.41,490.188 2344.35,479.012 2353.11,475.444C2381.6,463.842 2404.22,458.492 2421.88,458.41C2433.69,458.355 2442.47,460.424 2448,465.718C2452.26,469.796 2453.91,475.587 2454.33,481.873C2454.95,491.361 2452.65,501.87 2448.44,512.309C2434.92,545.837 2401.43,579.593 2360.03,576.364C2346.07,575.275 2333.86,585.725 2332.76,599.686C2331.68,613.647 2342.13,625.866 2356.09,626.955C2420.19,631.956 2474.55,583.219 2495.5,531.292C2511.34,492.019 2507.27,452.211 2483.09,429.061C2460.14,407.089 2413.02,396.254 2333.97,428.447C2319.33,434.411 2290.08,454.38 2272.55,474.417C2262.51,485.893 2256.29,497.868 2254.64,507.733C2252.34,521.546 2261.69,534.629 2275.5,536.931C2289.31,539.234 2302.4,529.888 2304.7,516.075Z"/>
                    </g>
                    <g transform="matrix(-0.164219,-0.284435,0.284435,-0.164219,12723.5,4848.05)">
                        <path d="M2301.37,493.302C2304.85,472.448 2326.32,460.207 2344.05,452.986C2559.76,365.129 2483.64,611.456 2358.06,601.659" style="fill:rgb(97,224,238);"/>
                        <path d="M2326.4,497.473C2327.1,493.26 2330.21,490.312 2333.45,487.657C2339.48,482.712 2346.94,479.203 2353.62,476.485C2382.12,464.875 2404.75,459.505 2422.41,459.388C2434.18,459.31 2442.93,461.323 2448.43,466.569C2452.62,470.566 2454.23,476.255 2454.62,482.428C2455.22,491.836 2452.89,502.259 2448.67,512.616C2435.06,545.996 2401.45,579.594 2360.03,576.364C2346.07,575.275 2333.86,585.725 2332.76,599.686C2331.68,613.647 2342.13,625.866 2356.09,626.955C2420.17,631.954 2474.59,583.427 2495.66,531.779C2511.64,492.594 2507.62,452.888 2483.45,429.843C2460.58,408.035 2413.51,397.3 2334.48,429.488C2309.32,439.732 2281.28,459.546 2276.35,489.13C2274.05,502.943 2283.39,516.027 2297.2,518.329C2311.02,520.631 2324.1,511.286 2326.4,497.473Z"/>
                    </g>
                    <g transform="matrix(0.48568,-5.94787e-17,-5.94787e-17,-0.48568,11711.6,4925.92)">
                        <path d="M1602.28,658.224C1602.28,658.224 1537.63,785.329 1549.85,894.354C1588.09,1235.66 1487.62,1302.63 1526.9,1510.82C1540.54,1583.11 1566.32,1665.45 1610.23,1725.3C1706.72,1856.83 1892.19,1925.15 2053.51,1894.26C2118.1,1881.89 2176.43,1853.93 2234.15,1823.26C2434.98,1716.58 2476.71,1491.41 2450.61,1301.63C2439.06,1217.62 2366.83,1086.68 2377.39,1002.44C2399.42,826.82 2393.26,731.764 2338.43,618.483C2291.7,521.934 2109.83,449.196 1911,469.87C1877.12,473.393 1674.41,508.918 1602.28,658.224Z" style="fill:rgb(97,224,238);"/>
                        <clipPath id="_clip1">
                            <path d="M1602.28,658.224C1602.28,658.224 1537.63,785.329 1549.85,894.354C1588.09,1235.66 1487.62,1302.63 1526.9,1510.82C1540.54,1583.11 1566.32,1665.45 1610.23,1725.3C1706.72,1856.83 1892.19,1925.15 2053.51,1894.26C2118.1,1881.89 2176.43,1853.93 2234.15,1823.26C2434.98,1716.58 2476.71,1491.41 2450.61,1301.63C2439.06,1217.62 2366.83,1086.68 2377.39,1002.44C2399.42,826.82 2393.26,731.764 2338.43,618.483C2291.7,521.934 2109.83,449.196 1911,469.87C1877.12,473.393 1674.41,508.918 1602.28,658.224Z"/>
                        </clipPath>
                        <g clip-path="url(#_clip1)">
                            <g transform="matrix(1.58206,-1.93747e-16,-1.93747e-16,-1.58206,-849.364,3866.96)">
                                <path d="M2003.37,1344.04C2003.37,1344.04 2046.61,1399.62 2034.91,1485.96C2017.34,1615.67 1962.83,1587.84 1966.54,1821.27C1968.39,1937.63 1975.33,2007.81 1924.09,2077.86C1874.32,2145.89 1732.01,2145.79 1696.03,2135.51C1660.05,2125.24 1837.88,2172.52 1939.64,2131.4C2041.4,2090.29 2055.79,1917.6 2042.43,1809.67C2029.07,1701.74 2115.41,1670.91 2086.63,1484.86C2040.38,1375.9 2039.35,1382.07 2003.37,1344.04Z" style="fill:rgb(79,203,224);"/>
                            </g>
                            <g transform="matrix(1.58206,-1.93747e-16,-1.93747e-16,-1.58206,-822.199,3866.96)">
                                <path d="M1816.44,1503.57C1816.44,1503.57 1829.07,1566.72 1904.33,1563.04C1979.59,1559.36 1984.85,1482.52 1984.85,1482.52L1816.44,1503.57Z" style="fill:rgb(79,203,224);"/>
                            </g>
                            <g transform="matrix(1.58206,-1.93747e-16,-1.93747e-16,-1.58206,-1331.45,3917.75)">
                                <path d="M1816.44,1503.57C1816.44,1503.57 1829.07,1566.72 1904.33,1563.04C1979.59,1559.36 1984.85,1482.52 1984.85,1482.52L1816.44,1503.57Z" style="fill:rgb(79,203,224);"/>
                            </g>
                        </g>
                        <path d="M1586.83,650.76C1617.31,587.666 1669.65,543.59 1724.03,513.433C1804.06,469.05 1888.16,454.995 1909.22,452.804C2032.07,440.031 2148.59,462.087 2232.58,503.089C2290.97,531.601 2333.8,569.529 2353.87,611.008C2410.08,727.143 2417,824.531 2394.42,1004.57C2389.4,1044.58 2404.69,1095.56 2421.96,1146.63C2440.52,1201.51 2461.71,1256.42 2467.61,1299.29C2494.61,1495.65 2450,1728.03 2242.2,1838.42C2182.96,1869.89 2123.03,1898.42 2056.74,1911.11C1889.18,1943.2 1696.62,1872.06 1596.39,1735.45C1551.04,1673.63 1524.13,1588.68 1510.04,1514C1493.87,1428.29 1500.6,1365.83 1512.12,1299.26C1528.7,1203.39 1555.47,1098.63 1532.79,896.265C1520.08,782.804 1586.99,650.445 1586.99,650.445L1586.83,650.76ZM1617.57,666.003C1617.57,666.003 1555.18,787.854 1566.9,892.444C1586.28,1065.46 1570.51,1168.94 1554.87,1255.56C1539.82,1338.93 1524.6,1406.05 1543.76,1507.64C1556.95,1577.55 1581.6,1657.28 1624.06,1715.15C1716.83,1841.6 1895.19,1907.11 2050.28,1877.41C2113.18,1865.37 2169.9,1837.97 2226.1,1808.11C2419.97,1705.12 2458.81,1487.17 2433.61,1303.97C2426.78,1254.29 2398.22,1188.03 2378.87,1124.99C2364.99,1079.76 2355.89,1036.04 2360.37,1000.3C2381.84,829.108 2376.43,736.386 2322.98,625.959C2305.68,590.198 2267.87,558.507 2217.52,533.927C2138.39,495.292 2028.53,474.9 1912.77,486.936C1893.19,488.973 1815.07,502.187 1740.67,543.443C1692.1,570.378 1644.95,609.336 1617.73,665.687L1617.57,666.003Z"/>
                    </g>
                    <g transform="matrix(0.244289,-2.99168e-17,-2.3886e-17,-0.195044,12175,4748.8)">
                        <path d="M2244.02,463.384C1568.86,266.571 1450.76,759.917 1427.56,867.142C1383.84,1069.12 1362.66,1460.63 1401.94,1668.83C1415.58,1741.12 1441.36,1823.46 1485.27,1883.31C1581.76,2014.84 2013.3,2026.28 2174.62,1995.39C2239.21,1983.02 2297.53,1955.05 2355.26,1924.39C2556.09,1817.7 2626.87,574.985 2244.02,463.384Z" style="fill:rgb(183,248,255);"/>
                    </g>
                    <g transform="matrix(0.48568,0,0,0.48568,11631.1,3854.01)">
                        <circle cx="1749.06" cy="789.086" r="14.17" style="fill:rgb(183,248,255);"/>
                    </g>
                    <g transform="matrix(0.48568,0,0,0.48568,11972.8,3866.51)">
                        <circle cx="1749.06" cy="789.086" r="14.17" style="fill:rgb(183,248,255);"/>
                    </g>
                    <g transform="matrix(-0.611446,0.125098,-0.125098,-0.611446,14732.7,4406.87)">
                        <path d="M2787.51,613.28C2787.51,613.28 2876.01,567.95 2927.82,598.17C2979.63,628.39 2964.52,678.037 2919.19,671.562C2873.86,665.086 2830.68,662.927 2802.62,686.672C2774.56,710.416 2731.39,641.342 2787.51,613.28Z" style="fill:rgb(214,194,149);stroke:black;stroke-width:20.03px;"/>
                    </g>
                    <g transform="matrix(0.768377,0,0,0.768377,10515.1,3022.55)">
                        <g transform="matrix(0.631927,-0.0141535,0.015742,0.702848,1469.43,1044.24)">
                            <path d="M1960.41,874.118C1963.57,893.086 1961.3,928.116 1971.79,944.361C1976.87,952.237 1989.75,953.613 1998.14,954.513C2046.33,959.682 2049.89,915.114 2060.81,876.97" style="fill:rgb(237,237,237);"/>
                            <path d="M1947.68,875.833C1949.56,887.102 1949.48,904.097 1951.37,919.364C1952.87,931.443 1955.73,942.534 1960.66,950.17C1964.09,955.48 1969.43,959.242 1975.73,961.696C1982.52,964.337 1990.52,965.348 1996.61,966.001C2012.18,967.671 2024.08,965.013 2033.49,959.783C2042.77,954.625 2049.74,946.782 2055.02,937.056C2063.63,921.171 2067.59,899.702 2073.28,879.855C2075.05,873.671 2070.9,867.358 2064.02,865.766C2057.14,864.174 2050.12,867.902 2048.35,874.086C2043.11,892.382 2039.83,912.268 2031.88,926.912C2028.88,932.45 2025.24,937.163 2019.96,940.1C2014.8,942.965 2008.19,943.939 1999.66,943.024C1996.19,942.652 1991.78,942.248 1987.72,941.055C1985.87,940.511 1983.88,940.041 1982.92,938.553C1979.46,933.191 1978.01,925.277 1976.95,916.796C1975.02,901.226 1975.05,883.896 1973.14,872.404C1972.09,866.088 1965.53,861.73 1958.5,862.676C1951.48,863.622 1946.63,869.518 1947.68,875.833Z"/>
                        </g>
                        <g transform="matrix(0.676451,0.0416125,-0.0481144,0.782146,1960.61,968.001)">
                            <ellipse cx="1221.96" cy="702.82" rx="66.462" ry="36.543"/>
                        </g>
                        <g transform="matrix(0.621633,0.114474,-0.114474,0.621633,2092.68,1002.77)">
                            <path d="M1179.05,724.966C1182.55,745.991 1182.67,766.767 1184.92,787.826C1185.68,794.888 1192.03,800.006 1199.09,799.249C1206.15,798.492 1211.27,792.144 1210.51,785.082C1208.2,763.523 1208.02,742.26 1204.43,720.734C1203.27,713.729 1196.63,708.989 1189.63,710.157C1182.62,711.324 1177.88,717.96 1179.05,724.966Z"/>
                        </g>
                        <g transform="matrix(0.790845,0.294714,-0.294714,0.790845,2018.69,642.125)">
                            <path d="M1094.36,789.364C1135.63,810.001 1173.28,815.577 1208.14,807.524C1242.8,799.515 1274.9,777.916 1305.05,743.14C1308.53,739.121 1308.09,733.029 1304.08,729.545C1300.06,726.061 1293.96,726.495 1290.48,730.515C1263.42,761.727 1234.91,781.555 1203.8,788.743C1172.88,795.885 1139.58,790.425 1102.98,772.124C1098.22,769.745 1092.43,771.676 1090.05,776.434C1087.67,781.192 1089.6,786.985 1094.36,789.364Z"/>
                        </g>
                        <g transform="matrix(0.734444,-0.222559,0.222559,0.734444,569.292,1743.65)">
                            <ellipse cx="2765.83" cy="286.812" rx="23.313" ry="12.088" style="fill:rgb(183,248,255);"/>
                        </g>
                        <g transform="matrix(0.493537,0.587674,-0.587674,0.493537,1802.93,-389.275)">
                            <ellipse cx="2765.83" cy="286.812" rx="23.313" ry="12.088" style="fill:rgb(183,248,255);"/>
                        </g>
                        <g transform="matrix(0.930836,-0.76015,0.76015,0.930836,1206.92,1771.19)">
                            <circle cx="1071.81" cy="534.398" r="76.669" style="fill:white;"/>
                            <clipPath id="_clip2">
                                <circle cx="1071.81" cy="534.398" r="76.669"/>
                            </clipPath>
                            <g clip-path="url(#_clip2)">
                                <g transform="matrix(-1.07211,-0.152681,-0.152681,1.07211,3425.7,-1179.62)">
                                    <path d="M1864.53,1902.07C1864.53,1902.07 1888.29,1839.68 1962.59,1817.26C1943.48,1802.08 1903.92,1792.95 1873.09,1823.79C1842.17,1854.71 1854.67,1896.15 1864.53,1902.07Z" style="fill:rgb(97,224,238);"/>
                                </g>
                                <g transform="matrix(1.0645,-0.198944,-0.198944,-1.0645,-614.043,2926.32)">
                                    <path d="M1864.53,1902.07C1864.53,1902.07 1888.29,1839.68 1962.59,1817.26C1943.48,1802.08 1903.92,1792.95 1873.09,1823.79C1842.17,1854.71 1854.67,1896.15 1864.53,1902.07Z" style="fill:rgb(97,224,238);"/>
                                </g>
                            </g>
                            <circle cx="1071.81" cy="534.398" r="76.669" style="fill:none;stroke:black;stroke-width:13.54px;"/>
                        </g>
                        <g transform="matrix(2.28443,-1.76938,1.76938,2.28443,-688.825,2089.49)">
                            <circle cx="1044.8" cy="535.269" r="11.326"/>
                        </g>
                        <g transform="matrix(0.640845,-0.496358,0.496358,0.640845,908.862,2502.78)">
                            <circle cx="2472.68" cy="285.194" r="11.336" style="fill:white;"/>
                        </g>
                        <g transform="matrix(-0.750835,-0.938365,-0.938365,0.750835,4241.78,2085.38)">
                            <circle cx="1071.81" cy="534.398" r="76.669" style="fill:white;"/>
                            <clipPath id="_clip3">
                                <circle cx="1071.81" cy="534.398" r="76.669"/>
                            </clipPath>
                            <g clip-path="url(#_clip3)">
                                <g transform="matrix(-1.07211,-0.152681,-0.152681,1.07211,3419.49,-1183.04)">
                                    <path d="M1864.53,1902.07C1864.53,1902.07 1888.29,1839.68 1962.59,1817.26C1943.48,1802.08 1903.92,1792.95 1873.09,1823.79C1842.17,1854.71 1854.67,1896.15 1864.53,1902.07Z" style="fill:rgb(97,224,238);"/>
                                </g>
                                <g transform="matrix(1.0645,-0.198944,-0.198944,-1.0645,-620.255,2922.91)">
                                    <path d="M1864.53,1902.07C1864.53,1902.07 1888.29,1839.68 1962.59,1817.26C1943.48,1802.08 1903.92,1792.95 1873.09,1823.79C1842.17,1854.71 1854.67,1896.15 1864.53,1902.07Z" style="fill:rgb(97,224,238);"/>
                                </g>
                            </g>
                            <circle cx="1071.81" cy="534.398" r="76.669" style="fill:none;stroke:black;stroke-width:13.54px;"/>
                        </g>
                        <g transform="matrix(2.46137,-1.5136,1.5136,2.46137,-476.545,1748.52)">
                            <circle cx="1044.8" cy="535.269" r="11.326"/>
                        </g>
                        <g transform="matrix(0.69048,-0.424606,0.424606,0.69048,1067.47,2331.13)">
                            <circle cx="2472.68" cy="285.194" r="11.336" style="fill:white;"/>
                        </g>
                    </g>
                </g>
                <path d="M5163.68,6400.71C5163.68,6400.71 5160.9,6438.85 5200.43,6437.46C5239.95,6436.08 5235.1,6398.63 5235.1,6398.63C5235.1,6398.63 5259.36,6398.63 5270.46,6422.21C5281.55,6445.78 5288.49,6486 5281.55,6515.82C5273.93,6490.16 5271.85,6487.39 5271.85,6487.39C5271.85,6487.39 5282.94,6541.47 5264.91,6574.76C5246.88,6608.04 5246.88,6722.45 5309.98,6723.14C5270.46,6725.22 5212.22,6729.38 5179.63,6687.09C5147.04,6644.79 5156.74,6603.18 5156.74,6603.18L5149.12,6627.45C5149.12,6627.45 5137.33,6612.2 5136.64,6581.69C5135.94,6551.18 5145.65,6506.8 5145.65,6506.8C5145.65,6506.8 5124.85,6521.36 5119.3,6540.78C5113.06,6505.42 5115.83,6409.03 5163.68,6400.71Z" style="fill:white;stroke:black;stroke-width:8.33px;"/>
                <g transform="matrix(1.08309,0,0,1,-433.939,-4.43771)">
                    <path d="M5192.12,6387.45C5192.12,6387.45 5200.11,6380.88 5195.25,6372.17C5188.11,6359.36 5146.34,6356.25 5117.49,6377.89C5088.65,6399.52 5049.26,6404.51 5019.86,6394.53C5047.6,6419.49 5090.12,6418.44 5108.06,6414.5C5130.81,6409.51 5170.63,6408.61 5192.12,6387.45Z" style="fill:white;stroke:black;stroke-width:7.99px;"/>
                </g>
                <g transform="matrix(-0.995132,0.0985498,0.0985498,0.995132,9747.68,-476.623)">
                    <path d="M5192.3,6381.06C5192.3,6381.06 5207.15,6374.4 5202.21,6363.94C5195.96,6350.69 5146.34,6356.25 5117.49,6377.89C5088.65,6399.52 5049.26,6404.51 5019.86,6394.53C5047.6,6419.49 5090.12,6418.44 5108.06,6414.5C5130.81,6409.51 5143.53,6406.95 5192.3,6381.06Z" style="fill:white;stroke:black;stroke-width:8.33px;"/>
                </g>
                <g transform="matrix(1,0,0,1,0.554714,59.3544)">
                    <path d="M5115.92,6085.02C5115.92,6085.02 5102.6,6146.36 5128.52,6159.51C5155.24,6173.07 5318.7,6178.51 5336.04,6156.84C5353.37,6135.17 5346.29,6079.34 5330.04,6071.75C5313.79,6064.17 5122.08,6047.42 5115.92,6085.02Z" style="fill:rgb(255,164,0);stroke:black;stroke-width:8.33px;"/>
                </g>
                <path d="M5361.39,6237.67C5361.39,6237.67 5395.78,6243.22 5418.53,6222.7C5441.27,6202.17 5442.93,6167.23 5467.34,6182.2C5491.75,6197.18 5459.57,6246.55 5428.51,6255.42C5397.45,6264.3 5376.92,6260.97 5376.92,6260.97L5361.39,6237.67Z"/>
                <path d="M4941.31,6273.54C4941.31,6273.54 4956.04,6287.41 4956.04,6316.02C4956.04,6344.62 4952.57,6397.49 4980.31,6419.16C5008.05,6440.82 5009.78,6470.29 5008.91,6550.03C5008.05,6629.78 5015.85,6726.85 5015.85,6726.85L5030.58,6725.98C5030.58,6725.98 5021.91,6553.5 5025.38,6506.7C5028.85,6459.89 5025.38,6426.96 5001.98,6403.56C4978.58,6380.15 4990.71,6354.15 4992.44,6328.15C4994.18,6302.15 4959.51,6259.68 4941.31,6273.54Z" style="fill:rgb(129,70,0);stroke:black;stroke-width:8.33px;"/>
                <path d="M5152.73,6222.31C5152.73,6222.31 5131.09,6194.57 5148.29,6166.28C5165.48,6137.99 5294.72,6149.34 5305.83,6164.62C5323.58,6189.03 5315.26,6219.54 5298.06,6225.08C5280.86,6230.63 5172.14,6227.86 5152.73,6222.31Z" style="fill:rgb(255,209,0);stroke:black;stroke-width:8.33px;"/>
            </g>
        </g>
    </g>
</svg>
