<?xml version="1.0" encoding="UTF-8" standalone="no"?>
<!DOCTYPE svg PUBLIC "-//W3C//DTD SVG 1.1//EN" "http://www.w3.org/Graphics/SVG/1.1/DTD/svg11.dtd">
<svg width="100%" height="100%" viewBox="0 0 600 600" version="1.1" xmlns="http://www.w3.org/2000/svg" xmlns:xlink="http://www.w3.org/1999/xlink" xml:space="preserve" xmlns:serif="http://www.serif.com/" style="fill-rule:evenodd;clip-rule:evenodd;stroke-linecap:round;stroke-linejoin:round;stroke-miterlimit:1.5;">
    <g transform="matrix(1,0,0,1,-1543.45,0)">
        <g id="_3" serif:id="3" transform="matrix(1,0,0,1,1543.45,0)">
            <rect x="0" y="0" width="600" height="600" style="fill:none;"/>
            <g transform="matrix(0.410751,0,0,0.410751,-1830.65,-1852.61)">
                <g transform="matrix(0.72,0,0,1.21242,1272.91,-738.753)">
                    <rect x="4930.48" y="4625.33" width="64.669" height="791.545" style="fill:rgb(136,11,0);stroke:black;stroke-width:12.5px;"/>
                </g>
                <g transform="matrix(0.72,0,0,1.21242,1996.06,-738.753)">
                    <rect x="4930.48" y="4625.33" width="64.669" height="791.545" style="fill:rgb(136,11,0);stroke:black;stroke-width:12.5px;"/>
                </g>
                <g transform="matrix(1,0,0,1,-265.511,-1312.98)">
                    <path d="M5778.86,5942.47C5798.51,6067.8 5977.37,6150.4 6047.95,6112.17C6042.25,6175.79 5981.24,6181.13 5981.24,6181.13C5981.24,6181.13 5723.52,6178.07 5465.39,6174.57C5207.27,6178.07 4949.55,6181.13 4949.55,6181.13C4949.55,6181.13 4888.53,6175.79 4882.83,6112.17C4953.42,6150.4 5132.28,6067.8 5151.92,5942.47L5778.86,5942.47Z" style="fill:rgb(136,11,0);"/>
                    <clipPath id="_clip1">
                        <path d="M5778.86,5942.47C5798.51,6067.8 5977.37,6150.4 6047.95,6112.17C6042.25,6175.79 5981.24,6181.13 5981.24,6181.13C5981.24,6181.13 5723.52,6178.07 5465.39,6174.57C5207.27,6178.07 4949.55,6181.13 4949.55,6181.13C4949.55,6181.13 4888.53,6175.79 4882.83,6112.17C4953.42,6150.4 5132.28,6067.8 5151.92,5942.47L5778.86,5942.47Z"/>
                    </clipPath>
                    <g clip-path="url(#_clip1)">
                        <g transform="matrix(1,0,0,1,367.758,1047.55)">
                            <path d="M4549.41,5057.62C4549.41,5057.62 4667.87,5125.52 4891.06,5066.29C5114.24,5007.06 5266.64,4848.88 5266.64,4848.88" style="fill:none;stroke:rgb(98,8,0);stroke-width:12.5px;"/>
                        </g>
                        <g transform="matrix(1,0,0,1,336.158,996.993)">
                            <path d="M4549.41,5057.62C4549.41,5057.62 4667.87,5125.52 4891.06,5066.29C5114.24,5007.06 5266.64,4848.88 5266.64,4848.88" style="fill:none;stroke:rgb(98,8,0);stroke-width:12.5px;"/>
                        </g>
                        <g transform="matrix(-1,0,0,1,10535,1047.55)">
                            <path d="M4549.41,5057.62C4549.41,5057.62 4667.87,5125.52 4891.06,5066.29C5114.24,5007.06 5266.64,4848.88 5266.64,4848.88" style="fill:none;stroke:rgb(98,8,0);stroke-width:12.5px;"/>
                        </g>
                        <g transform="matrix(-1,0,0,1,10562.1,996.993)">
                            <path d="M4549.41,5057.62C4549.41,5057.62 4667.87,5125.52 4891.06,5066.29C5114.24,5007.06 5266.64,4848.88 5266.64,4848.88" style="fill:none;stroke:rgb(98,8,0);stroke-width:12.5px;"/>
                        </g>
                    </g>
                    <path d="M5778.86,5942.47C5798.51,6067.8 5977.37,6150.4 6047.95,6112.17C6042.25,6175.79 5981.24,6181.13 5981.24,6181.13C5981.24,6181.13 5723.52,6178.07 5465.39,6174.57C5207.27,6178.07 4949.55,6181.13 4949.55,6181.13C4949.55,6181.13 4888.53,6175.79 4882.83,6112.17C4953.42,6150.4 5132.28,6067.8 5151.92,5942.47L5778.86,5942.47Z" style="fill:none;stroke:black;stroke-width:12.5px;"/>
                </g>
                <g transform="matrix(1,0,0,1,-265.511,-1312.98)">
                    <path d="M5906.57,6294.59C5929.89,6377.27 6067.46,6431.77 6151.26,6406.55C6144.49,6448.51 6072.05,6452.04 6072.05,6452.04C6072.05,6452.04 5769.94,6450.04 5465.39,6447.75C5160.85,6450.04 4858.74,6452.04 4858.74,6452.04C4858.74,6452.04 4786.29,6448.51 4779.53,6406.55C4863.33,6431.77 5000.9,6377.27 5024.22,6294.59L5906.57,6294.59Z" style="fill:rgb(136,11,0);"/>
                    <clipPath id="_clip2">
                        <path d="M5906.57,6294.59C5929.89,6377.27 6067.46,6431.77 6151.26,6406.55C6144.49,6448.51 6072.05,6452.04 6072.05,6452.04C6072.05,6452.04 5769.94,6450.04 5465.39,6447.75C5160.85,6450.04 4858.74,6452.04 4858.74,6452.04C4858.74,6452.04 4786.29,6448.51 4779.53,6406.55C4863.33,6431.77 5000.9,6377.27 5024.22,6294.59L5906.57,6294.59Z"/>
                    </clipPath>
                    <g clip-path="url(#_clip2)">
                        <g transform="matrix(1.12516,0,0,1,-283.576,1340.98)">
                            <path d="M4549.41,5057.62C4549.41,5057.62 4667.87,5125.52 4891.06,5066.29C5114.24,5007.06 5266.64,4848.88 5266.64,4848.88" style="fill:none;stroke:rgb(98,8,0);stroke-width:12.5px;"/>
                        </g>
                        <g transform="matrix(1.12516,0,0,1,-319.131,1290.42)">
                            <path d="M4549.41,5057.62C4549.41,5057.62 4667.87,5125.52 4891.06,5066.29C5114.24,5007.06 5266.64,4848.88 5266.64,4848.88" style="fill:none;stroke:rgb(98,8,0);stroke-width:12.5px;"/>
                        </g>
                        <g transform="matrix(-1.12516,0,0,1,11156.2,1340.98)">
                            <path d="M4549.41,5057.62C4549.41,5057.62 4667.87,5125.52 4891.06,5066.29C5114.24,5007.06 5266.64,4848.88 5266.64,4848.88" style="fill:none;stroke:rgb(98,8,0);stroke-width:12.5px;"/>
                        </g>
                        <g transform="matrix(-1.12516,0,0,1,11186.7,1290.42)">
                            <path d="M4549.41,5057.62C4549.41,5057.62 4667.87,5125.52 4891.06,5066.29C5114.24,5007.06 5266.64,4848.88 5266.64,4848.88" style="fill:none;stroke:rgb(98,8,0);stroke-width:12.5px;"/>
                        </g>
                    </g>
                    <path d="M5906.57,6294.59C5929.89,6377.27 6067.46,6431.77 6151.26,6406.55C6144.49,6448.51 6072.05,6452.04 6072.05,6452.04C6072.05,6452.04 5769.94,6450.04 5465.39,6447.75C5160.85,6450.04 4858.74,6452.04 4858.74,6452.04C4858.74,6452.04 4786.29,6448.51 4779.53,6406.55C4863.33,6431.77 5000.9,6377.27 5024.22,6294.59L5906.57,6294.59Z" style="fill:none;stroke:black;stroke-width:12.5px;"/>
                </g>
                <g transform="matrix(1,0,0,1,102.247,-274.453)">
                    <path d="M5714.5,5414.8L5714.5,5485.33" style="fill:none;stroke:black;stroke-width:8.33px;"/>
                </g>
                <g transform="matrix(1,0,0,1,41.5866,-560.827)">
                    <path d="M5714.5,5414.8L5714.5,5485.33" style="fill:none;stroke:black;stroke-width:8.33px;"/>
                </g>
                <g transform="matrix(1,0,0,1,-1074.28,-562.237)">
                    <path d="M5714.5,5414.8L5714.5,5485.33" style="fill:none;stroke:black;stroke-width:8.33px;"/>
                </g>
                <g transform="matrix(1,0,0,1,-1113.78,-273.042)">
                    <path d="M5714.5,5414.8L5714.5,5485.33" style="fill:none;stroke:black;stroke-width:8.33px;"/>
                </g>
                <g transform="matrix(1,0,0,1,156.678,-351.188)">
                    <circle cx="5659.88" cy="5580.5" r="34.67" style="fill:rgb(255,164,0);stroke:black;stroke-width:8.33px;"/>
                </g>
                <g transform="matrix(1,0,0,1,96.373,-637.562)">
                    <circle cx="5659.88" cy="5580.5" r="34.67" style="fill:rgb(255,164,0);stroke:black;stroke-width:8.33px;"/>
                </g>
                <g transform="matrix(1,0,0,1,-1019.66,-638.973)">
                    <circle cx="5659.88" cy="5580.5" r="34.67" style="fill:rgb(255,164,0);stroke:black;stroke-width:8.33px;"/>
                </g>
                <g transform="matrix(1,0,0,1,-1060.53,-349.777)">
                    <circle cx="5659.88" cy="5580.5" r="34.67" style="fill:rgb(255,164,0);stroke:black;stroke-width:8.33px;"/>
                </g>
                <g transform="matrix(0.394133,0,0,1,3586.7,-351.91)">
                    <circle cx="5659.88" cy="5580.5" r="34.67" style="fill:rgb(255,164,0);stroke:black;stroke-width:8.33px;"/>
                </g>
                <g transform="matrix(0.394133,0,0,1,3526.39,-638.103)">
                    <circle cx="5659.88" cy="5580.5" r="34.67" style="fill:rgb(255,164,0);stroke:black;stroke-width:8.33px;"/>
                </g>
                <g transform="matrix(0.394133,0,0,0.967503,2410.36,-457.862)">
                    <circle cx="5659.88" cy="5580.5" r="34.67" style="fill:rgb(255,164,0);stroke:black;stroke-width:8.01px;"/>
                </g>
                <g transform="matrix(0.394133,0,0,0.968265,2369.49,-172.891)">
                    <circle cx="5659.88" cy="5580.5" r="34.67" style="fill:rgb(255,164,0);stroke:black;stroke-width:8.33px;"/>
                </g>
                <g transform="matrix(1,0,0,1,-15.1544,-240.589)">
                    <g transform="matrix(1,0,0,0.586207,0,2470.86)">
                        <rect x="4947.37" y="5971.24" width="568.799" height="49.093" style="fill:rgb(202,202,202);stroke:black;stroke-width:10.17px;"/>
                    </g>
                    <g transform="matrix(1.4291,0,0,0.586207,-2246.37,2557.92)">
                        <rect x="4947.37" y="5971.24" width="568.799" height="49.093" style="fill:rgb(202,202,202);stroke:black;stroke-width:7.63px;"/>
                    </g>
                    <g transform="matrix(1,0,0,0.586207,0,2500.28)">
                        <rect x="4947.37" y="5971.24" width="568.799" height="49.093" style="fill:rgb(202,202,202);stroke:black;stroke-width:10.17px;"/>
                    </g>
                    <g transform="matrix(1.4291,0,0,0.586207,-2246.37,2587.34)">
                        <rect x="4947.37" y="5971.24" width="568.799" height="49.093" style="fill:rgb(202,202,202);stroke:black;stroke-width:7.63px;"/>
                    </g>
                    <g transform="matrix(1,0,0,0.586207,0,2529.53)">
                        <rect x="4947.37" y="5971.24" width="568.799" height="49.093" style="fill:rgb(202,202,202);stroke:black;stroke-width:10.17px;"/>
                    </g>
                    <g transform="matrix(1.4291,0,0,0.586207,-2246.37,2616.59)">
                        <rect x="4947.37" y="5971.24" width="568.799" height="49.093" style="fill:rgb(202,202,202);stroke:black;stroke-width:7.63px;"/>
                    </g>
                    <g transform="matrix(1,0,-0.314082,0.801136,1930.97,1186.68)">
                        <rect x="4876.24" y="5960.34" width="51.311" height="122.037" style="fill:rgb(202,202,202);stroke:black;stroke-width:11.17px;"/>
                    </g>
                    <g transform="matrix(1,0,-0.314082,0.801136,1808.24,1275.05)">
                        <rect x="4876.24" y="5960.34" width="51.311" height="122.037" style="fill:rgb(202,202,202);stroke:black;stroke-width:11.17px;"/>
                    </g>
                    <g transform="matrix(-1,0,0.314082,0.801136,8527.87,1186.68)">
                        <rect x="4876.24" y="5960.34" width="51.311" height="122.037" style="fill:rgb(202,202,202);stroke:black;stroke-width:11.17px;"/>
                    </g>
                    <g transform="matrix(-1,0,0.314082,0.801136,8648.53,1274.36)">
                        <rect x="4876.24" y="5960.34" width="51.311" height="122.037" style="fill:rgb(202,202,202);stroke:black;stroke-width:11.17px;"/>
                    </g>
                </g>
                <g transform="matrix(-0.600945,0,0,0.600945,12109.2,2992.06)">
                    <g transform="matrix(-0.328438,0,0,0.328438,12031,4003.15)">
                        <path d="M2279.67,511.904C2283.15,491.051 2325.81,459.166 2343.54,451.945C2559.26,364.088 2483.64,611.456 2358.06,601.659" style="fill:rgb(97,224,238);"/>
                        <path d="M2304.7,516.075C2304.88,515.003 2305.92,514.071 2306.77,512.845C2309.26,509.272 2312.59,505.624 2316.27,502.031C2328.41,490.188 2344.35,479.012 2353.11,475.444C2381.6,463.842 2404.22,458.492 2421.88,458.41C2433.69,458.355 2442.47,460.424 2448,465.718C2452.26,469.796 2453.91,475.587 2454.33,481.873C2454.95,491.361 2452.65,501.87 2448.44,512.309C2434.92,545.837 2401.43,579.593 2360.03,576.364C2346.07,575.275 2333.86,585.725 2332.76,599.686C2331.68,613.647 2342.13,625.866 2356.09,626.955C2420.19,631.956 2474.55,583.219 2495.5,531.292C2511.34,492.019 2507.27,452.211 2483.09,429.061C2460.14,407.089 2413.02,396.254 2333.97,428.447C2319.33,434.411 2290.08,454.38 2272.55,474.417C2262.51,485.893 2256.29,497.868 2254.64,507.733C2252.34,521.546 2261.69,534.629 2275.5,536.931C2289.31,539.234 2302.4,529.888 2304.7,516.075Z"/>
                    </g>
                    <g transform="matrix(-0.566314,-0.262304,0.262304,-0.566314,13170.8,5504.57)">
                        <path d="M2787.51,613.28C2787.51,613.28 2876.01,567.95 2927.82,598.17C2979.63,628.39 2964.52,678.037 2919.19,671.562C2873.86,665.086 2830.68,662.927 2802.62,686.672C2774.56,710.416 2731.39,641.342 2787.51,613.28Z" style="fill:rgb(214,194,149);stroke:black;stroke-width:20.03px;"/>
                    </g>
                    <g transform="matrix(-0.942368,0,0,0.942368,14436.3,3155.91)">
                        <path d="M3077.27,879.49C3077.27,879.49 3108.11,847.368 3119.67,925.745" style="fill:none;stroke:rgb(97,224,238);stroke-width:13.26px;"/>
                    </g>
                    <g transform="matrix(0.942368,0,0,0.942368,8535.95,3148.64)">
                        <path d="M3077.27,879.49C3077.27,879.49 3106.83,848.653 3117.1,929.6" style="fill:none;stroke:rgb(97,224,238);stroke-width:13.26px;"/>
                    </g>
                    <g transform="matrix(-0.69691,0.19324,0.19324,0.69691,13486.4,2745.37)">
                        <path d="M3077.27,879.49C3077.27,879.49 3113.14,839.637 3136.24,954.162" style="fill:none;stroke:rgb(97,224,238);stroke-width:17.28px;"/>
                    </g>
                    <g transform="matrix(-0.0699007,-0.620185,-0.620185,0.0699007,12163.7,6412.13)">
                        <path d="M2787.51,613.28C2787.51,613.28 2876.01,567.95 2927.82,598.17C2979.63,628.39 2964.52,678.037 2919.19,671.562C2873.86,665.086 2830.68,662.927 2802.62,686.672C2774.56,710.416 2731.39,641.342 2787.51,613.28Z" style="fill:rgb(214,194,149);stroke:black;stroke-width:20.03px;"/>
                    </g>
                    <g transform="matrix(-0.0520681,-0.621936,0.621936,-0.0520681,11152,6497.08)">
                        <path d="M2787.51,613.28C2787.51,613.28 2876.01,567.95 2927.82,598.17C2979.63,628.39 2964.52,678.037 2919.19,671.562C2873.86,665.086 2830.68,662.927 2802.62,686.672C2774.56,710.416 2731.39,641.342 2787.51,613.28Z" style="fill:rgb(214,194,149);stroke:black;stroke-width:20.03px;"/>
                    </g>
                    <g transform="matrix(0.164219,-0.284435,-0.284435,-0.164219,11428.5,4853.5)">
                        <path d="M2301.37,493.302C2304.85,472.448 2326.32,460.207 2344.05,452.986C2559.76,365.129 2483.64,611.456 2358.06,601.659" style="fill:rgb(97,224,238);"/>
                        <path d="M2326.4,497.473C2327.1,493.26 2330.21,490.312 2333.45,487.657C2339.48,482.712 2346.94,479.203 2353.62,476.485C2382.12,464.875 2404.75,459.505 2422.41,459.388C2434.18,459.31 2442.93,461.323 2448.43,466.569C2452.62,470.566 2454.23,476.255 2454.62,482.428C2455.22,491.836 2452.89,502.259 2448.67,512.616C2435.06,545.996 2401.45,579.594 2360.03,576.364C2346.07,575.275 2333.86,585.725 2332.76,599.686C2331.68,613.647 2342.13,625.866 2356.09,626.955C2420.17,631.954 2474.59,583.427 2495.66,531.779C2511.64,492.594 2507.62,452.888 2483.45,429.843C2460.58,408.035 2413.51,397.3 2334.48,429.488C2309.32,439.732 2281.28,459.546 2276.35,489.13C2274.05,502.943 2283.39,516.027 2297.2,518.329C2311.02,520.631 2324.1,511.286 2326.4,497.473Z"/>
                    </g>
                    <g transform="matrix(-0.48568,-5.94787e-17,5.94787e-17,-0.48568,12440.4,4931.37)">
                        <path d="M1602.28,658.224C1602.28,658.224 1537.63,785.329 1549.85,894.354C1588.09,1235.66 1487.62,1302.63 1526.9,1510.82C1540.54,1583.11 1566.32,1665.45 1610.23,1725.3C1706.72,1856.83 1892.19,1925.15 2053.51,1894.26C2118.1,1881.89 2176.43,1853.93 2234.15,1823.26C2434.98,1716.58 2476.71,1491.41 2450.61,1301.63C2439.06,1217.62 2366.83,1086.68 2377.39,1002.44C2399.42,826.82 2393.26,731.764 2338.43,618.483C2291.7,521.934 2109.83,449.196 1911,469.87C1877.12,473.393 1674.41,508.918 1602.28,658.224Z" style="fill:rgb(97,224,238);"/>
                        <clipPath id="_clip3">
                            <path d="M1602.28,658.224C1602.28,658.224 1537.63,785.329 1549.85,894.354C1588.09,1235.66 1487.62,1302.63 1526.9,1510.82C1540.54,1583.11 1566.32,1665.45 1610.23,1725.3C1706.72,1856.83 1892.19,1925.15 2053.51,1894.26C2118.1,1881.89 2176.43,1853.93 2234.15,1823.26C2434.98,1716.58 2476.71,1491.41 2450.61,1301.63C2439.06,1217.62 2366.83,1086.68 2377.39,1002.44C2399.42,826.82 2393.26,731.764 2338.43,618.483C2291.7,521.934 2109.83,449.196 1911,469.87C1877.12,473.393 1674.41,508.918 1602.28,658.224Z"/>
                        </clipPath>
                        <g clip-path="url(#_clip3)">
                            <g transform="matrix(1.58206,-1.93747e-16,-1.93747e-16,-1.58206,-849.364,3866.96)">
                                <path d="M2003.37,1344.04C2003.37,1344.04 2045.52,1446.83 2019.82,1530.09C1994.12,1613.34 1948.89,1729.5 1956.09,1845.65C1963.28,1961.8 1950.95,2036.84 1925.25,2069.73C1873.36,2136.16 1732.01,2145.79 1696.03,2135.51C1660.05,2125.24 1837.88,2172.52 1939.64,2131.4C2041.4,2090.29 2055.79,1917.6 2042.43,1809.67C2029.07,1701.74 2115.41,1670.91 2086.63,1484.86C2040.38,1375.9 2039.35,1382.07 2003.37,1344.04Z" style="fill:rgb(79,203,224);"/>
                            </g>
                            <g transform="matrix(1.58206,-1.93747e-16,-1.93747e-16,-1.58206,-822.199,3866.96)">
                                <path d="M1816.44,1503.57C1816.44,1503.57 1829.07,1566.72 1904.33,1563.04C1979.59,1559.36 1984.85,1482.52 1984.85,1482.52L1816.44,1503.57Z" style="fill:rgb(79,203,224);"/>
                            </g>
                            <g transform="matrix(1.58206,-1.93747e-16,-1.93747e-16,-1.58206,-1331.45,3917.75)">
                                <path d="M1816.44,1503.57C1816.44,1503.57 1829.07,1566.72 1904.33,1563.04C1979.59,1559.36 1984.85,1482.52 1984.85,1482.52L1816.44,1503.57Z" style="fill:rgb(79,203,224);"/>
                            </g>
                        </g>
                        <path d="M1586.83,650.76C1617.31,587.666 1669.65,543.59 1724.03,513.433C1804.06,469.05 1888.16,454.995 1909.22,452.804C2032.07,440.031 2148.59,462.087 2232.58,503.089C2290.97,531.601 2333.8,569.529 2353.87,611.008C2410.08,727.143 2417,824.531 2394.42,1004.57C2389.4,1044.58 2404.69,1095.56 2421.96,1146.63C2440.52,1201.51 2461.71,1256.42 2467.61,1299.29C2494.61,1495.65 2450,1728.03 2242.2,1838.42C2182.96,1869.89 2123.03,1898.42 2056.74,1911.11C1889.18,1943.2 1696.62,1872.06 1596.39,1735.45C1551.04,1673.63 1524.13,1588.68 1510.04,1514C1493.87,1428.29 1500.6,1365.83 1512.12,1299.26C1528.7,1203.39 1555.47,1098.63 1532.79,896.265C1520.08,782.804 1586.99,650.445 1586.99,650.445L1586.83,650.76ZM1617.57,666.003C1617.57,666.003 1555.18,787.854 1566.9,892.444C1586.28,1065.46 1570.51,1168.94 1554.87,1255.56C1539.82,1338.93 1524.6,1406.05 1543.76,1507.64C1556.95,1577.55 1581.6,1657.28 1624.06,1715.15C1716.83,1841.6 1895.19,1907.11 2050.28,1877.41C2113.18,1865.37 2169.9,1837.97 2226.1,1808.11C2419.97,1705.12 2458.81,1487.17 2433.61,1303.97C2426.78,1254.29 2398.22,1188.03 2378.87,1124.99C2364.99,1079.76 2355.89,1036.04 2360.37,1000.3C2381.84,829.108 2376.43,736.386 2322.98,625.959C2305.68,590.198 2267.87,558.507 2217.52,533.927C2138.39,495.292 2028.53,474.9 1912.77,486.936C1893.19,488.973 1815.07,502.187 1740.67,543.443C1692.1,570.378 1644.95,609.336 1617.73,665.687L1617.57,666.003Z"/>
                    </g>
                    <g transform="matrix(-0.244289,-2.99168e-17,2.3886e-17,-0.195044,11977,4754.25)">
                        <path d="M1949.25,437.086C1546.42,524.992 1450.76,759.917 1427.56,867.142C1383.84,1069.12 1362.66,1460.63 1401.94,1668.83C1415.58,1741.12 1441.36,1823.46 1485.27,1883.31C1581.76,2014.84 2013.3,2026.28 2174.62,1995.39C2239.21,1983.02 2297.53,1955.05 2355.26,1924.39C2556.09,1817.7 2625.17,583.75 2244.02,463.384C2142.23,431.238 2013.17,423.135 1949.25,437.086Z" style="fill:rgb(183,248,255);"/>
                    </g>
                    <g transform="matrix(-0.48568,0,0,0.48568,12520.9,3859.47)">
                        <circle cx="1749.06" cy="789.086" r="14.17" style="fill:rgb(183,248,255);"/>
                    </g>
                    <g transform="matrix(-0.48568,0,0,0.48568,12179.2,3871.97)">
                        <circle cx="1749.06" cy="789.086" r="14.17" style="fill:rgb(183,248,255);"/>
                    </g>
                    <g transform="matrix(-0.768377,0,0,0.768377,13636.7,3025.04)">
                        <g transform="matrix(0.624307,-0.0988623,0.109957,0.694372,1402.01,1222.31)">
                            <path d="M1960.41,874.118C1963.57,893.086 1961.3,928.116 1971.79,944.361C1976.87,952.237 1989.75,953.613 1998.14,954.513C2046.33,959.682 2049.89,915.114 2060.81,876.97" style="fill:rgb(237,237,237);"/>
                            <path d="M1947.68,875.833C1949.56,887.102 1949.48,904.097 1951.37,919.364C1952.87,931.443 1955.73,942.534 1960.66,950.17C1964.09,955.48 1969.43,959.242 1975.73,961.696C1982.52,964.337 1990.52,965.348 1996.61,966.001C2012.18,967.671 2024.08,965.013 2033.49,959.783C2042.77,954.625 2049.74,946.782 2055.02,937.056C2063.63,921.171 2067.59,899.702 2073.28,879.855C2075.05,873.671 2070.9,867.358 2064.02,865.766C2057.14,864.174 2050.12,867.902 2048.35,874.086C2043.11,892.382 2039.83,912.268 2031.88,926.912C2028.88,932.45 2025.24,937.163 2019.96,940.1C2014.8,942.965 2008.19,943.939 1999.66,943.024C1996.19,942.652 1991.78,942.248 1987.72,941.055C1985.87,940.511 1983.88,940.041 1982.92,938.553C1979.46,933.191 1978.01,925.277 1976.95,916.796C1975.02,901.226 1975.05,883.896 1973.14,872.404C1972.09,866.088 1965.53,861.73 1958.5,862.676C1951.48,863.622 1946.63,869.518 1947.68,875.833Z"/>
                        </g>
                        <g transform="matrix(0.676451,0.0416125,-0.0481144,0.782146,1960.61,968.001)">
                            <ellipse cx="1221.96" cy="702.82" rx="66.462" ry="36.543"/>
                        </g>
                        <g transform="matrix(0.621633,0.114474,-0.114474,0.621633,2092.68,1002.77)">
                            <path d="M1179.05,724.966C1182.55,745.991 1182.67,766.767 1184.92,787.826C1185.68,794.888 1192.03,800.006 1199.09,799.249C1206.15,798.492 1211.27,792.144 1210.51,785.082C1208.2,763.523 1208.02,742.26 1204.43,720.734C1203.27,713.729 1196.63,708.989 1189.63,710.157C1182.62,711.324 1177.88,717.96 1179.05,724.966Z"/>
                        </g>
                        <g transform="matrix(0.631188,0.0336753,-0.0336753,0.631188,2025.37,1092.08)">
                            <path d="M1087.85,789.004C1129.7,809.929 1169.24,816.423 1205.94,809.13C1242.65,801.838 1276.75,780.716 1307.49,745.256C1312.14,739.89 1311.56,731.756 1306.19,727.104C1300.82,722.452 1292.69,723.032 1288.04,728.399C1261.58,758.928 1232.53,777.608 1200.93,783.887C1169.33,790.165 1135.39,783.999 1099.36,765.984C1093.01,762.808 1085.27,765.387 1082.09,771.739C1078.92,778.092 1081.5,785.828 1087.85,789.004Z"/>
                        </g>
                        <g transform="matrix(0.734444,-0.222559,0.222559,0.734444,569.292,1743.65)">
                            <ellipse cx="2765.83" cy="286.812" rx="23.313" ry="12.088" style="fill:rgb(183,248,255);"/>
                        </g>
                        <g transform="matrix(0.493537,0.587674,-0.587674,0.493537,1802.93,-389.275)">
                            <ellipse cx="2765.83" cy="286.812" rx="23.313" ry="12.088" style="fill:rgb(183,248,255);"/>
                        </g>
                        <g transform="matrix(1.18978,-0.169438,0.169438,1.18978,1245.06,999.679)">
                            <circle cx="1071.81" cy="534.398" r="76.669" style="fill:white;stroke:black;stroke-width:13.54px;"/>
                        </g>
                        <g transform="matrix(1.18978,-0.169438,0.169438,1.18978,1569.81,1026.66)">
                            <circle cx="1071.81" cy="534.398" r="76.669" style="fill:white;stroke:black;stroke-width:13.54px;"/>
                        </g>
                        <g transform="matrix(1.48707,2.47749,-2.47749,1.48707,2406.27,-1951.08)">
                            <circle cx="1044.8" cy="535.269" r="11.326"/>
                        </g>
                        <g transform="matrix(2.86066,-0.40739,0.40739,2.86066,-290.518,352.903)">
                            <circle cx="1044.8" cy="535.269" r="11.326"/>
                        </g>
                        <g transform="matrix(0.417164,0.695001,-0.695001,0.417164,1807.1,-413.418)">
                            <circle cx="2472.68" cy="285.194" r="11.336" style="fill:white;"/>
                        </g>
                        <g transform="matrix(0.802491,-0.114284,0.114284,0.802491,893.438,1502.54)">
                            <circle cx="2472.68" cy="285.194" r="11.336" style="fill:white;"/>
                        </g>
                    </g>
                    <g transform="matrix(0.542261,-0.308979,-0.308979,-0.542261,9900.93,5662.79)">
                        <path d="M2787.51,613.28C2787.51,613.28 2876.01,567.95 2927.82,598.17C2979.63,628.39 2964.52,678.037 2919.19,671.562C2873.86,665.086 2830.68,662.927 2802.62,686.672C2774.56,710.416 2731.39,641.342 2787.51,613.28Z" style="fill:rgb(214,194,149);stroke:black;stroke-width:20.03px;"/>
                    </g>
                </g>
            </g>
        </g>
    </g>
</svg>
