<?xml version="1.0" encoding="UTF-8" standalone="no"?>
<!DOCTYPE svg PUBLIC "-//W3C//DTD SVG 1.1//EN" "http://www.w3.org/Graphics/SVG/1.1/DTD/svg11.dtd">
<svg width="100%" height="100%" viewBox="0 0 600 600" version="1.1" xmlns="http://www.w3.org/2000/svg" xmlns:xlink="http://www.w3.org/1999/xlink" xml:space="preserve" xmlns:serif="http://www.serif.com/" style="fill-rule:evenodd;clip-rule:evenodd;stroke-linecap:round;stroke-linejoin:round;stroke-miterlimit:1.5;">
    <g transform="matrix(1,0,0,1,-2303.37,0)">
        <g id="_4" serif:id="4" transform="matrix(1,0,0,1,2303.37,0)">
            <rect x="0" y="0" width="600" height="600" style="fill:none;"/>
            <g transform="matrix(0.42148,0,0,0.420214,-1904.6,-2298.12)">
                <g transform="matrix(-1.35768,0,0,1.35768,26875.9,-7515.21)">
                    <g transform="matrix(0.580157,0.230072,0.230072,-0.580157,14145.1,9875.49)">
                        <path d="M2787.51,613.28C2787.51,613.28 2876.01,567.95 2927.82,598.17C2979.63,628.39 2964.52,678.037 2919.19,671.562C2873.86,665.086 2830.68,662.927 2802.62,686.672C2774.56,710.416 2731.39,641.342 2787.51,613.28Z" style="fill:rgb(214,194,149);stroke:black;stroke-width:20.03px;"/>
                    </g>
                    <g transform="matrix(0.942368,0,0,0.942368,13212.4,8910.65)">
                        <path d="M3077.27,879.49C3077.27,879.49 3108.11,847.368 3119.67,925.745" style="fill:none;stroke:rgb(97,224,238);stroke-width:13.26px;"/>
                    </g>
                    <g transform="matrix(-0.942368,0,0,0.942368,19112.8,8903.39)">
                        <path d="M3077.27,879.49C3077.27,879.49 3106.83,848.653 3117.1,929.6" style="fill:none;stroke:rgb(97,224,238);stroke-width:13.26px;"/>
                    </g>
                    <g transform="matrix(0.69691,0.19324,-0.19324,0.69691,14162.4,8500.11)">
                        <path d="M3077.27,879.49C3077.27,879.49 3113.14,839.637 3136.24,954.162" style="fill:none;stroke:rgb(97,224,238);stroke-width:17.28px;"/>
                    </g>
                    <g transform="matrix(0.31441,-0.53913,0.53913,0.31441,14785.7,11751.1)">
                        <path d="M2787.51,613.28C2787.51,613.28 2876.01,567.95 2927.82,598.17C2979.63,628.39 2964.52,678.037 2919.19,671.562C2873.86,665.086 2830.68,662.927 2802.62,686.672C2774.56,710.416 2731.39,641.342 2787.51,613.28Z" style="fill:rgb(214,194,149);stroke:black;stroke-width:20.03px;"/>
                    </g>
                    <g transform="matrix(-0.402659,-0.476845,-0.476845,0.402659,17763.7,11521.6)">
                        <path d="M2787.51,613.28C2787.51,613.28 2876.01,567.95 2927.82,598.17C2979.63,628.39 2964.52,678.037 2919.19,671.562C2873.86,665.086 2830.68,662.927 2802.62,686.672C2774.56,710.416 2731.39,641.342 2787.51,613.28Z" style="fill:rgb(214,194,149);stroke:black;stroke-width:20.03px;"/>
                    </g>
                    <g transform="matrix(0.328438,0,0,0.328438,15617.7,9757.89)">
                        <path d="M2279.67,511.904C2283.15,491.051 2325.81,459.166 2343.54,451.945C2559.26,364.088 2483.64,611.456 2358.06,601.659" style="fill:rgb(97,224,238);"/>
                        <path d="M2254.68,507.714C2256.33,497.841 2262.56,485.85 2272.61,474.363C2290.13,454.33 2319.37,434.364 2334.01,428.401C2413.01,396.228 2460.1,407.049 2483.04,429.007C2507.24,452.179 2511.31,492.022 2495.46,531.331C2474.51,583.245 2420.19,631.993 2356.1,626.994C2342.16,625.906 2331.72,613.671 2332.8,599.689C2333.89,585.707 2346.09,575.238 2360.03,576.325C2401.43,579.555 2434.96,545.81 2448.49,512.27C2452.69,501.847 2454.99,491.354 2454.36,481.881C2453.95,475.612 2452.3,469.838 2448.05,465.772C2442.51,460.466 2433.72,458.394 2421.88,458.448C2404.21,458.53 2381.58,463.881 2353.08,475.489C2344.31,479.059 2328.36,490.237 2316.21,502.085C2312.53,505.677 2309.21,509.324 2306.72,512.897C2305.88,514.112 2304.84,515.031 2304.66,516.094C2302.35,529.926 2289.29,539.279 2275.49,536.967C2261.7,534.655 2252.38,521.547 2254.68,507.714Z"/>
                    </g>
                    <g transform="matrix(-0.164219,-0.284435,0.284435,-0.164219,16220.2,10608.2)">
                        <path d="M2301.37,493.302C2304.85,472.448 2326.32,460.207 2344.05,452.986C2559.76,365.129 2483.64,611.456 2358.06,601.659" style="fill:rgb(97,224,238);"/>
                        <path d="M2276.36,489.082C2281.28,459.538 2309.3,439.768 2334.42,429.537C2413.46,397.345 2460.55,408.104 2483.43,429.916C2507.58,452.947 2511.62,492.637 2495.65,531.799C2474.6,583.417 2420.2,631.899 2356.15,626.903C2342.2,625.814 2331.72,613.619 2332.78,599.687C2333.83,585.754 2346.01,575.327 2359.97,576.416C2401.43,579.649 2435.05,546.006 2448.67,512.595C2452.9,502.221 2455.23,491.781 2454.63,482.357C2454.24,476.184 2452.64,470.493 2448.45,466.497C2442.96,461.26 2434.23,459.258 2422.47,459.336C2404.81,459.453 2382.19,464.824 2353.68,476.435C2347,479.156 2339.53,482.671 2333.48,487.622C2330.22,490.298 2327.1,493.275 2326.39,497.521C2324.09,511.301 2311.02,520.597 2297.21,518.268C2283.41,515.939 2274.06,502.861 2276.36,489.082Z"/>
                    </g>
                    <g transform="matrix(0.48568,-5.94787e-17,-5.94787e-17,-0.48568,15208.4,10686.1)">
                        <path d="M1602.28,658.224C1602.28,658.224 1537.63,785.329 1549.85,894.354C1588.09,1235.66 1487.62,1302.63 1526.9,1510.82C1540.54,1583.11 1566.32,1665.45 1610.23,1725.3C1706.72,1856.83 1892.19,1925.15 2053.51,1894.26C2118.1,1881.89 2176.43,1853.93 2234.15,1823.26C2434.98,1716.58 2476.71,1491.41 2450.61,1301.63C2439.06,1217.62 2366.83,1086.68 2377.39,1002.44C2399.42,826.82 2393.26,731.764 2338.43,618.483C2291.7,521.934 2109.83,449.196 1911,469.87C1877.12,473.393 1674.41,508.918 1602.28,658.224Z" style="fill:rgb(97,224,238);"/>
                        <clipPath id="_clip1">
                            <path d="M1602.28,658.224C1602.28,658.224 1537.63,785.329 1549.85,894.354C1588.09,1235.66 1487.62,1302.63 1526.9,1510.82C1540.54,1583.11 1566.32,1665.45 1610.23,1725.3C1706.72,1856.83 1892.19,1925.15 2053.51,1894.26C2118.1,1881.89 2176.43,1853.93 2234.15,1823.26C2434.98,1716.58 2476.71,1491.41 2450.61,1301.63C2439.06,1217.62 2366.83,1086.68 2377.39,1002.44C2399.42,826.82 2393.26,731.764 2338.43,618.483C2291.7,521.934 2109.83,449.196 1911,469.87C1877.12,473.393 1674.41,508.918 1602.28,658.224Z"/>
                        </clipPath>
                        <g clip-path="url(#_clip1)">
                            <g transform="matrix(1.58206,-1.93747e-16,-1.93747e-16,-1.58206,-849.364,3866.96)">
                                <path d="M2003.37,1344.04C2003.37,1344.04 2046.61,1399.62 2034.91,1485.96C2017.34,1615.67 1962.83,1587.84 1966.54,1821.27C1968.39,1937.63 1975.33,2007.81 1924.09,2077.86C1874.32,2145.89 1732.01,2145.79 1696.03,2135.51C1660.05,2125.24 1837.88,2172.52 1939.64,2131.4C2041.4,2090.29 2055.79,1917.6 2042.43,1809.67C2029.07,1701.74 2115.41,1670.91 2086.63,1484.86C2040.38,1375.9 2039.35,1382.07 2003.37,1344.04Z" style="fill:rgb(79,203,224);"/>
                            </g>
                            <g transform="matrix(1.58206,-1.93747e-16,-1.93747e-16,-1.58206,-822.199,3866.96)">
                                <path d="M1816.44,1503.57C1816.44,1503.57 1829.07,1566.72 1904.33,1563.04C1979.59,1559.36 1984.85,1482.52 1984.85,1482.52L1816.44,1503.57Z" style="fill:rgb(79,203,224);"/>
                            </g>
                            <g transform="matrix(1.58206,-1.93747e-16,-1.93747e-16,-1.58206,-1331.45,3917.75)">
                                <path d="M1816.44,1503.57C1816.44,1503.57 1829.07,1566.72 1904.33,1563.04C1979.59,1559.36 1984.85,1482.52 1984.85,1482.52L1816.44,1503.57Z" style="fill:rgb(79,203,224);"/>
                            </g>
                        </g>
                        <path d="M1587.02,650.414C1587.02,650.414 1520.1,782.795 1532.82,896.274C1555.49,1098.62 1528.72,1203.38 1512.14,1299.25C1500.63,1365.83 1493.89,1428.29 1510.07,1514.02C1524.16,1588.7 1551.07,1673.65 1596.43,1735.48C1696.64,1872.08 1889.18,1943.22 2056.72,1911.14C2123.01,1898.45 2182.93,1869.92 2242.17,1838.45C2449.98,1728.05 2494.59,1495.66 2467.58,1299.28C2461.69,1256.4 2440.49,1201.49 2421.93,1146.6C2404.67,1095.54 2389.37,1044.58 2394.39,1004.58C2416.98,824.523 2410.06,727.125 2353.84,610.978C2333.76,569.5 2290.94,531.568 2232.55,503.057C2148.57,462.06 2032.06,440.006 1909.23,452.778C1888.17,454.968 1804.08,469.022 1724.06,513.399C1669.68,543.557 1617.34,587.636 1586.86,650.731L1587.02,650.414ZM1617.54,666.033C1617.6,665.928 1617.65,665.823 1617.7,665.717C1644.92,609.366 1692.07,570.411 1740.64,543.476C1815.05,502.214 1893.18,488.999 1912.77,486.962C2028.53,474.925 2138.4,495.319 2217.55,533.959C2267.9,558.54 2305.71,590.227 2323.02,625.988C2376.46,736.404 2381.87,829.116 2360.39,1000.29C2355.91,1036.04 2365.02,1079.77 2378.9,1125.01C2398.24,1188.05 2426.81,1254.31 2433.64,1303.98C2458.83,1487.16 2419.99,1705.1 2226.13,1808.08C2169.92,1837.94 2113.2,1865.34 2050.3,1877.38C1895.19,1907.08 1716.8,1841.58 1624.03,1715.12C1581.57,1657.25 1556.92,1577.53 1543.74,1507.63C1524.57,1406.05 1539.79,1338.93 1554.84,1255.57C1570.49,1168.95 1586.26,1065.46 1566.87,892.435C1555.15,787.863 1617.54,666.033 1617.54,666.033Z"/>
                    </g>
                    <g transform="matrix(0.244289,-2.99168e-17,-2.3886e-17,-0.195044,15671.7,10509)">
                        <path d="M2244.02,463.384C1568.86,266.571 1450.76,759.917 1427.56,867.142C1383.84,1069.12 1362.66,1460.63 1401.94,1668.83C1415.58,1741.12 1441.36,1823.46 1485.27,1883.31C1581.76,2014.84 2013.3,2026.28 2174.62,1995.39C2239.21,1983.02 2297.53,1955.05 2355.26,1924.39C2556.09,1817.7 2626.87,574.985 2244.02,463.384Z" style="fill:rgb(183,248,255);"/>
                    </g>
                    <g transform="matrix(0.48568,0,0,0.48568,15127.8,9614.21)">
                        <circle cx="1749.06" cy="789.086" r="14.17" style="fill:rgb(183,248,255);"/>
                    </g>
                    <g transform="matrix(0.48568,0,0,0.48568,15469.5,9626.71)">
                        <circle cx="1749.06" cy="789.086" r="14.17" style="fill:rgb(183,248,255);"/>
                    </g>
                    <g transform="matrix(-1,0,0,1,18837.3,8077.68)">
                        <g transform="matrix(0.985246,-0.171146,0.171146,0.985246,-447.439,360.873)">
                            <path d="M2697.43,2116.08C2715.38,2062.23 2778.63,2074.96 2821.8,2102.72C2864.97,2130.47 2886.56,2080.1 2919.45,2098.61C2952.35,2117.11 2899.92,2209.62 2825.91,2216.81C2751.91,2224.01 2680.98,2165.42 2697.43,2116.08Z"/>
                        </g>
                        <g transform="matrix(-0.768377,0,0,0.768377,4824.64,703.814)">
                            <g transform="matrix(0.631927,-0.0141535,0.015742,0.702848,1469.43,1050.75)">
                                <path d="M1960.41,874.118C1963.57,893.086 1961.3,928.116 1971.79,944.361C1976.87,952.237 1989.75,953.613 1998.14,954.513C2046.33,959.682 2049.89,915.114 2060.81,876.97" style="fill:rgb(237,237,237);"/>
                                <path d="M1973.12,872.395C1975.03,883.888 1975,901.219 1976.93,916.789C1977.98,925.263 1979.43,933.173 1982.89,938.53C1983.86,940.022 1985.85,940.491 1987.71,941.037C1991.77,942.23 1996.18,942.635 1999.66,943.008C2008.2,943.924 2014.82,942.948 2019.98,940.078C2025.27,937.142 2028.91,932.43 2031.91,926.893C2039.85,912.252 2043.13,892.369 2048.37,874.075C2050.15,867.883 2057.16,864.153 2064.03,865.752C2070.89,867.35 2075.03,873.674 2073.25,879.866C2067.57,899.715 2063.61,921.188 2054.99,937.074C2049.72,946.802 2042.75,954.646 2033.47,959.805C2024.06,965.03 2012.17,967.687 1996.62,966.018C1990.53,965.365 1982.54,964.355 1975.75,961.716C1969.45,959.263 1964.11,955.5 1960.69,950.192C1955.75,942.552 1952.9,931.457 1951.39,919.371C1949.5,904.105 1949.58,887.11 1947.7,875.842C1946.65,869.518 1951.49,863.612 1958.5,862.661C1965.51,861.71 1972.06,866.071 1973.12,872.395Z"/>
                            </g>
                            <g transform="matrix(0.676451,0.0416125,-0.0481144,0.782146,1960.61,968.001)">
                                <ellipse cx="1221.96" cy="702.82" rx="66.462" ry="36.543"/>
                            </g>
                            <g transform="matrix(0.621633,0.114474,-0.114474,0.621633,2092.68,1002.77)">
                                <path d="M1204.41,720.74C1208,742.266 1208.18,763.531 1210.49,785.09C1211.25,792.159 1206.14,798.509 1199.09,799.261C1192.04,800.014 1185.71,794.886 1184.95,787.817C1182.69,766.76 1182.58,745.985 1179.07,724.96C1177.9,717.947 1182.63,711.309 1189.62,710.144C1196.62,708.98 1203.24,713.728 1204.41,720.74Z"/>
                            </g>
                            <g transform="matrix(0.734444,-0.222559,0.222559,0.734444,569.292,1743.65)">
                                <ellipse cx="2765.83" cy="286.812" rx="23.313" ry="12.088" style="fill:rgb(183,248,255);"/>
                            </g>
                            <g transform="matrix(0.493537,0.587674,-0.587674,0.493537,1802.93,-389.275)">
                                <ellipse cx="2765.83" cy="286.812" rx="23.313" ry="12.088" style="fill:rgb(183,248,255);"/>
                            </g>
                            <g transform="matrix(1.18978,-0.169438,0.169438,1.18978,1245.06,999.679)">
                                <circle cx="1071.81" cy="534.398" r="76.669" style="fill:white;stroke:black;stroke-width:13.54px;"/>
                            </g>
                            <g transform="matrix(2.86066,-0.40739,0.40739,2.86066,-594.439,360.241)">
                                <circle cx="1044.8" cy="535.269" r="11.326"/>
                            </g>
                            <g transform="matrix(0.802491,-0.114284,0.114284,0.802491,606.435,1525.49)">
                                <circle cx="2472.68" cy="285.194" r="11.336" style="fill:white;"/>
                            </g>
                            <g transform="matrix(1.18978,-0.169438,0.169438,1.18978,1569.81,1026.66)">
                                <circle cx="1071.81" cy="534.398" r="76.669" style="fill:white;stroke:black;stroke-width:13.54px;"/>
                            </g>
                            <g transform="matrix(2.86066,-0.40739,0.40739,2.86066,-269.391,386.153)">
                                <circle cx="1044.8" cy="535.269" r="11.326"/>
                            </g>
                            <g transform="matrix(0.802491,-0.114284,0.114284,0.802491,931.483,1548.8)">
                                <circle cx="2472.68" cy="285.194" r="11.336" style="fill:white;"/>
                            </g>
                        </g>
                    </g>
                </g>
                <g transform="matrix(0.382328,0.924027,-0.924027,0.382328,9386.24,-554.063)">
                    <path d="M4707.61,5778.75C4707.61,5773.65 4703.46,5769.51 4698.35,5769.51L4679.84,5769.51C4674.73,5769.51 4670.58,5773.65 4670.58,5778.75L4670.58,6921.46C4670.58,6926.56 4674.73,6930.7 4679.84,6930.7L4698.35,6930.7C4703.46,6930.7 4707.61,6926.56 4707.61,6921.46L4707.61,5778.75Z" style="fill:rgb(184,100,0);stroke:black;stroke-width:12.5px;"/>
                </g>
                <g transform="matrix(-0.74282,-0.40769,-0.40769,0.74282,7274.71,7059.48)">
                    <path d="M2787.51,613.28C2787.51,613.28 2876.01,567.95 2927.82,598.17C2979.63,628.39 2964.52,678.037 2919.19,671.562C2873.86,665.086 2830.68,662.927 2802.62,686.672C2774.56,710.416 2731.39,641.342 2787.51,613.28Z" style="fill:rgb(214,194,149);stroke:black;stroke-width:20.03px;"/>
                </g>
                <g transform="matrix(1,0,0,1,588.261,120.942)">
                    <path d="M5081.13,6501.36L5081.13,6433.9" style="fill:none;stroke:rgb(255,164,0);stroke-width:12.5px;"/>
                </g>
                <g transform="matrix(1,0,0,1,705.417,119.167)">
                    <path d="M5081.13,6501.36L5081.13,6433.9" style="fill:none;stroke:rgb(255,164,0);stroke-width:12.5px;"/>
                </g>
                <g transform="matrix(1,0,0,1,617.55,120.499)">
                    <path d="M5081.13,6540.85L5081.13,6433.9" style="fill:none;stroke:rgb(255,164,0);stroke-width:12.5px;"/>
                </g>
                <g transform="matrix(1,0,0,1,646.839,61.477)">
                    <path d="M5081.13,6540.85L5081.13,6433.9" style="fill:none;stroke:rgb(255,164,0);stroke-width:12.5px;"/>
                </g>
                <g transform="matrix(1,0,0,1,676.128,100.085)">
                    <path d="M5081.13,6540.85L5081.13,6433.9" style="fill:none;stroke:rgb(255,164,0);stroke-width:12.5px;"/>
                </g>
                <g transform="matrix(1,0,0,1,597.075,131.593)">
                    <path d="M5206.48,6392.47C5206.48,6385.46 5200.81,6379.77 5193.82,6379.77L5070.17,6379.77C5063.18,6379.77 5057.51,6385.46 5057.51,6392.47L5057.51,6417.86C5057.51,6424.87 5063.18,6430.56 5070.17,6430.56L5193.82,6430.56C5200.81,6430.56 5206.48,6424.87 5206.48,6417.86L5206.48,6392.47Z" style="fill:rgb(255,164,0);stroke:black;stroke-width:12.5px;"/>
                </g>
                <g transform="matrix(1,0,0,1,1003.78,483.707)">
                    <circle cx="4725.29" cy="5864.72" r="182.405" style="fill:rgb(220,28,75);stroke:black;stroke-width:12.5px;"/>
                </g>
                <g transform="matrix(0.74478,0,0,0.967098,2209.77,676.67)">
                    <path d="M4725.29,5682.31C4825.96,5682.31 4907.69,5764.05 4907.69,5864.72C4907.69,5965.39 4825.96,6047.12 4725.29,6047.12C4624.61,6047.12 4542.88,5965.39 4542.88,5864.72C4542.88,5764.05 4624.61,5682.31 4725.29,5682.31L4723.21,5682.55C4722.53,5682.78 4721.85,5683.02 4721.16,5683.25L4719.74,5684.23C4658.65,5688.77 4609.93,5768.2 4609.93,5865.39C4609.93,5965.5 4661.62,6046.77 4725.29,6046.77C4788.95,6046.77 4840.64,5965.5 4840.64,5865.39C4840.64,5768.2 4791.93,5688.77 4730.84,5684.23L4729.41,5683.25C4728.73,5683.02 4728.04,5682.78 4727.36,5682.55L4725.29,5682.31Z" style="fill:none;stroke:black;stroke-width:11.48px;"/>
                </g>
                <g transform="matrix(0.470998,0,0,0.961677,3503.47,709.11)">
                    <path d="M4734.06,5682.54C4830.66,5687.1 4907.69,5766.99 4907.69,5864.72C4907.69,5965.39 4825.96,6047.12 4725.29,6047.12C4624.61,6047.12 4542.88,5965.39 4542.88,5864.72C4542.88,5766.99 4619.91,5687.1 4716.51,5682.54C4685.33,5694.9 4661.49,5770.92 4661.49,5862.71C4661.49,5963.21 4690.08,6044.8 4725.29,6044.8C4760.5,6044.8 4789.08,5963.21 4789.08,5862.71C4789.08,5770.92 4765.24,5694.9 4734.06,5682.54Z" style="fill:none;stroke:black;stroke-width:13.09px;"/>
                </g>
                <g transform="matrix(0.164733,0,0,0.992701,4950.66,525.18)">
                    <path d="M4725.29,5682.31C4725.29,5682.31 4725.29,5682.31 4725.29,5682.31Z" style="fill:none;stroke:black;stroke-width:12.5px;"/>
                </g>
                <g transform="matrix(0.164733,0,0,0.992701,4950.66,525.18)">
                    <path d="M4903.98,5827.98L4904.13,5829.47L4900.95,5818.2L4903.98,5827.98Z" style="fill:none;stroke:black;stroke-width:12.5px;"/>
                </g>
                <g transform="matrix(0.164733,0,0,0.992701,4950.66,525.18)">
                    <path d="M4549.63,5818.2L4546.44,5829.47L4546.59,5827.98L4549.63,5818.2Z" style="fill:none;stroke:black;stroke-width:12.5px;"/>
                </g>
                <g transform="matrix(0.164733,0,0,0.992701,4950.66,525.18)">
                    <path d="M4562.51,5784.01L4556.34,5796.58L4557.23,5793.75L4562.51,5784.01Z" style="fill:none;stroke:black;stroke-width:12.5px;"/>
                </g>
                <g transform="matrix(0.164733,0,0,0.992701,4950.66,525.18)">
                    <path d="M4893.35,5793.75L4894.23,5796.58L4888.06,5784.01L4893.35,5793.75Z" style="fill:none;stroke:black;stroke-width:12.5px;"/>
                </g>
                <g transform="matrix(0.164733,0,0,0.992701,4950.66,525.18)">
                    <path d="M4876.52,5762.76L4878.69,5766.76L4869.63,5754.41L4876.52,5762.76Z" style="fill:none;stroke:black;stroke-width:12.5px;"/>
                </g>
                <g transform="matrix(0.164733,0,0,0.992701,4950.66,525.18)">
                    <path d="M4580.95,5754.41L4571.88,5766.76L4574.05,5762.76L4580.95,5754.41Z" style="fill:none;stroke:black;stroke-width:12.5px;"/>
                </g>
                <g transform="matrix(0.164733,0,0,0.992701,4950.66,525.18)">
                    <path d="M4642.56,5702.47C4666.96,5689.57 4695.28,5682.31 4725.29,5682.31C4734.01,5682.31 4742.6,5682.93 4750.37,5684.24L4725.29,5684.02L4700.2,5684.24C4679.6,5687.11 4660.11,5693.37 4642.56,5702.47L4639.46,5704.05L4629.56,5709.84L4624.58,5713.06L4616.49,5718.77L4613.15,5721.46L4592.32,5740.63C4598.61,5733.71 4605.47,5727.3 4613.15,5721.46L4614.7,5720.03L4616.49,5718.77L4619.45,5716.38L4624.58,5713.06L4627.2,5711.21L4629.56,5709.84L4634.83,5706.41L4639.46,5704.05L4640.5,5703.44L4642.56,5702.47Z" style="fill:none;stroke:black;stroke-width:12.5px;"/>
                </g>
                <g transform="matrix(0.164733,0,0,0.992701,4950.66,525.18)">
                    <path d="M4750.37,5684.24C4771.71,5687.21 4791.85,5693.83 4810.07,5703.44C4828.29,5713.06 4844.59,5725.68 4858.26,5740.63C4830.93,5710.72 4793.06,5690.17 4750.37,5684.24Z" style="fill:none;stroke:black;stroke-width:12.5px;"/>
                </g>
                <g transform="matrix(0.164733,0,0,0.992701,4950.66,525.18)">
                    <path d="M4904.59,5831.07L4907.69,5864.72L4904.13,5829.47L4904.59,5831.07Z" style="fill:none;stroke:black;stroke-width:12.5px;"/>
                </g>
                <g transform="matrix(0.164733,0,0,0.992701,4950.66,525.18)">
                    <path d="M4895.65,5799.47L4900.95,5818.2L4894.23,5796.58L4895.65,5799.47Z" style="fill:none;stroke:black;stroke-width:12.5px;"/>
                </g>
                <g transform="matrix(0.164733,0,0,0.992701,4950.66,525.18)">
                    <path d="M4556.34,5796.58L4549.63,5818.2L4554.93,5799.47L4556.34,5796.58Z" style="fill:none;stroke:black;stroke-width:12.5px;"/>
                </g>
                <g transform="matrix(0.164733,0,0,0.992701,4950.66,525.18)">
                    <path d="M4881.42,5770.48L4888.06,5784.01L4878.69,5766.76L4881.42,5770.48Z" style="fill:none;stroke:black;stroke-width:12.5px;"/>
                </g>
                <g transform="matrix(0.164733,0,0,0.992701,4950.66,525.18)">
                    <path d="M4571.88,5766.76L4562.51,5784.01L4569.15,5770.48L4571.88,5766.76Z" style="fill:none;stroke:black;stroke-width:12.5px;"/>
                </g>
                <g transform="matrix(0.164733,0,0,0.992701,4950.66,525.18)">
                    <path d="M4592.32,5740.63L4580.95,5754.41L4588.11,5744.65L4592.32,5740.63Z" style="fill:none;stroke:black;stroke-width:12.5px;"/>
                </g>
                <g transform="matrix(0.164733,0,0,0.992701,4950.66,525.18)">
                    <path d="M4862.46,5744.65L4869.63,5754.41L4858.26,5740.63L4862.46,5744.65Z" style="fill:none;stroke:black;stroke-width:12.5px;"/>
                </g>
                <g transform="matrix(0.164733,0,0,0.992701,4950.66,525.18)">
                    <path d="M4750.37,5684.24C4750.37,5684.24 4750.37,5684.24 4750.37,5684.24Z" style="fill:none;stroke:black;stroke-width:12.5px;"/>
                </g>
                <g transform="matrix(0.164733,0,0,0.992701,4950.66,525.18)">
                    <path d="M4546.44,5829.47L4542.88,5864.72L4545.98,5831.07L4546.44,5829.47Z" style="fill:none;stroke:black;stroke-width:12.5px;"/>
                </g>
                <g transform="matrix(0.164733,0,0,0.960039,4950.66,716.778)">
                    <path d="M4750.37,5684.24C4793.06,5690.17 4830.93,5710.72 4858.26,5740.63L4869.63,5754.41L4878.69,5766.76L4888.06,5784.01L4894.23,5796.58L4900.95,5818.2L4904.13,5829.47L4907.69,5864.72C4907.69,5962.25 4830.98,6042.01 4734.67,6046.89L4725.29,6047.12C4624.61,6047.12 4542.88,5965.39 4542.88,5864.72L4546.44,5829.47L4549.63,5818.2L4556.34,5796.58L4562.51,5784.01L4571.88,5766.76L4580.95,5754.41L4592.32,5740.63C4619.64,5710.72 4657.52,5690.17 4700.2,5684.24L4725.29,5684.02L4750.37,5684.24Z" style="fill:none;stroke:black;stroke-width:14.39px;"/>
                </g>
                <g transform="matrix(1,0,0,1,595.805,131.593)">
                    <path d="M5134.36,6031.05L5134.36,5885.46" style="fill:none;stroke:black;stroke-width:12.5px;"/>
                </g>
            </g>
        </g>
    </g>
</svg>
