<?xml version="1.0" encoding="UTF-8" standalone="no"?>
<!DOCTYPE svg PUBLIC "-//W3C//DTD SVG 1.1//EN" "http://www.w3.org/Graphics/SVG/1.1/DTD/svg11.dtd">
<svg width="100%" height="100%" viewBox="0 0 600 600" version="1.1" xmlns="http://www.w3.org/2000/svg" xmlns:xlink="http://www.w3.org/1999/xlink" xml:space="preserve" xmlns:serif="http://www.serif.com/" style="fill-rule:evenodd;clip-rule:evenodd;stroke-linecap:round;stroke-linejoin:round;stroke-miterlimit:1.5;">
    <g transform="matrix(1,0,0,1,-4583.11,0)">
        <g id="_7" serif:id="7" transform="matrix(1,0,0,1,4583.11,0)">
            <rect x="0" y="0" width="600" height="600" style="fill:none;"/>
            <g transform="matrix(0.731765,0,0,0.731765,-1826.4,-4463.7)">
                <g transform="matrix(-1.60887,-0.500102,-0.500102,1.60887,12498,-1771.13)">
                    <path d="M3855.21,6436.69C3855.21,6436.69 3867.42,6444.93 3873.1,6453.74C3878.78,6462.54 3887.02,6474.75 3878.78,6475.89C3870.55,6477.02 3868.84,6471.34 3865.15,6473.33C3861.46,6475.32 3862.88,6478.44 3859.47,6476.46C3856.06,6474.47 3855.21,6436.69 3855.21,6436.69Z" style="fill:rgb(206,137,34);stroke:black;stroke-width:4.95px;"/>
                </g>
                <g transform="matrix(-1.60887,-0.500102,-0.500102,1.60887,12498,-1771.13)">
                    <path d="M3775.29,6429.67C3775.29,6429.67 3759.31,6457.18 3761.97,6480.26C3771.29,6477.15 3771.74,6473.6 3777.06,6482.03C3782.39,6490.47 3788.16,6492.24 3792.15,6486.47C3796.14,6480.7 3800.14,6456.3 3800.14,6456.3L3775.29,6429.67Z" style="fill:rgb(206,137,34);stroke:black;stroke-width:4.95px;"/>
                </g>
                <g transform="matrix(-1.60887,-0.500102,-0.500102,1.60887,12498,-1771.13)">
                    <path d="M3765.97,6412.36C3765.97,6412.36 3754.87,6431.89 3758.87,6434.11C3762.86,6436.32 3762.86,6432.78 3769.08,6434.55C3775.29,6436.32 3773.07,6423.46 3773.07,6423.46L3765.97,6412.36Z" style="fill:rgb(206,137,34);stroke:black;stroke-width:4.95px;"/>
                </g>
                <g transform="matrix(-1.60887,-0.500102,-0.500102,1.60887,12519.6,-1783.89)">
                    <path d="M3905.48,6494.92C3905.48,6494.92 3914,6482.99 3917.69,6471.06C3921.39,6459.13 3921.95,6448.91 3937.29,6445.5C3952.63,6442.09 3947.8,6450.89 3946.09,6457.14C3944.39,6463.39 3949.79,6463.11 3957.45,6465.66C3965.12,6468.22 3981.6,6474.18 3981.31,6484.12C3981.03,6494.06 3967.39,6492.64 3951.77,6501.45C3936.15,6510.25 3921.67,6513.66 3911.73,6513.09C3901.79,6512.53 3905.48,6494.92 3905.48,6494.92Z" style="fill:rgb(206,137,34);"/>
                    <clipPath id="_clip1">
                        <path d="M3905.48,6494.92C3905.48,6494.92 3914,6482.99 3917.69,6471.06C3921.39,6459.13 3921.95,6448.91 3937.29,6445.5C3952.63,6442.09 3947.8,6450.89 3946.09,6457.14C3944.39,6463.39 3949.79,6463.11 3957.45,6465.66C3965.12,6468.22 3981.6,6474.18 3981.31,6484.12C3981.03,6494.06 3967.39,6492.64 3951.77,6501.45C3936.15,6510.25 3921.67,6513.66 3911.73,6513.09C3901.79,6512.53 3905.48,6494.92 3905.48,6494.92Z"/>
                    </clipPath>
                    <g clip-path="url(#_clip1)">
                        <g transform="matrix(-0.566791,-0.176182,-0.176182,0.566791,6781.72,3216.83)">
                            <path d="M2953.26,6615.3C2953.26,6615.3 2962.96,6623.62 2962.27,6656.9C2961.58,6690.19 2973.37,6705.44 2973.37,6705.44" style="fill:none;stroke:rgb(255,169,39);stroke-width:4.17px;"/>
                        </g>
                        <g transform="matrix(-0.566791,-0.176182,-0.176182,0.566791,6781.72,3216.83)">
                            <path d="M2933.15,6619.46C2933.15,6619.46 2940.78,6629.86 2946.32,6661.76C2951.87,6693.65 2971.28,6709.6 2971.28,6709.6" style="fill:none;stroke:rgb(255,169,39);stroke-width:4.17px;"/>
                        </g>
                        <g transform="matrix(-0.566791,-0.176182,-0.176182,0.566791,6781.72,3216.83)">
                            <path d="M2913.73,6624.31C2913.73,6624.31 2908.19,6658.98 2934.53,6685.33C2960.88,6711.68 2970.59,6720 2970.59,6720" style="fill:none;stroke:rgb(255,169,39);stroke-width:4.17px;"/>
                        </g>
                        <g transform="matrix(-0.566791,-0.176182,-0.176182,0.566791,6781.72,3216.83)">
                            <path d="M2894.32,6652.74C2894.32,6652.74 2903.33,6679.78 2930.38,6697.12C2957.42,6714.45 2967.13,6724.16 2967.13,6724.16" style="fill:none;stroke:rgb(255,169,39);stroke-width:4.17px;"/>
                        </g>
                    </g>
                    <path d="M3905.48,6494.92C3905.48,6494.92 3914,6482.99 3917.69,6471.06C3921.39,6459.13 3921.95,6448.91 3937.29,6445.5C3952.63,6442.09 3947.8,6450.89 3946.09,6457.14C3944.39,6463.39 3949.79,6463.11 3957.45,6465.66C3965.12,6468.22 3981.6,6474.18 3981.31,6484.12C3981.03,6494.06 3967.39,6492.64 3951.77,6501.45C3936.15,6510.25 3921.67,6513.66 3911.73,6513.09C3901.79,6512.53 3905.48,6494.92 3905.48,6494.92Z" style="fill:none;stroke:black;stroke-width:4.95px;"/>
                </g>
                <g transform="matrix(-0.73428,0.105804,0.105804,0.73428,12120,2640.53)">
                    <g>
                        <g transform="matrix(0.447206,0.435342,0.435342,-0.447206,11491,2488.05)">
                            <path d="M2787.51,613.28C2787.51,613.28 2876.01,567.95 2927.82,598.17C2979.63,628.39 2964.52,678.037 2919.19,671.562C2873.86,665.086 2830.68,662.927 2802.62,686.672C2774.56,710.416 2731.39,641.342 2787.51,613.28Z" style="fill:rgb(214,194,149);stroke:black;stroke-width:20.03px;"/>
                        </g>
                        <g transform="matrix(0.942368,0,0,0.942368,10312.6,2185.32)">
                            <path d="M3077.27,879.49C3077.27,879.49 3108.11,847.368 3119.67,925.745" style="fill:none;stroke:rgb(97,224,238);stroke-width:13.26px;"/>
                        </g>
                        <g transform="matrix(-0.942368,0,0,0.942368,16213,2178.06)">
                            <path d="M3077.27,879.49C3077.27,879.49 3106.83,848.653 3117.1,929.6" style="fill:none;stroke:rgb(97,224,238);stroke-width:13.26px;"/>
                        </g>
                        <g transform="matrix(0.69691,0.19324,-0.19324,0.69691,11262.5,1774.78)">
                            <path d="M3077.27,879.49C3077.27,879.49 3113.14,839.637 3136.24,954.162" style="fill:none;stroke:rgb(97,224,238);stroke-width:17.28px;"/>
                        </g>
                        <g transform="matrix(0.255337,-0.569489,0.569489,0.255337,12049.3,5180.2)">
                            <path d="M2787.51,613.28C2787.51,613.28 2876.01,567.95 2927.82,598.17C2979.63,628.39 2964.52,678.037 2919.19,671.562C2873.86,665.086 2830.68,662.927 2802.62,686.672C2774.56,710.416 2731.39,641.342 2787.51,613.28Z" style="fill:rgb(214,194,149);stroke:black;stroke-width:20.03px;"/>
                        </g>
                        <g transform="matrix(-0.014319,-0.623947,-0.623947,0.014319,13843.2,5471.99)">
                            <path d="M2787.51,613.28C2787.51,613.28 2876.01,567.95 2927.82,598.17C2979.63,628.39 2964.52,678.037 2919.19,671.562C2873.86,665.086 2830.68,662.927 2802.62,686.672C2774.56,710.416 2731.39,641.342 2787.51,613.28Z" style="fill:rgb(214,194,149);stroke:black;stroke-width:20.03px;"/>
                        </g>
                        <g transform="matrix(0.328438,0,0,0.328438,12717.9,3032.56)">
                            <path d="M2279.67,511.904C2283.15,491.051 2325.81,459.166 2343.54,451.945C2559.26,364.088 2483.64,611.456 2358.06,601.659" style="fill:rgb(97,224,238);"/>
                            <path d="M2254.64,507.733C2256.29,497.868 2262.51,485.893 2272.55,474.417C2290.08,454.38 2319.33,434.411 2333.97,428.447C2413.02,396.254 2460.14,407.089 2483.09,429.061C2507.27,452.211 2511.34,492.019 2495.5,531.292C2474.55,583.219 2420.19,631.956 2356.09,626.955C2342.13,625.866 2331.68,613.647 2332.76,599.686C2333.86,585.725 2346.07,575.275 2360.03,576.364C2401.43,579.593 2434.92,545.837 2448.44,512.309C2452.65,501.87 2454.95,491.361 2454.33,481.873C2453.91,475.587 2452.26,469.796 2448,465.718C2442.47,460.424 2433.69,458.355 2421.88,458.41C2404.22,458.492 2381.6,463.842 2353.11,475.444C2344.35,479.012 2328.41,490.188 2316.27,502.031C2312.59,505.624 2309.26,509.272 2306.77,512.845C2305.92,514.071 2304.88,515.003 2304.7,516.075C2302.4,529.888 2289.31,539.234 2275.5,536.931C2261.69,534.629 2252.34,521.546 2254.64,507.733Z"/>
                        </g>
                        <g transform="matrix(-0.164219,-0.284435,0.284435,-0.164219,13320.4,3882.92)">
                            <path d="M2301.37,493.302C2304.85,472.448 2326.32,460.207 2344.05,452.986C2559.76,365.129 2483.64,611.456 2358.06,601.659" style="fill:rgb(97,224,238);"/>
                            <path d="M2276.35,489.13C2281.28,459.546 2309.32,439.732 2334.48,429.488C2413.51,397.3 2460.58,408.035 2483.45,429.843C2507.62,452.888 2511.64,492.594 2495.66,531.779C2474.59,583.427 2420.17,631.954 2356.09,626.955C2342.13,625.866 2331.68,613.647 2332.76,599.686C2333.86,585.725 2346.07,575.275 2360.03,576.364C2401.45,579.594 2435.06,545.996 2448.67,512.616C2452.89,502.259 2455.22,491.836 2454.62,482.428C2454.23,476.255 2452.62,470.566 2448.43,466.569C2442.93,461.323 2434.18,459.31 2422.41,459.388C2404.75,459.505 2382.12,464.875 2353.62,476.485C2346.94,479.203 2339.48,482.712 2333.45,487.657C2330.21,490.312 2327.1,493.26 2326.4,497.473C2324.1,511.286 2311.02,520.631 2297.2,518.329C2283.39,516.027 2274.05,502.943 2276.35,489.13Z"/>
                        </g>
                        <g transform="matrix(0.48568,-5.94787e-17,-5.94787e-17,-0.48568,12308.5,3960.79)">
                            <path d="M1602.28,658.224C1602.28,658.224 1537.63,785.329 1549.85,894.354C1588.09,1235.66 1487.62,1302.63 1526.9,1510.82C1540.54,1583.11 1566.32,1665.45 1610.23,1725.3C1706.72,1856.83 1892.19,1925.15 2053.51,1894.26C2118.1,1881.89 2176.43,1853.93 2234.15,1823.26C2434.98,1716.58 2476.71,1491.41 2450.61,1301.63C2439.06,1217.62 2366.83,1086.68 2377.39,1002.44C2399.42,826.82 2393.26,731.764 2338.43,618.483C2291.7,521.934 2109.83,449.196 1911,469.87C1877.12,473.393 1674.41,508.918 1602.28,658.224Z" style="fill:rgb(97,224,238);"/>
                            <clipPath id="_clip2">
                                <path d="M1602.28,658.224C1602.28,658.224 1537.63,785.329 1549.85,894.354C1588.09,1235.66 1487.62,1302.63 1526.9,1510.82C1540.54,1583.11 1566.32,1665.45 1610.23,1725.3C1706.72,1856.83 1892.19,1925.15 2053.51,1894.26C2118.1,1881.89 2176.43,1853.93 2234.15,1823.26C2434.98,1716.58 2476.71,1491.41 2450.61,1301.63C2439.06,1217.62 2366.83,1086.68 2377.39,1002.44C2399.42,826.82 2393.26,731.764 2338.43,618.483C2291.7,521.934 2109.83,449.196 1911,469.87C1877.12,473.393 1674.41,508.918 1602.28,658.224Z"/>
                            </clipPath>
                            <g clip-path="url(#_clip2)">
                                <g transform="matrix(1.58206,-1.93747e-16,-1.93747e-16,-1.58206,-849.364,3866.96)">
                                    <path d="M2003.37,1344.04C2003.37,1344.04 2046.61,1399.62 2034.91,1485.96C2017.34,1615.67 1962.83,1587.84 1966.54,1821.27C1968.39,1937.63 1975.33,2007.81 1924.09,2077.86C1874.32,2145.89 1732.01,2145.79 1696.03,2135.51C1660.05,2125.24 1837.88,2172.52 1939.64,2131.4C2041.4,2090.29 2055.79,1917.6 2042.43,1809.67C2029.07,1701.74 2115.41,1670.91 2086.63,1484.86C2040.38,1375.9 2039.35,1382.07 2003.37,1344.04Z" style="fill:rgb(79,203,224);"/>
                                </g>
                                <g transform="matrix(1.58206,-1.93747e-16,-1.93747e-16,-1.58206,-822.199,3866.96)">
                                    <path d="M1816.44,1503.57C1816.44,1503.57 1829.07,1566.72 1904.33,1563.04C1979.59,1559.36 1984.85,1482.52 1984.85,1482.52L1816.44,1503.57Z" style="fill:rgb(79,203,224);"/>
                                </g>
                                <g transform="matrix(1.58206,-1.93747e-16,-1.93747e-16,-1.58206,-1331.45,3917.75)">
                                    <path d="M1816.44,1503.57C1816.44,1503.57 1829.07,1566.72 1904.33,1563.04C1979.59,1559.36 1984.85,1482.52 1984.85,1482.52L1816.44,1503.57Z" style="fill:rgb(79,203,224);"/>
                                </g>
                            </g>
                            <path d="M1586.99,650.445C1586.99,650.445 1520.08,782.804 1532.79,896.265C1555.47,1098.63 1528.7,1203.39 1512.12,1299.26C1500.6,1365.83 1493.87,1428.29 1510.04,1514C1524.13,1588.68 1551.04,1673.63 1596.39,1735.45C1696.62,1872.06 1889.18,1943.2 2056.74,1911.11C2123.03,1898.42 2182.96,1869.89 2242.2,1838.42C2450,1728.03 2494.61,1495.65 2467.61,1299.29C2461.71,1256.42 2440.52,1201.51 2421.96,1146.63C2404.69,1095.56 2389.4,1044.58 2394.42,1004.57C2417,824.531 2410.08,727.143 2353.87,611.008C2333.8,569.529 2290.97,531.601 2232.58,503.089C2148.59,462.087 2032.07,440.031 1909.22,452.804C1888.16,454.995 1804.06,469.05 1724.03,513.433C1669.65,543.59 1617.31,587.666 1586.83,650.76L1586.99,650.445ZM1617.57,666.003C1617.63,665.898 1617.68,665.793 1617.73,665.687C1644.95,609.336 1692.1,570.378 1740.67,543.443C1815.07,502.187 1893.19,488.973 1912.77,486.936C2028.53,474.9 2138.39,495.292 2217.52,533.927C2267.87,558.507 2305.68,590.198 2322.98,625.959C2376.43,736.386 2381.84,829.108 2360.37,1000.3C2355.89,1036.04 2364.99,1079.76 2378.87,1124.99C2398.22,1188.03 2426.78,1254.29 2433.61,1303.97C2458.81,1487.17 2419.97,1705.12 2226.1,1808.11C2169.9,1837.97 2113.18,1865.37 2050.28,1877.41C1895.19,1907.11 1716.83,1841.6 1624.06,1715.15C1581.6,1657.28 1556.95,1577.55 1543.76,1507.64C1524.6,1406.05 1539.82,1338.93 1554.87,1255.56C1570.51,1168.94 1586.28,1065.46 1566.9,892.444C1555.18,787.854 1617.57,666.003 1617.57,666.003Z"/>
                        </g>
                        <g transform="matrix(0.244289,-2.99168e-17,-2.3886e-17,-0.195044,12771.9,3783.67)">
                            <path d="M2244.02,463.384C1568.86,266.571 1450.76,759.917 1427.56,867.142C1383.84,1069.12 1362.66,1460.63 1401.94,1668.83C1415.58,1741.12 1441.36,1823.46 1485.27,1883.31C1581.76,2014.84 2013.3,2026.28 2174.62,1995.39C2239.21,1983.02 2297.53,1955.05 2355.26,1924.39C2556.09,1817.7 2626.87,574.985 2244.02,463.384Z" style="fill:rgb(183,248,255);"/>
                        </g>
                        <g transform="matrix(0.48568,0,0,0.48568,12228,2888.88)">
                            <circle cx="1749.06" cy="789.086" r="14.17" style="fill:rgb(183,248,255);"/>
                        </g>
                        <g transform="matrix(0.48568,0,0,0.48568,12569.7,2901.38)">
                            <circle cx="1749.06" cy="789.086" r="14.17" style="fill:rgb(183,248,255);"/>
                        </g>
                        <g transform="matrix(-1.34313,0.113994,0.113994,1.34313,19338.4,-6448.2)">
                            <path d="M4892.88,7131.72L5584.13,6669.01L4904.17,7154.29L4892.88,7131.72Z" style="fill:rgb(126,91,27);stroke:black;stroke-width:8.33px;"/>
                        </g>
                        <g transform="matrix(0.53127,-0.327518,-0.327518,-0.53127,12007.7,4817.87)">
                            <path d="M2787.51,613.28C2787.51,613.28 2876.01,567.95 2927.82,598.17C2979.63,628.39 2964.52,678.037 2919.19,671.562C2873.86,665.086 2830.68,662.927 2802.62,686.672C2774.56,710.416 2731.39,641.342 2787.51,613.28Z" style="fill:rgb(214,194,149);stroke:black;stroke-width:20.03px;"/>
                        </g>
                        <g transform="matrix(-1,0,0,1,12556.5,1934.64)">
                            <g transform="matrix(-0.198586,-0.673871,-0.673871,0.198586,57.21,2113.75)">
                                <path d="M1297.76,736.828C1366.62,651.283 1214.99,581.603 1129.76,637.792C1019.49,710.484 1093.6,777.494 1093.6,777.494C1125.16,817.212 1243.01,804.856 1297.76,736.828Z"/>
                            </g>
                            <g transform="matrix(-0.485558,-0.0108753,-0.0120958,0.540052,324.815,931.166)">
                                <path d="M1960.41,874.118C1963.57,893.086 1961.3,928.116 1971.79,944.361C1976.87,952.237 1989.75,953.613 1998.14,954.513C2046.33,959.682 2049.89,915.114 2060.81,876.97" style="fill:rgb(237,237,237);"/>
                                <path d="M1973.14,872.404C1975.05,883.896 1975.02,901.226 1976.95,916.796C1978.01,925.277 1979.46,933.191 1982.92,938.553C1983.88,940.041 1985.87,940.511 1987.72,941.055C1991.78,942.248 1996.19,942.652 1999.66,943.024C2008.19,943.939 2014.8,942.965 2019.96,940.1C2025.24,937.163 2028.88,932.45 2031.88,926.912C2039.83,912.268 2043.11,892.382 2048.35,874.086C2050.12,867.902 2057.14,864.174 2064.02,865.766C2070.9,867.358 2075.05,873.671 2073.28,879.855C2067.59,899.702 2063.63,921.171 2055.02,937.056C2049.74,946.782 2042.77,954.625 2033.49,959.783C2024.08,965.013 2012.18,967.671 1996.61,966.001C1990.52,965.348 1982.52,964.337 1975.73,961.696C1969.43,959.242 1964.09,955.48 1960.66,950.17C1955.73,942.534 1952.87,931.443 1951.37,919.364C1949.48,904.097 1949.56,887.102 1947.68,875.833C1946.63,869.518 1951.48,863.622 1958.5,862.676C1965.53,861.73 1972.09,866.088 1973.14,872.404Z"/>
                            </g>
                            <g transform="matrix(-0.519769,0.0319741,0.03697,0.600983,-59.9673,865.216)">
                                <ellipse cx="1221.96" cy="702.82" rx="66.462" ry="36.543"/>
                            </g>
                            <g transform="matrix(-0.477649,0.0879595,0.0879595,0.477649,-161.447,891.932)">
                                <path d="M1204.43,720.734C1208.02,742.26 1208.2,763.523 1210.51,785.082C1211.27,792.144 1206.15,798.492 1199.09,799.249C1192.03,800.006 1185.68,794.888 1184.92,787.826C1182.67,766.767 1182.55,745.991 1179.05,724.966C1177.88,717.96 1182.62,711.324 1189.63,710.157C1196.63,708.989 1203.27,713.729 1204.43,720.734Z"/>
                            </g>
                            <g transform="matrix(-0.478839,-0.34413,-0.34413,0.478839,803.513,1969.13)">
                                <ellipse cx="2765.83" cy="286.812" rx="23.313" ry="12.088" style="fill:rgb(183,248,255);"/>
                            </g>
                            <g transform="matrix(-0.474465,0.350137,0.350137,0.474465,388.494,58.0114)">
                                <ellipse cx="2765.83" cy="286.812" rx="23.313" ry="12.088" style="fill:rgb(183,248,255);"/>
                            </g>
                            <g transform="matrix(-0.914199,-0.130192,-0.130192,0.914199,489.849,889.556)">
                                <circle cx="1071.81" cy="534.398" r="76.669" style="fill:white;stroke:black;stroke-width:13.54px;"/>
                            </g>
                            <g transform="matrix(-0.372128,2.16516,2.16516,0.372128,-1308.81,-1196.1)">
                                <circle cx="1044.8" cy="535.269" r="11.326"/>
                            </g>
                            <g transform="matrix(-0.104392,0.607386,0.607386,0.104392,-442.832,-260.399)">
                                <circle cx="2472.68" cy="285.194" r="11.336" style="fill:white;"/>
                            </g>
                            <g transform="matrix(-0.914199,-0.130192,-0.130192,0.914199,240.321,910.289)">
                                <circle cx="1071.81" cy="534.398" r="76.669" style="fill:white;stroke:black;stroke-width:13.54px;"/>
                            </g>
                            <g transform="matrix(1.37272,-1.71524,1.71524,1.37272,-3136.31,2335.2)">
                                <circle cx="1044.8" cy="535.269" r="11.326"/>
                            </g>
                            <g transform="matrix(0.385086,-0.48117,0.48117,0.385086,-1861.66,2362.04)">
                                <circle cx="2472.68" cy="285.194" r="11.336" style="fill:white;"/>
                            </g>
                        </g>
                    </g>
                </g>
                <g transform="matrix(1,0,0,1,-2378.59,-365.937)">
                    <path d="M5138.34,6986.42L5148.22,6994.88C5148.22,6994.88 5183.49,7024.51 5221.58,7007.58C5259.66,6990.65 5244.15,6920.12 5244.15,6920.12L5239.91,6906.01L5258.25,6914.47C5258.25,6914.47 5296.34,6931.4 5328.79,6907.42C5361.24,6883.44 5345.72,6832.65 5345.72,6832.65C5345.72,6832.65 5392.27,6846.76 5421.9,6821.37C5451.52,6795.97 5452.93,6750.83 5452.93,6750.83C5452.93,6750.83 5506.54,6762.12 5537.57,6736.72C5568.61,6711.33 5582.72,6652.08 5582.72,6652.08C5582.72,6652.08 5558.73,6667.6 5633.5,6749.42C5708.27,6831.24 5612.34,6913.06 5612.34,6913.06" style="fill:none;stroke:black;stroke-width:8.33px;"/>
                </g>
                <g transform="matrix(-1.60887,-0.500102,-0.500102,1.60887,12498,-1771.13)">
                    <path d="M3816.12,6356.89C3816.12,6356.89 3824.99,6358.67 3832.09,6343.58C3839.19,6328.49 3855.17,6305.41 3864.93,6307.19C3874.69,6308.96 3865.82,6316.95 3870.7,6323.16C3875.58,6329.38 3878.24,6330.71 3871.14,6340.91C3864.04,6351.12 3868.48,6347.13 3864.04,6356.89C3859.6,6366.65 3857.83,6367.99 3848.51,6370.2C3839.19,6372.42 3839.63,6375.09 3828.98,6373.31C3818.33,6371.53 3816.12,6356.89 3816.12,6356.89Z" style="fill:rgb(206,137,34);"/>
                    <clipPath id="_clip3">
                        <path d="M3816.12,6356.89C3816.12,6356.89 3824.99,6358.67 3832.09,6343.58C3839.19,6328.49 3855.17,6305.41 3864.93,6307.19C3874.69,6308.96 3865.82,6316.95 3870.7,6323.16C3875.58,6329.38 3878.24,6330.71 3871.14,6340.91C3864.04,6351.12 3868.48,6347.13 3864.04,6356.89C3859.6,6366.65 3857.83,6367.99 3848.51,6370.2C3839.19,6372.42 3839.63,6375.09 3828.98,6373.31C3818.33,6371.53 3816.12,6356.89 3816.12,6356.89Z"/>
                    </clipPath>
                    <g clip-path="url(#_clip3)">
                        <g transform="matrix(-0.566791,-0.176182,-0.176182,0.566791,6771.71,3205.78)">
                            <path d="M3158.54,6558.11C3158.54,6558.11 3140.79,6556.34 3130.58,6519.51C3120.38,6482.67 3093.75,6474.24 3093.75,6474.24" style="fill:none;stroke:rgb(255,169,39);stroke-width:4.17px;"/>
                        </g>
                        <g transform="matrix(-0.566791,-0.176182,-0.176182,0.566791,6771.71,3205.78)">
                            <path d="M3164.31,6549.68C3164.31,6549.68 3147.45,6543.47 3142.56,6509.74C3137.68,6476.02 3130.14,6467.14 3114.16,6451.61" style="fill:none;stroke:rgb(255,169,39);stroke-width:4.17px;"/>
                        </g>
                    </g>
                    <path d="M3816.12,6356.89C3816.12,6356.89 3824.99,6358.67 3832.09,6343.58C3839.19,6328.49 3855.17,6305.41 3864.93,6307.19C3874.69,6308.96 3865.82,6316.95 3870.7,6323.16C3875.58,6329.38 3878.24,6330.71 3871.14,6340.91C3864.04,6351.12 3868.48,6347.13 3864.04,6356.89C3859.6,6366.65 3857.83,6367.99 3848.51,6370.2C3839.19,6372.42 3839.63,6375.09 3828.98,6373.31C3818.33,6371.53 3816.12,6356.89 3816.12,6356.89Z" style="fill:none;stroke:black;stroke-width:4.95px;"/>
                </g>
                <g transform="matrix(-1.60887,-0.500102,-0.500102,1.60887,12498,-1771.13)">
                    <path d="M3754.87,6361.77C3754.87,6361.77 3753.99,6383.52 3757.98,6401.71C3761.97,6419.91 3794.81,6486.03 3818.33,6495.79C3841.85,6505.55 3874.69,6503.34 3874.69,6503.34C3874.69,6503.34 3862.27,6480.7 3860.05,6460.29C3857.83,6439.88 3852.95,6396.39 3839.63,6383.52C3826.32,6370.65 3823.66,6354.67 3814.78,6350.68C3805.91,6346.68 3754.87,6361.77 3754.87,6361.77Z" style="fill:rgb(187,14,30);"/>
                    <clipPath id="_clip4">
                        <path d="M3754.87,6361.77C3754.87,6361.77 3753.99,6383.52 3757.98,6401.71C3761.97,6419.91 3794.81,6486.03 3818.33,6495.79C3841.85,6505.55 3874.69,6503.34 3874.69,6503.34C3874.69,6503.34 3862.27,6480.7 3860.05,6460.29C3857.83,6439.88 3852.95,6396.39 3839.63,6383.52C3826.32,6370.65 3823.66,6354.67 3814.78,6350.68C3805.91,6346.68 3754.87,6361.77 3754.87,6361.77Z"/>
                    </clipPath>
                    <g clip-path="url(#_clip4)">
                        <g transform="matrix(-0.566791,-0.176182,-0.176182,0.566791,6771.71,3205.78)">
                            <path d="M3103.03,6750.51C3103.03,6750.51 3067.67,6742.88 3069.75,6710.29C3071.83,6677.7 3128.68,6587.56 3142.55,6591.72C3156.42,6595.89 3186.24,6613.22 3186.24,6613.22L3182.77,6526.55C3182.77,6526.55 3085.69,6548.04 3064.2,6583.4C3042.7,6618.77 3015.66,6705.44 3023.98,6725.55C3032.3,6745.66 3103.03,6750.51 3103.03,6750.51Z" style="fill:rgb(129,34,42);"/>
                        </g>
                    </g>
                    <path d="M3754.87,6361.77C3754.87,6361.77 3753.99,6383.52 3757.98,6401.71C3761.97,6419.91 3794.81,6486.03 3818.33,6495.79C3841.85,6505.55 3874.69,6503.34 3874.69,6503.34C3874.69,6503.34 3862.27,6480.7 3860.05,6460.29C3857.83,6439.88 3852.95,6396.39 3839.63,6383.52C3826.32,6370.65 3823.66,6354.67 3814.78,6350.68C3805.91,6346.68 3754.87,6361.77 3754.87,6361.77Z" style="fill:none;stroke:black;stroke-width:4.95px;"/>
                </g>
                <g transform="matrix(-1.60887,-0.500102,-0.500102,1.60887,12498,-1771.13)">
                    <path d="M3760.64,6320.06C3760.64,6320.06 3749.99,6342.25 3750.44,6357.33C3750.88,6372.42 3760.64,6410.14 3803.69,6391.06C3846.74,6371.98 3797.03,6328.93 3797.03,6328.93C3797.03,6328.93 3793.48,6315.62 3784.61,6314.73C3775.73,6313.85 3760.64,6320.06 3760.64,6320.06Z" style="fill:rgb(194,66,17);"/>
                    <clipPath id="_clip5">
                        <path d="M3760.64,6320.06C3760.64,6320.06 3749.99,6342.25 3750.44,6357.33C3750.88,6372.42 3760.64,6410.14 3803.69,6391.06C3846.74,6371.98 3797.03,6328.93 3797.03,6328.93C3797.03,6328.93 3793.48,6315.62 3784.61,6314.73C3775.73,6313.85 3760.64,6320.06 3760.64,6320.06Z"/>
                    </clipPath>
                    <g clip-path="url(#_clip5)">
                        <g transform="matrix(-0.566791,-0.176182,-0.176182,0.566791,6771.71,3205.78)">
                            <path d="M3248.52,6505.65C3248.52,6505.65 3233.54,6523.95 3220.78,6526.17C3208.03,6528.39 3189.16,6540.04 3186.39,6565C3183.62,6589.97 3203.59,6621.03 3232.99,6628.24C3164.76,6616.59 3150.89,6615.48 3146.45,6579.98C3142.01,6544.48 3189.72,6516.19 3208.03,6507.87C3226.33,6499.55 3243.53,6489.01 3248.52,6505.65Z" style="fill:rgb(150,42,0);"/>
                        </g>
                    </g>
                    <path d="M3760.64,6320.06C3760.64,6320.06 3749.99,6342.25 3750.44,6357.33C3750.88,6372.42 3760.64,6410.14 3803.69,6391.06C3846.74,6371.98 3797.03,6328.93 3797.03,6328.93C3797.03,6328.93 3793.48,6315.62 3784.61,6314.73C3775.73,6313.85 3760.64,6320.06 3760.64,6320.06Z" style="fill:none;stroke:black;stroke-width:4.95px;"/>
                </g>
                <g transform="matrix(-1.60887,-0.500102,-0.500102,1.60887,12519.6,-1783.89)">
                    <path d="M3809.62,6490.39C3809.62,6490.39 3832.53,6521.53 3872.03,6522.86C3911.53,6524.19 3921.29,6508.22 3922.18,6497.12C3923.06,6486.03 3905.73,6490.1 3892.89,6493.13C3835.72,6506.61 3809.62,6490.39 3809.62,6490.39Z" style="fill:rgb(194,66,17);"/>
                    <clipPath id="_clip6">
                        <path d="M3809.62,6490.39C3809.62,6490.39 3832.53,6521.53 3872.03,6522.86C3911.53,6524.19 3921.29,6508.22 3922.18,6497.12C3923.06,6486.03 3905.73,6490.1 3892.89,6493.13C3835.72,6506.61 3809.62,6490.39 3809.62,6490.39Z"/>
                    </clipPath>
                    <g clip-path="url(#_clip6)">
                        <g transform="matrix(-0.566791,-0.176182,-0.176182,0.566791,6781.72,3216.83)">
                            <path d="M2985.59,6705.9C2985.59,6705.9 2976.16,6723.1 3001.12,6745.84C3026.08,6768.58 3103.18,6771.36 3103.18,6771.36C3103.18,6771.36 3044.39,6809.63 2997.79,6787.44C2951.19,6765.25 2937.33,6721.99 2948.97,6703.13C2960.62,6684.27 2985.59,6705.9 2985.59,6705.9Z" style="fill:rgb(150,42,0);"/>
                        </g>
                    </g>
                    <path d="M3809.62,6490.39C3809.62,6490.39 3832.53,6521.53 3872.03,6522.86C3911.53,6524.19 3921.29,6508.22 3922.18,6497.12C3923.06,6486.03 3905.73,6490.1 3892.89,6493.13C3835.72,6506.61 3809.62,6490.39 3809.62,6490.39Z" style="fill:none;stroke:black;stroke-width:4.95px;"/>
                </g>
                <g transform="matrix(-1.75642,-0.184986,-0.19475,1.84913,11127.7,-4476.23)">
                    <path d="M3776.62,6317.4C3776.62,6317.4 3759.76,6303.19 3755.76,6311.63C3751.77,6320.06 3761.53,6313.85 3762.42,6320.06C3763.31,6326.27 3776.62,6317.4 3776.62,6317.4Z" style="fill:rgb(206,137,34);stroke:black;stroke-width:4.6px;"/>
                </g>
                <g transform="matrix(-1.75642,-0.184986,-0.19475,1.84913,11127.7,-4476.23)">
                    <path d="M3773.86,6316.48C3773.86,6316.48 3770.02,6303.56 3777,6303.56C3783.98,6303.56 3787.35,6309.26 3786.65,6312.75C3785.95,6316.24 3769.78,6320.66 3773.86,6316.48Z" style="fill:rgb(206,137,34);stroke:black;stroke-width:4.6px;"/>
                </g>
                <g transform="matrix(0.61632,0.199952,-0.194222,0.598658,2416.93,1864.9)">
                    <ellipse cx="3446.03" cy="6677.14" rx="32.503" ry="40.628" style="fill:rgb(206,137,34);stroke:black;stroke-width:8.33px;"/>
                </g>
                <g transform="matrix(0.394333,0.127933,-0.124267,0.383032,2715.08,3552.75)">
                    <ellipse cx="3446.03" cy="6677.14" rx="32.503" ry="40.628" style="fill:white;"/>
                </g>
                <g transform="matrix(0.18196,0.0737805,-0.0724421,0.176494,3104.25,5115.65)">
                    <ellipse cx="3446.03" cy="6677.14" rx="32.503" ry="40.628"/>
                </g>
                <path d="M3188.33,6556.23C3188.33,6556.23 3177.24,6627.23 3252.68,6601.71" style="fill:none;stroke:rgb(206,137,34);stroke-width:8.33px;"/>
                <path d="M3139.52,6599.49C3139.52,6599.49 3132.86,6625.01 3144.51,6630.56C3156.16,6636.11 3175.02,6628.34 3175.02,6628.34C3175.02,6628.34 3167.81,6650.53 3181.12,6659.96C3194.43,6669.39 3223.84,6651.08 3223.84,6651.08" style="fill:none;stroke:rgb(255,169,39);stroke-width:4.17px;"/>
                <g transform="matrix(0.861016,0,0,0.86651,409.454,916.911)">
                    <path d="M3139.52,6599.49C3139.52,6599.49 3132.86,6625.01 3144.51,6630.56C3156.16,6636.11 3175.02,6628.34 3175.02,6628.34C3175.02,6628.34 3167.81,6650.53 3181.12,6659.96C3194.43,6669.39 3223.84,6651.08 3223.84,6651.08" style="fill:none;stroke:rgb(255,169,39);stroke-width:4.17px;"/>
                </g>
                <g transform="matrix(0.861016,0,0,0.86651,380.609,949.084)">
                    <path d="M3148.54,6597.57C3148.54,6597.57 3132.86,6625.01 3144.51,6630.56C3156.16,6636.11 3179.53,6627.7 3179.53,6627.7C3179.53,6627.7 3167.81,6650.53 3181.12,6659.96C3194.43,6669.39 3223.84,6651.08 3223.84,6651.08" style="fill:none;stroke:rgb(255,169,39);stroke-width:4.17px;"/>
                </g>
                <g transform="matrix(1,0,0,1,-35.9453,1.77508)">
                    <path d="M3138.96,6626.68C3148.39,6638.32 3175.02,6628.34 3175.02,6628.34C3175.02,6628.34 3167.81,6650.53 3181.12,6659.96C3194.43,6669.39 3218.07,6659.07 3218.07,6659.07C3218.07,6659.07 3216.49,6681.25 3230.25,6688.35" style="fill:none;stroke:rgb(255,169,39);stroke-width:4.17px;"/>
                </g>
                <g transform="matrix(0.935302,0,0,1,144.754,32.2842)">
                    <path d="M3143.92,6630.56C3156.16,6639.99 3175.02,6628.34 3175.02,6628.34C3175.02,6628.34 3167.81,6650.53 3181.12,6659.96C3194.43,6669.39 3218.07,6659.07 3218.07,6659.07C3218.07,6659.07 3216.49,6681.25 3230.25,6688.35" style="fill:none;stroke:rgb(255,169,39);stroke-width:4.17px;"/>
                </g>
                <path d="M3090.84,6696.04C3090.84,6696.04 3076.43,6719.33 3091.68,6728.34C3106.94,6737.36 3125.22,6723.52 3125.22,6723.52" style="fill:none;stroke:rgb(255,169,39);stroke-width:4.17px;"/>
            </g>
        </g>
    </g>
</svg>
