<?xml version="1.0" encoding="UTF-8" standalone="no"?>
<!DOCTYPE svg PUBLIC "-//W3C//DTD SVG 1.1//EN" "http://www.w3.org/Graphics/SVG/1.1/DTD/svg11.dtd">
<svg width="100%" height="100%" viewBox="0 0 600 600" version="1.1" xmlns="http://www.w3.org/2000/svg" xmlns:xlink="http://www.w3.org/1999/xlink" xml:space="preserve" xmlns:serif="http://www.serif.com/" style="fill-rule:evenodd;clip-rule:evenodd;stroke-linecap:round;stroke-linejoin:round;stroke-miterlimit:1.5;">
    <g transform="matrix(1,0,0,1,-759.915,-913.473)">
        <g id="_10" serif:id="10" transform="matrix(1,0,0,1,759.915,913.473)">
            <rect x="0" y="0" width="600" height="600" style="fill:none;"/>
            <g transform="matrix(0.595528,0,0,0.595528,-4605.99,-3254.52)">
                <g transform="matrix(1.40547,0,0,1,-3325.49,0)">
                    <path d="M8347.16,5885.1C8347.16,5885.1 8393.09,5728.48 8265.18,5789.09C8150.83,5843.27 8091.69,5797.89 8057.68,5741.21C8032.64,5699.48 7991.66,5641.33 7888.4,5637.95C7891.78,5798.77 7888.4,6276.15 7888.4,6276.15C7888.4,6276.15 8015.9,6301.7 8075.08,6255.87C8133.57,6210.57 8206.67,6165.64 8308.24,6160.56C8409.81,6155.49 8375.94,5930.81 8347.16,5885.1Z" style="fill:rgb(97,224,238);"/>
                    <clipPath id="_clip1">
                        <path d="M8347.16,5885.1C8347.16,5885.1 8393.09,5728.48 8265.18,5789.09C8150.83,5843.27 8091.69,5797.89 8057.68,5741.21C8032.64,5699.48 7991.66,5641.33 7888.4,5637.95C7891.78,5798.77 7888.4,6276.15 7888.4,6276.15C7888.4,6276.15 8015.9,6301.7 8075.08,6255.87C8133.57,6210.57 8206.67,6165.64 8308.24,6160.56C8409.81,6155.49 8375.94,5930.81 8347.16,5885.1Z"/>
                    </clipPath>
                    <g clip-path="url(#_clip1)">
                        <g transform="matrix(0.3852,0,0,0.541387,5063.87,2445.11)">
                            <path d="M7782.68,6523.15C7782.68,6523.15 7864.67,6636.89 8007.51,6549.6C8137.12,6652.76 8224.4,6562.82 8229.69,6528.44C8316.98,6549.6 8354.01,6406.77 8285.24,6377.67C8245.57,6274.51 8089.51,6248.06 8028.67,6306.25C7893.77,6240.13 7724.49,6263.93 7695.39,6419.99C7602.81,6512.57 7772.1,6586.63 7782.68,6523.15Z" style="fill:white;"/>
                        </g>
                        <g transform="matrix(0.711505,0,0,1,2366.1,0)">
                            <path d="M8041.93,5702.45C8041.93,5702.45 8001.85,5698.12 7995.35,5750.12C7955.26,5784.79 7942.26,5850.88 8006.18,5916.97C8037.6,6007.98 8118.86,5965.73 8124.27,5941.89C8151.36,5960.31 8242.37,5938.64 8232.62,5861.72C8278.12,5833.55 8266.2,5746.87 8221.78,5738.21C8194.7,5682.95 8090.69,5621.2 8041.93,5702.45" style="fill:rgb(43,129,15);stroke:black;stroke-width:8.33px;"/>
                        </g>
                        <g transform="matrix(0.711505,0,0,1,2366.1,0)">
                            <path d="M7763.25,5604.73C7763.25,5604.73 7807.94,5542.43 7752.41,5503.16C7774.08,5463.89 7653.55,5355.54 7596.67,5457.11C7382.69,5501.81 7493.75,5797.04 7638.65,5788.91C7644.07,5952.78 7719.91,6028.62 7784.92,6036.74C7849.92,6044.87 7973.16,6029.97 8016.5,5894.55C8134.32,5833.6 8055.77,5669.73 8004.31,5680.57C7962.33,5637.23 7881.07,5557.33 7763.25,5604.73Z" style="fill:rgb(43,129,15);stroke:black;stroke-width:8.33px;"/>
                        </g>
                        <g transform="matrix(0.711505,0,0,1,2366.1,0)">
                            <rect x="7809.87" y="5571.41" width="125.948" height="773.294" style="fill:rgb(144,108,27);"/>
                            <clipPath id="_clip2">
                                <rect x="7809.87" y="5571.41" width="125.948" height="773.294"/>
                            </clipPath>
                            <g clip-path="url(#_clip2)">
                                <path d="M7881.76,5545.43C7881.76,5545.43 7864.15,5615.85 7887.18,5690.34C7910.2,5764.82 7929.16,5812.22 7918.32,5894.83C7907.49,5977.44 7880.4,6065.47 7907.49,6191.42C7934.58,6317.37 7910.2,6404.04 7910.2,6404.04" style="fill:none;stroke:rgb(185,142,45);stroke-width:8.33px;"/>
                                <path d="M7860.09,5546.78C7860.09,5546.78 7826.23,5632.1 7845.19,5709.3C7864.15,5786.49 7884.47,5800.03 7870.92,5882.65C7857.38,5965.26 7849.26,6041.1 7872.28,6139.96C7895.3,6238.82 7915.62,6318.72 7887.18,6363.41" style="fill:none;stroke:rgb(185,142,45);stroke-width:8.33px;"/>
                                <path d="M7906.14,5530.53C7906.14,5530.53 7900.72,5703.88 7945.41,5724.19" style="fill:none;stroke:rgb(185,142,45);stroke-width:8.33px;"/>
                                <path d="M7834.36,5542.72C7834.36,5542.72 7814.05,5607.73 7805.92,5661.9C7797.79,5716.07 7831.65,5722.84 7835.71,5806.81C7839.78,5890.77 7816.75,5969.32 7822.17,6019.43C7827.59,6069.54 7884.47,6240.18 7831.65,6385.08" style="fill:none;stroke:rgb(185,142,45);stroke-width:8.33px;"/>
                            </g>
                            <rect x="7809.87" y="5571.41" width="125.948" height="773.294" style="fill:none;stroke:black;stroke-width:8.33px;"/>
                        </g>
                        <g transform="matrix(0.711505,0,0,1,2366.1,0)">
                            <path d="M7907.3,5882.17C7907.3,5882.17 7895.07,5916.54 7910.81,5931C7941.48,5959.16 7958.29,5891.84 8024.32,5866.45C8090.34,5841.05 8126.6,5824.13 8185.85,5829.2C8194.76,5807.19 8130.29,5796.84 8090.42,5805.61C7997.39,5826.05 7955.93,5847.41 7907.3,5882.17Z" style="fill:rgb(144,108,27);stroke:black;stroke-width:8.33px;"/>
                        </g>
                        <g transform="matrix(-0.257118,-0.932422,0.663423,-0.361372,6066.5,15250.4)">
                            <path d="M7907.3,5882.17C7907.3,5882.17 7916.96,5898.07 7937.81,5902.79C7977.13,5911.7 7958.29,5891.84 8024.32,5866.45C8090.34,5841.05 8126.6,5824.13 8185.85,5829.2C8194.76,5807.19 8130.29,5796.84 8090.42,5805.61C7997.39,5826.05 7955.93,5847.41 7907.3,5882.17Z" style="fill:rgb(144,108,27);stroke:black;stroke-width:8.33px;"/>
                        </g>
                        <g transform="matrix(0.711505,0,0,1,2366.1,0)">
                            <path d="M7677.93,5725.26C7677.93,5725.26 7653.55,5690.05 7698.24,5656.19C7688.76,5596.6 7730.74,5555.98 7791.69,5573.58C7794.4,5503.16 7956.91,5503.16 7939.3,5614.21C8025.98,5665.67 7918.99,5740.16 7885.13,5692.76C7852.63,5711.72 7824.19,5612.86 7779.5,5660.26C7734.81,5707.65 7707.72,5772.66 7677.93,5725.26Z" style="fill:rgb(43,129,15);stroke:black;stroke-width:8.33px;"/>
                        </g>
                        <g transform="matrix(0.711505,0,0,1,2366.1,0)">
                            <path d="M7997.54,5803.81C7997.54,5803.81 7985.35,5719.84 8061.19,5736.1C8096.4,5695.47 8155.99,5672.44 8180.36,5741.51C8229.12,5760.47 8252.14,5840.37 8172.24,5871.52C8168.18,5910.8 8081.5,5935.17 8066.61,5893.19C8023.27,5897.25 7971.81,5887.77 7997.54,5803.81Z" style="fill:rgb(43,129,15);stroke:black;stroke-width:8.33px;"/>
                        </g>
                        <g transform="matrix(0.711505,0,0,1,2366.1,0)">
                            <path d="M8084.21,6348.23C8084.21,6348.23 7910.86,6340.1 7973.16,6197.9C7947.43,6127.48 7963.68,6038.1 8035.46,6027.27C8107.23,6016.43 8154.63,6119.36 8154.63,6119.36C8154.63,6119.36 8200.68,6034.04 8272.46,6085.5C8344.23,6136.96 8207.45,6294.06 8207.45,6294.06L8084.21,6348.23Z" style="fill:rgb(43,129,15);stroke:black;stroke-width:8.33px;"/>
                        </g>
                    </g>
                    <path d="M8347.16,5885.1C8347.16,5885.1 8393.09,5728.48 8265.18,5789.09C8150.83,5843.27 8091.69,5797.89 8057.68,5741.21C8032.64,5699.48 7991.66,5641.33 7888.4,5637.95C7891.78,5798.77 7888.4,6276.15 7888.4,6276.15C7888.4,6276.15 8015.9,6301.7 8075.08,6255.87C8133.57,6210.57 8206.67,6165.64 8308.24,6160.56C8409.81,6155.49 8375.94,5930.81 8347.16,5885.1Z" style="fill:none;stroke:black;stroke-width:8.33px;"/>
                </g>
                <g transform="matrix(-0.997047,0.0767975,0.0767975,0.997047,11770.3,1262.25)">
                    <g>
                        <g transform="matrix(-0.46727,0.0637134,-0.0637134,-0.46727,5170.32,4639.3)">
                            <path d="M2787.51,613.28C2787.51,613.28 2876.01,567.95 2927.82,598.17C2979.63,628.39 2964.52,678.037 2919.19,671.562C2873.86,665.086 2830.68,662.927 2802.62,686.672C2774.56,710.416 2731.39,641.342 2787.51,613.28Z" style="fill:rgb(214,194,149);stroke:black;stroke-width:20.03px;"/>
                        </g>
                        <g transform="matrix(-0.712076,0,0,0.712076,5843.54,3579.93)">
                            <path d="M3077.27,879.49C3077.27,879.49 3108.11,847.368 3119.67,925.745" style="fill:none;stroke:rgb(97,224,238);stroke-width:13.26px;"/>
                        </g>
                        <g transform="matrix(0.712076,0,0,0.712076,1385.1,3574.44)">
                            <path d="M3077.27,879.49C3077.27,879.49 3106.83,848.653 3117.1,929.6" style="fill:none;stroke:rgb(97,224,238);stroke-width:13.26px;"/>
                        </g>
                        <g transform="matrix(-0.526602,0.146016,0.146016,0.526602,5125.77,3269.71)">
                            <path d="M3077.27,879.49C3077.27,879.49 3113.14,839.637 3136.24,954.162" style="fill:none;stroke:rgb(97,224,238);stroke-width:17.28px;"/>
                        </g>
                        <g transform="matrix(-0.259376,-0.393859,-0.393859,0.259376,4712.1,5673.36)">
                            <path d="M2787.51,613.28C2787.51,613.28 2876.01,567.95 2927.82,598.17C2979.63,628.39 2964.52,678.037 2919.19,671.562C2873.86,665.086 2830.68,662.927 2802.62,686.672C2774.56,710.416 2731.39,641.342 2787.51,613.28Z" style="fill:rgb(214,194,149);stroke:black;stroke-width:20.03px;"/>
                        </g>
                        <g transform="matrix(0.284217,-0.376326,0.376326,0.284217,2455.74,5622.56)">
                            <path d="M2787.51,613.28C2787.51,613.28 2876.01,567.95 2927.82,598.17C2979.63,628.39 2964.52,678.037 2919.19,671.562C2873.86,665.086 2830.68,662.927 2802.62,686.672C2774.56,710.416 2731.39,641.342 2787.51,613.28Z" style="fill:rgb(214,194,149);stroke:black;stroke-width:20.03px;"/>
                        </g>
                        <g transform="matrix(-0.248175,0,0,0.248175,4026.05,4220.12)">
                            <path d="M2279.67,511.904C2283.15,491.051 2325.81,459.166 2343.54,451.945C2559.26,364.088 2483.64,611.456 2358.06,601.659" style="fill:rgb(97,224,238);"/>
                            <path d="M2304.7,516.075C2304.88,515.003 2305.92,514.071 2306.77,512.845C2309.26,509.272 2312.59,505.624 2316.27,502.031C2328.41,490.188 2344.35,479.012 2353.11,475.444C2381.6,463.842 2404.22,458.492 2421.88,458.41C2433.69,458.355 2442.47,460.424 2448,465.718C2452.26,469.796 2453.91,475.587 2454.33,481.873C2454.95,491.361 2452.65,501.87 2448.44,512.309C2434.92,545.837 2401.43,579.593 2360.03,576.364C2346.07,575.275 2333.86,585.725 2332.76,599.686C2331.68,613.647 2342.13,625.866 2356.09,626.955C2420.19,631.956 2474.55,583.219 2495.5,531.292C2511.34,492.019 2507.27,452.211 2483.09,429.061C2460.14,407.089 2413.02,396.254 2333.97,428.447C2319.33,434.411 2290.08,454.38 2272.55,474.417C2262.51,485.893 2256.29,497.868 2254.64,507.733C2252.34,521.546 2261.69,534.629 2275.5,536.931C2289.31,539.234 2302.4,529.888 2304.7,516.075Z"/>
                        </g>
                        <g transform="matrix(0.124088,-0.214926,-0.214926,-0.124088,3570.79,4862.67)">
                            <path d="M2301.37,493.302C2304.85,472.448 2326.32,460.207 2344.05,452.986C2559.76,365.129 2483.64,611.456 2358.06,601.659" style="fill:rgb(97,224,238);"/>
                            <path d="M2326.4,497.473C2327.1,493.26 2330.21,490.312 2333.45,487.657C2339.48,482.712 2346.94,479.203 2353.62,476.485C2382.12,464.875 2404.75,459.505 2422.41,459.388C2434.18,459.31 2442.93,461.323 2448.43,466.569C2452.62,470.566 2454.23,476.255 2454.62,482.428C2455.22,491.836 2452.89,502.259 2448.67,512.616C2435.06,545.996 2401.45,579.594 2360.03,576.364C2346.07,575.275 2333.86,585.725 2332.76,599.686C2331.68,613.647 2342.13,625.866 2356.09,626.955C2420.17,631.954 2474.59,583.427 2495.66,531.779C2511.64,492.594 2507.62,452.888 2483.45,429.843C2460.58,408.035 2413.51,397.3 2334.48,429.488C2309.32,439.732 2281.28,459.546 2276.35,489.13C2274.05,502.943 2283.39,516.027 2297.2,518.329C2311.02,520.631 2324.1,511.286 2326.4,497.473Z"/>
                        </g>
                        <g transform="matrix(-0.366992,-4.49435e-17,4.49435e-17,-0.366992,4335.39,4921.51)">
                            <path d="M1602.28,658.224C1602.28,658.224 1537.63,785.329 1549.85,894.354C1588.09,1235.66 1487.62,1302.63 1526.9,1510.82C1540.54,1583.11 1566.32,1665.45 1610.23,1725.3C1706.72,1856.83 1892.19,1925.15 2053.51,1894.26C2118.1,1881.89 2176.43,1853.93 2234.15,1823.26C2434.98,1716.58 2476.71,1491.41 2450.61,1301.63C2439.06,1217.62 2366.83,1086.68 2377.39,1002.44C2399.42,826.82 2393.26,731.764 2338.43,618.483C2291.7,521.934 2109.83,449.196 1911,469.87C1877.12,473.393 1674.41,508.918 1602.28,658.224Z" style="fill:rgb(97,224,238);"/>
                            <clipPath id="_clip3">
                                <path d="M1602.28,658.224C1602.28,658.224 1537.63,785.329 1549.85,894.354C1588.09,1235.66 1487.62,1302.63 1526.9,1510.82C1540.54,1583.11 1566.32,1665.45 1610.23,1725.3C1706.72,1856.83 1892.19,1925.15 2053.51,1894.26C2118.1,1881.89 2176.43,1853.93 2234.15,1823.26C2434.98,1716.58 2476.71,1491.41 2450.61,1301.63C2439.06,1217.62 2366.83,1086.68 2377.39,1002.44C2399.42,826.82 2393.26,731.764 2338.43,618.483C2291.7,521.934 2109.83,449.196 1911,469.87C1877.12,473.393 1674.41,508.918 1602.28,658.224Z"/>
                            </clipPath>
                            <g clip-path="url(#_clip3)">
                                <g transform="matrix(1.58206,-1.93747e-16,-1.93747e-16,-1.58206,-849.364,3866.96)">
                                    <path d="M2003.37,1344.04C2003.37,1344.04 2046.61,1399.62 2034.91,1485.96C2017.34,1615.67 1962.83,1587.84 1966.54,1821.27C1968.39,1937.63 1975.33,2007.81 1924.09,2077.86C1874.32,2145.89 1732.01,2145.79 1696.03,2135.51C1660.05,2125.24 1837.88,2172.52 1939.64,2131.4C2041.4,2090.29 2055.79,1917.6 2042.43,1809.67C2029.07,1701.74 2115.41,1670.91 2086.63,1484.86C2040.38,1375.9 2039.35,1382.07 2003.37,1344.04Z" style="fill:rgb(79,203,224);"/>
                                </g>
                                <g transform="matrix(1.58206,-1.93747e-16,-1.93747e-16,-1.58206,-822.199,3866.96)">
                                    <path d="M1816.44,1503.57C1816.44,1503.57 1829.07,1566.72 1904.33,1563.04C1979.59,1559.36 1984.85,1482.52 1984.85,1482.52L1816.44,1503.57Z" style="fill:rgb(79,203,224);"/>
                                </g>
                                <g transform="matrix(1.58206,-1.93747e-16,-1.93747e-16,-1.58206,-1331.45,3917.75)">
                                    <path d="M1816.44,1503.57C1816.44,1503.57 1829.07,1566.72 1904.33,1563.04C1979.59,1559.36 1984.85,1482.52 1984.85,1482.52L1816.44,1503.57Z" style="fill:rgb(79,203,224);"/>
                                </g>
                            </g>
                            <path d="M1586.83,650.76C1617.31,587.666 1669.65,543.59 1724.03,513.433C1804.06,469.05 1888.16,454.995 1909.22,452.804C2032.07,440.031 2148.59,462.087 2232.58,503.089C2290.97,531.601 2333.8,569.529 2353.87,611.008C2410.08,727.143 2417,824.531 2394.42,1004.57C2389.4,1044.58 2404.69,1095.56 2421.96,1146.63C2440.52,1201.51 2461.71,1256.42 2467.61,1299.29C2494.61,1495.65 2450,1728.03 2242.2,1838.42C2182.96,1869.89 2123.03,1898.42 2056.74,1911.11C1889.18,1943.2 1696.62,1872.06 1596.39,1735.45C1551.04,1673.63 1524.13,1588.68 1510.04,1514C1493.87,1428.29 1500.6,1365.83 1512.12,1299.26C1528.7,1203.39 1555.47,1098.63 1532.79,896.265C1520.08,782.804 1586.99,650.445 1586.99,650.445L1586.83,650.76ZM1617.57,666.003C1617.57,666.003 1555.18,787.854 1566.9,892.444C1586.28,1065.46 1570.51,1168.94 1554.87,1255.56C1539.82,1338.93 1524.6,1406.05 1543.76,1507.64C1556.95,1577.55 1581.6,1657.28 1624.06,1715.15C1716.83,1841.6 1895.19,1907.11 2050.28,1877.41C2113.18,1865.37 2169.9,1837.97 2226.1,1808.11C2419.97,1705.12 2458.81,1487.17 2433.61,1303.97C2426.78,1254.29 2398.22,1188.03 2378.87,1124.99C2364.99,1079.76 2355.89,1036.04 2360.37,1000.3C2381.84,829.108 2376.43,736.386 2322.98,625.959C2305.68,590.198 2267.87,558.507 2217.52,533.927C2138.39,495.292 2028.53,474.9 1912.77,486.936C1893.19,488.973 1815.07,502.187 1740.67,543.443C1692.1,570.378 1644.95,609.336 1617.73,665.687L1617.57,666.003Z"/>
                        </g>
                        <g transform="matrix(-0.184591,-2.26059e-17,1.80488e-17,-0.14738,3985.26,4787.68)">
                            <path d="M2244.02,463.384C1568.86,266.571 1450.76,759.917 1427.56,867.142C1383.84,1069.12 1362.66,1460.63 1401.94,1668.83C1415.58,1741.12 1441.36,1823.46 1485.27,1883.31C1581.76,2014.84 2013.3,2026.28 2174.62,1995.39C2239.21,1983.02 2297.53,1955.05 2355.26,1924.39C2556.09,1817.7 2626.87,574.985 2244.02,463.384Z" style="fill:rgb(183,248,255);"/>
                        </g>
                        <g transform="matrix(-0.366992,0,0,0.366992,4396.22,4111.56)">
                            <circle cx="1749.06" cy="789.086" r="14.17" style="fill:rgb(183,248,255);"/>
                        </g>
                        <g transform="matrix(-0.366992,0,0,0.366992,4138.05,4121)">
                            <circle cx="1749.06" cy="789.086" r="14.17" style="fill:rgb(183,248,255);"/>
                        </g>
                        <g transform="matrix(0.755624,0,0,0.755624,1593.29,2950.52)">
                            <g transform="matrix(0.985246,-0.171146,0.171146,0.985246,-447.439,360.873)">
                                <path d="M2697.43,2116.08C2715.38,2062.23 2778.63,2074.96 2821.8,2102.72C2864.97,2130.47 2886.56,2080.1 2919.45,2098.61C2952.35,2117.11 2899.92,2209.62 2825.91,2216.81C2751.91,2224.01 2680.98,2165.42 2697.43,2116.08Z"/>
                            </g>
                            <g transform="matrix(-0.768377,0,0,0.768377,4824.64,703.814)">
                                <g transform="matrix(0.631927,-0.0141535,0.015742,0.702848,1469.43,1050.75)">
                                    <path d="M1960.41,874.118C1963.57,893.086 1961.3,928.116 1971.79,944.361C1976.87,952.237 1989.75,953.613 1998.14,954.513C2046.33,959.682 2049.89,915.114 2060.81,876.97" style="fill:rgb(237,237,237);"/>
                                    <path d="M1947.68,875.833C1949.56,887.102 1949.48,904.097 1951.37,919.364C1952.87,931.443 1955.73,942.534 1960.66,950.17C1964.09,955.48 1969.43,959.242 1975.73,961.696C1982.52,964.337 1990.52,965.348 1996.61,966.001C2012.18,967.671 2024.08,965.013 2033.49,959.783C2042.77,954.625 2049.74,946.782 2055.02,937.056C2063.63,921.171 2067.59,899.702 2073.28,879.855C2075.05,873.671 2070.9,867.358 2064.02,865.766C2057.14,864.174 2050.12,867.902 2048.35,874.086C2043.11,892.382 2039.83,912.268 2031.88,926.912C2028.88,932.45 2025.24,937.163 2019.96,940.1C2014.8,942.965 2008.19,943.939 1999.66,943.024C1996.19,942.652 1991.78,942.248 1987.72,941.055C1985.87,940.511 1983.88,940.041 1982.92,938.553C1979.46,933.191 1978.01,925.277 1976.95,916.796C1975.02,901.226 1975.05,883.896 1973.14,872.404C1972.09,866.088 1965.53,861.73 1958.5,862.676C1951.48,863.622 1946.63,869.518 1947.68,875.833Z"/>
                                </g>
                                <g transform="matrix(0.676451,0.0416125,-0.0481144,0.782146,1960.61,968.001)">
                                    <ellipse cx="1221.96" cy="702.82" rx="66.462" ry="36.543"/>
                                </g>
                                <g transform="matrix(0.621633,0.114474,-0.114474,0.621633,2092.68,1002.77)">
                                    <path d="M1179.05,724.966C1182.55,745.991 1182.67,766.767 1184.92,787.826C1185.68,794.888 1192.03,800.006 1199.09,799.249C1206.15,798.492 1211.27,792.144 1210.51,785.082C1208.2,763.523 1208.02,742.26 1204.43,720.734C1203.27,713.729 1196.63,708.989 1189.63,710.157C1182.62,711.324 1177.88,717.96 1179.05,724.966Z"/>
                                </g>
                                <g transform="matrix(0.734444,-0.222559,0.222559,0.734444,569.292,1743.65)">
                                    <ellipse cx="2765.83" cy="286.812" rx="23.313" ry="12.088" style="fill:rgb(183,248,255);"/>
                                </g>
                                <g transform="matrix(0.493537,0.587674,-0.587674,0.493537,1802.93,-389.275)">
                                    <ellipse cx="2765.83" cy="286.812" rx="23.313" ry="12.088" style="fill:rgb(183,248,255);"/>
                                </g>
                                <g transform="matrix(1.18978,-0.169438,0.169438,1.18978,1245.06,999.679)">
                                    <circle cx="1071.81" cy="534.398" r="76.669" style="fill:white;stroke:black;stroke-width:13.54px;"/>
                                </g>
                                <g transform="matrix(-2.5024,1.44476,-1.44476,-2.5024,5959.94,1291.88)">
                                    <circle cx="1044.8" cy="535.269" r="11.326"/>
                                </g>
                                <g transform="matrix(-0.70199,0.405294,-0.405294,-0.70199,4411.15,658.493)">
                                    <circle cx="2472.68" cy="285.194" r="11.336" style="fill:white;"/>
                                </g>
                                <g transform="matrix(1.18978,-0.169438,0.169438,1.18978,1569.81,1026.66)">
                                    <circle cx="1071.81" cy="534.398" r="76.669" style="fill:white;stroke:black;stroke-width:13.54px;"/>
                                </g>
                                <g transform="matrix(-2.5024,1.44476,-1.44476,-2.5024,6278.75,1316.09)">
                                    <circle cx="1044.8" cy="535.269" r="11.326"/>
                                </g>
                                <g transform="matrix(-0.70199,0.405294,-0.405294,-0.70199,4730.94,685.12)">
                                    <circle cx="2472.68" cy="285.194" r="11.336" style="fill:white;"/>
                                </g>
                            </g>
                        </g>
                        <g transform="matrix(-0.401963,0.246631,0.246631,0.401963,4529.44,3579.64)">
                            <path d="M2787.51,613.28C2787.51,613.28 2876.01,567.95 2927.82,598.17C2979.63,628.39 2964.52,678.037 2919.19,671.562C2873.86,665.086 2830.68,662.927 2802.62,686.672C2774.56,710.416 2731.39,641.342 2787.51,613.28Z" style="fill:rgb(214,194,149);stroke:black;stroke-width:20.03px;"/>
                        </g>
                    </g>
                </g>
                <g transform="matrix(1,0,0,1,731.84,172.898)">
                    <path d="M7901.41,5630.64C7901.41,5607.84 7882.9,5589.33 7860.1,5589.33L7625.81,5589.33C7603.01,5589.33 7584.5,5607.84 7584.5,5630.64L7584.5,5713.25C7584.5,5736.04 7603.01,5754.55 7625.81,5754.55L7860.1,5754.55C7882.9,5754.55 7901.41,5736.04 7901.41,5713.25L7901.41,5630.64Z" style="fill:rgb(44,44,44);stroke:black;stroke-width:8.33px;"/>
                </g>
                <g transform="matrix(0.867521,0,0,1,1726.07,172.265)">
                    <path d="M7901.41,5630.64C7901.41,5607.84 7880.07,5589.33 7853.79,5589.33L7632.12,5589.33C7605.84,5589.33 7584.5,5607.84 7584.5,5630.64L7584.5,5713.25C7584.5,5736.04 7605.84,5754.55 7632.12,5754.55L7853.79,5754.55C7880.07,5754.55 7901.41,5736.04 7901.41,5713.25L7901.41,5630.64Z" style="fill:rgb(55,55,55);stroke:black;stroke-width:8.33px;"/>
                </g>
                <path d="M8412.14,5761.18C8412.14,5761.18 8461.34,5719.16 8525.06,5721.53C8579.67,5723.56 8598.57,5761.08 8598.57,5761.08C8598.57,5761.08 8547.7,5719.08 8491.36,5760.25C8448.51,5760.92 8412.14,5761.18 8412.14,5761.18Z" style="fill:rgb(55,55,55);stroke:black;stroke-width:8.33px;"/>
                <g transform="matrix(1.11506,0,0,1,-990.081,0)">
                    <path d="M8605.19,5834.71L8604.87,5866.12C8604.87,5866.12 8631.25,5917.9 8681.52,5912.7C8687.73,5900.95 8680.6,5886.71 8680.6,5886.71C8680.6,5886.71 8661.53,5892.78 8605.19,5834.71Z" style="fill:rgb(55,55,55);stroke:black;stroke-width:8.33px;"/>
                </g>
                <g transform="matrix(0.990984,-0.133982,0.133982,0.990984,-764.634,868.107)">
                    <path d="M8283.86,6346.26C8283.86,6346.26 8251.96,6297.73 8285.94,6279.7C8319.92,6261.67 8298.42,6342.1 8283.86,6346.26Z" style="fill:rgb(255,179,0);stroke:black;stroke-width:8.33px;"/>
                    <g transform="matrix(0.448636,-0.580088,0.412103,0.318718,1951.87,9130.94)">
                        <path d="M8283.86,6346.26C8283.86,6346.26 8251.96,6297.73 8285.94,6279.7C8319.92,6261.67 8298.42,6342.1 8283.86,6346.26Z" style="fill:rgb(255,179,0);stroke:black;stroke-width:8.33px;"/>
                    </g>
                    <g transform="matrix(0.938939,0.344084,-0.344084,0.938939,2693.59,-2460.15)">
                        <path d="M8283.86,6346.26C8283.86,6346.26 8251.96,6297.73 8285.94,6279.7C8319.92,6261.67 8298.42,6342.1 8283.86,6346.26Z" style="fill:rgb(255,179,0);stroke:black;stroke-width:8.33px;"/>
                    </g>
                    <g transform="matrix(0.620841,-0.390299,0.277274,0.441054,1384.47,6784.85)">
                        <path d="M8283.86,6346.26C8283.86,6346.26 8251.96,6297.73 8285.94,6279.7C8319.92,6261.67 8298.42,6342.1 8283.86,6346.26Z" style="fill:rgb(255,179,0);stroke:black;stroke-width:8.33px;"/>
                    </g>
                </g>
                <g transform="matrix(1,0,0,1,-124.256,-206.908)">
                    <path d="M8190,6311.82C8190,6311.82 8168.37,6309.6 8177.8,6269.66C8221.07,6292.4 8201.65,6315.7 8190,6311.82Z" style="fill:rgb(100,169,77);"/>
                </g>
                <g transform="matrix(0.877702,0.479207,-0.479207,0.877702,3919.77,-3277.92)">
                    <path d="M8190,6311.82C8190,6311.82 8168.37,6309.6 8177.8,6269.66C8221.07,6292.4 8201.65,6315.7 8190,6311.82Z" style="fill:rgb(100,169,77);"/>
                </g>
                <g transform="matrix(0.612237,0.790674,-0.790674,0.612237,8183.71,-4207.07)">
                    <path d="M8190,6311.82C8190,6311.82 8168.37,6309.6 8177.8,6269.66C8221.07,6292.4 8201.65,6315.7 8190,6311.82Z" style="fill:rgb(100,169,77);"/>
                </g>
                <g transform="matrix(0.678355,0,0,0.678355,2482.02,1864.61)">
                    <path d="M8190,6311.82C8190,6311.82 8168.37,6309.6 8177.8,6269.66C8221.07,6292.4 8201.65,6315.7 8190,6311.82Z" style="fill:rgb(100,169,77);"/>
                </g>
                <g transform="matrix(0.519362,0.436382,-0.436382,0.519362,6607.1,-716.904)">
                    <path d="M8190,6311.82C8190,6311.82 8168.37,6309.6 8177.8,6269.66C8221.07,6292.4 8201.65,6315.7 8190,6311.82Z" style="fill:rgb(100,169,77);"/>
                </g>
                <g transform="matrix(0.0792576,0.673709,-0.673709,0.0792576,11848.2,122.483)">
                    <path d="M8190,6311.82C8190,6311.82 8168.37,6309.6 8177.8,6269.66C8221.07,6292.4 8201.65,6315.7 8190,6311.82Z" style="fill:rgb(100,169,77);"/>
                </g>
                <g transform="matrix(-0.648555,0.198853,-0.198853,-0.648555,14661.4,8298.96)">
                    <path d="M8190,6311.82C8190,6311.82 8168.37,6309.6 8177.8,6269.66C8221.07,6292.4 8201.65,6315.7 8190,6311.82Z" style="fill:rgb(100,169,77);"/>
                </g>
                <g transform="matrix(-0.418721,0.533703,-0.533703,-0.418721,14944.5,4107.2)">
                    <path d="M8190,6311.82C8190,6311.82 8168.37,6309.6 8177.8,6269.66C8221.07,6292.4 8201.65,6315.7 8190,6311.82Z" style="fill:rgb(100,169,77);"/>
                </g>
                <g transform="matrix(0.668515,0.115123,-0.115123,0.668515,3215.22,620.214)">
                    <path d="M8190,6311.82C8190,6311.82 8168.37,6309.6 8177.8,6269.66C8221.07,6292.4 8201.65,6315.7 8190,6311.82Z" style="fill:rgb(100,169,77);"/>
                </g>
                <g transform="matrix(-0.388602,-0.556017,0.556017,-0.388602,7472.35,12792.3)">
                    <path d="M8190,6311.82C8190,6311.82 8168.37,6309.6 8177.8,6269.66C8221.07,6292.4 8201.65,6315.7 8190,6311.82Z" style="fill:rgb(100,169,77);"/>
                </g>
                <g transform="matrix(-0.0355111,-0.677425,0.677425,-0.0355111,3815.9,11759.5)">
                    <path d="M8190,6311.82C8190,6311.82 8168.37,6309.6 8177.8,6269.66C8221.07,6292.4 8201.65,6315.7 8190,6311.82Z" style="fill:rgb(100,169,77);"/>
                </g>
                <g transform="matrix(-0.796943,-0.589475,0.534966,-0.723249,11209.1,15211)">
                    <path d="M8190,6311.82C8190,6311.82 8168.37,6309.6 8177.8,6269.66C8221.07,6292.4 8201.65,6315.7 8190,6311.82Z" style="fill:rgb(100,169,77);"/>
                </g>
                <g transform="matrix(0.519362,0.436382,-0.436382,0.519362,6542.75,-643.682)">
                    <path d="M8190,6311.82C8190,6311.82 8168.37,6309.6 8177.8,6269.66C8221.07,6292.4 8201.65,6315.7 8190,6311.82Z" style="fill:rgb(100,169,77);"/>
                </g>
            </g>
        </g>
    </g>
</svg>
