<?xml version="1.0" encoding="UTF-8" standalone="no"?>
<!DOCTYPE svg PUBLIC "-//W3C//DTD SVG 1.1//EN" "http://www.w3.org/Graphics/SVG/1.1/DTD/svg11.dtd">
<svg width="100%" height="100%" viewBox="0 0 600 600" version="1.1" xmlns="http://www.w3.org/2000/svg" xmlns:xlink="http://www.w3.org/1999/xlink" xml:space="preserve" xmlns:serif="http://www.serif.com/" style="fill-rule:evenodd;clip-rule:evenodd;stroke-linecap:round;stroke-linejoin:round;stroke-miterlimit:1.5;">
    <g transform="matrix(1,0,0,1,-2279.74,-913.473)">
        <g id="_12" serif:id="12" transform="matrix(1,0,0,1,2279.74,913.473)">
            <rect x="0" y="0" width="600" height="600" style="fill:none;"/>
            <g transform="matrix(0.295684,0,0,0.295684,-1812.08,-886.262)">
                <g transform="matrix(1,0,0,1,-521.218,-1055.97)">
                    <path d="M7637.14,4393.72C7637.14,4365.96 7614.6,4343.43 7586.85,4343.43L6749.94,4343.43C6722.18,4343.43 6699.65,4365.96 6699.65,4393.72L6699.65,5319C6699.65,5346.76 6722.18,5369.29 6749.94,5369.29L7586.85,5369.29C7614.6,5369.29 7637.14,5346.76 7637.14,5319L7637.14,4393.72Z" style="fill:white;"/>
                    <clipPath id="_clip1">
                        <path d="M7637.14,4393.72C7637.14,4365.96 7614.6,4343.43 7586.85,4343.43L6749.94,4343.43C6722.18,4343.43 6699.65,4365.96 6699.65,4393.72L6699.65,5319C6699.65,5346.76 6722.18,5369.29 6749.94,5369.29L7586.85,5369.29C7614.6,5369.29 7637.14,5346.76 7637.14,5319L7637.14,4393.72Z"/>
                    </clipPath>
                    <g clip-path="url(#_clip1)">
                        <g transform="matrix(1,0,0,0.880952,0,514.393)">
                            <rect x="6635.53" y="4320.9" width="1086.52" height="145.562" style="fill:rgb(106,106,106);stroke:black;stroke-width:8.33px;"/>
                        </g>
                        <g transform="matrix(1.33072,0,0,1.33072,-8108.87,-716.125)">
                            <g transform="matrix(-0.328438,0,0,0.328438,12031,4003.15)">
                                <path d="M2279.67,511.904C2283.15,491.051 2325.81,459.166 2343.54,451.945C2559.26,364.088 2483.64,611.456 2358.06,601.659" style="fill:rgb(97,224,238);"/>
                                <path d="M2254.64,507.733C2256.29,497.868 2262.51,485.893 2272.55,474.417C2290.08,454.38 2319.33,434.411 2333.97,428.447C2413.02,396.254 2460.14,407.089 2483.09,429.061C2507.27,452.211 2511.34,492.019 2495.5,531.292C2474.55,583.219 2420.19,631.956 2356.09,626.955C2342.13,625.866 2331.68,613.647 2332.76,599.686C2333.86,585.725 2346.07,575.275 2360.03,576.364C2401.43,579.593 2434.92,545.837 2448.44,512.309C2452.65,501.87 2454.95,491.361 2454.33,481.873C2453.91,475.587 2452.26,469.796 2448,465.718C2442.47,460.424 2433.69,458.355 2421.88,458.41C2404.22,458.492 2381.6,463.842 2353.11,475.444C2344.35,479.012 2328.41,490.188 2316.27,502.031C2312.59,505.624 2309.26,509.272 2306.77,512.845C2305.92,514.071 2304.88,515.003 2304.7,516.075C2302.4,529.888 2289.31,539.234 2275.5,536.931C2261.69,534.629 2252.34,521.546 2254.64,507.733Z"/>
                            </g>
                            <g transform="matrix(0.239695,0.576248,-0.576248,0.239695,11358.9,2643.24)">
                                <path d="M2787.51,613.28C2787.51,613.28 2876.01,567.95 2927.82,598.17C2979.63,628.39 2964.52,678.037 2919.19,671.562C2873.86,665.086 2830.68,662.927 2802.62,686.672C2774.56,710.416 2731.39,641.342 2787.51,613.28Z" style="fill:rgb(214,194,149);stroke:black;stroke-width:20.03px;"/>
                            </g>
                            <g transform="matrix(-0.942368,0,0,0.942368,14436.3,3155.91)">
                                <path d="M3077.27,879.49C3077.27,879.49 3108.11,847.368 3119.67,925.745" style="fill:none;stroke:rgb(97,224,238);stroke-width:13.26px;"/>
                            </g>
                            <g transform="matrix(0.942368,0,0,0.942368,8535.95,3148.64)">
                                <path d="M3077.27,879.49C3077.27,879.49 3106.83,848.653 3117.1,929.6" style="fill:none;stroke:rgb(97,224,238);stroke-width:13.26px;"/>
                            </g>
                            <g transform="matrix(-0.69691,0.19324,0.19324,0.69691,13486.4,2745.37)">
                                <path d="M3077.27,879.49C3077.27,879.49 3113.14,839.637 3136.24,954.162" style="fill:none;stroke:rgb(97,224,238);stroke-width:17.28px;"/>
                            </g>
                            <g transform="matrix(-0.31441,-0.53913,-0.53913,0.31441,12816.8,6009.97)">
                                <path d="M2787.51,613.28C2787.51,613.28 2876.01,567.95 2927.82,598.17C2979.63,628.39 2964.52,678.037 2919.19,671.562C2873.86,665.086 2830.68,662.927 2802.62,686.672C2774.56,710.416 2731.39,641.342 2787.51,613.28Z" style="fill:rgb(214,194,149);stroke:black;stroke-width:20.03px;"/>
                            </g>
                            <g transform="matrix(0.0520681,-0.621936,-0.621936,-0.0520681,11565.7,6472.75)">
                                <path d="M2787.51,613.28C2787.51,613.28 2876.01,567.95 2927.82,598.17C2979.63,628.39 2964.52,678.037 2919.19,671.562C2873.86,665.086 2830.68,662.927 2802.62,686.672C2774.56,710.416 2731.39,641.342 2787.51,613.28Z" style="fill:rgb(214,194,149);stroke:black;stroke-width:20.03px;"/>
                            </g>
                            <g transform="matrix(0.164219,-0.284435,-0.284435,-0.164219,11428.5,4853.5)">
                                <path d="M2301.37,493.302C2304.85,472.448 2326.32,460.207 2344.05,452.986C2559.76,365.129 2483.64,611.456 2358.06,601.659" style="fill:rgb(97,224,238);"/>
                                <path d="M2276.35,489.13C2281.28,459.546 2309.32,439.732 2334.48,429.488C2413.51,397.3 2460.58,408.035 2483.45,429.843C2507.62,452.888 2511.64,492.594 2495.66,531.779C2474.59,583.427 2420.17,631.954 2356.09,626.955C2342.13,625.866 2331.68,613.647 2332.76,599.686C2333.86,585.725 2346.07,575.275 2360.03,576.364C2401.45,579.594 2435.06,545.996 2448.67,512.616C2452.89,502.259 2455.22,491.836 2454.62,482.428C2454.23,476.255 2452.62,470.566 2448.43,466.569C2442.93,461.323 2434.18,459.31 2422.41,459.388C2404.75,459.505 2382.12,464.875 2353.62,476.485C2346.94,479.203 2339.48,482.712 2333.45,487.657C2330.21,490.312 2327.1,493.26 2326.4,497.473C2324.1,511.286 2311.02,520.631 2297.2,518.329C2283.39,516.027 2274.05,502.943 2276.35,489.13Z"/>
                            </g>
                            <g transform="matrix(-0.48568,-5.94787e-17,5.94787e-17,-0.48568,12440.4,4931.37)">
                                <path d="M1602.28,658.224C1602.28,658.224 1537.63,785.329 1549.85,894.354C1588.09,1235.66 1487.62,1302.63 1526.9,1510.82C1540.54,1583.11 1566.32,1665.45 1610.23,1725.3C1706.72,1856.83 1892.19,1925.15 2053.51,1894.26C2118.1,1881.89 2176.43,1853.93 2234.15,1823.26C2434.98,1716.58 2476.71,1491.41 2450.61,1301.63C2439.06,1217.62 2366.83,1086.68 2377.39,1002.44C2399.42,826.82 2393.26,731.764 2338.43,618.483C2291.7,521.934 2109.83,449.196 1911,469.87C1877.12,473.393 1674.41,508.918 1602.28,658.224Z" style="fill:rgb(97,224,238);"/>
                                <clipPath id="_clip2">
                                    <path d="M1602.28,658.224C1602.28,658.224 1537.63,785.329 1549.85,894.354C1588.09,1235.66 1487.62,1302.63 1526.9,1510.82C1540.54,1583.11 1566.32,1665.45 1610.23,1725.3C1706.72,1856.83 1892.19,1925.15 2053.51,1894.26C2118.1,1881.89 2176.43,1853.93 2234.15,1823.26C2434.98,1716.58 2476.71,1491.41 2450.61,1301.63C2439.06,1217.62 2366.83,1086.68 2377.39,1002.44C2399.42,826.82 2393.26,731.764 2338.43,618.483C2291.7,521.934 2109.83,449.196 1911,469.87C1877.12,473.393 1674.41,508.918 1602.28,658.224Z"/>
                                </clipPath>
                                <g clip-path="url(#_clip2)">
                                    <g transform="matrix(1.58206,-1.93747e-16,-1.93747e-16,-1.58206,-849.364,3866.96)">
                                        <path d="M2003.37,1344.04C2003.37,1344.04 2045.52,1446.83 2019.82,1530.09C1994.12,1613.34 1948.89,1729.5 1956.09,1845.65C1963.28,1961.8 1950.95,2036.84 1925.25,2069.73C1873.36,2136.16 1732.01,2145.79 1696.03,2135.51C1660.05,2125.24 1837.88,2172.52 1939.64,2131.4C2041.4,2090.29 2055.79,1917.6 2042.43,1809.67C2029.07,1701.74 2115.41,1670.91 2086.63,1484.86C2040.38,1375.9 2039.35,1382.07 2003.37,1344.04Z" style="fill:rgb(79,203,224);"/>
                                    </g>
                                    <g transform="matrix(1.58206,-1.93747e-16,-1.93747e-16,-1.58206,-822.199,3866.96)">
                                        <path d="M1816.44,1503.57C1816.44,1503.57 1829.07,1566.72 1904.33,1563.04C1979.59,1559.36 1984.85,1482.52 1984.85,1482.52L1816.44,1503.57Z" style="fill:rgb(79,203,224);"/>
                                    </g>
                                    <g transform="matrix(1.58206,-1.93747e-16,-1.93747e-16,-1.58206,-1331.45,3917.75)">
                                        <path d="M1816.44,1503.57C1816.44,1503.57 1829.07,1566.72 1904.33,1563.04C1979.59,1559.36 1984.85,1482.52 1984.85,1482.52L1816.44,1503.57Z" style="fill:rgb(79,203,224);"/>
                                    </g>
                                </g>
                                <path d="M1586.99,650.445C1586.99,650.445 1520.08,782.804 1532.79,896.265C1555.47,1098.63 1528.7,1203.39 1512.12,1299.26C1500.6,1365.83 1493.87,1428.29 1510.04,1514C1524.13,1588.68 1551.04,1673.63 1596.39,1735.45C1696.62,1872.06 1889.18,1943.2 2056.74,1911.11C2123.03,1898.42 2182.96,1869.89 2242.2,1838.42C2450,1728.03 2494.61,1495.65 2467.61,1299.29C2461.71,1256.42 2440.52,1201.51 2421.96,1146.63C2404.69,1095.56 2389.4,1044.58 2394.42,1004.57C2417,824.531 2410.08,727.143 2353.87,611.008C2333.8,569.529 2290.97,531.601 2232.58,503.089C2148.59,462.087 2032.07,440.031 1909.22,452.804C1888.16,454.995 1804.06,469.05 1724.03,513.433C1669.65,543.59 1617.31,587.666 1586.83,650.76L1586.99,650.445ZM1617.57,666.003C1617.63,665.898 1617.68,665.793 1617.73,665.687C1644.95,609.336 1692.1,570.378 1740.67,543.443C1815.07,502.187 1893.19,488.973 1912.77,486.936C2028.53,474.9 2138.39,495.292 2217.52,533.927C2267.87,558.507 2305.68,590.198 2322.98,625.959C2376.43,736.386 2381.84,829.108 2360.37,1000.3C2355.89,1036.04 2364.99,1079.76 2378.87,1124.99C2398.22,1188.03 2426.78,1254.29 2433.61,1303.97C2458.81,1487.17 2419.97,1705.12 2226.1,1808.11C2169.9,1837.97 2113.18,1865.37 2050.28,1877.41C1895.19,1907.11 1716.83,1841.6 1624.06,1715.15C1581.6,1657.28 1556.95,1577.55 1543.76,1507.64C1524.6,1406.05 1539.82,1338.93 1554.87,1255.56C1570.51,1168.94 1586.28,1065.46 1566.9,892.444C1555.18,787.854 1617.57,666.003 1617.57,666.003Z"/>
                            </g>
                            <g transform="matrix(-0.244289,-2.99168e-17,2.3886e-17,-0.195044,11977,4754.25)">
                                <path d="M1949.25,437.086C1546.42,524.992 1450.76,759.917 1427.56,867.142C1383.84,1069.12 1362.66,1460.63 1401.94,1668.83C1415.58,1741.12 1441.36,1823.46 1485.27,1883.31C1581.76,2014.84 2013.3,2026.28 2174.62,1995.39C2239.21,1983.02 2297.53,1955.05 2355.26,1924.39C2556.09,1817.7 2625.17,583.75 2244.02,463.384C2142.23,431.238 2013.17,423.135 1949.25,437.086Z" style="fill:rgb(183,248,255);"/>
                            </g>
                            <g transform="matrix(-0.48568,0,0,0.48568,12520.9,3859.47)">
                                <circle cx="1749.06" cy="789.086" r="14.17" style="fill:rgb(183,248,255);"/>
                            </g>
                            <g transform="matrix(-0.48568,0,0,0.48568,12179.2,3871.97)">
                                <circle cx="1749.06" cy="789.086" r="14.17" style="fill:rgb(183,248,255);"/>
                            </g>
                            <g transform="matrix(-0.768377,0,0,0.768377,13636.7,3025.04)">
                                <g transform="matrix(0.624307,-0.0988623,0.109957,0.694372,1402.01,1222.31)">
                                    <path d="M1960.41,874.118C1963.57,893.086 1961.3,928.116 1971.79,944.361C1976.87,952.237 1989.75,953.613 1998.14,954.513C2046.33,959.682 2049.89,915.114 2060.81,876.97" style="fill:rgb(237,237,237);"/>
                                    <path d="M1973.14,872.404C1975.05,883.896 1975.02,901.226 1976.95,916.796C1978.01,925.277 1979.46,933.191 1982.92,938.553C1983.88,940.041 1985.87,940.511 1987.72,941.055C1991.78,942.248 1996.19,942.652 1999.66,943.024C2008.19,943.939 2014.8,942.965 2019.96,940.1C2025.24,937.163 2028.88,932.45 2031.88,926.912C2039.83,912.268 2043.11,892.382 2048.35,874.086C2050.12,867.902 2057.14,864.174 2064.02,865.766C2070.9,867.358 2075.05,873.671 2073.28,879.855C2067.59,899.702 2063.63,921.171 2055.02,937.056C2049.74,946.782 2042.77,954.625 2033.49,959.783C2024.08,965.013 2012.18,967.671 1996.61,966.001C1990.52,965.348 1982.52,964.337 1975.73,961.696C1969.43,959.242 1964.09,955.48 1960.66,950.17C1955.73,942.534 1952.87,931.443 1951.37,919.364C1949.48,904.097 1949.56,887.102 1947.68,875.833C1946.63,869.518 1951.48,863.622 1958.5,862.676C1965.53,861.73 1972.09,866.088 1973.14,872.404Z"/>
                                </g>
                                <g transform="matrix(0.676451,0.0416125,-0.0481144,0.782146,1960.61,968.001)">
                                    <ellipse cx="1221.96" cy="702.82" rx="66.462" ry="36.543"/>
                                </g>
                                <g transform="matrix(0.621633,0.114474,-0.114474,0.621633,2092.68,1002.77)">
                                    <path d="M1204.43,720.734C1208.02,742.26 1208.2,763.523 1210.51,785.082C1211.27,792.144 1206.15,798.492 1199.09,799.249C1192.03,800.006 1185.68,794.888 1184.92,787.826C1182.67,766.767 1182.55,745.991 1179.05,724.966C1177.88,717.96 1182.62,711.324 1189.63,710.157C1196.63,708.989 1203.27,713.729 1204.43,720.734Z"/>
                                </g>
                                <g transform="matrix(0.631188,0.0336753,-0.0336753,0.631188,2025.37,1092.08)">
                                    <path d="M1099.36,765.984C1135.39,783.999 1169.33,790.165 1200.93,783.887C1232.53,777.608 1261.58,758.928 1288.04,728.399C1292.69,723.032 1300.82,722.452 1306.19,727.104C1311.56,731.756 1312.14,739.89 1307.49,745.256C1276.75,780.716 1242.65,801.838 1205.94,809.13C1169.24,816.423 1129.7,809.929 1087.85,789.004C1081.5,785.828 1078.92,778.092 1082.09,771.739C1085.27,765.387 1093.01,762.808 1099.36,765.984Z"/>
                                </g>
                                <g transform="matrix(0.734444,-0.222559,0.222559,0.734444,569.292,1743.65)">
                                    <ellipse cx="2765.83" cy="286.812" rx="23.313" ry="12.088" style="fill:rgb(183,248,255);"/>
                                </g>
                                <g transform="matrix(0.493537,0.587674,-0.587674,0.493537,1802.93,-389.275)">
                                    <ellipse cx="2765.83" cy="286.812" rx="23.313" ry="12.088" style="fill:rgb(183,248,255);"/>
                                </g>
                                <g transform="matrix(1.18978,-0.169438,0.169438,1.18978,1245.06,999.679)">
                                    <circle cx="1071.81" cy="534.398" r="76.669" style="fill:white;stroke:black;stroke-width:13.54px;"/>
                                </g>
                                <g transform="matrix(1.18978,-0.169438,0.169438,1.18978,1569.81,1026.66)">
                                    <circle cx="1071.81" cy="534.398" r="76.669" style="fill:white;stroke:black;stroke-width:13.54px;"/>
                                </g>
                                <g transform="matrix(-0.439553,-2.85589,2.85589,-0.439553,1508.85,4699.32)">
                                    <circle cx="1044.8" cy="535.269" r="11.326"/>
                                </g>
                                <g transform="matrix(0.469421,-2.85114,2.85114,0.469421,883.679,4222.17)">
                                    <circle cx="1044.8" cy="535.269" r="11.326"/>
                                </g>
                                <g transform="matrix(-0.123306,-0.801154,0.801154,-0.123306,2645.09,3502.5)">
                                    <circle cx="2472.68" cy="285.194" r="11.336" style="fill:white;"/>
                                </g>
                                <g transform="matrix(0.131685,-0.79982,0.79982,0.131685,2335.51,3437.56)">
                                    <circle cx="2472.68" cy="285.194" r="11.336" style="fill:white;"/>
                                </g>
                            </g>
                            <g transform="matrix(0.15661,0.604143,0.604143,-0.15661,10512.9,2737.23)">
                                <path d="M2787.51,613.28C2787.51,613.28 2876.01,567.95 2927.82,598.17C2979.63,628.39 2964.52,678.037 2919.19,671.562C2873.86,665.086 2830.68,662.927 2802.62,686.672C2774.56,710.416 2731.39,641.342 2787.51,613.28Z" style="fill:rgb(214,194,149);stroke:black;stroke-width:20.03px;"/>
                            </g>
                        </g>
                    </g>
                    <path d="M7637.14,4393.72C7637.14,4365.96 7614.6,4343.43 7586.85,4343.43L6749.94,4343.43C6722.18,4343.43 6699.65,4365.96 6699.65,4393.72L6699.65,5319C6699.65,5346.76 6722.18,5369.29 6749.94,5369.29L7586.85,5369.29C7614.6,5369.29 7637.14,5346.76 7637.14,5319L7637.14,4393.72Z" style="fill:none;stroke:black;stroke-width:16.67px;"/>
                </g>
                <g transform="matrix(1,0,0,1,470.45,-632.908)">
                    <path d="M7637.14,4393.72C7637.14,4365.96 7614.6,4343.43 7586.85,4343.43L6749.94,4343.43C6722.18,4343.43 6699.65,4365.96 6699.65,4393.72L6699.65,5319C6699.65,5346.76 6722.18,5369.29 6749.94,5369.29L7586.85,5369.29C7614.6,5369.29 7637.14,5346.76 7637.14,5319L7637.14,4393.72Z" style="fill:white;"/>
                    <clipPath id="_clip3">
                        <path d="M7637.14,4393.72C7637.14,4365.96 7614.6,4343.43 7586.85,4343.43L6749.94,4343.43C6722.18,4343.43 6699.65,4365.96 6699.65,4393.72L6699.65,5319C6699.65,5346.76 6722.18,5369.29 6749.94,5369.29L7586.85,5369.29C7614.6,5369.29 7637.14,5346.76 7637.14,5319L7637.14,4393.72Z"/>
                    </clipPath>
                    <g clip-path="url(#_clip3)">
                        <g transform="matrix(1,0,0,0.880952,0,514.393)">
                            <rect x="6635.53" y="4320.9" width="1086.52" height="145.562" style="fill:rgb(106,106,106);stroke:black;stroke-width:8.33px;"/>
                        </g>
                        <g transform="matrix(1.27304,0,0,1.27304,-7431.8,-1622.86)">
                            <g transform="matrix(0.502452,-0.370213,-0.370213,-0.502452,10028.9,6743.92)">
                                <path d="M2787.51,613.28C2787.51,613.28 2876.01,567.95 2927.82,598.17C2979.63,628.39 2964.52,678.037 2919.19,671.562C2873.86,665.086 2830.68,662.927 2802.62,686.672C2774.56,710.416 2731.39,641.342 2787.51,613.28Z" style="fill:rgb(214,194,149);stroke:black;stroke-width:20.03px;"/>
                            </g>
                            <g transform="matrix(0.942368,0,0,0.942368,8510.36,4104.89)">
                                <path d="M3077.27,879.49C3077.27,879.49 3108.11,847.368 3119.67,925.745" style="fill:none;stroke:rgb(233,143,202);stroke-width:13.26px;"/>
                            </g>
                            <g transform="matrix(-0.942368,0,0,0.942368,14410.7,4097.63)">
                                <path d="M3077.27,879.49C3077.27,879.49 3106.83,848.653 3117.1,929.6" style="fill:none;stroke:rgb(233,143,202);stroke-width:13.26px;"/>
                            </g>
                            <g transform="matrix(0.69691,0.19324,-0.19324,0.69691,9460.27,3694.35)">
                                <path d="M3077.27,879.49C3077.27,879.49 3113.14,839.637 3136.24,954.162" style="fill:none;stroke:rgb(233,143,202);stroke-width:17.28px;"/>
                            </g>
                            <g transform="matrix(0.31441,-0.53913,0.53913,0.31441,10129.9,6958.96)">
                                <path d="M2787.51,613.28C2787.51,613.28 2876.01,567.95 2927.82,598.17C2979.63,628.39 2964.52,678.037 2919.19,671.562C2873.86,665.086 2830.68,662.927 2802.62,686.672C2774.56,710.416 2731.39,641.342 2787.51,613.28Z" style="fill:rgb(214,194,149);stroke:black;stroke-width:20.03px;"/>
                            </g>
                            <g transform="matrix(-0.0520681,-0.621936,0.621936,-0.0520681,11381,7421.74)">
                                <path d="M2787.51,613.28C2787.51,613.28 2876.01,567.95 2927.82,598.17C2979.63,628.39 2964.52,678.037 2919.19,671.562C2873.86,665.086 2830.68,662.927 2802.62,686.672C2774.56,710.416 2731.39,641.342 2787.51,613.28Z" style="fill:rgb(214,194,149);stroke:black;stroke-width:20.03px;"/>
                            </g>
                            <g transform="matrix(0.328438,0,0,0.328438,10915.7,4952.13)">
                                <path d="M2279.67,511.904C2283.15,491.051 2325.81,459.166 2343.54,451.945C2559.26,364.088 2483.64,611.456 2358.06,601.659" style="fill:rgb(233,143,202);"/>
                                <path d="M2304.7,516.075C2304.88,515.003 2305.92,514.071 2306.77,512.845C2309.26,509.272 2312.59,505.624 2316.27,502.031C2328.41,490.188 2344.35,479.012 2353.11,475.444C2381.6,463.842 2404.22,458.492 2421.88,458.41C2433.69,458.355 2442.47,460.424 2448,465.718C2452.26,469.796 2453.91,475.587 2454.33,481.873C2454.95,491.361 2452.65,501.87 2448.44,512.309C2434.92,545.837 2401.43,579.593 2360.03,576.364C2346.07,575.275 2333.86,585.725 2332.76,599.686C2331.68,613.647 2342.13,625.866 2356.09,626.955C2420.19,631.956 2474.55,583.219 2495.5,531.292C2511.34,492.019 2507.27,452.211 2483.09,429.061C2460.14,407.089 2413.02,396.254 2333.97,428.447C2319.33,434.411 2290.08,454.38 2272.55,474.417C2262.51,485.893 2256.29,497.868 2254.64,507.733C2252.34,521.546 2261.69,534.629 2275.5,536.931C2289.31,539.234 2302.4,529.888 2304.7,516.075Z"/>
                            </g>
                            <g transform="matrix(-0.164219,-0.284435,0.284435,-0.164219,11518.2,5802.49)">
                                <path d="M2301.37,493.302C2304.85,472.448 2326.32,460.207 2344.05,452.986C2559.76,365.129 2483.64,611.456 2358.06,601.659" style="fill:rgb(233,143,202);"/>
                                <path d="M2326.4,497.473C2327.1,493.26 2330.21,490.312 2333.45,487.657C2339.48,482.712 2346.94,479.203 2353.62,476.485C2382.12,464.875 2404.75,459.505 2422.41,459.388C2434.18,459.31 2442.93,461.323 2448.43,466.569C2452.62,470.566 2454.23,476.255 2454.62,482.428C2455.22,491.836 2452.89,502.259 2448.67,512.616C2435.06,545.996 2401.45,579.594 2360.03,576.364C2346.07,575.275 2333.86,585.725 2332.76,599.686C2331.68,613.647 2342.13,625.866 2356.09,626.955C2420.17,631.954 2474.59,583.427 2495.66,531.779C2511.64,492.594 2507.62,452.888 2483.45,429.843C2460.58,408.035 2413.51,397.3 2334.48,429.488C2309.32,439.732 2281.28,459.546 2276.35,489.13C2274.05,502.943 2283.39,516.027 2297.2,518.329C2311.02,520.631 2324.1,511.286 2326.4,497.473Z"/>
                            </g>
                            <g transform="matrix(0.48568,-5.94787e-17,-5.94787e-17,-0.48568,10506.3,5880.36)">
                                <path d="M1602.28,658.224C1602.28,658.224 1537.63,785.329 1549.85,894.354C1588.09,1235.66 1487.62,1302.63 1526.9,1510.82C1540.54,1583.11 1566.32,1665.45 1610.23,1725.3C1706.72,1856.83 1892.19,1925.15 2053.51,1894.26C2118.1,1881.89 2176.43,1853.93 2234.15,1823.26C2434.98,1716.58 2476.71,1491.41 2450.61,1301.63C2439.06,1217.62 2366.83,1086.68 2377.39,1002.44C2399.42,826.82 2393.26,731.764 2338.43,618.483C2291.7,521.934 2109.83,449.196 1911,469.87C1877.12,473.393 1674.41,508.918 1602.28,658.224Z" style="fill:rgb(233,143,202);"/>
                                <clipPath id="_clip4">
                                    <path d="M1602.28,658.224C1602.28,658.224 1537.63,785.329 1549.85,894.354C1588.09,1235.66 1487.62,1302.63 1526.9,1510.82C1540.54,1583.11 1566.32,1665.45 1610.23,1725.3C1706.72,1856.83 1892.19,1925.15 2053.51,1894.26C2118.1,1881.89 2176.43,1853.93 2234.15,1823.26C2434.98,1716.58 2476.71,1491.41 2450.61,1301.63C2439.06,1217.62 2366.83,1086.68 2377.39,1002.44C2399.42,826.82 2393.26,731.764 2338.43,618.483C2291.7,521.934 2109.83,449.196 1911,469.87C1877.12,473.393 1674.41,508.918 1602.28,658.224Z"/>
                                </clipPath>
                                <g clip-path="url(#_clip4)">
                                    <g transform="matrix(1.58206,-1.93747e-16,-1.93747e-16,-1.58206,-849.364,3866.96)">
                                        <path d="M2003.37,1344.04C2003.37,1344.04 2046.61,1399.62 2034.91,1485.96C2017.34,1615.67 1962.83,1587.84 1966.54,1821.27C1968.39,1937.63 1975.33,2007.81 1924.09,2077.86C1874.32,2145.89 1732.01,2145.79 1696.03,2135.51C1660.05,2125.24 1837.88,2172.52 1939.64,2131.4C2041.4,2090.29 2055.79,1917.6 2042.43,1809.67C2029.07,1701.74 2115.41,1670.91 2086.63,1484.86C2040.38,1375.9 2039.35,1382.07 2003.37,1344.04Z" style="fill:rgb(231,100,198);"/>
                                    </g>
                                    <g transform="matrix(1.58206,-1.93747e-16,-1.93747e-16,-1.58206,-822.199,3866.96)">
                                        <path d="M1816.44,1503.57C1816.44,1503.57 1829.07,1566.72 1904.33,1563.04C1979.59,1559.36 1984.85,1482.52 1984.85,1482.52L1816.44,1503.57Z" style="fill:rgb(231,100,198);"/>
                                    </g>
                                    <g transform="matrix(1.58206,-1.93747e-16,-1.93747e-16,-1.58206,-1331.45,3917.75)">
                                        <path d="M1816.44,1503.57C1816.44,1503.57 1829.07,1566.72 1904.33,1563.04C1979.59,1559.36 1984.85,1482.52 1984.85,1482.52L1816.44,1503.57Z" style="fill:rgb(231,100,198);"/>
                                    </g>
                                </g>
                                <path d="M1586.83,650.76C1617.31,587.666 1669.65,543.59 1724.03,513.433C1804.06,469.05 1888.16,454.995 1909.22,452.804C2032.07,440.031 2148.59,462.087 2232.58,503.089C2290.97,531.601 2333.8,569.529 2353.87,611.008C2410.08,727.143 2417,824.531 2394.42,1004.57C2389.4,1044.58 2404.69,1095.56 2421.96,1146.63C2440.52,1201.51 2461.71,1256.42 2467.61,1299.29C2494.61,1495.65 2450,1728.03 2242.2,1838.42C2182.96,1869.89 2123.03,1898.42 2056.74,1911.11C1889.18,1943.2 1696.62,1872.06 1596.39,1735.45C1551.04,1673.63 1524.13,1588.68 1510.04,1514C1493.87,1428.29 1500.6,1365.83 1512.12,1299.26C1528.7,1203.39 1555.47,1098.63 1532.79,896.265C1520.08,782.804 1586.99,650.445 1586.99,650.445L1586.83,650.76ZM1617.57,666.003C1617.57,666.003 1555.18,787.854 1566.9,892.444C1586.28,1065.46 1570.51,1168.94 1554.87,1255.56C1539.82,1338.93 1524.6,1406.05 1543.76,1507.64C1556.95,1577.55 1581.6,1657.28 1624.06,1715.15C1716.83,1841.6 1895.19,1907.11 2050.28,1877.41C2113.18,1865.37 2169.9,1837.97 2226.1,1808.11C2419.97,1705.12 2458.81,1487.17 2433.61,1303.97C2426.78,1254.29 2398.22,1188.03 2378.87,1124.99C2364.99,1079.76 2355.89,1036.04 2360.37,1000.3C2381.84,829.108 2376.43,736.386 2322.98,625.959C2305.68,590.198 2267.87,558.507 2217.52,533.927C2138.39,495.292 2028.53,474.9 1912.77,486.936C1893.19,488.973 1815.07,502.187 1740.67,543.443C1692.1,570.378 1644.95,609.336 1617.73,665.687L1617.57,666.003Z"/>
                            </g>
                            <g transform="matrix(0.244289,-2.99168e-17,-2.3886e-17,-0.195044,10969.6,5703.24)">
                                <path d="M2244.02,463.384C1568.86,266.571 1450.76,759.917 1427.56,867.142C1383.84,1069.12 1362.66,1460.63 1401.94,1668.83C1415.58,1741.12 1441.36,1823.46 1485.27,1883.31C1581.76,2014.84 2013.3,2026.28 2174.62,1995.39C2239.21,1983.02 2297.53,1955.05 2355.26,1924.39C2556.09,1817.7 2626.87,574.985 2244.02,463.384Z" style="fill:rgb(255,215,254);"/>
                            </g>
                            <g transform="matrix(0.48568,0,0,0.48568,10425.8,4808.45)">
                                <circle cx="1749.06" cy="789.086" r="14.17" style="fill:rgb(255,215,254);"/>
                            </g>
                            <g transform="matrix(0.48568,0,0,0.48568,10767.4,4820.95)">
                                <circle cx="1749.06" cy="789.086" r="14.17" style="fill:rgb(255,215,254);"/>
                            </g>
                            <g transform="matrix(-0.580952,-0.228057,0.228057,-0.580952,13210,6402.99)">
                                <path d="M2787.51,613.28C2787.51,613.28 2876.01,567.95 2927.82,598.17C2979.63,628.39 2964.52,678.037 2919.19,671.562C2873.86,665.086 2830.68,662.927 2802.62,686.672C2774.56,710.416 2731.39,641.342 2787.51,613.28Z" style="fill:rgb(214,194,149);stroke:black;stroke-width:20.03px;"/>
                            </g>
                            <g transform="matrix(-1,0,0,1,14072.8,4063.01)">
                                <path d="M2561.58,1159.34C2561.58,1159.34 2607.36,1160.39 2649.46,1159.34C2691.57,1158.29 2733.14,1142.5 2733.14,1142.5C2733.14,1142.5 2727.35,1285.12 2652.1,1283.02C2576.84,1280.91 2565.78,1178.81 2561.58,1159.34Z"/>
                                <g transform="matrix(-0.768377,0,0,0.768377,4760.04,-87.5883)">
                                    <g>
                                        <g transform="matrix(0.631927,-0.0141535,0.015742,0.702848,1461.9,1049.72)">
                                            <path d="M1960.41,874.118C1963.57,893.086 1961.3,928.116 1971.79,944.361C1976.87,952.237 1989.75,953.613 1998.14,954.513C2046.33,959.682 2049.89,915.114 2060.81,876.97" style="fill:rgb(237,237,237);"/>
                                            <path d="M1947.68,875.833C1949.56,887.102 1949.48,904.097 1951.37,919.364C1952.87,931.443 1955.73,942.534 1960.66,950.17C1964.09,955.48 1969.43,959.242 1975.73,961.696C1982.52,964.337 1990.52,965.348 1996.61,966.001C2012.18,967.671 2024.08,965.013 2033.49,959.783C2042.77,954.625 2049.74,946.782 2055.02,937.056C2063.63,921.171 2067.59,899.702 2073.28,879.855C2075.05,873.671 2070.9,867.358 2064.02,865.766C2057.14,864.174 2050.12,867.902 2048.35,874.086C2043.11,892.382 2039.83,912.268 2031.88,926.912C2028.88,932.45 2025.24,937.163 2019.96,940.1C2014.8,942.965 2008.19,943.939 1999.66,943.024C1996.19,942.652 1991.78,942.248 1987.72,941.055C1985.87,940.511 1983.88,940.041 1982.92,938.553C1979.46,933.191 1978.01,925.277 1976.95,916.796C1975.02,901.226 1975.05,883.896 1973.14,872.404C1972.09,866.088 1965.53,861.73 1958.5,862.676C1951.48,863.622 1946.63,869.518 1947.68,875.833Z"/>
                                        </g>
                                        <g transform="matrix(0.676451,0.0416125,-0.0481144,0.782146,1960.61,968.001)">
                                            <ellipse cx="1221.96" cy="702.82" rx="66.462" ry="36.543"/>
                                        </g>
                                        <g transform="matrix(0.621633,0.114474,-0.114474,0.621633,2092.68,1002.77)">
                                            <path d="M1179.05,724.966C1182.55,745.991 1182.67,766.767 1184.92,787.826C1185.68,794.888 1192.03,800.006 1199.09,799.249C1206.15,798.492 1211.27,792.144 1210.51,785.082C1208.2,763.523 1208.02,742.26 1204.43,720.734C1203.27,713.729 1196.63,708.989 1189.63,710.157C1182.62,711.324 1177.88,717.96 1179.05,724.966Z"/>
                                        </g>
                                        <g transform="matrix(0.671905,-0.370788,0.370788,0.671905,709.354,2169.56)">
                                            <ellipse cx="2765.83" cy="286.812" rx="23.313" ry="12.088" style="fill:rgb(255,215,254);"/>
                                        </g>
                                        <g transform="matrix(0.493537,0.587674,-0.587674,0.493537,1757.59,-407.943)">
                                            <ellipse cx="2765.83" cy="286.812" rx="23.313" ry="12.088" style="fill:rgb(255,215,254);"/>
                                        </g>
                                        <g transform="matrix(1.18978,-0.169438,0.169438,1.18978,1245.06,999.679)">
                                            <circle cx="1071.81" cy="534.398" r="76.669" style="fill:white;stroke:black;stroke-width:13.54px;"/>
                                        </g>
                                        <g transform="matrix(2.86066,-0.40739,0.40739,2.86066,-616.702,314.229)">
                                            <circle cx="1044.8" cy="535.269" r="11.326"/>
                                        </g>
                                        <g transform="matrix(0.802491,-0.114284,0.114284,0.802491,567.253,1463.87)">
                                            <circle cx="2472.68" cy="285.194" r="11.336" style="fill:white;"/>
                                        </g>
                                        <g transform="matrix(1.18978,-0.169438,0.169438,1.18978,1569.81,1026.66)">
                                            <circle cx="1071.81" cy="534.398" r="76.669" style="fill:white;stroke:black;stroke-width:13.54px;"/>
                                        </g>
                                        <g transform="matrix(2.86066,-0.40739,0.40739,2.86066,-290.037,339.475)">
                                            <circle cx="1044.8" cy="535.269" r="11.326"/>
                                        </g>
                                        <g transform="matrix(0.802491,-0.114284,0.114284,0.802491,893.918,1489.11)">
                                            <circle cx="2472.68" cy="285.194" r="11.336" style="fill:white;"/>
                                        </g>
                                    </g>
                                </g>
                            </g>
                        </g>
                    </g>
                    <path d="M7637.14,4393.72C7637.14,4365.96 7614.6,4343.43 7586.85,4343.43L6749.94,4343.43C6722.18,4343.43 6699.65,4365.96 6699.65,4393.72L6699.65,5319C6699.65,5346.76 6722.18,5369.29 6749.94,5369.29L7586.85,5369.29C7614.6,5369.29 7637.14,5346.76 7637.14,5319L7637.14,4393.72Z" style="fill:none;stroke:black;stroke-width:16.67px;"/>
                </g>
                <g transform="matrix(1,0,0,1,-377.27,-1051.23)">
                    <circle cx="6759.41" cy="4395.78" r="14.196" style="fill:rgb(36,225,116);"/>
                </g>
                <g transform="matrix(1,0,0,1,614.398,-628.16)">
                    <circle cx="6759.41" cy="4395.78" r="14.196" style="fill:rgb(36,225,116);"/>
                </g>
                <g transform="matrix(1,0,0,1,-500.776,-1051.23)">
                    <circle cx="6759.41" cy="4395.78" r="14.196" style="fill:rgb(255,41,0);"/>
                </g>
                <g transform="matrix(1,0,0,1,490.892,-628.16)">
                    <circle cx="6759.41" cy="4395.78" r="14.196" style="fill:rgb(255,41,0);"/>
                </g>
                <g transform="matrix(1,0,0,1,-439.023,-1051.23)">
                    <circle cx="6759.41" cy="4395.78" r="14.196" style="fill:rgb(255,161,0);"/>
                </g>
                <g transform="matrix(1,0,0,1,552.645,-628.16)">
                    <circle cx="6759.41" cy="4395.78" r="14.196" style="fill:rgb(255,161,0);"/>
                </g>
                <g transform="matrix(1,0,0,1,-35.1991,35.1991)">
                    <path d="M7371.15,3551.29L7293.31,3551.29C7261.55,3551.29 7235.77,3525.51 7235.77,3493.76L7235.77,3378.68C7235.77,3346.93 7261.55,3321.14 7293.31,3321.14L7517.75,3321.14C7549.51,3321.14 7575.29,3346.93 7575.29,3378.68L7575.29,3493.76C7575.29,3525.51 7549.51,3551.29 7517.75,3551.29L7448.99,3551.29L7371.15,3629.14L7371.15,3551.29Z" style="fill:rgb(183,183,183);"/>
                </g>
                <g transform="matrix(-1,0,0,1,14322.6,1079.67)">
                    <path d="M7371.15,3551.29L7293.31,3551.29C7261.55,3551.29 7235.77,3525.51 7235.77,3493.76L7235.77,3378.68C7235.77,3346.93 7261.55,3321.14 7293.31,3321.14L7691.75,3321.14C7723.51,3321.14 7749.29,3346.93 7749.29,3378.68L7749.29,3493.76C7749.29,3525.51 7723.51,3551.29 7691.75,3551.29L7448.99,3551.29L7371.15,3629.14L7371.15,3551.29Z" style="fill:rgb(36,176,225);"/>
                </g>
                <g transform="matrix(0.0691835,0,0,0.0691835,6993.21,3242.17)">
                    <g transform="matrix(1477.15,0,0,1477.15,4482.74,3830.69)">
                        <path d="M0.756,-0.633C0.773,-0.637 0.781,-0.647 0.781,-0.664L0.781,-0.723L0.495,-0.723L0.495,-0.664C0.495,-0.647 0.503,-0.637 0.52,-0.633C0.521,-0.633 0.523,-0.632 0.526,-0.632C0.529,-0.631 0.534,-0.63 0.541,-0.629C0.548,-0.628 0.558,-0.626 0.57,-0.624L0.57,-0.412L0.231,-0.412L0.231,-0.624C0.243,-0.626 0.254,-0.628 0.261,-0.629C0.268,-0.63 0.273,-0.632 0.276,-0.632C0.279,-0.633 0.281,-0.633 0.282,-0.633C0.299,-0.637 0.307,-0.647 0.307,-0.664L0.307,-0.723L0.02,-0.723L0.02,-0.664C0.02,-0.647 0.028,-0.637 0.045,-0.633C0.046,-0.633 0.048,-0.633 0.051,-0.632C0.054,-0.632 0.059,-0.63 0.066,-0.629C0.073,-0.628 0.084,-0.626 0.096,-0.624L0.096,-0.099C0.084,-0.097 0.073,-0.095 0.066,-0.094C0.059,-0.093 0.054,-0.091 0.051,-0.091C0.048,-0.091 0.046,-0.09 0.045,-0.09C0.028,-0.086 0.02,-0.076 0.02,-0.059L0.02,0L0.307,0L0.307,-0.059C0.307,-0.076 0.299,-0.086 0.282,-0.09C0.281,-0.09 0.279,-0.09 0.276,-0.091C0.273,-0.091 0.268,-0.093 0.261,-0.094C0.254,-0.095 0.243,-0.097 0.231,-0.099L0.231,-0.316L0.57,-0.316L0.57,-0.099C0.558,-0.097 0.548,-0.095 0.541,-0.094C0.534,-0.093 0.529,-0.092 0.526,-0.091C0.523,-0.09 0.521,-0.09 0.52,-0.09C0.503,-0.086 0.495,-0.076 0.495,-0.059L0.495,0L0.781,0L0.781,-0.059C0.781,-0.076 0.773,-0.086 0.756,-0.09C0.755,-0.09 0.753,-0.091 0.75,-0.091C0.747,-0.091 0.742,-0.093 0.735,-0.094C0.728,-0.095 0.718,-0.097 0.706,-0.099L0.706,-0.624C0.718,-0.626 0.728,-0.628 0.735,-0.629C0.742,-0.63 0.747,-0.632 0.75,-0.632C0.753,-0.632 0.755,-0.633 0.756,-0.633Z" style="fill:white;fill-rule:nonzero;"/>
                    </g>
                    <g transform="matrix(1477.15,0,0,1477.15,5665.94,3830.69)">
                        <path d="M0.281,-0.633C0.298,-0.637 0.306,-0.647 0.306,-0.664L0.306,-0.723L0.02,-0.723L0.02,-0.664C0.02,-0.647 0.028,-0.637 0.045,-0.633C0.046,-0.633 0.048,-0.633 0.051,-0.632C0.054,-0.632 0.059,-0.63 0.066,-0.629C0.073,-0.628 0.084,-0.626 0.096,-0.624L0.096,-0.099C0.084,-0.097 0.073,-0.095 0.066,-0.094C0.059,-0.093 0.054,-0.092 0.051,-0.091C0.048,-0.091 0.046,-0.09 0.045,-0.09C0.028,-0.086 0.02,-0.076 0.02,-0.059L0.02,0L0.306,0L0.306,-0.059C0.306,-0.076 0.298,-0.086 0.281,-0.09C0.28,-0.09 0.278,-0.091 0.275,-0.091C0.272,-0.091 0.267,-0.093 0.26,-0.094C0.253,-0.095 0.243,-0.097 0.231,-0.099L0.231,-0.624C0.243,-0.626 0.253,-0.628 0.26,-0.629C0.267,-0.63 0.272,-0.632 0.275,-0.632C0.278,-0.632 0.28,-0.633 0.281,-0.633Z" style="fill:white;fill-rule:nonzero;"/>
                    </g>
                    <g transform="matrix(1477.15,0,0,1477.15,6147.49,3830.69)">
                        <path d="M0.153,-0.723L0.036,-0.723L0.036,-0.437C0.036,-0.407 0.038,-0.377 0.041,-0.348C0.044,-0.319 0.048,-0.288 0.053,-0.255L0.136,-0.255C0.141,-0.288 0.145,-0.319 0.148,-0.348C0.151,-0.377 0.153,-0.407 0.153,-0.437L0.153,-0.723ZM0.018,-0.068C0.018,-0.057 0.019,-0.047 0.023,-0.038C0.027,-0.029 0.032,-0.022 0.039,-0.015C0.046,-0.008 0.055,-0.003 0.064,0.001C0.073,0.005 0.083,0.007 0.094,0.007C0.104,0.007 0.114,0.005 0.123,0.001C0.132,-0.003 0.14,-0.008 0.147,-0.015C0.154,-0.022 0.159,-0.029 0.163,-0.038C0.167,-0.047 0.169,-0.057 0.169,-0.068C0.169,-0.078 0.167,-0.089 0.163,-0.098C0.159,-0.107 0.154,-0.115 0.147,-0.122C0.14,-0.129 0.132,-0.134 0.123,-0.138C0.114,-0.142 0.104,-0.144 0.094,-0.144C0.083,-0.144 0.073,-0.142 0.064,-0.138C0.055,-0.134 0.046,-0.129 0.039,-0.122C0.032,-0.115 0.027,-0.107 0.023,-0.098C0.019,-0.089 0.018,-0.078 0.018,-0.068Z" style="fill:white;fill-rule:nonzero;"/>
                    </g>
                </g>
                <g transform="matrix(0.0691835,0,0,0.0691835,6469.18,4287.31)">
                    <g transform="matrix(1477.15,0,0,1477.15,2931.73,3830.69)">
                        <path d="M0.756,-0.633C0.773,-0.637 0.781,-0.647 0.781,-0.664L0.781,-0.723L0.495,-0.723L0.495,-0.664C0.495,-0.647 0.503,-0.637 0.52,-0.633C0.521,-0.633 0.523,-0.632 0.526,-0.632C0.529,-0.631 0.534,-0.63 0.541,-0.629C0.548,-0.628 0.558,-0.626 0.57,-0.624L0.57,-0.412L0.231,-0.412L0.231,-0.624C0.243,-0.626 0.254,-0.628 0.261,-0.629C0.268,-0.63 0.273,-0.632 0.276,-0.632C0.279,-0.633 0.281,-0.633 0.282,-0.633C0.299,-0.637 0.307,-0.647 0.307,-0.664L0.307,-0.723L0.02,-0.723L0.02,-0.664C0.02,-0.647 0.028,-0.637 0.045,-0.633C0.046,-0.633 0.048,-0.633 0.051,-0.632C0.054,-0.632 0.059,-0.63 0.066,-0.629C0.073,-0.628 0.084,-0.626 0.096,-0.624L0.096,-0.099C0.084,-0.097 0.073,-0.095 0.066,-0.094C0.059,-0.093 0.054,-0.091 0.051,-0.091C0.048,-0.091 0.046,-0.09 0.045,-0.09C0.028,-0.086 0.02,-0.076 0.02,-0.059L0.02,0L0.307,0L0.307,-0.059C0.307,-0.076 0.299,-0.086 0.282,-0.09C0.281,-0.09 0.279,-0.09 0.276,-0.091C0.273,-0.091 0.268,-0.093 0.261,-0.094C0.254,-0.095 0.243,-0.097 0.231,-0.099L0.231,-0.316L0.57,-0.316L0.57,-0.099C0.558,-0.097 0.548,-0.095 0.541,-0.094C0.534,-0.093 0.529,-0.092 0.526,-0.091C0.523,-0.09 0.521,-0.09 0.52,-0.09C0.503,-0.086 0.495,-0.076 0.495,-0.059L0.495,0L0.781,0L0.781,-0.059C0.781,-0.076 0.773,-0.086 0.756,-0.09C0.755,-0.09 0.753,-0.091 0.75,-0.091C0.747,-0.091 0.742,-0.093 0.735,-0.094C0.728,-0.095 0.718,-0.097 0.706,-0.099L0.706,-0.624C0.718,-0.626 0.728,-0.628 0.735,-0.629C0.742,-0.63 0.747,-0.632 0.75,-0.632C0.753,-0.632 0.755,-0.633 0.756,-0.633Z" style="fill:white;fill-rule:nonzero;"/>
                    </g>
                    <g transform="matrix(1477.15,0,0,1477.15,4114.93,3830.69)">
                        <path d="M0.552,-0.723L0.02,-0.723L0.02,-0.664C0.02,-0.647 0.028,-0.637 0.045,-0.633C0.046,-0.633 0.048,-0.632 0.051,-0.632C0.054,-0.632 0.059,-0.63 0.066,-0.629C0.073,-0.628 0.084,-0.626 0.096,-0.624L0.096,-0.099C0.084,-0.097 0.073,-0.095 0.066,-0.094C0.059,-0.093 0.054,-0.091 0.051,-0.091C0.048,-0.091 0.046,-0.09 0.045,-0.09C0.028,-0.086 0.02,-0.076 0.02,-0.059L0.02,0L0.552,0L0.552,-0.191L0.494,-0.191C0.481,-0.191 0.474,-0.184 0.471,-0.172C0.47,-0.164 0.467,-0.143 0.464,-0.108L0.231,-0.108L0.231,-0.312L0.476,-0.312L0.476,-0.416L0.231,-0.416L0.231,-0.616L0.464,-0.616C0.467,-0.581 0.47,-0.56 0.471,-0.552C0.474,-0.54 0.481,-0.533 0.494,-0.533L0.552,-0.533L0.552,-0.723Z" style="fill:white;fill-rule:nonzero;"/>
                    </g>
                    <g transform="matrix(1477.15,0,0,1477.15,4962.81,3830.69)">
                        <path d="M0.49,-0.173C0.477,-0.173 0.47,-0.166 0.467,-0.154C0.466,-0.15 0.465,-0.136 0.463,-0.111L0.23,-0.111L0.23,-0.624C0.242,-0.626 0.253,-0.628 0.26,-0.629C0.267,-0.63 0.272,-0.631 0.275,-0.632C0.278,-0.633 0.28,-0.633 0.281,-0.633C0.298,-0.637 0.306,-0.647 0.306,-0.664L0.306,-0.723L0.02,-0.723L0.02,-0.664C0.02,-0.647 0.028,-0.637 0.045,-0.633C0.046,-0.633 0.048,-0.633 0.051,-0.632C0.054,-0.632 0.059,-0.63 0.066,-0.629C0.073,-0.628 0.084,-0.626 0.096,-0.624L0.096,-0.099C0.084,-0.097 0.073,-0.095 0.066,-0.094C0.059,-0.093 0.054,-0.092 0.051,-0.091C0.048,-0.09 0.046,-0.09 0.045,-0.09C0.028,-0.086 0.02,-0.076 0.02,-0.059L0.02,0L0.544,0L0.544,-0.173L0.49,-0.173Z" style="fill:white;fill-rule:nonzero;"/>
                    </g>
                    <g transform="matrix(1477.15,0,0,1477.15,5797.4,3830.69)">
                        <path d="M0.49,-0.173C0.477,-0.173 0.47,-0.166 0.467,-0.154C0.466,-0.15 0.465,-0.136 0.463,-0.111L0.23,-0.111L0.23,-0.624C0.242,-0.626 0.253,-0.628 0.26,-0.629C0.267,-0.63 0.272,-0.631 0.275,-0.632C0.278,-0.633 0.28,-0.633 0.281,-0.633C0.298,-0.637 0.306,-0.647 0.306,-0.664L0.306,-0.723L0.02,-0.723L0.02,-0.664C0.02,-0.647 0.028,-0.637 0.045,-0.633C0.046,-0.633 0.048,-0.633 0.051,-0.632C0.054,-0.632 0.059,-0.63 0.066,-0.629C0.073,-0.628 0.084,-0.626 0.096,-0.624L0.096,-0.099C0.084,-0.097 0.073,-0.095 0.066,-0.094C0.059,-0.093 0.054,-0.092 0.051,-0.091C0.048,-0.09 0.046,-0.09 0.045,-0.09C0.028,-0.086 0.02,-0.076 0.02,-0.059L0.02,0L0.544,0L0.544,-0.173L0.49,-0.173Z" style="fill:white;fill-rule:nonzero;"/>
                    </g>
                    <g transform="matrix(1477.15,0,0,1477.15,6572.91,3830.69)">
                        <path d="M0.747,-0.362C0.747,-0.415 0.738,-0.464 0.72,-0.509C0.702,-0.554 0.678,-0.593 0.646,-0.626C0.614,-0.659 0.575,-0.684 0.53,-0.703C0.485,-0.722 0.436,-0.731 0.381,-0.731C0.326,-0.731 0.276,-0.721 0.231,-0.703C0.186,-0.685 0.147,-0.659 0.115,-0.626C0.083,-0.593 0.058,-0.554 0.04,-0.509C0.022,-0.464 0.014,-0.415 0.014,-0.362C0.014,-0.309 0.022,-0.259 0.04,-0.214C0.058,-0.169 0.083,-0.13 0.115,-0.097C0.147,-0.064 0.186,-0.038 0.231,-0.02C0.276,-0.002 0.326,0.008 0.381,0.008C0.436,0.008 0.485,-0.002 0.53,-0.02C0.575,-0.038 0.614,-0.064 0.646,-0.097C0.678,-0.13 0.702,-0.169 0.72,-0.214C0.738,-0.259 0.747,-0.309 0.747,-0.362ZM0.609,-0.362C0.609,-0.322 0.603,-0.287 0.593,-0.255C0.583,-0.223 0.568,-0.197 0.548,-0.175C0.528,-0.153 0.504,-0.136 0.476,-0.124C0.448,-0.112 0.416,-0.107 0.381,-0.107C0.346,-0.107 0.313,-0.112 0.285,-0.124C0.257,-0.136 0.233,-0.153 0.213,-0.175C0.193,-0.197 0.178,-0.223 0.167,-0.255C0.156,-0.287 0.151,-0.322 0.151,-0.362C0.151,-0.402 0.156,-0.436 0.167,-0.468C0.178,-0.5 0.193,-0.526 0.213,-0.548C0.233,-0.57 0.257,-0.587 0.285,-0.599C0.313,-0.611 0.346,-0.616 0.381,-0.616C0.416,-0.616 0.448,-0.611 0.476,-0.599C0.504,-0.587 0.528,-0.57 0.548,-0.548C0.568,-0.526 0.583,-0.5 0.593,-0.468C0.603,-0.436 0.609,-0.402 0.609,-0.362Z" style="fill:white;fill-rule:nonzero;"/>
                    </g>
                    <g transform="matrix(1477.15,0,0,1477.15,7698.5,3830.69)">
                        <path d="M0.153,-0.723L0.036,-0.723L0.036,-0.437C0.036,-0.407 0.038,-0.377 0.041,-0.348C0.044,-0.319 0.048,-0.288 0.053,-0.255L0.136,-0.255C0.141,-0.288 0.145,-0.319 0.148,-0.348C0.151,-0.377 0.153,-0.407 0.153,-0.437L0.153,-0.723ZM0.018,-0.068C0.018,-0.057 0.019,-0.047 0.023,-0.038C0.027,-0.029 0.032,-0.022 0.039,-0.015C0.046,-0.008 0.055,-0.003 0.064,0.001C0.073,0.005 0.083,0.007 0.094,0.007C0.104,0.007 0.114,0.005 0.123,0.001C0.132,-0.003 0.14,-0.008 0.147,-0.015C0.154,-0.022 0.159,-0.029 0.163,-0.038C0.167,-0.047 0.169,-0.057 0.169,-0.068C0.169,-0.078 0.167,-0.089 0.163,-0.098C0.159,-0.107 0.154,-0.115 0.147,-0.122C0.14,-0.129 0.132,-0.134 0.123,-0.138C0.114,-0.142 0.104,-0.144 0.094,-0.144C0.083,-0.144 0.073,-0.142 0.064,-0.138C0.055,-0.134 0.046,-0.129 0.039,-0.122C0.032,-0.115 0.027,-0.107 0.023,-0.098C0.019,-0.089 0.018,-0.078 0.018,-0.068Z" style="fill:white;fill-rule:nonzero;"/>
                    </g>
                </g>
            </g>
        </g>
    </g>
</svg>
