<?xml version="1.0" encoding="UTF-8" standalone="no"?>
<!DOCTYPE svg PUBLIC "-//W3C//DTD SVG 1.1//EN" "http://www.w3.org/Graphics/SVG/1.1/DTD/svg11.dtd">
<svg width="100%" height="100%" viewBox="0 0 600 600" version="1.1" xmlns="http://www.w3.org/2000/svg" xmlns:xlink="http://www.w3.org/1999/xlink" xml:space="preserve" xmlns:serif="http://www.serif.com/" style="fill-rule:evenodd;clip-rule:evenodd;stroke-linecap:round;stroke-linejoin:round;stroke-miterlimit:1.5;">
    <g transform="matrix(1,0,0,1,-3039.66,-913.473)">
        <g id="_13" serif:id="13" transform="matrix(1,0,0,1,3039.66,913.473)">
            <rect x="0" y="0" width="600" height="600" style="fill:none;"/>
            <g transform="matrix(0.851075,0,0,0.851075,-4927.59,-5840.84)">
                <g transform="matrix(0.747478,0,0,0.747478,-2431.66,4014.87)">
                    <g transform="matrix(-0.328438,0,0,0.328438,12031,4003.15)">
                        <path d="M2279.67,511.904C2283.15,491.051 2325.81,459.166 2343.54,451.945C2559.26,364.088 2483.64,611.456 2358.06,601.659" style="fill:rgb(97,224,238);"/>
                        <path d="M2254.64,507.733C2256.29,497.868 2262.51,485.893 2272.55,474.417C2290.08,454.38 2319.33,434.411 2333.97,428.447C2413.02,396.254 2460.14,407.089 2483.09,429.061C2507.27,452.211 2511.34,492.019 2495.5,531.292C2474.55,583.219 2420.19,631.956 2356.09,626.955C2342.13,625.866 2331.68,613.647 2332.76,599.686C2333.86,585.725 2346.07,575.275 2360.03,576.364C2401.43,579.593 2434.92,545.837 2448.44,512.309C2452.65,501.87 2454.95,491.361 2454.33,481.873C2453.91,475.587 2452.26,469.796 2448,465.718C2442.47,460.424 2433.69,458.355 2421.88,458.41C2404.22,458.492 2381.6,463.842 2353.11,475.444C2344.35,479.012 2328.41,490.188 2316.27,502.031C2312.59,505.624 2309.26,509.272 2306.77,512.845C2305.92,514.071 2304.88,515.003 2304.7,516.075C2302.4,529.888 2289.31,539.234 2275.5,536.931C2261.69,534.629 2252.34,521.546 2254.64,507.733Z"/>
                    </g>
                    <g transform="matrix(-0.504249,-0.367761,0.367761,-0.504249,12894.6,5829.43)">
                        <path d="M2787.51,613.28C2787.51,613.28 2876.01,567.95 2927.82,598.17C2979.63,628.39 2964.52,678.037 2919.19,671.562C2873.86,665.086 2830.68,662.927 2802.62,686.672C2774.56,710.416 2731.39,641.342 2787.51,613.28Z" style="fill:rgb(214,194,149);stroke:black;stroke-width:20.03px;"/>
                    </g>
                    <g transform="matrix(-0.31441,-0.53913,-0.53913,0.31441,12816.8,6009.97)">
                        <path d="M2787.51,613.28C2787.51,613.28 2876.01,567.95 2927.82,598.17C2979.63,628.39 2964.52,678.037 2919.19,671.562C2873.86,665.086 2830.68,662.927 2802.62,686.672C2774.56,710.416 2731.39,641.342 2787.51,613.28Z" style="fill:rgb(214,194,149);stroke:black;stroke-width:20.03px;"/>
                    </g>
                    <g transform="matrix(0.0520681,-0.621936,-0.621936,-0.0520681,11565.7,6472.75)">
                        <path d="M2787.51,613.28C2787.51,613.28 2876.01,567.95 2927.82,598.17C2979.63,628.39 2964.52,678.037 2919.19,671.562C2873.86,665.086 2830.68,662.927 2802.62,686.672C2774.56,710.416 2731.39,641.342 2787.51,613.28Z" style="fill:rgb(214,194,149);stroke:black;stroke-width:20.03px;"/>
                    </g>
                    <g transform="matrix(0.164219,-0.284435,-0.284435,-0.164219,11428.5,4853.5)">
                        <path d="M2301.37,493.302C2304.85,472.448 2326.32,460.207 2344.05,452.986C2559.76,365.129 2483.64,611.456 2358.06,601.659" style="fill:rgb(97,224,238);"/>
                        <path d="M2276.35,489.13C2281.28,459.546 2309.32,439.732 2334.48,429.488C2413.51,397.3 2460.58,408.035 2483.45,429.843C2507.62,452.888 2511.64,492.594 2495.66,531.779C2474.59,583.427 2420.17,631.954 2356.09,626.955C2342.13,625.866 2331.68,613.647 2332.76,599.686C2333.86,585.725 2346.07,575.275 2360.03,576.364C2401.45,579.594 2435.06,545.996 2448.67,512.616C2452.89,502.259 2455.22,491.836 2454.62,482.428C2454.23,476.255 2452.62,470.566 2448.43,466.569C2442.93,461.323 2434.18,459.31 2422.41,459.388C2404.75,459.505 2382.12,464.875 2353.62,476.485C2346.94,479.203 2339.48,482.712 2333.45,487.657C2330.21,490.312 2327.1,493.26 2326.4,497.473C2324.1,511.286 2311.02,520.631 2297.2,518.329C2283.39,516.027 2274.05,502.943 2276.35,489.13Z"/>
                    </g>
                    <g transform="matrix(-0.48568,-5.94787e-17,5.94787e-17,-0.48568,12440.4,4931.37)">
                        <path d="M1602.28,658.224C1602.28,658.224 1537.63,785.329 1549.85,894.354C1588.09,1235.66 1487.62,1302.63 1526.9,1510.82C1540.54,1583.11 1566.32,1665.45 1610.23,1725.3C1706.72,1856.83 1892.19,1925.15 2053.51,1894.26C2118.1,1881.89 2176.43,1853.93 2234.15,1823.26C2434.98,1716.58 2476.71,1491.41 2450.61,1301.63C2439.06,1217.62 2366.83,1086.68 2377.39,1002.44C2399.42,826.82 2393.26,731.764 2338.43,618.483C2291.7,521.934 2109.83,449.196 1911,469.87C1877.12,473.393 1674.41,508.918 1602.28,658.224Z" style="fill:rgb(97,224,238);"/>
                        <clipPath id="_clip1">
                            <path d="M1602.28,658.224C1602.28,658.224 1537.63,785.329 1549.85,894.354C1588.09,1235.66 1487.62,1302.63 1526.9,1510.82C1540.54,1583.11 1566.32,1665.45 1610.23,1725.3C1706.72,1856.83 1892.19,1925.15 2053.51,1894.26C2118.1,1881.89 2176.43,1853.93 2234.15,1823.26C2434.98,1716.58 2476.71,1491.41 2450.61,1301.63C2439.06,1217.62 2366.83,1086.68 2377.39,1002.44C2399.42,826.82 2393.26,731.764 2338.43,618.483C2291.7,521.934 2109.83,449.196 1911,469.87C1877.12,473.393 1674.41,508.918 1602.28,658.224Z"/>
                        </clipPath>
                        <g clip-path="url(#_clip1)">
                            <g transform="matrix(1.58206,-1.93747e-16,-1.93747e-16,-1.58206,-849.364,3866.96)">
                                <path d="M2003.37,1344.04C2003.37,1344.04 2045.52,1446.83 2019.82,1530.09C1994.12,1613.34 1948.89,1729.5 1956.09,1845.65C1963.28,1961.8 1950.95,2036.84 1925.25,2069.73C1873.36,2136.16 1732.01,2145.79 1696.03,2135.51C1660.05,2125.24 1837.88,2172.52 1939.64,2131.4C2041.4,2090.29 2055.79,1917.6 2042.43,1809.67C2029.07,1701.74 2115.41,1670.91 2086.63,1484.86C2040.38,1375.9 2039.35,1382.07 2003.37,1344.04Z" style="fill:rgb(79,203,224);"/>
                            </g>
                            <g transform="matrix(1.58206,-1.93747e-16,-1.93747e-16,-1.58206,-822.199,3866.96)">
                                <path d="M1816.44,1503.57C1816.44,1503.57 1829.07,1566.72 1904.33,1563.04C1979.59,1559.36 1984.85,1482.52 1984.85,1482.52L1816.44,1503.57Z" style="fill:rgb(79,203,224);"/>
                            </g>
                            <g transform="matrix(1.58206,-1.93747e-16,-1.93747e-16,-1.58206,-1331.45,3917.75)">
                                <path d="M1816.44,1503.57C1816.44,1503.57 1829.07,1566.72 1904.33,1563.04C1979.59,1559.36 1984.85,1482.52 1984.85,1482.52L1816.44,1503.57Z" style="fill:rgb(79,203,224);"/>
                            </g>
                        </g>
                        <path d="M1586.99,650.445C1586.99,650.445 1520.08,782.804 1532.79,896.265C1555.47,1098.63 1528.7,1203.39 1512.12,1299.26C1500.6,1365.83 1493.87,1428.29 1510.04,1514C1524.13,1588.68 1551.04,1673.63 1596.39,1735.45C1696.62,1872.06 1889.18,1943.2 2056.74,1911.11C2123.03,1898.42 2182.96,1869.89 2242.2,1838.42C2450,1728.03 2494.61,1495.65 2467.61,1299.29C2461.71,1256.42 2440.52,1201.51 2421.96,1146.63C2404.69,1095.56 2389.4,1044.58 2394.42,1004.57C2417,824.531 2410.08,727.143 2353.87,611.008C2333.8,569.529 2290.97,531.601 2232.58,503.089C2148.59,462.087 2032.07,440.031 1909.22,452.804C1888.16,454.995 1804.06,469.05 1724.03,513.433C1669.65,543.59 1617.31,587.666 1586.83,650.76L1586.99,650.445ZM1617.57,666.003C1617.63,665.898 1617.68,665.793 1617.73,665.687C1644.95,609.336 1692.1,570.378 1740.67,543.443C1815.07,502.187 1893.19,488.973 1912.77,486.936C2028.53,474.9 2138.39,495.292 2217.52,533.927C2267.87,558.507 2305.68,590.198 2322.98,625.959C2376.43,736.386 2381.84,829.108 2360.37,1000.3C2355.89,1036.04 2364.99,1079.76 2378.87,1124.99C2398.22,1188.03 2426.78,1254.29 2433.61,1303.97C2458.81,1487.17 2419.97,1705.12 2226.1,1808.11C2169.9,1837.97 2113.18,1865.37 2050.28,1877.41C1895.19,1907.11 1716.83,1841.6 1624.06,1715.15C1581.6,1657.28 1556.95,1577.55 1543.76,1507.64C1524.6,1406.05 1539.82,1338.93 1554.87,1255.56C1570.51,1168.94 1586.28,1065.46 1566.9,892.444C1555.18,787.854 1617.57,666.003 1617.57,666.003Z"/>
                    </g>
                    <g transform="matrix(-0.244289,-2.99168e-17,2.3886e-17,-0.195044,11977,4754.25)">
                        <path d="M1949.25,437.086C1546.42,524.992 1450.76,759.917 1427.56,867.142C1383.84,1069.12 1362.66,1460.63 1401.94,1668.83C1415.58,1741.12 1441.36,1823.46 1485.27,1883.31C1581.76,2014.84 2013.3,2026.28 2174.62,1995.39C2239.21,1983.02 2297.53,1955.05 2355.26,1924.39C2556.09,1817.7 2625.17,583.75 2244.02,463.384C2142.23,431.238 2013.17,423.135 1949.25,437.086Z" style="fill:rgb(183,248,255);"/>
                    </g>
                    <g transform="matrix(-0.48568,0,0,0.48568,12520.9,3859.47)">
                        <circle cx="1749.06" cy="789.086" r="14.17" style="fill:rgb(183,248,255);"/>
                    </g>
                    <g transform="matrix(-0.48568,0,0,0.48568,12179.2,3871.97)">
                        <circle cx="1749.06" cy="789.086" r="14.17" style="fill:rgb(183,248,255);"/>
                    </g>
                    <g transform="matrix(-0.768377,0,0,0.768377,13636.7,3025.04)">
                        <g transform="matrix(0.624307,-0.0988623,0.109957,0.694372,1402.01,1222.31)">
                            <path d="M1960.41,874.118C1963.57,893.086 1961.3,928.116 1971.79,944.361C1976.87,952.237 1989.75,953.613 1998.14,954.513C2046.33,959.682 2049.89,915.114 2060.81,876.97" style="fill:rgb(237,237,237);"/>
                            <path d="M1973.14,872.404C1975.05,883.896 1975.02,901.226 1976.95,916.796C1978.01,925.277 1979.46,933.191 1982.92,938.553C1983.88,940.041 1985.87,940.511 1987.72,941.055C1991.78,942.248 1996.19,942.652 1999.66,943.024C2008.19,943.939 2014.8,942.965 2019.96,940.1C2025.24,937.163 2028.88,932.45 2031.88,926.912C2039.83,912.268 2043.11,892.382 2048.35,874.086C2050.12,867.902 2057.14,864.174 2064.02,865.766C2070.9,867.358 2075.05,873.671 2073.28,879.855C2067.59,899.702 2063.63,921.171 2055.02,937.056C2049.74,946.782 2042.77,954.625 2033.49,959.783C2024.08,965.013 2012.18,967.671 1996.61,966.001C1990.52,965.348 1982.52,964.337 1975.73,961.696C1969.43,959.242 1964.09,955.48 1960.66,950.17C1955.73,942.534 1952.87,931.443 1951.37,919.364C1949.48,904.097 1949.56,887.102 1947.68,875.833C1946.63,869.518 1951.48,863.622 1958.5,862.676C1965.53,861.73 1972.09,866.088 1973.14,872.404Z"/>
                        </g>
                        <g transform="matrix(0.676451,0.0416125,-0.0481144,0.782146,1960.61,968.001)">
                            <ellipse cx="1221.96" cy="702.82" rx="66.462" ry="36.543"/>
                        </g>
                        <g transform="matrix(0.621633,0.114474,-0.114474,0.621633,2092.68,1002.77)">
                            <path d="M1204.43,720.734C1208.02,742.26 1208.2,763.523 1210.51,785.082C1211.27,792.144 1206.15,798.492 1199.09,799.249C1192.03,800.006 1185.68,794.888 1184.92,787.826C1182.67,766.767 1182.55,745.991 1179.05,724.966C1177.88,717.96 1182.62,711.324 1189.63,710.157C1196.63,708.989 1203.27,713.729 1204.43,720.734Z"/>
                        </g>
                        <g transform="matrix(0.631188,0.0336753,-0.0336753,0.631188,2025.37,1092.08)">
                            <path d="M1099.36,765.984C1135.39,783.999 1169.33,790.165 1200.93,783.887C1232.53,777.608 1261.58,758.928 1288.04,728.399C1292.69,723.032 1300.82,722.452 1306.19,727.104C1311.56,731.756 1312.14,739.89 1307.49,745.256C1276.75,780.716 1242.65,801.838 1205.94,809.13C1169.24,816.423 1129.7,809.929 1087.85,789.004C1081.5,785.828 1078.92,778.092 1082.09,771.739C1085.27,765.387 1093.01,762.808 1099.36,765.984Z"/>
                        </g>
                        <g transform="matrix(0.734444,-0.222559,0.222559,0.734444,569.292,1743.65)">
                            <ellipse cx="2765.83" cy="286.812" rx="23.313" ry="12.088" style="fill:rgb(183,248,255);"/>
                        </g>
                        <g transform="matrix(0.493537,0.587674,-0.587674,0.493537,1802.93,-389.275)">
                            <ellipse cx="2765.83" cy="286.812" rx="23.313" ry="12.088" style="fill:rgb(183,248,255);"/>
                        </g>
                        <g transform="matrix(1.18978,-0.169438,0.169438,1.18978,1245.06,999.679)">
                            <circle cx="1071.81" cy="534.398" r="76.669" style="fill:white;stroke:black;stroke-width:13.54px;"/>
                        </g>
                        <g transform="matrix(1.18978,-0.169438,0.169438,1.18978,1569.81,1026.66)">
                            <circle cx="1071.81" cy="534.398" r="76.669" style="fill:white;stroke:black;stroke-width:13.54px;"/>
                        </g>
                        <g transform="matrix(1.99095,2.09415,-2.09415,1.99095,1682.85,-1832.94)">
                            <circle cx="1044.8" cy="535.269" r="11.326"/>
                        </g>
                        <g transform="matrix(2.86066,-0.40739,0.40739,2.86066,-298.973,340.039)">
                            <circle cx="1044.8" cy="535.269" r="11.326"/>
                        </g>
                        <g transform="matrix(0.558514,0.587465,-0.587465,0.558514,1432.95,-201.693)">
                            <circle cx="2472.68" cy="285.194" r="11.336" style="fill:white;"/>
                        </g>
                        <g transform="matrix(0.802491,-0.114284,0.114284,0.802491,884.982,1489.68)">
                            <circle cx="2472.68" cy="285.194" r="11.336" style="fill:white;"/>
                        </g>
                    </g>
                    <g transform="matrix(0.52573,-0.336338,-0.336338,-0.52573,9980.24,5768.99)">
                        <path d="M2787.51,613.28C2787.51,613.28 2876.01,567.95 2927.82,598.17C2979.63,628.39 2964.52,678.037 2919.19,671.562C2873.86,665.086 2830.68,662.927 2802.62,686.672C2774.56,710.416 2731.39,641.342 2787.51,613.28Z" style="fill:rgb(214,194,149);stroke:black;stroke-width:20.03px;"/>
                    </g>
                </g>
                <g transform="matrix(-1,0,0,1,12631.2,-55.1866)">
                    <g transform="matrix(1,0,0,1,5.32521,0.887536)">
                        <path d="M6430.34,6949.68L6383.75,6955.45L6413.7,6985.4L6430.34,6949.68Z" style="fill:rgb(255,232,119);stroke:black;stroke-width:8.33px;"/>
                    </g>
                    <g transform="matrix(0.207873,0.978156,-0.978156,0.207873,11966.3,-789.585)">
                        <path d="M6478.58,6946.35C6491.57,6948.21 6515.84,6949.84 6528.45,6939C6529.36,6979.37 6520.58,7009.79 6506.62,7026.53C6497.2,7039.55 6481.9,7048.02 6464.62,7048.02C6436.04,7048.02 6412.84,7024.82 6412.84,6996.24C6412.84,6967.65 6436.04,6944.45 6464.62,6944.45C6469.46,6944.45 6474.14,6945.11 6478.58,6946.35Z" style="fill:rgb(255,194,0);stroke:black;stroke-width:8.33px;"/>
                    </g>
                    <path d="M6469.84,7044.65L6469.84,7083.7" style="fill:none;stroke:black;stroke-width:8.33px;"/>
                    <g transform="matrix(1,0,0,1,17.3069,0.443768)">
                        <path d="M6469.84,7044.65L6469.84,7083.7" style="fill:none;stroke:black;stroke-width:8.33px;"/>
                    </g>
                    <g transform="matrix(0.678482,0,0,0.678482,2073.22,2236.1)">
                        <path d="M6448.09,6963.88C6448.09,6963.88 6442.32,6980.74 6455.64,6984.74C6468.95,6988.73 6472.94,6965.21 6472.94,6965.21" style="fill:none;stroke:black;stroke-width:8.33px;"/>
                    </g>
                </g>
            </g>
        </g>
    </g>
</svg>
