<?xml version="1.0" encoding="UTF-8" standalone="no"?><!DOCTYPE svg PUBLIC "-//W3C//DTD SVG 1.1//EN" "http://www.w3.org/Graphics/SVG/1.1/DTD/svg11.dtd"><svg width="100%" height="100%" viewBox="0 0 600 600" version="1.1" xmlns="http://www.w3.org/2000/svg" xmlns:xlink="http://www.w3.org/1999/xlink" xml:space="preserve" xmlns:serif="http://www.serif.com/" style="fill-rule:evenodd;clip-rule:evenodd;stroke-linecap:round;stroke-linejoin:round;stroke-miterlimit:1.5;"><rect id="_38" serif:id="38" x="0" y="0" width="600" height="600" style="fill:none;"/><g id="_381" serif:id="38"><g><g><path d="M429.488,154.143c-0,0 13.867,-14.349 18.932,20.792" style="fill:none;stroke:#61e0ee;stroke-width:5.94px;"/><path d="M477.291,150.847c-0,0 -13.198,-13.863 -17.925,22.397" style="fill:none;stroke:#61e0ee;stroke-width:5.94px;"/><path d="M463.943,137.334c-0,0 -16.874,-9.034 -10.011,26.883" style="fill:none;stroke:#61e0ee;stroke-width:5.94px;"/><path d="M379.948,496.491c0,-0 1.709,-29.463 17.232,-38.175c15.523,-8.712 25.954,2.62 17.481,13.246c-8.473,10.625 -15.517,21.347 -13.661,32.098c1.856,10.751 -22.311,11.412 -21.052,-7.169Z" style="fill:#d6c295;stroke:#000;stroke-width:5.94px;"/><path d="M535.318,500.793c0,0 7.636,-28.507 -4.363,-41.655c-11.999,-13.149 -25.464,-5.669 -20.758,7.081c4.705,12.75 8.023,25.142 2.883,34.766c-5.14,9.623 17.595,17.843 22.238,-0.192Z" style="fill:#d6c295;stroke:#000;stroke-width:5.94px;"/><path d="M550.028,243.266c0.554,-3.255 7.234,-8.213 10.007,-9.332c33.738,-13.61 21.799,24.987 2.19,23.391" style="fill:#61e0ee;"/><path d="M553.935,243.93c-0.367,2.157 -2.415,3.61 -4.571,3.243c-2.157,-0.367 -3.609,-2.415 -3.243,-4.572c0.262,-1.539 1.241,-3.407 2.815,-5.194c2.747,-3.12 7.326,-6.224 9.617,-7.148c12.362,-4.987 19.716,-3.27 23.29,0.174c3.765,3.628 4.38,9.848 1.885,15.973c-3.299,8.1 -11.815,15.684 -21.824,14.869c-2.18,-0.177 -3.806,-2.091 -3.629,-4.271c0.177,-2.18 2.091,-3.806 4.271,-3.629c6.464,0.526 11.712,-4.728 13.841,-9.958c0.664,-1.628 1.028,-3.269 0.935,-4.751c-0.061,-0.982 -0.316,-1.887 -0.979,-2.526c-0.861,-0.83 -2.231,-1.158 -4.076,-1.155c-2.758,0.003 -6.294,0.827 -10.749,2.624c-1.37,0.553 -3.867,2.29 -5.769,4.134c-0.577,0.559 -1.098,1.127 -1.488,1.684c-0.134,0.191 -0.298,0.336 -0.326,0.503Z"/><path d="M367.574,217.276c-3.096,1.148 -6.422,-0.811 -8.777,-2.653c-28.656,-22.412 10.637,-31.223 19.06,-13.443" style="fill:#61e0ee;"/><path d="M366.196,213.56c2.051,-0.76 4.333,0.287 5.093,2.338c0.761,2.051 -0.287,4.333 -2.337,5.094c-4.393,1.628 -9.255,-0.634 -12.597,-3.247c-10.498,-8.212 -12.698,-15.424 -11.518,-20.217c1.246,-5.065 6.315,-8.692 12.866,-9.569c8.635,-1.156 19.437,2.452 23.736,11.525c0.936,1.976 0.091,4.341 -1.885,5.278c-1.977,0.936 -4.342,0.092 -5.278,-1.885c-2.778,-5.864 -9.941,-7.809 -15.521,-7.062c-1.732,0.231 -3.325,0.726 -4.553,1.537c-0.807,0.533 -1.453,1.192 -1.669,2.07c-0.284,1.153 0.122,2.495 1.047,4.085c1.387,2.384 3.872,5.033 7.658,7.995c0.887,0.693 1.942,1.432 3.081,1.866c0.611,0.233 1.251,0.424 1.877,0.192Z"/><path d="M368.662,452.101c-0,0 -14.835,-29.406 -11.929,-54.578c9.095,-78.8 -14.058,-94.343 -4.826,-142.399c3.206,-16.686 9.223,-35.683 19.41,-49.472c22.387,-30.304 65.276,-45.942 102.511,-38.683c14.909,2.906 28.359,9.409 41.668,16.536c46.302,24.795 55.767,76.832 49.593,120.644c-2.733,19.395 -19.516,49.581 -17.14,69.047c4.953,40.578 3.456,62.527 -9.295,88.649c-10.867,22.263 -52.928,38.923 -98.834,33.996c-7.822,-0.84 -54.614,-9.201 -71.158,-43.74Z" style="fill:#61e0ee;"/><clipPath id="_clip1"><path d="M368.662,452.101c-0,0 -14.835,-29.406 -11.929,-54.578c9.095,-78.8 -14.058,-94.343 -4.826,-142.399c3.206,-16.686 9.223,-35.683 19.41,-49.472c22.387,-30.304 65.276,-45.942 102.511,-38.683c14.909,2.906 28.359,9.409 41.668,16.536c46.302,24.795 55.767,76.832 49.593,120.644c-2.733,19.395 -19.516,49.581 -17.14,69.047c4.953,40.578 3.456,62.527 -9.295,88.649c-10.867,22.263 -52.928,38.923 -98.834,33.996c-7.822,-0.84 -54.614,-9.201 -71.158,-43.74Z"/></clipPath><g clip-path="url(#_clip1)"><path d="M535.282,202.662c0,-0 15.731,20.362 11.352,51.898c-6.577,47.372 -26.463,37.14 -25.391,122.436c0.535,42.52 2.987,68.174 -15.822,93.707c-18.267,24.799 -70.269,24.59 -83.402,20.791c-13.133,-3.8 51.786,13.693 89.02,-1.207c37.233,-14.9 42.701,-77.981 37.95,-117.435c-4.752,-39.453 26.835,-50.616 16.545,-118.633c-16.769,-39.869 -17.152,-37.616 -30.252,-51.557Z" style="fill:#4fcbe0;"/><path d="M473.058,260.75c0,-0 4.539,23.091 32.042,21.836c27.504,-1.254 29.52,-29.324 29.52,-29.324l-61.562,7.488Z" style="fill:#4fcbe0;"/><path d="M355.48,248.628c-0,0 4.538,23.092 32.042,21.837c27.504,-1.255 29.52,-29.325 29.52,-29.325l-61.562,7.488Z" style="fill:#4fcbe0;"/></g><path d="M365.107,453.852l-0.008,-0.016c-0.688,-1.389 -15.255,-31.188 -12.303,-56.767c5.393,-46.721 -0.71,-70.937 -4.466,-93.093c-2.608,-15.384 -4.116,-29.815 -0.315,-49.599c3.312,-17.237 9.591,-36.835 20.114,-51.08c23.253,-31.475 67.783,-47.757 106.457,-40.218c15.302,2.983 29.121,9.618 42.78,16.933c47.909,25.655 58.035,79.359 51.647,124.69c-1.394,9.899 -6.332,22.564 -10.66,35.226c-4.028,11.782 -7.599,23.543 -6.471,32.788c5.078,41.6 3.406,64.088 -9.666,90.867c-4.669,9.565 -14.588,18.292 -28.098,24.832c-19.429,9.406 -46.359,14.411 -74.721,11.366c-4.865,-0.522 -24.276,-3.833 -42.727,-14.145c-12.525,-7.001 -24.569,-17.209 -31.563,-31.784Zm7.129,-3.463c6.244,13.036 17.104,22.07 28.301,28.328c17.151,9.586 35.184,12.698 39.706,13.184c26.725,2.868 52.114,-1.757 70.421,-10.62c11.648,-5.638 20.404,-12.928 24.429,-21.174c12.43,-25.464 13.75,-46.875 8.922,-86.431c-1.008,-8.257 1.129,-18.349 4.369,-28.783c4.516,-14.547 11.165,-29.828 12.781,-41.297c5.959,-42.293 -2.843,-92.662 -47.54,-116.597c-12.959,-6.939 -26.038,-13.311 -40.555,-16.141c-35.797,-6.978 -77.043,8.015 -98.566,37.149c-9.851,13.334 -15.605,31.729 -18.705,47.865c-4.505,23.449 -1.041,38.963 2.372,58.231c3.546,20.016 7.109,43.929 2.498,83.875c-2.787,24.147 11.531,52.338 11.531,52.338c0.012,0.024 0.024,0.049 0.036,0.073Z"/><path d="M479.552,477.286c-78.494,17.994 -92.062,-27.81 -94.725,-37.765c-5.016,-18.75 -7.355,-55.072 -2.728,-74.368c1.607,-6.7 4.627,-14.327 9.746,-19.861c11.25,-12.162 61.385,-13.057 80.116,-10.129c7.501,1.172 14.268,3.788 20.964,6.655c23.298,9.973 31.137,125.265 -13.373,135.468Z" style="fill:#b7f8ff;"/><path d="M364.871,273.349c1.806,0.006 3.268,1.477 3.262,3.283c-0.006,1.807 -1.478,3.268 -3.284,3.262c-1.806,-0.006 -3.268,-1.477 -3.262,-3.283c0.006,-1.807 1.477,-3.268 3.284,-3.262Z" style="fill:#b7f8ff;"/><path d="M527.331,279.833c1.806,0.006 3.267,1.478 3.261,3.284c-0.006,1.806 -1.477,3.268 -3.283,3.262c-1.806,-0.006 -3.268,-1.477 -3.262,-3.284c0.006,-1.806 1.477,-3.268 3.284,-3.262Z" style="fill:#b7f8ff;"/><g><path d="M399.153,301.303c-29.689,21.553 1.011,41.254 21.12,27.493c14.931,-10.217 40.355,12.877 51.238,1.255c10.884,-11.622 -2.976,-23.987 -2.976,-23.987c-21.7,-19.372 -45.773,-21.9 -69.382,-4.761Z"/><path d="M421.526,295.139c0.823,4.857 0.47,13.864 2.972,17.991c1.212,2 4.192,2.297 6.134,2.491c11.153,1.115 11.758,-10.347 14.093,-20.192" style="fill:#ededed;"/><path d="M418.596,295.635c-0.274,-1.617 0.816,-3.153 2.434,-3.427c1.617,-0.274 3.153,0.817 3.427,2.434c0.498,2.944 0.575,7.395 1.098,11.385c0.285,2.174 0.659,4.2 1.484,5.562c0.23,0.378 0.691,0.49 1.122,0.621c0.942,0.289 1.963,0.373 2.767,0.454c1.974,0.197 3.496,-0.082 4.672,-0.841c1.206,-0.777 2.023,-2.004 2.69,-3.44c1.762,-3.796 2.423,-8.918 3.544,-13.64c0.378,-1.596 1.981,-2.585 3.578,-2.206c1.596,0.379 2.584,1.982 2.205,3.578c-1.215,5.123 -2.024,10.654 -3.936,14.772c-1.171,2.521 -2.742,4.566 -4.859,5.932c-2.147,1.385 -4.883,2.12 -8.486,1.759c-1.409,-0.141 -3.262,-0.365 -4.843,-1.014c-1.468,-0.602 -2.719,-1.545 -3.537,-2.893c-1.176,-1.94 -1.889,-4.776 -2.295,-7.872c-0.513,-3.912 -0.576,-8.278 -1.065,-11.164Z"/><path d="M437.255,258.475c9.065,0.588 16.121,5.744 15.747,11.507c-0.374,5.763 -8.037,9.964 -17.101,9.376c-9.065,-0.588 -16.121,-5.744 -15.747,-11.507c0.373,-5.762 8.036,-9.964 17.101,-9.376Z"/><path d="M432.621,276.155c0.034,-1.64 1.392,-2.944 3.032,-2.911c1.64,0.033 2.945,1.392 2.911,3.032c-0.102,5.039 -0.966,9.874 -1.36,14.866c-0.128,1.635 -1.561,2.858 -3.196,2.73c-1.635,-0.129 -2.858,-1.562 -2.73,-3.197c0.385,-4.876 1.243,-9.598 1.343,-14.52Z"/><path d="M411.975,186.273c2.937,-2.096 6.204,-2.561 7.291,-1.038c1.087,1.523 -0.416,4.46 -3.352,6.556c-2.937,2.096 -6.204,2.561 -7.291,1.039c-1.086,-1.523 0.416,-4.461 3.352,-6.557Z" style="fill:#b7f8ff;"/><path d="M502.217,187.838c2.896,2.152 4.341,5.118 3.226,6.62c-1.116,1.501 -4.373,0.973 -7.269,-1.179c-2.896,-2.152 -4.342,-5.118 -3.226,-6.62c1.116,-1.501 4.373,-0.973 7.269,1.179Z" style="fill:#b7f8ff;"/><path d="M379.986,193.496c18.405,-2.558 35.425,10.307 37.984,28.712c2.558,18.405 -10.307,35.424 -28.712,37.983c-18.404,2.558 -35.424,-10.307 -37.983,-28.711c-2.558,-18.405 10.307,-35.425 28.711,-37.984Z" style="fill:#fff;stroke:#000;stroke-width:5.94px;"/><path d="M393.101,204.863c6.229,-0.866 11.99,3.488 12.856,9.717c0.866,6.23 -3.489,11.99 -9.718,12.856c-6.23,0.866 -11.99,-3.488 -12.856,-9.717c-0.866,-6.23 3.488,-11.99 9.718,-12.856Z"/><path d="M394.275,212.955c1.749,-0.244 3.367,0.979 3.61,2.728c0.243,1.749 -0.98,3.366 -2.729,3.61c-1.749,0.243 -3.366,-0.98 -3.609,-2.729c-0.243,-1.749 0.979,-3.366 2.728,-3.609Z" style="fill:#fff;"/><path d="M498.616,203.75c18.405,-2.558 35.424,10.307 37.983,28.711c2.559,18.405 -10.306,35.425 -28.711,37.984c-18.405,2.558 -35.425,-10.307 -37.983,-28.712c-2.559,-18.404 10.306,-35.424 28.711,-37.983Z" style="fill:#fff;stroke:#000;stroke-width:5.94px;"/><path d="M494.216,210.39c6.377,-0.887 12.275,3.571 13.162,9.949c0.886,6.378 -3.572,12.275 -9.95,13.162c-6.377,0.887 -12.275,-3.572 -13.162,-9.949c-0.886,-6.378 3.572,-12.276 9.95,-13.162Z"/><path d="M495.175,218.429c1.79,-0.249 3.446,1.003 3.695,2.794c0.249,1.79 -1.003,3.446 -2.793,3.695c-1.791,0.249 -3.447,-1.002 -3.696,-2.793c-0.249,-1.791 1.003,-3.447 2.794,-3.696Z" style="fill:#fff;"/></g><path d="M462.576,357.845c-0,0 21.331,-20.395 38.627,-16.19c17.297,4.204 17.208,19.607 3.765,21.607c-13.442,2 -25.905,5.045 -31.874,14.178c-5.969,9.132 -24.103,-6.856 -10.518,-19.595Z" style="fill:#d6c295;stroke:#000;stroke-width:5.94px;"/><path d="M394.621,315.061c-0,0 -25.719,14.474 -26.729,32.246c-1.01,17.772 13.752,22.168 19.577,9.889c5.825,-12.279 12.364,-23.316 22.838,-26.37c10.474,-3.054 0.454,-25.055 -15.686,-15.765Z" style="fill:#d6c295;stroke:#000;stroke-width:5.94px;"/></g><path d="M261.227,409.256c-4.291,0 -7.775,3.484 -7.775,7.775l0,90.216c0,4.291 3.484,7.774 7.775,7.774l15.548,0c4.291,0 7.775,-3.483 7.775,-7.774l-0,-90.216c-0,-4.291 -3.484,-7.775 -7.775,-7.775l-15.548,0Z" style="fill:#80583b;stroke:#000;stroke-width:5.34px;"/><path d="M502.498,411.48c-4.29,0 -7.774,3.484 -7.774,7.774l0,90.217c0,4.29 3.484,7.774 7.774,7.774l15.549,-0c4.291,-0 7.774,-3.484 7.774,-7.774l0,-90.217c0,-4.29 -3.483,-7.774 -7.774,-7.774l-15.549,0Z" style="fill:#80583b;stroke:#000;stroke-width:5.34px;"/><path d="M558.708,396.548c-0,-4.29 -3.484,-7.774 -7.774,-7.774l-329.821,-0c-4.291,-0 -7.774,3.484 -7.774,7.774l-0,15.549c-0,4.291 3.483,7.774 7.774,7.774l329.821,0c4.29,0 7.774,-3.483 7.774,-7.774l-0,-15.549Z" style="fill:#80583b;stroke:#000;stroke-width:5.34px;"/><path d="M419.467,379.34c0,-1.458 -1.183,-2.641 -2.641,-2.641l-145.93,-0c-1.457,-0 -2.641,1.183 -2.641,2.641l0,5.281c0,1.457 1.184,2.64 2.641,2.64l145.93,0c1.458,0 2.641,-1.183 2.641,-2.64l0,-5.281Z" style="fill:#828282;stroke:#000;stroke-width:5.34px;"/><path d="M353.257,287.577c-0.967,-3.356 -4.476,-6.08 -7.832,-6.08l-139.862,-0c-3.355,-0 -5.295,2.724 -4.328,6.08l26.771,92.909c0.966,3.356 4.476,6.081 7.832,6.081l139.861,-0c3.356,-0 5.296,-2.725 4.329,-6.081l-26.771,-92.909Z" style="fill:#828282;stroke:#000;stroke-width:5.01px;"/><g transform="matrix(0.450041,0,0,0.450041,-2787.87,-2787.74)"><g transform="matrix(125,0,0,125,6228.75,6550.94)"><path d="M0.27,-0l-0.225,-0.724l0.116,0c0.012,0 0.022,0.003 0.03,0.009c0.009,0.005 0.014,0.013 0.016,0.022l0.121,0.431c0.003,0.011 0.006,0.022 0.009,0.035c0.003,0.012 0.005,0.025 0.007,0.039c0.003,-0.015 0.006,-0.028 0.009,-0.04c0.003,-0.013 0.007,-0.024 0.01,-0.034l0.14,-0.431c0.003,-0.007 0.008,-0.014 0.016,-0.021c0.008,-0.007 0.018,-0.01 0.029,-0.01l0.041,0c0.024,0 0.039,0.01 0.046,0.031l0.138,0.431c0.003,0.01 0.007,0.021 0.01,0.033c0.004,0.012 0.007,0.025 0.01,0.038c0.003,-0.015 0.005,-0.028 0.008,-0.04c0.003,-0.012 0.005,-0.022 0.007,-0.031l0.121,-0.431c0.002,-0.008 0.007,-0.015 0.015,-0.021c0.009,-0.007 0.019,-0.01 0.03,-0.01l0.108,0l-0.224,0.724l-0.125,-0l-0.156,-0.493c-0.003,-0.01 -0.005,-0.019 -0.008,-0.026c-0.002,-0.007 -0.003,-0.013 -0.004,-0.017c-0.002,0.005 -0.004,0.012 -0.007,0.021c-0.002,0.009 -0.004,0.016 -0.006,0.022l-0.157,0.493l-0.125,-0Zm-0.127,-0.691l-0,-0.033l0.074,0l-0,0.033l-0.074,0Zm0.778,0l-0,-0.033l0.075,0l-0,0.033l-0.075,0Zm-0.812,-0.033l-0.012,0.101l-0.058,-0.012c-0.009,-0.002 -0.016,-0.005 -0.021,-0.01c-0.005,-0.005 -0.008,-0.012 -0.008,-0.021l-0,-0.058l0.099,0Zm0.175,0l-0,0.058c-0,0.009 -0.003,0.016 -0.008,0.021c-0.005,0.005 -0.012,0.008 -0.021,0.01l-0.057,0.012l-0.013,-0.101l0.099,0Zm0.661,0l-0.013,0.101l-0.057,-0.012c-0.009,-0.002 -0.017,-0.005 -0.022,-0.01c-0.005,-0.005 -0.008,-0.012 -0.008,-0.021l-0,-0.058l0.1,0Zm0.175,0l0,0.058c0,0.009 -0.003,0.016 -0.008,0.021c-0.005,0.005 -0.012,0.008 -0.021,0.01l-0.058,0.012l-0.012,-0.101l0.099,0Z" style="fill-rule:nonzero;"/></g><g transform="matrix(125,0,0,125,6370,6550.94)"><path d="M0.1,-0l0,-0.724l0.139,0l0,0.312l0.335,-0l0,-0.312l0.139,0l-0,0.724l-0.139,-0l0,-0.316l-0.335,0l-0,0.316l-0.139,-0Zm-0.074,-0l-0,-0.058c-0,-0.009 0.002,-0.016 0.007,-0.021c0.005,-0.005 0.013,-0.008 0.022,-0.01l0.057,-0.012l0.013,0.101l-0.099,-0Zm0.189,-0l0.013,-0.101l0.057,0.012c0.009,0.002 0.016,0.005 0.021,0.01c0.005,0.005 0.008,0.012 0.008,0.021l-0,0.058l-0.099,-0Zm-0.09,-0.724l-0.013,0.101l-0.057,-0.012c-0.009,-0.002 -0.017,-0.005 -0.022,-0.01c-0.005,-0.005 -0.007,-0.012 -0.007,-0.021l-0,-0.058l0.099,0Zm0.189,0l-0,0.058c-0,0.009 -0.003,0.016 -0.008,0.021c-0.005,0.005 -0.012,0.008 -0.021,0.01l-0.057,0.012l-0.013,-0.101l0.099,0Zm0.185,0.724l-0,-0.058c-0,-0.009 0.002,-0.016 0.007,-0.021c0.005,-0.005 0.013,-0.008 0.022,-0.01l0.057,-0.012l0.013,0.101l-0.099,-0Zm0.19,-0l0.013,-0.101l0.057,0.012c0.009,0.002 0.016,0.005 0.021,0.01c0.005,0.005 0.008,0.012 0.008,0.021l-0,0.058l-0.099,-0Zm-0.091,-0.724l-0.013,0.101l-0.057,-0.012c-0.009,-0.002 -0.017,-0.005 -0.022,-0.01c-0.005,-0.005 -0.007,-0.012 -0.007,-0.021l-0,-0.058l0.099,0Zm0.19,0l0,0.058c-0,0.009 -0.003,0.016 -0.008,0.021c-0.005,0.005 -0.012,0.008 -0.021,0.01l-0.057,0.012l-0.013,-0.101l0.099,0Z" style="fill-rule:nonzero;"/></g><g transform="matrix(125,0,0,125,6471.75,6550.94)"><path d="M0.286,-0l0,-0.28l-0.264,-0.444l0.122,0c0.012,0 0.022,0.003 0.029,0.009c0.007,0.006 0.013,0.013 0.017,0.022l0.129,0.241c0.008,0.015 0.015,0.028 0.021,0.041c0.006,0.012 0.011,0.024 0.016,0.037c0.003,-0.011 0.008,-0.022 0.013,-0.035c0.006,-0.013 0.013,-0.028 0.022,-0.043l0.128,-0.241c0.005,-0.007 0.011,-0.014 0.018,-0.021c0.008,-0.007 0.017,-0.01 0.027,-0.01l0.123,0l-0.264,0.444l-0,0.28l-0.137,0Zm-0.151,-0.665l-0,-0.059l0.075,0l-0,0.059l-0.075,0Zm0.358,0l-0,-0.059l0.086,0l-0,0.059l-0.086,0Zm-0.384,-0.059l-0.012,0.101l-0.058,-0.012c-0.009,-0.002 -0.016,-0.005 -0.021,-0.01c-0.005,-0.005 -0.008,-0.012 -0.008,-0.021l-0,-0.058l0.099,0Zm0.175,0l0,0.058c0,0.009 -0.003,0.016 -0.008,0.021c-0.005,0.005 -0.012,0.008 -0.021,0.01l-0.058,0.012l-0.012,-0.101l0.099,0Zm0.24,0l-0.013,0.101l-0.057,-0.012c-0.009,-0.002 -0.017,-0.005 -0.022,-0.01c-0.005,-0.005 -0.007,-0.012 -0.007,-0.021l0,-0.058l0.099,0Zm0.175,0l0,0.058c0,0.009 -0.003,0.016 -0.008,0.021c-0.005,0.005 -0.013,0.008 -0.022,0.01l-0.057,0.012l-0.013,-0.101l0.1,0Zm-0.488,0.724l0,-0.058c0,-0.009 0.002,-0.016 0.007,-0.021c0.005,-0.005 0.013,-0.008 0.022,-0.01l0.057,-0.012l0.013,0.101l-0.099,0Zm0.188,0l0.013,-0.101l0.057,0.012c0.009,0.002 0.016,0.005 0.021,0.01c0.005,0.005 0.008,0.012 0.008,0.021l-0,0.058l-0.099,0Z" style="fill-rule:nonzero;"/></g><g transform="matrix(125,0,0,125,6560.37,6550.94)"></g><g transform="matrix(125,0,0,125,6591.12,6550.94)"><path d="M0.1,-0l0,-0.724l0.277,0c0.055,0 0.105,0.009 0.15,0.027c0.046,0.018 0.085,0.043 0.117,0.074c0.033,0.033 0.057,0.071 0.074,0.116c0.017,0.044 0.026,0.092 0.026,0.145c0,0.053 -0.009,0.101 -0.026,0.146c-0.017,0.045 -0.041,0.083 -0.074,0.114c-0.032,0.032 -0.071,0.057 -0.117,0.075c-0.045,0.018 -0.095,0.027 -0.15,0.027l-0.277,-0Zm0.139,-0.108l0.138,0c0.048,0 0.089,-0.01 0.122,-0.031c0.033,-0.021 0.059,-0.05 0.077,-0.088c0.018,-0.039 0.027,-0.084 0.027,-0.135c0,-0.051 -0.009,-0.096 -0.027,-0.134c-0.018,-0.038 -0.044,-0.067 -0.077,-0.088c-0.033,-0.021 -0.074,-0.032 -0.122,-0.032l-0.138,0l0,0.508Zm-0.213,0.108l0,-0.058c0,-0.009 0.002,-0.016 0.007,-0.021c0.005,-0.005 0.013,-0.008 0.022,-0.01l0.057,-0.012l0.013,0.101l-0.099,-0Zm0.099,-0.724l-0.013,0.101l-0.057,-0.012c-0.009,-0.002 -0.017,-0.005 -0.022,-0.01c-0.005,-0.005 -0.007,-0.012 -0.007,-0.021l0,-0.058l0.099,0Z" style="fill-rule:nonzero;"/></g><g transform="matrix(125,0,0,125,6686.87,6550.94)"><path d="M0.389,0.008c-0.055,0 -0.105,-0.009 -0.15,-0.028c-0.045,-0.019 -0.083,-0.045 -0.116,-0.078c-0.031,-0.033 -0.056,-0.072 -0.075,-0.117c-0.018,-0.045 -0.027,-0.094 -0.027,-0.147c-0,-0.053 0.009,-0.102 0.027,-0.147c0.019,-0.045 0.044,-0.085 0.075,-0.118c0.033,-0.033 0.071,-0.058 0.116,-0.077c0.045,-0.019 0.095,-0.028 0.15,-0.028c0.055,0 0.106,0.009 0.151,0.028c0.046,0.019 0.085,0.045 0.116,0.078c0.033,0.033 0.058,0.072 0.075,0.117c0.017,0.045 0.026,0.094 0.026,0.147c0,0.053 -0.009,0.102 -0.026,0.147c-0.017,0.045 -0.042,0.084 -0.075,0.117c-0.031,0.033 -0.07,0.059 -0.116,0.078c-0.046,0.019 -0.096,0.028 -0.151,0.028Zm0,-0.116c0.048,0 0.089,-0.01 0.122,-0.031c0.034,-0.021 0.06,-0.05 0.077,-0.088c0.018,-0.038 0.027,-0.083 0.027,-0.135c0,-0.051 -0.009,-0.096 -0.027,-0.134c-0.017,-0.038 -0.043,-0.067 -0.077,-0.088c-0.033,-0.021 -0.074,-0.032 -0.122,-0.032c-0.047,0 -0.087,0.011 -0.121,0.032c-0.034,0.021 -0.06,0.05 -0.078,0.088c-0.018,0.038 -0.027,0.083 -0.027,0.134c0,0.051 0.009,0.096 0.027,0.135c0.018,0.038 0.044,0.067 0.078,0.088c0.034,0.021 0.074,0.031 0.121,0.031Z" style="fill-rule:nonzero;"/></g><g transform="matrix(125,0,0,125,6784.12,6550.94)"><path d="M0.1,-0l0,-0.724l0.458,0l0,0.108l-0.319,0l-0,0.2l0.242,-0l-0,0.104l-0.242,-0l-0,0.204l0.319,-0l0,0.108l-0.458,-0Zm0.36,-0.085l0.015,-0.082c0.003,-0.009 0.006,-0.016 0.011,-0.021c0.005,-0.005 0.011,-0.008 0.02,-0.008l0.052,-0l0,0.088l-0.098,0.023Zm-0,-0.554l0.098,0.023l0,0.088l-0.052,0c-0.009,0 -0.015,-0.002 -0.02,-0.007c-0.005,-0.005 -0.008,-0.013 -0.011,-0.022l-0.015,-0.082Zm-0.335,-0.085l-0.012,0.101l-0.058,-0.012c-0.009,-0.002 -0.016,-0.005 -0.021,-0.01c-0.005,-0.005 -0.008,-0.012 -0.008,-0.021l0,-0.058l0.099,0Zm-0.099,0.724l0,-0.058c0,-0.009 0.002,-0.016 0.007,-0.021c0.005,-0.005 0.013,-0.008 0.022,-0.01l0.057,-0.012l0.013,0.101l-0.099,0Z" style="fill-rule:nonzero;"/></g><g transform="matrix(125,0,0,125,6858.62,6550.94)"><path d="M0.265,0.008c-0.027,0 -0.054,-0.002 -0.08,-0.005c-0.025,-0.003 -0.05,-0.008 -0.073,-0.013c-0.023,-0.006 -0.044,-0.013 -0.065,-0.02l0,-0.099l0.064,-0.007c0.029,0.013 0.056,0.022 0.081,0.027c0.026,0.004 0.053,0.006 0.08,0.006c0.025,-0 0.046,-0.004 0.063,-0.012c0.017,-0.008 0.031,-0.02 0.04,-0.035c0.01,-0.016 0.015,-0.035 0.015,-0.056c-0,-0.02 -0.005,-0.036 -0.015,-0.048c-0.009,-0.013 -0.022,-0.023 -0.039,-0.031c-0.016,-0.008 -0.034,-0.015 -0.053,-0.02c-0.019,-0.006 -0.039,-0.012 -0.06,-0.019c-0.029,-0.01 -0.056,-0.022 -0.082,-0.037c-0.025,-0.015 -0.046,-0.036 -0.061,-0.061c-0.015,-0.025 -0.023,-0.058 -0.023,-0.099c-0,-0.039 0.01,-0.075 0.03,-0.107c0.02,-0.032 0.048,-0.057 0.083,-0.076c0.036,-0.019 0.078,-0.028 0.126,-0.028c0.034,0 0.069,0.005 0.106,0.015c0.037,0.01 0.07,0.024 0.099,0.042l0,0.08l-0.072,-0.001c-0.021,-0.007 -0.042,-0.013 -0.064,-0.018c-0.021,-0.005 -0.044,-0.007 -0.068,-0.007c-0.035,0 -0.063,0.008 -0.082,0.025c-0.019,0.016 -0.029,0.037 -0.029,0.064c0,0.023 0.008,0.042 0.025,0.055c0.017,0.013 0.039,0.024 0.064,0.033c0.026,0.008 0.052,0.017 0.078,0.026c0.031,0.011 0.059,0.024 0.084,0.039c0.025,0.015 0.045,0.034 0.06,0.059c0.015,0.024 0.022,0.056 0.022,0.095c0,0.045 -0.01,0.085 -0.031,0.12c-0.02,0.035 -0.049,0.063 -0.087,0.083c-0.038,0.02 -0.083,0.03 -0.136,0.03Zm0.139,-0.626l0.097,0.023l0,0.088l-0.052,0c-0.009,0 -0.015,-0.002 -0.02,-0.007c-0.005,-0.005 -0.008,-0.013 -0.01,-0.022l-0.015,-0.082Zm-0.26,0.512l-0.097,-0.023l0,-0.088l0.052,0c0.009,0 0.015,0.003 0.02,0.008c0.005,0.005 0.009,0.012 0.01,0.021l0.015,0.082Z" style="fill-rule:nonzero;"/></g><g transform="matrix(125,0,0,125,6928.87,6550.94)"></g><g transform="matrix(125,0,0,125,6959.62,6550.94)"></g><g transform="matrix(125,0,0,125,6267.94,6725.94)"><path d="M0.1,-0l0,-0.724l0.139,0l0,0.724l-0.139,-0Zm-0.074,-0l-0,-0.058c-0,-0.009 0.002,-0.016 0.007,-0.021c0.005,-0.005 0.013,-0.008 0.022,-0.01l0.057,-0.012l0.013,0.101l-0.099,-0Zm0.189,-0l0.013,-0.101l0.057,0.012c0.009,0.002 0.016,0.005 0.021,0.01c0.005,0.005 0.008,0.012 0.008,0.021l-0,0.058l-0.099,-0Zm-0.09,-0.724l-0.013,0.101l-0.057,-0.012c-0.009,-0.002 -0.017,-0.005 -0.022,-0.01c-0.005,-0.005 -0.007,-0.012 -0.007,-0.021l-0,-0.058l0.099,0Zm0.189,0l-0,0.058c-0,0.009 -0.003,0.016 -0.008,0.021c-0.005,0.005 -0.012,0.008 -0.021,0.01l-0.057,0.012l-0.013,-0.101l0.099,0Z" style="fill-rule:nonzero;"/></g><g transform="matrix(125,0,0,125,6310.44,6725.94)"><path d="M0.232,-0l0,-0.612l-0.217,0l-0,-0.112l0.571,0l-0,0.112l-0.216,0l-0,0.612l-0.138,-0Zm-0.075,-0l-0,-0.058c-0,-0.009 0.003,-0.016 0.008,-0.021c0.005,-0.005 0.012,-0.008 0.021,-0.01l0.058,-0.012l0.012,0.101l-0.099,-0Zm0.189,-0l0.012,-0.101l0.058,0.012c0.009,0.002 0.016,0.005 0.021,0.01c0.005,0.005 0.008,0.012 0.008,0.021l-0,0.058l-0.099,-0Zm0.143,-0.636l0.097,0.024l-0,0.088l-0.051,0c-0.009,0 -0.016,-0.002 -0.021,-0.007c-0.005,-0.005 -0.008,-0.013 -0.01,-0.022l-0.015,-0.083Zm-0.377,0l-0.015,0.083c-0.001,0.009 -0.005,0.017 -0.01,0.022c-0.005,0.005 -0.011,0.007 -0.02,0.007l-0.052,0l0,-0.088l0.097,-0.024Z" style="fill-rule:nonzero;"/></g><g transform="matrix(125,0,0,125,6385.56,6725.94)"></g><g transform="matrix(125,0,0,125,6416.31,6725.94)"><path d="M0.27,-0l-0.225,-0.724l0.116,0c0.012,0 0.022,0.003 0.03,0.009c0.009,0.005 0.014,0.013 0.016,0.022l0.121,0.431c0.003,0.011 0.006,0.022 0.009,0.035c0.003,0.012 0.005,0.025 0.007,0.039c0.003,-0.015 0.006,-0.028 0.009,-0.04c0.003,-0.013 0.007,-0.024 0.01,-0.034l0.14,-0.431c0.003,-0.007 0.008,-0.014 0.016,-0.021c0.008,-0.007 0.018,-0.01 0.029,-0.01l0.041,0c0.024,0 0.039,0.01 0.046,0.031l0.138,0.431c0.003,0.01 0.007,0.021 0.01,0.033c0.004,0.012 0.007,0.025 0.01,0.038c0.003,-0.015 0.005,-0.028 0.008,-0.04c0.003,-0.012 0.005,-0.022 0.007,-0.031l0.121,-0.431c0.002,-0.008 0.007,-0.015 0.015,-0.021c0.009,-0.007 0.019,-0.01 0.03,-0.01l0.108,0l-0.224,0.724l-0.125,-0l-0.156,-0.493c-0.003,-0.01 -0.005,-0.019 -0.008,-0.026c-0.002,-0.007 -0.003,-0.013 -0.004,-0.017c-0.002,0.005 -0.004,0.012 -0.007,0.021c-0.002,0.009 -0.004,0.016 -0.006,0.022l-0.157,0.493l-0.125,-0Zm-0.127,-0.691l-0,-0.033l0.074,0l-0,0.033l-0.074,0Zm0.778,0l-0,-0.033l0.075,0l-0,0.033l-0.075,0Zm-0.812,-0.033l-0.012,0.101l-0.058,-0.012c-0.009,-0.002 -0.016,-0.005 -0.021,-0.01c-0.005,-0.005 -0.008,-0.012 -0.008,-0.021l-0,-0.058l0.099,0Zm0.175,0l-0,0.058c-0,0.009 -0.003,0.016 -0.008,0.021c-0.005,0.005 -0.012,0.008 -0.021,0.01l-0.057,0.012l-0.013,-0.101l0.099,0Zm0.661,0l-0.013,0.101l-0.057,-0.012c-0.009,-0.002 -0.017,-0.005 -0.022,-0.01c-0.005,-0.005 -0.008,-0.012 -0.008,-0.021l-0,-0.058l0.1,0Zm0.175,0l0,0.058c0,0.009 -0.003,0.016 -0.008,0.021c-0.005,0.005 -0.012,0.008 -0.021,0.01l-0.058,0.012l-0.012,-0.101l0.099,0Z" style="fill-rule:nonzero;"/></g><g transform="matrix(125,0,0,125,6557.56,6725.94)"><path d="M0.389,0.008c-0.055,0 -0.105,-0.009 -0.15,-0.028c-0.045,-0.019 -0.083,-0.045 -0.116,-0.078c-0.031,-0.033 -0.056,-0.072 -0.075,-0.117c-0.018,-0.045 -0.027,-0.094 -0.027,-0.147c-0,-0.053 0.009,-0.102 0.027,-0.147c0.019,-0.045 0.044,-0.085 0.075,-0.118c0.033,-0.033 0.071,-0.058 0.116,-0.077c0.045,-0.019 0.095,-0.028 0.15,-0.028c0.055,0 0.106,0.009 0.151,0.028c0.046,0.019 0.085,0.045 0.116,0.078c0.033,0.033 0.058,0.072 0.075,0.117c0.017,0.045 0.026,0.094 0.026,0.147c0,0.053 -0.009,0.102 -0.026,0.147c-0.017,0.045 -0.042,0.084 -0.075,0.117c-0.031,0.033 -0.07,0.059 -0.116,0.078c-0.046,0.019 -0.096,0.028 -0.151,0.028Zm0,-0.116c0.048,0 0.089,-0.01 0.122,-0.031c0.034,-0.021 0.06,-0.05 0.077,-0.088c0.018,-0.038 0.027,-0.083 0.027,-0.135c0,-0.051 -0.009,-0.096 -0.027,-0.134c-0.017,-0.038 -0.043,-0.067 -0.077,-0.088c-0.033,-0.021 -0.074,-0.032 -0.122,-0.032c-0.047,0 -0.087,0.011 -0.121,0.032c-0.034,0.021 -0.06,0.05 -0.078,0.088c-0.018,0.038 -0.027,0.083 -0.027,0.134c0,0.051 0.009,0.096 0.027,0.135c0.018,0.038 0.044,0.067 0.078,0.088c0.034,0.021 0.074,0.031 0.121,0.031Z" style="fill-rule:nonzero;"/></g><g transform="matrix(125,0,0,125,6654.81,6725.94)"><path d="M0.1,-0l0,-0.724l0.223,0c0.057,0 0.107,0.008 0.148,0.023c0.042,0.015 0.074,0.037 0.097,0.068c0.023,0.031 0.035,0.07 0.035,0.118c0,0.033 -0.006,0.064 -0.019,0.091c-0.013,0.027 -0.031,0.05 -0.055,0.069c-0.023,0.019 -0.052,0.035 -0.085,0.046c0.018,0.009 0.033,0.023 0.046,0.042l0.178,0.267l-0.124,0c-0.024,0 -0.041,-0.009 -0.051,-0.027l-0.149,-0.231c-0.006,-0.009 -0.012,-0.015 -0.019,-0.018c-0.007,-0.004 -0.017,-0.006 -0.03,-0.006l-0.056,0l0,0.282l-0.139,0Zm0.139,-0.379l0.082,0c0.048,0 0.084,-0.011 0.109,-0.034c0.025,-0.023 0.038,-0.053 0.038,-0.092c0,-0.037 -0.012,-0.065 -0.036,-0.084c-0.023,-0.019 -0.06,-0.029 -0.109,-0.029l-0.084,0l0,0.239Zm0.338,0.379l-0.052,-0.114l0.068,0.014l-0.016,0.1Zm-0.551,-0l0,-0.058c0,-0.009 0.002,-0.016 0.007,-0.021c0.005,-0.005 0.013,-0.008 0.022,-0.01l0.057,-0.012l0.013,0.101l-0.099,-0Zm0.099,-0.724l-0.013,0.101l-0.057,-0.012c-0.009,-0.002 -0.017,-0.005 -0.022,-0.01c-0.005,-0.005 -0.007,-0.012 -0.007,-0.021l0,-0.058l0.099,0Zm0.09,0.724l0.012,-0.101l0.058,0.012c0.009,0.002 0.016,0.005 0.021,0.01c0.005,0.005 0.008,0.012 0.008,0.021l0,0.058l-0.099,0Zm0.362,0l0.013,-0.101l0.057,0.012c0.009,0.002 0.016,0.005 0.021,0.01c0.005,0.005 0.008,0.012 0.008,0.021l0,0.058l-0.099,0Z" style="fill-rule:nonzero;"/></g><g transform="matrix(125,0,0,125,6740.56,6725.94)"><path d="M0.1,-0l0,-0.724l0.139,0l0,0.303l0.031,0c0.013,0 0.023,-0.002 0.031,-0.005c0.009,-0.003 0.016,-0.009 0.022,-0.017l0.196,-0.252c0.009,-0.011 0.018,-0.018 0.027,-0.022c0.009,-0.005 0.021,-0.007 0.035,-0.007l0.119,0l-0.24,0.301c-0.007,0.009 -0.015,0.017 -0.022,0.024c-0.007,0.006 -0.015,0.011 -0.023,0.015c0.011,0.004 0.021,0.01 0.03,0.017c0.009,0.007 0.017,0.017 0.026,0.028l0.248,0.339l-0.123,-0c-0.015,-0 -0.026,-0.002 -0.034,-0.006c-0.008,-0.005 -0.015,-0.012 -0.022,-0.021l-0.2,-0.267c-0.007,-0.009 -0.015,-0.016 -0.023,-0.019c-0.008,-0.003 -0.02,-0.005 -0.036,-0.005l-0.042,0l-0,0.318l-0.139,0Zm0.497,-0.618l-0.071,-0.062l0,-0.044l0.147,0l-0.048,0.1l-0.028,0.006Zm0.031,0.618l-0.053,-0.114l0.068,0.014l-0.015,0.1Zm-0.602,0l-0,-0.058c-0,-0.009 0.002,-0.016 0.007,-0.021c0.005,-0.005 0.013,-0.008 0.022,-0.01l0.057,-0.012l0.013,0.101l-0.099,0Zm0.189,0l0.013,-0.101l0.057,0.012c0.009,0.002 0.016,0.005 0.021,0.01c0.005,0.005 0.008,0.012 0.008,0.021l-0,0.058l-0.099,0Zm-0.09,-0.724l-0.013,0.101l-0.057,-0.012c-0.009,-0.002 -0.017,-0.005 -0.022,-0.01c-0.005,-0.005 -0.007,-0.012 -0.007,-0.021l-0,-0.058l0.099,0Zm0.189,0l-0,0.058c-0,0.009 -0.003,0.016 -0.008,0.021c-0.005,0.005 -0.012,0.008 -0.021,0.01l-0.057,0.012l-0.013,-0.101l0.099,0Zm0.314,0.724l0.012,-0.101l0.058,0.012c0.009,0.002 0.016,0.005 0.021,0.01c0.005,0.005 0.008,0.012 0.008,0.021l-0,0.058l-0.099,0Zm0.081,-0.724l-0,0.058c-0,0.009 -0.003,0.016 -0.008,0.021c-0.005,0.005 -0.012,0.008 -0.021,0.01l-0.058,0.012l-0.012,-0.101l0.099,0Zm-0.171,0l-0.013,0.101l-0.057,-0.012c-0.009,-0.002 -0.017,-0.005 -0.022,-0.01c-0.005,-0.005 -0.008,-0.012 -0.008,-0.021l0,-0.058l0.1,0Z" style="fill-rule:nonzero;"/></g><g transform="matrix(125,0,0,125,6832.69,6725.94)"><path d="M0.159,-0.255l-0.01,-0.091c0,-0.021 0.008,-0.039 0.023,-0.054c0.016,-0.015 0.033,-0.029 0.051,-0.042c0.019,-0.013 0.036,-0.029 0.051,-0.047c0.015,-0.018 0.023,-0.04 0.023,-0.065c0,-0.016 -0.004,-0.03 -0.011,-0.041c-0.007,-0.011 -0.018,-0.02 -0.031,-0.026c-0.013,-0.007 -0.029,-0.01 -0.047,-0.01c-0.011,0 -0.022,0.002 -0.034,0.006c-0.012,0.004 -0.024,0.009 -0.036,0.014c-0.012,0.005 -0.022,0.009 -0.031,0.014c-0.009,0.004 -0.015,0.006 -0.02,0.006c-0.011,0 -0.02,-0.005 -0.027,-0.015l-0.033,-0.052c0.024,-0.021 0.052,-0.038 0.084,-0.052c0.033,-0.015 0.069,-0.022 0.108,-0.022c0.039,0 0.073,0.007 0.102,0.021c0.029,0.014 0.052,0.034 0.069,0.059c0.017,0.025 0.025,0.056 0.025,0.091c-0,0.035 -0.007,0.064 -0.021,0.089c-0.014,0.024 -0.032,0.044 -0.053,0.06c-0.011,0.009 -0.023,0.018 -0.036,0.027c-0.012,0.009 -0.023,0.018 -0.032,0.028c-0.009,0.009 -0.014,0.019 -0.016,0.029l-0.012,0.073l-0.086,0Zm0.037,0.262c-0.021,-0 -0.04,-0.007 -0.055,-0.021c-0.015,-0.015 -0.022,-0.033 -0.022,-0.055c0,-0.021 0.007,-0.038 0.022,-0.053c0.015,-0.015 0.034,-0.022 0.055,-0.022c0.022,-0 0.04,0.007 0.055,0.022c0.015,0.015 0.022,0.032 0.022,0.053c0,0.022 -0.007,0.04 -0.022,0.055c-0.015,0.014 -0.033,0.021 -0.055,0.021Z" style="fill-rule:nonzero;"/></g><g transform="matrix(125,0,0,125,6889.69,6725.94)"></g></g><g transform="matrix(31.9814,0,0,31.9814,312.395,346.645)"></g><text x="260.521px" y="346.645px" style="font-family:'Aleo-Regular', 'Aleo';font-size:31.981px;fill:#fff;">&lt;\&gt;</text></g></g></svg>