<?xml version="1.0" encoding="UTF-8" standalone="no"?><!DOCTYPE svg PUBLIC "-//W3C//DTD SVG 1.1//EN" "http://www.w3.org/Graphics/SVG/1.1/DTD/svg11.dtd"><svg width="100%" height="100%" viewBox="0 0 600 600" version="1.1" xmlns="http://www.w3.org/2000/svg" xmlns:xlink="http://www.w3.org/1999/xlink" xml:space="preserve" xmlns:serif="http://www.serif.com/" style="fill-rule:evenodd;clip-rule:evenodd;stroke-linecap:round;stroke-linejoin:round;stroke-miterlimit:1.5;"><rect id="_39" serif:id="39" x="0" y="0" width="600" height="600" style="fill:none;"/><g><circle cx="304.137" cy="305.324" r="269.991" style="fill:#61e0ee;stroke:#000;stroke-width:8.09px;"/><circle cx="304.137" cy="305.324" r="191.524" style="fill:#b7f8ff;stroke:#000;stroke-width:8.09px;"/><g transform="matrix(1,0,0,1,-20309.6,-3941.7)"><g transform="matrix(0.333919,-0.942602,0.942602,0.333919,9631.5,22035.5)"><g transform="matrix(58.3333,0,0,58.3333,20407.4,4202.74)"><path d="M0.387,0.008c-0.053,0 -0.103,-0.01 -0.148,-0.029c-0.045,-0.019 -0.084,-0.045 -0.117,-0.078c-0.033,-0.033 -0.059,-0.073 -0.078,-0.118c-0.019,-0.045 -0.029,-0.095 -0.029,-0.148c-0,-0.054 0.009,-0.104 0.027,-0.15c0.018,-0.046 0.044,-0.085 0.078,-0.118c0.033,-0.033 0.074,-0.059 0.121,-0.077c0.047,-0.018 0.1,-0.027 0.159,-0.027c0.038,0 0.071,0.002 0.1,0.007c0.029,0.005 0.057,0.011 0.082,0.02c0.026,0.008 0.053,0.018 0.08,0.031l0,0.101l-0.075,0.017c-0.027,-0.014 -0.057,-0.023 -0.092,-0.028c-0.034,-0.005 -0.068,-0.008 -0.101,-0.008c-0.043,0 -0.079,0.01 -0.11,0.03c-0.031,0.019 -0.054,0.046 -0.071,0.081c-0.017,0.035 -0.025,0.075 -0.025,0.121c0,0.049 0.009,0.091 0.026,0.128c0.018,0.037 0.043,0.065 0.075,0.085c0.032,0.02 0.069,0.03 0.111,0.03c0.023,-0 0.044,-0.002 0.062,-0.006c0.018,-0.004 0.035,-0.009 0.051,-0.016l0,-0.111l-0.072,-0c-0.011,-0 -0.019,-0.003 -0.025,-0.008c-0.006,-0.006 -0.009,-0.013 -0.009,-0.022l0,-0.093l0.259,-0l0,0.308c-0.039,0.028 -0.081,0.048 -0.126,0.06c-0.045,0.012 -0.096,0.018 -0.153,0.018Zm0.166,-0.608l0.109,0.022l0,0.086l-0.056,-0c-0.011,-0 -0.02,-0.003 -0.026,-0.01c-0.005,-0.007 -0.009,-0.017 -0.012,-0.029l-0.015,-0.069Z" style="fill-rule:nonzero;"/></g></g><g transform="matrix(0.527143,-0.849777,0.849777,0.527143,6119.46,19322.1)"><g transform="matrix(58.3333,0,0,58.3333,20421.7,4162.39)"><path d="M0.394,0.008c-0.057,0 -0.108,-0.009 -0.155,-0.028c-0.046,-0.019 -0.086,-0.046 -0.119,-0.08c-0.033,-0.033 -0.058,-0.073 -0.077,-0.118c-0.019,-0.045 -0.028,-0.094 -0.028,-0.147c-0,-0.053 0.009,-0.102 0.028,-0.147c0.019,-0.045 0.044,-0.085 0.077,-0.118c0.033,-0.033 0.073,-0.059 0.119,-0.078c0.047,-0.019 0.098,-0.029 0.155,-0.029c0.057,0 0.108,0.01 0.155,0.029c0.047,0.019 0.087,0.046 0.12,0.079c0.033,0.033 0.059,0.073 0.076,0.118c0.018,0.045 0.027,0.094 0.027,0.146c-0,0.053 -0.009,0.102 -0.027,0.147c-0.017,0.045 -0.043,0.085 -0.076,0.118c-0.033,0.034 -0.073,0.061 -0.12,0.08c-0.047,0.019 -0.098,0.028 -0.155,0.028Zm0,-0.14c0.044,0 0.081,-0.009 0.111,-0.028c0.031,-0.019 0.054,-0.046 0.07,-0.081c0.016,-0.035 0.024,-0.077 0.024,-0.124c0,-0.047 -0.008,-0.088 -0.024,-0.123c-0.016,-0.035 -0.039,-0.061 -0.07,-0.08c-0.03,-0.019 -0.067,-0.029 -0.111,-0.029c-0.043,0 -0.081,0.01 -0.112,0.029c-0.031,0.019 -0.054,0.045 -0.07,0.08c-0.016,0.035 -0.024,0.076 -0.024,0.123c0,0.047 0.008,0.089 0.024,0.124c0.016,0.035 0.039,0.062 0.07,0.081c0.031,0.019 0.069,0.028 0.112,0.028Z" style="fill-rule:nonzero;"/></g></g><g transform="matrix(0.683569,-0.729886,0.729886,0.683569,3460.15,16228.3)"><g transform="matrix(58.3333,0,0,58.3333,20446.3,4123.5)"><path d="M0.097,-0l0,-0.729l0.257,0c0.059,0 0.11,0.009 0.153,0.027c0.044,0.017 0.078,0.044 0.103,0.079c0.025,0.035 0.037,0.079 0.037,0.132c0,0.056 -0.012,0.102 -0.037,0.139c-0.024,0.036 -0.058,0.063 -0.102,0.081c-0.044,0.018 -0.095,0.027 -0.154,0.027l-0.088,-0l0,0.244l-0.169,-0Zm0.169,-0.371l0.088,0c0.029,0 0.053,-0.005 0.071,-0.014c0.019,-0.009 0.032,-0.023 0.04,-0.041c0.009,-0.018 0.013,-0.04 0.013,-0.065c0,-0.035 -0.011,-0.063 -0.032,-0.082c-0.021,-0.019 -0.051,-0.029 -0.092,-0.029l-0.088,0l0,0.231Zm-0.246,0.371l-0,-0.071c-0,-0.011 0.003,-0.02 0.01,-0.025c0.007,-0.006 0.017,-0.01 0.029,-0.013l0.044,-0.009l0.014,0.118l-0.097,-0Zm0.097,-0.729l-0.014,0.118l-0.044,-0.009c-0.012,-0.003 -0.022,-0.007 -0.029,-0.012c-0.007,-0.006 -0.01,-0.015 -0.01,-0.026l-0,-0.071l0.097,0Zm0.129,0.729l0.014,-0.118l0.044,0.009c0.012,0.003 0.021,0.007 0.028,0.013c0.007,0.005 0.011,0.014 0.011,0.025l0,0.071l-0.097,0Z" style="fill-rule:nonzero;"/></g></g><g transform="matrix(0.816595,-0.577211,0.577211,0.816595,1391.31,12568)"><g transform="matrix(58.3333,0,0,58.3333,20472.7,4094.66)"><path d="M0.097,-0l0,-0.729l0.17,0l0,0.305l0.296,0l0,-0.305l0.17,0l0,0.729l-0.17,-0l0,-0.308l-0.296,0l0,0.308l-0.17,-0Zm-0.077,-0l0,-0.071c0,-0.011 0.003,-0.02 0.01,-0.025c0.007,-0.006 0.017,-0.01 0.029,-0.013l0.044,-0.009l0.014,0.118l-0.097,-0Zm0.227,-0l0.014,-0.118l0.044,0.009c0.012,0.003 0.021,0.007 0.028,0.013c0.007,0.005 0.011,0.014 0.011,0.025l0,0.071l-0.097,-0Zm-0.13,-0.729l-0.014,0.118l-0.044,-0.009c-0.012,-0.003 -0.022,-0.007 -0.029,-0.012c-0.007,-0.006 -0.01,-0.015 -0.01,-0.026l0,-0.071l0.097,0Zm0.227,0l0,0.071c0,0.011 -0.004,0.02 -0.011,0.026c-0.007,0.005 -0.016,0.009 -0.028,0.012l-0.044,0.009l-0.014,-0.118l0.097,0Zm0.142,0.729l0,-0.071c0,-0.011 0.003,-0.02 0.01,-0.025c0.007,-0.006 0.017,-0.01 0.029,-0.013l0.044,-0.009l0.014,0.118l-0.097,0Zm0.227,0l0.014,-0.118l0.044,0.009c0.012,0.003 0.021,0.007 0.028,0.013c0.007,0.005 0.011,0.014 0.011,0.025l-0,0.071l-0.097,0Zm-0.13,-0.729l-0.014,0.118l-0.044,-0.009c-0.012,-0.003 -0.022,-0.007 -0.029,-0.012c-0.007,-0.006 -0.01,-0.015 -0.01,-0.026l-0,-0.071l0.097,0Zm0.227,0l0,0.071c0,0.011 -0.004,0.02 -0.011,0.026c-0.007,0.005 -0.016,0.009 -0.028,0.012l-0.044,0.009l-0.014,-0.118l0.097,0Z" style="fill-rule:nonzero;"/></g></g><g transform="matrix(0.912347,-0.409417,0.409417,0.912347,132.794,8754.73)"><g transform="matrix(58.3333,0,0,58.3333,20512.7,4067.23)"><path d="M0.097,-0l0,-0.729l0.469,0l0,0.13l-0.299,0l-0,0.17l0.224,-0l-0,0.125l-0.224,-0l-0,0.174l0.299,-0l0,0.13l-0.469,-0Zm0.36,-0.108l0.015,-0.069c0.003,-0.012 0.007,-0.021 0.012,-0.028c0.006,-0.007 0.015,-0.011 0.026,-0.011l0.056,-0l0,0.086l-0.109,0.022Zm-0,-0.513l0.109,0.022l0,0.086l-0.056,0c-0.011,0 -0.02,-0.003 -0.026,-0.01c-0.005,-0.007 -0.009,-0.017 -0.012,-0.029l-0.015,-0.069Zm-0.339,-0.108l-0.014,0.118l-0.044,-0.009c-0.012,-0.003 -0.022,-0.007 -0.029,-0.012c-0.007,-0.006 -0.01,-0.015 -0.01,-0.026l0,-0.071l0.097,0Zm-0.098,0.729l0,-0.071c0,-0.011 0.003,-0.02 0.01,-0.025c0.007,-0.006 0.017,-0.01 0.029,-0.013l0.044,-0.009l0.014,0.118l-0.097,0Z" style="fill-rule:nonzero;"/></g></g><g transform="matrix(0.971435,-0.237304,0.237304,0.971435,-374.86,4991.07)"><g transform="matrix(58.3333,0,0,58.3333,20544.6,4052.64)"><path d="M0.097,-0l0,-0.729l0.237,0c0.058,0 0.109,0.008 0.153,0.023c0.044,0.015 0.078,0.038 0.103,0.07c0.025,0.031 0.037,0.072 0.037,0.123c0,0.032 -0.006,0.062 -0.017,0.089c-0.011,0.027 -0.028,0.05 -0.05,0.07c-0.021,0.02 -0.048,0.036 -0.079,0.049c0.024,0.011 0.043,0.028 0.057,0.051l0.155,0.254l-0.153,-0c-0.029,-0 -0.049,-0.011 -0.061,-0.032l-0.121,-0.212c-0.005,-0.009 -0.012,-0.016 -0.019,-0.02c-0.007,-0.004 -0.017,-0.006 -0.03,-0.006l-0.043,-0l0,0.27l-0.169,-0Zm0.169,-0.386l0.068,-0c0.043,0 0.075,-0.01 0.096,-0.031c0.021,-0.021 0.032,-0.049 0.032,-0.083c0,-0.032 -0.01,-0.057 -0.031,-0.075c-0.021,-0.018 -0.053,-0.027 -0.097,-0.027l-0.068,0l0,0.216Zm0.33,0.386l-0.056,-0.131l0.075,0.014l-0.019,0.117Zm-0.576,-0l0,-0.071c0,-0.011 0.003,-0.02 0.01,-0.025c0.007,-0.006 0.017,-0.01 0.029,-0.013l0.044,-0.009l0.014,0.118l-0.097,-0Zm0.097,-0.729l-0.014,0.118l-0.044,-0.009c-0.012,-0.003 -0.022,-0.007 -0.029,-0.012c-0.007,-0.006 -0.01,-0.015 -0.01,-0.026l0,-0.071l0.097,0Zm0.129,0.729l0.014,-0.118l0.044,0.009c0.012,0.003 0.021,0.007 0.028,0.013c0.007,0.005 0.011,0.014 0.011,0.025l0,0.071l-0.097,0Zm0.35,0l0.014,-0.118l0.044,0.009c0.012,0.003 0.021,0.007 0.028,0.013c0.007,0.005 0.011,0.014 0.011,0.025l0,0.071l-0.097,0Z" style="fill-rule:nonzero;"/></g></g><g transform="matrix(0.999999,-0.00158568,0.00158568,0.999999,-6.38284,32.6671)"><g transform="matrix(58.3333,0,0,58.3333,20598.1,4041.64)"><path d="M0.097,-0l0,-0.729l0.469,0l0,0.13l-0.299,0l-0,0.185l0.249,-0l0,0.13l-0.249,-0l0,0.284l-0.17,-0Zm0.36,-0.621l0.109,0.022l0,0.086l-0.056,0c-0.011,0 -0.02,-0.003 -0.026,-0.01c-0.005,-0.007 -0.009,-0.017 -0.012,-0.029l-0.015,-0.069Zm-0.34,-0.108l-0.014,0.118l-0.044,-0.009c-0.012,-0.003 -0.022,-0.007 -0.029,-0.012c-0.007,-0.006 -0.01,-0.015 -0.01,-0.026l0,-0.071l0.097,0Zm-0.097,0.729l0,-0.071c0,-0.011 0.003,-0.02 0.01,-0.025c0.007,-0.006 0.017,-0.01 0.029,-0.013l0.044,-0.009l0.014,0.118l-0.097,0Zm0.227,0l0.014,-0.118l0.044,0.009c0.012,0.003 0.021,0.007 0.028,0.013c0.007,0.005 0.011,0.014 0.011,0.025l0,0.071l-0.097,0Z" style="fill-rule:nonzero;"/></g></g><g transform="matrix(0.985067,0.172169,-0.172169,0.985067,1003.74,-3491.38)"><g transform="matrix(58.3333,0,0,58.3333,20629.2,4040.72)"><path d="M0.038,-0l0.282,-0.729l0.173,0l0.282,0.729l-0.131,-0c-0.015,-0 -0.027,-0.003 -0.037,-0.01c-0.009,-0.007 -0.016,-0.016 -0.019,-0.027l-0.149,-0.441c-0.005,-0.015 -0.01,-0.03 -0.016,-0.046c-0.005,-0.016 -0.011,-0.034 -0.016,-0.055c-0.005,0.021 -0.011,0.039 -0.017,0.054c-0.005,0.015 -0.011,0.031 -0.016,0.048l-0.149,0.44c-0.003,0.009 -0.01,0.018 -0.02,0.026c-0.009,0.007 -0.021,0.011 -0.035,0.011l-0.132,0Zm0.1,0l0,-0.071l0.122,0l0,0.071l-0.122,0Zm0.09,-0.19l0.01,-0.115l0.326,0l0.01,0.115l-0.346,0Zm0.305,0.19l0,-0.071l0.132,0l0,0.071l-0.132,0Zm-0.525,0l0,-0.071c0,-0.011 0.003,-0.02 0.01,-0.025c0.007,-0.006 0.017,-0.01 0.029,-0.013l0.044,-0.009l0.014,0.118l-0.097,0Zm0.214,0l0.014,-0.118l0.044,0.009c0.012,0.003 0.021,0.007 0.028,0.013c0.007,0.005 0.011,0.014 0.011,0.025l0,0.071l-0.097,0Zm0.272,0l0,-0.071c0,-0.011 0.003,-0.02 0.01,-0.025c0.007,-0.006 0.017,-0.01 0.029,-0.013l0.044,-0.009l0.014,0.118l-0.097,0Zm0.214,0l0.014,-0.118l0.044,0.009c0.012,0.003 0.021,0.007 0.028,0.013c0.007,0.005 0.011,0.014 0.011,0.025l-0,0.071l-0.097,-0Z" style="fill-rule:nonzero;"/></g></g><g transform="matrix(0.921352,0.38873,-0.38873,0.921352,3200.08,-7719.01)"><g transform="matrix(58.3333,0,0,58.3333,20676.2,4048.9)"><path d="M0.097,-0l0,-0.729l0.089,0c0.014,0 0.025,0.002 0.032,0.005c0.007,0.003 0.015,0.01 0.024,0.021l0.346,0.438c-0.001,-0.014 -0.002,-0.028 -0.003,-0.041c-0.001,-0.013 -0.001,-0.026 -0.001,-0.037l-0,-0.386l0.149,-0l-0,0.729l-0.088,-0c-0.013,-0 -0.024,-0.002 -0.033,-0.006c-0.009,-0.004 -0.017,-0.011 -0.026,-0.022l-0.343,-0.434c0.001,0.014 0.002,0.025 0.002,0.033c0.001,0.008 0.001,0.021 0.001,0.038l-0,0.391l-0.149,-0Zm-0.077,-0l-0,-0.071c-0,-0.011 0.003,-0.02 0.01,-0.025c0.007,-0.006 0.017,-0.01 0.029,-0.013l0.044,-0.009l0.014,0.118l-0.097,-0Zm0.207,-0l0.014,-0.118l0.044,0.009c0.012,0.003 0.021,0.007 0.028,0.013c0.007,0.005 0.011,0.014 0.011,0.025l-0,0.071l-0.097,-0Zm-0.11,-0.729l-0.014,0.118l-0.044,-0.009c-0.012,-0.003 -0.022,-0.007 -0.029,-0.012c-0.007,-0.006 -0.01,-0.015 -0.01,-0.026l-0,-0.071l0.097,-0Zm0.486,-0l-0.014,0.118l-0.044,-0.009c-0.012,-0.003 -0.022,-0.007 -0.029,-0.012c-0.007,-0.006 -0.01,-0.015 -0.01,-0.026l0,-0.071l0.097,-0Zm0.208,-0l0,0.071c0,0.011 -0.004,0.02 -0.011,0.026c-0.007,0.005 -0.016,0.009 -0.028,0.012l-0.044,0.009l-0.014,-0.118l0.097,-0Z" style="fill-rule:nonzero;"/></g></g><g transform="matrix(0.785041,0.619443,-0.619443,0.785041,6981.36,-11966.7)"><g transform="matrix(58.3333,0,0,58.3333,20732.9,4075.68)"><path d="M0.374,0.008c-0.057,0 -0.107,-0.009 -0.151,-0.028c-0.043,-0.019 -0.08,-0.043 -0.109,-0.074c-0.031,-0.033 -0.055,-0.072 -0.073,-0.118c-0.017,-0.046 -0.026,-0.096 -0.026,-0.15c-0,-0.055 0.009,-0.106 0.028,-0.152c0.019,-0.046 0.045,-0.085 0.078,-0.118c0.034,-0.033 0.075,-0.059 0.123,-0.078c0.048,-0.019 0.099,-0.028 0.154,-0.028c0.033,0 0.063,0.003 0.092,0.009c0.029,0.006 0.055,0.014 0.078,0.023c0.024,0.009 0.045,0.018 0.062,0.027l0,0.101l-0.066,0.017c-0.019,-0.013 -0.044,-0.022 -0.075,-0.027c-0.031,-0.006 -0.058,-0.009 -0.083,-0.009c-0.047,0 -0.086,0.01 -0.119,0.029c-0.033,0.019 -0.057,0.046 -0.074,0.081c-0.017,0.035 -0.025,0.075 -0.025,0.122c0,0.046 0.008,0.087 0.024,0.122c0.016,0.035 0.039,0.062 0.069,0.082c0.031,0.02 0.067,0.03 0.109,0.03c0.024,-0 0.047,-0.004 0.068,-0.011c0.022,-0.007 0.042,-0.019 0.061,-0.035c0.003,-0.003 0.007,-0.006 0.012,-0.008c0.005,-0.003 0.011,-0.004 0.016,-0.004c0.009,-0 0.016,0.003 0.023,0.01l0.067,0.071c-0.029,0.039 -0.066,0.068 -0.111,0.087c-0.045,0.019 -0.095,0.029 -0.152,0.029Zm0.147,-0.608l0.109,0.022l0,0.086l-0.056,-0c-0.011,-0 -0.02,-0.003 -0.026,-0.01c-0.005,-0.007 -0.009,-0.017 -0.012,-0.029l-0.015,-0.069Z" style="fill-rule:nonzero;"/></g></g><g transform="matrix(0.66931,0.742984,-0.742984,0.66931,9912.52,-14070.9)"><g transform="matrix(58.3333,0,0,58.3333,20763.3,4100.08)"><path d="M0.097,-0l0,-0.729l0.17,0l0,0.594l0.28,0l0,0.135l-0.45,-0Zm0.341,-0.113l0.015,-0.069c0.003,-0.012 0.007,-0.021 0.012,-0.028c0.006,-0.007 0.015,-0.011 0.026,-0.011l0.056,0l-0,0.086l-0.109,0.022Zm-0.418,0.113l-0,-0.071c-0,-0.011 0.003,-0.02 0.01,-0.025c0.007,-0.006 0.017,-0.01 0.029,-0.013l0.044,-0.009l0.014,0.118l-0.097,0Zm0.097,-0.729l-0.014,0.118l-0.044,-0.009c-0.012,-0.003 -0.022,-0.007 -0.029,-0.012c-0.007,-0.006 -0.01,-0.015 -0.01,-0.026l-0,-0.071l0.097,0Zm0.227,0l-0,0.071c-0,0.011 -0.004,0.02 -0.011,0.026c-0.007,0.005 -0.016,0.009 -0.028,0.012l-0.044,0.009l-0.014,-0.118l0.097,0Z" style="fill-rule:nonzero;"/></g></g><g transform="matrix(0.520728,0.853723,-0.853723,0.520728,13482.7,-15768.8)"><g transform="matrix(58.3333,0,0,58.3333,20785.7,4123.89)"><path d="M0.409,0.008c-0.063,0 -0.119,-0.013 -0.166,-0.038c-0.047,-0.025 -0.083,-0.061 -0.109,-0.107c-0.025,-0.046 -0.038,-0.099 -0.038,-0.16l0,-0.432l0.169,0l0,0.431c0,0.034 0.006,0.063 0.017,0.088c0.011,0.024 0.028,0.043 0.049,0.056c0.022,0.013 0.048,0.02 0.078,0.02c0.031,0 0.058,-0.006 0.079,-0.019c0.021,-0.013 0.037,-0.032 0.048,-0.056c0.011,-0.025 0.017,-0.054 0.017,-0.088l0,-0.432l0.169,0l-0,0.432c-0,0.062 -0.013,0.116 -0.039,0.162c-0.026,0.045 -0.063,0.081 -0.11,0.106c-0.047,0.025 -0.101,0.037 -0.164,0.037Zm-0.293,-0.737l-0.014,0.118l-0.044,-0.009c-0.012,-0.003 -0.022,-0.007 -0.029,-0.012c-0.007,-0.006 -0.01,-0.015 -0.01,-0.026l-0,-0.071l0.097,0Zm0.226,0l-0,0.071c-0,0.011 -0.004,0.02 -0.011,0.026c-0.007,0.005 -0.016,0.009 -0.028,0.012l-0.044,0.009l-0.014,-0.118l0.097,0Zm0.231,0l-0.014,0.118l-0.044,-0.009c-0.012,-0.003 -0.022,-0.007 -0.029,-0.012c-0.007,-0.006 -0.01,-0.015 -0.01,-0.026l0,-0.071l0.097,0Zm0.226,0l0,0.071c0,0.011 -0.004,0.02 -0.011,0.026c-0.007,0.005 -0.016,0.009 -0.028,0.012l-0.044,0.009l-0.014,-0.118l0.097,0Z" style="fill-rule:nonzero;"/></g></g><g transform="matrix(0.335736,0.941956,-0.941956,0.335736,17746.7,-16835.7)"><g transform="matrix(58.3333,0,0,58.3333,20810.3,4164.92)"><path d="M0.097,-0l0,-0.729l0.268,0c0.056,0 0.105,0.006 0.147,0.019c0.042,0.013 0.074,0.033 0.097,0.062c0.023,0.029 0.035,0.067 0.035,0.116c0,0.023 -0.005,0.045 -0.014,0.065c-0.009,0.019 -0.022,0.037 -0.041,0.052c-0.018,0.015 -0.041,0.028 -0.069,0.038c0.048,0.011 0.083,0.03 0.106,0.057c0.023,0.026 0.035,0.059 0.035,0.1c0,0.044 -0.011,0.083 -0.034,0.116c-0.022,0.033 -0.054,0.058 -0.095,0.077c-0.041,0.018 -0.089,0.027 -0.144,0.027l-0.291,-0Zm0.169,-0.128l0.119,-0c0.041,-0 0.069,-0.009 0.085,-0.027c0.016,-0.019 0.024,-0.041 0.024,-0.068c-0,-0.029 -0.009,-0.051 -0.026,-0.065c-0.017,-0.014 -0.045,-0.021 -0.084,-0.021l-0.118,-0l0,0.181Zm0,-0.294l0.088,-0c0.026,-0 0.048,-0.002 0.066,-0.007c0.018,-0.005 0.032,-0.015 0.041,-0.028c0.009,-0.013 0.014,-0.032 0.014,-0.055c0,-0.035 -0.009,-0.058 -0.027,-0.071c-0.018,-0.013 -0.046,-0.019 -0.083,-0.019l-0.099,0l0,0.18Zm-0.246,0.422l0,-0.071c0,-0.011 0.003,-0.02 0.01,-0.025c0.007,-0.006 0.017,-0.01 0.029,-0.013l0.044,-0.009l0.014,0.118l-0.097,-0Zm0.097,-0.729l-0.014,0.118l-0.044,-0.009c-0.012,-0.003 -0.022,-0.007 -0.029,-0.012c-0.007,-0.006 -0.01,-0.015 -0.01,-0.026l0,-0.071l0.097,0Z" style="fill-rule:nonzero;"/></g></g></g><path d="M72.722,313.003c4.292,-7.604 12.876,-7.604 17.168,-3.802c4.292,3.802 4.292,11.406 -0,19.01c-3.005,5.703 -10.73,11.406 -17.168,15.207c-6.437,-3.801 -14.163,-9.504 -17.167,-15.207c-4.292,-7.604 -4.292,-15.208 0,-19.01c4.292,-3.802 12.876,-3.802 17.167,3.802Z"/><path d="M536.446,313.003c4.291,-7.604 12.875,-7.604 17.167,-3.802c4.292,3.802 4.292,11.406 -0,19.01c-3.004,5.703 -10.73,11.406 -17.167,15.207c-6.438,-3.801 -14.163,-9.504 -17.168,-15.207c-4.292,-7.604 -4.292,-15.208 0,-19.01c4.292,-3.802 12.876,-3.802 17.168,3.802Z"/><g><g><path d="M271.136,147.364c0,0 15.554,-16.202 21.387,23.332" style="fill:none;stroke:#61e0ee;stroke-width:6.69px;"/><path d="M324.928,143.476c0,-0 -14.906,-15.554 -20.091,25.276" style="fill:none;stroke:#61e0ee;stroke-width:6.69px;"/><path d="M284.309,130.361c0,-0 17.502,-11.156 14.273,33.953" style="fill:none;stroke:#61e0ee;stroke-width:6.69px;"/><path d="M207.09,522.919c-0,-0 1.813,-33.168 19.252,-43.032c17.439,-9.864 29.223,2.851 19.726,14.843c-9.498,11.991 -17.386,24.086 -15.256,36.179c2.129,12.094 -25.069,12.928 -23.722,-7.99Z" style="fill:#d6c295;stroke:#000;stroke-width:6.69px;"/><path d="M397.692,521.986c-0,0 -7.505,-32.358 -26.384,-39.068c-18.878,-6.709 -28.293,7.848 -16.871,18.022c11.423,10.174 21.278,20.728 21.266,33.007c-0.012,12.28 26.922,8.412 21.989,-11.961Z" style="fill:#d6c295;stroke:#000;stroke-width:6.69px;"/><path d="M392.85,204.848c0.21,-3.71 7.061,-10.094 10.022,-11.693c36.029,-19.457 27.518,25.212 5.384,25.889" style="fill:#61e0ee;"/><path d="M397.303,205.101c-0.14,2.458 -2.249,4.34 -4.706,4.201c-2.458,-0.14 -4.34,-2.249 -4.201,-4.707c0.1,-1.755 0.96,-3.966 2.496,-6.163c2.682,-3.835 7.415,-7.881 9.86,-9.202c13.202,-7.129 21.644,-6.132 26.073,-2.728c4.666,3.586 6.135,10.465 4.113,17.63c-2.673,9.473 -11.247,19.025 -22.545,19.37c-2.461,0.075 -4.52,-1.862 -4.595,-4.322c-0.075,-2.461 1.861,-4.52 4.322,-4.595c7.296,-0.223 12.506,-6.759 14.232,-12.876c0.538,-1.904 0.739,-3.784 0.45,-5.431c-0.192,-1.09 -0.591,-2.071 -1.413,-2.703c-1.067,-0.82 -2.64,-1.014 -4.703,-0.78c-3.085,0.35 -6.937,1.715 -11.695,4.285c-1.463,0.79 -4.037,3.046 -5.933,5.347c-0.576,0.698 -1.087,1.399 -1.454,2.07c-0.126,0.231 -0.29,0.414 -0.301,0.604Z"/><path d="M206.991,198.833c-3.674,-0.562 -5.876,-4.307 -7.186,-7.407c-15.948,-37.714 27.53,-24.909 26.101,-2.81" style="fill:#61e0ee;"/><path d="M207.666,194.424c2.433,0.372 4.107,2.65 3.734,5.084c-0.372,2.433 -2.65,4.107 -5.084,3.734c-5.212,-0.797 -8.76,-5.681 -10.62,-10.079c-5.842,-13.817 -4.065,-22.116 -0.285,-26.187c3.995,-4.302 10.965,-5.102 17.89,-2.384c9.128,3.582 17.785,13.035 17.056,24.311c-0.159,2.457 -2.282,4.323 -4.739,4.164c-2.456,-0.159 -4.322,-2.283 -4.163,-4.739c0.471,-7.288 -5.513,-13.117 -11.413,-15.432c-1.83,-0.718 -3.668,-1.102 -5.32,-0.975c-1.084,0.083 -2.081,0.378 -2.773,1.125c-0.91,0.979 -1.243,2.521 -1.202,4.591c0.062,3.104 1.059,7.068 3.166,12.052c0.493,1.167 1.128,2.47 2.011,3.52c0.474,0.563 1,1.101 1.742,1.215Z"/><path d="M203.789,482.957c0,-0 -16.807,-33.043 -13.631,-61.385c9.942,-88.728 -16.176,-106.136 -5.964,-160.259c3.545,-18.793 10.247,-40.197 21.661,-55.755c25.085,-34.193 73.299,-51.954 115.236,-43.924c16.792,3.215 31.954,10.485 46.961,18.457c52.208,27.734 63.055,86.269 56.271,135.604c-3.003,21.84 -21.781,55.878 -19.034,77.779c5.726,45.654 4.124,70.365 -10.129,99.814c-12.149,25.099 -59.428,44.008 -111.116,38.633c-8.807,-0.915 -61.505,-10.151 -80.255,-48.964Z" style="fill:#61e0ee;"/><clipPath id="_clip1"><path d="M203.789,482.957c0,-0 -16.807,-33.043 -13.631,-61.385c9.942,-88.728 -16.176,-106.136 -5.964,-160.259c3.545,-18.793 10.247,-40.197 21.661,-55.755c25.085,-34.193 73.299,-51.954 115.236,-43.924c16.792,3.215 31.954,10.485 46.961,18.457c52.208,27.734 63.055,86.269 56.271,135.604c-3.003,21.84 -21.781,55.878 -19.034,77.779c5.726,45.654 4.124,70.365 -10.129,99.814c-12.149,25.099 -59.428,44.008 -111.116,38.633c-8.807,-0.915 -61.505,-10.151 -80.255,-48.964Z"/></clipPath><g clip-path="url(#_clip1)"><path d="M390.394,201.578c-0,0 17.782,22.86 12.972,58.372c-7.226,53.344 -29.647,41.901 -28.121,137.902c0.761,47.856 3.617,76.721 -17.458,105.53c-20.468,27.98 -78.999,27.941 -93.795,23.713c-14.796,-4.227 58.339,15.219 100.192,-1.691c41.852,-16.91 47.77,-87.932 42.274,-132.32c-5.495,-44.389 30.016,-57.071 18.179,-133.589c-19.024,-44.811 -19.447,-42.275 -34.243,-57.917Z" style="fill:#4fcbe0;"/><path d="M320.576,267.191c-0,0 5.194,25.974 36.146,24.459c30.952,-1.515 33.117,-33.117 33.117,-33.117l-69.263,8.658Z" style="fill:#4fcbe0;"/><path d="M188.191,253.988c-0,0 5.195,25.974 36.146,24.459c30.952,-1.516 33.117,-33.117 33.117,-33.117l-69.263,8.658Z" style="fill:#4fcbe0;"/></g><path d="M199.792,484.937l-0.008,-0.017c-0.789,-1.581 -17.285,-35.054 -14.059,-63.845c5.895,-52.606 -1.065,-79.84 -5.375,-104.763c-2.993,-17.307 -4.743,-33.543 -0.539,-55.826c3.662,-19.412 10.657,-41.495 22.448,-57.567c26.054,-35.514 76.114,-54.006 119.671,-45.666c17.234,3.3 32.813,10.717 48.214,18.899c54.019,28.696 65.618,89.105 58.598,140.151c-1.533,11.146 -7.043,25.42 -11.867,39.688c-4.49,13.276 -8.465,26.527 -7.16,36.928c5.87,46.804 4.072,72.121 -10.541,102.312c-5.219,10.783 -16.351,20.643 -31.532,28.055c-21.833,10.658 -52.125,16.392 -84.059,13.072c-5.477,-0.57 -27.338,-4.224 -48.144,-15.761c-14.125,-7.834 -27.721,-19.28 -35.647,-35.66Zm8.014,-3.921c7.076,14.649 19.334,24.777 31.96,31.779c19.34,10.725 39.648,14.16 44.739,14.69c30.092,3.129 58.651,-2.172 79.223,-12.216c13.089,-6.39 22.917,-14.628 27.417,-23.925c13.894,-28.707 15.3,-52.811 9.718,-97.315c-1.165,-9.289 1.202,-20.656 4.81,-32.413c5.029,-16.389 12.455,-33.614 14.231,-46.529c6.549,-47.624 -3.547,-104.284 -53.945,-131.057c-14.611,-7.762 -29.357,-14.885 -45.707,-18.015c-40.316,-7.72 -86.685,9.309 -110.801,42.181c-11.037,15.045 -17.445,35.771 -20.874,53.944c-4.983,26.41 -1.026,43.859 2.887,65.533c4.066,22.516 8.167,49.417 3.127,94.395c-3.047,27.19 13.174,58.866 13.174,58.866c0.014,0.028 0.027,0.055 0.041,0.082Z"/><path d="M328.695,510.888c-88.281,20.547 -103.724,-30.957 -106.758,-42.151c-5.716,-21.086 -8.485,-61.959 -3.349,-83.694c1.783,-7.547 5.154,-16.143 10.895,-22.391c12.617,-13.732 69.043,-14.926 90.137,-11.701c8.446,1.291 16.072,4.211 23.62,7.412c26.26,11.138 35.515,140.875 -14.545,152.525Z" style="fill:#b7f8ff;"/><circle cx="209.557" cy="284.843" r="3.684" style="fill:#b7f8ff;"/><circle cx="370" cy="294.828" r="3.684" style="fill:#b7f8ff;"/><g><g><path d="M280.374,267.971c10.205,0.627 18.166,6.404 17.767,12.892c-0.399,6.488 -9.008,11.245 -19.213,10.617c-10.205,-0.627 -18.166,-6.404 -17.767,-12.892c0.399,-6.488 9.008,-11.245 19.213,-10.617Z"/><path d="M275.225,287.888c0.031,-1.846 1.555,-3.32 3.402,-3.288c1.846,0.031 3.319,1.555 3.288,3.401c-0.097,5.673 -1.052,11.117 -1.476,16.738c-0.138,1.841 -1.746,3.223 -3.587,3.084c-1.841,-0.139 -3.223,-1.746 -3.084,-3.587c0.414,-5.491 1.363,-10.808 1.457,-16.348Z"/><path d="M241.973,181.556c3.886,-1.178 7.537,-0.498 8.148,1.517c0.611,2.015 -2.049,4.608 -5.935,5.785c-3.887,1.178 -7.538,0.498 -8.149,-1.517c-0.61,-2.015 2.049,-4.607 5.936,-5.785Z" style="fill:#b7f8ff;"/><path d="M383.759,198.77c2.611,3.11 3.422,6.734 1.81,8.088c-1.613,1.354 -5.042,-0.071 -7.654,-3.181c-2.611,-3.11 -3.423,-6.734 -1.81,-8.088c1.612,-1.354 5.042,0.071 7.654,3.181Z" style="fill:#b7f8ff;"/><path d="M215.673,195.049c20.706,-2.949 39.91,11.468 42.859,32.173c2.949,20.706 -11.468,39.911 -32.174,42.859c-20.706,2.949 -39.91,-11.467 -42.859,-32.173c-2.949,-20.706 11.468,-39.91 32.174,-42.859Z" style="fill:#fff;stroke:#000;stroke-width:6.69px;"/><path d="M349.234,206.146c20.705,-2.949 39.91,11.468 42.859,32.174c2.948,20.705 -11.468,39.91 -32.174,42.859c-20.706,2.948 -39.91,-11.468 -42.859,-32.174c-2.949,-20.706 11.468,-39.91 32.174,-42.859Z" style="fill:#fff;stroke:#000;stroke-width:6.69px;"/></g></g><path d="M238.805,390.832c0,0 -21.993,-24.893 -41.79,-21.815c-19.798,3.078 -21.156,20.361 -6.269,23.877c14.888,3.516 28.577,8.111 34.407,18.919c5.83,10.807 27.682,-5.407 13.652,-20.981Z" style="fill:#d6c295;stroke:#000;stroke-width:6.69px;"/><path d="M355.169,388.147c-0,-0 21.791,-25.071 41.613,-22.153c19.821,2.918 21.319,20.189 6.461,23.826c-14.859,3.636 -28.51,8.342 -34.253,19.196c-5.742,10.854 -27.725,-5.183 -13.821,-20.869Z" style="fill:#d6c295;stroke:#000;stroke-width:6.69px;"/><path d="M243.66,288.675c-0,0 10.345,16.768 30.16,19.025c19.815,2.257 42.446,-11.52 42.446,-11.52" style="fill:none;stroke:#000;stroke-width:5.36px;"/></g><ellipse cx="225.076" cy="236.74" rx="22.142" ry="23.146"/><ellipse cx="354.04" cy="250.289" rx="22.142" ry="23.146"/><circle cx="224.512" cy="240.55" r="7.903" style="fill:#fff;"/><circle cx="351.907" cy="253.707" r="7.903" style="fill:#fff;"/></g></g></svg>