<?xml version="1.0" encoding="UTF-8" standalone="no"?><!DOCTYPE svg PUBLIC "-//W3C//DTD SVG 1.1//EN" "http://www.w3.org/Graphics/SVG/1.1/DTD/svg11.dtd"><svg width="100%" height="100%" viewBox="0 0 144 144" version="1.1" xmlns="http://www.w3.org/2000/svg" xmlns:xlink="http://www.w3.org/1999/xlink" xml:space="preserve" xmlns:serif="http://www.serif.com/" style="fill-rule:evenodd;clip-rule:evenodd;stroke-linecap:round;stroke-linejoin:round;stroke-miterlimit:1.5;"><rect id="_4" serif:id="4" x="0" y="0" width="144" height="144" style="fill:none;"/><g><path d="M15.97,82.032l0,2.433c0,0.224 0.064,0.384 0.225,0.544c0.16,0.16 0.384,0.256 0.672,0.256l2.885,0l0,4.202c-0.641,0.32 -1.346,0.577 -2.051,0.737c-0.738,0.161 -1.571,0.257 -2.533,0.257c-1.09,0 -2.116,-0.192 -3.046,-0.577c-0.93,-0.385 -1.731,-0.931 -2.405,-1.636c-0.673,-0.706 -1.186,-1.572 -1.571,-2.63c-0.385,-1.025 -0.577,-2.242 -0.577,-3.586c0,-1.251 0.192,-2.373 0.545,-3.367c0.353,-0.994 0.866,-1.86 1.507,-2.566c0.641,-0.705 1.443,-1.25 2.373,-1.635c0.929,-0.385 1.923,-0.577 3.078,-0.577c2.051,0 3.879,0.256 5.481,0.801c0.129,1.379 0.225,2.213 0.289,2.502c0.096,0.384 0.32,0.577 0.736,0.577l1.856,0l0,-5.897c-2.977,-1.089 -5.702,-1.665 -8.202,-1.665l-0.032,0l-0.193,0c-1.763,0.032 -3.366,0.32 -4.777,0.864c-1.475,0.577 -2.757,1.377 -3.782,2.434c-1.056,1.057 -1.857,2.308 -2.433,3.751c-0.577,1.443 -0.833,3.046 -0.833,4.778c0,1.728 0.288,3.329 0.865,4.772c0.576,1.444 1.409,2.695 2.433,3.753c1.025,1.057 2.275,1.857 3.686,2.433c1.411,0.576 2.95,0.896 4.649,0.896c0.962,0 1.827,-0.064 2.661,-0.16c0.833,-0.096 1.635,-0.256 2.34,-0.448c0.706,-0.192 1.378,-0.448 2.018,-0.768c0.64,-0.32 1.248,-0.704 1.825,-1.121l0,-9.357l-7.689,0Z" style="fill:#40c9e0;fill-rule:nonzero;"/><path d="M48.883,82.03c0,-1.699 -0.289,-3.27 -0.865,-4.713c-0.576,-1.443 -1.345,-2.693 -2.37,-3.75c-1.024,-1.057 -2.274,-1.857 -3.717,-2.466c-1.443,-0.608 -3.014,-0.896 -4.777,-0.896c-1.763,0 -3.366,0.32 -4.809,0.896c-1.443,0.577 -2.693,1.409 -3.718,2.466c-1.024,1.057 -1.825,2.307 -2.401,3.75c-0.576,1.443 -0.833,3.014 -0.833,4.713c0,1.699 0.257,3.302 0.833,4.744c0.576,1.443 1.377,2.693 2.401,3.751c1.025,1.056 2.275,1.889 3.718,2.465c1.443,0.576 3.046,0.896 4.809,0.896c1.763,0 3.334,-0.32 4.777,-0.896c1.443,-0.576 2.693,-1.409 3.717,-2.465c1.025,-1.058 1.794,-2.308 2.37,-3.751c0.576,-1.442 0.865,-3.045 0.865,-4.744Zm-4.419,0c0,1.282 -0.193,2.404 -0.513,3.43c-0.321,1.026 -0.802,1.859 -1.443,2.565c-0.641,0.705 -1.411,1.25 -2.308,1.635c-0.898,0.384 -1.924,0.545 -3.046,0.545c-1.122,0 -2.18,-0.161 -3.078,-0.545c-0.897,-0.385 -1.667,-0.93 -2.308,-1.635c-0.641,-0.706 -1.122,-1.539 -1.475,-2.565c-0.352,-1.026 -0.513,-2.148 -0.513,-3.43c0,-1.283 0.161,-2.373 0.513,-3.399c0.353,-1.025 0.834,-1.859 1.475,-2.564c0.641,-0.706 1.411,-1.251 2.308,-1.635c0.898,-0.385 1.956,-0.545 3.078,-0.545c1.122,0 2.148,0.16 3.046,0.545c0.897,0.384 1.667,0.929 2.308,1.635c0.641,0.705 1.122,1.539 1.443,2.564c0.32,1.026 0.513,2.116 0.513,3.399Z" style="fill:#40c9e0;fill-rule:nonzero;"/><path d="M65.071,88.089c-0.416,0 -0.64,0.224 -0.736,0.609c-0.032,0.128 -0.064,0.577 -0.128,1.378l-7.472,0l0,-16.446c0.385,-0.064 0.738,-0.128 0.962,-0.16c0.224,-0.032 0.385,-0.064 0.481,-0.096c0.096,-0.032 0.16,-0.032 0.192,-0.032c0.546,-0.128 0.802,-0.448 0.802,-0.992l0,-1.889l-2.437,0l-4.291,0l-2.436,0l0,1.889c0,0.544 0.257,0.864 0.802,0.992c0.032,0 0.096,0 0.192,0.032c0.096,0 0.256,0.064 0.481,0.096c0.224,0.032 0.577,0.096 0.961,0.16l0,16.831c-0.384,0.064 -0.737,0.128 -0.961,0.16c-0.225,0.032 -0.385,0.064 -0.481,0.096c-0.096,0.032 -0.16,0.032 -0.192,0.032c-0.545,0.128 -0.802,0.449 -0.802,0.993l0,1.888l16.791,0l0,-1.696l0,-0.608l0,-3.237l-1.728,0Z" style="fill:#40c9e0;fill-rule:nonzero;"/><path d="M92.281,91.162c-0.16,-0.064 -0.769,-0.32 -1.763,-0.737l-7.852,-19.968l-4.423,0l-7.82,19.968c-0.994,0.417 -1.603,0.673 -1.763,0.737c-0.417,0.192 -0.641,0.449 -0.641,0.833l0,1.635l7.82,0l0,-1.635c0,-0.384 -0.224,-0.641 -0.641,-0.833c-0.064,-0.032 -0.288,-0.096 -0.641,-0.256l0.096,-0.193l1.186,-3.301l9.231,0l1.154,3.141l0.128,0.353c-0.353,0.16 -0.577,0.224 -0.641,0.256c-0.417,0.192 -0.641,0.449 -0.641,0.833l0,1.635l7.82,0l0,-1.635c0,-0.384 -0.192,-0.673 -0.609,-0.833Zm-12.692,-13.972c0.128,-0.353 0.289,-0.737 0.417,-1.218c0.128,-0.481 0.288,-0.994 0.449,-1.539c0.16,0.545 0.288,1.09 0.448,1.539c0.16,0.448 0.289,0.833 0.417,1.186l2.66,7.213l-7.019,0l2.628,-7.181Z" style="fill:#40c9e0;fill-rule:nonzero;"/><path d="M116.125,70.461l-3.81,0l-2.886,0l0,1.889c0,0.544 0.257,0.864 0.802,0.992c0.064,0 0.737,0.096 2.084,0.288l0,10.898c0,0.32 0,0.673 0.032,1.025c0.032,0.353 0.064,0.705 0.096,1.09l-12.183,-15.478c-0.128,-0.16 -0.224,-0.288 -0.32,-0.384c-0.096,-0.096 -0.192,-0.16 -0.288,-0.192c-0.096,-0.064 -0.224,-0.096 -0.353,-0.096c-0.128,0 -0.288,-0.032 -0.48,-0.032l-2.241,0l-2.436,0l0,1.889c0,0.544 0.257,0.864 0.801,0.992c0.033,0 0.097,0.032 0.193,0.032c0.096,0 0.256,0.064 0.481,0.096c0.224,0.032 0.576,0.096 0.961,0.16l0,16.831c-0.385,0.064 -0.737,0.128 -0.961,0.16c-0.225,0.032 -0.385,0.064 -0.481,0.096c-0.096,0.032 -0.16,0.032 -0.193,0.032c-0.544,0.128 -0.801,0.449 -0.801,0.993l0,1.888l9.1,0l0,-1.888c0,-0.544 -0.257,-0.865 -0.802,-0.993c-0.064,0 -0.737,-0.096 -2.084,-0.288l0,-11.06c0,-0.289 -0.032,-0.609 -0.032,-0.93c0,-0.32 -0.032,-0.641 -0.064,-0.994l12.119,15.417c0.224,0.288 0.448,0.48 0.672,0.576c0.224,0.096 0.481,0.16 0.833,0.16l2.241,0l0,-20c0.385,-0.064 0.705,-0.128 0.929,-0.16c0.225,-0.032 0.385,-0.096 0.481,-0.096c0.096,0 0.16,-0.032 0.193,-0.032c0.544,-0.128 0.801,-0.448 0.801,-0.992l0,-1.889l-2.404,0Z" style="fill:#40c9e0;fill-rule:nonzero;"/><path d="M132.251,82.032l0,2.433c0,0.224 0.064,0.384 0.224,0.544c0.16,0.16 0.384,0.256 0.672,0.256l2.886,0l0,4.202c-0.642,0.32 -1.347,0.577 -2.052,0.737c-0.738,0.161 -1.571,0.257 -2.533,0.257c-1.09,0 -2.116,-0.192 -3.046,-0.577c-0.93,-0.385 -1.731,-0.931 -2.405,-1.636c-0.673,-0.706 -1.186,-1.572 -1.571,-2.63c-0.384,-1.025 -0.577,-2.242 -0.577,-3.586c0,-1.251 0.193,-2.373 0.545,-3.367c0.353,-0.994 0.866,-1.86 1.507,-2.566c0.641,-0.705 1.443,-1.25 2.373,-1.635c0.93,-0.385 1.923,-0.577 3.078,-0.577c2.052,0 3.879,0.256 5.481,0.801c0.129,1.379 0.225,2.213 0.289,2.502c0.096,0.384 0.32,0.577 0.736,0.577l1.856,0l0,-5.897c-2.976,-1.089 -5.702,-1.665 -8.202,-1.665l-0.032,0l-0.193,0c-1.763,0.032 -3.366,0.32 -4.777,0.864c-1.475,0.577 -2.757,1.377 -3.782,2.434c-1.056,1.057 -1.857,2.308 -2.433,3.751c-0.577,1.443 -0.833,3.046 -0.833,4.778c0,1.728 0.288,3.329 0.865,4.772c0.576,1.444 1.409,2.695 2.433,3.753c1.025,1.057 2.275,1.857 3.686,2.433c1.411,0.576 2.95,0.896 4.649,0.896c0.962,0 1.827,-0.064 2.661,-0.16c0.834,-0.096 1.635,-0.256 2.34,-0.448c0.706,-0.192 1.378,-0.448 2.018,-0.768c0.64,-0.32 1.248,-0.704 1.825,-1.121l0,-9.357l-7.688,0Z" style="fill:#40c9e0;fill-rule:nonzero;"/><g><path d="M25.502,80.727c0,0 2.773,-0.714 4.037,0.463c1.264,1.177 0.525,2.475 -0.707,2.007c-1.233,-0.469 -2.432,-0.803 -3.37,-0.313c-0.938,0.489 -1.714,-1.724 0.04,-2.157Z" style="fill:#d6c295;stroke:#000;stroke-width:0.66px;"/><path d="M34.819,62.258c0,0 1.34,-1.397 1.843,2.011" style="fill:none;stroke:#61e0ee;stroke-width:0.66px;"/><path d="M39.455,61.923c0,0 -1.285,-1.341 -1.731,2.178" style="fill:none;stroke:#61e0ee;stroke-width:0.66px;"/><path d="M35.954,60.792c0,0 1.509,-0.961 1.23,2.927" style="fill:none;stroke:#61e0ee;stroke-width:0.66px;"/><path d="M35.487,97.51c0,0 -1.248,-2.576 -0.346,-4.048c0.903,-1.472 2.323,-1.006 2.108,0.295c-0.216,1.301 -0.305,2.542 0.36,3.365c0.666,0.823 -1.35,2.022 -2.122,0.388Z" style="fill:#d6c295;stroke:#000;stroke-width:0.66px;"/><path d="M46.961,91.534c0,0 -2.502,-1.392 -2.608,-3.116c-0.106,-1.724 1.325,-2.157 1.895,-0.968c0.571,1.189 1.21,2.256 2.227,2.548c1.018,0.292 0.056,2.43 -1.514,1.536Z" style="fill:#d6c295;stroke:#000;stroke-width:0.66px;"/><path d="M46.541,70.865c0.053,-0.316 0.699,-0.799 0.968,-0.909c3.269,-1.331 2.123,2.417 0.22,2.269" style="fill:#61e0ee;"/><path d="M48.74,69.232l0.03,0l0.029,0.002l0.029,0.001l0.029,0.002l0.029,0.003l0.028,0.003l0.028,0.003l0.029,0.004l0.027,0.005l0.028,0.004l0.027,0.006l0.028,0.006l0.026,0.006l0.027,0.007l0.027,0.007l0.026,0.007l0.026,0.009l0.025,0.008l0.026,0.01l0.025,0.009l0.025,0.01l0.024,0.011l0.025,0.011l0.024,0.012l0.023,0.012l0.024,0.013l0.023,0.013l0.022,0.014l0.023,0.014l0.022,0.015l0.021,0.015l0.021,0.015l0.021,0.017l0.02,0.016l0.02,0.017l0.019,0.017l0.019,0.018l0.018,0.018l0.018,0.019l0.017,0.019l0.017,0.019l0.016,0.019l0.017,0.021l0.015,0.02l0.014,0.02l0.015,0.021l0.014,0.021l0.013,0.022l0.012,0.021l0.012,0.021l0.012,0.023l0.011,0.022l0.011,0.022l0.01,0.022l0.01,0.023l0.009,0.023l0.008,0.022l0.008,0.024l0.008,0.022l0.007,0.023l0.007,0.023l0.006,0.023l0.006,0.024l0.005,0.023l0.005,0.023l0.004,0.024l0.004,0.023l0.004,0.024l0.003,0.023l0.003,0.023l0.002,0.023l0.002,0.024l0.002,0.023l0.001,0.024l0.001,0.023l0,0.023l0,0.024l0,0.023l-0.001,0.024l0,0.023l-0.002,0.023l-0.001,0.024l-0.002,0.023l-0.002,0.023l-0.003,0.024l-0.003,0.023l-0.003,0.022l-0.003,0.024l-0.004,0.023l-0.004,0.023l-0.004,0.023l-0.005,0.023l-0.005,0.023l-0.005,0.023l-0.005,0.023l-0.006,0.023l-0.006,0.022l-0.006,0.023l-0.006,0.023l-0.007,0.023l-0.007,0.022l-0.007,0.023l-0.008,0.022l-0.007,0.023l-0.009,0.022l-0.008,0.023l-0.008,0.022l-0.009,0.022l-0.009,0.022l-0.009,0.023l-0.009,0.022l-0.01,0.022l-0.01,0.022l-0.01,0.022l-0.011,0.021l-0.01,0.022l-0.011,0.022l-0.011,0.022l-0.011,0.021l-0.012,0.022l-0.012,0.021l-0.012,0.021l-0.012,0.022l-0.012,0.021l-0.013,0.021l-0.013,0.021l-0.013,0.021l-0.013,0.02l-0.014,0.021l-0.013,0.021l-0.014,0.02l-0.015,0.021l-0.014,0.02l-0.015,0.02l-0.014,0.02l-0.015,0.02l-0.015,0.02l-0.016,0.019l-0.016,0.02l-0.015,0.019l-0.016,0.02l-0.017,0.019l-0.016,0.019l-0.017,0.019l-0.017,0.019l-0.017,0.018l-0.017,0.019l-0.018,0.018l-0.017,0.018l-0.018,0.018l-0.018,0.018l-0.019,0.018l-0.018,0.017l-0.019,0.018l-0.019,0.017l-0.019,0.017l-0.02,0.017l-0.019,0.016l-0.02,0.017l-0.02,0.016l-0.02,0.016l-0.02,0.016l-0.021,0.016l-0.021,0.015l-0.02,0.016l-0.022,0.015l-0.021,0.015l-0.022,0.014l-0.021,0.014l-0.022,0.015l-0.023,0.014l-0.022,0.013l-0.022,0.014l-0.023,0.013l-0.023,0.013l-0.023,0.012l-0.023,0.013l-0.024,0.012l-0.024,0.012l-0.024,0.011l-0.024,0.012l-0.024,0.011l-0.025,0.01l-0.024,0.011l-0.025,0.01l-0.025,0.01l-0.025,0.009l-0.026,0.009l-0.025,0.009l-0.026,0.009l-0.026,0.008l-0.026,0.007l-0.026,0.008l-0.027,0.007l-0.026,0.007l-0.027,0.006l-0.027,0.006l-0.027,0.006l-0.027,0.005l-0.028,0.005l-0.027,0.004l-0.028,0.004l-0.028,0.004l-0.028,0.003l-0.028,0.003l-0.028,0.002l-0.028,0.002l-0.028,0.002l-0.029,0.001l-0.028,0.001l-0.029,0l-0.029,0l-0.029,-0.001l-0.029,-0.001l-0.029,-0.002l-0.026,-0.002l-0.023,-0.002l-0.022,-0.003l-0.023,-0.005l-0.022,-0.006l-0.022,-0.006l-0.021,-0.008l-0.021,-0.01l-0.021,-0.01l-0.02,-0.011l-0.019,-0.013l-0.019,-0.013l-0.018,-0.014l-0.017,-0.015l-0.017,-0.017l-0.015,-0.016l-0.015,-0.018l-0.013,-0.019l-0.013,-0.019l-0.012,-0.02l-0.01,-0.02l-0.01,-0.021l-0.008,-0.021l-0.007,-0.022l-0.007,-0.022l-0.004,-0.023l-0.004,-0.022l-0.003,-0.023l-0.001,-0.023l0,-0.023l0.001,-0.023l0.002,-0.023l0.003,-0.022l0.005,-0.023l0.006,-0.022l0.006,-0.022l0.008,-0.022l0.01,-0.021l0.01,-0.02l0.011,-0.02l0.013,-0.019l0.013,-0.019l0.014,-0.018l0.015,-0.017l0.017,-0.017l0.016,-0.015l0.018,-0.015l0.019,-0.013l0.019,-0.013l0.02,-0.012l0.02,-0.01l0.021,-0.01l0.021,-0.008l0.022,-0.008l0.022,-0.006l0.023,-0.005l0.022,-0.003l0.023,-0.003l0.023,-0.001l0.023,-0.001l0.023,0.001l0.019,0.002l0.015,0.001l0.015,0l0.015,0l0.016,0.001l0.015,-0.001l0.015,0l0.015,0l0.015,-0.001l0.015,-0.001l0.014,-0.002l0.015,-0.001l0.015,-0.002l0.015,-0.002l0.014,-0.002l0.015,-0.002l0.015,-0.003l0.014,-0.003l0.015,-0.003l0.014,-0.003l0.015,-0.003l0.014,-0.004l0.014,-0.004l0.015,-0.004l0.014,-0.004l0.014,-0.005l0.015,-0.004l0.014,-0.005l0.014,-0.005l0.014,-0.006l0.014,-0.005l0.014,-0.006l0.014,-0.006l0.014,-0.006l0.014,-0.006l0.014,-0.007l0.014,-0.006l0.014,-0.007l0.014,-0.007l0.013,-0.008l0.014,-0.007l0.014,-0.008l0.013,-0.008l0.014,-0.008l0.014,-0.008l0.013,-0.009l0.013,-0.008l0.013,-0.009l0.014,-0.009l0.013,-0.009l0.013,-0.009l0.013,-0.01l0.013,-0.01l0.013,-0.009l0.013,-0.01l0.013,-0.011l0.012,-0.01l0.013,-0.01l0.012,-0.011l0.013,-0.011l0.012,-0.011l0.012,-0.011l0.012,-0.011l0.012,-0.011l0.012,-0.012l0.012,-0.011l0.011,-0.012l0.012,-0.012l0.011,-0.012l0.012,-0.012l0.011,-0.012l0.011,-0.013l0.011,-0.012l0.011,-0.013l0.011,-0.012l0.01,-0.013l0.011,-0.013l0.01,-0.013l0.01,-0.013l0.01,-0.013l0.01,-0.013l0.01,-0.014l0.01,-0.013l0.009,-0.013l0.01,-0.014l0.009,-0.014l0.009,-0.013l0.009,-0.014l0.009,-0.014l0.009,-0.013l0.008,-0.014l0.008,-0.014l0.008,-0.014l0.009,-0.014l0.007,-0.014l0.008,-0.014l0.008,-0.014l0.007,-0.014l0.007,-0.014l0.007,-0.014l0.007,-0.014l0.007,-0.014l0.006,-0.014l0.006,-0.014l0.007,-0.014l0.006,-0.014l0.005,-0.014l0.006,-0.014l0.005,-0.014l0.006,-0.014l0.005,-0.014l0.005,-0.013l0.004,-0.014l0.005,-0.013l0.004,-0.014l0.004,-0.013l0.004,-0.014l0.004,-0.013l0.004,-0.013l0.003,-0.014l0.003,-0.013l0.003,-0.013l0.003,-0.012l0.003,-0.013l0.002,-0.012l0.003,-0.013l0.002,-0.013l0.002,-0.012l0.002,-0.011l0.001,-0.013l0.002,-0.012l0.001,-0.011l0.001,-0.011l0.001,-0.012l0.001,-0.011l0,-0.011l0.001,-0.011l0,-0.01l0,-0.011l0,-0.01l0,-0.01l-0.001,-0.01l0,-0.009l-0.001,-0.009l-0.001,-0.009l0,-0.01l-0.002,-0.009l-0.001,-0.008l-0.001,-0.008l-0.001,-0.009l-0.002,-0.007l-0.001,-0.008l-0.002,-0.007l-0.002,-0.007l-0.002,-0.008l-0.002,-0.006l-0.002,-0.007l-0.002,-0.006l-0.002,-0.006l-0.002,-0.006l-0.002,-0.006l-0.003,-0.005l-0.002,-0.005l-0.003,-0.006l-0.002,-0.005l-0.002,-0.004l-0.003,-0.005l-0.003,-0.005l-0.002,-0.004l-0.003,-0.004l-0.003,-0.004l-0.003,-0.004l-0.003,-0.004l-0.003,-0.003l-0.002,-0.004l-0.004,-0.004l-0.003,-0.003l-0.004,-0.004l-0.003,-0.003l-0.003,-0.003l-0.004,-0.004l-0.004,-0.003l-0.004,-0.004l-0.004,-0.003l-0.005,-0.003l-0.005,-0.003l-0.004,-0.004l-0.005,-0.003l-0.006,-0.003l-0.006,-0.003l-0.006,-0.004l-0.006,-0.003l-0.006,-0.003l-0.007,-0.003l-0.007,-0.003l-0.008,-0.003l-0.008,-0.004l-0.009,-0.003l-0.008,-0.003l-0.009,-0.002l-0.01,-0.003l-0.01,-0.003l-0.01,-0.003l-0.011,-0.002l-0.012,-0.003l-0.011,-0.002l-0.012,-0.002l-0.013,-0.002l-0.013,-0.002l-0.014,-0.001l-0.014,-0.002l-0.014,-0.001l-0.015,-0.001l-0.016,-0.001l-0.016,-0.001l-0.016,0l-0.017,0l-0.018,0l-0.018,0l-0.018,0l-0.019,0.001l-0.019,0.001l-0.02,0.002l-0.02,0.002l-0.021,0.002l-0.021,0.002l-0.022,0.003l-0.022,0.003l-0.023,0.003l-0.023,0.004l-0.024,0.004l-0.024,0.004l-0.025,0.005l-0.025,0.005l-0.025,0.005l-0.026,0.006l-0.027,0.006l-0.027,0.007l-0.028,0.006l-0.027,0.008l-0.029,0.008l-0.029,0.008l-0.029,0.008l-0.03,0.009l-0.03,0.01l-0.031,0.009l-0.031,0.011l-0.032,0.01l-0.032,0.011l-0.032,0.012l-0.033,0.012l-0.034,0.012l-0.034,0.013l-0.034,0.014l-0.035,0.013l-0.034,0.014l-0.006,0.003l-0.006,0.002l-0.007,0.004l-0.008,0.004l-0.01,0.004l-0.01,0.005l-0.011,0.006l-0.012,0.007l-0.012,0.007l-0.013,0.007l-0.013,0.008l-0.014,0.009l-0.015,0.009l-0.014,0.009l-0.016,0.01l-0.015,0.01l-0.016,0.01l-0.016,0.011l-0.016,0.011l-0.016,0.012l-0.017,0.012l-0.016,0.012l-0.017,0.012l-0.017,0.013l-0.017,0.012l-0.017,0.013l-0.016,0.014l-0.017,0.013l-0.017,0.013l-0.016,0.014l-0.016,0.014l-0.016,0.013l-0.016,0.014l-0.016,0.014l-0.015,0.014l-0.015,0.014l-0.015,0.014l-0.015,0.014l-0.014,0.013l-0.013,0.014l-0.013,0.013l-0.013,0.014l-0.013,0.013l-0.011,0.013l-0.011,0.012l-0.011,0.012l-0.01,0.012l-0.009,0.012l-0.008,0.011l-0.008,0.01l-0.007,0.01l-0.006,0.009l-0.006,0.009l-0.005,0.007l-0.003,0.007l-0.004,0.006l-0.002,0.004l-0.001,0.002l-0.003,0.015l-0.006,0.022l-0.007,0.022l-0.008,0.021l-0.009,0.021l-0.011,0.021l-0.011,0.019l-0.013,0.02l-0.013,0.018l-0.015,0.018l-0.015,0.017l-0.016,0.017l-0.017,0.015l-0.018,0.014l-0.019,0.014l-0.019,0.013l-0.02,0.011l-0.02,0.01l-0.021,0.01l-0.022,0.008l-0.021,0.007l-0.023,0.006l-0.022,0.005l-0.023,0.004l-0.023,0.002l-0.022,0.001l-0.023,0l-0.023,-0.001l-0.023,-0.002l-0.023,-0.004l-0.022,-0.004l-0.023,-0.006l-0.021,-0.007l-0.022,-0.009l-0.021,-0.009l-0.02,-0.01l-0.02,-0.012l-0.019,-0.012l-0.019,-0.014l-0.018,-0.014l-0.017,-0.015l-0.016,-0.017l-0.016,-0.017l-0.014,-0.017l-0.014,-0.019l-0.012,-0.019l-0.012,-0.02l-0.01,-0.021l-0.01,-0.021l-0.008,-0.021l-0.007,-0.022l-0.006,-0.022l-0.005,-0.022l-0.003,-0.023l-0.003,-0.023l-0.001,-0.023l0,-0.023l0.001,-0.023l0.002,-0.023l0.004,-0.022l0.002,-0.013l0.004,-0.017l0.004,-0.019l0.005,-0.018l0.004,-0.016l0.007,-0.02l0.01,-0.031l0.012,-0.031l0.013,-0.03l0.014,-0.029l0.015,-0.028l0.015,-0.027l0.015,-0.027l0.016,-0.026l0.017,-0.025l0.017,-0.025l0.017,-0.024l0.018,-0.023l0.018,-0.024l0.018,-0.023l0.019,-0.022l0.019,-0.022l0.019,-0.022l0.02,-0.022l0.02,-0.021l0.02,-0.021l0.02,-0.021l0.021,-0.021l0.02,-0.02l0.021,-0.02l0.022,-0.02l0.021,-0.02l0.021,-0.019l0.022,-0.019l0.022,-0.019l0.022,-0.019l0.022,-0.018l0.022,-0.018l0.022,-0.018l0.022,-0.018l0.022,-0.017l0.022,-0.017l0.023,-0.017l0.022,-0.017l0.022,-0.016l0.022,-0.016l0.022,-0.016l0.022,-0.015l0.022,-0.016l0.021,-0.014l0.022,-0.015l0.022,-0.014l0.021,-0.014l0.021,-0.013l0.022,-0.013l0.02,-0.013l0.021,-0.012l0.021,-0.012l0.021,-0.012l0.02,-0.011l0.021,-0.011l0.02,-0.011l0.021,-0.01l0.02,-0.01l0.021,-0.01l0.02,-0.009l0.02,-0.008l0.043,-0.017l0.04,-0.016l0.04,-0.016l0.04,-0.015l0.04,-0.015l0.039,-0.014l0.039,-0.014l0.038,-0.013l0.038,-0.013l0.038,-0.012l0.038,-0.012l0.037,-0.012l0.037,-0.011l0.036,-0.01l0.037,-0.011l0.036,-0.01l0.035,-0.009l0.036,-0.009l0.035,-0.008l0.035,-0.009l0.034,-0.007l0.035,-0.007l0.034,-0.007l0.033,-0.007l0.034,-0.006l0.033,-0.005l0.033,-0.005l0.032,-0.005l0.033,-0.005l0.032,-0.003l0.032,-0.004l0.031,-0.003l0.032,-0.003l0.031,-0.002l0.031,-0.002l0.031,-0.001l0.03,-0.001l0.03,-0.001l0.03,0l0.03,0.001Z"/><path d="M28.833,68.402c-0.3,0.113 -0.623,-0.076 -0.852,-0.254c-2.788,-2.165 1.021,-3.032 1.844,-1.31" style="fill:#61e0ee;"/><path d="M28.208,65.486l0.025,0l0.024,0l0.025,0.001l0.024,0.001l0.025,0.001l0.025,0.002l0.024,0.001l0.025,0.002l0.025,0.002l0.024,0.003l0.025,0.003l0.025,0.002l0.024,0.004l0.025,0.003l0.025,0.003l0.025,0.004l0.024,0.004l0.025,0.005l0.025,0.004l0.024,0.005l0.025,0.005l0.025,0.006l0.024,0.005l0.025,0.006l0.024,0.006l0.025,0.006l0.024,0.007l0.025,0.007l0.024,0.007l0.025,0.007l0.024,0.008l0.024,0.008l0.025,0.008l0.024,0.008l0.024,0.009l0.024,0.009l0.024,0.009l0.024,0.01l0.024,0.009l0.024,0.01l0.023,0.011l0.024,0.01l0.024,0.011l0.023,0.011l0.023,0.012l0.024,0.011l0.023,0.012l0.023,0.013l0.023,0.012l0.023,0.013l0.023,0.013l0.022,0.014l0.023,0.013l0.022,0.014l0.022,0.015l0.022,0.015l0.022,0.015l0.022,0.015l0.022,0.015l0.021,0.016l0.021,0.016l0.021,0.017l0.021,0.017l0.021,0.017l0.021,0.017l0.02,0.018l0.02,0.018l0.02,0.019l0.02,0.018l0.019,0.019l0.02,0.02l0.019,0.019l0.019,0.02l0.018,0.021l0.019,0.02l0.018,0.021l0.018,0.022l0.017,0.021l0.017,0.022l0.017,0.022l0.017,0.023l0.017,0.023l0.016,0.023l0.015,0.023l0.016,0.024l0.015,0.024l0.015,0.025l0.015,0.024l0.014,0.026l0.014,0.025l0.013,0.025l0.013,0.026l0.011,0.023l0.01,0.02l0.008,0.021l0.007,0.021l0.006,0.022l0.005,0.021l0.004,0.022l0.003,0.022l0.001,0.022l0.001,0.022l-0.001,0.023l-0.001,0.022l-0.003,0.022l-0.004,0.022l-0.005,0.021l-0.006,0.022l-0.008,0.021l-0.008,0.02l-0.009,0.021l-0.011,0.019l-0.011,0.019l-0.012,0.019l-0.013,0.018l-0.014,0.017l-0.015,0.016l-0.016,0.016l-0.017,0.015l-0.017,0.014l-0.018,0.013l-0.018,0.012l-0.02,0.012l-0.019,0.01l-0.021,0.009l-0.02,0.008l-0.021,0.007l-0.022,0.006l-0.021,0.005l-0.022,0.004l-0.022,0.003l-0.022,0.002l-0.023,0l-0.022,0l-0.022,-0.002l-0.022,-0.003l-0.022,-0.004l-0.021,-0.005l-0.022,-0.006l-0.021,-0.007l-0.02,-0.009l-0.021,-0.009l-0.019,-0.01l-0.019,-0.012l-0.019,-0.012l-0.018,-0.013l-0.017,-0.014l-0.016,-0.015l-0.016,-0.016l-0.015,-0.016l-0.014,-0.017l-0.013,-0.018l-0.012,-0.019l-0.012,-0.019l-0.01,-0.02l-0.008,-0.017l-0.007,-0.014l-0.007,-0.013l-0.008,-0.014l-0.007,-0.013l-0.008,-0.013l-0.008,-0.013l-0.008,-0.013l-0.008,-0.012l-0.008,-0.012l-0.009,-0.013l-0.009,-0.012l-0.008,-0.012l-0.009,-0.012l-0.01,-0.011l-0.009,-0.012l-0.009,-0.011l-0.01,-0.011l-0.01,-0.012l-0.01,-0.011l-0.01,-0.011l-0.011,-0.01l-0.01,-0.011l-0.011,-0.01l-0.011,-0.011l-0.011,-0.01l-0.011,-0.01l-0.012,-0.01l-0.011,-0.009l-0.012,-0.01l-0.011,-0.01l-0.013,-0.009l-0.012,-0.009l-0.012,-0.009l-0.012,-0.009l-0.013,-0.009l-0.013,-0.009l-0.013,-0.008l-0.013,-0.009l-0.013,-0.008l-0.013,-0.008l-0.014,-0.008l-0.013,-0.008l-0.014,-0.008l-0.014,-0.008l-0.014,-0.007l-0.014,-0.007l-0.014,-0.007l-0.015,-0.008l-0.014,-0.006l-0.015,-0.007l-0.014,-0.007l-0.015,-0.006l-0.015,-0.007l-0.015,-0.006l-0.015,-0.006l-0.016,-0.005l-0.015,-0.006l-0.015,-0.006l-0.016,-0.005l-0.015,-0.005l-0.016,-0.005l-0.016,-0.005l-0.016,-0.005l-0.015,-0.005l-0.016,-0.004l-0.016,-0.004l-0.016,-0.004l-0.016,-0.004l-0.017,-0.004l-0.016,-0.004l-0.016,-0.003l-0.016,-0.004l-0.017,-0.003l-0.016,-0.003l-0.016,-0.003l-0.016,-0.003l-0.017,-0.002l-0.016,-0.002l-0.017,-0.003l-0.016,-0.002l-0.016,-0.002l-0.017,-0.001l-0.016,-0.002l-0.016,-0.001l-0.017,-0.002l-0.016,-0.001l-0.016,-0.001l-0.017,-0.001l-0.016,0l-0.016,-0.001l-0.016,0l-0.016,0l-0.016,0l-0.016,0l-0.016,0l-0.016,0.001l-0.016,0l-0.015,0.001l-0.016,0.001l-0.016,0.001l-0.015,0.001l-0.015,0.001l-0.016,0.002l-0.015,0.001l-0.015,0.002l-0.015,0.002l-0.014,0.002l-0.015,0.002l-0.015,0.002l-0.014,0.003l-0.014,0.002l-0.014,0.003l-0.014,0.003l-0.014,0.003l-0.014,0.003l-0.013,0.003l-0.014,0.003l-0.013,0.004l-0.013,0.003l-0.013,0.004l-0.012,0.004l-0.013,0.004l-0.012,0.004l-0.012,0.004l-0.012,0.004l-0.012,0.004l-0.011,0.004l-0.012,0.005l-0.01,0.004l-0.011,0.005l-0.011,0.005l-0.01,0.004l-0.01,0.005l-0.01,0.005l-0.01,0.005l-0.01,0.005l-0.009,0.005l-0.009,0.005l-0.008,0.005l-0.009,0.005l-0.008,0.005l-0.008,0.005l-0.008,0.005l-0.007,0.005l-0.007,0.006l-0.007,0.005l-0.007,0.005l-0.007,0.005l-0.006,0.005l-0.006,0.005l-0.005,0.006l-0.006,0.004l-0.005,0.006l-0.005,0.005l-0.005,0.005l-0.004,0.004l-0.005,0.005l-0.004,0.005l-0.004,0.005l-0.003,0.004l-0.004,0.005l-0.003,0.005l-0.003,0.004l-0.003,0.005l-0.003,0.004l-0.003,0.005l-0.002,0.004l-0.003,0.004l-0.002,0.005l-0.002,0.004l-0.002,0.004l-0.002,0.005l-0.001,0.004l-0.002,0.004l-0.001,0.005l-0.002,0.004l-0.001,0.004l-0.001,0.005l-0.001,0.005l-0.001,0.005l-0.001,0.004l-0.001,0.006l-0.001,0.005l0,0.005l-0.001,0.006l0,0.006l0,0.006l-0.001,0.006l0.001,0.006l0,0.007l0,0.007l0.001,0.007l0,0.008l0.001,0.007l0.001,0.008l0.002,0.009l0.001,0.008l0.002,0.009l0.002,0.01l0.003,0.01l0.002,0.009l0.003,0.011l0.003,0.011l0.004,0.01l0.004,0.011l0.004,0.012l0.005,0.012l0.005,0.012l0.005,0.013l0.006,0.013l0.006,0.013l0.007,0.014l0.007,0.014l0.007,0.013l0.008,0.015l0.009,0.015l0.008,0.015l0.009,0.015l0.01,0.016l0.01,0.016l0.011,0.016l0.011,0.017l0.012,0.016l0.012,0.017l0.013,0.017l0.013,0.018l0.014,0.018l0.014,0.018l0.015,0.018l0.015,0.018l0.016,0.019l0.016,0.019l0.017,0.019l0.018,0.02l0.018,0.019l0.019,0.02l0.019,0.02l0.019,0.021l0.021,0.02l0.021,0.021l0.021,0.021l0.022,0.021l0.023,0.021l0.023,0.022l0.024,0.022l0.025,0.021l0.025,0.022l0.025,0.023l0.027,0.022l0.027,0.023l0.027,0.023l0.028,0.023l0.029,0.023l0.03,0.023l0.029,0.023l0.018,0.014l0.019,0.014l0.018,0.013l0.018,0.013l0.019,0.013l0.018,0.013l0.019,0.012l0.018,0.011l0.019,0.011l0.018,0.01l0.018,0.01l0.018,0.009l0.018,0.009l0.007,0.004l0.009,0.003l0.008,0.004l0.008,0.003l0.008,0.004l0.008,0.003l0.007,0.002l0.008,0.003l0.007,0.003l0.007,0.002l0.007,0.002l0.007,0.002l0.006,0.001l0.007,0.002l0.006,0.001l0.005,0.001l0.006,0.001l0.005,0.001l0.005,0.001l0.005,0.001l0.005,0l0.004,0l0.004,0.001l0.004,0l0.004,0l0.003,0l0.004,-0.001l0.003,0l0.003,0l0.002,0l0.003,-0.001l0.003,0l0.002,-0.001l0.003,0l0.002,-0.001l0.002,-0.001l0.003,0l0.008,-0.004l0.021,-0.006l0.022,-0.006l0.021,-0.005l0.022,-0.004l0.022,-0.002l0.022,-0.002l0.023,0l0.022,0.001l0.022,0.002l0.022,0.003l0.022,0.004l0.021,0.005l0.022,0.006l0.021,0.008l0.02,0.008l0.02,0.01l0.02,0.01l0.019,0.012l0.018,0.012l0.018,0.014l0.017,0.014l0.017,0.015l0.015,0.016l0.015,0.016l0.014,0.018l0.013,0.018l0.012,0.019l0.011,0.019l0.01,0.02l0.009,0.02l0.008,0.021l0.007,0.021l0.006,0.021l0.004,0.022l0.004,0.022l0.003,0.022l0.001,0.022l0,0.022l0,0.022l-0.002,0.023l-0.003,0.022l-0.005,0.021l-0.005,0.022l-0.006,0.021l-0.008,0.021l-0.008,0.021l-0.009,0.02l-0.011,0.019l-0.011,0.02l-0.013,0.018l-0.013,0.018l-0.014,0.017l-0.016,0.016l-0.015,0.016l-0.017,0.014l-0.017,0.014l-0.019,0.013l-0.018,0.012l-0.019,0.011l-0.02,0.01l-0.021,0.009l-0.02,0.008l-0.02,0.007l-0.026,0.009l-0.026,0.008l-0.026,0.007l-0.026,0.006l-0.026,0.005l-0.026,0.005l-0.026,0.004l-0.025,0.003l-0.026,0.002l-0.025,0.002l-0.026,0.001l-0.025,0.001l-0.025,0l-0.024,-0.001l-0.025,-0.001l-0.024,-0.002l-0.024,-0.002l-0.023,-0.003l-0.024,-0.003l-0.023,-0.004l-0.022,-0.004l-0.023,-0.005l-0.022,-0.004l-0.022,-0.006l-0.022,-0.005l-0.021,-0.006l-0.021,-0.007l-0.021,-0.006l-0.021,-0.007l-0.02,-0.007l-0.02,-0.008l-0.02,-0.007l-0.019,-0.008l-0.019,-0.008l-0.019,-0.008l-0.019,-0.009l-0.019,-0.009l-0.035,-0.017l-0.035,-0.018l-0.034,-0.019l-0.034,-0.019l-0.032,-0.019l-0.032,-0.02l-0.03,-0.019l-0.03,-0.02l-0.029,-0.02l-0.028,-0.02l-0.028,-0.02l-0.026,-0.02l-0.025,-0.019l-0.035,-0.028l-0.034,-0.027l-0.034,-0.027l-0.033,-0.027l-0.032,-0.027l-0.032,-0.026l-0.031,-0.027l-0.031,-0.027l-0.031,-0.027l-0.029,-0.026l-0.029,-0.026l-0.029,-0.027l-0.028,-0.026l-0.027,-0.027l-0.028,-0.026l-0.026,-0.026l-0.026,-0.026l-0.026,-0.026l-0.025,-0.027l-0.024,-0.026l-0.024,-0.026l-0.023,-0.026l-0.023,-0.026l-0.023,-0.026l-0.022,-0.026l-0.021,-0.025l-0.021,-0.026l-0.02,-0.026l-0.02,-0.026l-0.02,-0.026l-0.019,-0.025l-0.018,-0.026l-0.018,-0.026l-0.018,-0.026l-0.017,-0.026l-0.016,-0.026l-0.016,-0.025l-0.016,-0.026l-0.015,-0.026l-0.015,-0.026l-0.014,-0.026l-0.014,-0.026l-0.013,-0.026l-0.012,-0.026l-0.013,-0.026l-0.011,-0.026l-0.011,-0.026l-0.011,-0.026l-0.01,-0.027l-0.01,-0.025l-0.009,-0.027l-0.009,-0.027l-0.008,-0.026l-0.007,-0.026l-0.008,-0.027l-0.006,-0.026l-0.006,-0.026l-0.005,-0.027l-0.005,-0.027l-0.004,-0.026l-0.004,-0.027l-0.003,-0.027l-0.003,-0.026l-0.002,-0.026l-0.001,-0.027l-0.001,-0.027l0,-0.026l0.001,-0.026l0.001,-0.027l0.001,-0.026l0.003,-0.026l0.003,-0.026l0.003,-0.026l0.004,-0.025l0.005,-0.026l0.005,-0.026l0.006,-0.025l0.007,-0.024l0.007,-0.025l0.008,-0.025l0.008,-0.024l0.009,-0.024l0.009,-0.024l0.01,-0.023l0.01,-0.023l0.011,-0.023l0.011,-0.022l0.012,-0.022l0.012,-0.022l0.013,-0.021l0.013,-0.022l0.013,-0.02l0.014,-0.02l0.015,-0.021l0.015,-0.019l0.014,-0.019l0.016,-0.019l0.016,-0.018l0.016,-0.018l0.016,-0.018l0.017,-0.017l0.017,-0.017l0.017,-0.016l0.018,-0.017l0.017,-0.016l0.018,-0.015l0.019,-0.015l0.018,-0.015l0.019,-0.014l0.019,-0.014l0.019,-0.014l0.019,-0.013l0.02,-0.013l0.019,-0.013l0.02,-0.012l0.02,-0.012l0.02,-0.012l0.02,-0.011l0.021,-0.011l0.02,-0.011l0.021,-0.011l0.021,-0.01l0.021,-0.01l0.022,-0.009l0.021,-0.01l0.021,-0.009l0.022,-0.009l0.021,-0.008l0.022,-0.008l0.022,-0.008l0.022,-0.008l0.023,-0.008l0.022,-0.007l0.022,-0.007l0.023,-0.006l0.022,-0.007l0.023,-0.006l0.023,-0.006l0.022,-0.006l0.023,-0.005l0.024,-0.005l0.023,-0.005l0.023,-0.005l0.023,-0.004l0.024,-0.004l0.023,-0.004l0.024,-0.004l0.023,-0.004l0.024,-0.003l0.024,-0.003l0.023,-0.003l0.024,-0.002l0.024,-0.002l0.024,-0.002l0.024,-0.002l0.024,-0.002l0.025,-0.001l0.024,-0.001l0.024,-0.001l0.024,-0.001l0.025,0l0.024,-0.001l0.024,0.001Z"/><path d="M29.014,91.183c0,0 -1.448,-2.848 -1.175,-5.291c0.857,-7.648 -1.394,-9.148 -0.514,-13.813c0.306,-1.62 0.883,-3.464 1.867,-4.805c2.162,-2.947 6.318,-4.478 9.932,-3.786c1.448,0.277 2.755,0.904 4.048,1.591c4.5,2.39 5.435,7.435 4.85,11.687c-0.259,1.883 -1.877,4.817 -1.641,6.704c0.494,3.935 0.356,6.065 -0.873,8.603c-1.047,2.163 -5.122,3.793 -9.577,3.33c-0.759,-0.079 -5.301,-0.875 -6.917,-4.22Z" style="fill:#61e0ee;"/><clipPath id="_clip1"><path d="M29.014,91.183c0,0 -1.448,-2.848 -1.175,-5.291c0.857,-7.648 -1.394,-9.148 -0.514,-13.813c0.306,-1.62 0.883,-3.464 1.867,-4.805c2.162,-2.947 6.318,-4.478 9.932,-3.786c1.448,0.277 2.755,0.904 4.048,1.591c4.5,2.39 5.435,7.435 4.85,11.687c-0.259,1.883 -1.877,4.817 -1.641,6.704c0.494,3.935 0.356,6.065 -0.873,8.603c-1.047,2.163 -5.122,3.793 -9.577,3.33c-0.759,-0.079 -5.301,-0.875 -6.917,-4.22Z"/></clipPath><g clip-path="url(#_clip1)"><path d="M45.098,66.931c0,0 1.494,3.643 0.583,6.595c-0.911,2.951 -2.514,7.068 -2.259,11.186c0.255,4.117 -0.183,6.777 -1.094,7.943c-1.839,2.355 -6.85,2.696 -8.125,2.332c-1.275,-0.364 5.028,1.312 8.636,-0.146c3.607,-1.457 4.117,-7.579 3.643,-11.404c-0.473,-3.826 2.587,-4.919 1.567,-11.515c-1.64,-3.862 -1.676,-3.643 -2.951,-4.991Z" style="fill:#3fc9df;"/><path d="M39.08,72.586c0,0 0.448,2.239 3.116,2.108c2.667,-0.131 2.854,-2.854 2.854,-2.854l-5.97,0.746Z" style="fill:#3fc9df;"/><path d="M27.67,71.448c0,0 0.447,2.239 3.115,2.108c2.668,-0.131 2.855,-2.854 2.855,-2.854l-5.97,0.746Z" style="fill:#3fc9df;"/></g><path d="M37.402,62.884l0.046,0.001l0.045,0l0.046,0.001l0.045,0.001l0.046,0.001l0.045,0.001l0.046,0.002l0.045,0.002l0.046,0.002l0.045,0.002l0.045,0.002l0.046,0.003l0.045,0.002l0.045,0.003l0.046,0.003l0.045,0.004l0.045,0.003l0.046,0.004l0.045,0.004l0.045,0.004l0.045,0.005l0.045,0.004l0.045,0.005l0.046,0.005l0.045,0.005l0.045,0.006l0.045,0.005l0.045,0.006l0.044,0.006l0.045,0.007l0.045,0.006l0.045,0.007l0.045,0.007l0.044,0.007l0.045,0.007l0.045,0.008l0.044,0.007l0.045,0.008l0.044,0.009l0.045,0.008l0.071,0.014l0.071,0.014l0.071,0.015l0.07,0.016l0.07,0.016l0.07,0.016l0.07,0.017l0.069,0.017l0.069,0.018l0.069,0.019l0.069,0.019l0.069,0.019l0.068,0.019l0.068,0.021l0.068,0.02l0.068,0.021l0.067,0.021l0.067,0.022l0.068,0.022l0.066,0.023l0.067,0.023l0.067,0.023l0.066,0.024l0.066,0.024l0.066,0.024l0.066,0.025l0.065,0.025l0.066,0.026l0.065,0.025l0.065,0.026l0.065,0.027l0.065,0.026l0.064,0.027l0.065,0.027l0.064,0.028l0.064,0.028l0.064,0.028l0.064,0.028l0.064,0.028l0.063,0.029l0.064,0.029l0.063,0.029l0.063,0.03l0.063,0.029l0.063,0.03l0.063,0.03l0.062,0.031l0.063,0.03l0.062,0.031l0.063,0.03l0.062,0.031l0.062,0.032l0.124,0.062l0.124,0.063l0.123,0.064l0.123,0.064l0.122,0.064l0.123,0.065l0.055,0.03l0.054,0.029l0.055,0.03l0.054,0.03l0.053,0.031l0.054,0.031l0.053,0.031l0.052,0.031l0.053,0.031l0.052,0.032l0.051,0.032l0.052,0.032l0.051,0.032l0.05,0.033l0.051,0.033l0.05,0.033l0.05,0.034l0.049,0.033l0.049,0.034l0.049,0.034l0.048,0.034l0.048,0.035l0.048,0.035l0.048,0.035l0.047,0.035l0.047,0.036l0.046,0.035l0.046,0.036l0.046,0.036l0.046,0.037l0.045,0.036l0.045,0.037l0.045,0.037l0.044,0.038l0.044,0.037l0.044,0.038l0.043,0.038l0.043,0.038l0.043,0.038l0.043,0.038l0.042,0.039l0.042,0.039l0.041,0.039l0.041,0.04l0.041,0.039l0.041,0.04l0.04,0.04l0.04,0.04l0.04,0.04l0.039,0.041l0.039,0.04l0.039,0.041l0.039,0.041l0.038,0.042l0.038,0.041l0.037,0.041l0.037,0.042l0.037,0.042l0.037,0.042l0.036,0.043l0.037,0.042l0.035,0.043l0.036,0.043l0.035,0.043l0.035,0.043l0.034,0.043l0.035,0.044l0.034,0.044l0.033,0.043l0.034,0.044l0.033,0.045l0.033,0.044l0.032,0.044l0.032,0.045l0.032,0.045l0.032,0.045l0.031,0.045l0.031,0.045l0.031,0.046l0.031,0.045l0.03,0.046l0.03,0.046l0.03,0.046l0.029,0.046l0.029,0.046l0.029,0.047l0.028,0.046l0.029,0.047l0.028,0.047l0.027,0.047l0.028,0.047l0.027,0.047l0.027,0.047l0.026,0.047l0.027,0.048l0.026,0.048l0.026,0.048l0.025,0.048l0.025,0.048l0.025,0.048l0.025,0.048l0.024,0.049l0.025,0.048l0.024,0.049l0.023,0.049l0.024,0.049l0.023,0.048l0.022,0.05l0.023,0.049l0.022,0.049l0.022,0.05l0.022,0.049l0.022,0.05l0.021,0.049l0.021,0.05l0.021,0.05l0.02,0.05l0.021,0.05l0.019,0.05l0.02,0.051l0.02,0.05l0.019,0.05l0.019,0.051l0.019,0.051l0.018,0.05l0.019,0.051l0.018,0.051l0.017,0.051l0.018,0.051l0.017,0.051l0.017,0.051l0.017,0.052l0.016,0.051l0.017,0.051l0.016,0.052l0.016,0.052l0.015,0.051l0.016,0.052l0.015,0.052l0.014,0.051l0.015,0.052l0.014,0.052l0.015,0.052l0.014,0.052l0.013,0.053l0.014,0.052l0.013,0.052l0.013,0.052l0.013,0.053l0.012,0.052l0.013,0.052l0.012,0.053l0.012,0.053l0.011,0.052l0.012,0.053l0.011,0.052l0.011,0.053l0.011,0.053l0.01,0.053l0.011,0.053l0.01,0.053l0.01,0.053l0.009,0.053l0.01,0.053l0.009,0.053l0.009,0.053l0.009,0.053l0.008,0.053l0.009,0.053l0.008,0.053l0.008,0.054l0.008,0.053l0.007,0.053l0.008,0.053l0.007,0.054l0.007,0.053l0.006,0.053l0.007,0.054l0.006,0.053l0.006,0.054l0.006,0.053l0.006,0.054l0.006,0.053l0.005,0.054l0.005,0.053l0.005,0.054l0.005,0.053l0.004,0.054l0.004,0.053l0.005,0.053l0.004,0.054l0.003,0.054l0.004,0.053l0.003,0.054l0.003,0.053l0.003,0.054l0.003,0.053l0.003,0.053l0.002,0.054l0.003,0.054l0.003,0.106l0.004,0.107l0.002,0.107l0.002,0.107l0.001,0.107l0,0.106l0,0.107l-0.001,0.106l-0.002,0.106l-0.003,0.107l-0.003,0.106l-0.004,0.106l-0.004,0.105l-0.005,0.106l-0.006,0.105l-0.007,0.106l-0.007,0.105l-0.007,0.104l-0.009,0.105l-0.009,0.105l-0.009,0.104l-0.011,0.104l-0.01,0.104l-0.012,0.103l-0.012,0.103l-0.012,0.103l-0.014,0.103l-0.013,0.103l-0.007,0.048l-0.008,0.048l-0.008,0.049l-0.008,0.05l-0.009,0.049l-0.009,0.05l-0.01,0.049l-0.01,0.05l-0.011,0.05l-0.011,0.051l-0.011,0.051l-0.012,0.05l-0.012,0.051l-0.013,0.052l-0.013,0.051l-0.013,0.052l-0.014,0.052l-0.013,0.051l-0.015,0.053l-0.014,0.052l-0.015,0.053l-0.015,0.052l-0.016,0.053l-0.015,0.053l-0.016,0.054l-0.017,0.053l-0.033,0.107l-0.034,0.108l-0.034,0.109l-0.036,0.109l-0.036,0.109l-0.037,0.11l-0.038,0.111l-0.037,0.11l-0.039,0.111l-0.077,0.223l-0.078,0.224l-0.078,0.224l-0.039,0.112l-0.038,0.112l-0.039,0.112l-0.038,0.112l-0.037,0.111l-0.037,0.112l-0.037,0.111l-0.036,0.111l-0.035,0.11l-0.034,0.11l-0.017,0.055l-0.017,0.054l-0.016,0.055l-0.016,0.054l-0.016,0.054l-0.016,0.054l-0.015,0.054l-0.015,0.054l-0.015,0.053l-0.014,0.054l-0.015,0.053l-0.014,0.053l-0.013,0.052l-0.013,0.053l-0.013,0.052l-0.013,0.052l-0.012,0.052l-0.012,0.051l-0.012,0.051l-0.011,0.051l-0.01,0.051l-0.011,0.05l-0.01,0.05l-0.009,0.05l-0.009,0.05l-0.009,0.049l-0.008,0.048l-0.008,0.049l-0.007,0.048l-0.007,0.048l-0.007,0.047l-0.006,0.047l-0.005,0.046l-0.005,0.047l-0.005,0.046l-0.004,0.045l-0.003,0.045l-0.003,0.044l-0.003,0.044l-0.002,0.044l-0.001,0.043l-0.001,0.043l0,0.042l0,0.042l0,0.041l0.001,0.041l0.002,0.04l0.002,0.039l0.003,0.039l0.003,0.039l0.004,0.038l0.005,0.04l0.023,0.182l0.021,0.182l0.021,0.18l0.02,0.177l0.02,0.175l0.009,0.086l0.009,0.086l0.008,0.086l0.009,0.085l0.008,0.084l0.008,0.084l0.007,0.083l0.008,0.083l0.007,0.082l0.007,0.082l0.007,0.081l0.006,0.08l0.006,0.081l0.006,0.079l0.006,0.079l0.005,0.079l0.005,0.078l0.005,0.078l0.004,0.078l0.004,0.076l0.004,0.077l0.004,0.076l0.004,0.076l0.003,0.075l0.003,0.074l0.002,0.075l0.002,0.074l0.003,0.073l0.001,0.073l0.002,0.073l0.001,0.072l0.001,0.073l0,0.071l0.001,0.071l0,0.071l-0.001,0.071l0,0.07l-0.001,0.07l-0.002,0.07l-0.001,0.069l-0.002,0.069l-0.002,0.068l-0.003,0.069l-0.002,0.068l-0.003,0.067l-0.004,0.068l-0.004,0.067l-0.004,0.067l-0.004,0.066l-0.005,0.067l-0.005,0.066l-0.005,0.066l-0.006,0.065l-0.006,0.065l-0.006,0.066l-0.007,0.065l-0.006,0.064l-0.008,0.065l-0.007,0.064l-0.008,0.064l-0.009,0.064l-0.008,0.063l-0.009,0.064l-0.01,0.063l-0.009,0.063l-0.011,0.063l-0.01,0.063l-0.011,0.062l-0.011,0.063l-0.011,0.062l-0.012,0.062l-0.012,0.062l-0.013,0.062l-0.012,0.061l-0.014,0.062l-0.013,0.061l-0.014,0.062l-0.014,0.061l-0.015,0.061l-0.015,0.061l-0.016,0.061l-0.015,0.061l-0.016,0.06l-0.017,0.061l-0.017,0.06l-0.017,0.061l-0.018,0.06l-0.017,0.061l-0.019,0.06l-0.019,0.06l-0.019,0.06l-0.019,0.061l-0.02,0.06l-0.02,0.06l-0.021,0.06l-0.021,0.06l-0.021,0.06l-0.022,0.06l-0.022,0.06l-0.022,0.06l-0.023,0.06l-0.023,0.06l-0.024,0.061l-0.024,0.06l-0.024,0.06l-0.025,0.06l-0.025,0.06l-0.026,0.061l-0.026,0.06l-0.026,0.061l-0.027,0.06l-0.027,0.061l-0.027,0.061l-0.028,0.06l-0.029,0.061l-0.028,0.061l-0.029,0.061l-0.03,0.062l-0.014,0.028l-0.015,0.029l-0.014,0.029l-0.016,0.029l-0.015,0.029l-0.016,0.028l-0.016,0.029l-0.016,0.028l-0.017,0.029l-0.016,0.028l-0.018,0.028l-0.017,0.028l-0.018,0.028l-0.018,0.028l-0.018,0.028l-0.018,0.027l-0.019,0.028l-0.019,0.027l-0.02,0.027l-0.019,0.027l-0.02,0.028l-0.02,0.027l-0.021,0.026l-0.02,0.027l-0.021,0.027l-0.021,0.027l-0.022,0.026l-0.021,0.026l-0.022,0.027l-0.023,0.026l-0.022,0.026l-0.023,0.026l-0.022,0.026l-0.024,0.026l-0.023,0.025l-0.024,0.026l-0.023,0.025l-0.025,0.025l-0.024,0.026l-0.025,0.025l-0.024,0.025l-0.025,0.025l-0.026,0.025l-0.025,0.024l-0.026,0.025l-0.026,0.025l-0.026,0.024l-0.027,0.024l-0.026,0.025l-0.027,0.024l-0.027,0.024l-0.028,0.023l-0.027,0.024l-0.028,0.024l-0.028,0.024l-0.028,0.023l-0.029,0.023l-0.028,0.024l-0.029,0.023l-0.029,0.023l-0.03,0.023l-0.029,0.023l-0.03,0.022l-0.03,0.023l-0.03,0.022l-0.03,0.023l-0.031,0.022l-0.031,0.022l-0.031,0.022l-0.031,0.022l-0.031,0.022l-0.032,0.022l-0.032,0.022l-0.032,0.021l-0.032,0.022l-0.032,0.021l-0.033,0.021l-0.033,0.021l-0.033,0.021l-0.033,0.021l-0.033,0.021l-0.034,0.021l-0.034,0.02l-0.033,0.021l-0.035,0.02l-0.034,0.02l-0.034,0.02l-0.035,0.02l-0.035,0.02l-0.036,0.02l-0.07,0.039l-0.071,0.039l-0.073,0.038l-0.073,0.038l-0.073,0.037l-0.075,0.037l-0.075,0.036l-0.075,0.036l-0.077,0.036l-0.077,0.035l-0.078,0.034l-0.078,0.034l-0.079,0.034l-0.08,0.033l-0.08,0.032l-0.081,0.032l-0.082,0.032l-0.082,0.031l-0.083,0.03l-0.084,0.03l-0.084,0.03l-0.085,0.029l-0.085,0.028l-0.086,0.028l-0.086,0.027l-0.087,0.027l-0.088,0.026l-0.088,0.026l-0.089,0.025l-0.089,0.025l-0.09,0.024l-0.09,0.023l-0.091,0.023l-0.091,0.023l-0.092,0.022l-0.092,0.021l-0.093,0.02l-0.093,0.02l-0.094,0.02l-0.094,0.019l-0.095,0.018l-0.095,0.018l-0.096,0.017l-0.096,0.016l-0.096,0.016l-0.097,0.015l-0.097,0.015l-0.098,0.014l-0.098,0.013l-0.099,0.013l-0.098,0.012l-0.1,0.011l-0.099,0.011l-0.1,0.01l-0.101,0.01l-0.1,0.009l-0.101,0.008l-0.102,0.007l-0.102,0.007l-0.102,0.006l-0.102,0.005l-0.103,0.005l-0.103,0.004l-0.103,0.003l-0.103,0.003l-0.104,0.002l-0.104,0.001l-0.105,0.001l-0.104,0l-0.105,-0.001l-0.105,-0.002l-0.106,-0.002l-0.105,-0.004l-0.106,-0.004l-0.106,-0.004l-0.053,-0.003l-0.053,-0.003l-0.054,-0.003l-0.053,-0.003l-0.053,-0.003l-0.053,-0.004l-0.054,-0.003l-0.053,-0.004l-0.054,-0.004l-0.053,-0.005l-0.054,-0.004l-0.053,-0.005l-0.054,-0.005l-0.054,-0.005l-0.053,-0.005l-0.055,-0.006l-0.043,-0.005l-0.048,-0.005l-0.053,-0.007l-0.058,-0.009l-0.063,-0.009l-0.067,-0.011l-0.072,-0.012l-0.076,-0.013l-0.08,-0.015l-0.085,-0.016l-0.089,-0.018l-0.046,-0.009l-0.046,-0.01l-0.048,-0.01l-0.049,-0.011l-0.049,-0.011l-0.051,-0.011l-0.051,-0.012l-0.052,-0.013l-0.053,-0.012l-0.054,-0.013l-0.054,-0.014l-0.056,-0.014l-0.056,-0.015l-0.056,-0.015l-0.058,-0.015l-0.058,-0.016l-0.059,-0.016l-0.059,-0.017l-0.061,-0.018l-0.06,-0.017l-0.062,-0.019l-0.062,-0.019l-0.062,-0.019l-0.063,-0.02l-0.064,-0.02l-0.064,-0.021l-0.065,-0.022l-0.065,-0.022l-0.065,-0.022l-0.066,-0.024l-0.067,-0.023l-0.066,-0.024l-0.068,-0.025l-0.067,-0.026l-0.068,-0.026l-0.068,-0.026l-0.069,-0.027l-0.068,-0.028l-0.069,-0.029l-0.07,-0.029l-0.069,-0.029l-0.07,-0.03l-0.07,-0.031l-0.07,-0.032l-0.07,-0.032l-0.07,-0.033l-0.071,-0.033l-0.07,-0.034l-0.071,-0.035l-0.071,-0.036l-0.07,-0.036l-0.071,-0.037l-0.071,-0.037l-0.071,-0.039l-0.07,-0.039l-0.071,-0.039l-0.071,-0.041l-0.07,-0.041l-0.07,-0.042l-0.071,-0.042l-0.07,-0.044l-0.069,-0.044l-0.035,-0.022l-0.035,-0.023l-0.035,-0.023l-0.035,-0.022l-0.034,-0.024l-0.035,-0.023l-0.034,-0.024l-0.035,-0.023l-0.034,-0.024l-0.035,-0.024l-0.034,-0.025l-0.034,-0.024l-0.034,-0.025l-0.034,-0.025l-0.034,-0.025l-0.034,-0.026l-0.034,-0.025l-0.033,-0.026l-0.034,-0.026l-0.034,-0.026l-0.033,-0.026l-0.033,-0.027l-0.033,-0.027l-0.033,-0.027l-0.033,-0.027l-0.033,-0.027l-0.033,-0.028l-0.033,-0.028l-0.032,-0.028l-0.033,-0.028l-0.032,-0.029l-0.032,-0.029l-0.032,-0.029l-0.032,-0.029l-0.032,-0.029l-0.031,-0.03l-0.032,-0.03l-0.031,-0.03l-0.031,-0.03l-0.031,-0.031l-0.031,-0.03l-0.031,-0.031l-0.03,-0.032l-0.031,-0.031l-0.03,-0.032l-0.03,-0.032l-0.03,-0.032l-0.03,-0.032l-0.029,-0.033l-0.03,-0.033l-0.029,-0.033l-0.029,-0.033l-0.029,-0.034l-0.028,-0.033l-0.029,-0.034l-0.028,-0.035l-0.028,-0.034l-0.028,-0.035l-0.028,-0.035l-0.027,-0.035l-0.028,-0.036l-0.026,-0.035l-0.027,-0.036l-0.027,-0.036l-0.026,-0.037l-0.027,-0.037l-0.026,-0.037l-0.025,-0.037l-0.026,-0.037l-0.025,-0.038l-0.025,-0.037l-0.025,-0.039l-0.024,-0.038l-0.025,-0.039l-0.024,-0.039l-0.024,-0.039l-0.023,-0.039l-0.024,-0.04l-0.022,-0.04l-0.023,-0.04l-0.023,-0.041l-0.022,-0.04l-0.022,-0.041l-0.022,-0.041l-0.021,-0.042l-0.021,-0.041l-0.021,-0.042l-0.019,-0.039l-0.017,-0.033l-0.021,-0.043l-0.027,-0.058l-0.034,-0.072l-0.019,-0.042l-0.02,-0.044l-0.022,-0.048l-0.023,-0.052l-0.024,-0.054l-0.025,-0.058l-0.026,-0.06l-0.027,-0.064l-0.027,-0.067l-0.029,-0.069l-0.029,-0.072l-0.03,-0.075l-0.03,-0.077l-0.031,-0.08l-0.031,-0.082l-0.031,-0.085l-0.032,-0.087l-0.032,-0.089l-0.032,-0.092l-0.032,-0.093l-0.031,-0.095l-0.016,-0.049l-0.016,-0.049l-0.016,-0.049l-0.016,-0.05l-0.016,-0.051l-0.015,-0.051l-0.016,-0.051l-0.015,-0.051l-0.016,-0.053l-0.015,-0.052l-0.015,-0.053l-0.015,-0.053l-0.015,-0.054l-0.015,-0.054l-0.014,-0.055l-0.015,-0.055l-0.014,-0.055l-0.014,-0.055l-0.014,-0.056l-0.013,-0.056l-0.014,-0.057l-0.013,-0.056l-0.013,-0.058l-0.012,-0.057l-0.013,-0.057l-0.012,-0.058l-0.012,-0.059l-0.012,-0.058l-0.011,-0.059l-0.011,-0.059l-0.011,-0.059l-0.01,-0.059l-0.01,-0.06l-0.01,-0.06l-0.009,-0.06l-0.009,-0.06l-0.009,-0.06l-0.008,-0.061l-0.008,-0.061l-0.007,-0.061l-0.008,-0.061l-0.006,-0.061l-0.006,-0.061l-0.006,-0.062l-0.005,-0.061l-0.005,-0.062l-0.005,-0.062l-0.004,-0.062l-0.003,-0.062l-0.003,-0.062l-0.002,-0.062l-0.002,-0.062l-0.002,-0.062l-0.001,-0.062l0,-0.063l0.001,-0.062l0,-0.062l0.002,-0.063l0.002,-0.062l0.003,-0.062l0.003,-0.063l0.004,-0.062l0.005,-0.062l0.005,-0.063l0.006,-0.062l0.006,-0.06l0.01,-0.09l0.01,-0.088l0.009,-0.087l0.009,-0.087l0.009,-0.086l0.008,-0.085l0.008,-0.085l0.008,-0.084l0.008,-0.084l0.007,-0.084l0.007,-0.082l0.007,-0.083l0.006,-0.081l0.007,-0.082l0.006,-0.08l0.006,-0.08l0.005,-0.08l0.005,-0.079l0.006,-0.079l0.004,-0.078l0.005,-0.077l0.004,-0.078l0.005,-0.076l0.003,-0.076l0.004,-0.076l0.004,-0.075l0.003,-0.075l0.003,-0.074l0.003,-0.074l0.002,-0.073l0.003,-0.073l0.002,-0.072l0.002,-0.072l0.001,-0.072l0.002,-0.071l0.001,-0.07l0.001,-0.07l0.001,-0.07l0.001,-0.069l0.001,-0.069l0,-0.068l0,-0.068l0,-0.068l0,-0.067l-0.001,-0.066l0,-0.067l-0.001,-0.066l-0.001,-0.065l-0.001,-0.065l-0.001,-0.065l-0.002,-0.064l-0.001,-0.063l-0.004,-0.127l-0.005,-0.125l-0.005,-0.124l-0.005,-0.122l-0.006,-0.12l-0.007,-0.119l-0.007,-0.118l-0.008,-0.117l-0.009,-0.115l-0.009,-0.114l-0.009,-0.112l-0.01,-0.112l-0.01,-0.11l-0.011,-0.109l-0.011,-0.108l-0.012,-0.106l-0.012,-0.106l-0.012,-0.104l-0.012,-0.104l-0.014,-0.102l-0.013,-0.102l-0.013,-0.101l-0.014,-0.099l-0.014,-0.099l-0.015,-0.098l-0.014,-0.097l-0.015,-0.096l-0.015,-0.096l-0.016,-0.095l-0.015,-0.094l-0.016,-0.093l-0.015,-0.093l-0.016,-0.092l-0.016,-0.092l-0.032,-0.182l-0.032,-0.179l-0.032,-0.178l-0.032,-0.176l-0.032,-0.175l-0.032,-0.173l-0.031,-0.173l-0.03,-0.172l-0.015,-0.086l-0.015,-0.086l-0.015,-0.086l-0.014,-0.086l-0.014,-0.086l-0.013,-0.085l-0.014,-0.086l-0.013,-0.086l-0.012,-0.086l-0.013,-0.086l-0.011,-0.086l-0.012,-0.087l-0.011,-0.087l-0.011,-0.086l-0.01,-0.087l-0.009,-0.088l-0.009,-0.088l-0.009,-0.088l-0.008,-0.088l-0.007,-0.089l-0.007,-0.089l-0.007,-0.089l-0.005,-0.09l-0.005,-0.091l-0.005,-0.091l-0.003,-0.091l-0.003,-0.092l-0.001,-0.046l-0.001,-0.047l-0.001,-0.046l-0.001,-0.046l0,-0.047l0,-0.047l0,-0.047l0,-0.047l0,-0.048l0.001,-0.047l0,-0.048l0.001,-0.048l0.002,-0.048l0.001,-0.048l0.002,-0.049l0.001,-0.048l0.002,-0.049l0.003,-0.049l0.002,-0.049l0.003,-0.049l0.003,-0.05l0.003,-0.049l0.003,-0.05l0.004,-0.05l0.004,-0.051l0.004,-0.05l0.004,-0.051l0.005,-0.051l0.005,-0.051l0.005,-0.051l0.005,-0.052l0.006,-0.051l0.006,-0.053l0.006,-0.052l0.006,-0.052l0.007,-0.053l0.007,-0.053l0.007,-0.053l0.007,-0.053l0.008,-0.054l0.008,-0.054l0.008,-0.054l0.009,-0.055l0.008,-0.054l0.01,-0.055l0.009,-0.055l0.01,-0.056l0.01,-0.056l0.01,-0.056l0.01,-0.056l0.015,-0.078l0.015,-0.078l0.016,-0.079l0.016,-0.079l0.017,-0.079l0.017,-0.079l0.017,-0.08l0.018,-0.08l0.018,-0.08l0.019,-0.08l0.019,-0.081l0.02,-0.08l0.02,-0.081l0.02,-0.081l0.021,-0.081l0.022,-0.082l0.022,-0.081l0.022,-0.081l0.023,-0.082l0.023,-0.081l0.024,-0.081l0.024,-0.082l0.025,-0.081l0.025,-0.082l0.026,-0.081l0.026,-0.081l0.027,-0.082l0.027,-0.081l0.028,-0.081l0.029,-0.081l0.028,-0.081l0.03,-0.08l0.03,-0.081l0.03,-0.08l0.031,-0.08l0.032,-0.08l0.032,-0.08l0.032,-0.079l0.033,-0.08l0.034,-0.079l0.034,-0.078l0.035,-0.078l0.036,-0.078l0.036,-0.078l0.036,-0.077l0.037,-0.077l0.038,-0.077l0.039,-0.076l0.039,-0.076l0.039,-0.074l0.02,-0.038l0.021,-0.038l0.02,-0.037l0.02,-0.037l0.021,-0.037l0.021,-0.037l0.021,-0.036l0.021,-0.037l0.021,-0.036l0.022,-0.037l0.022,-0.036l0.021,-0.036l0.022,-0.036l0.022,-0.036l0.023,-0.035l0.022,-0.036l0.023,-0.035l0.022,-0.035l0.023,-0.036l0.023,-0.034l0.024,-0.035l0.023,-0.035l0.024,-0.034l0.024,-0.035l0.024,-0.034l0.024,-0.034l0.024,-0.033l0.024,-0.034l0.027,-0.036l0.027,-0.036l0.027,-0.036l0.028,-0.036l0.027,-0.036l0.028,-0.036l0.028,-0.035l0.028,-0.035l0.028,-0.036l0.029,-0.035l0.028,-0.034l0.029,-0.035l0.029,-0.035l0.029,-0.034l0.03,-0.034l0.029,-0.035l0.03,-0.034l0.03,-0.033l0.03,-0.034l0.03,-0.034l0.03,-0.033l0.031,-0.033l0.03,-0.034l0.031,-0.033l0.031,-0.033l0.031,-0.032l0.032,-0.033l0.031,-0.032l0.032,-0.032l0.032,-0.033l0.032,-0.031l0.032,-0.032l0.032,-0.032l0.033,-0.031l0.032,-0.032l0.033,-0.031l0.033,-0.031l0.033,-0.031l0.033,-0.03l0.033,-0.031l0.034,-0.03l0.034,-0.031l0.033,-0.03l0.034,-0.03l0.034,-0.03l0.035,-0.029l0.034,-0.03l0.035,-0.029l0.034,-0.029l0.035,-0.029l0.035,-0.029l0.035,-0.029l0.035,-0.029l0.036,-0.028l0.035,-0.028l0.036,-0.029l0.036,-0.028l0.035,-0.027l0.036,-0.028l0.037,-0.027l0.036,-0.028l0.036,-0.027l0.037,-0.027l0.036,-0.027l0.037,-0.027l0.037,-0.026l0.037,-0.027l0.037,-0.026l0.038,-0.026l0.037,-0.026l0.038,-0.026l0.037,-0.025l0.038,-0.026l0.038,-0.025l0.038,-0.025l0.038,-0.025l0.038,-0.025l0.039,-0.024l0.038,-0.025l0.039,-0.024l0.038,-0.024l0.039,-0.024l0.039,-0.024l0.039,-0.024l0.039,-0.023l0.04,-0.024l0.039,-0.023l0.039,-0.023l0.04,-0.023l0.039,-0.023l0.04,-0.022l0.04,-0.022l0.04,-0.023l0.04,-0.022l0.04,-0.022l0.041,-0.021l0.04,-0.022l0.04,-0.021l0.041,-0.021l0.04,-0.021l0.041,-0.021l0.041,-0.021l0.041,-0.021l0.041,-0.02l0.041,-0.02l0.041,-0.02l0.041,-0.02l0.042,-0.02l0.041,-0.019l0.042,-0.02l0.041,-0.019l0.042,-0.019l0.042,-0.019l0.042,-0.019l0.042,-0.018l0.042,-0.018l0.042,-0.019l0.042,-0.018l0.042,-0.018l0.043,-0.017l0.084,-0.035l0.086,-0.034l0.085,-0.034l0.086,-0.032l0.086,-0.032l0.086,-0.032l0.087,-0.03l0.086,-0.03l0.087,-0.03l0.088,-0.028l0.087,-0.028l0.088,-0.027l0.088,-0.027l0.088,-0.025l0.088,-0.025l0.089,-0.025l0.089,-0.023l0.089,-0.023l0.089,-0.022l0.089,-0.022l0.089,-0.02l0.045,-0.01l0.045,-0.01l0.045,-0.01l0.045,-0.009l0.045,-0.01l0.045,-0.009l0.045,-0.009l0.045,-0.008l0.045,-0.009l0.045,-0.008l0.045,-0.009l0.045,-0.008l0.045,-0.007l0.045,-0.008l0.046,-0.008l0.045,-0.007l0.045,-0.007l0.045,-0.007l0.046,-0.006l0.045,-0.007l0.045,-0.006l0.046,-0.006l0.045,-0.006l0.046,-0.006l0.045,-0.006l0.046,-0.005l0.045,-0.005l0.045,-0.005l0.046,-0.005l0.046,-0.005l0.045,-0.004l0.045,-0.004l0.046,-0.004l0.046,-0.004l0.045,-0.004l0.046,-0.003l0.045,-0.003l0.046,-0.003l0.045,-0.003l0.046,-0.003l0.046,-0.002l0.045,-0.003l0.046,-0.002l0.045,-0.002l0.046,-0.001l0.046,-0.002l0.045,-0.001l0.046,-0.001l0.045,-0.001l0.046,-0.001l0.046,0l0.045,-0.001l0.046,0l0.045,0Zm-0.087,0.878l-0.042,0l-0.042,0l-0.041,0.001l-0.042,0.001l-0.042,0.001l-0.042,0.001l-0.042,0.001l-0.041,0.002l-0.042,0.002l-0.042,0.002l-0.042,0.002l-0.042,0.002l-0.042,0.002l-0.041,0.003l-0.042,0.003l-0.042,0.003l-0.042,0.003l-0.042,0.003l-0.042,0.004l-0.041,0.003l-0.042,0.004l-0.042,0.004l-0.042,0.005l-0.042,0.004l-0.042,0.005l-0.041,0.004l-0.042,0.005l-0.042,0.005l-0.042,0.006l-0.042,0.005l-0.041,0.006l-0.042,0.006l-0.042,0.006l-0.041,0.006l-0.042,0.006l-0.042,0.007l-0.042,0.006l-0.041,0.007l-0.042,0.007l-0.041,0.007l-0.042,0.008l-0.042,0.007l-0.041,0.008l-0.042,0.008l-0.041,0.008l-0.041,0.008l-0.042,0.009l-0.041,0.008l-0.042,0.009l-0.041,0.009l-0.041,0.009l-0.041,0.009l-0.083,0.019l-0.082,0.02l-0.083,0.021l-0.082,0.021l-0.081,0.021l-0.082,0.023l-0.082,0.023l-0.081,0.023l-0.081,0.025l-0.081,0.025l-0.081,0.026l-0.08,0.026l-0.081,0.027l-0.08,0.028l-0.08,0.028l-0.079,0.029l-0.079,0.029l-0.08,0.031l-0.078,0.03l-0.079,0.032l-0.079,0.032l-0.038,0.016l-0.039,0.017l-0.039,0.016l-0.039,0.017l-0.039,0.017l-0.038,0.017l-0.039,0.017l-0.038,0.018l-0.039,0.017l-0.038,0.018l-0.038,0.018l-0.038,0.018l-0.038,0.018l-0.039,0.018l-0.037,0.019l-0.038,0.018l-0.038,0.019l-0.038,0.019l-0.037,0.019l-0.038,0.019l-0.037,0.02l-0.037,0.019l-0.038,0.02l-0.037,0.02l-0.037,0.02l-0.037,0.02l-0.036,0.02l-0.037,0.02l-0.037,0.021l-0.036,0.021l-0.037,0.02l-0.036,0.022l-0.036,0.021l-0.036,0.021l-0.037,0.021l-0.035,0.022l-0.036,0.022l-0.036,0.022l-0.035,0.022l-0.036,0.022l-0.035,0.022l-0.036,0.023l-0.035,0.022l-0.035,0.023l-0.035,0.023l-0.035,0.023l-0.034,0.023l-0.035,0.023l-0.035,0.024l-0.034,0.023l-0.034,0.024l-0.034,0.024l-0.034,0.024l-0.034,0.024l-0.034,0.024l-0.034,0.025l-0.033,0.024l-0.034,0.025l-0.033,0.025l-0.033,0.025l-0.033,0.025l-0.033,0.025l-0.033,0.026l-0.032,0.025l-0.033,0.026l-0.032,0.026l-0.032,0.026l-0.033,0.026l-0.032,0.026l-0.031,0.026l-0.032,0.027l-0.032,0.026l-0.031,0.027l-0.031,0.027l-0.032,0.027l-0.031,0.027l-0.031,0.027l-0.03,0.028l-0.031,0.027l-0.03,0.028l-0.031,0.028l-0.03,0.028l-0.03,0.028l-0.03,0.028l-0.029,0.028l-0.03,0.029l-0.03,0.028l-0.029,0.029l-0.029,0.029l-0.029,0.029l-0.029,0.029l-0.028,0.029l-0.029,0.029l-0.028,0.03l-0.029,0.029l-0.028,0.03l-0.028,0.03l-0.027,0.03l-0.028,0.03l-0.027,0.03l-0.028,0.031l-0.027,0.03l-0.027,0.031l-0.026,0.03l-0.027,0.031l-0.027,0.031l-0.026,0.031l-0.026,0.031l-0.026,0.032l-0.026,0.031l-0.025,0.032l-0.026,0.031l-0.025,0.032l-0.025,0.032l-0.025,0.032l-0.025,0.032l-0.024,0.032l-0.025,0.033l-0.024,0.032l-0.024,0.033l-0.022,0.03l-0.021,0.029l-0.021,0.03l-0.021,0.03l-0.021,0.03l-0.021,0.031l-0.021,0.03l-0.021,0.031l-0.02,0.031l-0.02,0.031l-0.021,0.031l-0.02,0.032l-0.02,0.031l-0.02,0.032l-0.019,0.032l-0.02,0.032l-0.02,0.033l-0.019,0.032l-0.019,0.033l-0.019,0.033l-0.019,0.032l-0.019,0.034l-0.019,0.033l-0.019,0.033l-0.018,0.034l-0.019,0.034l-0.018,0.034l-0.018,0.033l-0.036,0.069l-0.036,0.069l-0.035,0.069l-0.034,0.07l-0.034,0.07l-0.034,0.071l-0.033,0.072l-0.033,0.071l-0.032,0.073l-0.032,0.072l-0.031,0.073l-0.031,0.074l-0.03,0.073l-0.03,0.074l-0.029,0.075l-0.029,0.074l-0.028,0.075l-0.028,0.075l-0.027,0.076l-0.027,0.075l-0.027,0.076l-0.026,0.076l-0.026,0.076l-0.025,0.077l-0.024,0.076l-0.025,0.077l-0.023,0.076l-0.024,0.077l-0.023,0.077l-0.022,0.077l-0.022,0.077l-0.022,0.077l-0.021,0.077l-0.021,0.077l-0.02,0.077l-0.02,0.076l-0.019,0.077l-0.019,0.077l-0.019,0.076l-0.018,0.077l-0.018,0.076l-0.017,0.076l-0.017,0.076l-0.017,0.076l-0.016,0.076l-0.016,0.075l-0.015,0.075l-0.015,0.075l-0.015,0.074l-0.014,0.075l-0.01,0.052l-0.009,0.053l-0.01,0.052l-0.008,0.052l-0.009,0.051l-0.009,0.052l-0.008,0.051l-0.008,0.05l-0.008,0.051l-0.007,0.05l-0.007,0.05l-0.007,0.05l-0.007,0.049l-0.006,0.049l-0.006,0.049l-0.006,0.049l-0.006,0.049l-0.005,0.047l-0.005,0.049l-0.005,0.047l-0.005,0.048l-0.005,0.047l-0.004,0.047l-0.004,0.047l-0.004,0.047l-0.003,0.046l-0.004,0.046l-0.003,0.046l-0.003,0.046l-0.002,0.046l-0.003,0.045l-0.002,0.046l-0.002,0.045l-0.002,0.045l-0.002,0.044l-0.001,0.045l-0.002,0.044l-0.001,0.045l-0.001,0.044l0,0.044l-0.001,0.043l0,0.044l0,0.044l0,0.043l0,0.043l0,0.043l0.001,0.044l0.001,0.042l0.001,0.043l0.001,0.042l0.003,0.085l0.003,0.085l0.004,0.084l0.004,0.084l0.006,0.084l0.006,0.083l0.006,0.083l0.007,0.083l0.007,0.082l0.008,0.082l0.009,0.083l0.009,0.082l0.01,0.082l0.01,0.082l0.01,0.082l0.011,0.082l0.011,0.082l0.012,0.082l0.012,0.083l0.012,0.082l0.013,0.082l0.013,0.083l0.014,0.083l0.014,0.083l0.014,0.084l0.014,0.084l0.015,0.083l0.03,0.17l0.03,0.17l0.032,0.173l0.031,0.174l0.033,0.177l0.032,0.179l0.033,0.182l0.032,0.184l0.016,0.094l0.017,0.094l0.016,0.095l0.016,0.095l0.015,0.097l0.016,0.097l0.015,0.098l0.016,0.1l0.015,0.1l0.015,0.101l0.014,0.102l0.015,0.103l0.014,0.104l0.014,0.105l0.013,0.107l0.013,0.107l0.013,0.109l0.012,0.109l0.012,0.111l0.012,0.112l0.011,0.113l0.011,0.115l0.01,0.116l0.01,0.117l0.009,0.118l0.009,0.12l0.008,0.121l0.008,0.122l0.007,0.124l0.006,0.126l0.006,0.126l0.005,0.129l0.005,0.129l0.003,0.132l0.002,0.066l0.002,0.067l0.001,0.067l0.001,0.067l0.001,0.068l0.001,0.068l0.001,0.069l0,0.069l0,0.07l0,0.07l0,0.07l0,0.071l-0.001,0.071l-0.001,0.072l-0.001,0.072l-0.001,0.072l-0.001,0.073l-0.002,0.073l-0.001,0.074l-0.002,0.075l-0.003,0.074l-0.002,0.075l-0.003,0.076l-0.003,0.076l-0.003,0.077l-0.003,0.077l-0.004,0.077l-0.003,0.078l-0.004,0.079l-0.005,0.079l-0.004,0.079l-0.005,0.08l-0.005,0.081l-0.005,0.081l-0.006,0.081l-0.005,0.082l-0.006,0.082l-0.007,0.083l-0.006,0.084l-0.007,0.084l-0.007,0.084l-0.007,0.085l-0.008,0.086l-0.008,0.086l-0.008,0.087l-0.008,0.087l-0.009,0.087l-0.008,0.089l-0.01,0.088l-0.009,0.09l-0.01,0.089l-0.01,0.089l-0.005,0.054l-0.005,0.053l-0.005,0.053l-0.004,0.053l-0.003,0.053l-0.003,0.054l-0.002,0.054l-0.002,0.053l-0.001,0.054l-0.001,0.055l-0.001,0.054l0.001,0.054l0,0.055l0.002,0.054l0.001,0.055l0.002,0.055l0.003,0.055l0.003,0.055l0.004,0.055l0.003,0.055l0.005,0.054l0.005,0.055l0.005,0.056l0.005,0.055l0.006,0.055l0.007,0.055l0.006,0.054l0.007,0.055l0.008,0.055l0.008,0.055l0.008,0.055l0.008,0.054l0.009,0.055l0.01,0.054l0.009,0.054l0.01,0.055l0.01,0.054l0.01,0.053l0.011,0.054l0.011,0.053l0.011,0.054l0.012,0.053l0.011,0.053l0.012,0.053l0.012,0.052l0.013,0.052l0.012,0.053l0.013,0.051l0.013,0.052l0.013,0.051l0.014,0.051l0.013,0.05l0.014,0.051l0.014,0.05l0.014,0.05l0.014,0.049l0.014,0.049l0.014,0.049l0.015,0.048l0.015,0.048l0.014,0.048l0.015,0.047l0.015,0.046l0.015,0.047l0.014,0.046l0.015,0.045l0.03,0.09l0.03,0.088l0.03,0.086l0.03,0.084l0.03,0.081l0.03,0.08l0.029,0.077l0.029,0.076l0.028,0.072l0.028,0.071l0.028,0.067l0.026,0.065l0.026,0.063l0.026,0.059l0.024,0.057l0.023,0.054l0.023,0.051l0.021,0.047l0.02,0.045l0.019,0.041l0.017,0.038l0.031,0.066l0.025,0.052l0.018,0.037l0.016,0.032l0.019,0.039l0.017,0.036l0.019,0.035l0.018,0.036l0.018,0.035l0.019,0.035l0.019,0.034l0.019,0.035l0.02,0.034l0.02,0.035l0.019,0.033l0.021,0.034l0.02,0.033l0.021,0.034l0.021,0.033l0.02,0.033l0.022,0.033l0.021,0.032l0.022,0.033l0.022,0.032l0.022,0.032l0.022,0.031l0.023,0.032l0.023,0.031l0.022,0.031l0.024,0.031l0.023,0.031l0.023,0.031l0.024,0.03l0.024,0.03l0.024,0.03l0.025,0.03l0.024,0.03l0.025,0.029l0.024,0.03l0.026,0.029l0.025,0.029l0.025,0.029l0.026,0.028l0.025,0.028l0.026,0.029l0.026,0.028l0.027,0.028l0.026,0.027l0.027,0.028l0.026,0.027l0.027,0.027l0.027,0.027l0.028,0.027l0.027,0.027l0.027,0.026l0.028,0.026l0.028,0.026l0.028,0.026l0.028,0.026l0.028,0.025l0.028,0.026l0.029,0.025l0.028,0.025l0.029,0.025l0.029,0.025l0.029,0.024l0.029,0.024l0.029,0.024l0.03,0.024l0.029,0.024l0.03,0.024l0.03,0.023l0.029,0.024l0.03,0.023l0.03,0.023l0.031,0.023l0.03,0.023l0.03,0.022l0.031,0.022l0.03,0.022l0.031,0.022l0.031,0.022l0.03,0.022l0.031,0.021l0.031,0.022l0.031,0.021l0.032,0.021l0.031,0.021l0.031,0.021l0.032,0.02l0.031,0.02l0.031,0.02l0.064,0.041l0.063,0.039l0.064,0.039l0.064,0.038l0.064,0.037l0.064,0.037l0.064,0.036l0.065,0.036l0.065,0.035l0.064,0.034l0.065,0.034l0.065,0.033l0.065,0.032l0.065,0.032l0.064,0.032l0.065,0.031l0.065,0.03l0.065,0.029l0.064,0.03l0.065,0.028l0.064,0.028l0.065,0.027l0.064,0.027l0.064,0.026l0.064,0.026l0.063,0.025l0.063,0.025l0.063,0.024l0.063,0.024l0.062,0.023l0.063,0.022l0.061,0.022l0.062,0.022l0.061,0.021l0.06,0.021l0.061,0.02l0.059,0.019l0.06,0.019l0.058,0.019l0.059,0.018l0.058,0.017l0.057,0.017l0.057,0.017l0.056,0.016l0.055,0.016l0.055,0.015l0.055,0.015l0.053,0.015l0.053,0.014l0.053,0.013l0.051,0.013l0.051,0.013l0.05,0.012l0.049,0.012l0.049,0.012l0.047,0.011l0.047,0.01l0.046,0.011l0.046,0.009l0.044,0.01l0.043,0.009l0.042,0.009l0.082,0.016l0.078,0.015l0.074,0.014l0.069,0.012l0.065,0.011l0.06,0.009l0.056,0.008l0.05,0.007l0.045,0.006l0.039,0.005l0.034,0.004l0.049,0.005l0.051,0.005l0.05,0.005l0.051,0.004l0.051,0.005l0.05,0.004l0.05,0.004l0.051,0.004l0.05,0.004l0.05,0.003l0.051,0.004l0.05,0.003l0.05,0.003l0.05,0.003l0.05,0.002l0.05,0.003l0.1,0.004l0.1,0.004l0.099,0.003l0.1,0.002l0.099,0.001l0.098,0.001l0.099,0.001l0.098,-0.001l0.098,-0.001l0.098,-0.002l0.098,-0.002l0.097,-0.004l0.097,-0.003l0.097,-0.005l0.096,-0.005l0.096,-0.006l0.096,-0.006l0.095,-0.007l0.095,-0.008l0.095,-0.008l0.094,-0.009l0.094,-0.009l0.094,-0.01l0.093,-0.011l0.093,-0.012l0.093,-0.011l0.092,-0.013l0.092,-0.013l0.091,-0.014l0.091,-0.014l0.09,-0.015l0.09,-0.015l0.09,-0.016l0.089,-0.017l0.088,-0.017l0.089,-0.018l0.087,-0.018l0.088,-0.019l0.086,-0.019l0.086,-0.02l0.086,-0.02l0.085,-0.021l0.085,-0.021l0.084,-0.022l0.084,-0.023l0.083,-0.023l0.082,-0.023l0.082,-0.024l0.081,-0.024l0.081,-0.025l0.08,-0.025l0.08,-0.026l0.079,-0.027l0.078,-0.026l0.078,-0.028l0.077,-0.027l0.077,-0.028l0.075,-0.029l0.076,-0.029l0.074,-0.029l0.074,-0.03l0.073,-0.03l0.072,-0.031l0.072,-0.031l0.071,-0.032l0.07,-0.032l0.07,-0.032l0.069,-0.033l0.068,-0.033l0.068,-0.033l0.066,-0.034l0.066,-0.034l0.065,-0.034l0.064,-0.035l0.065,-0.036l0.031,-0.017l0.031,-0.018l0.031,-0.018l0.031,-0.018l0.031,-0.018l0.03,-0.018l0.03,-0.018l0.03,-0.019l0.03,-0.018l0.03,-0.018l0.029,-0.019l0.03,-0.019l0.029,-0.018l0.028,-0.019l0.029,-0.019l0.028,-0.019l0.028,-0.019l0.029,-0.019l0.027,-0.019l0.028,-0.019l0.027,-0.019l0.027,-0.02l0.027,-0.019l0.027,-0.019l0.026,-0.02l0.026,-0.019l0.026,-0.02l0.026,-0.02l0.026,-0.02l0.025,-0.019l0.025,-0.02l0.025,-0.02l0.025,-0.02l0.024,-0.02l0.024,-0.02l0.024,-0.02l0.024,-0.021l0.023,-0.02l0.023,-0.02l0.023,-0.021l0.023,-0.02l0.023,-0.02l0.022,-0.021l0.022,-0.02l0.022,-0.021l0.021,-0.021l0.022,-0.02l0.021,-0.021l0.021,-0.021l0.02,-0.021l0.021,-0.02l0.02,-0.021l0.02,-0.021l0.019,-0.021l0.02,-0.021l0.019,-0.021l0.019,-0.021l0.019,-0.021l0.018,-0.021l0.018,-0.022l0.018,-0.02l0.018,-0.022l0.017,-0.021l0.017,-0.021l0.017,-0.021l0.017,-0.022l0.016,-0.021l0.016,-0.021l0.016,-0.022l0.016,-0.021l0.015,-0.021l0.016,-0.022l0.014,-0.021l0.015,-0.022l0.014,-0.021l0.015,-0.022l0.013,-0.021l0.014,-0.022l0.014,-0.021l0.013,-0.022l0.012,-0.021l0.013,-0.021l0.012,-0.022l0.012,-0.022l0.012,-0.021l0.012,-0.022l0.011,-0.021l0.011,-0.022l0.011,-0.021l0.011,-0.022l0.027,-0.058l0.028,-0.057l0.027,-0.057l0.026,-0.057l0.026,-0.058l0.026,-0.056l0.025,-0.057l0.025,-0.057l0.025,-0.056l0.024,-0.056l0.024,-0.056l0.023,-0.057l0.023,-0.056l0.023,-0.056l0.022,-0.055l0.022,-0.056l0.022,-0.056l0.021,-0.055l0.021,-0.056l0.02,-0.055l0.02,-0.056l0.02,-0.055l0.019,-0.056l0.019,-0.055l0.019,-0.055l0.018,-0.056l0.018,-0.055l0.017,-0.055l0.018,-0.056l0.016,-0.055l0.017,-0.055l0.016,-0.056l0.016,-0.055l0.015,-0.056l0.015,-0.055l0.015,-0.056l0.015,-0.056l0.014,-0.056l0.013,-0.055l0.014,-0.056l0.013,-0.057l0.013,-0.056l0.012,-0.056l0.012,-0.056l0.012,-0.057l0.012,-0.056l0.011,-0.057l0.011,-0.057l0.01,-0.057l0.01,-0.058l0.01,-0.057l0.01,-0.058l0.009,-0.058l0.009,-0.058l0.008,-0.058l0.009,-0.059l0.008,-0.058l0.007,-0.059l0.008,-0.059l0.007,-0.06l0.007,-0.059l0.006,-0.06l0.006,-0.06l0.006,-0.061l0.006,-0.06l0.005,-0.061l0.005,-0.062l0.004,-0.061l0.005,-0.062l0.004,-0.062l0.004,-0.063l0.003,-0.063l0.003,-0.063l0.003,-0.063l0.003,-0.064l0.002,-0.064l0.002,-0.065l0.002,-0.065l0.001,-0.065l0.002,-0.066l0,-0.066l0.001,-0.066l0,-0.067l0,-0.067l0,-0.068l0,-0.068l-0.001,-0.068l-0.001,-0.069l-0.002,-0.07l-0.001,-0.069l-0.002,-0.071l-0.003,-0.07l-0.002,-0.071l-0.003,-0.072l-0.003,-0.072l-0.003,-0.073l-0.004,-0.073l-0.003,-0.073l-0.005,-0.075l-0.004,-0.074l-0.005,-0.075l-0.004,-0.076l-0.006,-0.076l-0.005,-0.077l-0.006,-0.077l-0.006,-0.078l-0.006,-0.078l-0.006,-0.079l-0.007,-0.079l-0.007,-0.08l-0.007,-0.08l-0.008,-0.082l-0.007,-0.081l-0.008,-0.083l-0.009,-0.083l-0.008,-0.083l-0.009,-0.084l-0.009,-0.085l-0.018,-0.171l-0.02,-0.174l-0.021,-0.176l-0.021,-0.179l-0.023,-0.184l-0.006,-0.05l-0.005,-0.051l-0.004,-0.052l-0.004,-0.052l-0.003,-0.052l-0.002,-0.052l-0.002,-0.053l-0.001,-0.052l0,-0.054l0.001,-0.053l0.001,-0.053l0.002,-0.053l0.002,-0.054l0.003,-0.053l0.004,-0.054l0.004,-0.054l0.005,-0.054l0.005,-0.055l0.006,-0.054l0.007,-0.055l0.007,-0.054l0.007,-0.055l0.008,-0.055l0.008,-0.055l0.009,-0.055l0.01,-0.055l0.009,-0.056l0.011,-0.056l0.01,-0.055l0.011,-0.056l0.012,-0.056l0.012,-0.056l0.012,-0.056l0.013,-0.056l0.013,-0.057l0.013,-0.056l0.014,-0.057l0.013,-0.056l0.015,-0.057l0.015,-0.057l0.014,-0.056l0.016,-0.057l0.015,-0.057l0.016,-0.057l0.016,-0.057l0.016,-0.057l0.017,-0.057l0.017,-0.057l0.017,-0.058l0.017,-0.057l0.017,-0.057l0.018,-0.058l0.036,-0.114l0.036,-0.114l0.037,-0.115l0.038,-0.115l0.038,-0.114l0.038,-0.114l0.039,-0.114l0.039,-0.114l0.039,-0.113l0.039,-0.114l0.079,-0.225l0.077,-0.223l0.077,-0.221l0.038,-0.109l0.037,-0.109l0.037,-0.108l0.035,-0.107l0.036,-0.106l0.034,-0.106l0.033,-0.104l0.033,-0.103l0.032,-0.102l0.015,-0.05l0.015,-0.051l0.015,-0.05l0.014,-0.049l0.014,-0.049l0.014,-0.05l0.014,-0.048l0.013,-0.048l0.013,-0.048l0.012,-0.048l0.012,-0.047l0.012,-0.047l0.011,-0.046l0.011,-0.046l0.011,-0.045l0.01,-0.045l0.01,-0.045l0.009,-0.044l0.009,-0.044l0.008,-0.043l0.008,-0.043l0.008,-0.042l0.007,-0.041l0.007,-0.042l0.006,-0.04l0.006,-0.041l0.013,-0.097l0.012,-0.097l0.012,-0.098l0.012,-0.098l0.01,-0.098l0.011,-0.099l0.009,-0.098l0.01,-0.099l0.008,-0.099l0.008,-0.1l0.007,-0.099l0.007,-0.1l0.006,-0.1l0.006,-0.1l0.005,-0.1l0.004,-0.1l0.003,-0.1l0.003,-0.101l0.003,-0.1l0.001,-0.101l0.002,-0.1l0,-0.101l0,-0.101l-0.001,-0.101l-0.002,-0.101l-0.002,-0.1l-0.003,-0.101l-0.004,-0.102l-0.002,-0.05l-0.002,-0.05l-0.003,-0.051l-0.003,-0.05l-0.002,-0.05l-0.003,-0.051l-0.004,-0.05l-0.003,-0.051l-0.003,-0.05l-0.004,-0.05l-0.004,-0.051l-0.004,-0.05l-0.004,-0.05l-0.005,-0.051l-0.004,-0.05l-0.005,-0.05l-0.005,-0.051l-0.005,-0.05l-0.006,-0.05l-0.005,-0.05l-0.006,-0.05l-0.006,-0.05l-0.006,-0.05l-0.006,-0.051l-0.007,-0.05l-0.007,-0.049l-0.007,-0.05l-0.007,-0.05l-0.007,-0.05l-0.007,-0.05l-0.008,-0.05l-0.008,-0.05l-0.008,-0.049l-0.008,-0.05l-0.009,-0.049l-0.008,-0.05l-0.009,-0.05l-0.009,-0.049l-0.009,-0.049l-0.01,-0.05l-0.009,-0.049l-0.01,-0.049l-0.01,-0.05l-0.01,-0.049l-0.011,-0.049l-0.011,-0.049l-0.01,-0.049l-0.011,-0.049l-0.012,-0.049l-0.011,-0.048l-0.012,-0.049l-0.012,-0.049l-0.012,-0.048l-0.012,-0.049l-0.013,-0.048l-0.012,-0.049l-0.013,-0.048l-0.013,-0.048l-0.014,-0.048l-0.013,-0.049l-0.014,-0.048l-0.014,-0.048l-0.014,-0.047l-0.015,-0.048l-0.014,-0.048l-0.015,-0.047l-0.015,-0.048l-0.015,-0.047l-0.016,-0.048l-0.016,-0.047l-0.016,-0.047l-0.016,-0.047l-0.016,-0.047l-0.017,-0.047l-0.017,-0.047l-0.017,-0.047l-0.017,-0.046l-0.017,-0.047l-0.018,-0.046l-0.018,-0.047l-0.018,-0.046l-0.019,-0.046l-0.018,-0.046l-0.019,-0.046l-0.019,-0.046l-0.019,-0.045l-0.02,-0.046l-0.02,-0.045l-0.02,-0.046l-0.02,-0.045l-0.02,-0.045l-0.021,-0.045l-0.021,-0.045l-0.021,-0.045l-0.021,-0.045l-0.022,-0.045l-0.022,-0.044l-0.022,-0.044l-0.022,-0.044l-0.023,-0.045l-0.023,-0.044l-0.022,-0.043l-0.024,-0.044l-0.023,-0.044l-0.024,-0.043l-0.024,-0.044l-0.024,-0.043l-0.025,-0.043l-0.024,-0.043l-0.025,-0.043l-0.026,-0.043l-0.025,-0.042l-0.026,-0.043l-0.026,-0.042l-0.026,-0.042l-0.026,-0.042l-0.027,-0.042l-0.027,-0.042l-0.027,-0.041l-0.027,-0.042l-0.028,-0.041l-0.028,-0.041l-0.028,-0.041l-0.029,-0.041l-0.028,-0.041l-0.029,-0.041l-0.03,-0.04l-0.029,-0.04l-0.03,-0.04l-0.03,-0.04l-0.03,-0.04l-0.03,-0.04l-0.031,-0.04l-0.031,-0.039l-0.031,-0.039l-0.032,-0.039l-0.032,-0.039l-0.032,-0.039l-0.032,-0.038l-0.033,-0.039l-0.033,-0.038l-0.033,-0.038l-0.033,-0.038l-0.034,-0.038l-0.034,-0.037l-0.034,-0.038l-0.034,-0.037l-0.035,-0.037l-0.035,-0.037l-0.035,-0.037l-0.036,-0.036l-0.036,-0.037l-0.036,-0.036l-0.036,-0.036l-0.037,-0.036l-0.037,-0.036l-0.037,-0.035l-0.038,-0.035l-0.038,-0.036l-0.038,-0.035l-0.038,-0.034l-0.039,-0.035l-0.039,-0.034l-0.039,-0.035l-0.039,-0.034l-0.04,-0.034l-0.04,-0.033l-0.041,-0.034l-0.04,-0.033l-0.041,-0.033l-0.041,-0.033l-0.042,-0.033l-0.042,-0.032l-0.042,-0.033l-0.042,-0.032l-0.043,-0.032l-0.043,-0.032l-0.043,-0.031l-0.044,-0.031l-0.044,-0.032l-0.044,-0.03l-0.045,-0.031l-0.045,-0.031l-0.045,-0.03l-0.045,-0.03l-0.046,-0.03l-0.046,-0.03l-0.047,-0.029l-0.046,-0.029l-0.047,-0.03l-0.048,-0.028l-0.047,-0.029l-0.048,-0.028l-0.048,-0.029l-0.049,-0.028l-0.049,-0.027l-0.049,-0.028l-0.05,-0.027l-0.05,-0.027l-0.05,-0.027l-0.12,-0.064l-0.12,-0.063l-0.12,-0.062l-0.12,-0.063l-0.12,-0.061l-0.121,-0.061l-0.06,-0.03l-0.06,-0.03l-0.06,-0.029l-0.06,-0.03l-0.06,-0.029l-0.06,-0.029l-0.061,-0.029l-0.06,-0.028l-0.06,-0.029l-0.06,-0.028l-0.061,-0.028l-0.06,-0.027l-0.06,-0.028l-0.061,-0.027l-0.061,-0.027l-0.06,-0.026l-0.061,-0.026l-0.06,-0.026l-0.061,-0.026l-0.061,-0.025l-0.061,-0.025l-0.061,-0.025l-0.061,-0.024l-0.061,-0.025l-0.061,-0.023l-0.061,-0.024l-0.061,-0.023l-0.062,-0.022l-0.061,-0.023l-0.062,-0.022l-0.062,-0.021l-0.061,-0.022l-0.062,-0.021l-0.062,-0.02l-0.062,-0.02l-0.063,-0.02l-0.062,-0.019l-0.062,-0.019l-0.063,-0.018l-0.062,-0.018l-0.063,-0.018l-0.063,-0.017l-0.063,-0.017l-0.063,-0.016l-0.064,-0.016l-0.063,-0.016l-0.064,-0.015l-0.063,-0.014l-0.064,-0.014l-0.064,-0.014l-0.065,-0.013l-0.064,-0.012l-0.04,-0.008l-0.041,-0.007l-0.04,-0.008l-0.041,-0.007l-0.04,-0.007l-0.041,-0.006l-0.04,-0.007l-0.041,-0.006l-0.041,-0.006l-0.04,-0.006l-0.041,-0.006l-0.041,-0.005l-0.041,-0.005l-0.041,-0.006l-0.041,-0.005l-0.041,-0.004l-0.041,-0.005l-0.041,-0.004l-0.041,-0.004l-0.041,-0.004l-0.041,-0.004l-0.041,-0.004l-0.041,-0.003l-0.042,-0.004l-0.041,-0.003l-0.041,-0.003l-0.042,-0.002l-0.041,-0.003l-0.042,-0.002l-0.041,-0.002l-0.042,-0.002l-0.041,-0.002l-0.042,-0.001l-0.041,-0.002l-0.042,-0.001l-0.041,-0.001l-0.042,-0.001l-0.042,-0.001l-0.041,0l-0.042,0l-0.042,0l-0.041,0Z"/><path d="M36.458,93.827c-4.54,-0.791 -5.618,-2.905 -5.88,-3.87c-0.492,-1.817 -0.731,-5.34 -0.288,-7.213c0.153,-0.651 0.444,-1.392 0.939,-1.93c1.087,-1.184 5.951,-1.287 7.769,-1.009c0.728,0.111 1.385,0.363 2.035,0.639c2.264,0.96 3.042,12.063 -1.253,13.146c-1.147,0.289 -2.602,0.362 -3.322,0.237Z" style="fill:#b7f8ff;"/><g><path d="M34.323,76.233c0.143,0.456 0.23,1.326 0.525,1.689c0.143,0.176 0.434,0.165 0.623,0.158c1.086,-0.042 0.992,-1.152 1.085,-2.129" style="fill:#ededed;"/><path d="M36.577,75.623l0.017,0.002l0.017,0.002l0.017,0.003l0.016,0.004l0.016,0.005l0.016,0.006l0.016,0.007l0.015,0.007l0.015,0.008l0.014,0.009l0.014,0.01l0.014,0.01l0.012,0.011l0.013,0.012l0.011,0.012l0.011,0.013l0.011,0.014l0.009,0.014l0.009,0.014l0.008,0.015l0.008,0.015l0.006,0.016l0.006,0.016l0.005,0.016l0.004,0.017l0.003,0.016l0.002,0.017l0.002,0.017l0.001,0.017l-0.001,0.017l-0.001,0.017l-0.004,0.044l-0.004,0.045l-0.003,0.045l-0.004,0.045l-0.007,0.091l-0.006,0.092l-0.006,0.093l-0.007,0.094l-0.007,0.093l-0.004,0.048l-0.004,0.047l-0.004,0.047l-0.004,0.047l-0.005,0.047l-0.006,0.048l-0.005,0.047l-0.006,0.046l-0.007,0.047l-0.007,0.047l-0.008,0.046l-0.008,0.047l-0.009,0.046l-0.01,0.045l-0.005,0.024l-0.006,0.024l-0.005,0.022l-0.006,0.022l-0.006,0.024l-0.006,0.022l-0.007,0.023l-0.007,0.023l-0.007,0.022l-0.007,0.022l-0.007,0.023l-0.008,0.022l-0.008,0.022l-0.009,0.022l-0.009,0.022l-0.009,0.022l-0.009,0.022l-0.01,0.022l-0.01,0.021l-0.01,0.022l-0.011,0.021l-0.011,0.021l-0.012,0.021l-0.012,0.021l-0.012,0.021l-0.013,0.021l-0.013,0.02l-0.014,0.021l-0.014,0.019l-0.014,0.02l-0.015,0.02l-0.016,0.019l-0.015,0.019l-0.017,0.019l-0.017,0.018l-0.017,0.019l-0.018,0.018l-0.018,0.017l-0.019,0.017l-0.019,0.017l-0.02,0.017l-0.02,0.016l-0.02,0.015l-0.021,0.016l-0.021,0.015l-0.022,0.014l-0.022,0.014l-0.023,0.013l-0.023,0.013l-0.023,0.013l-0.024,0.012l-0.025,0.011l-0.024,0.011l-0.025,0.011l-0.025,0.01l-0.026,0.009l-0.026,0.009l-0.026,0.009l-0.027,0.007l-0.027,0.008l-0.027,0.007l-0.027,0.006l-0.028,0.006l-0.029,0.005l-0.028,0.005l-0.029,0.005l-0.029,0.003l-0.029,0.004l-0.03,0.003l-0.03,0.002l-0.03,0.002l-0.029,0.001l-0.04,0.002l-0.042,0.001l-0.044,0.001l-0.025,0l-0.024,0l-0.026,-0.001l-0.026,-0.001l-0.026,-0.001l-0.027,-0.002l-0.028,-0.002l-0.029,-0.003l-0.029,-0.003l-0.029,-0.005l-0.03,-0.005l-0.03,-0.006l-0.03,-0.007l-0.016,-0.004l-0.016,-0.005l-0.016,-0.004l-0.016,-0.005l-0.016,-0.005l-0.016,-0.006l-0.016,-0.006l-0.016,-0.007l-0.016,-0.007l-0.016,-0.007l-0.016,-0.008l-0.017,-0.008l-0.016,-0.009l-0.017,-0.01l-0.015,-0.009l-0.016,-0.011l-0.016,-0.011l-0.017,-0.011l-0.015,-0.012l-0.015,-0.013l-0.016,-0.013l-0.015,-0.014l-0.014,-0.014l-0.014,-0.015l-0.015,-0.016l-0.013,-0.016l-0.02,-0.026l-0.019,-0.025l-0.018,-0.027l-0.018,-0.026l-0.017,-0.027l-0.016,-0.028l-0.015,-0.028l-0.015,-0.027l-0.014,-0.028l-0.014,-0.029l-0.014,-0.029l-0.012,-0.028l-0.013,-0.03l-0.012,-0.029l-0.012,-0.03l-0.011,-0.029l-0.011,-0.03l-0.01,-0.031l-0.011,-0.03l-0.01,-0.031l-0.009,-0.03l-0.01,-0.031l-0.009,-0.031l-0.009,-0.031l-0.009,-0.031l-0.009,-0.031l-0.008,-0.031l-0.008,-0.032l-0.016,-0.063l-0.015,-0.062l-0.015,-0.063l-0.014,-0.062l-0.014,-0.061l-0.013,-0.061l-0.026,-0.119l-0.025,-0.115l-0.012,-0.055l-0.012,-0.053l-0.011,-0.051l-0.012,-0.049l-0.012,-0.047l-0.006,-0.022l-0.005,-0.021l-0.006,-0.021l-0.006,-0.02l-0.006,-0.019l-0.006,-0.02l-0.004,-0.016l-0.004,-0.017l-0.003,-0.016l-0.002,-0.017l-0.001,-0.017l0,-0.017l0,-0.017l0.002,-0.017l0.002,-0.017l0.003,-0.016l0.004,-0.017l0.005,-0.016l0.006,-0.016l0.006,-0.015l0.008,-0.016l0.008,-0.015l0.009,-0.014l0.009,-0.014l0.01,-0.014l0.011,-0.012l0.012,-0.013l0.012,-0.011l0.013,-0.012l0.013,-0.01l0.014,-0.01l0.015,-0.009l0.015,-0.008l0.015,-0.007l0.015,-0.007l0.016,-0.006l0.016,-0.005l0.017,-0.004l0.016,-0.003l0.017,-0.003l0.017,-0.001l0.017,-0.001l0.017,0l0.017,0.001l0.017,0.002l0.016,0.003l0.017,0.004l0.016,0.004l0.016,0.005l0.016,0.006l0.016,0.007l0.015,0.008l0.014,0.009l0.015,0.009l0.013,0.01l0.014,0.01l0.012,0.012l0.012,0.012l0.012,0.012l0.01,0.013l0.01,0.014l0.01,0.014l0.008,0.015l0.008,0.015l0.007,0.015l0.006,0.016l0.006,0.016l0.007,0.023l0.008,0.026l0.007,0.025l0.007,0.026l0.007,0.027l0.007,0.027l0.014,0.053l0.013,0.055l0.013,0.056l0.013,0.057l0.012,0.057l0.025,0.116l0.026,0.118l0.012,0.059l0.014,0.059l0.013,0.058l0.013,0.058l0.014,0.057l0.015,0.056l0.007,0.027l0.007,0.028l0.008,0.027l0.007,0.027l0.008,0.026l0.007,0.026l0.008,0.025l0.008,0.025l0.008,0.024l0.008,0.024l0.009,0.024l0.008,0.022l0.008,0.023l0.009,0.021l0.008,0.021l0.009,0.02l0.009,0.02l0.008,0.018l0.009,0.018l0.008,0.017l0.009,0.016l0.009,0.015l0.008,0.015l0.008,0.013l0.008,0.012l0.008,0.012l0.008,0.01l0.007,0.01l0.001,0l0,0l0.001,0.001l0.001,0.001l0,0l0.001,0.001l0.002,0.001l0.002,0.001l0.001,0.001l0.002,0.001l0.002,0.001l0.003,0.001l0.003,0.001l0.003,0.002l0.003,0.001l0.004,0.001l0.003,0.002l0.005,0.001l0.004,0.002l0.005,0.001l0.004,0.001l0.004,0.001l0.013,0.003l0.012,0.003l0.012,0.002l0.014,0.002l0.014,0.001l0.015,0.002l0.015,0.001l0.016,0.001l0.016,0.001l0.017,0.001l0.017,0l0.017,0l0.017,0l0.036,-0.001l0.035,-0.001l0.034,-0.001l0.021,-0.001l0.019,-0.001l0.019,-0.002l0.019,-0.002l0.017,-0.002l0.018,-0.002l0.016,-0.002l0.017,-0.003l0.015,-0.003l0.015,-0.003l0.015,-0.004l0.015,-0.003l0.013,-0.004l0.014,-0.004l0.012,-0.004l0.013,-0.005l0.012,-0.004l0.012,-0.005l0.011,-0.004l0.011,-0.005l0.011,-0.005l0.01,-0.006l0.01,-0.005l0.01,-0.005l0.009,-0.006l0.009,-0.006l0.009,-0.006l0.009,-0.006l0.009,-0.006l0.008,-0.006l0.008,-0.007l0.008,-0.006l0.008,-0.007l0.008,-0.008l0.007,-0.007l0.007,-0.007l0.008,-0.008l0.007,-0.008l0.007,-0.008l0.007,-0.008l0.007,-0.009l0.007,-0.009l0.007,-0.009l0.006,-0.01l0.007,-0.009l0.006,-0.01l0.007,-0.011l0.006,-0.01l0.006,-0.011l0.006,-0.011l0.006,-0.012l0.006,-0.012l0.006,-0.012l0.006,-0.012l0.006,-0.013l0.005,-0.012l0.006,-0.014l0.005,-0.014l0.005,-0.013l0.005,-0.014l0.006,-0.015l0.005,-0.015l0.004,-0.014l0.005,-0.016l0.005,-0.016l0.004,-0.015l0.005,-0.016l0.004,-0.016l0.004,-0.017l0.005,-0.018l0.004,-0.016l0.003,-0.017l0.008,-0.036l0.007,-0.037l0.007,-0.036l0.006,-0.039l0.006,-0.039l0.006,-0.039l0.005,-0.04l0.005,-0.041l0.005,-0.042l0.004,-0.042l0.004,-0.043l0.004,-0.043l0.004,-0.044l0.003,-0.044l0.007,-0.091l0.006,-0.091l0.007,-0.093l0.006,-0.094l0.007,-0.094l0.004,-0.048l0.004,-0.047l0.004,-0.048l0.004,-0.047l0.002,-0.017l0.003,-0.016l0.004,-0.017l0.004,-0.016l0.006,-0.016l0.006,-0.016l0.007,-0.016l0.008,-0.015l0.008,-0.014l0.009,-0.014l0.01,-0.014l0.011,-0.013l0.012,-0.013l0.012,-0.012l0.012,-0.011l0.013,-0.011l0.014,-0.01l0.014,-0.009l0.015,-0.008l0.015,-0.008l0.015,-0.007l0.016,-0.006l0.016,-0.006l0.017,-0.004l0.016,-0.004l0.017,-0.002l0.017,-0.002l0.017,-0.001l0.016,-0.001l0.017,0.001Z"/><path d="M35.497,72.848c0.879,0.054 1.565,0.552 1.531,1.111c-0.034,0.56 -0.776,0.97 -1.656,0.915c-0.88,-0.054 -1.566,-0.552 -1.531,-1.111c0.034,-0.559 0.776,-0.969 1.656,-0.915Z"/><path d="M35.348,74.241l0.014,0l0.013,0.002l0.014,0.001l0.013,0.003l0.014,0.002l0.013,0.004l0.013,0.004l0.013,0.004l0.012,0.005l0.013,0.005l0.012,0.006l0.012,0.007l0.012,0.007l0.011,0.007l0.011,0.008l0.011,0.009l0.01,0.008l0.01,0.01l0.01,0.009l0.009,0.01l0.009,0.011l0.008,0.01l0.008,0.012l0.007,0.011l0.007,0.012l0.007,0.012l0.006,0.012l0.005,0.012l0.005,0.013l0.005,0.013l0.003,0.013l0.004,0.013l0.002,0.013l0.003,0.014l0.001,0.013l0.001,0.014l0.001,0.013l0,0.014l-0.001,0.047l-0.002,0.048l-0.001,0.047l-0.003,0.048l-0.002,0.047l-0.003,0.047l-0.004,0.047l-0.003,0.047l-0.004,0.046l-0.004,0.046l-0.004,0.047l-0.005,0.046l-0.009,0.09l-0.01,0.09l-0.01,0.09l-0.01,0.088l-0.01,0.089l-0.009,0.087l-0.01,0.087l-0.008,0.087l-0.004,0.043l-0.004,0.043l-0.004,0.043l-0.003,0.044l-0.002,0.014l-0.002,0.013l-0.002,0.013l-0.003,0.014l-0.004,0.013l-0.004,0.013l-0.004,0.013l-0.005,0.012l-0.006,0.013l-0.006,0.012l-0.007,0.012l-0.007,0.011l-0.008,0.011l-0.008,0.011l-0.008,0.011l-0.009,0.01l-0.01,0.01l-0.009,0.009l-0.01,0.009l-0.011,0.009l-0.011,0.008l-0.011,0.008l-0.011,0.007l-0.012,0.007l-0.012,0.006l-0.013,0.006l-0.012,0.005l-0.013,0.005l-0.013,0.004l-0.013,0.004l-0.013,0.003l-0.014,0.003l-0.013,0.002l-0.013,0.001l-0.014,0.001l-0.014,0l-0.013,0l-0.014,-0.001l-0.013,-0.001l-0.014,-0.002l-0.013,-0.002l-0.013,-0.003l-0.014,-0.004l-0.013,-0.004l-0.012,-0.004l-0.013,-0.006l-0.012,-0.005l-0.012,-0.006l-0.012,-0.007l-0.012,-0.007l-0.011,-0.008l-0.011,-0.008l-0.011,-0.008l-0.01,-0.009l-0.01,-0.01l-0.009,-0.009l-0.009,-0.011l-0.009,-0.01l-0.008,-0.011l-0.008,-0.011l-0.007,-0.012l-0.007,-0.011l-0.006,-0.013l-0.006,-0.012l-0.005,-0.012l-0.005,-0.013l-0.004,-0.013l-0.004,-0.013l-0.003,-0.013l-0.002,-0.014l-0.002,-0.013l-0.002,-0.014l-0.001,-0.013l0,-0.014l0,-0.013l0.001,-0.014l0.003,-0.046l0.004,-0.047l0.004,-0.046l0.005,-0.046l0.009,-0.091l0.01,-0.091l0.009,-0.09l0.011,-0.089l0.01,-0.088l0.009,-0.088l0.01,-0.087l0.009,-0.087l0.004,-0.042l0.004,-0.043l0.004,-0.043l0.003,-0.043l0.003,-0.043l0.003,-0.042l0.003,-0.043l0.002,-0.042l0.002,-0.042l0.002,-0.042l0.001,-0.043l0.001,-0.044l0.001,-0.013l0.001,-0.014l0.002,-0.013l0.002,-0.014l0.003,-0.013l0.003,-0.013l0.004,-0.013l0.004,-0.013l0.005,-0.013l0.006,-0.012l0.006,-0.012l0.006,-0.012l0.007,-0.012l0.008,-0.011l0.008,-0.011l0.008,-0.011l0.009,-0.01l0.009,-0.01l0.01,-0.01l0.01,-0.009l0.01,-0.009l0.011,-0.008l0.011,-0.008l0.011,-0.008l0.012,-0.007l0.012,-0.006l0.012,-0.006l0.013,-0.005l0.012,-0.005l0.013,-0.005l0.013,-0.004l0.013,-0.003l0.014,-0.003l0.013,-0.002l0.014,-0.002l0.013,-0.001l0.014,0l0.013,0Z"/><path d="M37.816,74.679l0.025,0.003l0.024,0.005l0.023,0.007l0.023,0.009l0.023,0.01l0.021,0.012l0.021,0.014l0.019,0.015l0.018,0.016l0.017,0.018l0.016,0.019l0.014,0.02l0.013,0.021l0.011,0.022l0.009,0.023l0.008,0.024l0.006,0.023l0.004,0.025l0.002,0.024l0,0.025l-0.001,0.024l-0.004,0.025l-0.005,0.024l-0.007,0.023l-0.008,0.023l-0.011,0.023l-0.012,0.021l-0.013,0.021l-0.015,0.019l-0.017,0.018l-0.033,0.034l-0.033,0.035l-0.034,0.033l-0.034,0.034l-0.034,0.033l-0.035,0.032l-0.034,0.032l-0.034,0.032l-0.035,0.031l-0.035,0.031l-0.034,0.03l-0.035,0.03l-0.035,0.029l-0.035,0.029l-0.035,0.029l-0.036,0.028l-0.035,0.028l-0.036,0.027l-0.035,0.027l-0.036,0.026l-0.036,0.026l-0.036,0.026l-0.036,0.025l-0.036,0.024l-0.037,0.024l-0.036,0.024l-0.037,0.023l-0.036,0.023l-0.037,0.023l-0.037,0.022l-0.037,0.021l-0.037,0.021l-0.037,0.021l-0.037,0.02l-0.038,0.019l-0.037,0.02l-0.038,0.018l-0.038,0.019l-0.038,0.017l-0.038,0.018l-0.038,0.017l-0.038,0.016l-0.038,0.016l-0.038,0.016l-0.039,0.015l-0.038,0.014l-0.039,0.014l-0.039,0.014l-0.039,0.013l-0.039,0.013l-0.039,0.012l-0.039,0.012l-0.039,0.011l-0.039,0.011l-0.04,0.01l-0.039,0.01l-0.04,0.009l-0.039,0.009l-0.04,0.009l-0.04,0.008l-0.04,0.007l-0.04,0.007l-0.04,0.007l-0.04,0.006l-0.04,0.005l-0.04,0.005l-0.04,0.005l-0.041,0.004l-0.04,0.003l-0.04,0.004l-0.041,0.002l-0.041,0.002l-0.04,0.002l-0.041,0.001l-0.041,0.001l-0.04,0l-0.041,0l-0.041,-0.001l-0.041,-0.001l-0.041,-0.002l-0.041,-0.002l-0.041,-0.003l-0.041,-0.003l-0.041,-0.003l-0.041,-0.004l-0.041,-0.005l-0.042,-0.005l-0.041,-0.005l-0.041,-0.006l-0.041,-0.007l-0.042,-0.007l-0.041,-0.007l-0.041,-0.008l-0.042,-0.008l-0.041,-0.009l-0.042,-0.009l-0.041,-0.01l-0.042,-0.01l-0.041,-0.011l-0.042,-0.011l-0.041,-0.011l-0.042,-0.012l-0.041,-0.013l-0.042,-0.013l-0.042,-0.013l-0.041,-0.014l-0.042,-0.014l-0.042,-0.015l-0.041,-0.015l-0.042,-0.016l-0.042,-0.016l-0.041,-0.016l-0.042,-0.017l-0.042,-0.018l-0.042,-0.018l-0.041,-0.018l-0.042,-0.019l-0.042,-0.019l-0.042,-0.02l-0.042,-0.02l-0.041,-0.02l-0.042,-0.021l-0.042,-0.022l-0.042,-0.022l-0.042,-0.022l-0.042,-0.023l-0.042,-0.023l-0.041,-0.023l-0.021,-0.013l-0.019,-0.014l-0.019,-0.016l-0.018,-0.017l-0.016,-0.019l-0.015,-0.019l-0.013,-0.021l-0.012,-0.022l-0.01,-0.022l-0.008,-0.023l-0.007,-0.024l-0.005,-0.024l-0.003,-0.024l-0.001,-0.025l0.001,-0.025l0.002,-0.024l0.004,-0.024l0.006,-0.024l0.008,-0.023l0.01,-0.023l0.011,-0.022l0.013,-0.021l0.014,-0.02l0.016,-0.019l0.017,-0.017l0.019,-0.016l0.02,-0.015l0.02,-0.014l0.022,-0.011l0.022,-0.01l0.023,-0.009l0.024,-0.006l0.024,-0.005l0.025,-0.003l0.024,-0.001l0.025,0l0.024,0.003l0.024,0.004l0.024,0.006l0.024,0.008l0.022,0.01l0.022,0.011l0.039,0.022l0.037,0.02l0.038,0.021l0.037,0.019l0.037,0.02l0.037,0.019l0.037,0.018l0.037,0.018l0.037,0.018l0.037,0.017l0.036,0.017l0.037,0.017l0.036,0.016l0.037,0.015l0.036,0.015l0.036,0.015l0.036,0.014l0.036,0.014l0.036,0.014l0.036,0.013l0.036,0.013l0.035,0.012l0.036,0.012l0.035,0.011l0.036,0.011l0.035,0.011l0.035,0.01l0.035,0.009l0.035,0.01l0.035,0.009l0.035,0.008l0.035,0.008l0.034,0.008l0.035,0.007l0.035,0.007l0.034,0.007l0.034,0.006l0.034,0.006l0.035,0.005l0.034,0.005l0.034,0.005l0.033,0.004l0.034,0.003l0.034,0.004l0.034,0.003l0.033,0.002l0.034,0.002l0.033,0.002l0.033,0.001l0.034,0.001l0.033,0.001l0.033,0l0.033,0l0.033,-0.001l0.033,-0.001l0.033,-0.001l0.032,-0.002l0.033,-0.002l0.033,-0.002l0.032,-0.003l0.033,-0.003l0.032,-0.004l0.032,-0.004l0.033,-0.005l0.032,-0.004l0.032,-0.006l0.032,-0.005l0.032,-0.006l0.033,-0.007l0.032,-0.006l0.031,-0.008l0.032,-0.007l0.032,-0.008l0.032,-0.008l0.032,-0.009l0.032,-0.009l0.031,-0.01l0.032,-0.01l0.032,-0.01l0.031,-0.011l0.032,-0.011l0.031,-0.011l0.032,-0.012l0.031,-0.013l0.032,-0.012l0.031,-0.013l0.032,-0.014l0.031,-0.014l0.031,-0.014l0.032,-0.015l0.031,-0.015l0.031,-0.016l0.031,-0.016l0.031,-0.016l0.031,-0.017l0.032,-0.017l0.031,-0.018l0.031,-0.018l0.031,-0.018l0.031,-0.019l0.031,-0.019l0.031,-0.02l0.03,-0.02l0.032,-0.021l0.03,-0.021l0.031,-0.021l0.031,-0.022l0.031,-0.022l0.03,-0.023l0.031,-0.023l0.031,-0.024l0.031,-0.023l0.03,-0.025l0.031,-0.025l0.03,-0.025l0.031,-0.026l0.03,-0.026l0.031,-0.026l0.03,-0.027l0.031,-0.028l0.03,-0.028l0.03,-0.028l0.031,-0.029l0.03,-0.029l0.03,-0.03l0.03,-0.03l0.03,-0.03l0.031,-0.032l0.018,-0.017l0.019,-0.016l0.02,-0.014l0.021,-0.012l0.022,-0.011l0.023,-0.01l0.024,-0.007l0.023,-0.006l0.025,-0.004l0.024,-0.002l0.025,-0.001l0.024,0.002Z"/><path d="M32.187,65.4c0.335,-0.101 0.649,-0.043 0.702,0.131c0.053,0.173 -0.176,0.397 -0.511,0.498c-0.335,0.102 -0.65,0.043 -0.703,-0.13c-0.052,-0.174 0.177,-0.397 0.512,-0.499Z" style="fill:#b7f8ff;"/><path d="M44.407,66.884c0.225,0.268 0.295,0.58 0.156,0.697c-0.139,0.117 -0.434,-0.006 -0.659,-0.274c-0.225,-0.268 -0.295,-0.581 -0.156,-0.697c0.139,-0.117 0.434,0.006 0.659,0.274Z" style="fill:#b7f8ff;"/><path d="M29.92,66.563c1.785,-0.254 3.44,0.988 3.694,2.773c0.254,1.785 -0.988,3.44 -2.773,3.694c-1.785,0.254 -3.44,-0.988 -3.694,-2.773c-0.254,-1.785 0.988,-3.44 2.773,-3.694Z" style="fill:#fff;stroke:#000;stroke-width:0.66px;"/><path d="M41.432,67.519c1.784,-0.254 3.44,0.989 3.694,2.774c0.254,1.784 -0.989,3.439 -2.773,3.694c-1.785,0.254 -3.44,-0.989 -3.694,-2.774c-0.255,-1.784 0.988,-3.439 2.773,-3.694Z" style="fill:#fff;stroke:#000;stroke-width:0.66px;"/><path d="M28.992,67.779c0.634,-0.09 1.221,0.351 1.312,0.985c0.09,0.634 -0.351,1.222 -0.985,1.312c-0.634,0.09 -1.222,-0.351 -1.312,-0.985c-0.091,-0.634 0.351,-1.222 0.985,-1.312Z"/><path d="M40.503,68.735c0.634,-0.09 1.222,0.352 1.312,0.985c0.091,0.634 -0.351,1.222 -0.985,1.312c-0.633,0.091 -1.221,-0.351 -1.312,-0.984c-0.09,-0.634 0.351,-1.222 0.985,-1.313Z"/><path d="M28.895,68.262c0.178,-0.025 0.344,0.099 0.369,0.277c0.025,0.178 -0.099,0.343 -0.277,0.368c-0.178,0.026 -0.343,-0.098 -0.368,-0.276c-0.025,-0.178 0.098,-0.343 0.276,-0.369Z" style="fill:#fff;"/><path d="M40.407,69.219c0.178,-0.025 0.343,0.099 0.369,0.276c0.025,0.178 -0.099,0.344 -0.277,0.369c-0.178,0.025 -0.343,-0.099 -0.368,-0.277c-0.026,-0.178 0.098,-0.343 0.276,-0.368Z" style="fill:#fff;"/></g><circle cx="28.589" cy="74.16" r="0.317" style="fill:#b7f8ff;"/><circle cx="44.351" cy="74.737" r="0.317" style="fill:#b7f8ff;"/><path d="M42.2,79.266c0,0 2.562,1.278 2.746,2.995c0.183,1.717 -1.226,2.215 -1.849,1.053c-0.624,-1.162 -1.311,-2.199 -2.341,-2.445c-1.029,-0.245 -0.164,-2.425 1.444,-1.603Z" style="fill:#d6c295;stroke:#000;stroke-width:0.66px;"/></g></g></svg>