<?xml version="1.0" encoding="UTF-8" standalone="no"?><!DOCTYPE svg PUBLIC "-//W3C//DTD SVG 1.1//EN" "http://www.w3.org/Graphics/SVG/1.1/DTD/svg11.dtd"><svg width="100%" height="100%" viewBox="0 0 600 600" version="1.1" xmlns="http://www.w3.org/2000/svg" xmlns:xlink="http://www.w3.org/1999/xlink" xml:space="preserve" xmlns:serif="http://www.serif.com/" style="fill-rule:evenodd;clip-rule:evenodd;stroke-linecap:round;stroke-linejoin:round;stroke-miterlimit:1.5;"><rect id="_40" serif:id="40" x="0" y="0" width="600" height="600" style="fill:none;"/><g><g transform="matrix(0.434819,0,0,0.434819,-2542.28,-2782.35)"><g transform="matrix(125,0,0,125,6187.37,6550.94)"><path d="M0.1,-0l0,-0.724l0.139,0l0,0.724l-0.139,-0Zm-0.074,-0l-0,-0.058c-0,-0.009 0.002,-0.016 0.007,-0.021c0.005,-0.005 0.013,-0.008 0.022,-0.01l0.057,-0.012l0.013,0.101l-0.099,-0Zm0.189,-0l0.013,-0.101l0.057,0.012c0.009,0.002 0.016,0.005 0.021,0.01c0.005,0.005 0.008,0.012 0.008,0.021l-0,0.058l-0.099,-0Zm-0.09,-0.724l-0.013,0.101l-0.057,-0.012c-0.009,-0.002 -0.017,-0.005 -0.022,-0.01c-0.005,-0.005 -0.007,-0.012 -0.007,-0.021l-0,-0.058l0.099,0Zm0.189,0l-0,0.058c-0,0.009 -0.003,0.016 -0.008,0.021c-0.005,0.005 -0.012,0.008 -0.021,0.01l-0.057,0.012l-0.013,-0.101l0.099,0Z" style="fill-rule:nonzero;"/></g><g transform="matrix(125,0,0,125,6229.87,6550.94)"><path d="M0.1,-0l0,-0.724l0.458,0l0,0.108l-0.319,0l-0,0.214l0.269,0l0,0.108l-0.269,0l0,0.294l-0.139,0Zm0.36,-0.639l0.098,0.023l0,0.088l-0.052,0c-0.009,0 -0.015,-0.002 -0.02,-0.007c-0.005,-0.005 -0.008,-0.013 -0.011,-0.022l-0.015,-0.082Zm-0.335,-0.085l-0.013,0.101l-0.057,-0.012c-0.009,-0.002 -0.017,-0.005 -0.022,-0.01c-0.005,-0.005 -0.007,-0.012 -0.007,-0.021l0,-0.058l0.099,0Zm-0.099,0.724l0,-0.058c0,-0.009 0.002,-0.016 0.007,-0.021c0.005,-0.005 0.013,-0.008 0.022,-0.01l0.057,-0.012l0.013,0.101l-0.099,0Zm0.189,0l0.013,-0.101l0.057,0.012c0.009,0.002 0.016,0.005 0.021,0.01c0.005,0.005 0.008,0.012 0.008,0.021l0,0.058l-0.099,0Z" style="fill-rule:nonzero;"/></g><g transform="matrix(125,0,0,125,6304.5,6550.94)"></g><g transform="matrix(125,0,0,125,6335.25,6550.94)"><path d="M0.1,-0l0,-0.724l0.139,0l0,0.724l-0.139,-0Zm-0.074,-0l-0,-0.058c-0,-0.009 0.002,-0.016 0.007,-0.021c0.005,-0.005 0.013,-0.008 0.022,-0.01l0.057,-0.012l0.013,0.101l-0.099,-0Zm0.189,-0l0.013,-0.101l0.057,0.012c0.009,0.002 0.016,0.005 0.021,0.01c0.005,0.005 0.008,0.012 0.008,0.021l-0,0.058l-0.099,-0Zm-0.09,-0.724l-0.013,0.101l-0.057,-0.012c-0.009,-0.002 -0.017,-0.005 -0.022,-0.01c-0.005,-0.005 -0.007,-0.012 -0.007,-0.021l-0,-0.058l0.099,0Zm0.189,0l-0,0.058c-0,0.009 -0.003,0.016 -0.008,0.021c-0.005,0.005 -0.012,0.008 -0.021,0.01l-0.057,0.012l-0.013,-0.101l0.099,0Z" style="fill-rule:nonzero;"/></g><g transform="matrix(125,0,0,125,6377.75,6550.94)"><path d="M0.232,-0l0,-0.612l-0.217,0l-0,-0.112l0.571,0l-0,0.112l-0.216,0l-0,0.612l-0.138,-0Zm-0.075,-0l-0,-0.058c-0,-0.009 0.003,-0.016 0.008,-0.021c0.005,-0.005 0.012,-0.008 0.021,-0.01l0.058,-0.012l0.012,0.101l-0.099,-0Zm0.189,-0l0.012,-0.101l0.058,0.012c0.009,0.002 0.016,0.005 0.021,0.01c0.005,0.005 0.008,0.012 0.008,0.021l-0,0.058l-0.099,-0Zm0.143,-0.636l0.097,0.024l-0,0.088l-0.051,0c-0.009,0 -0.016,-0.002 -0.021,-0.007c-0.005,-0.005 -0.008,-0.013 -0.01,-0.022l-0.015,-0.083Zm-0.377,0l-0.015,0.083c-0.001,0.009 -0.005,0.017 -0.01,0.022c-0.005,0.005 -0.011,0.007 -0.02,0.007l-0.052,0l0,-0.088l0.097,-0.024Z" style="fill-rule:nonzero;"/></g><g transform="matrix(125,0,0,125,6452.87,6550.94)"></g><g transform="matrix(125,0,0,125,6483.62,6550.94)"><path d="M0.27,-0l-0.225,-0.724l0.116,0c0.012,0 0.022,0.003 0.03,0.009c0.009,0.005 0.014,0.013 0.016,0.022l0.121,0.431c0.003,0.011 0.006,0.022 0.009,0.035c0.003,0.012 0.005,0.025 0.007,0.039c0.003,-0.015 0.006,-0.028 0.009,-0.04c0.003,-0.013 0.007,-0.024 0.01,-0.034l0.14,-0.431c0.003,-0.007 0.008,-0.014 0.016,-0.021c0.008,-0.007 0.018,-0.01 0.029,-0.01l0.041,0c0.024,0 0.039,0.01 0.046,0.031l0.138,0.431c0.003,0.01 0.007,0.021 0.01,0.033c0.004,0.012 0.007,0.025 0.01,0.038c0.003,-0.015 0.005,-0.028 0.008,-0.04c0.003,-0.012 0.005,-0.022 0.007,-0.031l0.121,-0.431c0.002,-0.008 0.007,-0.015 0.015,-0.021c0.009,-0.007 0.019,-0.01 0.03,-0.01l0.108,0l-0.224,0.724l-0.125,-0l-0.156,-0.493c-0.003,-0.01 -0.005,-0.019 -0.008,-0.026c-0.002,-0.007 -0.003,-0.013 -0.004,-0.017c-0.002,0.005 -0.004,0.012 -0.007,0.021c-0.002,0.009 -0.004,0.016 -0.006,0.022l-0.157,0.493l-0.125,-0Zm-0.127,-0.691l-0,-0.033l0.074,0l-0,0.033l-0.074,0Zm0.778,0l-0,-0.033l0.075,0l-0,0.033l-0.075,0Zm-0.812,-0.033l-0.012,0.101l-0.058,-0.012c-0.009,-0.002 -0.016,-0.005 -0.021,-0.01c-0.005,-0.005 -0.008,-0.012 -0.008,-0.021l-0,-0.058l0.099,0Zm0.175,0l-0,0.058c-0,0.009 -0.003,0.016 -0.008,0.021c-0.005,0.005 -0.012,0.008 -0.021,0.01l-0.057,0.012l-0.013,-0.101l0.099,0Zm0.661,0l-0.013,0.101l-0.057,-0.012c-0.009,-0.002 -0.017,-0.005 -0.022,-0.01c-0.005,-0.005 -0.008,-0.012 -0.008,-0.021l-0,-0.058l0.1,0Zm0.175,0l0,0.058c0,0.009 -0.003,0.016 -0.008,0.021c-0.005,0.005 -0.012,0.008 -0.021,0.01l-0.058,0.012l-0.012,-0.101l0.099,0Z" style="fill-rule:nonzero;"/></g><g transform="matrix(125,0,0,125,6624.87,6550.94)"><path d="M0.389,0.008c-0.055,0 -0.105,-0.009 -0.15,-0.028c-0.045,-0.019 -0.083,-0.045 -0.116,-0.078c-0.031,-0.033 -0.056,-0.072 -0.075,-0.117c-0.018,-0.045 -0.027,-0.094 -0.027,-0.147c-0,-0.053 0.009,-0.102 0.027,-0.147c0.019,-0.045 0.044,-0.085 0.075,-0.118c0.033,-0.033 0.071,-0.058 0.116,-0.077c0.045,-0.019 0.095,-0.028 0.15,-0.028c0.055,0 0.106,0.009 0.151,0.028c0.046,0.019 0.085,0.045 0.116,0.078c0.033,0.033 0.058,0.072 0.075,0.117c0.017,0.045 0.026,0.094 0.026,0.147c0,0.053 -0.009,0.102 -0.026,0.147c-0.017,0.045 -0.042,0.084 -0.075,0.117c-0.031,0.033 -0.07,0.059 -0.116,0.078c-0.046,0.019 -0.096,0.028 -0.151,0.028Zm0,-0.116c0.048,0 0.089,-0.01 0.122,-0.031c0.034,-0.021 0.06,-0.05 0.077,-0.088c0.018,-0.038 0.027,-0.083 0.027,-0.135c0,-0.051 -0.009,-0.096 -0.027,-0.134c-0.017,-0.038 -0.043,-0.067 -0.077,-0.088c-0.033,-0.021 -0.074,-0.032 -0.122,-0.032c-0.047,0 -0.087,0.011 -0.121,0.032c-0.034,0.021 -0.06,0.05 -0.078,0.088c-0.018,0.038 -0.027,0.083 -0.027,0.134c0,0.051 0.009,0.096 0.027,0.135c0.018,0.038 0.044,0.067 0.078,0.088c0.034,0.021 0.074,0.031 0.121,0.031Z" style="fill-rule:nonzero;"/></g><g transform="matrix(125,0,0,125,6722.12,6550.94)"><path d="M0.1,-0l0,-0.724l0.223,0c0.057,0 0.107,0.008 0.148,0.023c0.042,0.015 0.074,0.037 0.097,0.068c0.023,0.031 0.035,0.07 0.035,0.118c0,0.033 -0.006,0.064 -0.019,0.091c-0.013,0.027 -0.031,0.05 -0.055,0.069c-0.023,0.019 -0.052,0.035 -0.085,0.046c0.018,0.009 0.033,0.023 0.046,0.042l0.178,0.267l-0.124,0c-0.024,0 -0.041,-0.009 -0.051,-0.027l-0.149,-0.231c-0.006,-0.009 -0.012,-0.015 -0.019,-0.018c-0.007,-0.004 -0.017,-0.006 -0.03,-0.006l-0.056,0l0,0.282l-0.139,0Zm0.139,-0.379l0.082,0c0.048,0 0.084,-0.011 0.109,-0.034c0.025,-0.023 0.038,-0.053 0.038,-0.092c0,-0.037 -0.012,-0.065 -0.036,-0.084c-0.023,-0.019 -0.06,-0.029 -0.109,-0.029l-0.084,0l0,0.239Zm0.338,0.379l-0.052,-0.114l0.068,0.014l-0.016,0.1Zm-0.551,-0l0,-0.058c0,-0.009 0.002,-0.016 0.007,-0.021c0.005,-0.005 0.013,-0.008 0.022,-0.01l0.057,-0.012l0.013,0.101l-0.099,-0Zm0.099,-0.724l-0.013,0.101l-0.057,-0.012c-0.009,-0.002 -0.017,-0.005 -0.022,-0.01c-0.005,-0.005 -0.007,-0.012 -0.007,-0.021l0,-0.058l0.099,0Zm0.09,0.724l0.012,-0.101l0.058,0.012c0.009,0.002 0.016,0.005 0.021,0.01c0.005,0.005 0.008,0.012 0.008,0.021l0,0.058l-0.099,0Zm0.362,0l0.013,-0.101l0.057,0.012c0.009,0.002 0.016,0.005 0.021,0.01c0.005,0.005 0.008,0.012 0.008,0.021l0,0.058l-0.099,0Z" style="fill-rule:nonzero;"/></g><g transform="matrix(125,0,0,125,6807.87,6550.94)"><path d="M0.1,-0l0,-0.724l0.139,0l0,0.303l0.031,0c0.013,0 0.023,-0.002 0.031,-0.005c0.009,-0.003 0.016,-0.009 0.022,-0.017l0.196,-0.252c0.009,-0.011 0.018,-0.018 0.027,-0.022c0.009,-0.005 0.021,-0.007 0.035,-0.007l0.119,0l-0.24,0.301c-0.007,0.009 -0.015,0.017 -0.022,0.024c-0.007,0.006 -0.015,0.011 -0.023,0.015c0.011,0.004 0.021,0.01 0.03,0.017c0.009,0.007 0.017,0.017 0.026,0.028l0.248,0.339l-0.123,-0c-0.015,-0 -0.026,-0.002 -0.034,-0.006c-0.008,-0.005 -0.015,-0.012 -0.022,-0.021l-0.2,-0.267c-0.007,-0.009 -0.015,-0.016 -0.023,-0.019c-0.008,-0.003 -0.02,-0.005 -0.036,-0.005l-0.042,0l-0,0.318l-0.139,0Zm0.497,-0.618l-0.071,-0.062l0,-0.044l0.147,0l-0.048,0.1l-0.028,0.006Zm0.031,0.618l-0.053,-0.114l0.068,0.014l-0.015,0.1Zm-0.602,0l-0,-0.058c-0,-0.009 0.002,-0.016 0.007,-0.021c0.005,-0.005 0.013,-0.008 0.022,-0.01l0.057,-0.012l0.013,0.101l-0.099,0Zm0.189,0l0.013,-0.101l0.057,0.012c0.009,0.002 0.016,0.005 0.021,0.01c0.005,0.005 0.008,0.012 0.008,0.021l-0,0.058l-0.099,0Zm-0.09,-0.724l-0.013,0.101l-0.057,-0.012c-0.009,-0.002 -0.017,-0.005 -0.022,-0.01c-0.005,-0.005 -0.007,-0.012 -0.007,-0.021l-0,-0.058l0.099,0Zm0.189,0l-0,0.058c-0,0.009 -0.003,0.016 -0.008,0.021c-0.005,0.005 -0.012,0.008 -0.021,0.01l-0.057,0.012l-0.013,-0.101l0.099,0Zm0.314,0.724l0.012,-0.101l0.058,0.012c0.009,0.002 0.016,0.005 0.021,0.01c0.005,0.005 0.008,0.012 0.008,0.021l-0,0.058l-0.099,0Zm0.081,-0.724l-0,0.058c-0,0.009 -0.003,0.016 -0.008,0.021c-0.005,0.005 -0.012,0.008 -0.021,0.01l-0.058,0.012l-0.012,-0.101l0.099,0Zm-0.171,0l-0.013,0.101l-0.057,-0.012c-0.009,-0.002 -0.017,-0.005 -0.022,-0.01c-0.005,-0.005 -0.008,-0.012 -0.008,-0.021l0,-0.058l0.1,0Z" style="fill-rule:nonzero;"/></g><g transform="matrix(125,0,0,125,6900,6550.94)"><path d="M0.265,0.008c-0.027,0 -0.054,-0.002 -0.08,-0.005c-0.025,-0.003 -0.05,-0.008 -0.073,-0.013c-0.023,-0.006 -0.044,-0.013 -0.065,-0.02l0,-0.099l0.064,-0.007c0.029,0.013 0.056,0.022 0.081,0.027c0.026,0.004 0.053,0.006 0.08,0.006c0.025,-0 0.046,-0.004 0.063,-0.012c0.017,-0.008 0.031,-0.02 0.04,-0.035c0.01,-0.016 0.015,-0.035 0.015,-0.056c-0,-0.02 -0.005,-0.036 -0.015,-0.048c-0.009,-0.013 -0.022,-0.023 -0.039,-0.031c-0.016,-0.008 -0.034,-0.015 -0.053,-0.02c-0.019,-0.006 -0.039,-0.012 -0.06,-0.019c-0.029,-0.01 -0.056,-0.022 -0.082,-0.037c-0.025,-0.015 -0.046,-0.036 -0.061,-0.061c-0.015,-0.025 -0.023,-0.058 -0.023,-0.099c-0,-0.039 0.01,-0.075 0.03,-0.107c0.02,-0.032 0.048,-0.057 0.083,-0.076c0.036,-0.019 0.078,-0.028 0.126,-0.028c0.034,0 0.069,0.005 0.106,0.015c0.037,0.01 0.07,0.024 0.099,0.042l0,0.08l-0.072,-0.001c-0.021,-0.007 -0.042,-0.013 -0.064,-0.018c-0.021,-0.005 -0.044,-0.007 -0.068,-0.007c-0.035,0 -0.063,0.008 -0.082,0.025c-0.019,0.016 -0.029,0.037 -0.029,0.064c0,0.023 0.008,0.042 0.025,0.055c0.017,0.013 0.039,0.024 0.064,0.033c0.026,0.008 0.052,0.017 0.078,0.026c0.031,0.011 0.059,0.024 0.084,0.039c0.025,0.015 0.045,0.034 0.06,0.059c0.015,0.024 0.022,0.056 0.022,0.095c0,0.045 -0.01,0.085 -0.031,0.12c-0.02,0.035 -0.049,0.063 -0.087,0.083c-0.038,0.02 -0.083,0.03 -0.136,0.03Zm0.139,-0.626l0.097,0.023l0,0.088l-0.052,0c-0.009,0 -0.015,-0.002 -0.02,-0.007c-0.005,-0.005 -0.008,-0.013 -0.01,-0.022l-0.015,-0.082Zm-0.26,0.512l-0.097,-0.023l0,-0.088l0.052,0c0.009,0 0.015,0.003 0.02,0.008c0.005,0.005 0.009,0.012 0.01,0.021l0.015,0.082Z" style="fill-rule:nonzero;"/></g><g transform="matrix(125,0,0,125,6970.25,6550.94)"></g><g transform="matrix(125,0,0,125,7001,6550.94)"></g><g transform="matrix(200,0,0,200,6259.31,6800.94)"><path d="M0.1,-0l0,-0.724l0.277,0c0.055,0 0.105,0.009 0.15,0.027c0.046,0.018 0.085,0.043 0.117,0.074c0.033,0.033 0.057,0.071 0.074,0.116c0.017,0.044 0.026,0.092 0.026,0.145c0,0.053 -0.009,0.101 -0.026,0.146c-0.017,0.045 -0.041,0.083 -0.074,0.114c-0.032,0.032 -0.071,0.057 -0.117,0.075c-0.045,0.018 -0.095,0.027 -0.15,0.027l-0.277,-0Zm0.139,-0.108l0.138,0c0.048,0 0.089,-0.01 0.122,-0.031c0.033,-0.021 0.059,-0.05 0.077,-0.088c0.018,-0.039 0.027,-0.084 0.027,-0.135c0,-0.051 -0.009,-0.096 -0.027,-0.134c-0.018,-0.038 -0.044,-0.067 -0.077,-0.088c-0.033,-0.021 -0.074,-0.032 -0.122,-0.032l-0.138,0l0,0.508Zm-0.213,0.108l0,-0.058c0,-0.009 0.002,-0.016 0.007,-0.021c0.005,-0.005 0.013,-0.008 0.022,-0.01l0.057,-0.012l0.013,0.101l-0.099,-0Zm0.099,-0.724l-0.013,0.101l-0.057,-0.012c-0.009,-0.002 -0.017,-0.005 -0.022,-0.01c-0.005,-0.005 -0.007,-0.012 -0.007,-0.021l0,-0.058l0.099,0Z" style="fill-rule:nonzero;"/></g><g transform="matrix(200,0,0,200,6412.51,6800.94)"><path d="M0.389,0.008c-0.055,0 -0.105,-0.009 -0.15,-0.028c-0.045,-0.019 -0.083,-0.045 -0.116,-0.078c-0.031,-0.033 -0.056,-0.072 -0.075,-0.117c-0.018,-0.045 -0.027,-0.094 -0.027,-0.147c-0,-0.053 0.009,-0.102 0.027,-0.147c0.019,-0.045 0.044,-0.085 0.075,-0.118c0.033,-0.033 0.071,-0.058 0.116,-0.077c0.045,-0.019 0.095,-0.028 0.15,-0.028c0.055,0 0.106,0.009 0.151,0.028c0.046,0.019 0.085,0.045 0.116,0.078c0.033,0.033 0.058,0.072 0.075,0.117c0.017,0.045 0.026,0.094 0.026,0.147c0,0.053 -0.009,0.102 -0.026,0.147c-0.017,0.045 -0.042,0.084 -0.075,0.117c-0.031,0.033 -0.07,0.059 -0.116,0.078c-0.046,0.019 -0.096,0.028 -0.151,0.028Zm0,-0.116c0.048,0 0.089,-0.01 0.122,-0.031c0.034,-0.021 0.06,-0.05 0.077,-0.088c0.018,-0.038 0.027,-0.083 0.027,-0.135c0,-0.051 -0.009,-0.096 -0.027,-0.134c-0.017,-0.038 -0.043,-0.067 -0.077,-0.088c-0.033,-0.021 -0.074,-0.032 -0.122,-0.032c-0.047,0 -0.087,0.011 -0.121,0.032c-0.034,0.021 -0.06,0.05 -0.078,0.088c-0.018,0.038 -0.027,0.083 -0.027,0.134c0,0.051 0.009,0.096 0.027,0.135c0.018,0.038 0.044,0.067 0.078,0.088c0.034,0.021 0.074,0.031 0.121,0.031Z" style="fill-rule:nonzero;"/></g><g transform="matrix(200,0,0,200,6568.11,6800.94)"><path d="M0.1,-0l0,-0.724l0.073,0c0.011,0 0.02,0.001 0.026,0.004c0.007,0.003 0.013,0.009 0.02,0.018l0.376,0.482c-0.001,-0.011 -0.002,-0.023 -0.003,-0.034c-0.001,-0.011 -0.001,-0.022 -0.001,-0.031l0,-0.439l0.122,0l0,0.724l-0.071,-0c-0.011,-0 -0.02,-0.002 -0.027,-0.005c-0.007,-0.003 -0.015,-0.01 -0.022,-0.019l-0.374,-0.479c0.001,0.011 0.002,0.021 0.002,0.029c0.001,0.008 0.001,0.018 0.001,0.031l0,0.443l-0.122,-0Zm-0.074,-0l0,-0.058c0,-0.009 0.002,-0.016 0.007,-0.021c0.005,-0.005 0.013,-0.008 0.022,-0.01l0.057,-0.012l0.013,0.101l-0.099,-0Zm0.176,-0l0.013,-0.101l0.058,0.012c0.009,0.002 0.016,0.005 0.021,0.01c0.005,0.005 0.008,0.012 0.008,0.021l0,0.058l-0.1,-0Zm-0.077,-0.724l-0.013,0.101l-0.057,-0.012c-0.009,-0.002 -0.017,-0.005 -0.022,-0.01c-0.005,-0.005 -0.007,-0.012 -0.007,-0.021l0,-0.058l0.099,0Zm0.486,0l-0.013,0.101l-0.057,-0.012c-0.009,-0.002 -0.017,-0.005 -0.022,-0.01c-0.005,-0.005 -0.007,-0.012 -0.007,-0.021l0,-0.058l0.099,0Zm0.177,0l0,0.058c0,0.009 -0.003,0.016 -0.008,0.021c-0.005,0.005 -0.012,0.008 -0.021,0.01l-0.057,0.012l-0.013,-0.101l0.099,0Z" style="fill-rule:nonzero;"/></g><g transform="matrix(200,0,0,200,6731.91,6800.94)"><path d="M0.115,-0.455c-0.023,0 -0.037,-0.015 -0.043,-0.046l-0.012,-0.079l-0,-0.144l0.111,0l0,0.144l-0.011,0.079c-0.003,0.015 -0.007,0.026 -0.014,0.034c-0.006,0.008 -0.016,0.012 -0.031,0.012Z" style="fill-rule:nonzero;"/></g><g transform="matrix(200,0,0,200,6778.11,6800.94)"><path d="M0.232,-0l0,-0.612l-0.217,0l-0,-0.112l0.571,0l-0,0.112l-0.216,0l-0,0.612l-0.138,-0Zm-0.075,-0l-0,-0.058c-0,-0.009 0.003,-0.016 0.008,-0.021c0.005,-0.005 0.012,-0.008 0.021,-0.01l0.058,-0.012l0.012,0.101l-0.099,-0Zm0.189,-0l0.012,-0.101l0.058,0.012c0.009,0.002 0.016,0.005 0.021,0.01c0.005,0.005 0.008,0.012 0.008,0.021l-0,0.058l-0.099,-0Zm0.143,-0.636l0.097,0.024l-0,0.088l-0.051,0c-0.009,0 -0.016,-0.002 -0.021,-0.007c-0.005,-0.005 -0.008,-0.013 -0.01,-0.022l-0.015,-0.083Zm-0.377,0l-0.015,0.083c-0.001,0.009 -0.005,0.017 -0.01,0.022c-0.005,0.005 -0.011,0.007 -0.02,0.007l-0.052,0l0,-0.088l0.097,-0.024Z" style="fill-rule:nonzero;"/></g><g transform="matrix(200,0,0,200,6898.31,6800.94)"></g><g transform="matrix(200,0,0,200,6947.51,6800.94)"></g><g transform="matrix(200,0,0,200,6128.51,7050.94)"><path d="M0.232,-0l0,-0.612l-0.217,0l-0,-0.112l0.571,0l-0,0.112l-0.216,0l-0,0.612l-0.138,-0Zm-0.075,-0l-0,-0.058c-0,-0.009 0.003,-0.016 0.008,-0.021c0.005,-0.005 0.012,-0.008 0.021,-0.01l0.058,-0.012l0.012,0.101l-0.099,-0Zm0.189,-0l0.012,-0.101l0.058,0.012c0.009,0.002 0.016,0.005 0.021,0.01c0.005,0.005 0.008,0.012 0.008,0.021l-0,0.058l-0.099,-0Zm0.143,-0.636l0.097,0.024l-0,0.088l-0.051,0c-0.009,0 -0.016,-0.002 -0.021,-0.007c-0.005,-0.005 -0.008,-0.013 -0.01,-0.022l-0.015,-0.083Zm-0.377,0l-0.015,0.083c-0.001,0.009 -0.005,0.017 -0.01,0.022c-0.005,0.005 -0.011,0.007 -0.02,0.007l-0.052,0l0,-0.088l0.097,-0.024Z" style="fill-rule:nonzero;"/></g><g transform="matrix(200,0,0,200,6238.91,7050.94)"><path d="M0.389,0.008c-0.055,0 -0.105,-0.009 -0.15,-0.028c-0.045,-0.019 -0.083,-0.045 -0.116,-0.078c-0.031,-0.033 -0.056,-0.072 -0.075,-0.117c-0.018,-0.045 -0.027,-0.094 -0.027,-0.147c-0,-0.053 0.009,-0.102 0.027,-0.147c0.019,-0.045 0.044,-0.085 0.075,-0.118c0.033,-0.033 0.071,-0.058 0.116,-0.077c0.045,-0.019 0.095,-0.028 0.15,-0.028c0.055,0 0.106,0.009 0.151,0.028c0.046,0.019 0.085,0.045 0.116,0.078c0.033,0.033 0.058,0.072 0.075,0.117c0.017,0.045 0.026,0.094 0.026,0.147c0,0.053 -0.009,0.102 -0.026,0.147c-0.017,0.045 -0.042,0.084 -0.075,0.117c-0.031,0.033 -0.07,0.059 -0.116,0.078c-0.046,0.019 -0.096,0.028 -0.151,0.028Zm0,-0.116c0.048,0 0.089,-0.01 0.122,-0.031c0.034,-0.021 0.06,-0.05 0.077,-0.088c0.018,-0.038 0.027,-0.083 0.027,-0.135c0,-0.051 -0.009,-0.096 -0.027,-0.134c-0.017,-0.038 -0.043,-0.067 -0.077,-0.088c-0.033,-0.021 -0.074,-0.032 -0.122,-0.032c-0.047,0 -0.087,0.011 -0.121,0.032c-0.034,0.021 -0.06,0.05 -0.078,0.088c-0.018,0.038 -0.027,0.083 -0.027,0.134c0,0.051 0.009,0.096 0.027,0.135c0.018,0.038 0.044,0.067 0.078,0.088c0.034,0.021 0.074,0.031 0.121,0.031Z" style="fill-rule:nonzero;"/></g><g transform="matrix(200,0,0,200,6394.51,7050.94)"><path d="M0.397,0.008c-0.061,0 -0.115,-0.013 -0.16,-0.038c-0.045,-0.025 -0.079,-0.06 -0.104,-0.105c-0.025,-0.045 -0.037,-0.097 -0.037,-0.155l0,-0.434l0.138,0l0,0.433c0,0.036 0.006,0.068 0.019,0.095c0.013,0.027 0.031,0.049 0.055,0.064c0.025,0.015 0.054,0.023 0.089,0.023c0.035,-0 0.065,-0.007 0.089,-0.022c0.024,-0.015 0.042,-0.036 0.055,-0.063c0.013,-0.027 0.019,-0.059 0.019,-0.096l0,-0.434l0.138,0l0,0.434c0,0.059 -0.013,0.112 -0.038,0.157c-0.025,0.045 -0.061,0.079 -0.106,0.104c-0.045,0.025 -0.097,0.037 -0.157,0.037Zm-0.277,-0.732l-0.013,0.101l-0.057,-0.012c-0.009,-0.002 -0.017,-0.005 -0.022,-0.01c-0.005,-0.005 -0.007,-0.012 -0.007,-0.021l0,-0.058l0.099,0Zm0.189,0l0,0.058c0,0.009 -0.003,0.016 -0.008,0.021c-0.005,0.005 -0.012,0.008 -0.021,0.01l-0.058,0.012l-0.012,-0.101l0.099,0Zm0.275,0l-0.013,0.101l-0.057,-0.012c-0.009,-0.002 -0.017,-0.005 -0.022,-0.01c-0.005,-0.005 -0.007,-0.012 -0.007,-0.021l0,-0.058l0.099,0Zm0.189,0l0,0.058c0,0.009 -0.003,0.016 -0.008,0.021c-0.005,0.005 -0.012,0.008 -0.021,0.01l-0.057,0.012l-0.013,-0.101l0.099,0Z" style="fill-rule:nonzero;"/></g><g transform="matrix(200,0,0,200,6553.31,7050.94)"><path d="M0.375,0.008c-0.055,0 -0.105,-0.009 -0.149,-0.028c-0.043,-0.019 -0.08,-0.044 -0.11,-0.077c-0.031,-0.033 -0.054,-0.073 -0.071,-0.118c-0.016,-0.045 -0.024,-0.093 -0.024,-0.144c0,-0.055 0.009,-0.106 0.027,-0.151c0.019,-0.046 0.044,-0.085 0.077,-0.118c0.033,-0.033 0.073,-0.058 0.119,-0.076c0.046,-0.019 0.096,-0.028 0.149,-0.028c0.03,0 0.059,0.003 0.086,0.008c0.027,0.005 0.053,0.012 0.077,0.021c0.024,0.009 0.046,0.018 0.067,0.027l0,0.089l-0.068,0.004c-0.019,-0.011 -0.043,-0.019 -0.072,-0.024c-0.029,-0.006 -0.056,-0.009 -0.083,-0.009c-0.049,0 -0.092,0.011 -0.128,0.032c-0.035,0.021 -0.062,0.051 -0.081,0.089c-0.019,0.038 -0.028,0.083 -0.028,0.134c0,0.049 0.009,0.092 0.026,0.131c0.017,0.038 0.043,0.068 0.077,0.09c0.034,0.022 0.075,0.033 0.124,0.033c0.027,-0 0.053,-0.004 0.077,-0.012c0.025,-0.009 0.048,-0.023 0.07,-0.043c0.003,-0.003 0.007,-0.005 0.011,-0.006c0.004,-0.002 0.008,-0.003 0.012,-0.003c0.007,-0 0.014,0.003 0.019,0.008l0.055,0.058c-0.028,0.035 -0.064,0.063 -0.107,0.083c-0.043,0.02 -0.094,0.03 -0.152,0.03Zm0.151,-0.618l0.097,0.023l0,0.088l-0.052,0c-0.009,0 -0.015,-0.002 -0.02,-0.007c-0.005,-0.005 -0.008,-0.013 -0.01,-0.022l-0.015,-0.082Z" style="fill-rule:nonzero;"/></g><g transform="matrix(200,0,0,200,6686.91,7050.94)"><path d="M0.1,-0l0,-0.724l0.139,0l0,0.312l0.335,-0l0,-0.312l0.139,0l-0,0.724l-0.139,-0l0,-0.316l-0.335,0l-0,0.316l-0.139,-0Zm-0.074,-0l-0,-0.058c-0,-0.009 0.002,-0.016 0.007,-0.021c0.005,-0.005 0.013,-0.008 0.022,-0.01l0.057,-0.012l0.013,0.101l-0.099,-0Zm0.189,-0l0.013,-0.101l0.057,0.012c0.009,0.002 0.016,0.005 0.021,0.01c0.005,0.005 0.008,0.012 0.008,0.021l-0,0.058l-0.099,-0Zm-0.09,-0.724l-0.013,0.101l-0.057,-0.012c-0.009,-0.002 -0.017,-0.005 -0.022,-0.01c-0.005,-0.005 -0.007,-0.012 -0.007,-0.021l-0,-0.058l0.099,0Zm0.189,0l-0,0.058c-0,0.009 -0.003,0.016 -0.008,0.021c-0.005,0.005 -0.012,0.008 -0.021,0.01l-0.057,0.012l-0.013,-0.101l0.099,0Zm0.185,0.724l-0,-0.058c-0,-0.009 0.002,-0.016 0.007,-0.021c0.005,-0.005 0.013,-0.008 0.022,-0.01l0.057,-0.012l0.013,0.101l-0.099,-0Zm0.19,-0l0.013,-0.101l0.057,0.012c0.009,0.002 0.016,0.005 0.021,0.01c0.005,0.005 0.008,0.012 0.008,0.021l-0,0.058l-0.099,-0Zm-0.091,-0.724l-0.013,0.101l-0.057,-0.012c-0.009,-0.002 -0.017,-0.005 -0.022,-0.01c-0.005,-0.005 -0.007,-0.012 -0.007,-0.021l-0,-0.058l0.099,0Zm0.19,0l0,0.058c-0,0.009 -0.003,0.016 -0.008,0.021c-0.005,0.005 -0.012,0.008 -0.021,0.01l-0.057,0.012l-0.013,-0.101l0.099,0Z" style="fill-rule:nonzero;"/></g><g transform="matrix(200,0,0,200,6849.71,7050.94)"><path d="M0.092,-0.724l0.118,0l-0,0.286c-0,0.015 -0,0.031 -0.001,0.046c-0.001,0.015 -0.002,0.029 -0.003,0.044c-0.001,0.015 -0.003,0.03 -0.005,0.045c-0.002,0.015 -0.004,0.031 -0.007,0.048l-0.086,0c-0.002,-0.017 -0.004,-0.033 -0.007,-0.048c-0.002,-0.015 -0.004,-0.03 -0.005,-0.045c-0.001,-0.015 -0.002,-0.029 -0.003,-0.044c-0.001,-0.015 -0.001,-0.031 -0.001,-0.046l0,-0.286Zm-0.02,0.656c0,-0.021 0.007,-0.039 0.022,-0.054c0.015,-0.015 0.034,-0.022 0.055,-0.022c0.022,-0 0.04,0.007 0.055,0.022c0.015,0.015 0.023,0.033 0.023,0.054c0,0.021 -0.008,0.039 -0.023,0.054c-0.015,0.014 -0.033,0.021 -0.055,0.021c-0.021,-0 -0.04,-0.007 -0.055,-0.021c-0.015,-0.015 -0.022,-0.033 -0.022,-0.054Z" style="fill-rule:nonzero;"/></g><g transform="matrix(200,0,0,200,6909.51,7050.94)"><path d="M0.092,-0.724l0.118,0l-0,0.286c-0,0.015 -0,0.031 -0.001,0.046c-0.001,0.015 -0.002,0.029 -0.003,0.044c-0.001,0.015 -0.003,0.03 -0.005,0.045c-0.002,0.015 -0.004,0.031 -0.007,0.048l-0.086,0c-0.002,-0.017 -0.004,-0.033 -0.007,-0.048c-0.002,-0.015 -0.004,-0.03 -0.005,-0.045c-0.001,-0.015 -0.002,-0.029 -0.003,-0.044c-0.001,-0.015 -0.001,-0.031 -0.001,-0.046l0,-0.286Zm-0.02,0.656c0,-0.021 0.007,-0.039 0.022,-0.054c0.015,-0.015 0.034,-0.022 0.055,-0.022c0.022,-0 0.04,0.007 0.055,0.022c0.015,0.015 0.023,0.033 0.023,0.054c0,0.021 -0.008,0.039 -0.023,0.054c-0.015,0.014 -0.033,0.021 -0.055,0.021c-0.021,-0 -0.04,-0.007 -0.055,-0.021c-0.015,-0.015 -0.022,-0.033 -0.022,-0.054Z" style="fill-rule:nonzero;"/></g><g transform="matrix(200,0,0,200,6969.31,7050.94)"><path d="M0.092,-0.724l0.118,0l-0,0.286c-0,0.015 -0,0.031 -0.001,0.046c-0.001,0.015 -0.002,0.029 -0.003,0.044c-0.001,0.015 -0.003,0.03 -0.005,0.045c-0.002,0.015 -0.004,0.031 -0.007,0.048l-0.086,0c-0.002,-0.017 -0.004,-0.033 -0.007,-0.048c-0.002,-0.015 -0.004,-0.03 -0.005,-0.045c-0.001,-0.015 -0.002,-0.029 -0.003,-0.044c-0.001,-0.015 -0.001,-0.031 -0.001,-0.046l0,-0.286Zm-0.02,0.656c0,-0.021 0.007,-0.039 0.022,-0.054c0.015,-0.015 0.034,-0.022 0.055,-0.022c0.022,-0 0.04,0.007 0.055,0.022c0.015,0.015 0.023,0.033 0.023,0.054c0,0.021 -0.008,0.039 -0.023,0.054c-0.015,0.014 -0.033,0.021 -0.055,0.021c-0.021,-0 -0.04,-0.007 -0.055,-0.021c-0.015,-0.015 -0.022,-0.033 -0.022,-0.054Z" style="fill-rule:nonzero;"/></g><g transform="matrix(200,0,0,200,7029.11,7050.94)"></g></g><g><g><path d="M314.553,456.077c-0,0 -17.572,10.343 -28.54,4.779c-10.968,-5.563 -8.472,-15.908 0.885,-15.127c9.357,0.781 18.221,0.704 23.68,-4.494c5.459,-5.198 15.126,8.423 3.975,14.842Z" style="fill:#d6c295;stroke:#000;stroke-width:4.11px;"/><path d="M256.246,319.229c0,-0 -8.756,-10.65 -14.189,13.271" style="fill:none;stroke:#61e0ee;stroke-width:4.11px;"/><path d="M223.507,314.313c0,0 9.857,-8.817 11.105,16.417" style="fill:none;stroke:#61e0ee;stroke-width:4.11px;"/><path d="M248.985,308.201c0,0 -10.185,-7.653 -10.336,20.108" style="fill:none;stroke:#61e0ee;stroke-width:4.11px;"/><path d="M279.898,551.466c-0,-0 -0.655,-20.38 -11.221,-26.674c-10.566,-6.294 -17.973,1.347 -12.31,8.837c5.663,7.49 10.337,15.021 8.863,22.413c-1.474,7.393 15.206,8.279 14.668,-4.576Z" style="fill:#d6c295;stroke:#000;stroke-width:4.11px;"/><path d="M162.941,548.264c0,0 5.052,-19.754 16.73,-23.611c11.678,-3.857 17.255,5.206 10.105,11.292c-7.15,6.086 -13.344,12.427 -13.506,19.963c-0.161,7.536 -16.637,4.791 -13.329,-7.644Z" style="fill:#d6c295;stroke:#000;stroke-width:4.11px;"/><path d="M168.299,373.935c-0.202,-2.273 -4.528,-6.057 -6.376,-6.981c-22.481,-11.24 -16.395,16.001 -2.802,15.988" style="fill:#61e0ee;"/><path d="M171.026,373.693c0.133,1.505 -0.981,2.836 -2.486,2.969c-1.505,0.133 -2.836,-0.981 -2.969,-2.486c-0.01,-0.117 -0.115,-0.226 -0.196,-0.365c-0.238,-0.405 -0.566,-0.825 -0.932,-1.242c-1.208,-1.375 -2.831,-2.709 -3.744,-3.166c-2.969,-1.484 -5.358,-2.247 -7.258,-2.402c-1.27,-0.104 -2.232,0.046 -2.871,0.569c-0.492,0.404 -0.718,1.013 -0.814,1.686c-0.146,1.016 0.014,2.166 0.381,3.324c1.177,3.719 4.501,7.628 8.981,7.624c1.511,-0.001 2.739,1.224 2.741,2.735c0.001,1.511 -1.225,2.74 -2.736,2.741c-6.938,0.007 -12.383,-5.688 -14.207,-11.448c-1.379,-4.357 -0.611,-8.606 2.183,-10.896c2.651,-2.174 7.811,-2.95 16.049,1.169c1.526,0.763 4.508,3.154 6.227,5.455c0.985,1.318 1.556,2.658 1.651,3.733Z"/><path d="M295.391,366.134c2.069,0.963 4.467,-0.202 6.191,-1.341c20.976,-13.849 -5.597,-22.091 -12.382,-10.313" style="fill:#61e0ee;"/><path d="M294.236,368.617c-1.37,-0.637 -1.965,-2.267 -1.328,-3.637c0.638,-1.37 2.267,-1.965 3.638,-1.328c0.417,0.194 0.869,0.098 1.303,-0.029c0.808,-0.236 1.576,-0.686 2.225,-1.115c2.771,-1.83 4.629,-3.517 5.716,-5.082c0.725,-1.043 1.079,-1.945 0.948,-2.755c-0.101,-0.617 -0.509,-1.106 -1.035,-1.518c-0.801,-0.626 -1.871,-1.055 -3.051,-1.31c-3.802,-0.824 -8.842,0.12 -11.08,4.004c-0.754,1.31 -2.429,1.76 -3.739,1.006c-1.309,-0.754 -1.76,-2.43 -1.006,-3.739c3.463,-6.011 11.101,-7.897 16.984,-6.623c4.463,0.966 7.754,3.745 8.332,7.302c0.547,3.366 -1.367,8.211 -9.052,13.285c-2.446,1.615 -5.92,2.904 -8.855,1.539Z"/><path d="M281.644,527.795c-0,0 11.844,-19.43 11.236,-36.927c-1.902,-54.772 14.904,-64.195 11.206,-97.801c-1.285,-11.669 -4.377,-25.085 -10.629,-35.145c-13.741,-22.109 -42.412,-35.252 -68.457,-32.315c-10.429,1.177 -20.051,4.911 -29.612,9.083c-33.26,14.513 -42.658,49.826 -40.832,80.34c0.809,13.509 10.697,35.226 7.983,48.501c-5.657,27.671 -5.841,42.87 1.494,61.566c6.252,15.934 34.297,29.735 66.185,28.883c5.433,-0.146 38.121,-3.314 51.426,-26.185Z" style="fill:#61e0ee;"/><clipPath id="_clip1"><path d="M281.644,527.795c-0,0 11.844,-19.43 11.236,-36.927c-1.902,-54.772 14.904,-64.195 11.206,-97.801c-1.285,-11.669 -4.377,-25.085 -10.629,-35.145c-13.741,-22.109 -42.412,-35.252 -68.457,-32.315c-10.429,1.177 -20.051,4.911 -29.612,9.083c-33.26,14.513 -42.658,49.826 -40.832,80.34c0.809,13.509 10.697,35.226 7.983,48.501c-5.657,27.671 -5.841,42.87 1.494,61.566c6.252,15.934 34.297,29.735 66.185,28.883c5.433,-0.146 38.121,-3.314 51.426,-26.185Z"/></clipPath><g clip-path="url(#_clip1)"><path d="M180.701,346.787c0,0 -11.96,13.153 -10.69,35.114c1.907,32.988 16.169,27.042 10.709,85.725c-2.722,29.253 -5.83,46.785 5.71,65.41c11.208,18.09 47.033,20.825 56.288,18.935c9.254,-1.89 -36.423,6.564 -61.241,-5.758c-24.817,-12.322 -25.091,-56.069 -19.635,-82.977c5.456,-26.908 -15.68,-36.344 -4.828,-82.616c13.755,-26.529 13.894,-24.957 23.687,-33.833Z" style="fill:#4fcbe0;"/><path d="M220.339,390.236c0,-0 -4.404,15.651 -23.276,13.265c-18.872,-2.387 -18.707,-21.829 -18.707,-21.829l41.983,8.564Z" style="fill:#4fcbe0;"/><path d="M301.985,388.396c-0,-0 -4.404,15.651 -23.276,13.265c-18.872,-2.387 -18.707,-21.829 -18.707,-21.829l41.983,8.564Z" style="fill:#4fcbe0;"/></g><path d="M284.002,529.187l-0.002,0.004c-5.623,9.654 -14.485,16.02 -23.501,20.149c-13.277,6.081 -26.829,7.286 -30.208,7.377c-19.702,0.526 -37.971,-4.411 -50.83,-11.964c-8.942,-5.252 -15.291,-11.811 -17.977,-18.656c-7.52,-19.167 -7.427,-34.746 -1.627,-63.115c1.288,-6.304 -0.52,-14.602 -2.642,-22.939c-2.28,-8.959 -4.979,-17.955 -5.392,-24.849c-1.89,-31.573 8.057,-67.997 42.47,-83.014c9.812,-4.281 19.696,-8.086 30.4,-9.293c27.051,-3.052 56.818,10.626 71.089,33.59c6.459,10.392 9.699,24.237 11.025,36.291c1.523,13.835 -0.314,23.69 -2.962,34.141c-3.813,15.05 -9.356,31.39 -8.228,63.864c0.617,17.78 -11.065,37.496 -11.615,38.414Zm-4.696,-2.817c0,0 11.421,-18.622 10.838,-35.406c-0.964,-27.766 2.814,-44.037 6.363,-57.626c3.417,-13.08 6.662,-23.573 4.857,-39.971c-1.242,-11.284 -4.187,-24.271 -10.233,-34c-13.21,-21.255 -40.786,-33.863 -65.824,-31.039c-10.155,1.145 -19.515,4.809 -28.824,8.871c-32.107,14.01 -40.957,48.212 -39.194,77.668c0.479,7.987 4.212,18.88 6.517,29.148c1.654,7.365 2.567,14.433 1.416,20.064c-5.515,26.974 -5.791,41.793 1.36,60.017c2.316,5.902 7.943,11.408 15.652,15.935c12.117,7.117 29.346,11.708 47.91,11.212c3.141,-0.084 15.733,-1.229 28.075,-6.882c8.057,-3.69 16.037,-9.311 21.058,-17.943c0.01,-0.016 0.019,-0.032 0.029,-0.048Z"/><path d="M203.881,539.002c53.063,16.737 64.942,-14.057 67.327,-20.765c4.492,-12.636 8.114,-37.521 5.995,-51.065c-0.736,-4.703 -2.394,-10.123 -5.613,-14.218c-7.075,-8.999 -41.553,-12.39 -54.614,-11.41c-5.231,0.392 -10.036,1.819 -14.806,3.423c-16.597,5.578 -28.377,84.544 1.711,94.035Z" style="fill:#b7f8ff;"/><path d="M294.149,404.901c-1.244,-0.096 -2.332,0.836 -2.428,2.08c-0.096,1.245 0.836,2.333 2.081,2.429c1.244,0.095 2.332,-0.837 2.428,-2.081c0.096,-1.245 -0.837,-2.333 -2.081,-2.428Z" style="fill:#b7f8ff;"/><path d="M181.906,400.374c-1.244,-0.095 -2.332,0.837 -2.428,2.081c-0.096,1.245 0.836,2.333 2.081,2.428c1.244,0.096 2.332,-0.836 2.428,-2.08c0.096,-1.245 -0.837,-2.333 -2.081,-2.429Z" style="fill:#b7f8ff;"/><g><path d="M198.137,420.963c4.191,-18.171 25.277,-15.982 40.263,-8.252c14.987,7.731 20.475,-9.417 31.811,-4.392c11.335,5.025 -2.924,36.919 -26.906,41.582c-23.981,4.663 -49.007,-12.287 -45.168,-28.938Z"/><g><path d="M251.356,417.766c-0.836,3.3 -1.091,9.523 -3.043,12.226c-0.946,1.311 -3.014,1.35 -4.362,1.376c-7.743,0.151 -7.525,-7.776 -8.588,-14.686" style="fill:#ededed;"/><path d="M249.365,417.262c0.278,-1.098 1.396,-1.764 2.495,-1.486c1.098,0.278 1.765,1.396 1.486,2.495c-0.496,1.96 -0.782,4.963 -1.351,7.629c-0.451,2.11 -1.099,4.023 -2.017,5.294c-0.637,0.884 -1.551,1.463 -2.596,1.797c-1.124,0.359 -2.413,0.411 -3.391,0.43c-2.501,0.049 -4.344,-0.609 -5.747,-1.681c-1.382,-1.058 -2.351,-2.553 -3.018,-4.354c-1.089,-2.942 -1.34,-6.796 -1.893,-10.391c-0.172,-1.12 0.597,-2.17 1.717,-2.342c1.12,-0.173 2.17,0.597 2.342,1.717c0.51,3.314 0.682,6.878 1.686,9.59c0.379,1.026 0.874,1.916 1.662,2.518c0.768,0.587 1.801,0.864 3.171,0.837c0.558,-0.011 1.265,-0.012 1.931,-0.159c0.303,-0.067 0.628,-0.118 0.806,-0.366c0.644,-0.892 1.014,-2.267 1.33,-3.748c0.581,-2.719 0.881,-5.78 1.387,-7.78Z"/><path d="M244.907,392.608c-6.276,-0.097 -11.42,3.063 -11.482,7.053c-0.062,3.989 4.983,7.307 11.259,7.404c6.275,0.096 11.42,-3.064 11.481,-7.053c0.062,-3.99 -4.983,-7.307 -11.258,-7.404Z"/><path d="M243.02,404.794c0.067,-1.131 1.041,-1.994 2.172,-1.926c1.132,0.067 1.995,1.041 1.927,2.172c-0.203,3.396 0.127,6.695 0.121,10.074c-0.001,1.134 -0.923,2.052 -2.056,2.05c-1.134,-0.001 -2.052,-0.923 -2.051,-2.056c0.006,-3.46 -0.322,-6.838 -0.113,-10.314Z"/><path d="M272.483,341.53c-2.323,-0.904 -4.59,-0.66 -5.058,0.544c-0.469,1.205 1.036,2.917 3.359,3.821c2.324,0.904 4.59,0.66 5.059,-0.545c0.469,-1.204 -1.037,-2.916 -3.36,-3.82Z" style="fill:#b7f8ff;"/><path d="M184.895,345.381c-1.745,1.781 -2.412,3.96 -1.489,4.865c0.923,0.905 3.089,0.194 4.834,-1.586c1.745,-1.78 2.412,-3.96 1.489,-4.865c-0.923,-0.905 -3.089,-0.194 -4.834,1.586Z" style="fill:#b7f8ff;"/><path d="M287.943,351.028c-12.533,-2.781 -24.966,5.137 -27.747,17.67c-2.781,12.534 5.137,24.967 17.67,27.748c12.534,2.781 24.967,-5.137 27.748,-17.671c2.781,-12.533 -5.137,-24.967 -17.671,-27.747Z" style="fill:#fff;stroke:#000;stroke-width:4.11px;"/><path d="M287.829,383.325c3.763,2.576 8.909,1.614 11.486,-2.149c2.576,-3.762 1.613,-8.909 -2.149,-11.485c-3.762,-2.577 -8.909,-1.614 -11.485,2.148c-2.577,3.763 -1.614,8.909 2.148,11.486Z"/><path d="M294.317,378.292c1.056,0.723 2.501,0.453 3.224,-0.603c0.724,-1.057 0.454,-2.502 -0.603,-3.225c-1.056,-0.723 -2.501,-0.453 -3.225,0.603c-0.723,1.057 -0.453,2.502 0.604,3.225Z" style="fill:#fff;"/><path d="M205.677,351.523c-12.533,-2.781 -24.966,5.137 -27.747,17.671c-2.781,12.533 5.137,24.967 17.67,27.747c12.534,2.781 24.967,-5.137 27.748,-17.67c2.781,-12.534 -5.137,-24.967 -17.671,-27.748Z" style="fill:#fff;stroke:#000;stroke-width:4.11px;"/><path d="M207.111,383.238c3.762,2.576 8.909,1.614 11.485,-2.149c2.577,-3.762 1.614,-8.908 -2.148,-11.485c-3.762,-2.577 -8.909,-1.614 -11.485,2.149c-2.577,3.762 -1.614,8.908 2.148,11.485Z"/><path d="M213.307,378.794c1.057,0.724 2.502,0.453 3.225,-0.603c0.723,-1.056 0.453,-2.501 -0.603,-3.225c-1.057,-0.723 -2.501,-0.453 -3.225,0.604c-0.723,1.056 -0.453,2.501 0.603,3.224Z" style="fill:#fff;"/></g></g><path d="M206.061,449.446c0,0 -20.39,0.002 -27.019,10.362c-6.629,10.359 0.771,18.006 8.438,12.586c7.667,-5.42 15.344,-9.85 22.686,-8.141c7.341,1.71 8.761,-14.933 -4.105,-14.807Z" style="fill:#d6c295;stroke:#000;stroke-width:4.11px;"/></g><path d="M392.969,474.881l-15.678,-0l30.552,82.409l15.678,0l-30.552,-82.409Z" style="fill:#80583b;stroke:#000;stroke-width:3.62px;"/><path d="M376.9,505.176l10.526,0l-20.512,55.33l-10.526,0l20.512,-55.33Z" style="fill:#80583b;stroke:#000;stroke-width:3.62px;"/><path d="M339.906,483.725l4.422,12.462l92.861,-32.16l-5.628,-13.668l-91.655,33.366Z" style="fill:#80583b;stroke:#000;stroke-width:3.62px;"/><path d="M407.975,392.596l0,65.928l16.482,-6.432l0,-61.506l-16.482,2.01Z" style="fill:#80583b;stroke:#000;stroke-width:3.62px;"/><circle cx="415.995" cy="381.853" r="8.281" style="fill:#61e0ee;stroke:#000;stroke-width:3.62px;"/><path d="M387.688,489.675c-0.716,-1.425 -0.185,-3.141 1.186,-3.83c1.371,-0.689 3.065,-0.09 3.781,1.335c0.716,1.426 0.185,3.142 -1.186,3.83c-1.371,0.689 -3.065,0.091 -3.781,-1.335Z" style="fill:#d4d4d4;stroke:#000;stroke-width:1.03px;"/><path d="M415.021,463.989c-0.716,-1.426 -0.184,-3.142 1.187,-3.831c1.37,-0.688 3.065,-0.09 3.781,1.335c0.716,1.426 0.184,3.142 -1.187,3.831c-1.371,0.688 -3.065,0.09 -3.781,-1.335Z" style="fill:#d4d4d4;stroke:#000;stroke-width:1.03px;"/><path d="M370.137,534.362l2.47,-6.587l31.449,-6.751l2.635,7.575l-36.554,5.763Z" style="fill:#80583b;stroke:#000;stroke-width:3.62px;"/></g></g></svg>