<?xml version="1.0" encoding="UTF-8" standalone="no"?><!DOCTYPE svg PUBLIC "-//W3C//DTD SVG 1.1//EN" "http://www.w3.org/Graphics/SVG/1.1/DTD/svg11.dtd"><svg width="100%" height="100%" viewBox="0 0 600 600" version="1.1" xmlns="http://www.w3.org/2000/svg" xmlns:xlink="http://www.w3.org/1999/xlink" xml:space="preserve" xmlns:serif="http://www.serif.com/" style="fill-rule:evenodd;clip-rule:evenodd;stroke-linecap:round;stroke-linejoin:round;stroke-miterlimit:1.5;"><rect id="_41" serif:id="41" x="0" y="0" width="600" height="600" style="fill:none;"/><g><g><path d="M534.648,353.353c0,-16.501 -13.396,-29.897 -29.897,-29.897l-168.537,-0c-16.5,-0 -29.897,13.396 -29.897,29.897l0,168.537c0,16.501 13.397,29.897 29.897,29.897l168.537,-0c16.501,-0 29.897,-13.396 29.897,-29.897l0,-168.537Z" style="fill:#474747;stroke:#000;stroke-width:6.22px;"/><g transform="matrix(0.667377,0,0,0.667377,-4074.68,-4298.93)"><g transform="matrix(125,0,0,125,6287,6550.94)"><path d="M0.1,-0l0,-0.724l0.139,0l0,0.724l-0.139,-0Zm-0.074,-0l-0,-0.058c-0,-0.009 0.002,-0.016 0.007,-0.021c0.005,-0.005 0.013,-0.008 0.022,-0.01l0.057,-0.012l0.013,0.101l-0.099,-0Zm0.189,-0l0.013,-0.101l0.057,0.012c0.009,0.002 0.016,0.005 0.021,0.01c0.005,0.005 0.008,0.012 0.008,0.021l-0,0.058l-0.099,-0Zm-0.09,-0.724l-0.013,0.101l-0.057,-0.012c-0.009,-0.002 -0.017,-0.005 -0.022,-0.01c-0.005,-0.005 -0.007,-0.012 -0.007,-0.021l-0,-0.058l0.099,0Zm0.189,0l-0,0.058c-0,0.009 -0.003,0.016 -0.008,0.021c-0.005,0.005 -0.012,0.008 -0.021,0.01l-0.057,0.012l-0.013,-0.101l0.099,0Z" style="fill-rule:nonzero;"/></g><g transform="matrix(125,0,0,125,6329.5,6550.94)"></g><g transform="matrix(125,0,0,125,6360.25,6550.94)"><path d="M0.1,-0l0,-0.724l0.139,0l0,0.612l0.303,-0l0,0.112l-0.442,-0Zm0.345,-0.089l0.015,-0.082c0.002,-0.009 0.005,-0.016 0.01,-0.021c0.005,-0.005 0.012,-0.008 0.021,-0.008l0.051,-0l-0,0.088l-0.097,0.023Zm-0.419,0.089l-0,-0.058c-0,-0.009 0.002,-0.016 0.007,-0.021c0.005,-0.005 0.013,-0.008 0.022,-0.01l0.057,-0.012l0.013,0.101l-0.099,-0Zm0.099,-0.724l-0.013,0.101l-0.057,-0.012c-0.009,-0.002 -0.017,-0.005 -0.022,-0.01c-0.005,-0.005 -0.007,-0.012 -0.007,-0.021l-0,-0.058l0.099,0Zm0.19,0l-0,0.058c-0,0.009 -0.003,0.016 -0.008,0.021c-0.005,0.005 -0.012,0.008 -0.021,0.01l-0.058,0.012l-0.012,-0.101l0.099,0Z" style="fill-rule:nonzero;"/></g><g transform="matrix(125,0,0,125,6424.25,6550.94)"><path d="M0.389,0.008c-0.055,0 -0.105,-0.009 -0.15,-0.028c-0.045,-0.019 -0.083,-0.045 -0.116,-0.078c-0.031,-0.033 -0.056,-0.072 -0.075,-0.117c-0.018,-0.045 -0.027,-0.094 -0.027,-0.147c-0,-0.053 0.009,-0.102 0.027,-0.147c0.019,-0.045 0.044,-0.085 0.075,-0.118c0.033,-0.033 0.071,-0.058 0.116,-0.077c0.045,-0.019 0.095,-0.028 0.15,-0.028c0.055,0 0.106,0.009 0.151,0.028c0.046,0.019 0.085,0.045 0.116,0.078c0.033,0.033 0.058,0.072 0.075,0.117c0.017,0.045 0.026,0.094 0.026,0.147c0,0.053 -0.009,0.102 -0.026,0.147c-0.017,0.045 -0.042,0.084 -0.075,0.117c-0.031,0.033 -0.07,0.059 -0.116,0.078c-0.046,0.019 -0.096,0.028 -0.151,0.028Zm0,-0.116c0.048,0 0.089,-0.01 0.122,-0.031c0.034,-0.021 0.06,-0.05 0.077,-0.088c0.018,-0.038 0.027,-0.083 0.027,-0.135c0,-0.051 -0.009,-0.096 -0.027,-0.134c-0.017,-0.038 -0.043,-0.067 -0.077,-0.088c-0.033,-0.021 -0.074,-0.032 -0.122,-0.032c-0.047,0 -0.087,0.011 -0.121,0.032c-0.034,0.021 -0.06,0.05 -0.078,0.088c-0.018,0.038 -0.027,0.083 -0.027,0.134c0,0.051 0.009,0.096 0.027,0.135c0.018,0.038 0.044,0.067 0.078,0.088c0.034,0.021 0.074,0.031 0.121,0.031Z" style="fill-rule:nonzero;"/></g><g transform="matrix(125,0,0,125,6518.25,6550.94)"><path d="M0.335,-0l-0.292,-0.724l0.111,0c0.012,0 0.022,0.003 0.029,0.009c0.008,0.005 0.014,0.013 0.017,0.022l0.167,0.44c0.005,0.015 0.011,0.031 0.016,0.048c0.006,0.017 0.011,0.034 0.016,0.053c0.004,-0.019 0.008,-0.036 0.013,-0.053c0.005,-0.017 0.011,-0.033 0.016,-0.048l0.167,-0.44c0.003,-0.007 0.008,-0.014 0.016,-0.021c0.008,-0.007 0.018,-0.01 0.029,-0.01l0.112,0l-0.292,0.724l-0.125,-0Zm-0.192,-0.691l-0,-0.033l0.074,0l-0,0.033l-0.074,0Zm0.448,0l-0,-0.033l0.074,0l-0,0.033l-0.074,0Zm-0.482,-0.033l-0.012,0.101l-0.058,-0.012c-0.009,-0.002 -0.016,-0.005 -0.021,-0.01c-0.005,-0.005 -0.008,-0.012 -0.008,-0.021l-0,-0.058l0.099,0Zm0.175,0l-0,0.058c-0,0.009 -0.003,0.016 -0.008,0.021c-0.005,0.005 -0.012,0.008 -0.021,0.01l-0.057,0.012l-0.013,-0.101l0.099,0Zm0.325,0l-0.012,0.101l-0.058,-0.012c-0.009,-0.002 -0.016,-0.005 -0.021,-0.01c-0.005,-0.005 -0.008,-0.012 -0.008,-0.021l-0,-0.058l0.099,0Zm0.176,0l-0,0.058c-0,0.009 -0.003,0.016 -0.008,0.021c-0.005,0.005 -0.012,0.008 -0.021,0.01l-0.058,0.012l-0.013,-0.101l0.1,0Z" style="fill-rule:nonzero;"/></g><g transform="matrix(125,0,0,125,6617.62,6550.94)"><path d="M0.1,-0l0,-0.724l0.458,0l0,0.108l-0.319,0l-0,0.2l0.242,-0l-0,0.104l-0.242,-0l-0,0.204l0.319,-0l0,0.108l-0.458,-0Zm0.36,-0.085l0.015,-0.082c0.003,-0.009 0.006,-0.016 0.011,-0.021c0.005,-0.005 0.011,-0.008 0.02,-0.008l0.052,-0l0,0.088l-0.098,0.023Zm-0,-0.554l0.098,0.023l0,0.088l-0.052,0c-0.009,0 -0.015,-0.002 -0.02,-0.007c-0.005,-0.005 -0.008,-0.013 -0.011,-0.022l-0.015,-0.082Zm-0.335,-0.085l-0.012,0.101l-0.058,-0.012c-0.009,-0.002 -0.016,-0.005 -0.021,-0.01c-0.005,-0.005 -0.008,-0.012 -0.008,-0.021l0,-0.058l0.099,0Zm-0.099,0.724l0,-0.058c0,-0.009 0.002,-0.016 0.007,-0.021c0.005,-0.005 0.013,-0.008 0.022,-0.01l0.057,-0.012l0.013,0.101l-0.099,0Z" style="fill-rule:nonzero;"/></g><g transform="matrix(125,0,0,125,6692.12,6550.94)"></g><g transform="matrix(125,0,0,125,6722.87,6550.94)"><path d="M0.1,-0l0,-0.724l0.458,0l0,0.108l-0.319,0l-0,0.214l0.269,0l0,0.108l-0.269,0l0,0.294l-0.139,0Zm0.36,-0.639l0.098,0.023l0,0.088l-0.052,0c-0.009,0 -0.015,-0.002 -0.02,-0.007c-0.005,-0.005 -0.008,-0.013 -0.011,-0.022l-0.015,-0.082Zm-0.335,-0.085l-0.013,0.101l-0.057,-0.012c-0.009,-0.002 -0.017,-0.005 -0.022,-0.01c-0.005,-0.005 -0.007,-0.012 -0.007,-0.021l0,-0.058l0.099,0Zm-0.099,0.724l0,-0.058c0,-0.009 0.002,-0.016 0.007,-0.021c0.005,-0.005 0.013,-0.008 0.022,-0.01l0.057,-0.012l0.013,0.101l-0.099,0Zm0.189,0l0.013,-0.101l0.057,0.012c0.009,0.002 0.016,0.005 0.021,0.01c0.005,0.005 0.008,0.012 0.008,0.021l0,0.058l-0.099,0Z" style="fill-rule:nonzero;"/></g><g transform="matrix(125,0,0,125,6797.5,6550.94)"><path d="M0.507,-0.724l0,0.053c0,0.019 -0.006,0.034 -0.019,0.045c-0.012,0.01 -0.031,0.015 -0.056,0.015l-0.196,-0l-0.025,0.15c0.015,-0.003 0.03,-0.006 0.045,-0.007c0.015,-0.001 0.029,-0.002 0.042,-0.002c0.05,-0 0.092,0.01 0.126,0.029c0.035,0.019 0.061,0.044 0.079,0.077c0.019,0.033 0.028,0.071 0.028,0.114c0,0.051 -0.012,0.096 -0.035,0.135c-0.023,0.039 -0.055,0.069 -0.096,0.091c-0.041,0.021 -0.087,0.032 -0.139,0.032c-0.042,-0 -0.082,-0.008 -0.119,-0.025c-0.037,-0.017 -0.068,-0.037 -0.094,-0.061l0.039,-0.052c0.009,-0.012 0.02,-0.018 0.033,-0.018c0.008,-0 0.017,0.003 0.028,0.008c0.011,0.005 0.024,0.011 0.037,0.018c0.014,0.007 0.028,0.013 0.042,0.018c0.015,0.005 0.029,0.007 0.042,0.007c0.03,-0 0.055,-0.006 0.074,-0.018c0.02,-0.013 0.035,-0.03 0.045,-0.052c0.011,-0.023 0.016,-0.048 0.016,-0.077c0,-0.039 -0.011,-0.07 -0.034,-0.092c-0.023,-0.022 -0.056,-0.033 -0.099,-0.033c-0.035,-0 -0.07,0.006 -0.104,0.019l-0.079,-0.022l0.06,-0.352l0.359,-0Z" style="fill-rule:nonzero;"/></g><g transform="matrix(125,0,0,125,6870.62,6550.94)"></g><g transform="matrix(50,0,0,50,6361.89,6650.94)"><path d="M0.265,0.008c-0.027,0 -0.054,-0.002 -0.08,-0.005c-0.025,-0.003 -0.05,-0.008 -0.073,-0.013c-0.023,-0.006 -0.044,-0.013 -0.065,-0.02l0,-0.099l0.064,-0.007c0.029,0.013 0.056,0.022 0.081,0.027c0.026,0.004 0.053,0.006 0.08,0.006c0.025,-0 0.046,-0.004 0.063,-0.012c0.017,-0.008 0.031,-0.02 0.04,-0.035c0.01,-0.016 0.015,-0.035 0.015,-0.056c-0,-0.02 -0.005,-0.036 -0.015,-0.048c-0.009,-0.013 -0.022,-0.023 -0.039,-0.031c-0.016,-0.008 -0.034,-0.015 -0.053,-0.02c-0.019,-0.006 -0.039,-0.012 -0.06,-0.019c-0.029,-0.01 -0.056,-0.022 -0.082,-0.037c-0.025,-0.015 -0.046,-0.036 -0.061,-0.061c-0.015,-0.025 -0.023,-0.058 -0.023,-0.099c-0,-0.039 0.01,-0.075 0.03,-0.107c0.02,-0.032 0.048,-0.057 0.083,-0.076c0.036,-0.019 0.078,-0.028 0.126,-0.028c0.034,0 0.069,0.005 0.106,0.015c0.037,0.01 0.07,0.024 0.099,0.042l0,0.08l-0.072,-0.001c-0.021,-0.007 -0.042,-0.013 -0.064,-0.018c-0.021,-0.005 -0.044,-0.007 -0.068,-0.007c-0.035,0 -0.063,0.008 -0.082,0.025c-0.019,0.016 -0.029,0.037 -0.029,0.064c0,0.023 0.008,0.042 0.025,0.055c0.017,0.013 0.039,0.024 0.064,0.033c0.026,0.008 0.052,0.017 0.078,0.026c0.031,0.011 0.059,0.024 0.084,0.039c0.025,0.015 0.045,0.034 0.06,0.059c0.015,0.024 0.022,0.056 0.022,0.095c0,0.045 -0.01,0.085 -0.031,0.12c-0.02,0.035 -0.049,0.063 -0.087,0.083c-0.038,0.02 -0.083,0.03 -0.136,0.03Zm0.139,-0.626l0.097,0.023l0,0.088l-0.052,0c-0.009,0 -0.015,-0.002 -0.02,-0.007c-0.005,-0.005 -0.008,-0.013 -0.01,-0.022l-0.015,-0.082Zm-0.26,0.512l-0.097,-0.023l0,-0.088l0.052,0c0.009,0 0.015,0.003 0.02,0.008c0.005,0.005 0.009,0.012 0.01,0.021l0.015,0.082Z" style="fill-rule:nonzero;"/></g><g transform="matrix(50,0,0,50,6389.99,6650.94)"><path d="M0.389,0.008c-0.055,0 -0.105,-0.009 -0.15,-0.028c-0.045,-0.019 -0.083,-0.045 -0.116,-0.078c-0.031,-0.033 -0.056,-0.072 -0.075,-0.117c-0.018,-0.045 -0.027,-0.094 -0.027,-0.147c-0,-0.053 0.009,-0.102 0.027,-0.147c0.019,-0.045 0.044,-0.085 0.075,-0.118c0.033,-0.033 0.071,-0.058 0.116,-0.077c0.045,-0.019 0.095,-0.028 0.15,-0.028c0.055,0 0.106,0.009 0.151,0.028c0.046,0.019 0.085,0.045 0.116,0.078c0.033,0.033 0.058,0.072 0.075,0.117c0.017,0.045 0.026,0.094 0.026,0.147c0,0.053 -0.009,0.102 -0.026,0.147c-0.017,0.045 -0.042,0.084 -0.075,0.117c-0.031,0.033 -0.07,0.059 -0.116,0.078c-0.046,0.019 -0.096,0.028 -0.151,0.028Zm0,-0.116c0.048,0 0.089,-0.01 0.122,-0.031c0.034,-0.021 0.06,-0.05 0.077,-0.088c0.018,-0.038 0.027,-0.083 0.027,-0.135c0,-0.051 -0.009,-0.096 -0.027,-0.134c-0.017,-0.038 -0.043,-0.067 -0.077,-0.088c-0.033,-0.021 -0.074,-0.032 -0.122,-0.032c-0.047,0 -0.087,0.011 -0.121,0.032c-0.034,0.021 -0.06,0.05 -0.078,0.088c-0.018,0.038 -0.027,0.083 -0.027,0.134c0,0.051 0.009,0.096 0.027,0.135c0.018,0.038 0.044,0.067 0.078,0.088c0.034,0.021 0.074,0.031 0.121,0.031Z" style="fill-rule:nonzero;"/></g><g transform="matrix(50,0,0,50,6428.89,6650.94)"></g><g transform="matrix(50,0,0,50,6441.19,6650.94)"><path d="M0.1,-0l0,-0.724l0.223,0c0.057,0 0.107,0.008 0.148,0.023c0.042,0.015 0.074,0.037 0.097,0.068c0.023,0.031 0.035,0.07 0.035,0.118c0,0.033 -0.006,0.064 -0.019,0.091c-0.013,0.027 -0.031,0.05 -0.055,0.069c-0.023,0.019 -0.052,0.035 -0.085,0.046c0.018,0.009 0.033,0.023 0.046,0.042l0.178,0.267l-0.124,0c-0.024,0 -0.041,-0.009 -0.051,-0.027l-0.149,-0.231c-0.006,-0.009 -0.012,-0.015 -0.019,-0.018c-0.007,-0.004 -0.017,-0.006 -0.03,-0.006l-0.056,0l0,0.282l-0.139,0Zm0.139,-0.379l0.082,0c0.048,0 0.084,-0.011 0.109,-0.034c0.025,-0.023 0.038,-0.053 0.038,-0.092c0,-0.037 -0.012,-0.065 -0.036,-0.084c-0.023,-0.019 -0.06,-0.029 -0.109,-0.029l-0.084,0l0,0.239Zm0.338,0.379l-0.052,-0.114l0.068,0.014l-0.016,0.1Zm-0.551,-0l0,-0.058c0,-0.009 0.002,-0.016 0.007,-0.021c0.005,-0.005 0.013,-0.008 0.022,-0.01l0.057,-0.012l0.013,0.101l-0.099,-0Zm0.099,-0.724l-0.013,0.101l-0.057,-0.012c-0.009,-0.002 -0.017,-0.005 -0.022,-0.01c-0.005,-0.005 -0.007,-0.012 -0.007,-0.021l0,-0.058l0.099,0Zm0.09,0.724l0.012,-0.101l0.058,0.012c0.009,0.002 0.016,0.005 0.021,0.01c0.005,0.005 0.008,0.012 0.008,0.021l0,0.058l-0.099,0Zm0.362,0l0.013,-0.101l0.057,0.012c0.009,0.002 0.016,0.005 0.021,0.01c0.005,0.005 0.008,0.012 0.008,0.021l0,0.058l-0.099,0Z" style="fill-rule:nonzero;"/></g><g transform="matrix(50,0,0,50,6475.49,6650.94)"><path d="M0.1,-0l0,-0.724l0.458,0l0,0.108l-0.319,0l-0,0.2l0.242,-0l-0,0.104l-0.242,-0l-0,0.204l0.319,-0l0,0.108l-0.458,-0Zm0.36,-0.085l0.015,-0.082c0.003,-0.009 0.006,-0.016 0.011,-0.021c0.005,-0.005 0.011,-0.008 0.02,-0.008l0.052,-0l0,0.088l-0.098,0.023Zm-0,-0.554l0.098,0.023l0,0.088l-0.052,0c-0.009,0 -0.015,-0.002 -0.02,-0.007c-0.005,-0.005 -0.008,-0.013 -0.011,-0.022l-0.015,-0.082Zm-0.335,-0.085l-0.012,0.101l-0.058,-0.012c-0.009,-0.002 -0.016,-0.005 -0.021,-0.01c-0.005,-0.005 -0.008,-0.012 -0.008,-0.021l0,-0.058l0.099,0Zm-0.099,0.724l0,-0.058c0,-0.009 0.002,-0.016 0.007,-0.021c0.005,-0.005 0.013,-0.008 0.022,-0.01l0.057,-0.012l0.013,0.101l-0.099,0Z" style="fill-rule:nonzero;"/></g><g transform="matrix(50,0,0,50,6505.29,6650.94)"><path d="M0.1,-0l0,-0.724l0.458,0l0,0.108l-0.319,0l-0,0.214l0.269,0l0,0.108l-0.269,0l0,0.294l-0.139,0Zm0.36,-0.639l0.098,0.023l0,0.088l-0.052,0c-0.009,0 -0.015,-0.002 -0.02,-0.007c-0.005,-0.005 -0.008,-0.013 -0.011,-0.022l-0.015,-0.082Zm-0.335,-0.085l-0.013,0.101l-0.057,-0.012c-0.009,-0.002 -0.017,-0.005 -0.022,-0.01c-0.005,-0.005 -0.007,-0.012 -0.007,-0.021l0,-0.058l0.099,0Zm-0.099,0.724l0,-0.058c0,-0.009 0.002,-0.016 0.007,-0.021c0.005,-0.005 0.013,-0.008 0.022,-0.01l0.057,-0.012l0.013,0.101l-0.099,0Zm0.189,0l0.013,-0.101l0.057,0.012c0.009,0.002 0.016,0.005 0.021,0.01c0.005,0.005 0.008,0.012 0.008,0.021l0,0.058l-0.099,0Z" style="fill-rule:nonzero;"/></g><g transform="matrix(50,0,0,50,6535.14,6650.94)"><path d="M0.1,-0l0,-0.724l0.223,0c0.057,0 0.107,0.008 0.148,0.023c0.042,0.015 0.074,0.037 0.097,0.068c0.023,0.031 0.035,0.07 0.035,0.118c0,0.033 -0.006,0.064 -0.019,0.091c-0.013,0.027 -0.031,0.05 -0.055,0.069c-0.023,0.019 -0.052,0.035 -0.085,0.046c0.018,0.009 0.033,0.023 0.046,0.042l0.178,0.267l-0.124,0c-0.024,0 -0.041,-0.009 -0.051,-0.027l-0.149,-0.231c-0.006,-0.009 -0.012,-0.015 -0.019,-0.018c-0.007,-0.004 -0.017,-0.006 -0.03,-0.006l-0.056,0l0,0.282l-0.139,0Zm0.139,-0.379l0.082,0c0.048,0 0.084,-0.011 0.109,-0.034c0.025,-0.023 0.038,-0.053 0.038,-0.092c0,-0.037 -0.012,-0.065 -0.036,-0.084c-0.023,-0.019 -0.06,-0.029 -0.109,-0.029l-0.084,0l0,0.239Zm0.338,0.379l-0.052,-0.114l0.068,0.014l-0.016,0.1Zm-0.551,-0l0,-0.058c0,-0.009 0.002,-0.016 0.007,-0.021c0.005,-0.005 0.013,-0.008 0.022,-0.01l0.057,-0.012l0.013,0.101l-0.099,-0Zm0.099,-0.724l-0.013,0.101l-0.057,-0.012c-0.009,-0.002 -0.017,-0.005 -0.022,-0.01c-0.005,-0.005 -0.007,-0.012 -0.007,-0.021l0,-0.058l0.099,0Zm0.09,0.724l0.012,-0.101l0.058,0.012c0.009,0.002 0.016,0.005 0.021,0.01c0.005,0.005 0.008,0.012 0.008,0.021l0,0.058l-0.099,0Zm0.362,0l0.013,-0.101l0.057,0.012c0.009,0.002 0.016,0.005 0.021,0.01c0.005,0.005 0.008,0.012 0.008,0.021l0,0.058l-0.099,0Z" style="fill-rule:nonzero;"/></g><g transform="matrix(50,0,0,50,6569.44,6650.94)"><path d="M0.1,-0l0,-0.724l0.458,0l0,0.108l-0.319,0l-0,0.2l0.242,-0l-0,0.104l-0.242,-0l-0,0.204l0.319,-0l0,0.108l-0.458,-0Zm0.36,-0.085l0.015,-0.082c0.003,-0.009 0.006,-0.016 0.011,-0.021c0.005,-0.005 0.011,-0.008 0.02,-0.008l0.052,-0l0,0.088l-0.098,0.023Zm-0,-0.554l0.098,0.023l0,0.088l-0.052,0c-0.009,0 -0.015,-0.002 -0.02,-0.007c-0.005,-0.005 -0.008,-0.013 -0.011,-0.022l-0.015,-0.082Zm-0.335,-0.085l-0.012,0.101l-0.058,-0.012c-0.009,-0.002 -0.016,-0.005 -0.021,-0.01c-0.005,-0.005 -0.008,-0.012 -0.008,-0.021l0,-0.058l0.099,0Zm-0.099,0.724l0,-0.058c0,-0.009 0.002,-0.016 0.007,-0.021c0.005,-0.005 0.013,-0.008 0.022,-0.01l0.057,-0.012l0.013,0.101l-0.099,0Z" style="fill-rule:nonzero;"/></g><g transform="matrix(50,0,0,50,6599.24,6650.94)"><path d="M0.265,0.008c-0.027,0 -0.054,-0.002 -0.08,-0.005c-0.025,-0.003 -0.05,-0.008 -0.073,-0.013c-0.023,-0.006 -0.044,-0.013 -0.065,-0.02l0,-0.099l0.064,-0.007c0.029,0.013 0.056,0.022 0.081,0.027c0.026,0.004 0.053,0.006 0.08,0.006c0.025,-0 0.046,-0.004 0.063,-0.012c0.017,-0.008 0.031,-0.02 0.04,-0.035c0.01,-0.016 0.015,-0.035 0.015,-0.056c-0,-0.02 -0.005,-0.036 -0.015,-0.048c-0.009,-0.013 -0.022,-0.023 -0.039,-0.031c-0.016,-0.008 -0.034,-0.015 -0.053,-0.02c-0.019,-0.006 -0.039,-0.012 -0.06,-0.019c-0.029,-0.01 -0.056,-0.022 -0.082,-0.037c-0.025,-0.015 -0.046,-0.036 -0.061,-0.061c-0.015,-0.025 -0.023,-0.058 -0.023,-0.099c-0,-0.039 0.01,-0.075 0.03,-0.107c0.02,-0.032 0.048,-0.057 0.083,-0.076c0.036,-0.019 0.078,-0.028 0.126,-0.028c0.034,0 0.069,0.005 0.106,0.015c0.037,0.01 0.07,0.024 0.099,0.042l0,0.08l-0.072,-0.001c-0.021,-0.007 -0.042,-0.013 -0.064,-0.018c-0.021,-0.005 -0.044,-0.007 -0.068,-0.007c-0.035,0 -0.063,0.008 -0.082,0.025c-0.019,0.016 -0.029,0.037 -0.029,0.064c0,0.023 0.008,0.042 0.025,0.055c0.017,0.013 0.039,0.024 0.064,0.033c0.026,0.008 0.052,0.017 0.078,0.026c0.031,0.011 0.059,0.024 0.084,0.039c0.025,0.015 0.045,0.034 0.06,0.059c0.015,0.024 0.022,0.056 0.022,0.095c0,0.045 -0.01,0.085 -0.031,0.12c-0.02,0.035 -0.049,0.063 -0.087,0.083c-0.038,0.02 -0.083,0.03 -0.136,0.03Zm0.139,-0.626l0.097,0.023l0,0.088l-0.052,0c-0.009,0 -0.015,-0.002 -0.02,-0.007c-0.005,-0.005 -0.008,-0.013 -0.01,-0.022l-0.015,-0.082Zm-0.26,0.512l-0.097,-0.023l0,-0.088l0.052,0c0.009,0 0.015,0.003 0.02,0.008c0.005,0.005 0.009,0.012 0.01,0.021l0.015,0.082Z" style="fill-rule:nonzero;"/></g><g transform="matrix(50,0,0,50,6627.34,6650.94)"><path d="M0.1,-0l0,-0.724l0.139,0l0,0.312l0.335,-0l0,-0.312l0.139,0l-0,0.724l-0.139,-0l0,-0.316l-0.335,0l-0,0.316l-0.139,-0Zm-0.074,-0l-0,-0.058c-0,-0.009 0.002,-0.016 0.007,-0.021c0.005,-0.005 0.013,-0.008 0.022,-0.01l0.057,-0.012l0.013,0.101l-0.099,-0Zm0.189,-0l0.013,-0.101l0.057,0.012c0.009,0.002 0.016,0.005 0.021,0.01c0.005,0.005 0.008,0.012 0.008,0.021l-0,0.058l-0.099,-0Zm-0.09,-0.724l-0.013,0.101l-0.057,-0.012c-0.009,-0.002 -0.017,-0.005 -0.022,-0.01c-0.005,-0.005 -0.007,-0.012 -0.007,-0.021l-0,-0.058l0.099,0Zm0.189,0l-0,0.058c-0,0.009 -0.003,0.016 -0.008,0.021c-0.005,0.005 -0.012,0.008 -0.021,0.01l-0.057,0.012l-0.013,-0.101l0.099,0Zm0.185,0.724l-0,-0.058c-0,-0.009 0.002,-0.016 0.007,-0.021c0.005,-0.005 0.013,-0.008 0.022,-0.01l0.057,-0.012l0.013,0.101l-0.099,-0Zm0.19,-0l0.013,-0.101l0.057,0.012c0.009,0.002 0.016,0.005 0.021,0.01c0.005,0.005 0.008,0.012 0.008,0.021l-0,0.058l-0.099,-0Zm-0.091,-0.724l-0.013,0.101l-0.057,-0.012c-0.009,-0.002 -0.017,-0.005 -0.022,-0.01c-0.005,-0.005 -0.007,-0.012 -0.007,-0.021l-0,-0.058l0.099,0Zm0.19,0l0,0.058c-0,0.009 -0.003,0.016 -0.008,0.021c-0.005,0.005 -0.012,0.008 -0.021,0.01l-0.057,0.012l-0.013,-0.101l0.099,0Z" style="fill-rule:nonzero;"/></g><g transform="matrix(50,0,0,50,6668.04,6650.94)"><path d="M0.1,-0l0,-0.724l0.139,0l0,0.724l-0.139,-0Zm-0.074,-0l-0,-0.058c-0,-0.009 0.002,-0.016 0.007,-0.021c0.005,-0.005 0.013,-0.008 0.022,-0.01l0.057,-0.012l0.013,0.101l-0.099,-0Zm0.189,-0l0.013,-0.101l0.057,0.012c0.009,0.002 0.016,0.005 0.021,0.01c0.005,0.005 0.008,0.012 0.008,0.021l-0,0.058l-0.099,-0Zm-0.09,-0.724l-0.013,0.101l-0.057,-0.012c-0.009,-0.002 -0.017,-0.005 -0.022,-0.01c-0.005,-0.005 -0.007,-0.012 -0.007,-0.021l-0,-0.058l0.099,0Zm0.189,0l-0,0.058c-0,0.009 -0.003,0.016 -0.008,0.021c-0.005,0.005 -0.012,0.008 -0.021,0.01l-0.057,0.012l-0.013,-0.101l0.099,0Z" style="fill-rule:nonzero;"/></g><g transform="matrix(50,0,0,50,6685.04,6650.94)"><path d="M0.1,-0l0,-0.724l0.073,0c0.011,0 0.02,0.001 0.026,0.004c0.007,0.003 0.013,0.009 0.02,0.018l0.376,0.482c-0.001,-0.011 -0.002,-0.023 -0.003,-0.034c-0.001,-0.011 -0.001,-0.022 -0.001,-0.031l0,-0.439l0.122,0l0,0.724l-0.071,-0c-0.011,-0 -0.02,-0.002 -0.027,-0.005c-0.007,-0.003 -0.015,-0.01 -0.022,-0.019l-0.374,-0.479c0.001,0.011 0.002,0.021 0.002,0.029c0.001,0.008 0.001,0.018 0.001,0.031l0,0.443l-0.122,-0Zm-0.074,-0l0,-0.058c0,-0.009 0.002,-0.016 0.007,-0.021c0.005,-0.005 0.013,-0.008 0.022,-0.01l0.057,-0.012l0.013,0.101l-0.099,-0Zm0.176,-0l0.013,-0.101l0.058,0.012c0.009,0.002 0.016,0.005 0.021,0.01c0.005,0.005 0.008,0.012 0.008,0.021l0,0.058l-0.1,-0Zm-0.077,-0.724l-0.013,0.101l-0.057,-0.012c-0.009,-0.002 -0.017,-0.005 -0.022,-0.01c-0.005,-0.005 -0.007,-0.012 -0.007,-0.021l0,-0.058l0.099,0Zm0.486,0l-0.013,0.101l-0.057,-0.012c-0.009,-0.002 -0.017,-0.005 -0.022,-0.01c-0.005,-0.005 -0.007,-0.012 -0.007,-0.021l0,-0.058l0.099,0Zm0.177,0l0,0.058c0,0.009 -0.003,0.016 -0.008,0.021c-0.005,0.005 -0.012,0.008 -0.021,0.01l-0.057,0.012l-0.013,-0.101l0.099,0Z" style="fill-rule:nonzero;"/></g><g transform="matrix(50,0,0,50,6725.99,6650.94)"><path d="M0.391,0.008c-0.053,0 -0.103,-0.009 -0.148,-0.027c-0.045,-0.018 -0.085,-0.044 -0.118,-0.077c-0.032,-0.033 -0.057,-0.073 -0.076,-0.118c-0.019,-0.045 -0.028,-0.095 -0.028,-0.149c0,-0.053 0.009,-0.103 0.027,-0.148c0.018,-0.046 0.043,-0.085 0.076,-0.118c0.033,-0.033 0.072,-0.058 0.118,-0.076c0.047,-0.018 0.099,-0.027 0.157,-0.027c0.035,0 0.066,0.002 0.094,0.007c0.029,0.005 0.056,0.011 0.083,0.02c0.027,0.008 0.054,0.018 0.081,0.029l0,0.089l-0.076,0.004c-0.025,-0.011 -0.053,-0.02 -0.085,-0.025c-0.031,-0.005 -0.064,-0.008 -0.098,-0.008c-0.049,0 -0.092,0.011 -0.127,0.032c-0.035,0.021 -0.061,0.051 -0.08,0.089c-0.019,0.038 -0.028,0.082 -0.028,0.133c0,0.053 0.01,0.099 0.029,0.138c0.019,0.039 0.047,0.07 0.082,0.092c0.036,0.021 0.078,0.032 0.126,0.032c0.027,-0 0.052,-0.003 0.074,-0.008c0.023,-0.006 0.044,-0.014 0.063,-0.023l0,-0.13l-0.089,0c-0.009,0 -0.016,-0.002 -0.021,-0.007c-0.005,-0.005 -0.007,-0.012 -0.007,-0.019l0,-0.076l0.242,0l0,0.293c-0.036,0.026 -0.077,0.046 -0.122,0.059c-0.045,0.013 -0.094,0.019 -0.149,0.019Zm0.169,-0.618l0.097,0.023l0,0.088l-0.051,0c-0.009,0 -0.016,-0.002 -0.021,-0.007c-0.005,-0.005 -0.008,-0.013 -0.01,-0.022l-0.015,-0.082Z" style="fill-rule:nonzero;"/></g><g transform="matrix(50,0,0,50,6762.59,6650.94)"><path d="M0.11,0.007c-0.021,0 -0.039,-0.007 -0.054,-0.021c-0.015,-0.015 -0.022,-0.033 -0.022,-0.055c0,-0.021 0.007,-0.038 0.022,-0.053c0.015,-0.015 0.033,-0.022 0.054,-0.022c0.022,-0 0.04,0.007 0.055,0.022c0.015,0.015 0.023,0.032 0.023,0.053c0,0.022 -0.008,0.04 -0.023,0.055c-0.015,0.014 -0.033,0.021 -0.055,0.021Z" style="fill-rule:nonzero;"/></g><g transform="matrix(50,0,0,50,6773.64,6650.94)"><path d="M0.11,0.007c-0.021,0 -0.039,-0.007 -0.054,-0.021c-0.015,-0.015 -0.022,-0.033 -0.022,-0.055c0,-0.021 0.007,-0.038 0.022,-0.053c0.015,-0.015 0.033,-0.022 0.054,-0.022c0.022,-0 0.04,0.007 0.055,0.022c0.015,0.015 0.023,0.032 0.023,0.053c0,0.022 -0.008,0.04 -0.023,0.055c-0.015,0.014 -0.033,0.021 -0.055,0.021Z" style="fill-rule:nonzero;"/></g><g transform="matrix(50,0,0,50,6784.69,6650.94)"><path d="M0.11,0.007c-0.021,0 -0.039,-0.007 -0.054,-0.021c-0.015,-0.015 -0.022,-0.033 -0.022,-0.055c0,-0.021 0.007,-0.038 0.022,-0.053c0.015,-0.015 0.033,-0.022 0.054,-0.022c0.022,-0 0.04,0.007 0.055,0.022c0.015,0.015 0.023,0.032 0.023,0.053c0,0.022 -0.008,0.04 -0.023,0.055c-0.015,0.014 -0.033,0.021 -0.055,0.021Z" style="fill-rule:nonzero;"/></g><g transform="matrix(50,0,0,50,6795.74,6650.94)"></g></g><path d="M486.418,380.644c-0,-14.086 -11.436,-25.521 -25.522,-25.521l-117.852,-0c-14.086,-0 -25.521,11.435 -25.521,25.521l-0,117.852c-0,14.086 11.435,25.522 25.521,25.522l117.852,-0c14.086,-0 25.522,-11.436 25.522,-25.522l-0,-117.852Z" style="fill:#5b5b5b;stroke:#000;stroke-width:4.6px;"/><path d="M480.449,364.249l44.38,-33.462" style="fill:none;stroke:#000;stroke-width:4.6px;"/><path d="M329.271,359.122l-12.771,-25.542" style="fill:none;stroke:#000;stroke-width:4.6px;"/><path d="M480.529,515.169l46.295,28.735" style="fill:none;stroke:#000;stroke-width:4.6px;"/><path d="M327.276,517.165l-12.372,24.345" style="fill:none;stroke:#000;stroke-width:4.6px;"/><g transform="matrix(0.954266,0,0,1,-395.879,0)"><g transform="matrix(65.5082,0,0,65.5082,871.417,417.637)"></g><text x="793.659px" y="417.637px" style="font-family:'Aleo-Regular', 'Aleo';font-size:65.508px;fill:#fff;">F5</text></g><g><path d="M312.631,436.972c0,-0 -28.817,11.607 -44.083,0.741c-15.267,-10.865 -9.164,-25.886 4.758,-22.592c13.921,3.294 27.294,5.184 36.695,-1.412c9.402,-6.596 20.885,16.115 2.63,23.263Z" style="fill:#d6c295;stroke:#000;stroke-width:6.26px;"/><path d="M147.7,214.551c0,-0 14.547,-15.154 20.003,21.82" style="fill:none;stroke:#61e0ee;stroke-width:6.26px;"/><path d="M198.01,210.914c-0,-0 -13.942,-14.548 -18.791,23.639" style="fill:none;stroke:#61e0ee;stroke-width:6.26px;"/><path d="M160.02,198.648c0,-0 16.369,-10.434 13.349,31.755" style="fill:none;stroke:#61e0ee;stroke-width:6.26px;"/><path d="M110.97,572.606c0,0 1.696,-31.02 18.006,-40.246c16.31,-9.225 27.331,2.667 18.449,13.882c-8.883,11.215 -16.26,22.527 -14.269,33.838c1.992,11.31 -23.446,12.09 -22.186,-7.474Z" style="fill:#d6c295;stroke:#000;stroke-width:6.26px;"/><path d="M251.298,576.214c-0,0 -16.42,-26.373 -8.362,-43.29c8.059,-16.917 23.91,-13.506 23.075,0.776c-0.834,14.282 -0.381,27.779 7.743,35.897c8.124,8.118 -12.256,23.359 -22.456,6.617Z" style="fill:#d6c295;stroke:#000;stroke-width:6.26px;"/><path d="M274.902,307.946c0.572,-3.429 7.587,-8.671 10.502,-9.858c35.467,-14.445 23.035,26.226 2.387,24.615" style="fill:#61e0ee;"/><path d="M279.017,308.632c-0.379,2.271 -2.53,3.807 -4.801,3.429c-2.271,-0.379 -3.807,-2.53 -3.429,-4.801c0.27,-1.622 1.294,-3.591 2.944,-5.477c2.882,-3.295 7.691,-6.578 10.099,-7.559c12.996,-5.293 20.744,-3.511 24.517,0.101c3.977,3.807 4.646,10.352 2.041,16.809c-3.444,8.537 -12.382,16.55 -22.922,15.728c-2.295,-0.179 -4.014,-2.188 -3.834,-4.483c0.179,-2.296 2.188,-4.014 4.483,-3.835c6.806,0.531 12.312,-5.019 14.535,-10.531c0.693,-1.717 1.071,-3.445 0.968,-5.005c-0.068,-1.033 -0.34,-1.985 -1.04,-2.656c-0.909,-0.87 -2.352,-1.21 -4.294,-1.201c-2.904,0.013 -6.623,0.893 -11.307,2.8c-1.44,0.587 -4.062,2.424 -6.058,4.372c-0.605,0.59 -1.152,1.19 -1.561,1.778c-0.14,0.201 -0.312,0.355 -0.341,0.531Z"/><path d="M82.746,281.225c-3.255,1.22 -6.763,-0.83 -9.249,-2.761c-30.243,-23.493 11.088,-32.905 20.018,-14.218" style="fill:#61e0ee;"/><path d="M81.282,277.319c2.156,-0.808 4.563,0.287 5.37,2.443c0.808,2.156 -0.287,4.562 -2.443,5.37c-4.618,1.73 -9.744,-0.635 -13.271,-3.374c-11.08,-8.607 -13.421,-16.192 -12.196,-21.241c1.294,-5.336 6.618,-9.172 13.511,-10.118c9.086,-1.247 20.469,2.513 25.026,12.048c0.992,2.078 0.111,4.57 -1.966,5.563c-2.077,0.993 -4.57,0.112 -5.563,-1.965c-2.944,-6.163 -10.491,-8.186 -16.363,-7.38c-1.822,0.25 -3.497,0.776 -4.787,1.634c-0.847,0.563 -1.525,1.26 -1.75,2.185c-0.295,1.215 0.138,2.625 1.117,4.296c1.468,2.504 4.093,5.285 8.089,8.389c0.936,0.727 2.049,1.501 3.249,1.954c0.645,0.243 1.32,0.442 1.977,0.196Z"/><path d="M84.713,528.417c0,-0 -15.719,-30.904 -12.749,-57.411c9.299,-82.984 -15.128,-99.265 -5.578,-149.884c3.316,-17.576 9.584,-37.595 20.259,-52.146c23.461,-31.979 68.554,-48.59 107.776,-41.08c15.705,3.007 29.885,9.806 43.92,17.262c48.829,25.939 58.974,80.684 52.629,126.825c-2.809,20.427 -20.372,52.261 -17.802,72.744c5.356,42.698 3.857,65.809 -9.474,93.352c-11.362,23.474 -55.58,41.159 -103.922,36.132c-8.236,-0.856 -57.523,-9.494 -75.059,-45.794Z" style="fill:#61e0ee;"/><clipPath id="_clip1"><path d="M84.713,528.417c0,-0 -15.719,-30.904 -12.749,-57.411c9.299,-82.984 -15.128,-99.265 -5.578,-149.884c3.316,-17.576 9.584,-37.595 20.259,-52.146c23.461,-31.979 68.554,-48.59 107.776,-41.08c15.705,3.007 29.885,9.806 43.92,17.262c48.829,25.939 58.974,80.684 52.629,126.825c-2.809,20.427 -20.372,52.261 -17.802,72.744c5.356,42.698 3.857,65.809 -9.474,93.352c-11.362,23.474 -55.58,41.159 -103.922,36.132c-8.236,-0.856 -57.523,-9.494 -75.059,-45.794Z"/></clipPath><g clip-path="url(#_clip1)"><path d="M259.237,265.255c0,-0 16.631,21.379 12.132,54.592c-6.758,49.891 -27.728,39.189 -26.3,128.974c0.712,44.758 3.383,71.755 -16.327,98.699c-19.144,26.169 -73.885,26.131 -87.724,22.178c-13.838,-3.954 54.563,14.233 93.706,-1.582c39.142,-15.815 44.678,-82.239 39.538,-123.754c-5.14,-41.515 28.072,-53.376 17.001,-124.94c-17.792,-41.91 -18.188,-39.538 -32.026,-54.167Z" style="fill:#4fcbe0;"/><path d="M193.939,326.62c-0,-0 4.858,24.292 33.806,22.875c28.949,-1.417 30.973,-30.973 30.973,-30.973l-64.779,8.098Z" style="fill:#4fcbe0;"/><path d="M70.125,314.271c-0,0 4.858,24.293 33.806,22.875c28.948,-1.417 30.973,-30.972 30.973,-30.972l-64.779,8.097Z" style="fill:#4fcbe0;"/></g><path d="M80.975,530.268l-0.007,-0.015c-0.739,-1.479 -16.167,-32.785 -13.149,-59.712c5.513,-49.201 -0.996,-74.671 -5.028,-97.981c-2.799,-16.186 -4.436,-31.371 -0.504,-52.211c3.425,-18.156 9.967,-38.809 20.995,-53.84c24.367,-33.215 71.186,-50.511 111.923,-42.71c16.119,3.086 30.689,10.023 45.093,17.675c50.522,26.839 61.37,83.336 54.804,131.078c-1.433,10.425 -6.586,23.775 -11.098,37.118c-4.199,12.417 -7.917,24.81 -6.697,34.538c5.491,43.774 3.809,67.452 -9.858,95.688c-4.881,10.085 -15.292,19.307 -29.491,26.239c-20.419,9.968 -48.75,15.331 -78.617,12.226c-5.123,-0.533 -25.568,-3.95 -45.027,-14.741c-13.211,-7.327 -25.926,-18.031 -33.339,-33.352Zm7.494,-3.666c6.619,13.701 18.083,23.173 29.892,29.721c18.087,10.031 37.081,13.244 41.843,13.739c28.143,2.926 54.853,-2.031 74.094,-11.425c12.241,-5.976 21.433,-13.681 25.641,-22.376c12.996,-26.848 14.31,-49.392 9.09,-91.014c-1.09,-8.689 1.124,-19.32 4.498,-30.315c4.703,-15.328 11.649,-31.439 13.31,-43.517c6.125,-44.541 -3.317,-97.533 -50.453,-122.573c-13.665,-7.259 -27.456,-13.921 -42.748,-16.849c-37.706,-7.22 -81.073,8.707 -103.627,39.451c-10.323,14.071 -16.317,33.455 -19.523,50.452c-4.661,24.7 -0.96,41.019 2.7,61.29c3.803,21.058 7.638,46.218 2.924,88.284c-2.849,25.429 12.321,55.055 12.321,55.055c0.013,0.026 0.026,0.051 0.038,0.077Z"/><path d="M201.533,554.54c-82.567,19.217 -97.009,-28.953 -99.847,-39.422c-5.346,-19.721 -7.936,-57.948 -3.132,-78.276c1.668,-7.059 4.82,-15.098 10.19,-20.942c11.8,-12.842 64.573,-13.959 84.301,-10.943c7.899,1.208 15.032,3.938 22.091,6.932c24.56,10.417 33.215,131.754 -13.603,142.651Z" style="fill:#b7f8ff;"/><circle cx="80.097" cy="343.707" r="3.445" style="fill:#b7f8ff;"/><circle cx="251.137" cy="349.964" r="3.445" style="fill:#b7f8ff;"/><path d="M168.738,416.771c-0,-0 -29.724,-9.035 -43.979,3.127c-14.255,12.162 -6.859,26.591 6.721,22.088c13.579,-4.502 26.734,-7.558 36.678,-1.811c9.944,5.746 19.391,-17.885 0.58,-23.404Z" style="fill:#d6c295;stroke:#000;stroke-width:6.26px;"/><g><path d="M143.194,362.938c0.883,5.111 0.543,14.593 3.191,18.928c1.284,2.102 4.421,2.404 6.466,2.601c11.745,1.135 12.341,-10.933 14.765,-21.305" style="fill:#ededed;"/><path d="M140.111,363.471c-0.294,-1.702 0.849,-3.322 2.55,-3.616c1.702,-0.294 3.322,0.849 3.616,2.55c0.535,3.097 0.632,7.782 1.196,11.981c0.308,2.287 0.708,4.419 1.582,5.849c0.243,0.398 0.729,0.514 1.183,0.651c0.993,0.3 2.068,0.385 2.914,0.467c2.079,0.201 3.68,-0.098 4.916,-0.901c1.266,-0.823 2.122,-2.117 2.819,-3.63c1.842,-4.003 2.52,-9.397 3.683,-14.372c0.393,-1.681 2.077,-2.727 3.758,-2.334c1.682,0.393 2.728,2.077 2.335,3.759c-1.261,5.396 -2.094,11.222 -4.092,15.563c-1.223,2.658 -2.87,4.817 -5.094,6.262c-2.256,1.465 -5.133,2.248 -8.927,1.882c-1.484,-0.144 -3.436,-0.374 -5.102,-1.051c-1.547,-0.629 -2.867,-1.617 -3.733,-3.034c-1.245,-2.037 -2.006,-5.02 -2.444,-8.278c-0.553,-4.117 -0.635,-8.712 -1.16,-11.748Z"/><path d="M155.935,327.976c9.544,0.587 16.99,5.99 16.617,12.058c-0.374,6.068 -8.426,10.517 -17.97,9.93c-9.544,-0.587 -16.99,-5.99 -16.617,-12.058c0.374,-6.067 8.425,-10.517 17.97,-9.93Z"/><path d="M151.119,346.604c0.029,-1.726 1.455,-3.104 3.181,-3.075c1.727,0.029 3.105,1.455 3.075,3.181c-0.09,5.305 -0.983,10.397 -1.379,15.654c-0.13,1.722 -1.634,3.015 -3.356,2.885c-1.721,-0.13 -3.014,-1.634 -2.884,-3.355c0.387,-5.135 1.275,-10.108 1.363,-15.29Z"/><path d="M114.902,345.237c-1.177,-1.263 -1.108,-3.244 0.155,-4.422c1.263,-1.177 3.244,-1.108 4.422,0.155c9.099,9.758 18.933,15.573 29.468,17.28c10.534,1.707 21.714,-0.705 33.459,-7.119c1.515,-0.828 3.417,-0.27 4.245,1.246c0.828,1.515 0.27,3.418 -1.246,4.245c-13.136,7.175 -25.675,9.714 -37.459,7.805c-11.784,-1.909 -22.866,-8.274 -33.044,-19.19Z"/><path d="M120.019,247.156c3.635,-1.102 7.05,-0.466 7.621,1.419c0.571,1.885 -1.916,4.309 -5.551,5.411c-3.635,1.101 -7.05,0.465 -7.621,-1.419c-0.571,-1.885 1.916,-4.31 5.551,-5.411Z" style="fill:#b7f8ff;"/><path d="M252.626,263.256c2.443,2.908 3.201,6.298 1.693,7.564c-1.508,1.267 -4.715,-0.066 -7.158,-2.975c-2.443,-2.908 -3.201,-6.298 -1.693,-7.564c1.508,-1.267 4.715,0.066 7.158,2.975Z" style="fill:#b7f8ff;"/><path d="M95.422,259.775c19.365,-2.757 37.327,10.726 40.084,30.091c2.758,19.365 -10.725,37.327 -30.09,40.085c-19.366,2.757 -37.327,-10.726 -40.085,-30.091c-2.758,-19.366 10.726,-37.327 30.091,-40.085Z" style="fill:#fff;"/><clipPath id="_clip2"><path d="M95.422,259.775c19.365,-2.757 37.327,10.726 40.084,30.091c2.758,19.365 -10.725,37.327 -30.09,40.085c-19.366,2.757 -37.327,-10.726 -40.085,-30.091c-2.758,-19.366 10.726,-37.327 30.091,-40.085Z"/></clipPath><g clip-path="url(#_clip2)"><path d="M132.578,309.209c-0,-0 -11.891,-31.233 -49.087,-42.457c9.568,-7.6 29.369,-12.169 44.805,3.267c15.478,15.479 9.221,36.226 4.282,39.19Z" style="fill:#61e0ee;"/><path d="M63.805,298.321c0,-0 21.272,25.775 60.103,24.487c-6.627,10.266 -23.92,20.939 -43.489,11.263c-19.622,-9.701 -20.343,-31.359 -16.614,-35.75Z" style="fill:#61e0ee;"/></g><path d="M95.422,259.775c19.365,-2.757 37.327,10.726 40.084,30.091c2.758,19.365 -10.725,37.327 -30.09,40.085c-19.366,2.757 -37.327,-10.726 -40.085,-30.091c-2.758,-19.366 10.726,-37.327 30.091,-40.085Z" style="fill:none;stroke:#000;stroke-width:6.26px;"/><path d="M112.271,289.848c6.878,-0.979 13.258,3.81 14.237,10.688c0.98,6.878 -3.809,13.258 -10.688,14.238c-6.878,0.979 -13.258,-3.81 -14.237,-10.688c-0.98,-6.879 3.809,-13.258 10.688,-14.238Z"/><path d="M111.227,295.095c1.931,-0.276 3.722,1.069 3.997,3c0.275,1.932 -1.069,3.723 -3.001,3.998c-1.931,0.275 -3.722,-1.07 -3.997,-3.001c-0.275,-1.931 1.07,-3.722 3.001,-3.997Z" style="fill:#fff;"/><path d="M220.336,270.154c19.366,-2.758 37.327,10.725 40.085,30.091c2.757,19.365 -10.726,37.326 -30.091,40.084c-19.365,2.758 -37.327,-10.725 -40.085,-30.09c-2.757,-19.366 10.726,-37.327 30.091,-40.085Z" style="fill:#fff;"/><clipPath id="_clip3"><path d="M220.336,270.154c19.366,-2.758 37.327,10.725 40.085,30.091c2.757,19.365 -10.726,37.326 -30.091,40.084c-19.365,2.758 -37.327,-10.725 -40.085,-30.09c-2.757,-19.366 10.726,-37.327 30.091,-40.085Z"/></clipPath><g clip-path="url(#_clip3)"><path d="M254.427,318.43c-0,-0 -11.891,-31.233 -49.087,-42.457c9.568,-7.6 29.369,-12.169 44.805,3.267c15.478,15.479 9.221,36.226 4.282,39.19Z" style="fill:#61e0ee;"/><path d="M185.654,307.542c0,-0 21.272,25.775 60.103,24.487c-6.627,10.266 -23.92,20.939 -43.489,11.263c-19.622,-9.701 -20.343,-31.359 -16.614,-35.75Z" style="fill:#61e0ee;"/></g><path d="M220.336,270.154c19.366,-2.758 37.327,10.725 40.085,30.091c2.757,19.365 -10.726,37.326 -30.091,40.084c-19.365,2.758 -37.327,-10.725 -40.085,-30.09c-2.757,-19.366 10.726,-37.327 30.091,-40.085Z" style="fill:none;stroke:#000;stroke-width:6.26px;"/><path d="M234.797,299.815c6.879,-0.979 13.258,3.81 14.238,10.688c0.979,6.878 -3.81,13.258 -10.688,14.238c-6.878,0.979 -13.258,-3.81 -14.238,-10.688c-0.979,-6.879 3.81,-13.258 10.688,-14.238Z"/><path d="M233.753,305.062c1.932,-0.275 3.723,1.069 3.998,3c0.275,1.932 -1.07,3.723 -3.001,3.998c-1.931,0.275 -3.722,-1.07 -3.997,-3.001c-0.275,-1.931 1.069,-3.722 3,-3.997Z" style="fill:#fff;"/></g></g></g></g></svg>