<?xml version="1.0" encoding="UTF-8" standalone="no"?><!DOCTYPE svg PUBLIC "-//W3C//DTD SVG 1.1//EN" "http://www.w3.org/Graphics/SVG/1.1/DTD/svg11.dtd"><svg width="100%" height="100%" viewBox="0 0 600 600" version="1.1" xmlns="http://www.w3.org/2000/svg" xmlns:xlink="http://www.w3.org/1999/xlink" xml:space="preserve" xmlns:serif="http://www.serif.com/" style="fill-rule:evenodd;clip-rule:evenodd;stroke-linecap:round;stroke-linejoin:round;stroke-miterlimit:1.5;"><rect id="_42" serif:id="42" x="0" y="0" width="600" height="600" style="fill:none;"/><g><g><g><path d="M408.512,337.958c-0,-0 19.09,6.237 28.464,-1.44c9.375,-7.677 4.785,-17.107 -4.051,-14.375c-8.836,2.732 -17.378,4.534 -23.729,0.686c-6.35,-3.848 -12.769,11.31 -0.684,15.129Z" style="fill:#d6c295;stroke:#000;stroke-width:4.05px;"/><path d="M476.66,192.169c0,-0 9.404,-9.803 12.93,14.116" style="fill:none;stroke:#61e0ee;stroke-width:4.05px;"/><path d="M509.182,189.816c-0,-0 -9.012,-9.411 -12.147,15.292" style="fill:none;stroke:#61e0ee;stroke-width:4.05px;"/><path d="M500.068,180.644c0,0 -11.503,-6.114 -6.751,18.329" style="fill:none;stroke:#61e0ee;stroke-width:4.05px;"/><path d="M467.897,435.662c-0,0 -6.963,-18.851 0.343,-28.52c7.305,-9.669 16.898,-5.442 14.51,3.499c-2.389,8.941 -3.86,17.552 0.227,23.755c4.087,6.202 -10.803,13.204 -15.08,1.266Z" style="fill:#d6c295;stroke:#000;stroke-width:4.05px;"/><path d="M568.466,404.603c-0,0 -11.264,-16.638 -23.373,-16.322c-12.109,0.317 -14.259,10.583 -5.604,13.844c8.655,3.26 16.509,7.076 19.17,14.012c2.661,6.936 17.017,-1.104 9.807,-11.534Z" style="fill:#d6c295;stroke:#000;stroke-width:4.05px;"/><path d="M558.888,252.586c0.369,-2.218 4.904,-5.609 6.788,-6.377c22.927,-9.345 14.891,16.966 1.543,15.924" style="fill:#61e0ee;"/><path d="M561.549,253.03c-0.245,1.468 -1.636,2.462 -3.105,2.217c-1.468,-0.244 -2.462,-1.635 -2.217,-3.104c0.174,-1.049 0.836,-2.322 1.903,-3.542c1.862,-2.132 4.972,-4.256 6.528,-4.89c8.402,-3.425 13.411,-2.272 15.851,0.065c2.57,2.462 3.002,6.695 1.319,10.871c-2.226,5.524 -8.005,10.707 -14.819,10.175c-1.484,-0.116 -2.595,-1.415 -2.479,-2.899c0.116,-1.484 1.415,-2.596 2.899,-2.48c4.399,0.344 7.958,-3.247 9.395,-6.813c0.448,-1.11 0.692,-2.229 0.626,-3.238c-0.044,-0.669 -0.22,-1.285 -0.673,-1.719c-0.588,-0.563 -1.52,-0.783 -2.775,-0.777c-1.876,0.008 -4.28,0.577 -7.308,1.811c-0.931,0.38 -2.625,1.568 -3.915,2.828c-0.392,0.382 -0.745,0.77 -1.009,1.15c-0.091,0.131 -0.202,0.23 -0.221,0.345Z"/><path d="M434.671,235.301c-2.104,0.789 -4.371,-0.538 -5.978,-1.787c-19.55,-15.197 7.168,-21.286 12.94,-9.197" style="fill:#61e0ee;"/><path d="M433.724,232.774c1.395,-0.523 2.951,0.185 3.474,1.579c0.523,1.395 -0.185,2.952 -1.579,3.475c-2.986,1.119 -6.302,-0.411 -8.582,-2.183c-7.163,-5.568 -8.676,-10.474 -7.884,-13.74c0.837,-3.452 4.278,-5.934 8.735,-6.546c5.874,-0.807 13.234,1.625 16.18,7.795c0.642,1.344 0.072,2.956 -1.272,3.598c-1.344,0.642 -2.957,0.071 -3.598,-1.273c-1.904,-3.985 -6.781,-5.294 -10.576,-4.773c-1.177,0.162 -2.259,0.502 -3.093,1.057c-0.548,0.364 -0.986,0.815 -1.131,1.413c-0.191,0.786 0.089,1.7 0.722,2.781c0.949,1.62 2.646,3.418 5.229,5.427c0.605,0.47 1.324,0.97 2.1,1.263c0.415,0.157 0.851,0.286 1.275,0.127Z"/><path d="M435.943,395.209c0,0 -10.161,-19.991 -8.241,-37.139c6.011,-53.682 -9.779,-64.214 -3.606,-96.96c2.144,-11.37 6.195,-24.32 13.096,-33.733c15.166,-20.688 44.316,-31.434 69.67,-26.575c10.152,1.945 19.319,6.344 28.392,11.167c31.564,16.78 38.122,52.194 34.02,82.043c-1.815,13.214 -13.168,33.808 -11.507,47.059c3.462,27.621 2.493,42.572 -6.124,60.389c-7.345,15.185 -35.929,26.626 -67.179,23.374c-5.324,-0.554 -37.185,-6.142 -48.521,-29.625Z" style="fill:#61e0ee;"/><clipPath id="_clip1"><path d="M435.943,395.209c0,0 -10.161,-19.991 -8.241,-37.139c6.011,-53.682 -9.779,-64.214 -3.606,-96.96c2.144,-11.37 6.195,-24.32 13.096,-33.733c15.166,-20.688 44.316,-31.434 69.67,-26.575c10.152,1.945 19.319,6.344 28.392,11.167c31.564,16.78 38.122,52.194 34.02,82.043c-1.815,13.214 -13.168,33.808 -11.507,47.059c3.462,27.621 2.493,42.572 -6.124,60.389c-7.345,15.185 -35.929,26.626 -67.179,23.374c-5.324,-0.554 -37.185,-6.142 -48.521,-29.625Z"/></clipPath><g clip-path="url(#_clip1)"><path d="M548.761,224.969c0,0 10.751,13.831 7.843,35.316c-4.369,32.274 -17.924,25.351 -17.001,83.434c0.46,28.954 2.186,46.418 -10.555,63.848c-12.375,16.929 -47.762,16.905 -56.707,14.347c-8.946,-2.558 35.271,9.208 60.574,-1.023c25.303,-10.231 28.881,-53.201 25.559,-80.057c-3.323,-26.856 18.146,-34.529 10.99,-80.824c-11.502,-27.112 -11.757,-25.577 -20.703,-35.041Z" style="fill:#4fcbe0;"/><path d="M506.55,264.667c0,-0 3.141,15.714 21.854,14.797c18.713,-0.916 20.022,-20.036 20.022,-20.036l-41.876,5.239Z" style="fill:#4fcbe0;"/><path d="M426.513,256.678c-0,0 3.14,15.715 21.853,14.798c18.713,-0.916 20.022,-20.036 20.022,-20.036l-41.875,5.238Z" style="fill:#4fcbe0;"/></g><path d="M433.527,396.408l-0.006,-0.011c-0.47,-0.943 -10.451,-21.202 -8.5,-38.627c3.564,-31.829 -0.644,-48.306 -3.25,-63.385c-1.809,-10.47 -2.867,-20.294 -0.326,-33.775c2.214,-11.745 6.443,-25.105 13.572,-34.828c15.752,-21.487 46.018,-32.676 72.353,-27.63c10.419,1.997 19.838,6.485 29.15,11.435c32.658,17.361 39.671,53.909 35.427,84.793c-0.927,6.743 -4.258,15.379 -7.175,24.011c-2.714,8.033 -5.118,16.051 -4.329,22.344c3.55,28.317 2.463,43.634 -6.372,61.899c-3.155,6.524 -9.886,12.49 -19.064,16.974c-13.2,6.449 -31.515,9.918 -50.822,7.909c-3.312,-0.344 -16.529,-2.555 -29.108,-9.536c-8.539,-4.739 -16.758,-11.663 -21.55,-21.573Zm4.846,-2.371c4.278,8.863 11.689,14.99 19.322,19.227c11.692,6.488 23.97,8.567 27.048,8.887c18.192,1.893 35.458,-1.314 47.895,-7.391c7.914,-3.866 13.856,-8.85 16.576,-14.475c8.401,-17.369 9.251,-31.953 5.876,-58.879c-0.705,-5.62 0.727,-12.497 2.908,-19.61c3.04,-9.916 7.53,-20.337 8.604,-28.151c3.959,-28.814 -2.144,-63.096 -32.615,-79.294c-8.833,-4.696 -17.748,-9.005 -27.633,-10.9c-24.374,-4.67 -52.407,5.633 -66.986,25.521c-6.673,9.103 -10.548,21.643 -12.621,32.638c-3.012,15.979 -0.62,26.536 1.746,39.65c2.458,13.622 4.937,29.898 1.89,57.11c-1.842,16.451 7.965,35.617 7.965,35.617c0.009,0.016 0.017,0.033 0.025,0.05Z"/><path d="M511.459,412.109c-53.373,12.431 -62.709,-18.73 -64.544,-25.503c-3.456,-12.757 -5.13,-37.487 -2.025,-50.637c1.078,-4.566 3.116,-9.767 6.587,-13.547c7.628,-8.308 41.743,-9.03 54.495,-7.079c5.107,0.781 9.717,2.547 14.281,4.484c15.876,6.739 21.471,85.233 -8.794,92.282Z" style="fill:#b7f8ff;"/><ellipse cx="432.959" cy="275.72" rx="2.227" ry="2.229" style="fill:#b7f8ff;"/><ellipse cx="543.525" cy="279.768" rx="2.227" ry="2.229" style="fill:#b7f8ff;"/><g><path d="M502.19,302.907c20.153,-14.745 -0.782,-28.09 -14.435,-18.674c-10.137,6.991 -27.49,-8.678 -34.87,-0.739c-7.38,7.939 2.08,16.328 2.08,16.328c14.81,13.143 31.198,14.81 47.225,3.085Z"/><path d="M471.561,288.202c0.571,3.306 0.352,9.44 2.063,12.244c0.83,1.36 2.858,1.555 4.18,1.683c7.592,0.734 7.978,-7.073 9.545,-13.782" style="fill:#ededed;"/><path d="M469.568,288.546c-0.19,-1.101 0.549,-2.148 1.649,-2.338c1.101,-0.19 2.148,0.549 2.338,1.649c0.346,2.003 0.409,5.034 0.773,7.751c0.199,1.479 0.458,2.859 1.023,3.784c0.157,0.257 0.471,0.332 0.764,0.421c0.642,0.194 1.337,0.249 1.884,0.302c1.343,0.13 2.378,-0.064 3.176,-0.583c0.819,-0.532 1.372,-1.369 1.823,-2.348c1.191,-2.589 1.629,-6.079 2.381,-9.297c0.254,-1.088 1.343,-1.765 2.43,-1.511c1.087,0.254 1.764,1.343 1.51,2.431c-0.815,3.491 -1.353,7.259 -2.645,10.068c-0.791,1.719 -1.855,3.115 -3.293,4.05c-1.458,0.948 -3.318,1.455 -5.772,1.218c-0.959,-0.093 -2.221,-0.242 -3.298,-0.68c-1.001,-0.407 -1.854,-1.046 -2.414,-1.963c-0.804,-1.318 -1.296,-3.247 -1.579,-5.354c-0.358,-2.663 -0.411,-5.636 -0.75,-7.6Z"/><path d="M482.182,263.199c6.169,0.38 10.983,3.875 10.741,7.8c-0.241,3.925 -5.446,6.803 -11.616,6.424c-6.169,-0.38 -10.983,-3.875 -10.741,-7.8c0.241,-3.926 5.446,-6.804 11.616,-6.424Z"/><path d="M479.068,275.249c0.019,-1.117 0.94,-2.008 2.057,-1.989c1.117,0.019 2.008,0.941 1.989,2.058c-0.058,3.431 -0.635,6.726 -0.892,10.126c-0.084,1.114 -1.056,1.95 -2.17,1.866c-1.113,-0.084 -1.949,-1.056 -1.865,-2.17c0.25,-3.322 0.824,-6.539 0.881,-9.891Z"/><path d="M464.816,214.088c1.994,-1.434 4.216,-1.758 4.959,-0.724c0.743,1.035 -0.273,3.039 -2.267,4.473c-1.993,1.434 -4.215,1.758 -4.958,0.723c-0.743,-1.034 0.272,-3.038 2.266,-4.472Z" style="fill:#b7f8ff;"/><path d="M526.228,214.949c1.975,1.459 2.965,3.476 2.209,4.501c-0.755,1.025 -2.973,0.673 -4.949,-0.786c-1.975,-1.459 -2.965,-3.476 -2.209,-4.501c0.756,-1.025 2.973,-0.673 4.949,0.786Z" style="fill:#b7f8ff;"/><path d="M443.064,219.079c12.519,-1.784 24.129,6.939 25.912,19.466c1.783,12.528 -6.933,24.147 -19.451,25.931c-12.519,1.784 -24.13,-6.938 -25.912,-19.466c-1.783,-12.527 6.933,-24.147 19.451,-25.931Z" style="fill:#fff;stroke:#000;stroke-width:4.05px;"/><path d="M447.914,252.096c-1.614,4.262 -6.381,6.411 -10.64,4.796c-4.259,-1.614 -6.406,-6.385 -4.793,-10.647c1.613,-4.262 6.381,-6.411 10.64,-4.797c4.258,1.615 6.406,6.386 4.793,10.648Z"/><path d="M438.676,251.695c-0.453,1.196 -1.792,1.8 -2.988,1.346c-1.195,-0.453 -1.798,-1.792 -1.345,-2.989c0.453,-1.197 1.791,-1.8 2.987,-1.347c1.196,0.454 1.799,1.793 1.346,2.99Z" style="fill:#fff;"/><path d="M523.813,225.793c12.518,-1.784 24.129,6.939 25.912,19.466c1.783,12.528 -6.933,24.147 -19.452,25.931c-12.518,1.784 -24.129,-6.938 -25.912,-19.466c-1.782,-12.527 6.934,-24.147 19.452,-25.931Z" style="fill:#fff;stroke:#000;stroke-width:4.05px;"/><path d="M517.373,245.867c4.697,-0.67 9.053,2.603 9.722,7.304c0.669,4.7 -2.601,9.06 -7.298,9.729c-4.697,0.67 -9.054,-2.603 -9.723,-7.303c-0.669,-4.701 2.602,-9.061 7.299,-9.73Z"/><path d="M514.614,253.362c1.319,-0.188 2.542,0.731 2.73,2.051c0.188,1.32 -0.73,2.544 -2.049,2.732c-1.319,0.187 -2.542,-0.731 -2.73,-2.051c-0.188,-1.32 0.731,-2.544 2.049,-2.732Z" style="fill:#fff;"/></g><path d="M413.869,382.257l-94.38,0c-0,0 0.16,-17.795 0.408,-30.707c0.083,-4.35 0.077,-7.609 0.128,-10.213c4.609,-5.866 9.892,1.664 15.503,1.275c8.603,-0.596 9.966,-7.606 10.076,-10.97c0.111,-3.363 -1.441,-10.762 -10.684,-10.692c-6.852,0.052 -8.804,8.329 -15.273,1.284c-0.266,-7.513 -0.297,-41.536 -0.297,-41.536c0,-0 30.257,-0.313 37.557,-0.313c5.661,0 -1.305,-7.082 -1.231,-16.132c0.039,-4.878 3.662,-11.15 11.746,-11.18c7.055,-0.025 11.191,5.194 11.405,11.083c0.405,11.107 -8.939,16.044 -3.471,16.044l38.678,0l-0.165,102.057Z" style="fill:#fba128;stroke:#000;stroke-width:3.84px;"/><path d="M409.778,353.553c-0,-0 23.692,4.367 35.197,-4.301c11.506,-8.668 5.716,-17.702 -5.183,-14.066c-10.899,3.636 -21.445,6.305 -29.348,3.067c-7.902,-3.238 -15.662,12.666 -0.666,15.3Z" style="fill:#d6c295;stroke:#000;stroke-width:3.35px;"/></g></g><g><g><path d="M33.576,249.108c-0.392,-2.349 -5.199,-5.941 -7.196,-6.754c-24.302,-9.898 -15.783,17.97 -1.636,16.866" style="fill:#61e0ee;"/><path d="M36.395,248.639c0.259,1.556 -0.793,3.03 -2.35,3.289c-1.556,0.259 -3.03,-0.793 -3.289,-2.35c-0.02,-0.12 -0.138,-0.225 -0.234,-0.363c-0.28,-0.403 -0.654,-0.814 -1.069,-1.219c-1.368,-1.334 -3.164,-2.593 -4.151,-2.995c-3.209,-1.307 -5.758,-1.91 -7.748,-1.919c-1.33,-0.006 -2.319,0.227 -2.942,0.823c-0.48,0.46 -0.666,1.112 -0.712,1.82c-0.071,1.069 0.188,2.253 0.663,3.429c1.523,3.777 5.296,7.58 9.959,7.216c1.573,-0.122 2.949,1.055 3.072,2.628c0.123,1.573 -1.054,2.949 -2.627,3.072c-7.222,0.563 -13.346,-4.927 -15.706,-10.777c-1.785,-4.425 -1.326,-8.909 1.398,-11.517c2.586,-2.476 7.894,-3.696 16.799,-0.07c1.65,0.672 4.945,2.922 6.92,5.179c1.13,1.293 1.832,2.642 2.017,3.754Z"/><path d="M178.32,353.353c-0,0 -19.425,-8.706 -21.318,-21.406c-1.893,-12.699 8.421,-16.826 13.412,-8.389c4.991,8.437 10.413,15.936 18.137,17.441c7.724,1.505 1.973,17.967 -10.231,12.354Z" style="fill:#d6c295;stroke:#000;stroke-width:4.29px;"/><path d="M120.733,185.115c0,-0 -9.967,-10.383 -13.705,14.951" style="fill:none;stroke:#61e0ee;stroke-width:4.29px;"/><path d="M86.262,182.623c-0,-0 9.552,-9.968 12.875,16.197" style="fill:none;stroke:#61e0ee;stroke-width:4.29px;"/><path d="M112.291,174.218c0,0 -11.215,-7.149 -9.146,21.759" style="fill:none;stroke:#61e0ee;stroke-width:4.29px;"/><path d="M145.9,430.451c0,0 -1.162,-21.255 -12.337,-27.576c-11.176,-6.321 -18.727,1.828 -12.641,9.512c6.086,7.684 11.141,15.435 9.777,23.185c-1.365,7.75 16.064,8.284 15.201,-5.121Z" style="fill:#d6c295;stroke:#000;stroke-width:4.29px;"/><path d="M49.749,432.924c-0,-0 11.251,-18.071 5.729,-29.662c-5.521,-11.592 -16.383,-9.255 -15.811,0.531c0.572,9.786 0.262,19.034 -5.305,24.596c-5.566,5.563 8.398,16.006 15.387,4.535Z" style="fill:#d6c295;stroke:#000;stroke-width:4.29px;"/><path d="M165.239,230.8c2.231,0.835 4.634,-0.57 6.337,-1.893c20.723,-16.097 -7.597,-22.546 -13.715,-9.741" style="fill:#61e0ee;"/><path d="M164.237,233.477c-1.478,-0.554 -2.228,-2.203 -1.674,-3.68c0.553,-1.477 2.202,-2.227 3.679,-1.674c0.451,0.169 0.913,0.032 1.355,-0.134c0.822,-0.311 1.585,-0.841 2.226,-1.339c2.738,-2.127 4.537,-4.032 5.543,-5.748c0.671,-1.145 0.967,-2.111 0.765,-2.944c-0.154,-0.634 -0.619,-1.111 -1.199,-1.497c-0.884,-0.588 -2.032,-0.948 -3.28,-1.12c-4.024,-0.552 -9.195,0.834 -11.212,5.057c-0.68,1.423 -2.388,2.027 -3.812,1.347c-1.423,-0.68 -2.027,-2.388 -1.346,-3.812c3.122,-6.533 10.922,-9.11 17.147,-8.255c4.723,0.648 8.371,3.276 9.258,6.932c0.839,3.46 -0.765,8.657 -8.357,14.555c-2.416,1.877 -5.929,3.497 -9.093,2.312Z"/><path d="M163.891,400.173c0,-0 10.771,-21.175 8.736,-39.337c-6.372,-56.86 10.365,-68.015 3.822,-102.699c-2.272,-12.043 -6.567,-25.76 -13.882,-35.73c-16.075,-21.912 -46.972,-33.294 -73.847,-28.148c-10.76,2.061 -20.477,6.719 -30.093,11.828c-33.457,17.773 -40.409,55.284 -36.061,86.899c1.925,13.996 13.958,35.809 12.198,49.844c-3.67,29.256 -2.643,45.092 6.491,63.963c7.785,16.085 38.083,28.202 71.206,24.758c5.644,-0.587 39.415,-6.505 51.43,-31.378Z" style="fill:#61e0ee;"/><clipPath id="_clip2"><path d="M163.891,400.173c0,-0 10.771,-21.175 8.736,-39.337c-6.372,-56.86 10.365,-68.015 3.822,-102.699c-2.272,-12.043 -6.567,-25.76 -13.882,-35.73c-16.075,-21.912 -46.972,-33.294 -73.847,-28.148c-10.76,2.061 -20.477,6.719 -30.093,11.828c-33.457,17.773 -40.409,55.284 -36.061,86.899c1.925,13.996 13.958,35.809 12.198,49.844c-3.67,29.256 -2.643,45.092 6.491,63.963c7.785,16.085 38.083,28.202 71.206,24.758c5.644,-0.587 39.415,-6.505 51.43,-31.378Z"/></clipPath><g clip-path="url(#_clip2)"><path d="M44.309,219.857c-0,-0 -11.107,27.091 -4.335,49.035c6.773,21.944 18.693,52.556 16.797,83.169c-1.896,30.613 1.354,50.39 8.127,59.059c13.678,17.507 50.932,20.048 60.413,17.338c9.482,-2.709 -37.385,9.753 -64.206,-1.083c-26.82,-10.837 -30.612,-56.35 -27.091,-84.795c3.522,-28.446 -19.234,-36.573 -11.649,-85.608c12.191,-28.717 12.462,-27.091 21.944,-37.115Z" style="fill:#4fcbe0;"/><path d="M89.051,261.904c-0,-0 -3.329,16.644 -23.164,15.674c-19.835,-0.971 -21.222,-21.223 -21.222,-21.223l44.386,5.549Z" style="fill:#4fcbe0;"/><path d="M173.887,253.443c0,-0 -3.329,16.644 -23.164,15.673c-19.835,-0.971 -21.222,-21.222 -21.222,-21.222l44.386,5.549Z" style="fill:#4fcbe0;"/></g><path d="M166.457,401.433l-0.002,0.004c-5.079,10.5 -13.792,17.836 -22.846,22.857c-13.333,7.394 -27.342,9.735 -30.852,10.1c-20.465,2.128 -39.877,-1.546 -53.868,-8.377c-9.729,-4.75 -16.862,-11.068 -20.207,-17.978c-9.364,-19.347 -10.517,-35.572 -6.754,-65.565c0.836,-6.665 -1.712,-15.157 -4.589,-23.665c-3.092,-9.143 -6.622,-18.29 -7.605,-25.433c-4.498,-32.712 2.934,-71.424 37.552,-89.813c9.869,-5.244 19.853,-9.997 30.897,-12.111c27.913,-5.345 59.993,6.506 76.689,29.264c7.556,10.299 12.038,24.451 14.386,36.891c2.694,14.279 1.572,24.684 -0.346,35.775c-2.762,15.971 -7.222,33.423 -3.445,67.135c2.068,18.457 -8.511,39.916 -9.01,40.916Zm-5.113,-2.556c-0,0 10.394,-20.299 8.442,-37.723c-3.23,-28.824 -0.602,-46.063 2.003,-60.492c2.508,-13.889 5.044,-25.071 1.851,-41.995c-2.197,-11.646 -6.304,-24.928 -13.377,-34.569c-15.454,-21.066 -45.169,-31.979 -71.005,-27.032c-10.478,2.007 -19.927,6.571 -29.29,11.545c-32.297,17.157 -38.767,53.467 -34.57,83.986c1.138,8.276 5.897,19.314 9.12,29.817c2.312,7.534 3.829,14.818 3.082,20.772c-3.577,28.519 -2.676,43.966 6.228,62.362c2.883,5.958 9.182,11.237 17.569,15.332c13.184,6.436 31.485,9.833 50.769,7.828c3.262,-0.339 16.277,-2.541 28.67,-9.413c8.092,-4.488 15.947,-10.978 20.482,-20.365c0.008,-0.018 0.017,-0.036 0.026,-0.053Z"/><path d="M108.548,419.832c33.754,-5.881 41.769,-21.598 43.714,-28.771c3.663,-13.513 5.437,-39.706 2.146,-53.634c-1.143,-4.837 -3.303,-10.345 -6.982,-14.349c-8.086,-8.8 -44.245,-9.565 -57.763,-7.498c-5.412,0.827 -10.299,2.698 -15.136,4.749c-16.829,7.138 -22.617,89.691 9.32,97.744c8.53,2.15 19.344,2.692 24.701,1.759Z" style="fill:#b7f8ff;"/><circle cx="167.055" cy="273.611" r="2.361" style="fill:#b7f8ff;"/><circle cx="49.859" cy="277.899" r="2.361" style="fill:#b7f8ff;"/><g><path d="M123.758,286.982c-1.07,3.389 -1.711,9.859 -3.908,12.559c-1.065,1.309 -3.223,1.225 -4.63,1.171c-8.079,-0.309 -7.373,-8.559 -8.065,-15.824" style="fill:#ededed;"/><path d="M121.714,286.337c0.356,-1.128 1.561,-1.755 2.689,-1.399c1.129,0.356 1.755,1.562 1.399,2.69c-0.635,2.013 -1.114,5.126 -1.868,7.87c-0.597,2.172 -1.388,4.127 -2.421,5.396c-0.718,0.882 -1.705,1.432 -2.814,1.717c-1.193,0.306 -2.54,0.283 -3.561,0.243c-2.61,-0.1 -4.491,-0.896 -5.887,-2.099c-1.378,-1.185 -2.297,-2.802 -2.884,-4.72c-0.957,-3.131 -0.986,-7.163 -1.346,-10.944c-0.113,-1.177 0.753,-2.225 1.931,-2.337c1.177,-0.112 2.225,0.753 2.337,1.931c0.332,3.485 0.296,7.21 1.179,10.097c0.333,1.092 0.795,2.049 1.58,2.724c0.765,0.659 1.825,1.009 3.255,1.064c0.581,0.022 1.319,0.063 2.021,-0.049c0.321,-0.052 0.662,-0.086 0.863,-0.333c0.725,-0.891 1.193,-2.302 1.612,-3.826c0.77,-2.799 1.266,-5.972 1.915,-8.025Z"/><path d="M115.028,261.816c-6.539,0.402 -11.641,4.104 -11.385,8.262c0.255,4.157 5.772,7.206 12.312,6.804c6.54,-0.402 11.642,-4.104 11.386,-8.262c-0.256,-4.158 -5.773,-7.206 -12.313,-6.804Z"/><path d="M114.041,274.652c-0.02,-1.183 0.924,-2.159 2.107,-2.18c1.183,-0.02 2.16,0.925 2.18,2.108c0.06,3.55 0.669,6.957 0.934,10.476c0.089,1.18 -0.797,2.21 -1.977,2.299c-1.179,0.089 -2.209,-0.797 -2.298,-1.977c-0.272,-3.602 -0.884,-7.091 -0.946,-10.726Z"/><path d="M131.284,280.951c1.028,-0.585 2.338,-0.224 2.923,0.804c0.585,1.029 0.224,2.339 -0.804,2.924c-6.776,3.852 -13.296,5.283 -19.467,4.396c-6.172,-0.888 -12.031,-4.099 -17.459,-9.725c-0.822,-0.851 -0.797,-2.21 0.054,-3.031c0.852,-0.822 2.21,-0.797 3.031,0.054c4.674,4.844 9.671,7.694 14.984,8.458c5.313,0.764 10.904,-0.563 16.738,-3.88Z"/><path d="M139.637,206.439c-2.49,-0.755 -4.83,-0.319 -5.221,0.972c-0.392,1.291 1.313,2.953 3.803,3.707c2.491,0.755 4.83,0.319 5.222,-0.972c0.391,-1.292 -1.313,-2.953 -3.804,-3.707Z" style="fill:#b7f8ff;"/><path d="M48.776,217.47c-1.673,1.993 -2.193,4.315 -1.16,5.183c1.033,0.868 3.231,-0.045 4.905,-2.038c1.673,-1.993 2.193,-4.316 1.16,-5.184c-1.033,-0.867 -3.231,0.046 -4.905,2.039Z" style="fill:#b7f8ff;"/><path d="M156.491,215.085c-13.269,-1.889 -25.576,7.349 -27.465,20.618c-1.89,13.269 7.349,25.576 20.617,27.466c13.269,1.889 25.576,-7.349 27.466,-20.618c1.89,-13.269 -7.349,-25.576 -20.618,-27.466Z" style="fill:#fff;stroke:#000;stroke-width:4.29px;"/><path d="M70.901,222.197c-13.269,-1.89 -25.576,7.349 -27.466,20.618c-1.889,13.269 7.349,25.575 20.618,27.465c13.269,1.89 25.576,-7.349 27.466,-20.618c1.89,-13.269 -7.349,-25.576 -20.618,-27.465Z" style="fill:#fff;stroke:#000;stroke-width:4.29px;"/><path d="M171.836,242.156c-0.602,-4.722 -4.924,-8.068 -9.647,-7.466c-4.722,0.601 -8.067,4.924 -7.466,9.646c0.602,4.723 4.924,8.068 9.647,7.467c4.722,-0.602 8.068,-4.925 7.466,-9.647Z"/><path d="M85.747,247.41c-1.286,-4.584 -6.051,-7.261 -10.635,-5.974c-4.583,1.286 -7.26,6.051 -5.974,10.635c1.286,4.583 6.052,7.26 10.635,5.974c4.584,-1.286 7.261,-6.052 5.974,-10.635Z"/><path d="M168.559,243.798c-0.169,-1.326 -1.382,-2.265 -2.708,-2.096c-1.326,0.169 -2.266,1.383 -2.097,2.708c0.169,1.326 1.383,2.266 2.709,2.097c1.326,-0.169 2.265,-1.383 2.096,-2.709Z" style="fill:#fff;"/><path d="M82.746,249.514c-0.361,-1.287 -1.699,-2.039 -2.986,-1.677c-1.287,0.361 -2.038,1.699 -1.677,2.986c0.361,1.286 1.699,2.038 2.986,1.677c1.287,-0.361 2.038,-1.699 1.677,-2.986Z" style="fill:#fff;"/></g><path d="M151.08,281.841l0,101.511c0,0 19.126,-0.172 33.003,-0.438c4.676,-0.09 8.178,-0.083 10.978,-0.139c6.303,-4.956 -1.789,-10.638 -1.371,-16.674c0.64,-9.253 8.175,-10.719 11.79,-10.838c3.615,-0.118 11.567,1.551 11.491,11.492c-0.056,7.37 -8.951,9.469 -1.379,16.427c8.074,0.286 44.642,0.319 44.642,0.319c-0,0 0.336,-32.542 0.336,-40.394c-0,-6.089 7.611,1.403 17.338,1.324c5.243,-0.043 11.984,-3.939 12.016,-12.634c0.028,-7.587 -5.583,-12.036 -11.911,-12.267c-11.938,-0.435 -17.244,9.615 -17.244,3.734l-0,-41.6l-109.689,0.177Z" style="fill:#fb2869;stroke:#000;stroke-width:3.68px;"/><path d="M162.259,350.861c0,-0 -21.203,1.881 -29.053,-8.279c-7.851,-10.16 -0.862,-18.796 7.611,-13.868c8.474,4.928 16.867,8.826 24.343,6.37c7.476,-2.455 10.49,14.72 -2.901,15.777Z" style="fill:#d6c295;stroke:#000;stroke-width:4.29px;"/></g></g></g></svg>