<?xml version="1.0" encoding="UTF-8" standalone="no"?><!DOCTYPE svg PUBLIC "-//W3C//DTD SVG 1.1//EN" "http://www.w3.org/Graphics/SVG/1.1/DTD/svg11.dtd"><svg width="100%" height="100%" viewBox="0 0 600 600" version="1.1" xmlns="http://www.w3.org/2000/svg" xmlns:xlink="http://www.w3.org/1999/xlink" xml:space="preserve" xmlns:serif="http://www.serif.com/" style="fill-rule:evenodd;clip-rule:evenodd;stroke-linecap:round;stroke-linejoin:round;stroke-miterlimit:1.5;"><rect id="_43" serif:id="43" x="0" y="0" width="600" height="600" style="fill:none;"/><g><g><path d="M371.663,65.84c0,-0 19.241,-19.909 26.269,28.848" style="fill:none;stroke:#61e0ee;stroke-width:8.25px;"/><path d="M437.989,61.267c0,-0 -18.311,-19.235 -24.87,31.075" style="fill:none;stroke:#61e0ee;stroke-width:8.25px;"/><path d="M419.47,42.518c-0,-0 -23.413,-12.536 -13.891,37.299" style="fill:none;stroke:#61e0ee;stroke-width:8.25px;"/><path d="M302.928,540.844c-0,-0 2.37,-40.879 23.908,-52.967c21.538,-12.088 36.012,3.635 24.256,18.377c-11.757,14.743 -21.531,29.62 -18.955,44.537c2.575,14.917 -30.956,15.833 -29.209,-9.947Z" style="fill:#d6c295;stroke:#000;stroke-width:8.25px;"/><path d="M518.502,546.813c0,0 10.595,-39.553 -6.054,-57.797c-16.649,-18.243 -35.33,-7.864 -28.801,9.826c6.528,17.69 11.132,34.885 4,48.237c-7.132,13.352 24.413,24.758 30.855,-0.266Z" style="fill:#d6c295;stroke:#000;stroke-width:8.25px;"/><path d="M538.912,189.497c0.768,-4.517 10.037,-11.396 13.885,-12.948c46.81,-18.884 30.246,34.668 3.038,32.455" style="fill:#61e0ee;"/><path d="M544.333,190.419c-0.509,2.991 -3.351,5.007 -6.343,4.498c-2.992,-0.509 -5.007,-3.351 -4.499,-6.342c0.364,-2.137 1.722,-4.728 3.905,-7.207c3.812,-4.33 10.166,-8.636 13.344,-9.918c17.152,-6.92 27.356,-4.538 32.314,0.24c5.224,5.035 6.077,13.664 2.616,22.164c-4.577,11.237 -16.392,21.76 -30.281,20.63c-3.025,-0.246 -5.28,-2.901 -5.034,-5.926c0.246,-3.025 2.901,-5.281 5.926,-5.035c8.968,0.73 16.249,-6.561 19.204,-13.817c0.92,-2.259 1.426,-4.535 1.298,-6.592c-0.085,-1.362 -0.439,-2.618 -1.36,-3.505c-1.194,-1.151 -3.095,-1.606 -5.654,-1.603c-3.828,0.005 -8.734,1.149 -14.915,3.642c-1.901,0.767 -5.365,3.178 -8.004,5.735c-0.801,0.776 -1.524,1.565 -2.065,2.337c-0.186,0.265 -0.413,0.466 -0.452,0.699Z"/><path d="M285.758,153.436c-4.295,1.593 -8.91,-1.125 -12.177,-3.681c-39.76,-31.097 14.758,-43.321 26.445,-18.652" style="fill:#61e0ee;"/><path d="M283.846,148.28c2.846,-1.055 6.013,0.398 7.068,3.244c1.055,2.845 -0.398,6.012 -3.244,7.067c-6.094,2.26 -12.841,-0.879 -17.477,-4.505c-14.566,-11.393 -17.619,-21.4 -15.982,-28.05c1.729,-7.027 8.763,-12.061 17.852,-13.277c11.981,-1.604 26.969,3.402 32.933,15.99c1.299,2.743 0.127,6.024 -2.615,7.323c-2.743,1.3 -6.024,0.128 -7.324,-2.615c-3.854,-8.135 -13.792,-10.835 -21.535,-9.799c-2.402,0.322 -4.613,1.008 -6.317,2.134c-1.119,0.738 -2.016,1.653 -2.316,2.872c-0.393,1.6 0.17,3.461 1.454,5.667c1.924,3.308 5.371,6.984 10.625,11.093c1.23,0.962 2.694,1.987 4.274,2.589c0.848,0.323 1.737,0.589 2.604,0.267Z"/><path d="M287.268,479.253c0,0 -20.583,-40.801 -16.552,-75.726c12.62,-109.335 -19.505,-130.901 -6.695,-197.577c4.448,-23.152 12.797,-49.51 26.931,-68.642c31.062,-42.047 90.57,-63.744 142.233,-53.673c20.687,4.032 39.347,13.056 57.813,22.944c64.245,34.403 77.377,106.604 68.811,167.392c-3.792,26.911 -27.079,68.793 -23.782,95.802c6.872,56.301 4.796,86.756 -12.896,123c-15.078,30.89 -73.437,54.006 -137.132,47.169c-10.852,-1.165 -75.777,-12.766 -98.731,-60.689Z" style="fill:#61e0ee;"/><clipPath id="_clip1"><path d="M287.268,479.253c0,0 -20.583,-40.801 -16.552,-75.726c12.62,-109.335 -19.505,-130.901 -6.695,-197.577c4.448,-23.152 12.797,-49.51 26.931,-68.642c31.062,-42.047 90.57,-63.744 142.233,-53.673c20.687,4.032 39.347,13.056 57.813,22.944c64.245,34.403 77.377,106.604 68.811,167.392c-3.792,26.911 -27.079,68.793 -23.782,95.802c6.872,56.301 4.796,86.756 -12.896,123c-15.078,30.89 -73.437,54.006 -137.132,47.169c-10.852,-1.165 -75.777,-12.766 -98.731,-60.689Z"/></clipPath><g clip-path="url(#_clip1)"><path d="M518.452,133.159c-0,-0 21.827,28.252 15.751,72.009c-9.126,65.728 -36.718,51.53 -35.229,169.878c0.742,58.996 4.143,94.59 -21.953,130.017c-25.347,34.408 -97.499,34.119 -115.721,28.847c-18.222,-5.272 71.854,19 123.515,-1.674c51.661,-20.673 59.248,-108.199 52.655,-162.94c-6.593,-54.741 37.234,-70.229 22.956,-164.602c-23.267,-55.318 -23.799,-52.193 -41.974,-71.535Z" style="fill:#4fcbe0;"/><path d="M432.117,213.755c-0,-0 6.297,32.039 44.458,30.298c38.161,-1.74 40.959,-40.687 40.959,-40.687l-85.417,10.389Z" style="fill:#4fcbe0;"/><path d="M268.978,196.936c0,0 6.297,32.04 44.459,30.299c38.161,-1.741 40.958,-40.688 40.958,-40.688l-85.417,10.389Z" style="fill:#4fcbe0;"/></g><path d="M282.344,481.7l-0.021,-0.042c-0.966,-1.953 -21.164,-43.283 -17.069,-78.761c7.482,-64.825 -0.985,-98.425 -6.197,-129.165c-3.618,-21.347 -5.709,-41.369 -0.436,-68.82c4.595,-23.915 13.308,-51.108 27.908,-70.871c32.263,-43.672 94.049,-66.263 147.708,-55.803c21.231,4.138 40.405,13.345 59.357,23.494c66.473,35.596 80.522,110.11 71.66,173.006c-1.935,13.735 -8.786,31.308 -14.791,48.876c-5.589,16.347 -10.544,32.666 -8.978,45.493c7.045,57.72 4.725,88.921 -13.413,126.078c-6.478,13.271 -20.24,25.379 -38.985,34.454c-26.957,13.05 -64.322,19.994 -103.675,15.77c-6.749,-0.725 -33.683,-5.318 -59.282,-19.626c-17.375,-9.711 -34.081,-23.87 -43.786,-44.083Zm9.883,-4.822c8.664,18.087 23.732,30.622 39.268,39.305c23.796,13.3 48.817,17.618 55.091,18.292c37.081,3.98 72.308,-2.438 97.709,-14.734c16.161,-7.824 28.31,-17.939 33.895,-29.38c17.246,-35.331 19.078,-65.038 12.379,-119.922c-1.399,-11.456 1.566,-25.459 6.062,-39.936c6.266,-20.183 15.491,-41.387 17.734,-57.299c8.268,-58.681 -3.945,-128.568 -65.962,-161.778c-17.98,-9.628 -36.128,-18.468 -56.27,-22.394c-49.667,-9.682 -106.896,11.12 -136.759,51.543c-13.668,18.501 -21.652,44.024 -25.953,66.412c-6.251,32.536 -1.445,54.062 3.291,80.795c4.92,27.773 9.864,60.951 3.467,116.376c-3.867,33.504 15.998,72.619 15.998,72.619c0.017,0.033 0.034,0.067 0.05,0.101Z"/><path d="M441.127,514.197c-108.91,24.967 -127.735,-38.586 -131.43,-52.398c-6.959,-26.017 -10.206,-76.413 -3.785,-103.185c2.229,-9.296 6.42,-19.878 13.522,-27.557c15.61,-16.875 85.172,-18.116 111.161,-14.054c10.407,1.626 19.796,5.256 29.087,9.233c32.326,13.838 43.202,173.804 -18.555,187.961Z" style="fill:#b7f8ff;"/><path d="M282.008,231.236c2.506,0.008 4.534,2.05 4.526,4.556c-0.009,2.506 -2.05,4.534 -4.556,4.526c-2.506,-0.008 -4.534,-2.05 -4.526,-4.556c0.008,-2.506 2.05,-4.534 4.556,-4.526Z" style="fill:#b7f8ff;"/><path d="M507.419,240.234c2.507,0.008 4.535,2.049 4.526,4.556c-0.008,2.506 -2.05,4.534 -4.556,4.525c-2.506,-0.008 -4.534,-2.049 -4.526,-4.556c0.009,-2.506 2.05,-4.534 4.556,-4.525Z" style="fill:#b7f8ff;"/><g><path d="M382.44,210.599c12.578,0.816 22.368,7.97 21.849,15.965c-0.518,7.996 -11.15,13.826 -23.728,13.01c-12.577,-0.816 -22.367,-7.97 -21.849,-15.965c0.519,-7.996 11.151,-13.826 23.728,-13.01Z"/><path d="M376.011,235.13c0.046,-2.275 1.931,-4.085 4.207,-4.039c2.276,0.046 4.085,1.931 4.039,4.207c-0.142,6.991 -1.341,13.699 -1.887,20.626c-0.179,2.269 -2.166,3.966 -4.435,3.787c-2.269,-0.178 -3.966,-2.166 -3.787,-4.435c0.533,-6.766 1.725,-13.316 1.863,-20.146Z"/><path d="M347.365,110.419c4.075,-2.908 8.608,-3.553 10.116,-1.44c1.507,2.113 -0.577,6.189 -4.652,9.097c-4.074,2.908 -8.607,3.554 -10.115,1.441c-1.508,-2.113 0.576,-6.19 4.651,-9.098Z" style="fill:#b7f8ff;"/><path d="M472.575,112.59c4.018,2.986 6.023,7.102 4.475,9.185c-1.548,2.084 -6.067,1.351 -10.086,-1.635c-4.018,-2.986 -6.023,-7.101 -4.475,-9.185c1.549,-2.083 6.068,-1.351 10.086,1.635Z" style="fill:#b7f8ff;"/><path d="M302.981,120.442c25.536,-3.55 49.151,14.3 52.701,39.836c3.55,25.537 -14.3,49.152 -39.836,52.702c-25.537,3.55 -49.152,-14.3 -52.702,-39.837c-3.55,-25.536 14.3,-49.151 39.837,-52.701Z" style="fill:#fff;stroke:#000;stroke-width:8.25px;"/><path d="M319.096,157.251c8.644,-1.201 16.636,4.84 17.838,13.483c1.202,8.644 -4.84,16.636 -13.483,17.838c-8.644,1.202 -16.636,-4.84 -17.838,-13.483c-1.201,-8.644 4.84,-16.636 13.483,-17.838Z"/><path d="M320.726,168.479c2.427,-0.338 4.671,1.359 5.008,3.785c0.338,2.427 -1.359,4.671 -3.785,5.009c-2.427,0.337 -4.671,-1.359 -5.009,-3.786c-0.337,-2.427 1.359,-4.671 3.786,-5.008Z" style="fill:#fff;"/><path d="M467.578,134.669c25.536,-3.55 49.151,14.3 52.701,39.836c3.55,25.537 -14.3,49.152 -39.836,52.702c-25.537,3.55 -49.152,-14.3 -52.702,-39.837c-3.55,-25.536 14.3,-49.151 39.837,-52.701Z" style="fill:#fff;stroke:#000;stroke-width:8.25px;"/><path d="M456.78,167.335c8.849,-1.23 17.032,4.956 18.262,13.805c1.23,8.849 -4.955,17.032 -13.804,18.262c-8.849,1.23 -17.032,-4.955 -18.263,-13.804c-1.23,-8.849 4.956,-17.032 13.805,-18.263Z"/><path d="M458.111,178.49c2.484,-0.345 4.782,1.392 5.127,3.876c0.345,2.485 -1.391,4.782 -3.876,5.128c-2.484,0.345 -4.782,-1.392 -5.127,-3.876c-0.346,-2.485 1.391,-4.782 3.876,-5.128Z" style="fill:#fff;"/></g><path d="M417.573,348.474c-0,-0 29.596,-28.298 53.595,-22.464c24,5.834 23.875,27.204 5.224,29.98c-18.651,2.775 -35.943,7 -44.225,19.671c-8.282,12.671 -33.443,-9.512 -14.594,-27.187Z" style="fill:#d6c295;stroke:#000;stroke-width:8.25px;"/><path d="M202.025,342.521c0,0 27.154,-30.649 51.554,-26.821c24.399,3.828 26.043,25.135 7.686,29.445c-18.358,4.309 -35.24,9.95 -42.446,23.263c-7.205,13.312 -34.115,-6.713 -16.794,-25.887Z" style="fill:#d6c295;stroke:#000;stroke-width:8.25px;"/></g><path d="M138.203,419.807c-5.953,-0 -10.787,4.833 -10.787,10.786l0,125.175c0,5.953 4.834,10.786 10.787,10.786l21.573,0c5.954,0 10.787,-4.833 10.787,-10.786l0,-125.175c0,-5.953 -4.833,-10.786 -10.787,-10.786l-21.573,-0Z" style="fill:#80583b;stroke:#000;stroke-width:7.42px;"/><path d="M472.965,422.892c-5.953,0 -10.787,4.833 -10.787,10.787l0,125.174c0,5.953 4.834,10.787 10.787,10.787l21.574,-0c5.953,-0 10.786,-4.834 10.786,-10.787l0,-125.174c0,-5.954 -4.833,-10.787 -10.786,-10.787l-21.574,0Z" style="fill:#80583b;stroke:#000;stroke-width:7.42px;"/><path d="M550.955,402.174c0,-5.953 -4.833,-10.786 -10.787,-10.786l-457.622,-0c-5.954,-0 -10.787,4.833 -10.787,10.786l-0,21.574c-0,5.953 4.833,10.787 10.787,10.787l457.622,-0c5.954,-0 10.787,-4.834 10.787,-10.787l0,-21.574Z" style="fill:#80583b;stroke:#000;stroke-width:7.42px;"/><path d="M357.76,378.297c-0,-2.022 -1.642,-3.664 -3.664,-3.664l-202.477,0c-2.022,0 -3.664,1.642 -3.664,3.664l-0,7.328c-0,2.022 1.642,3.664 3.664,3.664l202.477,-0c2.022,-0 3.664,-1.642 3.664,-3.664l-0,-7.328Z" style="fill:#828282;stroke:#000;stroke-width:7.42px;"/><path d="M83.183,350.88c0,-0 -22.871,25.112 -53.71,-32.805c20.944,3.131 30.393,-4.804 30.393,-4.804c-0,0 -47.453,-13.897 -44.495,-76.501c7.286,13.861 25.426,16.888 25.426,16.888c-0,0 -7.434,-44.493 25.347,-76.534c6.655,17.499 19.718,34.999 19.718,34.999c-0,-0 0.493,-47.06 46.829,-82.552c2.711,11.831 2.958,30.316 26.866,53.485c23.907,23.168 24.647,34.013 24.647,34.013c-0,-0 29.083,-21.443 23.661,-47.816c14.788,24.155 24.154,33.767 21.936,49.048c6.901,-2.218 17.037,-21.6 17.037,-21.6c-0,0 42.432,39.735 46.043,69.822c3.61,30.086 1.943,38.613 1.943,38.613l18.052,-25.875c-0,0 14.441,46.334 -18.052,60.776c-32.494,14.441 -211.641,10.843 -211.641,10.843Z" style="fill:#f9b65f;stroke:#000;stroke-width:7.42px;"/><path d="M265.894,250.977c-1.341,-4.656 -6.211,-8.436 -10.867,-8.436l-194.057,0c-4.656,0 -7.347,3.78 -6.005,8.436l37.144,128.912c1.341,4.656 6.211,8.436 10.867,8.436l194.057,-0c4.656,-0 7.347,-3.78 6.005,-8.436l-37.144,-128.912Z" style="fill:#828282;stroke:#000;stroke-width:6.95px;"/><g transform="matrix(44.3739,0,0,44.3739,209.198,332.934)"></g><text x="137.223px" y="332.934px" style="font-family:'Aleo-Regular', 'Aleo';font-size:44.374px;fill:#fff;">&lt;\&gt;</text><path d="M352.044,256.712c0,-0 21.749,6.862 52.173,2.346" style="fill:none;stroke:#000;stroke-width:7.42px;"/></g></svg>