<?xml version="1.0" encoding="UTF-8" standalone="no"?><!DOCTYPE svg PUBLIC "-//W3C//DTD SVG 1.1//EN" "http://www.w3.org/Graphics/SVG/1.1/DTD/svg11.dtd"><svg width="100%" height="100%" viewBox="0 0 600 600" version="1.1" xmlns="http://www.w3.org/2000/svg" xmlns:xlink="http://www.w3.org/1999/xlink" xml:space="preserve" xmlns:serif="http://www.serif.com/" style="fill-rule:evenodd;clip-rule:evenodd;stroke-linecap:round;stroke-linejoin:round;stroke-miterlimit:1.5;"><rect id="_44" serif:id="44" x="0" y="0" width="600" height="600" style="fill:none;"/><g><path d="M295.308,480.174l-289.695,-55.112l199.254,-28.263l322.197,40.981l-231.756,42.394Z" style="fill:#828282;stroke:#000;stroke-width:6.61px;"/><path d="M298.134,150.911l-91.901,244.977l321.652,40.616l67.473,-290.152l-297.224,4.559Z" style="fill:#5b5b5b;stroke:#000;stroke-width:6.61px;"/><path d="M303.256,173.906l271.903,0.607l-52.007,223.051l-285.911,-31.199l66.015,-192.459Z" style="fill:#1e1e1e;stroke:#000;stroke-width:6.61px;"/><circle cx="312.795" cy="196.522" r="4.895" style="fill:#56e068;"/><circle cx="302.612" cy="228.009" r="4.895" style="fill:#56e068;"/><circle cx="293.066" cy="256.158" r="4.895" style="fill:#56e068;"/><circle cx="283.275" cy="286.021" r="4.895" style="fill:#56e068;"/><circle cx="273.974" cy="315.638" r="4.895" style="fill:#56e068;"/><circle cx="263.694" cy="347.459" r="4.895" style="fill:#56e068;"/><g><path d="M389.784,188.735l-3.848,10.409l-56.73,-0l3.848,-10.409l56.73,0Z" style="fill:#5b5b5b;"/><path d="M352.528,289.515l-3.847,10.408l-56.731,0l3.848,-10.408l56.73,0Z" style="fill:#5b5b5b;"/><path d="M331.876,347.464l-3.848,10.408l-56.73,0l3.848,-10.408l56.73,0Z" style="fill:#5b5b5b;"/><path d="M434.981,333.117l-3.847,10.409l-56.731,-0l3.848,-10.409l56.73,0Z" style="fill:#5b5b5b;"/><path d="M524.899,231.365l-3.848,10.408l-56.73,0l3.848,-10.408l56.73,-0Z" style="fill:#5b5b5b;"/><path d="M446.711,203.133l-3.848,10.408l-118.979,-0l3.848,-10.408l118.979,-0Z" style="fill:#5b5b5b;"/><path d="M420.1,275.118l-3.848,10.408l-118.979,0l3.847,-10.408l118.98,-0Z" style="fill:#5b5b5b;"/><path d="M373.93,333.348l-3.847,10.409l-93.823,-0l3.847,-10.409l93.823,0Z" style="fill:#5b5b5b;"/><path d="M436.066,231.927l-3.847,10.408l-118.98,0l3.848,-10.408l118.979,-0Z" style="fill:#5b5b5b;"/><path d="M409.455,303.912l-3.848,10.409l-118.979,-0l3.848,-10.409l118.979,0Z" style="fill:#5b5b5b;"/><path d="M418.615,188.767l-3.848,10.408l-25.926,0l3.847,-10.408l25.927,0Z" style="fill:#5b5b5b;"/><path d="M464.877,231.625l-3.847,10.408l-25.927,-0l3.848,-10.408l25.926,-0Z" style="fill:#5b5b5b;"/><path d="M439.431,303.792l-3.848,10.408l-25.926,0l3.848,-10.408l25.926,-0Z" style="fill:#5b5b5b;"/><path d="M348.336,217.53l-3.848,10.408l-25.926,-0l3.847,-10.408l25.927,-0Z" style="fill:#5b5b5b;"/><path d="M311.516,318.518l-3.848,10.409l-25.926,-0l3.848,-10.409l25.926,0Z" style="fill:#5b5b5b;"/><path d="M361.395,347.739l-3.848,10.409l-25.926,-0l3.847,-10.409l25.927,0Z" style="fill:#5b5b5b;"/><path d="M332.369,260.721l-3.848,10.408l-25.926,0l3.848,-10.408l25.926,-0Z" style="fill:#5b5b5b;"/><path d="M372.191,246.324l-3.847,10.408l-60.427,0l3.848,-10.408l60.426,-0Z" style="fill:#5b5b5b;"/></g><g><path d="M145.891,303.651c0.045,-3.033 -5.243,-8.609 -7.598,-10.076c-28.651,-17.838 -24.255,18.999 -5.987,20.777" style="fill:#61e0ee;"/><path d="M142.205,303.684c-0.022,-0.07 -0.121,-0.374 -0.203,-0.552c-0.262,-0.563 -0.641,-1.158 -1.073,-1.754c-1.43,-1.974 -3.423,-3.951 -4.584,-4.674c-3.788,-2.358 -6.899,-3.684 -9.433,-4.141c-1.713,-0.309 -3.042,-0.233 -3.984,0.383c-1.824,1.191 -1.83,3.842 -1.271,6.503c1.063,5.065 4.998,10.65 11.007,11.235c2.024,0.197 3.508,2.001 3.311,4.025c-0.197,2.025 -2.001,3.509 -4.026,3.312c-9.338,-0.91 -15.853,-9.186 -17.506,-17.057c-1.254,-5.973 0.361,-11.516 4.453,-14.189c3.856,-2.519 10.871,-2.849 21.345,3.672c1.948,1.213 5.627,4.775 7.622,8.051c1.151,1.891 1.735,3.759 1.713,5.208c-0.03,2.034 -1.706,3.66 -3.74,3.63c-2.005,-0.03 -3.613,-1.658 -3.631,-3.652Z"/><path d="M339.986,239.669c0,-0 -12.615,-13.442 -18.138,18.728" style="fill:none;stroke:#61e0ee;stroke-width:5.52px;"/><path d="M295.454,235.726c-0,-0 12.629,-12.476 16.219,20.909" style="fill:none;stroke:#61e0ee;stroke-width:5.49px;"/><path d="M329.359,225.608c0,-0 -14.317,-9.352 -12.423,27.496" style="fill:none;stroke:#61e0ee;stroke-width:5.49px;"/><path d="M116.772,448.89c0,-0 27.011,5.232 38.542,-6.577c11.531,-11.809 3.759,-23.683 -7.837,-18.583c-11.595,5.101 -22.94,8.909 -32.212,4.794c-9.271,-4.114 -15.57,17.227 1.507,20.366Z" style="fill:#d6c295;stroke:#000;stroke-width:5.49px;"/><path d="M403.04,298.267c2.954,0.857 5.932,-1.148 8.014,-2.984c25.325,-22.342 -11.81,-27.937 -18.573,-11.115" style="fill:#61e0ee;"/><path d="M402.026,301.765c-1.931,-0.56 -3.043,-2.582 -2.483,-4.512c0.56,-1.931 2.582,-3.044 4.512,-2.484c0.623,0.181 1.235,-0.037 1.814,-0.3c1.041,-0.473 1.986,-1.221 2.775,-1.917c3.35,-2.955 5.504,-5.541 6.652,-7.814c0.757,-1.502 1.057,-2.742 0.726,-3.771c-0.255,-0.791 -0.899,-1.349 -1.682,-1.785c-1.205,-0.672 -2.732,-1.028 -4.373,-1.132c-5.272,-0.334 -11.864,1.899 -14.106,7.477c-0.75,1.865 -2.873,2.77 -4.738,2.02c-1.865,-0.749 -2.771,-2.872 -2.021,-4.737c3.439,-8.554 13.241,-12.542 21.326,-12.03c6.137,0.39 11.062,3.405 12.527,7.953c1.392,4.32 -0.208,11.091 -9.492,19.281c-2.93,2.585 -7.28,4.957 -11.437,3.751Z"/><path d="M160.832,453.314c0,0 28.674,10.815 51.79,5.816c72.367,-15.651 88.925,4.055 132.719,-8.856c15.207,-4.484 32.303,-11.751 44.179,-22.343c26.102,-23.278 36.702,-63.921 26.552,-97.266c-4.064,-13.352 -11.336,-25.034 -19.175,-36.53c-27.27,-39.996 -76.475,-43.796 -116.607,-34.074c-17.767,4.303 -44.27,22.45 -62.57,22.093c-38.147,-0.746 -58.4,2.666 -81.498,16.75c-19.686,12.003 -31.312,51.985 -22.533,93.47c1.495,7.068 13.545,49.042 47.143,60.94Z" style="fill:#61e0ee;"/><path d="M159.602,456.772l-0.021,-0.008c-35.141,-12.464 -47.917,-56.236 -49.482,-63.631c-5.428,-25.647 -3.242,-50.734 3.721,-69.374c4.839,-12.954 12.034,-22.831 20.492,-27.988c23.667,-14.431 44.393,-18.05 83.479,-17.286c8.702,0.17 19.315,-4.19 29.903,-8.974c11.36,-5.132 22.668,-10.821 31.732,-13.017c41.507,-10.054 92.299,-5.792 120.503,35.574c8.049,11.804 15.48,23.819 19.654,37.528c10.548,34.653 -0.495,76.882 -27.62,101.073c-12.262,10.936 -29.884,18.495 -45.584,23.124c-18.018,5.312 -31.552,5.279 -46.072,4.33c-20.93,-1.368 -43.991,-4.689 -86.909,4.593c-23.385,5.058 -52.248,-5.375 -53.796,-5.944Zm2.525,-6.891c-0,0 27.523,10.463 49.72,5.662c36.672,-7.931 59.204,-6.903 78.115,-5.528c18.222,1.324 32.959,3.043 54.342,-3.261c14.713,-4.338 31.283,-11.313 42.774,-21.562c25.078,-22.365 35.236,-61.421 25.484,-93.458c-3.956,-12.994 -11.068,-24.344 -18.697,-35.532c-26.336,-38.627 -73.953,-41.964 -112.711,-32.575c-10.509,2.546 -24.101,10.046 -37.204,15.529c-9.384,3.927 -18.55,6.818 -26.302,6.667c-37.208,-0.727 -56.986,2.477 -79.515,16.214c-7.292,4.445 -13.267,13.124 -17.438,24.29c-6.553,17.54 -8.524,41.153 -3.416,65.287c1.426,6.74 12.741,46.896 44.778,58.241c0.023,0.009 0.047,0.017 0.07,0.026Z"/><g><path d="M348.958,420.707c-0.664,4.094 -0.061,11.629 -2.383,15.163c-1.125,1.713 -4.022,2.052 -5.91,2.274c-10.845,1.276 -11.763,-8.309 -14.323,-16.485" style="fill:#ededed;"/><path d="M346.306,420.277c0.238,-1.463 1.618,-2.458 3.081,-2.221c1.463,0.237 2.459,1.617 2.222,3.08c-0.393,2.427 -0.329,6.078 -0.716,9.363c-0.316,2.68 -0.951,5.138 -2.073,6.845c-0.744,1.133 -1.908,1.967 -3.295,2.506c-1.474,0.572 -3.22,0.806 -4.547,0.962c-4.076,0.479 -7.013,-0.363 -9.242,-1.918c-2.18,-1.521 -3.706,-3.791 -4.844,-6.489c-1.27,-3.01 -2.063,-6.591 -3.113,-9.944c-0.443,-1.414 0.346,-2.922 1.761,-3.365c1.415,-0.443 2.923,0.346 3.365,1.76c0.998,3.188 1.728,6.599 2.936,9.461c0.719,1.706 1.589,3.21 2.968,4.171c1.329,0.928 3.111,1.275 5.542,0.989c0.812,-0.096 1.843,-0.204 2.791,-0.486c0.463,-0.137 0.952,-0.236 1.189,-0.596c0.735,-1.119 1.021,-2.768 1.227,-4.524c0.397,-3.367 0.346,-7.107 0.748,-9.594Z"/><path d="M336.028,391.213c-8.476,-0.198 -15.476,3.945 -15.623,9.247c-0.147,5.302 6.615,9.769 15.091,9.968c8.476,0.198 15.476,-3.945 15.623,-9.247c0.147,-5.302 -6.615,-9.769 -15.091,-9.968Z"/><path d="M333.306,407.377c0.111,-1.515 1.431,-2.655 2.946,-2.544c1.515,0.11 2.655,1.43 2.545,2.945c-0.329,4.51 0.064,8.897 0.003,13.388c-0.021,1.519 -1.271,2.736 -2.79,2.715c-1.519,-0.021 -2.735,-1.271 -2.714,-2.79c0.062,-4.6 -0.327,-9.094 0.01,-13.714Z"/><path d="M362.936,413.208c1.386,-0.627 3.022,-0.011 3.65,1.376c0.627,1.387 0.011,3.022 -1.376,3.65c-17.596,7.963 -36.454,6.577 -59.815,1.117c-1.482,-0.347 -2.404,-1.832 -2.057,-3.314c0.346,-1.482 1.831,-2.405 3.313,-2.058c21.98,5.138 39.729,6.721 56.285,-0.771Z"/><path d="M305.686,387.194c0,0 -4.932,21.078 -30.553,19.194c-25.621,-1.885 -26.654,-27.707 -26.654,-27.707l57.207,8.513Z" style="fill:#4fcbe0;"/><path d="M408.582,387.26c-0,-0 -4.933,21.078 -30.554,19.193c-25.621,-1.884 -26.653,-27.707 -26.653,-27.707l57.207,8.514Z" style="fill:#4fcbe0;"/><path d="M395.116,322.099c-3.124,-1.227 -6.19,-0.928 -6.842,0.668c-0.653,1.596 1.354,3.888 4.478,5.116c3.124,1.227 6.19,0.928 6.842,-0.668c0.652,-1.596 -1.354,-3.888 -4.478,-5.116Z" style="fill:#b7f8ff;"/><path d="M245.087,331.623c-2.386,2.346 -3.322,5.236 -2.089,6.45c1.232,1.213 4.17,0.292 6.555,-2.055c2.386,-2.346 3.322,-5.237 2.09,-6.45c-1.233,-1.213 -4.17,-0.292 -6.556,2.055Z" style="fill:#b7f8ff;"/><path d="M357.419,348.019c10.537,-13.579 30.267,-16.224 44.032,-5.903c13.765,10.321 16.386,29.725 5.85,43.304c-10.537,13.579 -30.267,16.224 -44.032,5.903c-13.765,-10.321 -16.386,-29.725 -5.85,-43.304Z" style="fill:#61e0ee;stroke:#000;stroke-width:5.55px;"/><path d="M253.683,349.419c10.537,-13.579 30.267,-16.224 44.032,-5.902c13.765,10.321 16.386,29.725 5.85,43.304c-10.537,13.579 -30.267,16.224 -44.032,5.902c-13.765,-10.321 -16.386,-29.725 -5.85,-43.304Z" style="fill:#61e0ee;stroke:#000;stroke-width:5.55px;"/><path d="M353.212,375.536c-0,-0 27.585,29.642 60.176,-8.856" style="fill:none;stroke:#000;stroke-width:5.74px;"/><path d="M249.476,376.936c-0,0 27.585,29.642 60.176,-8.855" style="fill:none;stroke:#000;stroke-width:5.74px;"/></g><path d="M218.733,442.966c-0,0 23.33,-14.489 38.357,-7.564c15.027,6.925 12.056,20.775 -0.611,20.136c-12.666,-0.639 -24.633,-0.16 -31.804,6.978c-7.171,7.139 -20.754,-10.547 -5.942,-19.55Z" style="fill:#d6c295;stroke:#000;stroke-width:5.5px;"/><path d="M244.219,285.034c0.22,-3.025 -4.738,-8.89 -7.004,-10.485c-27.57,-19.413 -25.307,17.617 -7.174,20.413" style="fill:#61e0ee;"/><path d="M240.535,284.855c-0.019,-0.071 -0.1,-0.379 -0.172,-0.561c-0.228,-0.577 -0.572,-1.191 -0.968,-1.809c-1.313,-2.051 -3.186,-4.134 -4.303,-4.92c-3.644,-2.566 -6.671,-4.063 -9.173,-4.661c-1.692,-0.404 -3.022,-0.401 -3.998,0.161c-1.89,1.088 -2.052,3.736 -1.647,6.427c0.769,5.113 4.37,10.906 10.329,11.825c2.012,0.31 3.394,2.195 3.084,4.207c-0.311,2.012 -2.196,3.393 -4.208,3.083c-9.273,-1.43 -15.304,-10.062 -16.5,-18.018c-0.907,-6.033 1.023,-11.477 5.261,-13.917c3.995,-2.301 11.017,-2.238 21.099,4.861c1.875,1.321 5.345,5.085 7.148,8.47c1.041,1.954 1.515,3.853 1.41,5.299c-0.147,2.03 -1.916,3.559 -3.946,3.411c-2.001,-0.146 -3.514,-1.865 -3.416,-3.858Z"/></g><path d="M5.139,424.828l0,11.014l289.077,60.949l0,-16.889l-289.077,-55.074Z" style="fill:#5b5b5b;stroke:#000;stroke-width:5.59px;"/><path d="M295.415,496.813l232.292,-43.618l0.233,-15.868l-232.339,42.257l-0.186,17.229Z" style="fill:#828282;stroke:#000;stroke-width:5.59px;"/></g></svg>