<?xml version="1.0" encoding="UTF-8" standalone="no"?><!DOCTYPE svg PUBLIC "-//W3C//DTD SVG 1.1//EN" "http://www.w3.org/Graphics/SVG/1.1/DTD/svg11.dtd"><svg width="100%" height="100%" viewBox="0 0 600 600" version="1.1" xmlns="http://www.w3.org/2000/svg" xmlns:xlink="http://www.w3.org/1999/xlink" xml:space="preserve" xmlns:serif="http://www.serif.com/" style="fill-rule:evenodd;clip-rule:evenodd;stroke-linecap:round;stroke-linejoin:round;stroke-miterlimit:1.5;"><rect id="_45" serif:id="45" x="0" y="0" width="600" height="600" style="fill:none;"/><g><g><path d="M324.725,90.177c-0,-0 -9.472,-9.867 -13.024,14.208" style="fill:none;stroke:#61e0ee;stroke-width:4.07px;"/><path d="M291.968,87.809c-0,-0 9.077,-9.472 12.234,15.392" style="fill:none;stroke:#61e0ee;stroke-width:4.07px;"/><path d="M316.703,79.822c-0,0 -10.658,-6.793 -8.692,20.677" style="fill:none;stroke:#61e0ee;stroke-width:4.07px;"/><path d="M363.726,318.874c0,0 -1.104,-20.198 -11.723,-26.204c-10.62,-6.007 -17.796,1.736 -12.012,9.038c5.783,7.302 10.587,14.668 9.29,22.032c-1.297,7.365 15.266,7.872 14.445,-4.866Z" style="fill:#d6c295;stroke:#000;stroke-width:4.07px;"/><path d="M247.658,318.306c-0,0 4.57,-19.705 16.066,-23.79c11.496,-4.086 17.23,4.778 10.274,10.974c-6.956,6.196 -12.958,12.622 -12.95,20.1c0.007,7.478 -16.395,5.122 -13.39,-7.284Z" style="fill:#d6c295;stroke:#000;stroke-width:4.07px;"/><path d="M241.902,150.988c-0.372,-2.233 -4.94,-5.646 -6.838,-6.419c-23.093,-9.405 -14.998,17.076 -1.554,16.027" style="fill:#61e0ee;"/><path d="M244.581,150.541c0.247,1.479 -0.754,2.88 -2.232,3.126c-1.479,0.246 -2.88,-0.754 -3.126,-2.233c-0.019,-0.114 -0.131,-0.214 -0.222,-0.345c-0.266,-0.383 -0.622,-0.774 -1.017,-1.158c-1.299,-1.268 -3.006,-2.464 -3.944,-2.846c-3.05,-1.242 -5.471,-1.815 -7.362,-1.824c-1.264,-0.006 -2.204,0.216 -2.796,0.782c-0.456,0.437 -0.633,1.057 -0.677,1.73c-0.067,1.016 0.179,2.141 0.63,3.258c1.448,3.589 5.033,7.203 9.464,6.857c1.495,-0.116 2.803,1.003 2.919,2.497c0.117,1.495 -1.002,2.803 -2.497,2.919c-6.862,0.536 -12.682,-4.682 -14.924,-10.241c-1.696,-4.204 -1.261,-8.466 1.328,-10.944c2.458,-2.352 7.502,-3.512 15.964,-0.066c1.568,0.639 4.699,2.777 6.575,4.922c1.075,1.228 1.741,2.51 1.917,3.566Z"/><path d="M367.017,133.59c2.12,0.794 4.404,-0.541 6.022,-1.799c19.692,-15.296 -7.219,-21.424 -13.033,-9.257" style="fill:#61e0ee;"/><path d="M366.065,136.133c-1.404,-0.526 -2.117,-2.092 -1.591,-3.496c0.526,-1.404 2.093,-2.117 3.496,-1.591c0.429,0.161 0.868,0.031 1.287,-0.128c0.782,-0.294 1.507,-0.798 2.116,-1.272c2.602,-2.021 4.311,-3.831 5.267,-5.462c0.638,-1.088 0.919,-2.006 0.727,-2.797c-0.146,-0.603 -0.587,-1.056 -1.139,-1.423c-0.84,-0.559 -1.931,-0.901 -3.117,-1.064c-3.823,-0.525 -8.737,0.793 -10.654,4.805c-0.647,1.353 -2.27,1.926 -3.622,1.28c-1.353,-0.646 -1.926,-2.269 -1.28,-3.622c2.967,-6.209 10.379,-8.657 16.295,-7.845c4.488,0.616 7.954,3.114 8.797,6.588c0.797,3.288 -0.727,8.226 -7.941,13.831c-2.297,1.783 -5.635,3.323 -8.641,2.196Z"/><path d="M365.736,294.539c0,-0 10.235,-20.122 8.301,-37.381c-6.054,-54.032 9.851,-64.632 3.632,-97.591c-2.159,-11.444 -6.24,-24.478 -13.191,-33.953c-15.275,-20.822 -44.636,-31.638 -70.174,-26.748c-10.225,1.958 -19.458,6.385 -28.597,11.24c-31.793,16.889 -38.398,52.534 -34.267,82.577c1.829,13.3 13.264,34.028 11.591,47.365c-3.487,27.801 -2.511,42.849 6.169,60.782c7.398,15.284 36.188,26.799 67.665,23.526c5.362,-0.557 37.454,-6.181 48.871,-29.817Z" style="fill:#61e0ee;"/><clipPath id="_clip1"><path d="M365.736,294.539c0,-0 10.235,-20.122 8.301,-37.381c-6.054,-54.032 9.851,-64.632 3.632,-97.591c-2.159,-11.444 -6.24,-24.478 -13.191,-33.953c-15.275,-20.822 -44.636,-31.638 -70.174,-26.748c-10.225,1.958 -19.458,6.385 -28.597,11.24c-31.793,16.889 -38.398,52.534 -34.267,82.577c1.829,13.3 13.264,34.028 11.591,47.365c-3.487,27.801 -2.511,42.849 6.169,60.782c7.398,15.284 36.188,26.799 67.665,23.526c5.362,-0.557 37.454,-6.181 48.871,-29.817Z"/></clipPath><g clip-path="url(#_clip1)"><path d="M252.102,123.191c-0,-0 -10.829,13.92 -7.9,35.546c4.401,32.484 18.054,25.516 17.125,83.977c-0.464,29.142 -2.203,46.72 10.631,64.263c12.464,17.039 48.107,17.015 57.117,14.44c9.011,-2.574 -35.526,9.268 -61.012,-1.029c-25.486,-10.298 -29.091,-53.547 -25.744,-80.578c3.347,-27.031 -18.278,-34.754 -11.07,-81.35c11.585,-27.289 11.842,-25.744 20.853,-35.269Z" style="fill:#4fcbe0;"/><path d="M294.618,163.147c0,-0 -3.163,15.816 -22.012,14.894c-18.848,-0.923 -20.166,-20.167 -20.166,-20.167l42.178,5.273Z" style="fill:#4fcbe0;"/><path d="M375.235,155.106c0,0 -3.163,15.817 -22.012,14.895c-18.848,-0.923 -20.166,-20.167 -20.166,-20.167l42.178,5.272Z" style="fill:#4fcbe0;"/></g><path d="M368.175,295.736l-0.002,0.004c-4.827,9.978 -13.107,16.949 -21.71,21.72c-12.67,7.026 -25.982,9.251 -29.318,9.598c-19.446,2.022 -37.893,-1.47 -51.188,-7.96c-9.245,-4.514 -16.024,-10.518 -19.202,-17.085c-8.899,-18.384 -9.994,-33.802 -6.419,-62.303c0.795,-6.334 -1.626,-14.404 -4.36,-22.488c-2.938,-8.688 -6.293,-17.381 -7.227,-24.169c-4.274,-31.085 2.789,-67.871 35.684,-85.346c9.379,-4.982 18.866,-9.499 29.361,-11.508c26.524,-5.079 57.009,6.182 72.875,27.808c7.18,9.787 11.439,23.235 13.669,35.056c2.561,13.57 1.495,23.457 -0.328,33.996c-2.625,15.177 -6.863,31.761 -3.273,63.796c1.965,17.539 -8.088,37.931 -8.562,38.881Zm-4.86,-2.429c0,0 9.878,-19.289 8.023,-35.847c-3.069,-27.39 -0.572,-43.771 1.904,-57.483c2.383,-13.198 4.792,-23.824 1.758,-39.906c-2.088,-11.067 -5.99,-23.688 -12.712,-32.85c-14.685,-20.018 -42.922,-30.388 -67.473,-25.687c-9.956,1.907 -18.936,6.244 -27.833,10.971c-30.691,16.303 -36.839,50.807 -32.851,79.808c1.082,7.865 5.604,18.354 8.666,28.334c2.197,7.16 3.639,14.082 2.929,19.739c-3.399,27.101 -2.543,41.779 5.919,59.261c2.74,5.661 8.725,10.678 16.695,14.569c12.528,6.116 29.919,9.344 48.244,7.439c3.1,-0.323 15.467,-2.415 27.244,-8.946c7.689,-4.264 15.153,-10.431 19.463,-19.352c0.008,-0.016 0.016,-0.033 0.024,-0.05Z"/><path d="M289.674,311.548c53.76,12.512 63.163,-18.852 65.011,-25.668c3.481,-12.841 5.167,-37.731 2.04,-50.967c-1.086,-4.596 -3.139,-9.83 -6.635,-13.635c-7.683,-8.362 -42.044,-9.089 -54.89,-7.125c-5.143,0.786 -9.787,2.564 -14.383,4.513c-15.992,6.783 -21.627,85.787 8.857,92.882Z" style="fill:#b7f8ff;"/><circle cx="368.742" cy="174.272" r="2.243" style="fill:#b7f8ff;"/><circle cx="257.376" cy="178.346" r="2.243" style="fill:#b7f8ff;"/><path d="M218.515,232.562c-0,0 12.057,16.242 24.229,15.398c12.171,-0.844 13.889,-11.26 5.038,-14.163c-8.851,-2.904 -16.92,-6.4 -19.898,-13.259c-2.979,-6.859 -17.077,1.85 -9.369,12.024Z" style="fill:#d6c295;stroke:#000;stroke-width:4.07px;"/><path d="M399.126,223.833c0,0 -10.009,17.578 -22.194,18.208c-12.184,0.631 -15.146,-9.502 -6.71,-13.452c8.437,-3.95 16.024,-8.394 18.154,-15.562c2.129,-7.168 17.174,-0.224 10.75,10.806Z" style="fill:#d6c295;stroke:#000;stroke-width:4.07px;"/><g><path d="M274.999,195.231c2.76,-18.293 23.784,-17.734 39.196,-11.229c15.413,6.504 19.535,-10.875 31.13,-6.768c11.595,4.107 -0.079,36.74 -23.444,43.179c-23.366,6.439 -49.411,-8.42 -46.882,-25.182Z"/><g><path d="M327.395,188.015c-0.575,3.327 -0.354,9.502 -2.078,12.324c-0.836,1.369 -2.879,1.565 -4.21,1.694c-7.647,0.739 -8.035,-7.119 -9.614,-13.872" style="fill:#ededed;"/><path d="M325.388,187.668c0.191,-1.108 1.246,-1.852 2.354,-1.661c1.108,0.192 1.852,1.247 1.66,2.355c-0.341,1.977 -0.395,4.969 -0.755,7.649c-0.285,2.121 -0.781,4.063 -1.591,5.39c-0.564,0.923 -1.424,1.566 -2.431,1.976c-1.085,0.441 -2.356,0.59 -3.322,0.684c-2.47,0.238 -4.343,-0.272 -5.812,-1.226c-1.448,-0.941 -2.52,-2.346 -3.317,-4.077c-1.301,-2.826 -1.843,-6.62 -2.664,-10.133c-0.256,-1.095 0.425,-2.192 1.52,-2.448c1.094,-0.256 2.191,0.425 2.447,1.52c0.757,3.24 1.198,6.752 2.398,9.358c0.454,0.985 1.011,1.828 1.836,2.363c0.804,0.523 1.847,0.718 3.2,0.587c0.551,-0.053 1.251,-0.109 1.898,-0.304c0.295,-0.089 0.612,-0.165 0.77,-0.424c0.569,-0.931 0.83,-2.319 1.03,-3.808c0.367,-2.734 0.43,-5.785 0.779,-7.801Z"/><path d="M319.099,163.621c-6.214,0.382 -11.062,3.9 -10.819,7.851c0.243,3.951 5.486,6.848 11.7,6.466c6.214,-0.383 11.062,-3.901 10.819,-7.851c-0.243,-3.951 -5.485,-6.848 -11.7,-6.466Z"/><path d="M318.161,175.819c-0.019,-1.124 0.878,-2.052 2.003,-2.071c1.124,-0.019 2.052,0.878 2.071,2.002c0.057,3.374 0.635,6.612 0.887,9.955c0.085,1.121 -0.757,2.1 -1.878,2.185c-1.121,0.084 -2.1,-0.757 -2.184,-1.879c-0.259,-3.422 -0.84,-6.738 -0.899,-10.192Z"/><path d="M342.484,110.998c-2.366,-0.717 -4.59,-0.303 -4.962,0.924c-0.372,1.227 1.248,2.806 3.615,3.523c2.366,0.717 4.59,0.303 4.962,-0.924c0.372,-1.227 -1.248,-2.806 -3.615,-3.523Z" style="fill:#b7f8ff;"/><path d="M256.142,121.481c-1.59,1.893 -2.084,4.1 -1.102,4.925c0.982,0.825 3.07,-0.043 4.661,-1.937c1.59,-1.894 2.084,-4.101 1.102,-4.925c-0.982,-0.825 -3.07,0.043 -4.661,1.937Z" style="fill:#b7f8ff;"/><path d="M358.5,119.215c-12.609,-1.796 -24.304,6.983 -26.1,19.592c-1.795,12.609 6.984,24.304 19.593,26.1c12.609,1.795 24.304,-6.984 26.099,-19.593c1.796,-12.609 -6.983,-24.304 -19.592,-26.099Z" style="fill:#fff;stroke:#000;stroke-width:4.07px;"/><path d="M352.016,136.8c-4.086,-1.942 -8.979,-0.2 -10.921,3.886c-1.941,4.086 -0.2,8.979 3.886,10.92c4.086,1.942 8.98,0.201 10.921,-3.885c1.941,-4.086 0.2,-8.98 -3.886,-10.921Z"/><path d="M349.616,142.448c-1.148,-0.545 -2.521,-0.056 -3.067,1.091c-0.545,1.147 -0.056,2.521 1.091,3.066c1.148,0.546 2.522,0.057 3.067,-1.091c0.545,-1.147 0.056,-2.521 -1.091,-3.066Z" style="fill:#fff;"/><path d="M277.167,125.972c-12.609,-1.795 -24.304,6.984 -26.1,19.593c-1.795,12.609 6.984,24.304 19.593,26.099c12.609,1.796 24.303,-6.983 26.099,-19.592c1.796,-12.609 -6.983,-24.304 -19.592,-26.1Z" style="fill:#fff;stroke:#000;stroke-width:4.07px;"/><path d="M279.124,142.037c-4.479,-0.638 -8.633,2.48 -9.27,6.959c-0.638,4.478 2.48,8.632 6.959,9.27c4.478,0.638 8.632,-2.48 9.27,-6.959c0.638,-4.479 -2.481,-8.632 -6.959,-9.27Z"/><path d="M279.175,147.991c-1.257,-0.18 -2.423,0.696 -2.602,1.953c-0.18,1.258 0.696,2.424 1.953,2.603c1.258,0.179 2.424,-0.696 2.603,-1.954c0.179,-1.257 -0.696,-2.423 -1.954,-2.602Z" style="fill:#fff;"/></g></g></g><path d="M480.282,287.523c0,-11.084 -8.998,-20.083 -20.083,-20.083l-302.68,-0c-11.084,-0 -20.083,8.999 -20.083,20.083l-0,114.451c-0,11.084 8.999,20.083 20.083,20.083l302.68,-0c11.085,-0 20.083,-8.999 20.083,-20.083l0,-114.451Z" style="fill:#fff;stroke:#000;stroke-width:6.25px;"/><path d="M528.18,417.936c0,-19.002 -15.427,-34.428 -34.428,-34.428l-369.786,-0c-19.001,-0 -34.428,15.426 -34.428,34.428l0,131.137c0,19.002 15.427,34.428 34.428,34.428l369.786,0c19.001,0 34.428,-15.426 34.428,-34.428l0,-131.137Z" style="fill:#fff;"/><clipPath id="_clip2"><path d="M528.18,417.936c0,-19.002 -15.427,-34.428 -34.428,-34.428l-369.786,-0c-19.001,-0 -34.428,15.426 -34.428,34.428l0,131.137c0,19.002 15.427,34.428 34.428,34.428l369.786,0c19.001,0 34.428,-15.426 34.428,-34.428l0,-131.137Z"/></clipPath><g clip-path="url(#_clip2)"><path d="M66.356,466.009c0,-0 -1.567,14.789 29.138,13.503c30.277,-1.268 10.632,-52.559 28.142,-57.618c21.281,-6.149 20.496,24.335 8.198,79.802c-12.825,57.846 78.596,62.758 46.729,-39.48c-4.819,-26.847 -0.595,-43.571 15.237,-40.817c15.833,2.753 -1.73,29.888 21.675,47.786c23.405,17.898 48.447,1.291 53.954,-13.853c5.507,-15.145 13.196,-45.682 32.471,-30.538c19.274,15.144 -25.631,81.108 17.357,84.206c40.523,2.921 9.009,-64.858 21.175,-84.239c10.193,-16.239 44.496,-16.449 39.138,11.296c-7.016,36.33 0.689,47.498 19.275,50.252c18.586,2.754 31.88,-12.275 22.061,-45.18c-6.915,-23.172 22.392,-38.45 43.043,-21.929c20.652,16.521 10.059,36.087 1.801,62.037c-11.801,37.085 24.65,74.599 57.004,27.789c32.354,-46.81 16.521,-108.076 16.521,-108.076l-30.977,-28.913l-433.681,1.377l-8.261,92.595Z" style="fill:#e98fca;stroke:#000;stroke-width:4.07px;"/></g><path d="M528.18,417.936c0,-19.002 -15.427,-34.428 -34.428,-34.428l-369.786,-0c-19.001,-0 -34.428,15.426 -34.428,34.428l0,131.137c0,19.002 15.427,34.428 34.428,34.428l369.786,0c19.001,0 34.428,-15.426 34.428,-34.428l0,-131.137Z" style="fill:none;stroke:#000;stroke-width:6.25px;"/><path d="M276.379,103.958l23.966,-85.999l36.937,87.126c0,0 -35.245,19.174 -60.903,-1.127Z" style="fill:#ffc200;stroke:#000;stroke-width:4.07px;"/><path d="M426.361,160.989c0,0 24.954,-63.675 53.35,-55.07c28.396,8.605 -51.629,55.931 -53.35,55.07Z" style="fill:#fff;stroke:#000;stroke-width:4.07px;"/><path d="M199.195,193.688c0,-0 -36.14,-52.49 -53.349,-43.024c-17.21,9.465 53.349,43.024 53.349,43.024Z" style="fill:#fff;stroke:#000;stroke-width:4.07px;"/><path d="M209.521,99.035c-0,0 -6.023,-59.373 -22.372,-51.629c-16.35,7.745 22.372,51.629 22.372,51.629Z" style="fill:#fff;stroke:#000;stroke-width:4.07px;"/><path d="M120.974,189.134c-0,-0 -10.875,1.209 -16.699,15.345c-5.824,14.136 9.105,22.729 20.728,8.089c11.623,-14.639 3.312,-20.584 -5.087,-12.264c-4.773,4.728 -14.442,19.727 0.921,27.614c15.364,7.887 24.015,-7.114 24.118,-15.925c0.097,-8.307 -6.512,-5.281 -10.182,-2.201c-7.095,5.957 -14.562,22.035 -0.538,26.465c14.025,4.43 21.912,-15.514 21.002,-19.531" style="fill:none;stroke:#dc1c4b;stroke-width:4.07px;"/><path d="M440.34,62.493c-0,0 -0.031,-10.941 -13.458,-18.254c-13.427,-7.312 -23.577,6.605 -10.274,19.737c13.302,13.131 20.108,5.509 12.741,-3.737c-4.187,-5.254 -18.058,-16.482 -27.553,-2.058c-9.496,14.425 4.486,24.641 13.235,25.693c8.249,0.991 5.952,-5.906 3.285,-9.886c-5.158,-7.696 -20.339,-16.85 -26.253,-3.384c-5.915,13.465 13.064,23.454 17.156,22.983" style="fill:none;stroke:#dc1c4b;stroke-width:4.07px;"/><rect x="449.567" y="321.963" width="15.97" height="61.839" style="fill:#ffa400;stroke:#000;stroke-width:3.44px;"/><rect x="375.317" y="321.963" width="15.97" height="61.839" style="fill:#ffa400;stroke:#000;stroke-width:3.44px;"/><rect x="301.537" y="321.493" width="15.97" height="61.839" style="fill:#ffa400;stroke:#000;stroke-width:3.44px;"/><rect x="224.468" y="321.024" width="15.97" height="61.839" style="fill:#ffa400;stroke:#000;stroke-width:3.44px;"/><rect x="151.158" y="322.433" width="15.97" height="61.839" style="fill:#ffa400;stroke:#000;stroke-width:3.44px;"/><path d="M456.107,313.305c-0,-0 -16.918,-1.504 3.007,-30.452c15.414,15.414 6.391,31.204 -3.007,30.452Z" style="fill:#ffc200;stroke:#000;stroke-width:4.07px;"/><path d="M381.857,313.305c0,-0 -16.918,-1.504 3.008,-30.452c15.414,15.414 6.391,31.204 -3.008,30.452Z" style="fill:#ffc200;stroke:#000;stroke-width:4.07px;"/><path d="M308.077,312.835c0,-0 -16.917,-1.504 3.008,-30.452c15.414,15.414 6.391,31.204 -3.008,30.452Z" style="fill:#ffc200;stroke:#000;stroke-width:4.07px;"/><path d="M231.008,312.365c-0,-0 -16.918,-1.504 3.007,-30.452c15.414,15.414 6.392,31.204 -3.007,30.452Z" style="fill:#ffc200;stroke:#000;stroke-width:4.07px;"/><path d="M157.698,313.775c0,-0 -16.918,-1.504 3.008,-30.452c15.414,15.414 6.391,31.203 -3.008,30.452Z" style="fill:#ffc200;stroke:#000;stroke-width:4.07px;"/><path d="M458.166,305.416l-0,15.639" style="fill:none;stroke:#000;stroke-width:4.07px;"/><path d="M383.916,305.416l-0,15.639" style="fill:none;stroke:#000;stroke-width:4.07px;"/><path d="M310.136,304.946l0,15.639" style="fill:none;stroke:#000;stroke-width:4.07px;"/><path d="M233.067,304.476l-0,15.639" style="fill:none;stroke:#000;stroke-width:4.07px;"/><path d="M159.757,305.886l-0,15.639" style="fill:none;stroke:#000;stroke-width:4.07px;"/><circle cx="164.409" cy="114.036" r="6.608" style="fill:#e98fca;stroke:#000;stroke-width:2.71px;"/><circle cx="458.853" cy="227.114" r="6.608" style="fill:#e98fca;stroke:#000;stroke-width:2.71px;"/><circle cx="192.312" cy="237.394" r="6.608" style="fill:#e98fca;stroke:#000;stroke-width:2.71px;"/></g></svg>