<?xml version="1.0" encoding="UTF-8" standalone="no"?><!DOCTYPE svg PUBLIC "-//W3C//DTD SVG 1.1//EN" "http://www.w3.org/Graphics/SVG/1.1/DTD/svg11.dtd"><svg width="100%" height="100%" viewBox="0 0 600 600" version="1.1" xmlns="http://www.w3.org/2000/svg" xmlns:xlink="http://www.w3.org/1999/xlink" xml:space="preserve" xmlns:serif="http://www.serif.com/" style="fill-rule:evenodd;clip-rule:evenodd;stroke-linecap:round;stroke-linejoin:round;stroke-miterlimit:1.5;"><rect id="_46" serif:id="46" x="0" y="0" width="600" height="600" style="fill:none;"/><g><g><path d="M71.67,233.685c14.468,12.549 16.027,34.483 3.478,48.952c-12.548,14.468 -34.483,16.027 -48.951,3.479c-14.469,-12.549 -16.027,-34.483 -3.479,-48.952c12.549,-14.469 34.483,-16.027 48.952,-3.479Z" style="fill:#fff;stroke:#010000;stroke-width:3.36px;"/><path d="M67.918,238.535c2.533,5.706 -0.044,12.396 -5.75,14.929c-5.707,2.533 -12.397,-0.043 -14.93,-5.75c-2.533,-5.706 0.044,-12.396 5.75,-14.929c5.707,-2.533 12.396,0.043 14.93,5.75Z" style="fill:#010000;"/><path d="M62.032,239.648c0.764,1.721 -0.013,3.738 -1.734,4.502c-1.721,0.764 -3.738,-0.013 -4.502,-1.734c-0.764,-1.721 0.013,-3.738 1.734,-4.502c1.721,-0.764 3.738,0.013 4.502,1.734Z" style="fill:#fff;"/></g><path d="M440.645,325.279c-0.056,0.136 -0.122,0.292 -0.198,0.471c-0,0 -10.757,-26.655 34.821,-65.193c26.058,-22.033 39.149,-49.269 45.382,-67.071c0.753,-2.211 2.89,-3.647 5.222,-3.507c2.332,0.139 4.282,1.82 4.765,4.106c6.462,31.587 12.953,93.899 -26.459,125.904c50.576,4.596 79.919,59.966 92.158,89.799c0.873,2.167 0.19,4.65 -1.668,6.065c-1.859,1.416 -4.434,1.415 -6.291,-0.002c-15.096,-11.308 -41.144,-26.628 -75.059,-30.401c-59.321,-6.599 -65.244,-34.726 -65.244,-34.726c0.164,0.106 0.305,0.199 0.427,0.28c0.709,0.541 0.884,0.59 0,0c-1.872,-1.428 -7.464,-6.288 -7.061,-11.877c-3.503,-4.413 -1.556,-11.61 -0.795,-13.848c0.405,-0.981 0.287,-0.843 -0,0Z" style="fill:#529dff;stroke:#010000;stroke-width:3.36px;"/><path d="M441.423,324.793c34.782,-15.73 50.247,8.609 23.979,46.713c-32.97,47.825 -212.392,173.023 -377.656,42.264c-146.641,-116.024 56.978,-327.607 173.842,-171.282c60.327,80.7 147.865,96.764 179.835,82.305Z" style="fill:#529dff;stroke:#010000;stroke-width:3.2px;"/><path d="M37.338,321.766c0,0 58.827,66.199 156.657,15.66" style="fill:none;stroke:#010000;stroke-width:4.26px;"/><g><path d="M185.55,264.154c8.52,17.153 1.511,37.996 -15.642,46.515c-17.153,8.52 -37.996,1.511 -46.516,-15.642c-8.519,-17.152 -1.51,-37.995 15.642,-46.515c17.153,-8.52 37.996,-1.511 46.516,15.642Z" style="fill:#fff;stroke:#010000;stroke-width:3.36px;"/><path d="M180.22,267.185c0.14,6.242 -4.814,11.423 -11.056,11.563c-6.242,0.14 -11.424,-4.814 -11.564,-11.056c-0.14,-6.242 4.814,-11.423 11.056,-11.564c6.242,-0.14 11.424,4.815 11.564,11.057Z" style="fill:#010000;"/><path d="M174.359,265.945c0.042,1.883 -1.452,3.445 -3.334,3.487c-1.882,0.042 -3.445,-1.451 -3.487,-3.334c-0.042,-1.882 1.452,-3.444 3.334,-3.487c1.882,-0.042 3.445,1.452 3.487,3.334Z" style="fill:#fff;"/></g><path d="M281.577,366.231c0,0 -20.003,-6.927 -14.004,24.409c5.999,31.336 70.963,71.018 146.874,79.689c75.91,8.672 -91.199,-96.662 -132.87,-104.098Z" style="fill:#529dff;stroke:#000;stroke-width:3.36px;"/><g><path d="M221.68,219.249c0,-0 13.659,8.699 22.519,4.589c8.861,-4.11 7.168,-12.39 -0.281,-12.032c-7.448,0.359 -14.481,0.051 -18.669,-4.226c-4.188,-4.278 -12.241,6.263 -3.569,11.669Z" style="fill:#d6c295;stroke:#000;stroke-width:3.26px;"/><path d="M302.373,121.436c0,0 9.142,-6.026 7.653,13.399" style="fill:none;stroke:#61e0ee;stroke-width:3.26px;"/><path d="M328.367,125.387c0,0 -5.41,-9.002 -12.277,9.851" style="fill:none;stroke:#61e0ee;stroke-width:3.26px;"/><path d="M310.47,114.772c-0,0 9.523,-3.417 3.125,17.682" style="fill:none;stroke:#61e0ee;stroke-width:3.26px;"/><path d="M218.466,255.375c0,0 15.176,-5.652 22.982,0.219c7.805,5.872 4.419,13.615 -2.79,11.707c-7.209,-1.907 -14.151,-3.076 -19.14,0.232c-4.99,3.308 -10.662,-8.684 -1.052,-12.158Z" style="fill:#d6c295;stroke:#000;stroke-width:3.26px;"/><path d="M277.555,314.079c0,-0 5.239,-15.323 14.727,-17.644c9.488,-2.321 13.334,5.204 7.292,9.574c-6.043,4.37 -11.345,9.001 -11.946,14.958c-0.601,5.956 -13.473,2.748 -10.073,-6.888Z" style="fill:#d6c295;stroke:#000;stroke-width:3.26px;"/><path d="M356.27,183.577c0.686,-1.677 4.856,-3.533 6.475,-3.801c19.695,-3.254 8.686,15.988 -1.624,12.789" style="fill:#61e0ee;"/><path d="M358.283,184.4c-0.454,1.111 -1.725,1.644 -2.836,1.19c-1.111,-0.454 -1.644,-1.725 -1.19,-2.836c0.325,-0.793 1.072,-1.676 2.128,-2.445c1.845,-1.342 4.668,-2.457 6.005,-2.678c7.217,-1.193 10.95,0.606 12.452,2.878c1.583,2.393 1.168,5.797 -0.9,8.779c-2.735,3.943 -8.202,6.987 -13.466,5.354c-1.146,-0.356 -1.788,-1.575 -1.432,-2.722c0.355,-1.146 1.575,-1.788 2.721,-1.432c3.398,1.054 6.837,-1.132 8.603,-3.678c0.55,-0.793 0.941,-1.628 1.069,-2.433c0.085,-0.533 0.056,-1.048 -0.223,-1.47c-0.362,-0.547 -1.056,-0.886 -2.044,-1.106c-1.478,-0.327 -3.47,-0.309 -6.071,0.121c-0.8,0.132 -2.344,0.764 -3.583,1.524c-0.376,0.23 -0.723,0.472 -0.999,0.724c-0.094,0.086 -0.199,0.144 -0.234,0.23Z"/><path d="M261.668,147.843c-1.795,0.245 -3.342,-1.202 -4.383,-2.47c-12.666,-15.429 9.43,-15.449 11.815,-4.92" style="fill:#61e0ee;"/><path d="M261.374,145.688c1.189,-0.162 2.286,0.672 2.448,1.861c0.163,1.189 -0.671,2.286 -1.86,2.448c-2.547,0.348 -4.881,-1.445 -6.358,-3.244c-4.64,-5.653 -4.956,-9.779 -3.751,-12.204c1.273,-2.564 4.421,-3.9 8.034,-3.586c4.763,0.413 10.116,3.637 11.333,9.009c0.265,1.171 -0.47,2.336 -1.64,2.602c-1.171,0.265 -2.336,-0.47 -2.601,-1.641c-0.787,-3.472 -4.39,-5.37 -7.468,-5.638c-0.955,-0.083 -1.867,-0.008 -2.622,0.279c-0.495,0.189 -0.92,0.465 -1.141,0.909c-0.29,0.584 -0.233,1.351 0.072,2.313c0.458,1.442 1.472,3.158 3.146,5.197c0.391,0.477 0.868,0.999 1.426,1.368c0.299,0.198 0.62,0.377 0.982,0.327Z"/><path d="M234.173,273.729c-0,-0 -4.428,-17.522 0.137,-30.655c14.293,-41.112 3.752,-52.204 14.442,-76.835c3.712,-8.553 9.206,-18.007 16.31,-24.173c15.613,-13.553 40.451,-16.799 59.523,-8.46c7.637,3.34 14.062,8.431 20.337,13.839c21.832,18.814 20.678,47.813 12.134,70.538c-3.783,10.06 -16.38,24.218 -17.435,34.927c-2.2,22.323 -5.625,33.898 -15.577,46.363c-8.482,10.623 -32.999,14.516 -56.994,6.388c-4.088,-1.385 -28.147,-11.457 -32.877,-31.932Z" style="fill:#61e0ee;"/><clipPath id="_clip1"><path d="M234.173,273.729c-0,-0 -4.428,-17.522 0.137,-30.655c14.293,-41.112 3.752,-52.204 14.442,-76.835c3.712,-8.553 9.206,-18.007 16.31,-24.173c15.613,-13.553 40.451,-16.799 59.523,-8.46c7.637,3.34 14.062,8.431 20.337,13.839c21.832,18.814 20.678,47.813 12.134,70.538c-3.783,10.06 -16.38,24.218 -17.435,34.927c-2.2,22.323 -5.625,33.898 -15.577,46.363c-8.482,10.623 -32.999,14.516 -56.994,6.388c-4.088,-1.385 -28.147,-11.457 -32.877,-31.932Z"/></clipPath><g clip-path="url(#_clip1)"><path d="M353.228,160.069c0,0 3.683,21.968 -5.034,37.109c-8.716,15.141 -22.71,35.847 -26.454,58.878c-3.743,23.031 -9.482,37.157 -15.965,42.449c-13.093,10.688 -41.159,6.305 -47.738,2.7c-6.579,-3.606 26.096,13.525 47.817,9.998c21.721,-3.528 32.192,-36.656 34.365,-58.353c2.173,-21.696 20.423,-23.898 23.045,-61.553c-4.213,-23.356 -4.688,-22.196 -10.036,-31.228Z" style="fill:#4fcbe0;"/></g><path d="M232.06,274.241l-0.003,-0.011c-0.207,-0.844 -4.438,-18.532 0.199,-31.87c8.475,-24.375 8.102,-38.073 8.739,-50.387c0.443,-8.551 1.362,-16.459 5.763,-26.6c3.834,-8.835 9.54,-18.58 16.879,-24.95c16.216,-14.075 42.01,-17.47 61.819,-8.809c7.838,3.427 14.445,8.633 20.886,14.183c22.589,19.468 21.59,49.439 12.749,72.951c-1.93,5.134 -6.089,11.327 -9.921,17.59c-3.565,5.828 -6.884,11.699 -7.385,16.785c-2.255,22.885 -5.839,34.728 -16.042,47.506c-3.644,4.564 -9.999,8.052 -18.016,9.939c-11.53,2.714 -26.55,2.174 -41.375,-2.847c-2.542,-0.862 -12.542,-4.956 -21.19,-12.684c-5.87,-5.247 -11.1,-12.154 -13.102,-20.796Zm4.232,-1.002c1.785,7.728 6.52,13.865 11.769,18.555c8.038,7.184 17.323,11.007 19.687,11.807c13.969,4.732 28.118,5.291 38.982,2.734c6.912,-1.627 12.473,-4.484 15.614,-8.419c9.702,-12.15 12.969,-23.459 15.113,-45.219c0.447,-4.543 2.798,-9.692 5.781,-14.892c4.158,-7.25 9.546,-14.639 11.783,-20.588c8.248,-21.936 9.556,-49.963 -11.518,-68.125c-6.11,-5.266 -12.353,-10.242 -19.789,-13.493c-18.335,-8.017 -42.217,-4.92 -57.226,8.109c-6.87,5.963 -12.151,15.126 -15.741,23.396c-5.216,12.019 -5.216,20.742 -5.692,31.468c-0.495,11.144 -1.445,24.376 -8.691,45.217c-4.38,12.598 -0.083,29.407 -0.083,29.407c0.004,0.014 0.007,0.029 0.011,0.043Z"/><path d="M271.925,297.625c-24.053,-10.042 -27.355,-23.051 -27.591,-28.7c-0.444,-10.642 2.646,-30.373 7.431,-40.153c1.662,-3.396 4.191,-7.119 7.594,-9.471c7.479,-5.168 34.435,0.348 44.116,4.155c3.876,1.525 7.187,3.735 10.431,6.071c11.284,8.126 1.69,70.347 -23.359,70.948c-6.69,0.161 -14.805,-1.256 -18.622,-2.85Z" style="fill:#b7f8ff;"/><path d="M253.516,177.548c0.966,0.219 1.573,1.182 1.354,2.149c-0.219,0.966 -1.182,1.573 -2.148,1.354c-0.967,-0.219 -1.574,-1.182 -1.355,-2.148c0.22,-0.967 1.182,-1.574 2.149,-1.355Z" style="fill:#b7f8ff;"/><path d="M339.812,200.138c0.967,0.219 1.574,1.182 1.355,2.149c-0.22,0.966 -1.182,1.573 -2.149,1.354c-0.967,-0.219 -1.573,-1.182 -1.354,-2.149c0.219,-0.966 1.182,-1.573 2.148,-1.354Z" style="fill:#b7f8ff;"/><path d="M359.192,256.768c0,0 -15.815,3.482 -22.726,-3.419c-6.911,-6.902 -2.479,-14.098 4.394,-11.204c6.873,2.893 13.584,5.018 18.986,2.438c5.402,-2.581 9.347,10.085 -0.654,12.185Z" style="fill:#d6c295;stroke:#000;stroke-width:3.26px;"/><g><path d="M274.502,195.015l28.039,6.358c0,-0 -7.061,35.161 -26.21,26.479c-10.576,-4.795 -1.829,-32.837 -1.829,-32.837Z" style="stroke:#000;stroke-width:3.26px;"/><g><path d="M281.793,197.589c-0.285,2.688 -1.808,7.394 -1.099,9.945c0.344,1.237 1.874,1.836 2.871,2.226c5.727,2.244 7.747,-3.722 10.441,-8.576" style="fill:#ededed;"/><path d="M280.172,197.417c0.095,-0.895 0.899,-1.545 1.794,-1.45c0.895,0.096 1.544,0.899 1.449,1.795c-0.173,1.628 -0.793,3.991 -1.108,6.177c-0.173,1.19 -0.276,2.316 -0.041,3.158c0.065,0.234 0.292,0.361 0.5,0.495c0.455,0.292 0.982,0.488 1.394,0.65c1.014,0.397 1.859,0.475 2.593,0.249c0.753,-0.232 1.366,-0.759 1.931,-1.418c1.495,-1.744 2.604,-4.352 3.896,-6.68c0.437,-0.787 1.431,-1.072 2.218,-0.635c0.787,0.437 1.071,1.43 0.634,2.217c-1.402,2.526 -2.65,5.329 -4.271,7.22c-0.992,1.158 -2.126,2.006 -3.447,2.413c-1.34,0.413 -2.894,0.396 -4.744,-0.329c-0.723,-0.284 -1.669,-0.677 -2.408,-1.254c-0.686,-0.536 -1.207,-1.22 -1.439,-2.054c-0.333,-1.199 -0.29,-2.803 -0.045,-4.499c0.31,-2.143 0.924,-4.458 1.094,-6.055Z"/><path d="M293.213,179.9c4.784,1.398 7.946,5.003 7.057,8.045c-0.889,3.041 -5.495,4.375 -10.279,2.976c-4.785,-1.399 -7.947,-5.004 -7.058,-8.045c0.89,-3.041 5.496,-4.375 10.28,-2.976Z"/><path d="M288.617,188.814c0.214,-0.875 1.098,-1.411 1.972,-1.197c0.874,0.214 1.411,1.098 1.197,1.972c-0.658,2.686 -1.699,5.172 -2.506,7.799c-0.265,0.86 -1.178,1.344 -2.038,1.079c-0.861,-0.264 -1.344,-1.178 -1.08,-2.038c0.789,-2.566 1.813,-4.991 2.455,-7.615Z"/><path d="M273.926,141.724c1.975,-0.141 3.638,0.576 3.711,1.6c0.073,1.023 -1.471,1.969 -3.446,2.11c-1.975,0.141 -3.637,-0.576 -3.71,-1.6c-0.073,-1.024 1.47,-1.969 3.445,-2.11Z" style="fill:#b7f8ff;"/><path d="M350.516,165.105c0.906,1.76 0.901,3.571 -0.011,4.041c-0.913,0.469 -2.39,-0.578 -3.296,-2.338c-0.907,-1.76 -0.902,-3.571 0.011,-4.041c0.913,-0.47 2.39,0.578 3.296,2.338Z" style="fill:#b7f8ff;"/></g><path d="M260.766,162.418c0.576,0.508 15.439,-12.369 19.799,-5.877c2.761,3.542 -0.695,10.209 -0.695,10.209" style="fill:none;stroke:#000;stroke-width:3.26px;"/><path d="M319.421,181.227c0.576,0.507 15.439,-12.37 19.799,-5.878c2.761,3.542 -0.695,10.21 -0.695,10.21" style="fill:none;stroke:#000;stroke-width:3.26px;"/></g></g></g></svg>