<?xml version="1.0" encoding="UTF-8" standalone="no"?><!DOCTYPE svg PUBLIC "-//W3C//DTD SVG 1.1//EN" "http://www.w3.org/Graphics/SVG/1.1/DTD/svg11.dtd"><svg width="100%" height="100%" viewBox="0 0 144 144" version="1.1" xmlns="http://www.w3.org/2000/svg" xmlns:xlink="http://www.w3.org/1999/xlink" xml:space="preserve" xmlns:serif="http://www.serif.com/" style="fill-rule:evenodd;clip-rule:evenodd;stroke-linecap:round;stroke-linejoin:round;stroke-miterlimit:1.5;"><rect id="_7" serif:id="7" x="0" y="0" width="144" height="144" style="fill:none;"/><g><g transform="matrix(0.59144,0,0,0.59144,-7271.9,-2466.36)"><path d="M12423.6,4292.76c-0.45,-1.051 -1.099,-1.901 -1.898,-2.651c-0.798,-0.75 -1.697,-1.35 -2.696,-1.8c-1.001,-0.45 -2.002,-0.901 -3.052,-1.251c-1.051,-0.35 -2.051,-0.7 -3.052,-1c-1,-0.3 -1.901,-0.7 -2.701,-1.1c-0.8,-0.4 -1.401,-0.9 -1.851,-1.451c-0.45,-0.55 -0.75,-1.25 -0.75,-2.1c0,-0.65 0.1,-1.3 0.35,-1.851c0.25,-0.55 0.65,-1.05 1.1,-1.45c0.451,-0.4 1.051,-0.7 1.751,-0.95c0.701,-0.2 1.451,-0.3 2.402,-0.3c2.601,0 4.602,0.25 5.853,0.8c0.2,2.251 0.35,3.601 0.45,4.051c0.15,0.6 0.499,0.95 1.148,0.95l2.846,0l0,-9.247c-3.345,-1.349 -6.796,-2.048 -10.348,-2.048c-1.9,0 -3.601,0.3 -5.052,0.899c-1.449,0.599 -2.698,1.349 -3.697,2.298c-0.999,0.948 -1.798,2.097 -2.298,3.347c-0.549,1.25 -0.799,2.551 -0.799,3.851c0,1.65 0.3,3.051 0.749,4.151c0.45,1.15 1.049,2.051 1.848,2.801c0.799,0.75 1.699,1.4 2.698,1.85c0.999,0.45 1.999,0.85 3.05,1.2c1,0.351 2.051,0.601 3.051,0.901c1.001,0.3 1.851,0.65 2.652,1.05c0.8,0.4 1.45,0.9 1.901,1.5c0.451,0.6 0.701,1.401 0.701,2.351c0,1.7 -0.5,3.001 -1.551,3.901c-1.05,0.9 -2.551,1.35 -4.452,1.35c-3.101,0 -5.403,-0.2 -6.853,-0.65c-0.2,-2.301 -0.35,-3.701 -0.45,-4.151c-0.15,-0.6 -0.5,-0.9 -1.149,-0.9l-2.046,0l-0.599,0l-0.2,0l0,9.297c3.694,1.249 7.145,1.898 10.347,1.898l0.75,0c2.001,0 3.752,-0.3 5.302,-0.899c1.55,-0.599 2.899,-1.448 3.948,-2.497c1.099,-1.049 1.898,-2.298 2.447,-3.748c0.55,-1.451 0.85,-2.901 0.85,-4.551c0,-1.501 -0.2,-2.801 -0.7,-3.851l0,0Z" style="fill:#5c5c5c;fill-rule:nonzero;"/><path d="M12462.8,4276.25c0.85,-0.199 1.25,-0.699 1.25,-1.548l0,-2.946l-3.75,0l-6.794,0l-3.752,0l0,2.946c0,0.849 0.401,1.349 1.251,1.548c0.05,0 0.15,0.05 0.3,0.05c0.15,0.05 0.4,0.1 0.75,0.15c0.35,0.05 0.851,0.15 1.451,0.25l0,10.606l-16.956,0l0,-10.606c0.6,-0.1 1.15,-0.2 1.5,-0.25c0.35,-0.05 0.6,-0.15 0.75,-0.15c0.15,-0.05 0.251,-0.05 0.301,-0.05c0.85,-0.199 1.25,-0.699 1.25,-1.548l0,-2.946l-3.801,0l-6.744,0l-3.8,0l0,2.946c0,0.849 0.4,1.348 1.25,1.548c0.05,0 0.15,0 0.3,0.05c0.15,0 0.4,0.1 0.75,0.15c0.35,0.05 0.9,0.15 1.5,0.25l0,26.256c-0.6,0.1 -1.15,0.2 -1.5,0.25c-0.35,0.05 -0.6,0.15 -0.75,0.15c-0.15,0 -0.25,0.05 -0.3,0.05c-0.85,0.2 -1.25,0.699 -1.25,1.548l0,2.946l14.345,0l0,-2.946c0,-0.849 -0.4,-1.348 -1.25,-1.548c-0.05,0 -0.151,0 -0.301,-0.05c-0.15,0 -0.4,-0.1 -0.75,-0.15c-0.35,-0.05 -0.9,-0.15 -1.5,-0.25l0,-10.856l16.956,0l0,10.856c-0.6,0.1 -1.101,0.2 -1.451,0.25c-0.35,0.05 -0.6,0.1 -0.75,0.15c-0.15,0.05 -0.25,0.05 -0.3,0.05c-0.85,0.2 -1.251,0.699 -1.251,1.548l0,2.946l14.296,0l0,-2.946c0,-0.849 -0.4,-1.348 -1.25,-1.548c-0.05,0 -0.15,-0.05 -0.3,-0.05c-0.15,0 -0.4,-0.1 -0.75,-0.15c-0.35,-0.05 -0.85,-0.15 -1.45,-0.25l0,-26.256c0.6,-0.1 1.1,-0.2 1.45,-0.25c0.35,-0.05 0.6,-0.15 0.75,-0.15c0.15,0 0.25,-0.05 0.3,-0.05Z" style="fill:#5c5c5c;fill-rule:nonzero;"/><path d="M12499.6,4271.76l-6.694,0l-4.002,0l0,2.946c0,0.849 0.401,1.348 1.251,1.548c0.05,0 0.2,0.05 0.35,0.05c0.15,0 0.45,0.1 0.85,0.15c0.4,0.05 0.951,0.15 1.551,0.25l0,16.704c0,1.4 -0.25,2.651 -0.6,3.751c-0.4,1.1 -0.901,2.05 -1.601,2.851c-0.7,0.8 -1.601,1.35 -2.601,1.8c-1,0.45 -2.201,0.65 -3.501,0.65c-1.301,0 -2.501,-0.2 -3.502,-0.65c-1,-0.45 -1.85,-1 -2.551,-1.8c-0.7,-0.801 -1.3,-1.801 -1.65,-2.901c-0.4,-1.1 -0.55,-2.351 -0.55,-3.751l0,-16.654c0.6,-0.1 1.15,-0.2 1.55,-0.25c0.4,-0.05 0.7,-0.15 0.851,-0.15c0.15,0 0.3,-0.05 0.35,-0.05c0.85,-0.2 1.25,-0.699 1.25,-1.548l0,-2.946l-4.001,0l-6.694,0l-3.8,0l0,2.946c0,0.849 0.4,1.348 1.25,1.548c0.05,0 0.15,0.05 0.3,0.05c0.15,0 0.4,0.1 0.75,0.15c0.35,0.05 0.9,0.15 1.5,0.25l0,16.704c0,2.15 0.3,4.151 0.999,5.951c0.699,1.801 1.698,3.401 2.997,4.749c1.299,1.299 2.848,2.348 4.698,3.097c1.851,0.749 3.952,1.099 6.253,1.099c2.301,0 4.401,-0.35 6.252,-1.099c1.851,-0.749 3.45,-1.798 4.748,-3.097c1.299,-1.348 2.248,-2.948 2.948,-4.749c0.699,-1.8 1.049,-3.801 1.049,-5.951l0,-16.704c0.6,-0.1 1.15,-0.2 1.5,-0.25c0.35,-0.05 0.6,-0.15 0.75,-0.15c0.15,0 0.25,-0.05 0.3,-0.05c0.85,-0.199 1.25,-0.699 1.25,-1.548l0,-2.946l-3.8,0Z" style="fill:#5c5c5c;fill-rule:nonzero;"/><path d="M12534.2,4271.76l-28.446,0l-0.05,0l-0.749,0l0,8.544l2.895,0c0.649,0 0.999,-0.35 1.149,-0.949c0.05,-0.301 0.15,-1.001 0.25,-2.101l7.356,0l0,25.706c-0.601,0.1 -1.101,0.2 -1.451,0.25c-0.351,0.05 -0.601,0.15 -0.751,0.15c-0.15,0 -0.25,0.05 -0.3,0.05c-0.851,0.2 -1.251,0.699 -1.251,1.548l0,2.946l14.3,0l0,-2.946c0,-0.849 -0.451,-1.348 -1.301,-1.548c-0.05,0 -0.15,-0.05 -0.301,-0.05c-0.15,0 -0.4,-0.1 -0.75,-0.15c-0.35,-0.05 -0.851,-0.15 -1.451,-0.25l0,-25.654l7.356,0c0.1,1.099 0.2,1.749 0.25,2.049c0.15,0.599 0.549,0.949 1.198,0.949l2.846,0l0,-8.544l-0.799,0Z" style="fill:#5c5c5c;fill-rule:nonzero;"/><path d="M12434.3,4321.76l-6.694,0l-4.002,0l0,2.946c0,0.849 0.401,1.348 1.251,1.548c0.05,0 0.2,0.05 0.35,0.05c0.15,0 0.45,0.1 0.85,0.15c0.4,0.05 0.951,0.15 1.551,0.25l0,16.704c0,1.4 -0.25,2.651 -0.6,3.751c-0.4,1.1 -0.901,2.05 -1.601,2.851c-0.7,0.8 -1.601,1.35 -2.601,1.8c-1,0.45 -2.201,0.65 -3.501,0.65c-1.301,0 -2.501,-0.2 -3.502,-0.65c-1,-0.45 -1.85,-1 -2.551,-1.8c-0.7,-0.801 -1.3,-1.801 -1.65,-2.901c-0.4,-1.1 -0.55,-2.351 -0.55,-3.751l0,-16.654c0.6,-0.1 1.15,-0.2 1.55,-0.25c0.4,-0.05 0.7,-0.15 0.851,-0.15c0.15,0 0.3,-0.05 0.35,-0.05c0.85,-0.2 1.25,-0.699 1.25,-1.548l0,-2.946l-4.001,0l-6.694,0l-3.8,0l0,2.946c0,0.849 0.4,1.348 1.25,1.548c0.05,0 0.15,0.05 0.3,0.05c0.15,0 0.4,0.1 0.75,0.15c0.35,0.05 0.9,0.15 1.5,0.25l0,16.704c0,2.15 0.3,4.151 0.999,5.951c0.699,1.801 1.698,3.401 2.997,4.749c1.299,1.299 2.848,2.348 4.698,3.097c1.851,0.749 3.952,1.099 6.253,1.099c2.301,0 4.401,-0.35 6.252,-1.099c1.851,-0.749 3.45,-1.798 4.748,-3.097c1.299,-1.348 2.248,-2.948 2.948,-4.749c0.699,-1.8 1.049,-3.801 1.049,-5.951l0,-16.704c0.6,-0.1 1.15,-0.2 1.5,-0.25c0.35,-0.05 0.6,-0.15 0.75,-0.15c0.15,0 0.25,-0.05 0.3,-0.05c0.85,-0.199 1.25,-0.699 1.25,-1.548l0,-2.946l-3.8,0Z" style="fill:#5c5c5c;fill-rule:nonzero;"/><path d="M12468,4328.61c-0.549,-1.401 -1.398,-2.6 -2.547,-3.599c-1.149,-0.999 -2.598,-1.848 -4.348,-2.397c-1.751,-0.549 -3.902,-0.849 -6.303,-0.849l-11.146,0l-3.8,0l0,2.946c0,0.849 0.4,1.348 1.25,1.548c0.05,0 0.15,0 0.3,0.05c0.15,0 0.4,0.1 0.75,0.15c0.35,0.05 0.9,0.15 1.5,0.25l0,26.256c-0.6,0.1 -1.15,0.2 -1.5,0.25c-0.35,0.05 -0.6,0.1 -0.75,0.15c-0.15,0 -0.25,0.05 -0.3,0.05c-0.85,0.2 -1.25,0.699 -1.25,1.548l0,2.946l14.296,0l0,-2.946c0,-0.849 -0.401,-1.348 -1.251,-1.548c-0.05,0 -0.15,-0.05 -0.3,-0.05c-0.15,0 -0.4,-0.1 -0.751,-0.15c-0.35,-0.05 -0.9,-0.15 -1.5,-0.25l0,-7.806l4.452,0c2.351,0 4.402,-0.25 6.153,-0.849c1.75,-0.599 3.249,-1.398 4.398,-2.447c1.149,-1.049 1.998,-2.298 2.597,-3.749c0.6,-1.45 0.9,-3.101 0.9,-4.852c0,-1.701 -0.3,-3.252 -0.85,-4.652Zm-6.344,7.453c-0.301,0.851 -0.751,1.551 -1.351,2.101c-0.6,0.601 -1.351,1.001 -2.251,1.301c-0.901,0.3 -2.001,0.45 -3.252,0.45l-4.452,0l0,-12.956l4.452,0c1.251,0 2.351,0.15 3.252,0.45c0.9,0.3 1.651,0.7 2.251,1.251c0.6,0.55 1.05,1.2 1.351,2.001c0.3,0.8 0.45,1.65 0.45,2.601c0,1 -0.15,2.001 -0.45,2.801Z" style="fill:#5c5c5c;fill-rule:nonzero;"/><path d="M12477.2,4321.75l-5.844,0l0,14.303c0,1.5 0.1,3.001 0.25,4.451c0.149,1.45 0.349,3.001 0.599,4.651l4.145,0c0.25,-1.65 0.45,-3.201 0.6,-4.651c0.15,-1.45 0.25,-2.951 0.25,-4.451l0,-14.303Zm-6.744,32.753c0,0.55 0.05,1.049 0.25,1.499c0.199,0.449 0.449,0.799 0.799,1.149c0.35,0.35 0.799,0.599 1.249,0.799c0.45,0.2 0.949,0.3 1.499,0.3c0.499,0 0.999,-0.1 1.449,-0.3c0.449,-0.2 0.849,-0.449 1.199,-0.799c0.349,-0.35 0.599,-0.7 0.799,-1.149c0.2,-0.45 0.3,-0.949 0.3,-1.499c0,-0.5 -0.1,-1.049 -0.3,-1.499c-0.2,-0.449 -0.45,-0.849 -0.799,-1.199c-0.35,-0.349 -0.75,-0.599 -1.199,-0.799c-0.45,-0.2 -0.95,-0.3 -1.449,-0.3c-0.55,0 -1.049,0.1 -1.499,0.3c-0.45,0.2 -0.899,0.45 -1.249,0.799c-0.35,0.35 -0.6,0.75 -0.799,1.199c-0.2,0.45 -0.25,0.999 -0.25,1.499Z" style="fill:#5c5c5c;fill-rule:nonzero;"/></g><g><path d="M55.175,83.189c0,0 -5.107,-1.667 -7.615,0.385c-2.507,2.052 -1.28,4.573 1.084,3.842c2.364,-0.73 4.649,-1.212 6.347,-0.183c1.699,1.029 3.416,-3.023 0.184,-4.044Z" style="fill:#d6c295;stroke:#000;stroke-width:1.08px;"/><path d="M37.776,46.816c0,0 -2.516,-2.62 -3.459,3.774" style="fill:none;stroke:#61e0ee;stroke-width:1.08px;"/><path d="M35.635,44.192c0,0 -3.178,-1.76 -2.189,4.627" style="fill:none;stroke:#61e0ee;stroke-width:1.08px;"/><path d="M29.076,46.187c0,0 2.411,-2.515 3.249,4.088" style="fill:none;stroke:#61e0ee;stroke-width:1.08px;"/><path d="M46.842,108.279c0,0 -0.293,-5.364 -3.113,-6.96c-2.821,-1.595 -4.727,0.461 -3.191,2.401c1.536,1.939 2.812,3.895 2.468,5.851c-0.345,1.956 4.054,2.091 3.836,-1.292Z" style="fill:#d6c295;stroke:#000;stroke-width:1.08px;"/><path d="M20.064,110.46c0,0 -2.84,-4.561 -1.446,-7.486c1.393,-2.925 4.134,-2.335 3.99,0.134c-0.144,2.47 -0.066,4.804 1.339,6.207c1.405,1.404 -2.119,4.04 -3.883,1.145Z" style="fill:#d6c295;stroke:#000;stroke-width:1.08px;"/><path d="M15.78,62.966c-0.099,-0.593 -1.312,-1.499 -1.816,-1.704c-6.133,-2.498 -3.983,4.535 -0.413,4.256" style="fill:#61e0ee;"/><path d="M11.765,60.003l0.056,0.001l0.055,0.001l0.057,0.003l0.057,0.003l0.057,0.004l0.057,0.005l0.058,0.006l0.059,0.006l0.059,0.008l0.06,0.007l0.06,0.009l0.06,0.01l0.062,0.01l0.061,0.011l0.062,0.012l0.063,0.013l0.063,0.013l0.064,0.014l0.065,0.015l0.065,0.016l0.065,0.017l0.066,0.017l0.067,0.018l0.067,0.019l0.068,0.02l0.068,0.02l0.069,0.022l0.07,0.022l0.07,0.023l0.071,0.024l0.072,0.025l0.072,0.025l0.073,0.027l0.073,0.027l0.074,0.028l0.075,0.029l0.075,0.03l0.079,0.031l0.035,0.015l0.037,0.017l0.038,0.017l0.037,0.018l0.037,0.019l0.037,0.019l0.037,0.02l0.038,0.021l0.037,0.021l0.038,0.022l0.039,0.023l0.038,0.023l0.039,0.024l0.039,0.025l0.04,0.025l0.04,0.026l0.04,0.027l0.04,0.027l0.04,0.028l0.04,0.029l0.041,0.029l0.041,0.029l0.041,0.03l0.041,0.031l0.041,0.031l0.041,0.032l0.041,0.032l0.041,0.033l0.04,0.033l0.041,0.034l0.041,0.034l0.04,0.034l0.04,0.035l0.04,0.035l0.04,0.036l0.039,0.036l0.039,0.037l0.039,0.037l0.038,0.037l0.038,0.038l0.037,0.038l0.037,0.039l0.036,0.039l0.036,0.04l0.036,0.04l0.034,0.04l0.034,0.041l0.033,0.04l0.017,0.022l0.016,0.022l0.017,0.021l0.015,0.022l0.016,0.021l0.016,0.022l0.015,0.022l0.015,0.023l0.015,0.022l0.015,0.023l0.014,0.023l0.015,0.023l0.014,0.024l0.013,0.023l0.014,0.025l0.013,0.024l0.013,0.025l0.013,0.025l0.012,0.026l0.012,0.026l0.012,0.026l0.011,0.027l0.011,0.028l0.011,0.028l0.01,0.028l0.01,0.029l0.009,0.03l0.009,0.03l0.008,0.031l0.007,0.032l0.007,0.032l0.004,0.024l0.006,0.04l0.004,0.04l0.001,0.04l0,0.041l-0.003,0.04l-0.006,0.04l-0.007,0.04l-0.01,0.039l-0.012,0.039l-0.014,0.038l-0.016,0.037l-0.018,0.036l-0.021,0.035l-0.022,0.034l-0.024,0.033l-0.026,0.031l-0.027,0.029l-0.029,0.029l-0.031,0.026l-0.032,0.025l-0.033,0.022l-0.035,0.021l-0.036,0.019l-0.037,0.017l-0.037,0.015l-0.039,0.012l-0.039,0.011l-0.039,0.008l-0.04,0.006l-0.041,0.004l-0.04,0.002l-0.041,-0.001l-0.04,-0.003l-0.04,-0.006l-0.04,-0.007l-0.039,-0.01l-0.039,-0.012l-0.038,-0.014l-0.037,-0.016l-0.036,-0.018l-0.035,-0.02l-0.034,-0.023l-0.032,-0.024l-0.032,-0.025l-0.029,-0.028l-0.028,-0.029l-0.027,-0.031l-0.024,-0.032l-0.023,-0.033l-0.021,-0.035l-0.019,-0.036l-0.017,-0.036l-0.015,-0.038l-0.012,-0.039l-0.011,-0.039l-0.007,-0.034l-0.001,-0.002l-0.001,-0.003l-0.002,-0.004l-0.002,-0.004l-0.002,-0.005l-0.002,-0.005l-0.003,-0.006l-0.004,-0.006l-0.004,-0.007l-0.004,-0.007l-0.004,-0.008l-0.005,-0.008l-0.006,-0.008l-0.005,-0.009l-0.006,-0.009l-0.006,-0.009l-0.007,-0.01l-0.007,-0.01l-0.008,-0.01l-0.008,-0.011l-0.008,-0.01l-0.008,-0.011l-0.008,-0.01l-0.019,-0.024l-0.02,-0.024l-0.02,-0.024l-0.022,-0.025l-0.023,-0.025l-0.024,-0.025l-0.024,-0.026l-0.026,-0.026l-0.026,-0.027l-0.027,-0.026l-0.028,-0.027l-0.029,-0.026l-0.029,-0.027l-0.029,-0.027l-0.03,-0.027l-0.031,-0.026l-0.031,-0.027l-0.031,-0.026l-0.032,-0.026l-0.031,-0.026l-0.032,-0.025l-0.032,-0.025l-0.032,-0.025l-0.033,-0.025l-0.032,-0.024l-0.032,-0.023l-0.032,-0.023l-0.031,-0.023l-0.031,-0.022l-0.031,-0.021l-0.031,-0.021l-0.03,-0.02l-0.03,-0.02l-0.029,-0.018l-0.029,-0.018l-0.028,-0.018l-0.027,-0.016l-0.026,-0.015l-0.025,-0.015l-0.024,-0.014l-0.023,-0.012l-0.022,-0.012l-0.02,-0.011l-0.019,-0.009l-0.017,-0.008l-0.015,-0.007l-0.013,-0.006l-0.012,-0.005l-0.065,-0.026l-0.066,-0.027l-0.065,-0.025l-0.065,-0.024l-0.063,-0.024l-0.063,-0.023l-0.062,-0.021l-0.061,-0.022l-0.06,-0.02l-0.059,-0.019l-0.059,-0.019l-0.057,-0.018l-0.057,-0.017l-0.056,-0.016l-0.055,-0.016l-0.054,-0.014l-0.053,-0.014l-0.053,-0.014l-0.051,-0.012l-0.051,-0.012l-0.05,-0.011l-0.049,-0.011l-0.048,-0.009l-0.047,-0.009l-0.047,-0.009l-0.045,-0.007l-0.045,-0.007l-0.044,-0.007l-0.043,-0.005l-0.042,-0.005l-0.041,-0.005l-0.04,-0.004l-0.04,-0.003l-0.038,-0.003l-0.038,-0.002l-0.036,-0.002l-0.036,-0.001l-0.035,-0.001l-0.034,0l-0.034,0.001l-0.032,0.001l-0.032,0.001l-0.03,0.002l-0.03,0.002l-0.029,0.002l-0.028,0.003l-0.027,0.004l-0.027,0.003l-0.025,0.004l-0.025,0.005l-0.024,0.004l-0.023,0.005l-0.022,0.005l-0.021,0.006l-0.021,0.005l-0.02,0.006l-0.019,0.006l-0.018,0.006l-0.018,0.007l-0.017,0.006l-0.016,0.007l-0.016,0.007l-0.015,0.007l-0.014,0.007l-0.014,0.007l-0.013,0.007l-0.013,0.007l-0.012,0.008l-0.011,0.007l-0.012,0.008l-0.01,0.007l-0.01,0.008l-0.01,0.007l-0.01,0.008l-0.009,0.008l-0.009,0.008l-0.008,0.008l-0.009,0.008l-0.007,0.008l-0.008,0.009l-0.008,0.008l-0.007,0.009l-0.007,0.009l-0.007,0.009l-0.007,0.009l-0.006,0.01l-0.007,0.01l-0.006,0.01l-0.006,0.01l-0.006,0.011l-0.006,0.01l-0.005,0.012l-0.006,0.011l-0.005,0.012l-0.005,0.012l-0.006,0.013l-0.005,0.013l-0.004,0.013l-0.005,0.014l-0.004,0.015l-0.004,0.014l-0.004,0.015l-0.004,0.015l-0.004,0.016l-0.003,0.016l-0.003,0.017l-0.003,0.017l-0.003,0.017l-0.002,0.018l-0.002,0.018l-0.002,0.018l-0.002,0.019l-0.001,0.019l-0.001,0.02l-0.001,0.02l0,0.02l0,0.021l0,0.021l0,0.021l0.001,0.022l0.001,0.022l0.002,0.022l0.002,0.023l0.002,0.023l0.002,0.023l0.003,0.023l0.003,0.024l0.004,0.024l0.004,0.024l0.004,0.025l0.005,0.024l0.005,0.025l0.005,0.025l0.005,0.025l0.006,0.026l0.007,0.025l0.007,0.026l0.007,0.026l0.007,0.026l0.008,0.026l0.008,0.026l0.008,0.027l0.009,0.027l0.009,0.026l0.01,0.027l0.01,0.027l0.01,0.027l0.011,0.027l0.011,0.027l0.011,0.027l0.011,0.027l0.012,0.027l0.013,0.027l0.012,0.028l0.013,0.027l0.013,0.027l0.014,0.027l0.014,0.028l0.014,0.027l0.015,0.027l0.015,0.027l0.015,0.027l0.015,0.027l0.016,0.027l0.016,0.027l0.017,0.027l0.016,0.026l0.017,0.027l0.018,0.026l0.017,0.027l0.018,0.026l0.018,0.026l0.019,0.026l0.019,0.026l0.019,0.026l0.019,0.026l0.019,0.025l0.02,0.025l0.02,0.025l0.021,0.025l0.02,0.025l0.021,0.024l0.021,0.025l0.021,0.024l0.022,0.024l0.022,0.024l0.021,0.023l0.023,0.023l0.022,0.023l0.023,0.023l0.023,0.022l0.023,0.023l0.023,0.022l0.023,0.021l0.024,0.022l0.024,0.021l0.024,0.021l0.024,0.021l0.024,0.02l0.025,0.02l0.025,0.02l0.025,0.019l0.025,0.019l0.025,0.019l0.025,0.019l0.026,0.018l0.025,0.018l0.026,0.017l0.026,0.017l0.026,0.017l0.026,0.016l0.027,0.017l0.026,0.015l0.027,0.016l0.026,0.015l0.027,0.014l0.027,0.015l0.027,0.014l0.027,0.013l0.027,0.013l0.028,0.013l0.027,0.012l0.028,0.012l0.027,0.012l0.028,0.011l0.028,0.011l0.028,0.011l0.027,0.01l0.029,0.009l0.028,0.01l0.028,0.008l0.028,0.009l0.028,0.008l0.029,0.007l0.028,0.008l0.029,0.006l0.028,0.007l0.029,0.006l0.029,0.005l0.029,0.005l0.029,0.005l0.028,0.004l0.03,0.004l0.029,0.004l0.029,0.002l0.03,0.003l0.029,0.002l0.03,0.002l0.029,0.001l0.03,0l0.03,0.001l0.03,-0.001l0.03,0l0.03,-0.001l0.031,-0.002l0.036,-0.003l0.04,-0.001l0.041,0l0.04,0.003l0.04,0.005l0.04,0.008l0.039,0.009l0.039,0.012l0.038,0.014l0.037,0.016l0.036,0.018l0.036,0.02l0.034,0.022l0.032,0.024l0.031,0.025l0.03,0.028l0.028,0.029l0.027,0.03l0.025,0.032l0.023,0.034l0.021,0.034l0.019,0.036l0.017,0.037l0.015,0.037l0.013,0.039l0.01,0.039l0.009,0.039l0.006,0.04l0.004,0.04l0.002,0.041l-0.001,0.04l-0.003,0.041l-0.005,0.04l-0.007,0.04l-0.01,0.039l-0.011,0.039l-0.014,0.038l-0.016,0.037l-0.018,0.036l-0.021,0.035l-0.022,0.034l-0.023,0.033l-0.026,0.031l-0.027,0.03l-0.029,0.028l-0.031,0.027l-0.032,0.024l-0.033,0.023l-0.035,0.021l-0.036,0.02l-0.036,0.017l-0.038,0.015l-0.038,0.012l-0.039,0.011l-0.04,0.008l-0.04,0.007l-0.04,0.004l-0.047,0.003l-0.053,0.003l-0.053,0.002l-0.053,0.001l-0.052,0l-0.053,0l-0.052,-0.001l-0.052,-0.002l-0.051,-0.003l-0.052,-0.004l-0.051,-0.004l-0.051,-0.005l-0.051,-0.006l-0.051,-0.007l-0.05,-0.007l-0.05,-0.008l-0.05,-0.009l-0.05,-0.009l-0.049,-0.011l-0.049,-0.011l-0.049,-0.011l-0.048,-0.012l-0.048,-0.013l-0.048,-0.014l-0.048,-0.014l-0.047,-0.015l-0.047,-0.015l-0.047,-0.017l-0.046,-0.016l-0.046,-0.018l-0.046,-0.017l-0.045,-0.019l-0.045,-0.019l-0.045,-0.019l-0.045,-0.02l-0.044,-0.021l-0.043,-0.021l-0.044,-0.022l-0.043,-0.022l-0.042,-0.023l-0.043,-0.023l-0.042,-0.023l-0.041,-0.025l-0.042,-0.024l-0.04,-0.025l-0.041,-0.026l-0.04,-0.026l-0.04,-0.026l-0.04,-0.027l-0.039,-0.027l-0.039,-0.027l-0.038,-0.028l-0.038,-0.029l-0.038,-0.028l-0.037,-0.03l-0.037,-0.029l-0.037,-0.03l-0.036,-0.03l-0.036,-0.031l-0.035,-0.031l-0.035,-0.031l-0.035,-0.031l-0.034,-0.032l-0.035,-0.033l-0.033,-0.032l-0.033,-0.033l-0.033,-0.033l-0.033,-0.033l-0.032,-0.034l-0.032,-0.034l-0.031,-0.034l-0.031,-0.034l-0.031,-0.035l-0.03,-0.035l-0.03,-0.036l-0.029,-0.035l-0.029,-0.036l-0.029,-0.036l-0.029,-0.036l-0.028,-0.036l-0.027,-0.037l-0.027,-0.037l-0.027,-0.037l-0.026,-0.037l-0.026,-0.037l-0.026,-0.038l-0.025,-0.038l-0.025,-0.038l-0.025,-0.038l-0.024,-0.038l-0.023,-0.039l-0.023,-0.039l-0.023,-0.038l-0.023,-0.039l-0.022,-0.039l-0.021,-0.04l-0.021,-0.039l-0.021,-0.04l-0.02,-0.04l-0.02,-0.039l-0.02,-0.04l-0.019,-0.04l-0.018,-0.041l-0.019,-0.04l-0.017,-0.04l-0.018,-0.041l-0.017,-0.041l-0.016,-0.04l-0.016,-0.041l-0.015,-0.041l-0.016,-0.041l-0.014,-0.041l-0.014,-0.041l-0.014,-0.041l-0.013,-0.042l-0.013,-0.041l-0.013,-0.042l-0.011,-0.041l-0.012,-0.042l-0.01,-0.041l-0.011,-0.042l-0.01,-0.042l-0.009,-0.042l-0.009,-0.042l-0.008,-0.042l-0.008,-0.042l-0.007,-0.042l-0.007,-0.042l-0.006,-0.042l-0.006,-0.042l-0.005,-0.042l-0.005,-0.043l-0.004,-0.042l-0.003,-0.042l-0.003,-0.042l-0.002,-0.043l-0.002,-0.042l-0.001,-0.042l0,-0.043l0,-0.042l0.001,-0.042l0.002,-0.043l0.002,-0.042l0.003,-0.042l0.003,-0.043l0.005,-0.042l0.005,-0.042l0.005,-0.042l0.007,-0.042l0.007,-0.042l0.008,-0.042l0.008,-0.042l0.01,-0.042l0.01,-0.042l0.011,-0.042l0.012,-0.041l0.013,-0.041l0.014,-0.041l0.014,-0.041l0.015,-0.041l0.017,-0.04l0.017,-0.041l0.018,-0.04l0.019,-0.04l0.02,-0.039l0.02,-0.039l0.022,-0.039l0.023,-0.038l0.023,-0.038l0.025,-0.038l0.025,-0.037l0.027,-0.037l0.027,-0.036l0.028,-0.035l0.029,-0.035l0.03,-0.035l0.031,-0.033l0.032,-0.033l0.033,-0.033l0.033,-0.031l0.035,-0.031l0.035,-0.031l0.036,-0.029l0.037,-0.029l0.038,-0.028l0.038,-0.027l0.039,-0.026l0.04,-0.025l0.04,-0.024l0.041,-0.024l0.042,-0.023l0.043,-0.022l0.042,-0.021l0.044,-0.02l0.044,-0.019l0.045,-0.018l0.045,-0.018l0.046,-0.016l0.046,-0.016l0.047,-0.015l0.047,-0.014l0.048,-0.013l0.048,-0.012l0.049,-0.011l0.049,-0.011l0.049,-0.009l0.05,-0.009l0.051,-0.008l0.051,-0.007l0.051,-0.006l0.052,-0.006l0.052,-0.004l0.053,-0.004l0.053,-0.003l0.053,-0.002l0.054,-0.002l0.055,0l0.054,0Z"/><path d="M49.008,58.346c0.562,0.211 1.169,-0.144 1.599,-0.478c5.23,-4.062 -1.918,-5.69 -3.462,-2.458" style="fill:#61e0ee;"/><path d="M50.269,52.974l0.045,0.001l0.045,0.001l0.044,0.002l0.045,0.002l0.044,0.003l0.044,0.003l0.045,0.003l0.044,0.004l0.044,0.004l0.043,0.005l0.044,0.005l0.043,0.005l0.044,0.006l0.043,0.006l0.043,0.007l0.043,0.008l0.043,0.007l0.043,0.008l0.042,0.009l0.043,0.009l0.042,0.009l0.042,0.01l0.041,0.011l0.042,0.01l0.041,0.012l0.042,0.011l0.041,0.013l0.041,0.012l0.04,0.013l0.041,0.014l0.04,0.014l0.04,0.014l0.04,0.016l0.039,0.015l0.039,0.016l0.039,0.017l0.039,0.017l0.039,0.017l0.038,0.018l0.038,0.019l0.038,0.019l0.037,0.019l0.037,0.02l0.037,0.021l0.036,0.021l0.037,0.022l0.035,0.022l0.036,0.023l0.035,0.024l0.035,0.024l0.034,0.025l0.034,0.025l0.034,0.026l0.033,0.026l0.033,0.027l0.033,0.028l0.031,0.029l0.032,0.029l0.031,0.029l0.03,0.03l0.03,0.031l0.03,0.032l0.028,0.032l0.028,0.033l0.028,0.034l0.027,0.034l0.026,0.035l0.026,0.036l0.025,0.036l0.024,0.037l0.024,0.037l0.022,0.038l0.022,0.039l0.021,0.039l0.02,0.04l0.02,0.041l0.018,0.041l0.018,0.042l0.016,0.042l0.016,0.042l0.014,0.044l0.014,0.043l0.013,0.044l0.011,0.045l0.011,0.045l0.009,0.045l0.009,0.045l0.007,0.046l0.006,0.047l0.005,0.046l0.005,0.046l0.003,0.047l0.002,0.047l0,0.048l0,0.047l-0.001,0.047l-0.003,0.048l-0.003,0.047l-0.004,0.048l-0.006,0.048l-0.007,0.048l-0.007,0.047l-0.009,0.048l-0.01,0.048l-0.01,0.048l-0.012,0.047l-0.013,0.048l-0.013,0.048l-0.015,0.047l-0.016,0.048l-0.016,0.048l-0.018,0.047l-0.018,0.048l-0.019,0.047l-0.021,0.048l-0.021,0.047l-0.022,0.047l-0.023,0.048l-0.024,0.047l-0.025,0.047l-0.026,0.048l-0.027,0.047l-0.027,0.047l-0.029,0.048l-0.029,0.047l-0.031,0.047l-0.031,0.048l-0.032,0.047l-0.033,0.047l-0.034,0.048l-0.035,0.047l-0.036,0.048l-0.037,0.047l-0.037,0.048l-0.039,0.047l-0.039,0.048l-0.041,0.048l-0.041,0.048l-0.042,0.048l-0.044,0.048l-0.044,0.048l-0.045,0.048l-0.046,0.048l-0.047,0.048l-0.048,0.049l-0.05,0.049l-0.05,0.048l-0.051,0.049l-0.052,0.049l-0.053,0.049l-0.054,0.049l-0.055,0.049l-0.056,0.05l-0.057,0.049l-0.058,0.05l-0.06,0.05l-0.06,0.05l-0.061,0.05l-0.063,0.05l-0.063,0.05l-0.065,0.051l-0.047,0.036l-0.048,0.037l-0.049,0.035l-0.027,0.019l-0.026,0.019l-0.026,0.018l-0.027,0.019l-0.028,0.018l-0.027,0.018l-0.028,0.018l-0.028,0.018l-0.029,0.018l-0.029,0.018l-0.029,0.018l-0.03,0.017l-0.03,0.018l-0.031,0.017l-0.031,0.017l-0.031,0.017l-0.032,0.017l-0.032,0.016l-0.032,0.016l-0.033,0.016l-0.034,0.016l-0.034,0.015l-0.034,0.015l-0.035,0.014l-0.035,0.014l-0.035,0.014l-0.036,0.013l-0.037,0.013l-0.037,0.013l-0.037,0.011l-0.038,0.012l-0.039,0.011l-0.038,0.01l-0.04,0.009l-0.039,0.009l-0.041,0.008l-0.041,0.007l-0.041,0.007l-0.041,0.006l-0.043,0.005l-0.042,0.004l-0.043,0.003l-0.044,0.002l-0.043,0.001l-0.045,0.001l-0.044,-0.001l-0.045,-0.003l-0.045,-0.003l-0.046,-0.004l-0.043,-0.006l-0.025,-0.003l-0.023,-0.004l-0.023,-0.004l-0.023,-0.004l-0.023,-0.005l-0.023,-0.005l-0.023,-0.005l-0.023,-0.006l-0.023,-0.006l-0.023,-0.006l-0.023,-0.007l-0.023,-0.006l-0.023,-0.008l-0.023,-0.007l-0.023,-0.008l-0.018,-0.007l-0.036,-0.015l-0.036,-0.016l-0.034,-0.018l-0.034,-0.02l-0.032,-0.022l-0.031,-0.024l-0.03,-0.025l-0.028,-0.027l-0.027,-0.028l-0.026,-0.03l-0.023,-0.031l-0.022,-0.033l-0.02,-0.033l-0.019,-0.035l-0.016,-0.035l-0.014,-0.036l-0.013,-0.037l-0.01,-0.038l-0.009,-0.038l-0.006,-0.039l-0.004,-0.039l-0.002,-0.039l-0.001,-0.039l0.003,-0.039l0.004,-0.038l0.006,-0.039l0.009,-0.038l0.01,-0.038l0.012,-0.037l0.015,-0.036l0.016,-0.036l0.019,-0.034l0.02,-0.034l0.022,-0.032l0.023,-0.031l0.026,-0.03l0.026,-0.028l0.029,-0.027l0.03,-0.025l0.031,-0.024l0.032,-0.022l0.033,-0.02l0.035,-0.018l0.035,-0.017l0.037,-0.014l0.037,-0.013l0.037,-0.01l0.038,-0.009l0.039,-0.006l0.039,-0.004l0.039,-0.002l0.039,0l0.039,0.002l0.039,0.004l0.038,0.006l0.039,0.009l0.037,0.01l0.037,0.013l0.008,0.003l0.004,0.001l0.003,0.001l0.004,0.001l0.004,0.001l0.003,0.001l0.004,0.001l0.003,0.001l0.004,0.001l0.003,0.001l0.004,0.001l0.004,0l0.004,0.001l0.003,0.001l0.004,0l0.002,0l0.01,0.002l0.008,0.001l0.008,0l0.009,0.001l0.009,0l0.009,0l0.01,-0.001l0.01,0l0.011,-0.001l0.011,-0.001l0.011,-0.001l0.011,-0.002l0.013,-0.002l0.012,-0.002l0.013,-0.003l0.013,-0.002l0.014,-0.004l0.013,-0.003l0.015,-0.004l0.014,-0.005l0.015,-0.004l0.015,-0.005l0.016,-0.006l0.016,-0.006l0.016,-0.006l0.016,-0.006l0.016,-0.007l0.017,-0.008l0.017,-0.007l0.017,-0.008l0.017,-0.008l0.018,-0.009l0.017,-0.009l0.018,-0.009l0.017,-0.01l0.018,-0.01l0.018,-0.01l0.018,-0.01l0.018,-0.011l0.018,-0.011l0.018,-0.011l0.018,-0.011l0.018,-0.012l0.019,-0.012l0.018,-0.012l0.018,-0.012l0.018,-0.012l0.018,-0.012l0.018,-0.013l0.016,-0.012l0.037,-0.027l0.035,-0.026l0.035,-0.027l0.056,-0.044l0.056,-0.044l0.054,-0.044l0.054,-0.044l0.052,-0.043l0.051,-0.043l0.05,-0.042l0.049,-0.043l0.047,-0.042l0.047,-0.041l0.045,-0.042l0.045,-0.041l0.043,-0.04l0.042,-0.04l0.041,-0.04l0.04,-0.04l0.039,-0.039l0.038,-0.039l0.036,-0.038l0.036,-0.038l0.034,-0.038l0.034,-0.037l0.033,-0.037l0.031,-0.036l0.031,-0.036l0.029,-0.036l0.028,-0.035l0.028,-0.035l0.026,-0.034l0.026,-0.034l0.024,-0.033l0.024,-0.033l0.023,-0.032l0.021,-0.032l0.021,-0.032l0.02,-0.031l0.019,-0.03l0.018,-0.03l0.017,-0.03l0.017,-0.029l0.015,-0.028l0.015,-0.028l0.014,-0.027l0.013,-0.027l0.012,-0.027l0.012,-0.025l0.01,-0.025l0.01,-0.025l0.01,-0.024l0.009,-0.024l0.007,-0.022l0.008,-0.023l0.006,-0.022l0.007,-0.021l0.005,-0.02l0.005,-0.021l0.004,-0.019l0.004,-0.019l0.003,-0.018l0.003,-0.018l0.003,-0.018l0.002,-0.016l0.001,-0.016l0.001,-0.016l0.001,-0.016l0.001,-0.015l0,-0.014l-0.001,-0.014l0,-0.013l-0.001,-0.014l-0.001,-0.013l-0.002,-0.012l-0.001,-0.012l-0.002,-0.012l-0.002,-0.012l-0.003,-0.011l-0.002,-0.011l-0.003,-0.011l-0.003,-0.011l-0.004,-0.011l-0.003,-0.01l-0.004,-0.011l-0.004,-0.01l-0.004,-0.01l-0.005,-0.011l-0.005,-0.01l-0.005,-0.01l-0.005,-0.01l-0.006,-0.01l-0.006,-0.011l-0.007,-0.01l-0.006,-0.01l-0.008,-0.011l-0.007,-0.01l-0.008,-0.011l-0.008,-0.01l-0.009,-0.01l-0.009,-0.011l-0.009,-0.011l-0.01,-0.01l-0.011,-0.011l-0.01,-0.011l-0.012,-0.011l-0.011,-0.01l-0.012,-0.011l-0.013,-0.011l-0.013,-0.01l-0.013,-0.011l-0.014,-0.011l-0.015,-0.011l-0.015,-0.011l-0.015,-0.01l-0.016,-0.011l-0.016,-0.01l-0.017,-0.011l-0.017,-0.01l-0.018,-0.01l-0.018,-0.01l-0.019,-0.011l-0.019,-0.01l-0.019,-0.009l-0.02,-0.01l-0.02,-0.01l-0.021,-0.009l-0.021,-0.009l-0.022,-0.009l-0.022,-0.009l-0.022,-0.009l-0.023,-0.009l-0.023,-0.008l-0.023,-0.008l-0.024,-0.008l-0.024,-0.008l-0.025,-0.008l-0.025,-0.007l-0.025,-0.007l-0.025,-0.007l-0.026,-0.007l-0.026,-0.006l-0.027,-0.007l-0.027,-0.006l-0.027,-0.005l-0.027,-0.006l-0.028,-0.005l-0.027,-0.005l-0.029,-0.005l-0.028,-0.004l-0.028,-0.005l-0.029,-0.004l-0.029,-0.003l-0.029,-0.004l-0.03,-0.003l-0.029,-0.003l-0.03,-0.002l-0.03,-0.002l-0.03,-0.002l-0.03,-0.002l-0.031,-0.001l-0.03,-0.002l-0.031,0l-0.031,-0.001l-0.031,0l-0.031,0l-0.031,0l-0.031,0.001l-0.031,0.001l-0.032,0.001l-0.031,0.002l-0.032,0.001l-0.031,0.003l-0.032,0.002l-0.032,0.003l-0.031,0.003l-0.032,0.003l-0.032,0.004l-0.031,0.004l-0.032,0.004l-0.032,0.005l-0.031,0.005l-0.032,0.005l-0.032,0.006l-0.031,0.006l-0.032,0.006l-0.031,0.006l-0.032,0.007l-0.031,0.007l-0.031,0.007l-0.031,0.008l-0.031,0.008l-0.032,0.008l-0.031,0.009l-0.03,0.009l-0.031,0.009l-0.03,0.01l-0.031,0.01l-0.03,0.01l-0.03,0.01l-0.03,0.011l-0.03,0.011l-0.029,0.011l-0.03,0.012l-0.029,0.012l-0.029,0.012l-0.029,0.013l-0.028,0.013l-0.029,0.013l-0.028,0.013l-0.028,0.014l-0.028,0.014l-0.027,0.014l-0.028,0.015l-0.027,0.014l-0.027,0.015l-0.026,0.016l-0.027,0.016l-0.026,0.016l-0.025,0.016l-0.026,0.016l-0.025,0.017l-0.025,0.017l-0.025,0.017l-0.024,0.018l-0.024,0.018l-0.024,0.018l-0.024,0.019l-0.023,0.018l-0.023,0.019l-0.023,0.019l-0.022,0.02l-0.022,0.02l-0.022,0.02l-0.021,0.02l-0.022,0.021l-0.02,0.02l-0.021,0.022l-0.02,0.021l-0.02,0.022l-0.019,0.022l-0.02,0.022l-0.018,0.022l-0.019,0.023l-0.018,0.023l-0.018,0.024l-0.018,0.023l-0.017,0.024l-0.017,0.024l-0.016,0.025l-0.016,0.025l-0.016,0.025l-0.016,0.026l-0.015,0.025l-0.015,0.027l-0.014,0.026l-0.014,0.027l-0.014,0.027l-0.016,0.033l-0.018,0.035l-0.02,0.033l-0.022,0.033l-0.023,0.031l-0.025,0.03l-0.027,0.028l-0.028,0.027l-0.03,0.026l-0.031,0.024l-0.032,0.022l-0.033,0.02l-0.035,0.019l-0.035,0.016l-0.036,0.015l-0.037,0.013l-0.038,0.011l-0.038,0.008l-0.038,0.007l-0.039,0.004l-0.039,0.003l-0.039,0l-0.039,-0.002l-0.039,-0.004l-0.039,-0.006l-0.038,-0.008l-0.038,-0.01l-0.037,-0.013l-0.036,-0.014l-0.036,-0.016l-0.034,-0.018l-0.034,-0.02l-0.033,-0.022l-0.031,-0.023l-0.03,-0.025l-0.028,-0.027l-0.027,-0.028l-0.026,-0.03l-0.024,-0.031l-0.022,-0.032l-0.02,-0.033l-0.019,-0.035l-0.016,-0.035l-0.015,-0.036l-0.013,-0.037l-0.01,-0.038l-0.009,-0.038l-0.007,-0.038l-0.004,-0.039l-0.002,-0.039l-0.001,-0.039l0.002,-0.039l0.004,-0.039l0.006,-0.039l0.008,-0.038l0.01,-0.038l0.013,-0.037l0.014,-0.036l0.016,-0.036l0.021,-0.042l0.024,-0.047l0.024,-0.047l0.026,-0.046l0.025,-0.046l0.027,-0.045l0.027,-0.044l0.028,-0.044l0.028,-0.044l0.029,-0.042l0.029,-0.043l0.03,-0.041l0.03,-0.041l0.031,-0.041l0.032,-0.04l0.032,-0.039l0.032,-0.039l0.033,-0.038l0.034,-0.038l0.034,-0.037l0.034,-0.036l0.035,-0.036l0.035,-0.035l0.036,-0.035l0.036,-0.034l0.036,-0.034l0.037,-0.033l0.037,-0.032l0.038,-0.032l0.038,-0.031l0.038,-0.031l0.038,-0.03l0.039,-0.03l0.04,-0.029l0.039,-0.028l0.04,-0.028l0.04,-0.028l0.04,-0.026l0.041,-0.027l0.041,-0.025l0.041,-0.026l0.041,-0.024l0.042,-0.024l0.042,-0.024l0.042,-0.023l0.042,-0.022l0.042,-0.022l0.043,-0.022l0.043,-0.021l0.043,-0.02l0.043,-0.02l0.043,-0.019l0.044,-0.019l0.043,-0.019l0.044,-0.018l0.044,-0.017l0.044,-0.017l0.044,-0.016l0.044,-0.016l0.045,-0.016l0.044,-0.015l0.045,-0.014l0.045,-0.014l0.044,-0.013l0.045,-0.014l0.045,-0.012l0.045,-0.012l0.045,-0.012l0.045,-0.011l0.046,-0.011l0.045,-0.01l0.045,-0.01l0.045,-0.009l0.046,-0.009l0.045,-0.008l0.045,-0.008l0.046,-0.008l0.045,-0.007l0.046,-0.006l0.045,-0.007l0.045,-0.005l0.046,-0.006l0.045,-0.004l0.046,-0.005l0.045,-0.004l0.045,-0.003l0.045,-0.003l0.046,-0.003l0.045,-0.002l0.045,-0.002l0.045,-0.001l0.045,-0.001l0.045,-0.001l0.045,0l0.044,0Z"/><path d="M48.667,101.09c0,0 2.719,-5.344 2.205,-9.928c-1.608,-14.349 2.616,-17.164 0.964,-25.917c-0.573,-3.04 -1.657,-6.501 -3.503,-9.017c-4.057,-5.53 -11.854,-8.403 -18.636,-7.104c-2.716,0.52 -5.168,1.696 -7.595,2.985c-8.443,4.485 -10.198,13.952 -9.1,21.931c0.485,3.532 3.522,9.036 3.078,12.578c-0.926,7.384 -0.667,11.38 1.638,16.143c1.965,4.059 9.611,7.117 17.97,6.248c1.424,-0.148 9.947,-1.642 12.979,-7.919Z" style="fill:#61e0ee;"/><clipPath id="_clip1"><path d="M48.667,101.09c0,0 2.719,-5.344 2.205,-9.928c-1.608,-14.349 2.616,-17.164 0.964,-25.917c-0.573,-3.04 -1.657,-6.501 -3.503,-9.017c-4.057,-5.53 -11.854,-8.403 -18.636,-7.104c-2.716,0.52 -5.168,1.696 -7.595,2.985c-8.443,4.485 -10.198,13.952 -9.1,21.931c0.485,3.532 3.522,9.036 3.078,12.578c-0.926,7.384 -0.667,11.38 1.638,16.143c1.965,4.059 9.611,7.117 17.97,6.248c1.424,-0.148 9.947,-1.642 12.979,-7.919Z"/></clipPath><g clip-path="url(#_clip1)"><path d="M18.489,55.584c0,0 -2.876,3.697 -2.098,9.44c1.169,8.627 4.795,6.777 4.548,22.302c-0.123,7.74 -0.585,12.408 2.823,17.067c3.31,4.525 12.776,4.519 15.169,3.835c2.393,-0.684 -9.435,2.461 -16.203,-0.273c-6.769,-2.735 -7.726,-14.221 -6.837,-21.4c0.889,-7.179 -4.854,-9.23 -2.94,-21.604c3.077,-7.248 3.145,-6.837 5.538,-9.367Z" style="fill:#3fc9df;"/><path d="M29.78,66.195c0,0 -0.84,4.201 -5.846,3.956c-5.005,-0.245 -5.355,-5.356 -5.355,-5.356l11.201,1.4Z" style="fill:#3fc9df;"/><path d="M51.19,64.06c0,0 -0.84,4.201 -5.846,3.956c-5.005,-0.245 -5.356,-5.356 -5.356,-5.356l11.202,1.4Z" style="fill:#3fc9df;"/></g><path d="M33.099,48.094l0.085,0l0.085,0.001l0.085,0.001l0.085,0.002l0.085,0.002l0.085,0.002l0.086,0.003l0.085,0.003l0.085,0.004l0.085,0.004l0.085,0.004l0.085,0.005l0.085,0.005l0.085,0.005l0.085,0.006l0.085,0.006l0.085,0.006l0.086,0.007l0.085,0.007l0.085,0.007l0.085,0.008l0.085,0.009l0.084,0.008l0.085,0.009l0.085,0.009l0.085,0.01l0.085,0.01l0.085,0.011l0.085,0.01l0.084,0.011l0.085,0.012l0.085,0.012l0.085,0.012l0.084,0.012l0.085,0.013l0.084,0.013l0.085,0.014l0.084,0.014l0.085,0.014l0.084,0.015l0.084,0.015l0.084,0.015l0.085,0.016l0.084,0.016l0.084,0.016l0.084,0.017l0.084,0.017l0.084,0.017l0.083,0.018l0.084,0.018l0.084,0.018l0.083,0.019l0.084,0.019l0.083,0.02l0.084,0.019l0.083,0.021l0.083,0.02l0.084,0.021l0.083,0.021l0.083,0.021l0.082,0.022l0.083,0.022l0.083,0.023l0.083,0.023l0.082,0.023l0.083,0.024l0.082,0.023l0.082,0.025l0.083,0.024l0.082,0.025l0.081,0.025l0.082,0.026l0.082,0.025l0.082,0.027l0.081,0.026l0.082,0.027l0.081,0.027l0.081,0.028l0.081,0.027l0.081,0.029l0.081,0.028l0.081,0.029l0.081,0.029l0.08,0.029l0.081,0.03l0.08,0.03l0.08,0.031l0.08,0.03l0.08,0.031l0.079,0.032l0.08,0.032l0.08,0.032l0.079,0.032l0.079,0.033l0.079,0.033l0.079,0.033l0.079,0.034l0.078,0.034l0.079,0.034l0.078,0.034l0.078,0.035l0.078,0.036l0.078,0.035l0.078,0.036l0.077,0.036l0.078,0.037l0.077,0.036l0.077,0.038l0.077,0.037l0.077,0.038l0.076,0.038l0.077,0.038l0.076,0.039l0.076,0.039l0.076,0.039l0.075,0.04l0.076,0.04l0.075,0.04l0.075,0.04l0.075,0.041l0.075,0.041l0.075,0.042l0.074,0.042l0.074,0.042l0.074,0.042l0.074,0.043l0.074,0.043l0.073,0.043l0.073,0.044l0.074,0.043l0.072,0.045l0.073,0.044l0.072,0.045l0.073,0.045l0.072,0.045l0.071,0.046l0.072,0.046l0.071,0.046l0.072,0.047l0.071,0.047l0.07,0.047l0.071,0.048l0.07,0.047l0.07,0.049l0.07,0.048l0.07,0.049l0.069,0.049l0.069,0.049l0.069,0.049l0.069,0.05l0.068,0.05l0.068,0.051l0.068,0.051l0.068,0.051l0.068,0.051l0.067,0.052l0.067,0.052l0.067,0.052l0.066,0.052l0.066,0.053l0.066,0.053l0.066,0.053l0.065,0.054l0.066,0.054l0.065,0.054l0.064,0.055l0.065,0.055l0.064,0.055l0.064,0.055l0.063,0.056l0.064,0.056l0.063,0.056l0.063,0.056l0.062,0.057l0.062,0.057l0.062,0.057l0.062,0.058l0.061,0.058l0.061,0.058l0.061,0.059l0.061,0.058l0.06,0.059l0.06,0.06l0.06,0.059l0.059,0.06l0.059,0.06l0.059,0.061l0.058,0.06l0.058,0.061l0.058,0.062l0.058,0.061l0.057,0.062l0.057,0.062l0.057,0.062l0.056,0.063l0.056,0.063l0.055,0.063l0.056,0.063l0.055,0.064l0.055,0.064l0.054,0.064l0.054,0.065l0.054,0.065l0.053,0.065l0.053,0.065l0.053,0.066l0.052,0.065l0.052,0.067l0.052,0.066l0.051,0.067l0.051,0.067l0.051,0.067l0.05,0.067l0.05,0.068l0.046,0.062l0.045,0.063l0.045,0.063l0.044,0.064l0.045,0.064l0.044,0.064l0.043,0.064l0.044,0.065l0.043,0.065l0.043,0.065l0.042,0.066l0.042,0.066l0.042,0.066l0.042,0.067l0.041,0.066l0.041,0.067l0.04,0.067l0.041,0.068l0.04,0.068l0.04,0.068l0.039,0.068l0.039,0.068l0.039,0.069l0.038,0.069l0.039,0.069l0.038,0.07l0.037,0.069l0.038,0.07l0.037,0.07l0.037,0.071l0.036,0.07l0.036,0.071l0.036,0.071l0.036,0.071l0.036,0.071l0.035,0.072l0.034,0.071l0.035,0.072l0.034,0.072l0.034,0.073l0.034,0.072l0.034,0.072l0.033,0.073l0.033,0.073l0.033,0.073l0.032,0.073l0.032,0.074l0.032,0.073l0.032,0.074l0.031,0.073l0.031,0.074l0.031,0.074l0.031,0.074l0.03,0.075l0.03,0.074l0.03,0.074l0.029,0.075l0.03,0.075l0.029,0.075l0.028,0.075l0.029,0.075l0.028,0.075l0.028,0.075l0.028,0.075l0.028,0.075l0.027,0.076l0.027,0.075l0.027,0.076l0.026,0.076l0.027,0.075l0.026,0.076l0.026,0.076l0.025,0.076l0.026,0.076l0.025,0.075l0.025,0.076l0.025,0.076l0.024,0.076l0.024,0.077l0.024,0.076l0.024,0.076l0.023,0.076l0.024,0.076l0.023,0.076l0.023,0.076l0.022,0.077l0.022,0.076l0.023,0.076l0.022,0.076l0.021,0.076l0.022,0.076l0.021,0.076l0.021,0.076l0.021,0.076l0.02,0.076l0.021,0.076l0.02,0.076l0.02,0.076l0.02,0.076l0.019,0.076l0.019,0.076l0.019,0.075l0.019,0.076l0.019,0.075l0.018,0.076l0.019,0.075l0.018,0.076l0.018,0.075l0.034,0.15l0.035,0.15l0.033,0.149l0.033,0.149l0.031,0.149l0.031,0.148l0.03,0.148l0.03,0.147l0.029,0.146l0.027,0.146l0.02,0.105l0.019,0.105l0.019,0.104l0.018,0.104l0.017,0.103l0.017,0.103l0.016,0.102l0.016,0.101l0.016,0.102l0.015,0.1l0.014,0.101l0.014,0.099l0.013,0.1l0.013,0.099l0.013,0.098l0.011,0.098l0.012,0.098l0.011,0.097l0.01,0.097l0.01,0.096l0.01,0.096l0.009,0.095l0.008,0.095l0.009,0.095l0.007,0.094l0.007,0.094l0.007,0.094l0.007,0.093l0.006,0.093l0.005,0.092l0.005,0.092l0.005,0.092l0.004,0.091l0.004,0.091l0.003,0.091l0.003,0.09l0.003,0.09l0.002,0.09l0.002,0.089l0.001,0.089l0.001,0.089l0.001,0.089l0,0.088l0,0.088l0,0.087l-0.001,0.088l-0.001,0.087l-0.002,0.086l-0.002,0.087l-0.002,0.086l-0.003,0.086l-0.002,0.086l-0.004,0.085l-0.003,0.086l-0.004,0.085l-0.004,0.084l-0.005,0.085l-0.005,0.084l-0.005,0.084l-0.005,0.084l-0.006,0.084l-0.006,0.084l-0.006,0.083l-0.007,0.083l-0.006,0.083l-0.008,0.083l-0.007,0.082l-0.008,0.083l-0.007,0.082l-0.009,0.082l-0.008,0.082l-0.009,0.082l-0.009,0.082l-0.009,0.082l-0.009,0.081l-0.01,0.082l-0.009,0.081l-0.01,0.081l-0.011,0.081l-0.01,0.081l-0.011,0.081l-0.01,0.081l-0.011,0.081l-0.012,0.08l-0.011,0.081l-0.012,0.081l-0.023,0.16l-0.025,0.161l-0.024,0.161l-0.026,0.16l-0.026,0.161l-0.027,0.161l-0.027,0.16l-0.027,0.161l-0.028,0.161l-0.029,0.161l-0.028,0.162l-0.029,0.162l-0.03,0.162l-0.059,0.326l-0.06,0.328l-0.06,0.33l-0.061,0.334l-0.03,0.168l-0.03,0.169l-0.03,0.17l-0.03,0.171l-0.03,0.172l-0.03,0.173l-0.029,0.175l-0.029,0.175l-0.029,0.177l-0.029,0.178l-0.028,0.18l-0.028,0.181l-0.028,0.183l-0.027,0.184l-0.013,0.092l-0.013,0.094l-0.013,0.093l-0.013,0.094l-0.013,0.094l-0.013,0.095l-0.013,0.095l-0.012,0.096l-0.012,0.096l-0.012,0.097l-0.012,0.097l-0.012,0.098l-0.012,0.098l-0.011,0.098l-0.012,0.099l-0.011,0.1l-0.011,0.1l-0.011,0.1l-0.01,0.102l-0.011,0.101l-0.01,0.102l-0.01,0.103l-0.01,0.103l-0.009,0.104l-0.009,0.105l-0.01,0.105l-0.009,0.105l-0.008,0.107l-0.009,0.106l-0.008,0.108l-0.008,0.108l-0.008,0.108l-0.007,0.109l-0.008,0.11l-0.007,0.111l-0.006,0.111l-0.007,0.112l-0.006,0.112l-0.006,0.113l-0.006,0.114l-0.005,0.114l-0.005,0.115l-0.005,0.116l-0.005,0.117l-0.004,0.117l-0.004,0.118l-0.004,0.118l-0.003,0.12l-0.003,0.12l-0.003,0.121l-0.002,0.121l-0.002,0.123l-0.002,0.123l-0.002,0.123l-0.001,0.125l0,0.125l-0.001,0.126l0,0.127l0,0.128l0.001,0.129l0.001,0.129l0.001,0.13l0.002,0.131l0.002,0.132l0.003,0.132l0.003,0.134l0.003,0.134l0.004,0.135l0.004,0.136l0.004,0.137l0.005,0.138l0.005,0.139l0.006,0.139l0.006,0.141l0.006,0.141l0.007,0.142l0.008,0.143l0.007,0.144l0.009,0.145l0.008,0.146l0.009,0.147l0.01,0.148l0.01,0.149l0.01,0.149l0.011,0.151l0.012,0.152l0.012,0.152l0.012,0.154l0.013,0.155l0.013,0.155l0.014,0.157l0.014,0.157l0.015,0.159l0.015,0.16l0.016,0.16l0.016,0.162l0.017,0.163l0.018,0.163l0.017,0.165l0.019,0.168l0.006,0.056l0.006,0.058l0.006,0.057l0.005,0.058l0.005,0.058l0.005,0.058l0.004,0.058l0.004,0.058l0.004,0.058l0.004,0.058l0.003,0.058l0.003,0.058l0.003,0.058l0.002,0.058l0.002,0.058l0.002,0.058l0.001,0.058l0.002,0.058l0.001,0.058l0,0.058l0.001,0.058l0,0.058l0,0.058l-0.001,0.058l0,0.058l-0.001,0.058l-0.001,0.058l-0.002,0.057l-0.001,0.059l-0.002,0.057l-0.002,0.058l-0.003,0.058l-0.002,0.058l-0.003,0.058l-0.003,0.057l-0.004,0.058l-0.003,0.058l-0.004,0.057l-0.004,0.058l-0.004,0.057l-0.004,0.058l-0.005,0.057l-0.005,0.058l-0.005,0.057l-0.005,0.057l-0.006,0.058l-0.005,0.057l-0.006,0.057l-0.007,0.057l-0.006,0.057l-0.006,0.057l-0.007,0.057l-0.007,0.057l-0.007,0.057l-0.007,0.056l-0.008,0.057l-0.007,0.056l-0.008,0.057l-0.016,0.112l-0.017,0.113l-0.017,0.112l-0.019,0.111l-0.018,0.112l-0.02,0.111l-0.02,0.11l-0.02,0.11l-0.022,0.11l-0.021,0.109l-0.022,0.108l-0.023,0.109l-0.023,0.107l-0.024,0.107l-0.024,0.107l-0.025,0.106l-0.025,0.106l-0.025,0.104l-0.026,0.105l-0.026,0.103l-0.027,0.103l-0.027,0.103l-0.027,0.102l-0.027,0.101l-0.028,0.1l-0.028,0.1l-0.028,0.098l-0.029,0.099l-0.028,0.097l-0.029,0.097l-0.029,0.095l-0.03,0.095l-0.029,0.095l-0.03,0.093l-0.029,0.092l-0.03,0.092l-0.03,0.091l-0.029,0.089l-0.03,0.089l-0.03,0.088l-0.03,0.087l-0.03,0.086l-0.03,0.085l-0.03,0.084l-0.029,0.083l-0.03,0.081l-0.03,0.081l-0.029,0.08l-0.03,0.079l-0.029,0.077l-0.029,0.076l-0.029,0.076l-0.028,0.074l-0.029,0.073l-0.028,0.071l-0.028,0.071l-0.027,0.069l-0.028,0.068l-0.027,0.067l-0.027,0.065l-0.026,0.065l-0.052,0.124l-0.05,0.118l-0.048,0.114l-0.047,0.107l-0.045,0.102l-0.043,0.096l-0.04,0.09l-0.038,0.084l-0.036,0.077l-0.033,0.071l-0.03,0.064l-0.027,0.057l-0.024,0.051l-0.039,0.079l-0.024,0.05l-0.007,0.013l-0.035,0.072l-0.039,0.078l-0.039,0.078l-0.04,0.077l-0.041,0.076l-0.041,0.076l-0.041,0.076l-0.042,0.075l-0.042,0.075l-0.043,0.074l-0.043,0.074l-0.044,0.073l-0.044,0.073l-0.045,0.072l-0.045,0.072l-0.046,0.071l-0.046,0.071l-0.047,0.071l-0.047,0.07l-0.047,0.07l-0.048,0.069l-0.048,0.068l-0.049,0.069l-0.049,0.067l-0.05,0.068l-0.05,0.067l-0.05,0.066l-0.051,0.066l-0.051,0.066l-0.051,0.065l-0.052,0.064l-0.053,0.064l-0.052,0.064l-0.053,0.064l-0.053,0.062l-0.054,0.063l-0.054,0.062l-0.055,0.061l-0.054,0.062l-0.055,0.06l-0.056,0.061l-0.055,0.059l-0.056,0.06l-0.057,0.059l-0.056,0.058l-0.057,0.058l-0.057,0.058l-0.058,0.057l-0.057,0.057l-0.058,0.057l-0.059,0.056l-0.058,0.055l-0.059,0.056l-0.059,0.054l-0.06,0.055l-0.059,0.054l-0.06,0.053l-0.06,0.053l-0.061,0.053l-0.06,0.052l-0.061,0.052l-0.061,0.052l-0.061,0.051l-0.062,0.051l-0.061,0.05l-0.062,0.05l-0.062,0.05l-0.062,0.049l-0.063,0.049l-0.062,0.048l-0.063,0.048l-0.063,0.048l-0.063,0.047l-0.063,0.047l-0.064,0.046l-0.063,0.047l-0.064,0.045l-0.064,0.046l-0.064,0.045l-0.064,0.044l-0.064,0.045l-0.065,0.043l-0.064,0.044l-0.065,0.043l-0.065,0.043l-0.065,0.042l-0.065,0.042l-0.065,0.042l-0.065,0.042l-0.065,0.041l-0.065,0.04l-0.066,0.041l-0.065,0.039l-0.066,0.04l-0.065,0.039l-0.066,0.039l-0.066,0.039l-0.065,0.038l-0.066,0.038l-0.066,0.037l-0.066,0.038l-0.066,0.037l-0.066,0.036l-0.066,0.036l-0.066,0.036l-0.066,0.036l-0.066,0.035l-0.066,0.035l-0.066,0.034l-0.066,0.035l-0.066,0.034l-0.066,0.033l-0.066,0.033l-0.066,0.033l-0.066,0.033l-0.066,0.032l-0.066,0.032l-0.066,0.032l-0.065,0.032l-0.066,0.031l-0.066,0.03l-0.065,0.031l-0.066,0.03l-0.066,0.03l-0.065,0.03l-0.065,0.029l-0.066,0.029l-0.065,0.028l-0.065,0.029l-0.065,0.028l-0.065,0.028l-0.065,0.027l-0.065,0.027l-0.064,0.027l-0.065,0.027l-0.064,0.026l-0.065,0.027l-0.064,0.025l-0.064,0.026l-0.064,0.025l-0.063,0.025l-0.064,0.025l-0.063,0.024l-0.064,0.024l-0.063,0.024l-0.063,0.024l-0.063,0.023l-0.062,0.023l-0.063,0.023l-0.062,0.022l-0.124,0.045l-0.123,0.043l-0.123,0.042l-0.121,0.041l-0.121,0.04l-0.12,0.039l-0.119,0.039l-0.117,0.037l-0.117,0.036l-0.116,0.035l-0.115,0.034l-0.113,0.034l-0.113,0.032l-0.111,0.032l-0.11,0.03l-0.109,0.03l-0.107,0.029l-0.106,0.028l-0.105,0.027l-0.103,0.026l-0.102,0.026l-0.101,0.024l-0.098,0.024l-0.098,0.023l-0.096,0.022l-0.094,0.022l-0.092,0.02l-0.091,0.02l-0.089,0.019l-0.088,0.019l-0.085,0.017l-0.084,0.017l-0.082,0.017l-0.08,0.015l-0.078,0.015l-0.076,0.014l-0.074,0.013l-0.072,0.013l-0.07,0.012l-0.069,0.012l-0.066,0.011l-0.063,0.01l-0.062,0.01l-0.059,0.009l-0.058,0.008l-0.055,0.008l-0.052,0.007l-0.051,0.007l-0.048,0.006l-0.046,0.006l-0.044,0.005l-0.041,0.005l-0.039,0.004l-0.101,0.01l-0.1,0.01l-0.1,0.01l-0.101,0.009l-0.1,0.009l-0.1,0.008l-0.1,0.008l-0.1,0.008l-0.1,0.007l-0.1,0.007l-0.099,0.007l-0.1,0.006l-0.1,0.006l-0.099,0.006l-0.099,0.005l-0.1,0.005l-0.099,0.004l-0.099,0.005l-0.099,0.003l-0.099,0.004l-0.098,0.003l-0.099,0.003l-0.099,0.002l-0.098,0.002l-0.098,0.002l-0.098,0.001l-0.099,0.001l-0.098,0.001l-0.097,0l-0.098,0.001l-0.098,-0.001l-0.097,0l-0.098,-0.001l-0.097,-0.002l-0.097,-0.001l-0.097,-0.002l-0.097,-0.003l-0.097,-0.002l-0.096,-0.003l-0.097,-0.003l-0.096,-0.004l-0.096,-0.004l-0.096,-0.004l-0.096,-0.005l-0.096,-0.005l-0.096,-0.005l-0.095,-0.006l-0.095,-0.005l-0.096,-0.007l-0.095,-0.006l-0.094,-0.007l-0.095,-0.007l-0.095,-0.007l-0.094,-0.008l-0.094,-0.008l-0.094,-0.009l-0.094,-0.008l-0.094,-0.009l-0.094,-0.01l-0.093,-0.009l-0.093,-0.01l-0.093,-0.01l-0.093,-0.011l-0.093,-0.011l-0.092,-0.011l-0.093,-0.011l-0.092,-0.012l-0.092,-0.012l-0.092,-0.012l-0.091,-0.013l-0.092,-0.013l-0.091,-0.013l-0.091,-0.014l-0.091,-0.013l-0.09,-0.014l-0.091,-0.015l-0.09,-0.014l-0.09,-0.015l-0.09,-0.016l-0.089,-0.015l-0.09,-0.016l-0.089,-0.016l-0.089,-0.016l-0.089,-0.017l-0.088,-0.017l-0.089,-0.017l-0.088,-0.018l-0.088,-0.018l-0.087,-0.018l-0.088,-0.018l-0.087,-0.018l-0.087,-0.019l-0.087,-0.019l-0.087,-0.02l-0.086,-0.02l-0.086,-0.02l-0.086,-0.02l-0.086,-0.02l-0.085,-0.021l-0.085,-0.021l-0.085,-0.021l-0.085,-0.022l-0.085,-0.022l-0.084,-0.022l-0.084,-0.022l-0.083,-0.023l-0.084,-0.023l-0.083,-0.023l-0.083,-0.023l-0.083,-0.024l-0.082,-0.024l-0.082,-0.024l-0.082,-0.024l-0.082,-0.025l-0.081,-0.025l-0.082,-0.025l-0.08,-0.025l-0.081,-0.026l-0.08,-0.026l-0.08,-0.026l-0.08,-0.027l-0.08,-0.026l-0.079,-0.027l-0.079,-0.027l-0.079,-0.028l-0.078,-0.027l-0.078,-0.028l-0.078,-0.028l-0.078,-0.029l-0.077,-0.028l-0.077,-0.029l-0.077,-0.029l-0.076,-0.029l-0.076,-0.03l-0.076,-0.03l-0.075,-0.03l-0.076,-0.03l-0.074,-0.03l-0.075,-0.031l-0.074,-0.031l-0.074,-0.031l-0.074,-0.031l-0.073,-0.032l-0.073,-0.032l-0.073,-0.032l-0.073,-0.032l-0.072,-0.033l-0.072,-0.033l-0.071,-0.032l-0.071,-0.034l-0.071,-0.033l-0.071,-0.034l-0.07,-0.034l-0.07,-0.034l-0.069,-0.034l-0.069,-0.034l-0.069,-0.035l-0.069,-0.035l-0.068,-0.035l-0.068,-0.036l-0.067,-0.035l-0.067,-0.036l-0.067,-0.036l-0.067,-0.036l-0.066,-0.037l-0.065,-0.036l-0.066,-0.037l-0.065,-0.037l-0.065,-0.037l-0.064,-0.038l-0.064,-0.038l-0.064,-0.037l-0.063,-0.038l-0.063,-0.039l-0.063,-0.038l-0.062,-0.039l-0.062,-0.039l-0.061,-0.039l-0.061,-0.039l-0.061,-0.04l-0.06,-0.04l-0.06,-0.04l-0.06,-0.04l-0.059,-0.04l-0.059,-0.04l-0.058,-0.041l-0.058,-0.041l-0.058,-0.041l-0.057,-0.042l-0.057,-0.041l-0.057,-0.042l-0.056,-0.042l-0.056,-0.042l-0.055,-0.042l-0.055,-0.042l-0.054,-0.043l-0.055,-0.043l-0.053,-0.043l-0.054,-0.043l-0.052,-0.044l-0.053,-0.043l-0.052,-0.044l-0.052,-0.044l-0.051,-0.045l-0.051,-0.044l-0.05,-0.045l-0.05,-0.044l-0.05,-0.045l-0.049,-0.045l-0.049,-0.046l-0.048,-0.045l-0.048,-0.046l-0.047,-0.046l-0.047,-0.046l-0.047,-0.046l-0.046,-0.047l-0.045,-0.047l-0.046,-0.047l-0.044,-0.047l-0.045,-0.047l-0.044,-0.047l-0.043,-0.048l-0.043,-0.048l-0.042,-0.048l-0.042,-0.048l-0.042,-0.048l-0.041,-0.049l-0.041,-0.048l-0.04,-0.049l-0.039,-0.049l-0.04,-0.05l-0.038,-0.049l-0.039,-0.05l-0.037,-0.05l-0.038,-0.05l-0.036,-0.05l-0.037,-0.05l-0.035,-0.051l-0.036,-0.05l-0.035,-0.051l-0.034,-0.051l-0.034,-0.052l-0.033,-0.051l-0.033,-0.052l-0.032,-0.052l-0.031,-0.052l-0.032,-0.052l-0.03,-0.052l-0.03,-0.053l-0.03,-0.052l-0.029,-0.053l-0.029,-0.053l-0.028,-0.053l-0.027,-0.054l-0.027,-0.053l-0.026,-0.053l-0.055,-0.116l-0.055,-0.114l-0.053,-0.114l-0.053,-0.113l-0.052,-0.114l-0.051,-0.113l-0.051,-0.114l-0.05,-0.113l-0.049,-0.113l-0.049,-0.113l-0.047,-0.112l-0.047,-0.113l-0.047,-0.112l-0.045,-0.113l-0.045,-0.112l-0.044,-0.113l-0.044,-0.112l-0.042,-0.112l-0.042,-0.112l-0.042,-0.112l-0.04,-0.112l-0.04,-0.113l-0.039,-0.112l-0.039,-0.112l-0.037,-0.112l-0.037,-0.113l-0.037,-0.112l-0.035,-0.112l-0.035,-0.113l-0.034,-0.112l-0.034,-0.113l-0.033,-0.113l-0.032,-0.113l-0.031,-0.113l-0.031,-0.113l-0.03,-0.113l-0.03,-0.114l-0.028,-0.113l-0.028,-0.114l-0.028,-0.114l-0.027,-0.115l-0.026,-0.114l-0.025,-0.115l-0.025,-0.115l-0.024,-0.115l-0.023,-0.115l-0.023,-0.116l-0.022,-0.116l-0.021,-0.116l-0.021,-0.116l-0.02,-0.117l-0.019,-0.117l-0.019,-0.117l-0.018,-0.118l-0.017,-0.118l-0.017,-0.119l-0.016,-0.118l-0.016,-0.12l-0.015,-0.119l-0.014,-0.12l-0.014,-0.12l-0.013,-0.121l-0.012,-0.121l-0.012,-0.122l-0.011,-0.122l-0.011,-0.123l-0.01,-0.123l-0.009,-0.123l-0.009,-0.124l-0.008,-0.125l-0.007,-0.125l-0.007,-0.125l-0.007,-0.126l-0.005,-0.127l-0.006,-0.127l-0.004,-0.127l-0.004,-0.129l-0.004,-0.129l-0.003,-0.129l-0.002,-0.13l-0.002,-0.131l-0.001,-0.131l0,-0.132l0,-0.133l0,-0.133l0.001,-0.134l0.002,-0.135l0.002,-0.135l0.003,-0.136l0.003,-0.137l0.004,-0.138l0.004,-0.138l0.005,-0.139l0.005,-0.14l0.006,-0.141l0.006,-0.141l0.007,-0.142l0.008,-0.144l0.008,-0.144l0.008,-0.144l0.009,-0.146l0.01,-0.147l0.01,-0.147l0.01,-0.148l0.011,-0.149l0.012,-0.151l0.012,-0.151l0.012,-0.152l0.013,-0.153l0.013,-0.154l0.014,-0.155l0.015,-0.156l0.014,-0.157l0.016,-0.158l0.016,-0.159l0.016,-0.16l0.017,-0.161l0.017,-0.162l0.017,-0.163l0.018,-0.165l0.019,-0.165l0.019,-0.167l0.019,-0.167l0.02,-0.169l0.021,-0.17l0.02,-0.171l0.022,-0.173l0.021,-0.172l0.005,-0.037l0.004,-0.036l0.003,-0.037l0.004,-0.036l0.003,-0.037l0.003,-0.037l0.003,-0.038l0.003,-0.037l0.002,-0.038l0.002,-0.038l0.002,-0.038l0.001,-0.039l0.001,-0.038l0.001,-0.039l0.001,-0.04l0.001,-0.039l0,-0.04l0,-0.04l-0.001,-0.04l0,-0.04l-0.001,-0.041l-0.001,-0.04l-0.001,-0.041l-0.002,-0.041l-0.002,-0.042l-0.002,-0.041l-0.002,-0.042l-0.002,-0.042l-0.003,-0.042l-0.003,-0.043l-0.003,-0.042l-0.004,-0.043l-0.003,-0.043l-0.004,-0.043l-0.005,-0.044l-0.004,-0.043l-0.005,-0.044l-0.004,-0.044l-0.005,-0.044l-0.006,-0.044l-0.005,-0.045l-0.006,-0.044l-0.006,-0.045l-0.006,-0.045l-0.007,-0.045l-0.006,-0.045l-0.007,-0.046l-0.007,-0.045l-0.007,-0.046l-0.008,-0.046l-0.008,-0.046l-0.008,-0.046l-0.008,-0.047l-0.008,-0.046l-0.017,-0.094l-0.018,-0.094l-0.019,-0.094l-0.019,-0.095l-0.021,-0.096l-0.021,-0.096l-0.021,-0.097l-0.023,-0.097l-0.023,-0.098l-0.023,-0.098l-0.025,-0.098l-0.025,-0.099l-0.025,-0.099l-0.027,-0.1l-0.026,-0.1l-0.028,-0.1l-0.028,-0.101l-0.028,-0.101l-0.029,-0.102l-0.03,-0.101l-0.03,-0.102l-0.03,-0.103l-0.031,-0.102l-0.031,-0.103l-0.032,-0.103l-0.032,-0.103l-0.032,-0.104l-0.033,-0.104l-0.034,-0.103l-0.033,-0.104l-0.034,-0.105l-0.034,-0.104l-0.035,-0.105l-0.034,-0.104l-0.035,-0.105l-0.071,-0.21l-0.071,-0.21l-0.072,-0.21l-0.073,-0.211l-0.073,-0.21l-0.146,-0.421l-0.146,-0.419l-0.073,-0.209l-0.072,-0.209l-0.072,-0.208l-0.071,-0.208l-0.07,-0.206l-0.034,-0.104l-0.035,-0.103l-0.034,-0.102l-0.034,-0.103l-0.033,-0.102l-0.033,-0.102l-0.033,-0.101l-0.032,-0.102l-0.032,-0.101l-0.032,-0.101l-0.031,-0.1l-0.031,-0.1l-0.03,-0.1l-0.03,-0.1l-0.03,-0.099l-0.028,-0.099l-0.029,-0.099l-0.027,-0.098l-0.028,-0.098l-0.026,-0.097l-0.026,-0.097l-0.026,-0.097l-0.024,-0.096l-0.024,-0.096l-0.024,-0.096l-0.023,-0.095l-0.022,-0.095l-0.021,-0.094l-0.02,-0.094l-0.02,-0.094l-0.019,-0.093l-0.018,-0.092l-0.018,-0.092l-0.008,-0.046l-0.008,-0.046l-0.008,-0.046l-0.008,-0.046l-0.007,-0.045l-0.007,-0.046l-0.007,-0.045l-0.007,-0.045l-0.007,-0.045l-0.006,-0.045l-0.013,-0.096l-0.013,-0.096l-0.012,-0.096l-0.012,-0.096l-0.012,-0.096l-0.012,-0.096l-0.011,-0.097l-0.012,-0.096l-0.01,-0.097l-0.011,-0.097l-0.01,-0.097l-0.01,-0.097l-0.01,-0.097l-0.009,-0.097l-0.009,-0.098l-0.009,-0.097l-0.009,-0.098l-0.008,-0.098l-0.008,-0.097l-0.008,-0.098l-0.007,-0.098l-0.007,-0.098l-0.007,-0.099l-0.006,-0.098l-0.007,-0.098l-0.006,-0.099l-0.005,-0.098l-0.005,-0.099l-0.005,-0.099l-0.005,-0.098l-0.004,-0.099l-0.004,-0.099l-0.004,-0.099l-0.004,-0.099l-0.003,-0.099l-0.003,-0.1l-0.002,-0.099l-0.002,-0.099l-0.002,-0.1l-0.002,-0.099l-0.001,-0.1l-0.001,-0.099l0,-0.1l0,-0.099l0,-0.1l0,-0.1l0.001,-0.099l0.001,-0.1l0.002,-0.1l0.001,-0.1l0.003,-0.1l0.002,-0.099l0.003,-0.1l0.003,-0.1l0.003,-0.1l0.004,-0.1l0.005,-0.1l0.004,-0.1l0.005,-0.1l0.005,-0.1l0.006,-0.1l0.006,-0.1l0.006,-0.101l0.007,-0.1l0.007,-0.1l0.007,-0.1l0.008,-0.1l0.008,-0.1l0.008,-0.1l0.009,-0.1l0.009,-0.1l0.01,-0.1l0.01,-0.1l0.01,-0.1l0.011,-0.1l0.011,-0.099l0.011,-0.1l0.012,-0.1l0.012,-0.1l0.013,-0.1l0.013,-0.099l0.013,-0.1l0.014,-0.1l0.014,-0.099l0.015,-0.1l0.015,-0.099l0.015,-0.1l0.016,-0.099l0.016,-0.099l0.016,-0.1l0.017,-0.099l0.017,-0.099l0.018,-0.099l0.018,-0.099l0.018,-0.099l0.019,-0.099l0.02,-0.099l0.019,-0.098l0.02,-0.099l0.021,-0.099l0.021,-0.098l0.021,-0.098l0.022,-0.099l0.022,-0.098l0.023,-0.098l0.023,-0.098l0.023,-0.098l0.024,-0.098l0.025,-0.097l0.024,-0.098l0.025,-0.098l0.026,-0.097l0.026,-0.097l0.026,-0.097l0.027,-0.098l0.028,-0.096l0.027,-0.097l0.029,-0.097l0.028,-0.096l0.029,-0.097l0.03,-0.096l0.03,-0.096l0.03,-0.096l0.031,-0.096l0.032,-0.096l0.031,-0.096l0.033,-0.095l0.032,-0.095l0.034,-0.096l0.033,-0.095l0.034,-0.095l0.035,-0.094l0.035,-0.095l0.035,-0.094l0.036,-0.094l0.037,-0.094l0.036,-0.094l0.038,-0.094l0.038,-0.094l0.038,-0.093l0.039,-0.093l0.039,-0.093l0.04,-0.093l0.04,-0.092l0.04,-0.093l0.042,-0.092l0.041,-0.092l0.042,-0.092l0.043,-0.092l0.043,-0.091l0.044,-0.091l0.044,-0.091l0.045,-0.091l0.045,-0.091l0.045,-0.09l0.046,-0.09l0.047,-0.09l0.047,-0.09l0.048,-0.089l0.048,-0.09l0.048,-0.089l0.05,-0.089l0.049,-0.088l0.05,-0.088l0.051,-0.089l0.051,-0.087l0.052,-0.088l0.052,-0.087l0.053,-0.087l0.053,-0.087l0.054,-0.087l0.054,-0.086l0.055,-0.086l0.055,-0.086l0.056,-0.086l0.057,-0.085l0.056,-0.085l0.058,-0.085l0.058,-0.084l0.058,-0.084l0.059,-0.084l0.06,-0.084l0.06,-0.083l0.061,-0.083l0.061,-0.083l0.062,-0.082l0.062,-0.082l0.063,-0.082l0.063,-0.081l0.064,-0.082l0.065,-0.08l0.065,-0.081l0.065,-0.08l0.067,-0.08l0.066,-0.08l0.068,-0.079l0.067,-0.079l0.069,-0.079l0.069,-0.078l0.069,-0.078l0.07,-0.077l0.071,-0.078l0.071,-0.077l0.072,-0.076l0.072,-0.076l0.073,-0.076l0.073,-0.076l0.074,-0.075l0.075,-0.075l0.075,-0.074l0.076,-0.074l0.076,-0.074l0.077,-0.073l0.078,-0.073l0.078,-0.073l0.078,-0.072l0.079,-0.072l0.08,-0.071l0.081,-0.072l0.081,-0.07l0.081,-0.07l0.082,-0.07l0.083,-0.07l0.083,-0.069l0.084,-0.068l0.084,-0.069l0.085,-0.068l0.086,-0.067l0.086,-0.067l0.087,-0.067l0.088,-0.066l0.088,-0.066l0.088,-0.065l0.089,-0.065l0.09,-0.064l0.091,-0.064l0.091,-0.064l0.091,-0.063l0.092,-0.063l0.093,-0.062l0.094,-0.062l0.094,-0.062l0.094,-0.061l0.095,-0.06l0.096,-0.06l0.097,-0.06l0.097,-0.059l0.097,-0.059l0.099,-0.058l0.098,-0.058l0.1,-0.057l0.1,-0.057l0.101,-0.056l0.101,-0.056l0.102,-0.055l0.102,-0.055l0.115,-0.061l0.115,-0.061l0.115,-0.06l0.115,-0.06l0.115,-0.06l0.115,-0.06l0.116,-0.06l0.115,-0.06l0.116,-0.059l0.116,-0.059l0.116,-0.059l0.116,-0.058l0.116,-0.059l0.117,-0.057l0.116,-0.058l0.117,-0.057l0.117,-0.057l0.118,-0.057l0.117,-0.056l0.118,-0.056l0.118,-0.056l0.118,-0.055l0.118,-0.054l0.119,-0.055l0.119,-0.053l0.119,-0.054l0.119,-0.053l0.12,-0.052l0.12,-0.052l0.12,-0.051l0.12,-0.051l0.121,-0.05l0.121,-0.05l0.122,-0.049l0.121,-0.049l0.122,-0.048l0.122,-0.048l0.123,-0.046l0.123,-0.047l0.123,-0.045l0.123,-0.045l0.062,-0.022l0.062,-0.022l0.062,-0.022l0.063,-0.022l0.062,-0.021l0.062,-0.022l0.063,-0.021l0.062,-0.021l0.063,-0.021l0.062,-0.02l0.063,-0.021l0.063,-0.02l0.063,-0.02l0.063,-0.02l0.063,-0.02l0.064,-0.019l0.063,-0.019l0.063,-0.019l0.064,-0.019l0.064,-0.019l0.063,-0.018l0.064,-0.019l0.064,-0.018l0.064,-0.018l0.064,-0.017l0.064,-0.018l0.065,-0.017l0.064,-0.017l0.065,-0.017l0.064,-0.016l0.065,-0.017l0.065,-0.016l0.065,-0.016l0.065,-0.015l0.065,-0.016l0.065,-0.015l0.066,-0.015l0.065,-0.015l0.066,-0.014l0.066,-0.015l0.065,-0.014l0.066,-0.014l0.066,-0.013l0.066,-0.014l0.067,-0.013l0.066,-0.012l0.083,-0.016l0.083,-0.015l0.083,-0.015l0.083,-0.015l0.084,-0.014l0.083,-0.014l0.084,-0.013l0.083,-0.013l0.084,-0.012l0.083,-0.012l0.084,-0.012l0.084,-0.011l0.084,-0.011l0.084,-0.011l0.084,-0.01l0.084,-0.01l0.084,-0.009l0.084,-0.009l0.084,-0.009l0.084,-0.008l0.085,-0.008l0.084,-0.007l0.085,-0.007l0.084,-0.007l0.085,-0.006l0.084,-0.006l0.085,-0.005l0.085,-0.006l0.084,-0.004l0.085,-0.005l0.085,-0.004l0.084,-0.003l0.085,-0.003l0.085,-0.003l0.085,-0.003l0.085,-0.002l0.085,-0.001l0.085,-0.002l0.085,-0.001l0.085,0l0.085,-0.001l0.085,0.001Zm-0.163,1.442l-0.079,0.001l-0.079,0.001l-0.078,0.001l-0.079,0.002l-0.078,0.002l-0.079,0.002l-0.078,0.002l-0.079,0.003l-0.078,0.004l-0.078,0.003l-0.078,0.004l-0.079,0.005l-0.078,0.004l-0.078,0.006l-0.078,0.005l-0.078,0.006l-0.078,0.006l-0.078,0.006l-0.077,0.007l-0.078,0.007l-0.078,0.008l-0.077,0.008l-0.078,0.008l-0.077,0.009l-0.078,0.009l-0.077,0.009l-0.077,0.01l-0.077,0.01l-0.077,0.01l-0.077,0.011l-0.077,0.011l-0.077,0.012l-0.077,0.011l-0.077,0.013l-0.076,0.012l-0.077,0.013l-0.076,0.013l-0.076,0.014l-0.076,0.014l-0.077,0.015l-0.06,0.011l-0.061,0.012l-0.061,0.013l-0.06,0.012l-0.061,0.013l-0.06,0.013l-0.061,0.013l-0.06,0.013l-0.06,0.014l-0.06,0.013l-0.06,0.014l-0.06,0.015l-0.06,0.014l-0.06,0.015l-0.06,0.015l-0.06,0.015l-0.059,0.015l-0.06,0.016l-0.059,0.015l-0.06,0.016l-0.059,0.016l-0.06,0.017l-0.059,0.016l-0.059,0.017l-0.059,0.017l-0.059,0.017l-0.059,0.017l-0.059,0.018l-0.059,0.018l-0.059,0.018l-0.059,0.018l-0.059,0.018l-0.058,0.018l-0.059,0.019l-0.059,0.019l-0.058,0.019l-0.059,0.019l-0.058,0.02l-0.058,0.019l-0.059,0.02l-0.058,0.02l-0.058,0.02l-0.058,0.02l-0.058,0.021l-0.059,0.02l-0.057,0.021l-0.116,0.042l-0.116,0.043l-0.116,0.044l-0.115,0.044l-0.115,0.044l-0.115,0.046l-0.115,0.046l-0.115,0.046l-0.115,0.048l-0.114,0.047l-0.115,0.049l-0.114,0.048l-0.114,0.05l-0.114,0.05l-0.114,0.05l-0.114,0.051l-0.114,0.052l-0.113,0.052l-0.114,0.052l-0.113,0.053l-0.114,0.053l-0.113,0.054l-0.113,0.054l-0.114,0.055l-0.113,0.055l-0.113,0.055l-0.113,0.056l-0.113,0.056l-0.113,0.057l-0.113,0.057l-0.113,0.057l-0.113,0.058l-0.112,0.057l-0.113,0.059l-0.113,0.058l-0.113,0.059l-0.113,0.059l-0.113,0.059l-0.113,0.059l-0.113,0.06l-0.112,0.06l-0.095,0.051l-0.094,0.051l-0.094,0.051l-0.093,0.052l-0.092,0.053l-0.092,0.052l-0.091,0.054l-0.09,0.053l-0.09,0.054l-0.09,0.055l-0.088,0.055l-0.089,0.055l-0.087,0.056l-0.087,0.056l-0.087,0.056l-0.085,0.057l-0.086,0.057l-0.084,0.058l-0.084,0.058l-0.084,0.058l-0.083,0.059l-0.082,0.059l-0.082,0.06l-0.081,0.06l-0.081,0.06l-0.08,0.061l-0.08,0.061l-0.079,0.061l-0.078,0.062l-0.078,0.062l-0.078,0.063l-0.076,0.063l-0.077,0.063l-0.075,0.063l-0.075,0.064l-0.075,0.065l-0.074,0.064l-0.074,0.065l-0.073,0.066l-0.072,0.065l-0.072,0.066l-0.071,0.067l-0.071,0.067l-0.071,0.067l-0.069,0.067l-0.07,0.068l-0.068,0.068l-0.069,0.068l-0.067,0.069l-0.068,0.069l-0.066,0.07l-0.066,0.069l-0.066,0.07l-0.065,0.071l-0.065,0.071l-0.064,0.07l-0.063,0.072l-0.063,0.071l-0.063,0.072l-0.062,0.073l-0.062,0.072l-0.061,0.073l-0.06,0.073l-0.06,0.074l-0.06,0.073l-0.059,0.075l-0.059,0.074l-0.058,0.075l-0.057,0.075l-0.057,0.075l-0.057,0.075l-0.056,0.076l-0.056,0.076l-0.055,0.077l-0.054,0.076l-0.055,0.077l-0.053,0.077l-0.053,0.078l-0.053,0.078l-0.053,0.078l-0.051,0.078l-0.052,0.078l-0.05,0.079l-0.051,0.079l-0.05,0.08l-0.049,0.079l-0.049,0.08l-0.049,0.08l-0.048,0.081l-0.047,0.08l-0.047,0.081l-0.047,0.081l-0.046,0.082l-0.046,0.081l-0.045,0.082l-0.045,0.082l-0.044,0.083l-0.044,0.082l-0.044,0.083l-0.043,0.083l-0.042,0.083l-0.042,0.084l-0.042,0.083l-0.041,0.084l-0.041,0.084l-0.041,0.085l-0.039,0.084l-0.04,0.085l-0.039,0.085l-0.038,0.085l-0.039,0.086l-0.037,0.086l-0.038,0.085l-0.036,0.086l-0.037,0.087l-0.036,0.086l-0.035,0.087l-0.035,0.087l-0.035,0.087l-0.034,0.087l-0.034,0.087l-0.034,0.088l-0.033,0.088l-0.032,0.087l-0.032,0.089l-0.032,0.088l-0.031,0.088l-0.031,0.089l-0.031,0.089l-0.03,0.089l-0.029,0.089l-0.029,0.089l-0.029,0.09l-0.029,0.089l-0.028,0.09l-0.027,0.09l-0.027,0.09l-0.027,0.09l-0.027,0.091l-0.026,0.09l-0.025,0.091l-0.025,0.091l-0.025,0.091l-0.024,0.091l-0.024,0.091l-0.024,0.091l-0.023,0.092l-0.023,0.091l-0.022,0.092l-0.022,0.092l-0.022,0.092l-0.021,0.092l-0.021,0.092l-0.02,0.093l-0.021,0.092l-0.019,0.093l-0.019,0.092l-0.019,0.093l-0.019,0.093l-0.018,0.093l-0.018,0.093l-0.017,0.093l-0.017,0.093l-0.017,0.094l-0.016,0.093l-0.016,0.093l-0.016,0.094l-0.015,0.094l-0.015,0.093l-0.014,0.094l-0.014,0.094l-0.014,0.094l-0.013,0.094l-0.013,0.094l-0.013,0.094l-0.012,0.095l-0.012,0.094l-0.011,0.094l-0.012,0.095l-0.01,0.094l-0.011,0.095l-0.01,0.094l-0.01,0.095l-0.009,0.094l-0.009,0.095l-0.009,0.095l-0.008,0.095l-0.008,0.094l-0.008,0.095l-0.007,0.095l-0.007,0.095l-0.007,0.095l-0.006,0.095l-0.006,0.095l-0.006,0.095l-0.005,0.095l-0.005,0.095l-0.005,0.095l-0.004,0.095l-0.004,0.095l-0.004,0.095l-0.003,0.095l-0.003,0.095l-0.003,0.095l-0.002,0.095l-0.002,0.095l-0.002,0.095l-0.001,0.095l-0.001,0.094l-0.001,0.095l0,0.095l-0.001,0.095l0.001,0.095l0,0.095l0.001,0.095l0.001,0.094l0.002,0.095l0.001,0.095l0.002,0.095l0.003,0.094l0.002,0.095l0.003,0.094l0.004,0.095l0.003,0.094l0.004,0.094l0.004,0.095l0.005,0.094l0.004,0.094l0.005,0.094l0.006,0.094l0.005,0.094l0.006,0.094l0.006,0.094l0.007,0.094l0.007,0.093l0.007,0.094l0.007,0.094l0.008,0.093l0.008,0.093l0.008,0.094l0.008,0.093l0.009,0.093l0.009,0.093l0.009,0.093l0.01,0.092l0.01,0.093l0.01,0.093l0.01,0.092l0.011,0.092l0.011,0.093l0.011,0.092l0.011,0.092l0.012,0.092l0.012,0.091l0.012,0.092l0.012,0.091l0.006,0.038l0.005,0.038l0.006,0.039l0.006,0.039l0.006,0.039l0.007,0.039l0.006,0.039l0.007,0.04l0.007,0.04l0.007,0.039l0.016,0.082l0.016,0.082l0.016,0.082l0.018,0.084l0.019,0.084l0.019,0.085l0.02,0.086l0.02,0.087l0.022,0.087l0.022,0.089l0.023,0.089l0.023,0.089l0.024,0.09l0.025,0.091l0.026,0.092l0.026,0.092l0.026,0.093l0.028,0.094l0.028,0.094l0.028,0.094l0.029,0.095l0.029,0.096l0.03,0.097l0.03,0.096l0.031,0.098l0.032,0.097l0.031,0.099l0.032,0.098l0.033,0.1l0.033,0.099l0.033,0.1l0.034,0.101l0.033,0.1l0.069,0.203l0.07,0.205l0.071,0.205l0.071,0.207l0.073,0.208l0.146,0.419l0.146,0.422l0.074,0.212l0.073,0.213l0.073,0.214l0.073,0.213l0.072,0.214l0.036,0.107l0.035,0.107l0.036,0.108l0.035,0.107l0.034,0.107l0.035,0.108l0.034,0.107l0.034,0.107l0.034,0.107l0.033,0.107l0.033,0.108l0.033,0.107l0.032,0.107l0.032,0.107l0.031,0.107l0.031,0.106l0.031,0.107l0.03,0.107l0.029,0.106l0.029,0.107l0.029,0.106l0.028,0.106l0.027,0.106l0.027,0.106l0.026,0.105l0.025,0.106l0.025,0.105l0.025,0.105l0.023,0.105l0.023,0.105l0.022,0.104l0.021,0.105l0.021,0.104l0.02,0.103l0.019,0.103l0.009,0.053l0.009,0.051l0.009,0.052l0.009,0.051l0.008,0.052l0.008,0.051l0.008,0.051l0.008,0.052l0.007,0.051l0.008,0.051l0.007,0.051l0.006,0.051l0.007,0.051l0.006,0.051l0.006,0.051l0.006,0.05l0.006,0.051l0.005,0.05l0.005,0.051l0.005,0.05l0.005,0.051l0.004,0.05l0.004,0.05l0.004,0.05l0.003,0.05l0.004,0.05l0.003,0.05l0.002,0.05l0.003,0.049l0.002,0.05l0.002,0.049l0.001,0.05l0.002,0.049l0,0.049l0.001,0.049l0,0.05l0.001,0.049l-0.001,0.049l0,0.048l-0.001,0.049l-0.001,0.049l-0.002,0.048l-0.002,0.049l-0.002,0.048l-0.003,0.048l-0.003,0.048l-0.003,0.049l-0.003,0.048l-0.004,0.047l-0.005,0.048l-0.004,0.048l-0.005,0.047l-0.006,0.048l-0.005,0.045l-0.022,0.173l-0.021,0.17l-0.02,0.169l-0.02,0.168l-0.02,0.166l-0.019,0.165l-0.018,0.164l-0.019,0.163l-0.017,0.161l-0.018,0.16l-0.017,0.16l-0.016,0.158l-0.016,0.157l-0.015,0.155l-0.015,0.155l-0.015,0.153l-0.014,0.153l-0.014,0.151l-0.013,0.151l-0.012,0.149l-0.012,0.148l-0.012,0.147l-0.011,0.146l-0.011,0.146l-0.01,0.144l-0.01,0.143l-0.009,0.142l-0.009,0.141l-0.008,0.14l-0.008,0.14l-0.007,0.138l-0.006,0.138l-0.007,0.136l-0.005,0.136l-0.005,0.135l-0.005,0.133l-0.004,0.133l-0.004,0.133l-0.003,0.131l-0.003,0.131l-0.002,0.129l-0.001,0.129l-0.001,0.128l-0.001,0.128l0,0.126l0.001,0.126l0.001,0.125l0.002,0.125l0.002,0.123l0.003,0.123l0.003,0.122l0.004,0.122l0.004,0.121l0.005,0.12l0.005,0.12l0.006,0.119l0.007,0.118l0.007,0.118l0.008,0.117l0.008,0.117l0.009,0.116l0.009,0.115l0.01,0.115l0.01,0.115l0.011,0.114l0.012,0.113l0.012,0.113l0.013,0.112l0.013,0.112l0.014,0.112l0.015,0.111l0.015,0.111l0.015,0.11l0.017,0.11l0.017,0.109l0.017,0.109l0.018,0.109l0.019,0.109l0.019,0.108l0.02,0.107l0.02,0.108l0.021,0.107l0.022,0.107l0.022,0.107l0.023,0.106l0.023,0.106l0.024,0.106l0.025,0.106l0.025,0.106l0.026,0.105l0.027,0.105l0.027,0.106l0.028,0.105l0.029,0.104l0.029,0.105l0.03,0.105l0.03,0.104l0.031,0.105l0.032,0.104l0.032,0.105l0.033,0.104l0.034,0.105l0.035,0.104l0.035,0.104l0.035,0.105l0.037,0.104l0.037,0.105l0.038,0.104l0.038,0.105l0.039,0.105l0.04,0.105l0.041,0.104l0.041,0.106l0.042,0.105l0.043,0.105l0.043,0.106l0.045,0.106l0.044,0.105l0.046,0.107l0.046,0.106l0.047,0.107l0.048,0.106l0.049,0.108l0.049,0.107l0.05,0.108l0.051,0.108l0.051,0.108l0.052,0.108l0.021,0.042l0.02,0.041l0.022,0.041l0.021,0.042l0.022,0.041l0.023,0.041l0.023,0.041l0.024,0.041l0.024,0.042l0.025,0.041l0.025,0.041l0.025,0.041l0.026,0.041l0.027,0.041l0.027,0.041l0.027,0.041l0.028,0.041l0.029,0.041l0.028,0.04l0.03,0.041l0.03,0.041l0.03,0.041l0.031,0.04l0.031,0.041l0.032,0.041l0.032,0.04l0.033,0.041l0.033,0.04l0.034,0.04l0.034,0.041l0.034,0.04l0.035,0.04l0.036,0.04l0.036,0.04l0.036,0.04l0.037,0.04l0.037,0.04l0.038,0.04l0.038,0.039l0.039,0.04l0.039,0.039l0.04,0.04l0.04,0.039l0.041,0.039l0.041,0.039l0.041,0.04l0.042,0.038l0.042,0.039l0.043,0.039l0.043,0.039l0.044,0.038l0.044,0.039l0.044,0.038l0.045,0.039l0.046,0.038l0.046,0.038l0.046,0.038l0.047,0.038l0.047,0.038l0.047,0.037l0.048,0.038l0.048,0.037l0.049,0.038l0.049,0.037l0.05,0.037l0.05,0.037l0.051,0.037l0.051,0.036l0.051,0.037l0.051,0.036l0.053,0.037l0.052,0.036l0.053,0.036l0.053,0.036l0.054,0.035l0.054,0.036l0.055,0.035l0.055,0.036l0.055,0.035l0.056,0.035l0.056,0.035l0.056,0.035l0.057,0.034l0.057,0.035l0.058,0.034l0.058,0.034l0.058,0.034l0.059,0.034l0.059,0.034l0.059,0.033l0.06,0.033l0.061,0.034l0.06,0.033l0.061,0.032l0.061,0.033l0.062,0.033l0.062,0.032l0.063,0.032l0.062,0.032l0.063,0.032l0.064,0.032l0.064,0.031l0.064,0.031l0.064,0.031l0.065,0.031l0.065,0.031l0.066,0.031l0.066,0.03l0.066,0.03l0.067,0.03l0.066,0.03l0.068,0.03l0.067,0.029l0.068,0.029l0.068,0.029l0.069,0.029l0.069,0.029l0.069,0.028l0.069,0.029l0.07,0.028l0.07,0.028l0.071,0.027l0.07,0.028l0.071,0.027l0.072,0.027l0.071,0.027l0.072,0.026l0.072,0.027l0.073,0.026l0.073,0.026l0.073,0.026l0.073,0.025l0.074,0.026l0.074,0.025l0.075,0.025l0.074,0.024l0.075,0.025l0.075,0.024l0.076,0.024l0.075,0.024l0.076,0.023l0.077,0.024l0.076,0.023l0.077,0.023l0.077,0.022l0.077,0.023l0.078,0.022l0.078,0.022l0.078,0.022l0.078,0.021l0.079,0.021l0.079,0.021l0.079,0.021l0.079,0.021l0.08,0.02l0.08,0.02l0.08,0.02l0.08,0.019l0.081,0.02l0.081,0.019l0.081,0.018l0.082,0.019l0.081,0.018l0.082,0.018l0.082,0.018l0.082,0.018l0.083,0.017l0.083,0.017l0.082,0.017l0.084,0.016l0.083,0.016l0.084,0.016l0.083,0.016l0.085,0.016l0.084,0.015l0.084,0.015l0.085,0.014l0.085,0.015l0.085,0.014l0.085,0.014l0.086,0.013l0.085,0.014l0.086,0.013l0.086,0.012l0.087,0.013l0.086,0.012l0.087,0.012l0.087,0.012l0.087,0.011l0.087,0.011l0.087,0.011l0.088,0.011l0.088,0.01l0.088,0.01l0.088,0.009l0.088,0.01l0.089,0.009l0.088,0.009l0.089,0.008l0.089,0.009l0.089,0.007l0.089,0.008l0.09,0.007l0.09,0.008l0.089,0.006l0.09,0.007l0.09,0.006l0.091,0.006l0.09,0.005l0.091,0.006l0.09,0.005l0.091,0.004l0.091,0.005l0.091,0.004l0.091,0.003l0.092,0.004l0.091,0.003l0.092,0.003l0.092,0.002l0.092,0.002l0.092,0.002l0.092,0.002l0.092,0.001l0.093,0.001l0.092,0l0.093,0.001l0.093,0l0.092,-0.001l0.093,0l0.093,-0.001l0.094,-0.002l0.093,-0.001l0.094,-0.002l0.093,-0.003l0.094,-0.002l0.093,-0.003l0.094,-0.003l0.094,-0.004l0.094,-0.004l0.094,-0.004l0.095,-0.005l0.094,-0.005l0.094,-0.005l0.095,-0.006l0.094,-0.006l0.095,-0.006l0.095,-0.007l0.095,-0.007l0.094,-0.007l0.095,-0.008l0.095,-0.008l0.096,-0.008l0.095,-0.009l0.095,-0.009l0.095,-0.009l0.095,-0.01l0.031,-0.003l0.033,-0.004l0.036,-0.004l0.038,-0.005l0.042,-0.005l0.043,-0.006l0.047,-0.007l0.048,-0.007l0.051,-0.007l0.054,-0.008l0.056,-0.009l0.058,-0.009l0.06,-0.01l0.062,-0.011l0.065,-0.011l0.066,-0.012l0.069,-0.012l0.07,-0.013l0.073,-0.014l0.074,-0.014l0.077,-0.015l0.078,-0.016l0.08,-0.017l0.081,-0.017l0.084,-0.018l0.085,-0.018l0.086,-0.02l0.089,-0.02l0.09,-0.021l0.091,-0.021l0.093,-0.023l0.094,-0.023l0.096,-0.024l0.097,-0.024l0.099,-0.026l0.1,-0.026l0.101,-0.027l0.102,-0.028l0.104,-0.029l0.105,-0.03l0.105,-0.03l0.107,-0.032l0.108,-0.032l0.109,-0.033l0.11,-0.034l0.111,-0.035l0.112,-0.036l0.112,-0.037l0.114,-0.038l0.114,-0.038l0.115,-0.04l0.116,-0.041l0.117,-0.041l0.058,-0.021l0.058,-0.022l0.059,-0.021l0.059,-0.022l0.059,-0.022l0.059,-0.023l0.06,-0.022l0.059,-0.023l0.06,-0.023l0.059,-0.024l0.06,-0.023l0.06,-0.024l0.06,-0.024l0.06,-0.025l0.061,-0.024l0.06,-0.025l0.06,-0.025l0.061,-0.026l0.06,-0.025l0.061,-0.026l0.061,-0.027l0.06,-0.026l0.061,-0.027l0.061,-0.027l0.061,-0.027l0.061,-0.028l0.061,-0.028l0.061,-0.028l0.061,-0.028l0.061,-0.029l0.062,-0.029l0.061,-0.029l0.061,-0.029l0.061,-0.03l0.061,-0.03l0.062,-0.03l0.061,-0.031l0.061,-0.031l0.061,-0.031l0.061,-0.031l0.061,-0.032l0.062,-0.032l0.061,-0.032l0.061,-0.033l0.061,-0.033l0.061,-0.033l0.061,-0.033l0.06,-0.034l0.061,-0.034l0.061,-0.034l0.061,-0.035l0.06,-0.035l0.061,-0.035l0.06,-0.035l0.061,-0.036l0.06,-0.036l0.06,-0.037l0.06,-0.036l0.06,-0.037l0.06,-0.038l0.06,-0.037l0.059,-0.038l0.06,-0.038l0.059,-0.039l0.059,-0.038l0.06,-0.04l0.059,-0.039l0.058,-0.04l0.059,-0.04l0.059,-0.04l0.058,-0.041l0.058,-0.041l0.058,-0.041l0.058,-0.041l0.058,-0.042l0.058,-0.042l0.057,-0.043l0.057,-0.043l0.057,-0.043l0.057,-0.043l0.057,-0.044l0.056,-0.044l0.056,-0.045l0.056,-0.044l0.056,-0.045l0.056,-0.046l0.055,-0.046l0.055,-0.046l0.055,-0.046l0.054,-0.047l0.055,-0.047l0.054,-0.047l0.054,-0.048l0.053,-0.048l0.054,-0.048l0.053,-0.049l0.053,-0.049l0.052,-0.049l0.053,-0.05l0.052,-0.05l0.052,-0.05l0.051,-0.051l0.051,-0.051l0.051,-0.051l0.051,-0.052l0.05,-0.052l0.05,-0.052l0.05,-0.053l0.049,-0.053l0.049,-0.053l0.049,-0.054l0.048,-0.054l0.048,-0.054l0.048,-0.055l0.047,-0.055l0.047,-0.056l0.047,-0.056l0.047,-0.056l0.046,-0.057l0.045,-0.056l0.046,-0.058l0.045,-0.057l0.044,-0.058l0.044,-0.059l0.044,-0.058l0.044,-0.059l0.043,-0.06l0.042,-0.06l0.043,-0.06l0.042,-0.06l0.041,-0.061l0.041,-0.062l0.041,-0.061l0.04,-0.062l0.04,-0.063l0.04,-0.062l0.039,-0.064l0.038,-0.063l0.039,-0.064l0.037,-0.064l0.038,-0.065l0.037,-0.065l0.036,-0.066l0.036,-0.065l0.036,-0.067l0.035,-0.066l0.035,-0.067l0.034,-0.068l0.034,-0.068l0.036,-0.074l0.009,-0.018l0.02,-0.041l0.035,-0.071l0.021,-0.045l0.025,-0.052l0.028,-0.059l0.03,-0.065l0.033,-0.072l0.036,-0.078l0.038,-0.084l0.04,-0.09l0.042,-0.096l0.044,-0.101l0.045,-0.107l0.048,-0.112l0.049,-0.118l0.025,-0.061l0.025,-0.062l0.026,-0.063l0.026,-0.064l0.026,-0.066l0.026,-0.066l0.027,-0.068l0.027,-0.069l0.027,-0.071l0.027,-0.071l0.028,-0.072l0.028,-0.074l0.027,-0.074l0.028,-0.076l0.028,-0.076l0.028,-0.078l0.029,-0.078l0.028,-0.08l0.028,-0.08l0.028,-0.082l0.029,-0.082l0.028,-0.083l0.028,-0.084l0.028,-0.085l0.029,-0.086l0.028,-0.086l0.028,-0.088l0.028,-0.088l0.027,-0.089l0.028,-0.089l0.027,-0.091l0.027,-0.091l0.028,-0.091l0.026,-0.093l0.027,-0.093l0.026,-0.094l0.026,-0.094l0.026,-0.095l0.026,-0.095l0.025,-0.096l0.025,-0.097l0.024,-0.097l0.024,-0.098l0.024,-0.098l0.024,-0.098l0.022,-0.099l0.023,-0.1l0.022,-0.1l0.022,-0.1l0.021,-0.1l0.02,-0.101l0.021,-0.102l0.019,-0.101l0.019,-0.102l0.019,-0.102l0.018,-0.103l0.017,-0.102l0.017,-0.103l0.016,-0.103l0.015,-0.104l0.015,-0.104l0.007,-0.051l0.007,-0.052l0.007,-0.051l0.007,-0.052l0.006,-0.052l0.006,-0.052l0.007,-0.052l0.005,-0.052l0.006,-0.052l0.006,-0.052l0.005,-0.052l0.005,-0.052l0.005,-0.052l0.005,-0.052l0.005,-0.052l0.004,-0.052l0.004,-0.052l0.004,-0.052l0.004,-0.052l0.004,-0.052l0.003,-0.052l0.003,-0.052l0.003,-0.051l0.003,-0.052l0.003,-0.052l0.002,-0.052l0.002,-0.052l0.002,-0.052l0.002,-0.051l0.001,-0.052l0.001,-0.052l0.001,-0.052l0.001,-0.051l0.001,-0.052l0,-0.051l0,-0.052l0,-0.051l0,-0.051l-0.001,-0.052l-0.001,-0.051l-0.001,-0.051l-0.001,-0.051l-0.002,-0.051l-0.002,-0.051l-0.002,-0.051l-0.002,-0.051l-0.003,-0.051l-0.002,-0.05l-0.004,-0.051l-0.003,-0.05l-0.004,-0.051l-0.003,-0.05l-0.004,-0.051l-0.005,-0.05l-0.004,-0.05l-0.005,-0.05l-0.006,-0.05l-0.005,-0.051l-0.019,-0.168l-0.018,-0.168l-0.018,-0.167l-0.017,-0.167l-0.017,-0.165l-0.016,-0.164l-0.015,-0.163l-0.015,-0.163l-0.015,-0.161l-0.014,-0.16l-0.014,-0.159l-0.013,-0.159l-0.013,-0.157l-0.012,-0.156l-0.011,-0.156l-0.012,-0.154l-0.01,-0.153l-0.011,-0.153l-0.009,-0.152l-0.01,-0.15l-0.009,-0.15l-0.008,-0.149l-0.008,-0.148l-0.008,-0.147l-0.007,-0.146l-0.006,-0.145l-0.007,-0.144l-0.006,-0.144l-0.005,-0.142l-0.005,-0.142l-0.004,-0.141l-0.005,-0.14l-0.003,-0.139l-0.004,-0.138l-0.003,-0.137l-0.002,-0.137l-0.002,-0.136l-0.002,-0.135l-0.002,-0.134l-0.001,-0.133l0,-0.133l-0.001,-0.131l0,-0.131l0.001,-0.13l0.001,-0.13l0.001,-0.128l0.001,-0.128l0.002,-0.127l0.002,-0.127l0.003,-0.125l0.003,-0.125l0.003,-0.124l0.003,-0.123l0.004,-0.123l0.004,-0.122l0.004,-0.121l0.005,-0.12l0.005,-0.12l0.006,-0.119l0.005,-0.118l0.006,-0.118l0.006,-0.117l0.007,-0.116l0.006,-0.116l0.007,-0.115l0.008,-0.114l0.007,-0.114l0.008,-0.113l0.008,-0.112l0.008,-0.112l0.009,-0.111l0.009,-0.111l0.009,-0.11l0.009,-0.109l0.009,-0.108l0.01,-0.108l0.01,-0.108l0.01,-0.107l0.01,-0.106l0.011,-0.106l0.011,-0.105l0.011,-0.105l0.011,-0.104l0.011,-0.103l0.012,-0.103l0.011,-0.102l0.012,-0.102l0.012,-0.101l0.013,-0.101l0.012,-0.1l0.012,-0.1l0.013,-0.099l0.013,-0.099l0.013,-0.098l0.013,-0.098l0.013,-0.097l0.014,-0.097l0.013,-0.096l0.014,-0.096l0.014,-0.096l0.027,-0.189l0.029,-0.187l0.028,-0.186l0.029,-0.184l0.03,-0.183l0.029,-0.181l0.03,-0.179l0.03,-0.178l0.03,-0.176l0.031,-0.175l0.03,-0.174l0.031,-0.172l0.03,-0.171l0.031,-0.169l0.061,-0.336l0.06,-0.332l0.06,-0.327l0.059,-0.324l0.029,-0.161l0.028,-0.159l0.029,-0.16l0.027,-0.158l0.028,-0.158l0.027,-0.157l0.026,-0.157l0.026,-0.157l0.026,-0.156l0.024,-0.155l0.024,-0.155l0.024,-0.155l0.023,-0.156l0.011,-0.077l0.011,-0.077l0.01,-0.077l0.011,-0.077l0.01,-0.078l0.01,-0.077l0.01,-0.077l0.01,-0.077l0.01,-0.078l0.009,-0.077l0.009,-0.077l0.009,-0.077l0.008,-0.078l0.009,-0.077l0.008,-0.078l0.008,-0.077l0.008,-0.078l0.007,-0.077l0.007,-0.078l0.007,-0.078l0.007,-0.078l0.006,-0.078l0.006,-0.078l0.006,-0.078l0.006,-0.079l0.005,-0.078l0.005,-0.079l0.005,-0.079l0.005,-0.079l0.004,-0.079l0.004,-0.079l0.003,-0.079l0.004,-0.08l0.003,-0.08l0.002,-0.08l0.003,-0.08l0.002,-0.08l0.002,-0.081l0.001,-0.081l0.001,-0.081l0.001,-0.081l0,-0.082l0,-0.082l0,-0.082l0,-0.082l-0.001,-0.083l-0.002,-0.083l-0.001,-0.083l-0.002,-0.083l-0.003,-0.084l-0.003,-0.084l-0.003,-0.084l-0.003,-0.085l-0.004,-0.085l-0.005,-0.086l-0.004,-0.085l-0.005,-0.087l-0.006,-0.086l-0.006,-0.087l-0.006,-0.087l-0.007,-0.088l-0.007,-0.088l-0.008,-0.088l-0.008,-0.089l-0.008,-0.089l-0.009,-0.089l-0.009,-0.09l-0.01,-0.091l-0.011,-0.091l-0.01,-0.091l-0.011,-0.092l-0.012,-0.092l-0.012,-0.093l-0.013,-0.093l-0.013,-0.094l-0.013,-0.094l-0.014,-0.094l-0.015,-0.096l-0.014,-0.095l-0.016,-0.096l-0.016,-0.097l-0.016,-0.097l-0.017,-0.098l-0.018,-0.098l-0.018,-0.099l-0.018,-0.1l-0.027,-0.139l-0.027,-0.141l-0.029,-0.14l-0.029,-0.142l-0.029,-0.142l-0.031,-0.142l-0.031,-0.142l-0.032,-0.143l-0.032,-0.144l-0.034,-0.144l-0.017,-0.071l-0.017,-0.072l-0.017,-0.072l-0.018,-0.072l-0.018,-0.073l-0.018,-0.072l-0.018,-0.072l-0.019,-0.072l-0.018,-0.073l-0.019,-0.072l-0.019,-0.072l-0.019,-0.073l-0.02,-0.072l-0.019,-0.073l-0.02,-0.072l-0.02,-0.072l-0.02,-0.073l-0.021,-0.072l-0.02,-0.073l-0.021,-0.072l-0.021,-0.073l-0.022,-0.072l-0.021,-0.072l-0.022,-0.073l-0.022,-0.072l-0.022,-0.072l-0.022,-0.073l-0.023,-0.072l-0.022,-0.072l-0.023,-0.072l-0.023,-0.072l-0.024,-0.072l-0.023,-0.072l-0.024,-0.072l-0.024,-0.072l-0.024,-0.072l-0.025,-0.071l-0.024,-0.072l-0.025,-0.071l-0.025,-0.072l-0.026,-0.071l-0.025,-0.071l-0.026,-0.071l-0.026,-0.071l-0.026,-0.071l-0.027,-0.071l-0.026,-0.07l-0.027,-0.071l-0.027,-0.07l-0.027,-0.071l-0.028,-0.07l-0.028,-0.07l-0.028,-0.07l-0.028,-0.069l-0.028,-0.07l-0.029,-0.069l-0.029,-0.069l-0.029,-0.069l-0.029,-0.069l-0.03,-0.069l-0.029,-0.069l-0.03,-0.068l-0.03,-0.068l-0.031,-0.068l-0.031,-0.068l-0.03,-0.067l-0.032,-0.068l-0.031,-0.067l-0.031,-0.067l-0.032,-0.067l-0.032,-0.066l-0.033,-0.067l-0.032,-0.066l-0.033,-0.066l-0.033,-0.065l-0.033,-0.066l-0.033,-0.065l-0.034,-0.065l-0.034,-0.064l-0.034,-0.065l-0.034,-0.064l-0.035,-0.064l-0.035,-0.064l-0.035,-0.063l-0.035,-0.063l-0.035,-0.063l-0.036,-0.062l-0.036,-0.063l-0.036,-0.062l-0.037,-0.061l-0.036,-0.062l-0.037,-0.061l-0.037,-0.06l-0.038,-0.061l-0.037,-0.06l-0.038,-0.06l-0.038,-0.059l-0.038,-0.059l-0.039,-0.059l-0.039,-0.059l-0.039,-0.058l-0.039,-0.058l-0.039,-0.057l-0.04,-0.058l-0.04,-0.056l-0.04,-0.057l-0.041,-0.056l-0.04,-0.056l-0.046,-0.061l-0.046,-0.062l-0.046,-0.061l-0.046,-0.061l-0.047,-0.061l-0.047,-0.06l-0.048,-0.061l-0.047,-0.06l-0.048,-0.059l-0.049,-0.06l-0.049,-0.059l-0.049,-0.06l-0.049,-0.059l-0.05,-0.058l-0.05,-0.059l-0.05,-0.058l-0.05,-0.058l-0.051,-0.058l-0.052,-0.057l-0.051,-0.058l-0.052,-0.057l-0.052,-0.056l-0.052,-0.057l-0.053,-0.056l-0.053,-0.056l-0.053,-0.056l-0.054,-0.056l-0.054,-0.055l-0.054,-0.056l-0.054,-0.054l-0.055,-0.055l-0.055,-0.055l-0.055,-0.054l-0.056,-0.054l-0.056,-0.053l-0.056,-0.054l-0.057,-0.053l-0.056,-0.053l-0.057,-0.053l-0.057,-0.052l-0.058,-0.052l-0.058,-0.052l-0.058,-0.052l-0.058,-0.052l-0.059,-0.051l-0.058,-0.051l-0.06,-0.051l-0.059,-0.05l-0.06,-0.05l-0.059,-0.05l-0.061,-0.05l-0.06,-0.05l-0.06,-0.049l-0.061,-0.049l-0.062,-0.048l-0.061,-0.049l-0.061,-0.048l-0.062,-0.048l-0.062,-0.048l-0.063,-0.047l-0.062,-0.047l-0.063,-0.047l-0.063,-0.047l-0.063,-0.046l-0.064,-0.046l-0.064,-0.046l-0.064,-0.046l-0.064,-0.045l-0.064,-0.045l-0.065,-0.045l-0.065,-0.044l-0.065,-0.045l-0.065,-0.044l-0.066,-0.043l-0.065,-0.044l-0.066,-0.043l-0.066,-0.043l-0.067,-0.042l-0.066,-0.043l-0.067,-0.042l-0.067,-0.042l-0.067,-0.041l-0.068,-0.042l-0.067,-0.041l-0.068,-0.04l-0.068,-0.041l-0.068,-0.04l-0.068,-0.04l-0.069,-0.039l-0.069,-0.04l-0.069,-0.039l-0.069,-0.039l-0.069,-0.038l-0.07,-0.038l-0.069,-0.038l-0.07,-0.038l-0.07,-0.037l-0.07,-0.037l-0.071,-0.037l-0.07,-0.037l-0.071,-0.036l-0.071,-0.036l-0.071,-0.036l-0.071,-0.035l-0.071,-0.035l-0.072,-0.035l-0.071,-0.035l-0.072,-0.034l-0.072,-0.034l-0.072,-0.033l-0.073,-0.034l-0.072,-0.033l-0.073,-0.033l-0.073,-0.032l-0.073,-0.032l-0.072,-0.032l-0.074,-0.032l-0.073,-0.031l-0.073,-0.031l-0.074,-0.031l-0.074,-0.03l-0.074,-0.03l-0.074,-0.03l-0.074,-0.03l-0.074,-0.029l-0.074,-0.029l-0.075,-0.029l-0.075,-0.028l-0.074,-0.028l-0.075,-0.028l-0.075,-0.027l-0.075,-0.027l-0.076,-0.027l-0.075,-0.027l-0.075,-0.026l-0.076,-0.026l-0.076,-0.025l-0.075,-0.026l-0.076,-0.025l-0.076,-0.024l-0.076,-0.025l-0.077,-0.024l-0.076,-0.024l-0.076,-0.023l-0.077,-0.023l-0.076,-0.023l-0.077,-0.023l-0.077,-0.022l-0.076,-0.022l-0.077,-0.021l-0.077,-0.022l-0.077,-0.021l-0.078,-0.02l-0.077,-0.021l-0.077,-0.02l-0.078,-0.019l-0.077,-0.02l-0.078,-0.019l-0.077,-0.018l-0.078,-0.019l-0.078,-0.018l-0.077,-0.018l-0.078,-0.017l-0.078,-0.017l-0.078,-0.017l-0.078,-0.017l-0.078,-0.016l-0.078,-0.016l-0.079,-0.015l-0.078,-0.016l-0.078,-0.015l-0.078,-0.014l-0.079,-0.014l-0.078,-0.014l-0.079,-0.014l-0.078,-0.013l-0.079,-0.013l-0.078,-0.013l-0.079,-0.012l-0.079,-0.012l-0.078,-0.012l-0.079,-0.011l-0.079,-0.011l-0.079,-0.011l-0.078,-0.01l-0.079,-0.01l-0.079,-0.009l-0.079,-0.01l-0.079,-0.009l-0.079,-0.008l-0.079,-0.009l-0.079,-0.008l-0.079,-0.007l-0.078,-0.008l-0.079,-0.007l-0.079,-0.006l-0.079,-0.007l-0.079,-0.006l-0.079,-0.005l-0.079,-0.005l-0.079,-0.005l-0.079,-0.005l-0.079,-0.004l-0.079,-0.004l-0.079,-0.004l-0.079,-0.003l-0.079,-0.003l-0.078,-0.003l-0.079,-0.002l-0.079,-0.002l-0.079,-0.001l-0.079,-0.001l-0.078,-0.001l-0.079,-0.001l-0.079,0l-0.078,0Z"/><path d="M28.467,105.607c14.277,3.323 16.775,-5.006 17.265,-6.817c0.925,-3.41 1.373,-10.02 0.542,-13.535c-0.288,-1.221 -0.833,-2.611 -1.762,-3.621c-2.04,-2.221 -11.166,-2.414 -14.577,-1.893c-1.366,0.209 -2.6,0.681 -3.82,1.199c-4.247,1.801 -5.744,22.783 2.352,24.667Z" style="fill:#b7f8ff;"/><circle cx="49.396" cy="70.336" r="0.596" style="fill:#b7f8ff;"/><circle cx="19.61" cy="72.674" r="0.596" style="fill:#b7f8ff;"/><path d="M9.665,82.166c0,0 2.916,4.512 6.156,4.497c3.241,-0.014 3.875,-2.745 1.579,-3.667c-2.296,-0.921 -4.374,-1.986 -5.046,-3.855c-0.671,-1.869 -4.557,0.196 -2.689,3.025Z" style="fill:#d6c295;stroke:#000;stroke-width:1.08px;"/><g><g><path d="M38.352,72.318c-0.153,0.883 -0.094,2.523 -0.552,3.273c-0.222,0.363 -0.765,0.415 -1.118,0.449c-2.031,0.197 -1.741,-0.747 -2.161,-2.541" style="fill:#ededed;"/><path d="M38.385,71.778l0.028,0.002l0.028,0.004l0.028,0.005l0.027,0.007l0.027,0.009l0.027,0.009l0.026,0.011l0.025,0.013l0.025,0.013l0.024,0.015l0.023,0.017l0.023,0.017l0.021,0.019l0.02,0.019l0.02,0.021l0.018,0.022l0.017,0.022l0.016,0.024l0.014,0.024l0.014,0.025l0.012,0.026l0.01,0.026l0.01,0.027l0.007,0.027l0.007,0.028l0.005,0.028l0.003,0.028l0.002,0.028l0.001,0.028l-0.001,0.029l-0.003,0.028l-0.004,0.028l-0.006,0.039l-0.006,0.037l-0.006,0.04l-0.005,0.04l-0.006,0.042l-0.005,0.043l-0.005,0.045l-0.005,0.045l-0.005,0.047l-0.005,0.048l-0.004,0.049l-0.005,0.049l-0.009,0.103l-0.008,0.106l-0.009,0.108l-0.008,0.111l-0.009,0.113l-0.009,0.115l-0.009,0.116l-0.01,0.118l-0.011,0.118l-0.006,0.06l-0.006,0.06l-0.006,0.059l-0.006,0.06l-0.007,0.06l-0.007,0.06l-0.007,0.06l-0.008,0.06l-0.008,0.059l-0.008,0.06l-0.009,0.059l-0.009,0.059l-0.01,0.059l-0.011,0.059l-0.01,0.059l-0.012,0.058l-0.012,0.058l-0.012,0.058l-0.014,0.057l-0.014,0.057l-0.014,0.056l-0.008,0.029l-0.008,0.028l-0.008,0.028l-0.008,0.028l-0.008,0.028l-0.009,0.028l-0.009,0.027l-0.009,0.027l-0.009,0.028l-0.01,0.027l-0.01,0.027l-0.01,0.027l-0.011,0.027l-0.01,0.027l-0.011,0.027l-0.012,0.026l-0.011,0.026l-0.012,0.027l-0.013,0.026l-0.012,0.026l-0.013,0.026l-0.014,0.025l-0.014,0.026l-0.014,0.026l-0.014,0.025l-0.016,0.027l-0.019,0.029l-0.021,0.031l-0.021,0.029l-0.023,0.029l-0.022,0.028l-0.024,0.027l-0.024,0.025l-0.024,0.025l-0.025,0.024l-0.026,0.023l-0.025,0.022l-0.026,0.021l-0.026,0.02l-0.027,0.02l-0.027,0.018l-0.027,0.018l-0.026,0.017l-0.027,0.016l-0.027,0.015l-0.027,0.015l-0.027,0.014l-0.027,0.013l-0.027,0.013l-0.027,0.012l-0.027,0.012l-0.027,0.011l-0.026,0.01l-0.027,0.01l-0.027,0.009l-0.026,0.009l-0.026,0.009l-0.026,0.008l-0.026,0.008l-0.026,0.007l-0.026,0.007l-0.025,0.006l-0.026,0.007l-0.025,0.006l-0.025,0.005l-0.026,0.006l-0.047,0.009l-0.048,0.009l-0.047,0.008l-0.046,0.007l-0.045,0.006l-0.044,0.006l-0.042,0.005l-0.042,0.005l-0.039,0.004l-0.038,0.004l-0.071,0.007l-0.05,0.005l-0.051,0.004l-0.049,0.004l-0.049,0.003l-0.048,0.003l-0.048,0.003l-0.047,0.002l-0.047,0.002l-0.046,0.001l-0.045,0.001l-0.045,0l-0.044,0l-0.043,-0.001l-0.044,-0.001l-0.042,-0.001l-0.042,-0.003l-0.042,-0.002l-0.041,-0.003l-0.041,-0.004l-0.04,-0.004l-0.04,-0.005l-0.04,-0.005l-0.039,-0.006l-0.039,-0.006l-0.038,-0.007l-0.038,-0.008l-0.038,-0.008l-0.037,-0.009l-0.037,-0.01l-0.037,-0.01l-0.036,-0.011l-0.036,-0.012l-0.035,-0.012l-0.035,-0.013l-0.035,-0.014l-0.034,-0.014l-0.034,-0.016l-0.034,-0.016l-0.032,-0.016l-0.033,-0.018l-0.032,-0.018l-0.031,-0.019l-0.031,-0.02l-0.03,-0.021l-0.03,-0.021l-0.029,-0.022l-0.029,-0.023l-0.027,-0.023l-0.027,-0.023l-0.026,-0.025l-0.026,-0.025l-0.024,-0.025l-0.025,-0.026l-0.023,-0.027l-0.022,-0.027l-0.022,-0.027l-0.021,-0.028l-0.02,-0.027l-0.02,-0.029l-0.018,-0.028l-0.018,-0.029l-0.018,-0.029l-0.017,-0.029l-0.015,-0.029l-0.016,-0.029l-0.015,-0.03l-0.014,-0.029l-0.014,-0.03l-0.013,-0.03l-0.012,-0.03l-0.013,-0.03l-0.011,-0.03l-0.012,-0.031l-0.01,-0.03l-0.011,-0.03l-0.01,-0.031l-0.01,-0.03l-0.009,-0.031l-0.009,-0.03l-0.009,-0.031l-0.009,-0.031l-0.008,-0.031l-0.008,-0.031l-0.008,-0.031l-0.007,-0.032l-0.008,-0.032l-0.014,-0.062l-0.014,-0.064l-0.013,-0.065l-0.013,-0.065l-0.012,-0.065l-0.013,-0.066l-0.012,-0.068l-0.024,-0.135l-0.025,-0.14l-0.013,-0.071l-0.013,-0.072l-0.013,-0.072l-0.014,-0.074l-0.015,-0.074l-0.015,-0.076l-0.015,-0.076l-0.017,-0.077l-0.017,-0.078l-0.019,-0.082l-0.005,-0.027l-0.005,-0.028l-0.002,-0.029l-0.001,-0.028l0,-0.028l0.002,-0.028l0.003,-0.029l0.005,-0.028l0.006,-0.027l0.007,-0.027l0.009,-0.027l0.011,-0.027l0.012,-0.025l0.013,-0.026l0.014,-0.024l0.016,-0.023l0.017,-0.023l0.018,-0.022l0.019,-0.021l0.02,-0.02l0.021,-0.018l0.022,-0.018l0.024,-0.016l0.023,-0.016l0.025,-0.014l0.026,-0.012l0.026,-0.011l0.026,-0.01l0.027,-0.009l0.028,-0.007l0.027,-0.005l0.028,-0.005l0.028,-0.002l0.029,-0.001l0.028,0l0.028,0.002l0.029,0.003l0.027,0.005l0.028,0.006l0.027,0.007l0.027,0.009l0.027,0.011l0.025,0.012l0.025,0.013l0.025,0.014l0.023,0.016l0.023,0.017l0.022,0.018l0.021,0.019l0.02,0.02l0.018,0.021l0.018,0.023l0.016,0.023l0.016,0.023l0.014,0.025l0.012,0.026l0.011,0.026l0.01,0.026l0.009,0.027l0.007,0.028l0.019,0.085l0.019,0.086l0.019,0.085l0.017,0.083l0.016,0.081l0.015,0.08l0.015,0.078l0.014,0.077l0.014,0.075l0.013,0.073l0.025,0.14l0.024,0.133l0.011,0.064l0.012,0.062l0.011,0.059l0.012,0.058l0.011,0.055l0.012,0.053l0.011,0.052l0.006,0.024l0.006,0.024l0.006,0.024l0.006,0.023l0.006,0.022l0.006,0.022l0.006,0.021l0.006,0.021l0.006,0.019l0.006,0.02l0.006,0.018l0.006,0.018l0.007,0.018l0.006,0.017l0.006,0.016l0.006,0.015l0.007,0.015l0.006,0.014l0.006,0.014l0.006,0.013l0.007,0.012l0.006,0.012l0.006,0.012l0.006,0.01l0.006,0.01l0.006,0.01l0.006,0.009l0.006,0.009l0.006,0.008l0.006,0.008l0.006,0.007l0.006,0.007l0.006,0.006l0.005,0.007l0.006,0.006l0.006,0.006l0.006,0.005l0.007,0.006l0.006,0.005l0.007,0.006l0.006,0.005l0.007,0.005l0.008,0.005l0.008,0.005l0.008,0.005l0.008,0.005l0.009,0.005l0.01,0.004l0.01,0.005l0.011,0.005l0.012,0.005l0.012,0.005l0.013,0.005l0.014,0.005l0.014,0.004l0.015,0.005l0.016,0.004l0.017,0.005l0.018,0.004l0.018,0.004l0.02,0.004l0.02,0.004l0.021,0.003l0.023,0.003l0.023,0.004l0.024,0.002l0.025,0.003l0.026,0.002l0.027,0.002l0.027,0.002l0.029,0.001l0.03,0.002l0.031,0l0.031,0.001l0.033,0l0.033,0l0.035,-0.001l0.035,-0.001l0.037,-0.001l0.037,-0.002l0.039,-0.002l0.039,-0.002l0.041,-0.003l0.041,-0.003l0.042,-0.004l0.044,-0.004l0.066,-0.007l0.033,-0.003l0.034,-0.004l0.033,-0.003l0.033,-0.004l0.033,-0.005l0.033,-0.004l0.033,-0.005l0.031,-0.006l0.032,-0.005l0.031,-0.007l0.014,-0.003l0.015,-0.003l0.014,-0.003l0.015,-0.004l0.013,-0.003l0.014,-0.004l0.013,-0.004l0.014,-0.004l0.012,-0.004l0.013,-0.004l0.012,-0.004l0.011,-0.004l0.012,-0.004l0.01,-0.004l0.01,-0.004l0.011,-0.005l0.009,-0.004l0.009,-0.004l0.009,-0.005l0.008,-0.004l0.008,-0.004l0.007,-0.004l0.006,-0.004l0.007,-0.004l0.006,-0.004l0.005,-0.004l0.005,-0.003l0.004,-0.004l0.005,-0.003l0.003,-0.003l0.004,-0.003l0.002,-0.003l0.003,-0.003l0.003,-0.003l0.002,-0.002l0.002,-0.002l0.001,-0.003l0.002,-0.002l0.002,-0.002l0.002,-0.004l0.005,-0.009l0.007,-0.011l0.006,-0.011l0.006,-0.012l0.007,-0.012l0.006,-0.013l0.007,-0.013l0.006,-0.014l0.006,-0.014l0.007,-0.014l0.006,-0.015l0.007,-0.015l0.006,-0.016l0.006,-0.016l0.006,-0.017l0.007,-0.017l0.006,-0.017l0.006,-0.018l0.006,-0.018l0.006,-0.019l0.006,-0.018l0.006,-0.02l0.005,-0.019l0.006,-0.02l0.006,-0.02l0.005,-0.02l0.011,-0.043l0.011,-0.043l0.01,-0.044l0.01,-0.046l0.009,-0.046l0.01,-0.047l0.008,-0.048l0.009,-0.05l0.008,-0.049l0.008,-0.051l0.008,-0.051l0.007,-0.052l0.008,-0.053l0.006,-0.053l0.007,-0.054l0.006,-0.054l0.006,-0.054l0.006,-0.055l0.006,-0.056l0.005,-0.055l0.006,-0.055l0.01,-0.113l0.009,-0.113l0.009,-0.113l0.009,-0.113l0.009,-0.112l0.008,-0.112l0.009,-0.111l0.009,-0.109l0.009,-0.108l0.005,-0.054l0.005,-0.053l0.005,-0.053l0.006,-0.052l0.005,-0.052l0.006,-0.051l0.007,-0.05l0.006,-0.051l0.007,-0.049l0.007,-0.049l0.008,-0.049l0.007,-0.045l0.005,-0.027l0.007,-0.028l0.009,-0.027l0.009,-0.027l0.011,-0.026l0.013,-0.025l0.013,-0.025l0.015,-0.024l0.017,-0.023l0.017,-0.022l0.019,-0.022l0.019,-0.02l0.021,-0.019l0.022,-0.019l0.022,-0.017l0.024,-0.016l0.024,-0.014l0.025,-0.013l0.026,-0.012l0.026,-0.011l0.027,-0.009l0.027,-0.008l0.028,-0.006l0.028,-0.005l0.028,-0.004l0.028,-0.002l0.028,0l0.029,0.001Z"/><path d="M36.149,66.272c-1.651,0.102 -2.938,1.036 -2.874,2.085c0.065,1.049 1.457,1.819 3.107,1.717c1.651,-0.101 2.938,-1.036 2.874,-2.085c-0.065,-1.049 -1.457,-1.818 -3.107,-1.717Z"/><path d="M36.466,68.962l0.024,0.002l0.023,0.002l0.024,0.004l0.024,0.005l0.023,0.006l0.023,0.007l0.022,0.007l0.023,0.009l0.021,0.01l0.022,0.011l0.021,0.012l0.02,0.012l0.02,0.014l0.019,0.014l0.018,0.015l0.018,0.016l0.017,0.017l0.016,0.018l0.016,0.018l0.015,0.019l0.014,0.019l0.013,0.02l0.012,0.021l0.011,0.021l0.01,0.022l0.009,0.022l0.008,0.023l0.008,0.022l0.006,0.024l0.005,0.023l0.004,0.023l0.003,0.024l0.002,0.024l0.001,0.024l0.001,0.041l0.001,0.04l0.001,0.04l0.001,0.04l0.002,0.04l0.002,0.039l0.003,0.081l0.005,0.08l0.005,0.08l0.006,0.08l0.006,0.081l0.006,0.081l0.007,0.08l0.008,0.081l0.008,0.081l0.008,0.082l0.008,0.081l0.009,0.082l0.009,0.082l0.018,0.165l0.019,0.166l0.019,0.167l0.019,0.167l0.009,0.085l0.009,0.085l0.009,0.086l0.008,0.085l0.008,0.086l0.008,0.087l0.007,0.087l0.007,0.086l0.001,0.023l0,0.024l0,0.024l-0.002,0.024l-0.003,0.024l-0.004,0.024l-0.005,0.023l-0.006,0.023l-0.007,0.023l-0.008,0.023l-0.009,0.022l-0.01,0.021l-0.011,0.022l-0.012,0.021l-0.013,0.02l-0.013,0.019l-0.015,0.019l-0.015,0.019l-0.016,0.017l-0.017,0.017l-0.018,0.017l-0.018,0.015l-0.019,0.015l-0.02,0.013l-0.02,0.013l-0.021,0.012l-0.021,0.011l-0.022,0.01l-0.022,0.009l-0.023,0.008l-0.022,0.007l-0.024,0.006l-0.023,0.005l-0.024,0.004l-0.023,0.003l-0.024,0.002l-0.024,0.001l-0.024,-0.001l-0.024,-0.001l-0.024,-0.002l-0.024,-0.004l-0.023,-0.004l-0.023,-0.006l-0.023,-0.006l-0.023,-0.008l-0.022,-0.008l-0.022,-0.01l-0.022,-0.01l-0.021,-0.012l-0.021,-0.012l-0.019,-0.013l-0.02,-0.014l-0.019,-0.015l-0.018,-0.016l-0.017,-0.016l-0.016,-0.018l-0.016,-0.018l-0.015,-0.018l-0.014,-0.02l-0.014,-0.02l-0.012,-0.02l-0.011,-0.021l-0.011,-0.022l-0.009,-0.022l-0.009,-0.022l-0.007,-0.023l-0.007,-0.023l-0.006,-0.023l-0.004,-0.024l-0.004,-0.023l-0.002,-0.024l-0.006,-0.083l-0.007,-0.081l-0.007,-0.081l-0.008,-0.081l-0.008,-0.082l-0.008,-0.081l-0.009,-0.082l-0.009,-0.082l-0.018,-0.165l-0.019,-0.166l-0.019,-0.166l-0.018,-0.167l-0.01,-0.085l-0.009,-0.084l-0.009,-0.085l-0.008,-0.085l-0.008,-0.086l-0.008,-0.086l-0.008,-0.086l-0.007,-0.087l-0.007,-0.087l-0.006,-0.087l-0.005,-0.088l-0.005,-0.088l-0.004,-0.088l-0.002,-0.045l-0.002,-0.045l-0.001,-0.045l-0.002,-0.044l-0.001,-0.045l-0.001,-0.044l0,-0.024l0.002,-0.024l0.002,-0.024l0.003,-0.024l0.004,-0.023l0.006,-0.023l0.006,-0.024l0.007,-0.022l0.009,-0.023l0.009,-0.022l0.01,-0.021l0.012,-0.022l0.012,-0.02l0.013,-0.02l0.014,-0.02l0.015,-0.018l0.015,-0.019l0.017,-0.017l0.017,-0.017l0.018,-0.016l0.018,-0.015l0.019,-0.014l0.02,-0.013l0.021,-0.013l0.021,-0.012l0.021,-0.01l0.022,-0.01l0.022,-0.009l0.023,-0.007l0.023,-0.007l0.023,-0.006l0.024,-0.004l0.023,-0.004l0.024,-0.003l0.024,-0.001l0.024,-0.001l0.024,0.001Z"/><path d="M39.316,71.554l0.054,0.001l0.054,0.001l0.054,0.002l0.053,0.002l0.054,0.002l0.052,0.003l0.053,0.004l0.052,0.004l0.052,0.004l0.052,0.005l0.051,0.005l0.051,0.006l0.051,0.006l0.05,0.007l0.05,0.008l0.049,0.008l0.05,0.008l0.049,0.009l0.048,0.009l0.048,0.01l0.048,0.011l0.048,0.011l0.047,0.012l0.047,0.012l0.046,0.013l0.046,0.014l0.046,0.014l0.045,0.014l0.045,0.016l0.045,0.016l0.044,0.016l0.044,0.018l0.043,0.018l0.043,0.018l0.043,0.02l0.042,0.02l0.041,0.021l0.041,0.021l0.041,0.023l0.04,0.023l0.039,0.023l0.021,0.013l0.019,0.012l0.019,0.013l0.02,0.013l0.019,0.013l0.019,0.013l0.018,0.013l0.019,0.014l0.019,0.014l0.018,0.013l0.018,0.015l0.018,0.014l0.018,0.015l0.018,0.015l0.017,0.015l0.018,0.015l0.017,0.016l0.017,0.015l0.017,0.016l0.017,0.016l0.016,0.016l0.016,0.017l0.017,0.017l0.015,0.017l0.016,0.017l0.016,0.017l0.015,0.018l0.015,0.018l0.015,0.018l0.014,0.018l0.015,0.018l0.014,0.019l0.014,0.018l0.014,0.019l0.014,0.02l0.013,0.019l0.013,0.019l0.013,0.02l0.012,0.02l0.013,0.02l0.012,0.02l0.012,0.021l0.011,0.021l0.011,0.02l0.011,0.021l0.011,0.021l0.011,0.022l0.01,0.021l0.01,0.022l0.01,0.021l0.009,0.022l0.009,0.023l0.009,0.022l0.009,0.022l0.008,0.022l0.008,0.023l0.008,0.023l0.008,0.023l0.007,0.023l0.007,0.023l0.007,0.023l0.006,0.023l0.006,0.024l0.006,0.023l0.006,0.024l0.004,0.021l0.009,0.051l0.004,0.051l-0.001,0.051l-0.006,0.052l-0.011,0.05l-0.015,0.049l-0.02,0.047l-0.024,0.046l-0.029,0.043l-0.033,0.039l-0.036,0.037l-0.039,0.033l-0.043,0.029l-0.045,0.025l-0.047,0.02l-0.049,0.016l-0.05,0.012l-0.052,0.006l-0.051,0.001l-0.051,-0.003l-0.051,-0.008l-0.05,-0.013l-0.048,-0.018l-0.047,-0.022l-0.044,-0.027l-0.041,-0.031l-0.038,-0.034l-0.035,-0.038l-0.031,-0.041l-0.027,-0.044l-0.023,-0.046l-0.018,-0.048l-0.014,-0.05l-0.003,-0.014l-0.003,-0.011l-0.002,-0.011l-0.003,-0.01l-0.003,-0.011l-0.003,-0.01l-0.003,-0.011l-0.003,-0.01l-0.004,-0.01l-0.003,-0.009l-0.003,-0.01l-0.004,-0.009l-0.004,-0.01l-0.003,-0.009l-0.004,-0.009l-0.004,-0.01l-0.004,-0.008l-0.004,-0.009l-0.004,-0.009l-0.005,-0.009l-0.004,-0.008l-0.004,-0.009l-0.005,-0.008l-0.005,-0.009l-0.004,-0.008l-0.005,-0.008l-0.005,-0.008l-0.005,-0.008l-0.005,-0.008l-0.006,-0.008l-0.005,-0.008l-0.006,-0.008l-0.005,-0.007l-0.006,-0.008l-0.006,-0.007l-0.006,-0.008l-0.006,-0.007l-0.006,-0.008l-0.006,-0.007l-0.007,-0.008l-0.006,-0.007l-0.007,-0.007l-0.007,-0.007l-0.007,-0.008l-0.006,-0.007l-0.008,-0.007l-0.007,-0.007l-0.008,-0.007l-0.007,-0.007l-0.008,-0.007l-0.008,-0.007l-0.008,-0.007l-0.008,-0.007l-0.008,-0.007l-0.009,-0.006l-0.008,-0.007l-0.009,-0.007l-0.009,-0.007l-0.009,-0.006l-0.01,-0.007l-0.009,-0.006l-0.01,-0.007l-0.01,-0.006l-0.009,-0.007l-0.011,-0.006l-0.009,-0.006l-0.022,-0.013l-0.022,-0.013l-0.022,-0.012l-0.023,-0.012l-0.024,-0.012l-0.024,-0.012l-0.026,-0.011l-0.025,-0.011l-0.027,-0.011l-0.027,-0.011l-0.028,-0.011l-0.029,-0.01l-0.029,-0.01l-0.03,-0.01l-0.03,-0.009l-0.032,-0.009l-0.031,-0.009l-0.033,-0.009l-0.033,-0.008l-0.034,-0.008l-0.034,-0.008l-0.036,-0.007l-0.035,-0.007l-0.037,-0.006l-0.036,-0.007l-0.038,-0.006l-0.038,-0.005l-0.039,-0.006l-0.039,-0.005l-0.04,-0.004l-0.04,-0.004l-0.041,-0.004l-0.042,-0.004l-0.041,-0.003l-0.043,-0.003l-0.043,-0.002l-0.044,-0.002l-0.044,-0.002l-0.044,-0.001l-0.045,-0.001l-0.045,0l-0.046,-0.001l-0.047,0l-0.047,0.001l-0.047,0.001l-0.048,0.001l-0.048,0.002l-0.048,0.002l-0.049,0.002l-0.05,0.003l-0.05,0.003l-0.05,0.004l-0.05,0.004l-0.051,0.004l-0.052,0.004l-0.051,0.005l-0.053,0.006l-0.052,0.005l-0.053,0.006l-0.053,0.007l-0.053,0.007l-0.054,0.007l-0.054,0.007l-0.055,0.008l-0.054,0.008l-0.055,0.009l-0.056,0.009l-0.055,0.009l-0.056,0.01l-0.056,0.01l-0.057,0.01l-0.056,0.011l-0.057,0.011l-0.057,0.011l-0.058,0.012l-0.058,0.012l-0.057,0.012l-0.059,0.013l-0.058,0.013l-0.059,0.014l-0.058,0.014l-0.059,0.014l-0.059,0.014l-0.06,0.015l-0.059,0.015l-0.06,0.015l-0.06,0.016l-0.06,0.016l-0.06,0.017l-0.061,0.016l-0.06,0.017l-0.061,0.018l-0.061,0.017l-0.06,0.018l-0.061,0.019l-0.062,0.018l-0.061,0.019l-0.061,0.019l-0.062,0.02l-0.061,0.02l-0.062,0.02l-0.062,0.02l-0.062,0.021l-0.062,0.021l-0.062,0.022l-0.062,0.021l-0.062,0.022l-0.062,0.022l-0.062,0.023l-0.062,0.023l-0.063,0.023l-0.062,0.023l-0.062,0.024l-0.063,0.024l-0.062,0.024l-0.062,0.024l-0.063,0.025l-0.062,0.025l-0.062,0.025l-0.063,0.026l-0.062,0.026l-0.062,0.026l-0.062,0.026l-0.063,0.027l-0.062,0.027l-0.062,0.027l-0.062,0.028l-0.062,0.027l-0.062,0.028l-0.062,0.028l-0.062,0.029l-0.061,0.029l-0.062,0.028l-0.061,0.03l-0.062,0.029l-0.061,0.03l-0.061,0.03l-0.061,0.03l-0.061,0.03l-0.061,0.031l-0.061,0.031l-0.061,0.031l-0.06,0.031l-0.06,0.031l-0.06,0.032l-0.06,0.032l-0.06,0.032l-0.06,0.033l-0.059,0.032l-0.059,0.033l-0.06,0.033l-0.058,0.034l-0.059,0.033l-0.059,0.034l-0.058,0.034l-0.058,0.034l-0.058,0.034l-0.057,0.034l-0.058,0.035l-0.057,0.035l-0.057,0.035l-0.057,0.035l-0.056,0.036l-0.056,0.035l-0.056,0.036l-0.056,0.036l-0.055,0.036l-0.055,0.037l-0.055,0.036l-0.054,0.037l-0.055,0.037l-0.053,0.037l-0.054,0.037l-0.053,0.037l-0.053,0.038l-0.053,0.037l-0.052,0.038l-0.052,0.038l-0.052,0.038l-0.051,0.039l-0.051,0.038l-0.051,0.039l-0.05,0.038l-0.05,0.039l-0.049,0.039l-0.049,0.039l-0.049,0.04l-0.048,0.039l-0.048,0.04l-0.048,0.039l-0.047,0.04l-0.047,0.04l-0.046,0.04l-0.046,0.04l-0.045,0.04l-0.045,0.041l-0.045,0.04l-0.044,0.041l-0.044,0.04l-0.043,0.041l-0.043,0.041l-0.042,0.041l-0.042,0.041l-0.041,0.041l-0.041,0.041l-0.041,0.041l-0.04,0.042l-0.039,0.041l-0.039,0.042l-0.038,0.041l-0.038,0.042l-0.038,0.042l-0.037,0.041l-0.036,0.042l-0.036,0.042l-0.035,0.042l-0.035,0.042l-0.034,0.042l-0.034,0.042l-0.033,0.042l-0.033,0.042l-0.032,0.042l-0.033,0.044l-0.032,0.04l-0.037,0.037l-0.039,0.032l-0.043,0.029l-0.045,0.025l-0.047,0.02l-0.049,0.016l-0.051,0.011l-0.051,0.006l-0.051,0.002l-0.052,-0.004l-0.05,-0.008l-0.05,-0.014l-0.048,-0.018l-0.047,-0.022l-0.044,-0.027l-0.041,-0.031l-0.038,-0.034l-0.035,-0.038l-0.031,-0.041l-0.027,-0.044l-0.022,-0.047l-0.018,-0.048l-0.014,-0.05l-0.008,-0.05l-0.004,-0.052l0.001,-0.051l0.006,-0.051l0.011,-0.051l0.016,-0.049l0.02,-0.047l0.025,-0.045l0.028,-0.043l0.036,-0.048l0.038,-0.05l0.038,-0.049l0.039,-0.049l0.039,-0.049l0.04,-0.049l0.041,-0.049l0.041,-0.049l0.041,-0.048l0.042,-0.048l0.042,-0.048l0.043,-0.048l0.043,-0.047l0.044,-0.048l0.045,-0.047l0.044,-0.047l0.046,-0.047l0.045,-0.047l0.046,-0.046l0.047,-0.046l0.047,-0.046l0.048,-0.046l0.047,-0.046l0.049,-0.046l0.048,-0.045l0.05,-0.045l0.049,-0.045l0.05,-0.045l0.051,-0.044l0.05,-0.045l0.051,-0.044l0.052,-0.044l0.052,-0.044l0.052,-0.043l0.053,-0.044l0.053,-0.043l0.053,-0.043l0.054,-0.043l0.054,-0.042l0.054,-0.043l0.055,-0.042l0.055,-0.042l0.055,-0.042l0.056,-0.041l0.056,-0.042l0.056,-0.041l0.057,-0.041l0.057,-0.041l0.057,-0.04l0.058,-0.041l0.058,-0.04l0.058,-0.04l0.058,-0.039l0.059,-0.04l0.059,-0.039l0.059,-0.039l0.059,-0.039l0.06,-0.039l0.06,-0.038l0.06,-0.038l0.061,-0.038l0.061,-0.038l0.061,-0.038l0.061,-0.037l0.061,-0.037l0.062,-0.037l0.061,-0.036l0.062,-0.037l0.063,-0.036l0.062,-0.036l0.063,-0.036l0.062,-0.035l0.063,-0.035l0.063,-0.035l0.064,-0.035l0.063,-0.034l0.064,-0.035l0.063,-0.034l0.064,-0.033l0.065,-0.034l0.064,-0.033l0.064,-0.033l0.065,-0.033l0.064,-0.032l0.065,-0.033l0.065,-0.032l0.065,-0.031l0.065,-0.032l0.065,-0.031l0.065,-0.031l0.066,-0.031l0.065,-0.03l0.066,-0.03l0.065,-0.03l0.066,-0.03l0.066,-0.029l0.065,-0.029l0.066,-0.029l0.066,-0.029l0.066,-0.028l0.066,-0.028l0.066,-0.028l0.067,-0.027l0.066,-0.027l0.066,-0.027l0.066,-0.027l0.066,-0.026l0.066,-0.026l0.067,-0.026l0.066,-0.025l0.066,-0.025l0.066,-0.025l0.066,-0.025l0.067,-0.024l0.066,-0.024l0.066,-0.024l0.066,-0.023l0.066,-0.023l0.066,-0.023l0.066,-0.022l0.066,-0.022l0.066,-0.022l0.066,-0.021l0.065,-0.022l0.066,-0.021l0.066,-0.02l0.065,-0.02l0.066,-0.02l0.065,-0.02l0.065,-0.019l0.065,-0.019l0.066,-0.019l0.064,-0.018l0.065,-0.018l0.065,-0.017l0.065,-0.018l0.064,-0.017l0.065,-0.016l0.064,-0.017l0.064,-0.016l0.064,-0.015l0.064,-0.015l0.063,-0.015l0.064,-0.015l0.063,-0.014l0.063,-0.014l0.063,-0.013l0.063,-0.014l0.063,-0.012l0.062,-0.013l0.063,-0.012l0.062,-0.012l0.061,-0.011l0.062,-0.011l0.062,-0.011l0.061,-0.01l0.061,-0.01l0.061,-0.009l0.061,-0.009l0.06,-0.009l0.06,-0.008l0.06,-0.008l0.06,-0.008l0.06,-0.007l0.059,-0.007l0.059,-0.006l0.059,-0.006l0.058,-0.006l0.059,-0.005l0.058,-0.005l0.057,-0.004l0.058,-0.005l0.057,-0.003l0.057,-0.003l0.057,-0.003l0.056,-0.002l0.056,-0.002l0.056,-0.002l0.056,-0.001l0.055,-0.001l0.055,0l0.055,0Z"/><path d="M39.509,53.507c-0.48,0.448 -0.682,1.014 -0.45,1.263c0.233,0.249 0.811,0.088 1.292,-0.36c0.48,-0.448 0.681,-1.014 0.449,-1.263c-0.232,-0.249 -0.811,-0.087 -1.291,0.36Z" style="fill:#b7f8ff;"/><path d="M29.885,53.767c-0.49,-0.437 -1.071,-0.587 -1.298,-0.333c-0.227,0.254 -0.014,0.816 0.476,1.253c0.49,0.438 1.071,0.587 1.298,0.333c0.227,-0.254 0.014,-0.815 -0.476,-1.253Z" style="fill:#b7f8ff;"/><path d="M46.612,54.479c-3.348,-0.477 -6.454,1.854 -6.931,5.203c-0.477,3.349 1.855,6.455 5.203,6.931c3.349,0.477 6.455,-1.854 6.932,-5.203c0.477,-3.348 -1.855,-6.454 -5.204,-6.931Z" style="fill:#fff;"/><clipPath id="_clip2"><path d="M46.612,54.479c-3.348,-0.477 -6.454,1.854 -6.931,5.203c-0.477,3.349 1.855,6.455 5.203,6.931c3.349,0.477 6.455,-1.854 6.932,-5.203c0.477,-3.348 -1.855,-6.454 -5.204,-6.931Z"/></clipPath><g clip-path="url(#_clip2)"><path d="M40.187,63.027c0,0 2.056,-5.401 8.488,-7.342c-1.654,-1.314 -5.078,-2.104 -7.747,0.565c-2.677,2.677 -1.595,6.264 -0.741,6.777Z" style="fill:#61e0ee;"/><path d="M52.08,61.144c0,0 -3.679,4.457 -10.393,4.234c1.146,1.775 4.136,3.621 7.52,1.948c3.393,-1.678 3.517,-5.423 2.873,-6.182Z" style="fill:#61e0ee;"/></g><path d="M46.612,54.479c-3.348,-0.477 -6.454,1.854 -6.931,5.203c-0.477,3.349 1.855,6.455 5.203,6.931c3.349,0.477 6.455,-1.854 6.932,-5.203c0.477,-3.348 -1.855,-6.454 -5.204,-6.931Z" style="fill:none;stroke:#000;stroke-width:1.08px;"/><path d="M43.701,61.24c-0.609,-0.087 -1.174,0.337 -1.26,0.946c-0.087,0.609 0.337,1.173 0.946,1.26c0.609,0.087 1.173,-0.337 1.26,-0.946c0.087,-0.609 -0.337,-1.173 -0.946,-1.26Z"/><path d="M43.428,62.344c-0.171,-0.024 -0.33,0.095 -0.354,0.266c-0.025,0.171 0.094,0.329 0.265,0.354c0.171,0.024 0.33,-0.095 0.354,-0.266c0.024,-0.171 -0.095,-0.329 -0.265,-0.354Z" style="fill:#fff;"/><path d="M29.932,60.316c-1.117,-3.193 -4.617,-4.877 -7.809,-3.759c-3.192,1.117 -4.877,4.617 -3.759,7.809c1.118,3.192 4.617,4.877 7.809,3.759c3.193,-1.118 4.877,-4.617 3.759,-7.809Z" style="fill:#fff;"/><clipPath id="_clip3"><path d="M29.932,60.316c-1.117,-3.193 -4.617,-4.877 -7.809,-3.759c-3.192,1.117 -4.877,4.617 -3.759,7.809c1.118,3.192 4.617,4.877 7.809,3.759c3.193,-1.118 4.877,-4.617 3.759,-7.809Z"/></clipPath><g clip-path="url(#_clip3)"><path d="M19.808,58.924c0,0 5.741,-0.66 10.424,4.157c0.406,-2.074 -0.469,-5.477 -4.067,-6.619c-3.608,-1.144 -6.295,1.468 -6.357,2.462Z" style="fill:#61e0ee;"/><path d="M26.953,68.615c0,0 -5.65,-1.214 -8.542,-7.278c-1.049,1.834 -1.311,5.339 1.731,7.573c3.051,2.24 6.434,0.627 6.811,-0.295Z" style="fill:#61e0ee;"/></g><path d="M29.932,60.316c-1.117,-3.193 -4.617,-4.877 -7.809,-3.759c-3.192,1.117 -4.877,4.617 -3.759,7.809c1.118,3.192 4.617,4.877 7.809,3.759c3.193,-1.118 4.877,-4.617 3.759,-7.809Z" style="fill:none;stroke:#000;stroke-width:1.08px;"/><path d="M26.607,62.472c-0.687,-0.098 -1.324,0.38 -1.422,1.067c-0.097,0.687 0.381,1.324 1.068,1.422c0.687,0.098 1.324,-0.38 1.422,-1.067c0.097,-0.687 -0.381,-1.324 -1.068,-1.422Z"/><path d="M26.872,63.682c-0.193,-0.028 -0.372,0.106 -0.4,0.299c-0.027,0.193 0.107,0.372 0.3,0.4c0.193,0.027 0.372,-0.107 0.399,-0.3c0.028,-0.193 -0.107,-0.372 -0.299,-0.399Z" style="fill:#fff;"/></g><path d="M20.163,69.697c0,0 1.715,1.643 4.072,1.178" style="fill:none;stroke:#000;stroke-width:1.08px;"/><path d="M50.574,67.317c0,0 2.19,-0.918 2.703,-3.266" style="fill:none;stroke:#000;stroke-width:1.08px;"/><path d="M2.967,57.915l3.822,1.964" style="fill:none;stroke:#000;stroke-width:1.08px;"/><path d="M60.91,61.931l-4.109,-1.256" style="fill:none;stroke:#000;stroke-width:1.08px;"/><path d="M1.681,64.204l4.273,-0.457" style="fill:none;stroke:#000;stroke-width:1.08px;"/><path d="M61.062,55.513l-4.124,1.207" style="fill:none;stroke:#000;stroke-width:1.08px;"/><path d="M3.003,69.864l3.637,-2.289" style="fill:none;stroke:#000;stroke-width:1.08px;"/><path d="M58.758,50.177l-3.174,2.897" style="fill:none;stroke:#000;stroke-width:1.08px;"/></g></g></g></svg>